<?xml version="1.0" encoding="UTF-8" standalone="no"?>
<!-- Created with Inkscape (http://www.inkscape.org/) -->

<svg
   width="21.43125mm"
   height="31.467327mm"
   viewBox="0 0 21.43125 31.467327"
   version="1.1"
   id="svg1"
   xml:space="preserve"
   xmlns="http://www.w3.org/2000/svg"
   xmlns:svg="http://www.w3.org/2000/svg"><defs
     id="defs1" /><g
     id="layer1"
     transform="translate(-163.48345,-93.573225)"><path
       style="fill:#000000"
       d="m 172.91182,124.51027 c -0.92367,-0.72656 -0.94457,-2.01779 -0.0483,-2.98487 0.35686,-0.38505 0.77358,-0.70009 0.92605,-0.70009 0.17251,0 0.27721,-0.89143 0.27721,-2.36023 v -2.36023 l -0.85989,-0.18591 c -1.39451,-0.3015 -3.25016,-1.35323 -4.04134,-2.29052 -0.88178,-1.04461 -1.6995,-2.76138 -1.70754,-3.58488 -0.006,-0.56393 -0.11043,-0.59532 -1.99019,-0.59532 -1.14652,0 -1.98437,-0.11171 -1.98437,-0.26458 0,-0.15287 0.83785,-0.26458 1.98437,-0.26458 1.88072,0 1.98451,-0.0311 1.98696,-0.59532 0.005,-1.09097 1.22916,-3.2482 2.45716,-4.32913 1.11947,-0.9854 2.67165,-1.69014 3.72252,-1.69014 0.36809,0 0.43232,-0.35461 0.43232,-2.386918 0,-2.259922 -0.0336,-2.40225 -0.63228,-2.675009 -1.82625,-0.832096 -1.22602,-3.669318 0.77627,-3.669318 1.03518,0 1.88879,0.66714 2.12397,1.659996 0.14543,0.614002 0.0175,0.881357 -0.78247,1.635878 -0.9541,0.899832 -0.95632,0.907182 -0.95632,3.168651 0,2.24912 0.005,2.26672 0.66996,2.26672 2.35646,0 5.29666,2.84675 5.81969,5.63471 l 0.18383,0.97988 h 1.82263 c 1.03871,0 1.82264,0.1138 1.82264,0.26458 0,0.15059 -0.77929,0.26458 -1.8087,0.26458 h -1.80871 l -0.42784,1.52136 c -0.70383,2.50278 -2.75,4.37347 -5.4136,4.94936 l -0.8599,0.18591 v 2.2457 c 0,2.22378 0.009,2.25424 0.92604,3.11908 1.11726,1.0537 1.20715,2.00904 0.27661,2.93958 -0.80339,0.80339 -1.94317,0.84329 -2.88676,0.10106 z m 2.47786,-0.50996 c 0.68057,-0.68058 0.67239,-1.44428 -0.0229,-2.1396 -0.40545,-0.40546 -0.73926,-0.50702 -1.25677,-0.38239 -1.38393,0.33328 -1.84372,1.89288 -0.7781,2.63927 0.79145,0.55435 1.42211,0.51841 2.0578,-0.11728 z m -1.32292,-14.81667 c 0,-7.19332 0.12736,-6.84856 -2.16087,-5.84943 -1.48904,0.65017 -3.00251,2.24264 -3.51633,3.69988 -0.65051,1.84492 -0.62264,1.88497 1.31158,1.88497 0.97014,0 1.71979,0.11533 1.71979,0.26458 0,0.14925 -0.74965,0.26458 -1.71979,0.26458 -1.88664,0 -1.94114,0.0622 -1.41474,1.61417 0.67571,1.99218 2.34679,3.54662 4.40997,4.10216 0.68096,0.18336 1.26787,0.34141 1.30425,0.35123 0.0364,0.01 0.0661,-2.83964 0.0661,-6.33214 z m 3.40123,5.44152 c 1.35955,-0.70746 2.65704,-2.52322 2.95075,-4.12939 l 0.19155,-1.04755 h -1.55197 c -0.85826,0 -1.55197,-0.11826 -1.55197,-0.26458 0,-0.14737 0.71256,-0.26458 1.60852,-0.26458 h 1.60852 l -0.1856,-0.8599 c -0.44985,-2.08414 -2.03928,-4.03044 -3.92365,-4.80462 -2.1336,-0.87656 -2.01821,-1.21396 -2.01821,5.90098 v 6.32187 l 1.08613,-0.24404 c 0.59736,-0.13422 1.40104,-0.4079 1.78593,-0.60819 z m -2.40176,-18.02423 c 0.64783,-0.453759 0.7968,-1.65477 0.27053,-2.181038 -0.40929,-0.409289 -1.60154,-0.409289 -2.01083,0 -0.48828,0.488281 -0.39336,1.993273 0.14552,2.30714 0.63898,0.372173 0.91449,0.350388 1.59478,-0.126102 z"
       id="path31" /></g></svg>
