<?xml version="1.0" encoding="UTF-8" standalone="no"?>
<!-- Created with Inkscape (http://www.inkscape.org/) -->

<svg
   width="33.993595mm"
   height="15.875mm"
   viewBox="0 0 33.993595 15.875"
   version="1.1"
   id="svg1"
   xml:space="preserve"
   xmlns:inkscape="http://www.inkscape.org/namespaces/inkscape"
   xmlns:sodipodi="http://sodipodi.sourceforge.net/DTD/sodipodi-0.dtd"
   xmlns="http://www.w3.org/2000/svg"
   xmlns:svg="http://www.w3.org/2000/svg"><sodipodi:namedview
     id="namedview1"
     pagecolor="#ffffff"
     bordercolor="#000000"
     borderopacity="0.25"
     inkscape:showpageshadow="2"
     inkscape:pageopacity="0.0"
     inkscape:pagecheckerboard="0"
     inkscape:deskcolor="#d1d1d1"
     inkscape:document-units="mm"
     inkscape:zoom="0.71891835"
     inkscape:cx="397.12437"
     inkscape:cy="561.25984"
     inkscape:window-width="1920"
     inkscape:window-height="1009"
     inkscape:window-x="3832"
     inkscape:window-y="-8"
     inkscape:window-maximized="1"
     inkscape:current-layer="layer1"><inkscape:page
       x="0"
       y="0"
       width="33.993595"
       height="15.875"
       id="page2"
       margin="0"
       bleed="0" /></sodipodi:namedview><defs
     id="defs1" /><g
     inkscape:label="Layer 1"
     inkscape:groupmode="layer"
     id="layer1"
     transform="translate(-66.049717,-33.871433)"><path
       style="fill:#000000"
       d="m 99.700266,42.426531 c -0.26786,0.242403 -0.73095,0.440733 -1.02909,0.440733 -0.29815,0 -0.69323,-0.18212 -0.87796,-0.40471 -0.26017,-0.31348 -0.26697,-0.555965 -0.0302,-1.075692 0.23355,-0.512583 0.46987,-0.651269 1.00107,-0.587477 0.38245,0.04593 0.85911,0.331658 1.05925,0.634958 0.318304,0.482356 0.302874,0.606678 -0.12311,0.992188 z m -3.92786,6.460004 c -0.0734,0.181901 -0.40661,0.330729 -0.74047,0.330729 -0.33385,0 -0.76062,-0.185086 -0.94836,-0.411302 -0.28427,-0.342519 -0.25527,-0.497376 0.17336,-0.92601 0.4736,-0.473597 0.56167,-0.481813 1.1027,-0.102863 0.3234,0.226516 0.5786,0.494393 0.56711,0.595282 -0.0115,0.100889 -0.0809,0.332263 -0.15434,0.514164 z m -0.20894,-12.908986 c -0.21129,0.175356 -0.58548,0.279231 -0.83154,0.230834 -0.24605,-0.0484 -0.57229,-0.286373 -0.72497,-0.528836 -0.20124,-0.319578 -0.18193,-0.556115 0.0702,-0.859896 0.19128,-0.230479 0.54751,-0.419053 0.79163,-0.419053 0.24412,0 0.58673,0.142875 0.76136,0.3175 0.17462,0.174625 0.3175,0.457702 0.3175,0.629061 0,0.171359 -0.17288,0.455034 -0.38417,0.63039 z m -2.19663,7.529176 c -1.12718,0.861026 -3.43321,2.617198 -5.12452,3.902604 -1.69132,1.285406 -3.20936,2.337101 -3.37344,2.337101 -0.20766,0 -0.29833,-1.165932 -0.29833,-3.836458 v -3.836458 h -2.08836 c -1.61224,0 -2.12308,0.09048 -2.24065,0.396875 -0.0838,0.218281 -0.39789,0.396875 -0.69807,0.396875 -0.30018,0 -0.61431,-0.178594 -0.69807,-0.396875 -0.10339,-0.269438 -0.52552,-0.396875 -1.31461,-0.396875 h -1.16232 v 3.226902 3.226903 l 0.99219,-0.908262 c 0.5457,-0.499544 1.61631,-1.500161 2.37914,-2.223594 1.11879,-1.061019 1.45131,-1.250352 1.71979,-0.979246 0.26774,0.270352 0.23789,0.389639 -0.15261,0.609888 -0.26699,0.150591 -1.51715,1.211584 -2.77812,2.357762 -1.26098,1.146178 -2.44151,2.087114 -2.62341,2.09097 -0.24917,0.0053 -0.33073,-0.906473 -0.33073,-3.697156 v -3.704167 h -2.45553 c -2.45554,0 -2.45554,0 -2.75418,0.791194 -0.17033,0.451246 -0.60054,0.905974 -1.00127,1.058333 -0.38645,0.146927 -0.92387,0.26714 -1.19428,0.26714 -0.2704,0 -0.857961,-0.30824 -1.305689,-0.684978 -0.573303,-0.482403 -0.81405,-0.91791 -0.81405,-1.472603 0,-0.433193 0.122592,-1.016689 0.272427,-1.296658 0.149834,-0.279969 0.632035,-0.694995 1.071557,-0.92228 0.467575,-0.241791 1.040635,-0.340086 1.381215,-0.236912 0.32015,0.09698 0.84998,0.421529 1.17741,0.721211 0.32742,0.299683 0.59531,0.702717 0.59531,0.895632 0,0.266669 0.60256,0.350754 2.51354,0.350754 h 2.51354 v -3.704166 c 0,-2.899733 0.0762,-3.704167 0.35076,-3.704167 0.19291,0 0.63939,0.308797 0.99218,0.686215 0.35279,0.377418 1.6237,1.521393 2.82425,2.542167 1.20054,1.020774 2.18281,1.962134 2.18281,2.091911 0,0.129776 -0.12727,0.235957 -0.28283,0.235957 -0.15555,0 -1.34516,-0.9525 -2.64358,-2.116666 -1.29841,-1.164167 -2.42129,-2.116667 -2.49529,-2.116667 -0.074,0 -0.13455,1.369219 -0.13455,3.042708 v 3.042708 h 1.07723 c 0.60476,0 1.2513,-0.174068 1.47411,-0.396875 0.21828,-0.218281 0.5707,-0.396874 0.78315,-0.396874 0.21246,0 0.45482,0.178593 0.53858,0.396874 0.11757,0.306394 0.62841,0.396875 2.24065,0.396875 h 2.08836 v -3.836458 c 0,-3.044054 0.0738,-3.836458 0.35714,-3.836458 0.19642,0 1.84937,1.160859 3.67323,2.579688 1.82385,1.418828 4.09956,3.174999 5.05714,3.902604 0.95758,0.727604 1.74491,1.382447 1.74962,1.455208 0.005,0.07276 -0.91366,0.836767 -2.04084,1.697794 z m -3.63691,-1.433211 h -4.36563 v 3.32934 c 0,1.831137 0.0978,3.289653 0.21743,3.241146 0.11958,-0.04851 2.07859,-1.516944 4.35336,-3.263194 2.27476,-1.74625 4.14145,-3.204766 4.1482,-3.241146 0.007,-0.03638 -1.95227,-0.06615 -4.35336,-0.06615 z m -0.39168,-4.233333 c -1.7917,-1.382448 -3.41881,-2.608755 -3.61579,-2.725126 -0.29337,-0.173309 -0.35816,0.389083 -0.35816,3.108854 v 3.320438 l 4.29948,-0.0084 c 4.29948,-0.0084 4.29948,-0.0084 3.61579,-0.595312 -0.37603,-0.322823 -2.14963,-1.718045 -3.94132,-3.100493 z m -19.62397,3.356043 c -0.16731,-0.317855 -0.4352,-0.665392 -0.59531,-0.772304 -0.16012,-0.106912 -0.49948,-0.196209 -0.75414,-0.198438 -0.25467,-0.0022 -0.70115,0.234074 -0.992192,0.525116 -0.291042,0.291041 -0.529167,0.808369 -0.529167,1.149617 0,0.341248 0.227596,0.826423 0.505768,1.078166 0.297861,0.269557 0.811971,0.42237 1.250641,0.371736 0.4764,-0.05499 0.86488,-0.324386 1.07783,-0.747436 0.18313,-0.363802 0.33472,-0.699052 0.33686,-0.744998 0.002,-0.04595 -0.13299,-0.343604 -0.30029,-0.661459 z"
       id="path5"
       inkscape:export-filename="path5.svg"
       inkscape:export-xdpi="96"
       inkscape:export-ydpi="96" /></g></svg>
