<?xml version="1.0" encoding="UTF-8" standalone="no"?>
<!-- Created with Inkscape (http://www.inkscape.org/) -->

<svg
   width="27.476219mm"
   height="33.7155mm"
   viewBox="0 0 27.476219 33.7155"
   version="1.1"
   id="svg1"
   xml:space="preserve"
   xmlns:inkscape="http://www.inkscape.org/namespaces/inkscape"
   xmlns:sodipodi="http://sodipodi.sourceforge.net/DTD/sodipodi-0.dtd"
   xmlns="http://www.w3.org/2000/svg"
   xmlns:svg="http://www.w3.org/2000/svg"><sodipodi:namedview
     id="namedview1"
     pagecolor="#ffffff"
     bordercolor="#000000"
     borderopacity="0.25"
     inkscape:showpageshadow="2"
     inkscape:pageopacity="0.0"
     inkscape:pagecheckerboard="0"
     inkscape:deskcolor="#d1d1d1"
     inkscape:document-units="mm"
     inkscape:zoom="0.71891835"
     inkscape:cx="397.12437"
     inkscape:cy="561.25984"
     inkscape:window-width="1920"
     inkscape:window-height="1009"
     inkscape:window-x="3832"
     inkscape:window-y="-8"
     inkscape:window-maximized="1"
     inkscape:current-layer="layer1"><inkscape:page
       x="0"
       y="0"
       width="27.476219"
       height="33.7155"
       id="page2"
       margin="0"
       bleed="0" /></sodipodi:namedview><defs
     id="defs1" /><g
     inkscape:label="Layer 1"
     inkscape:groupmode="layer"
     id="layer1"
     transform="translate(-25.021161,-72.1882)"><path
       style="fill:#000000"
       d="m 38.111389,105.19823 c -0.331347,-0.5057 -0.38782,-0.82365 -0.199435,-1.12284 0.14454,-0.22956 0.450365,-0.45433 0.679611,-0.49949 0.229245,-0.0452 0.549897,0.16656 0.71256,0.4705 0.238615,0.44586 0.19662,0.67864 -0.217375,1.20495 l -0.513126,0.65234 z m 0.337377,-2.35134 c -0.109141,-0.11172 -0.198438,-0.4214 -0.198438,-0.68819 0,-0.26826 -0.189217,-0.48507 -0.423333,-0.48507 -0.232833,0 -0.828146,-0.40481 -1.322917,-0.89958 -0.644173,-0.64418 -0.899583,-1.137404 -0.899583,-1.737194 0,-0.46068 0.132998,-1.09767 0.29555,-1.41552 0.162553,-0.31786 0.549506,-0.78363 0.859896,-1.03506 0.31039,-0.25142 0.772705,-0.45978 1.027366,-0.46302 0.415443,-0.005 0.463021,-0.33879 0.463021,-3.24568 v -3.23979 l -3.227308,3.22731 c -3.090164,3.09016 -3.20822,3.2484 -2.778125,3.72365 0.247051,0.27298 0.449183,0.57626 0.449183,0.67394 0,0.0977 -0.153804,0.17761 -0.341786,0.17761 -0.187983,0 -0.856717,-0.52468 -1.486076,-1.16595 -0.675604,-0.68839 -1.066029,-1.29257 -0.953218,-1.47511 0.1351,-0.21859 0.36028,-0.15019 0.768693,0.23349 0.577621,0.54265 0.577621,0.54265 3.940907,-2.82812 l 3.363286,-3.37077 -3.388463,-3.38094 c -3.36569,-3.35822 -3.39175,-3.37731 -3.877535,-2.84052 -0.26899,0.29723 -0.589681,0.54042 -0.712648,0.54042 -0.122967,0 -0.223576,-0.14433 -0.223576,-0.32072 0,-0.17639 0.501039,-0.83123 1.113421,-1.45521 0.612382,-0.62397 1.267226,-1.13449 1.455209,-1.13449 0.187982,0 0.341786,0.0799 0.341786,0.1776 0,0.0977 -0.202132,0.40096 -0.449183,0.67395 -0.430095,0.47525 -0.312039,0.63349 2.778125,3.72365 l 3.227308,3.22731 v -3.11405 c 0,-3.02092 -0.01851,-3.12109 -0.618772,-3.34931 -0.340325,-0.1294 -0.935637,-0.61183 -1.322917,-1.07209 -0.459291,-0.54584 -0.704144,-1.14858 -0.704144,-1.73336 0,-0.61958 0.246085,-1.17681 0.796604,-1.80382 0.438132,-0.499 1.085095,-0.97969 1.437696,-1.06818 0.441352,-0.11078 0.675415,-0.3874 0.751253,-0.88787 l 0.110161,-0.72696 0.03964,0.72406 c 0.03038,0.55481 0.248012,0.81111 0.931106,1.09653 0.490304,0.20486 1.085617,0.64967 1.322916,0.98846 0.238519,0.34054 0.431454,1.13118 0.431454,1.7681 0,0.9206 -0.155406,1.30751 -0.773397,1.9255 -0.425369,0.42537 -0.949659,0.7734 -1.165089,0.7734 -0.27834,0 -0.418224,0.36539 -0.483374,1.26262 -0.05043,0.69445 -0.05177,2.06348 -0.003,3.0423 l 0.0887,1.77968 3.283906,-3.08853 c 2.981995,-2.80458 3.247495,-3.12876 2.887859,-3.52615 -0.217827,-0.2407 -0.396048,-0.51755 -0.396048,-0.61524 0,-0.0977 0.105751,-0.1776 0.235002,-0.1776 0.129252,0 0.808131,0.56502 1.50862,1.2556 1.013987,0.99964 1.177753,1.27406 0.803353,1.34616 -0.258646,0.0498 -0.625231,-0.12136 -0.814634,-0.38038 -0.31589,-0.43201 -0.516629,-0.31358 -2.427417,1.43214 -1.145677,1.04671 -2.725436,2.54544 -3.510575,3.33051 l -1.427525,1.42741 1.16274,1.34986 c 0.639507,0.74243 2.210321,2.31596 3.490698,3.49676 2.178016,2.00861 2.358306,2.11942 2.79916,1.72046 0.259162,-0.23454 0.610656,-0.42644 0.781099,-0.42644 0.170442,0 0.309895,0.0943 0.309895,0.2095 0,0.11522 -0.510522,0.71053 -1.134494,1.32291 -0.623971,0.61239 -1.278815,1.11343 -1.455208,1.11343 -0.176393,0 -0.320714,-0.0799 -0.320714,-0.17761 0,-0.0977 0.179497,-0.37594 0.398882,-0.61836 0.363284,-0.40143 0.103535,-0.72884 -2.910416,-3.66863 l -3.3093,-3.22787 v 3.18477 c 0,2.72357 0.06042,3.18478 0.417228,3.18478 0.229475,0 0.765256,0.34803 1.190625,0.7734 0.633228,0.63323 0.773397,0.99656 0.773397,2.00472 0,1.00817 -0.140169,1.371504 -0.773397,2.004734 -0.425369,0.42537 -0.938166,0.7734 -1.139549,0.7734 -0.201384,0 -0.478433,0.30969 -0.615666,0.68819 -0.137232,0.37851 -0.33881,0.59679 -0.44795,0.48507 z m 1.719791,-2.44511 c 0.283937,-0.24386 0.463021,-0.771584 0.463021,-1.364424 0,-0.53172 -0.148828,-1.16854 -0.330729,-1.41517 -0.181901,-0.24662 -0.697394,-0.55291 -1.145541,-0.68063 -0.548995,-0.15646 -1.075547,-0.12258 -1.614048,0.10384 -0.43958,0.18483 -0.876586,0.53762 -0.971126,0.78399 -0.09454,0.24636 -0.168102,0.76562 -0.163474,1.1539 0.0046,0.38828 0.176585,0.928 0.382126,1.199394 0.205542,0.27138 0.767302,0.57854 1.248357,0.68259 0.481054,0.10404 1.053237,0.13179 1.271519,0.0617 0.218281,-0.0701 0.605234,-0.30644 0.859895,-0.52516 z m 0,-20.211704 c 0.254662,-0.29452 0.463021,-0.91253 0.463021,-1.37335 0,-0.46082 -0.193121,-1.11358 -0.429159,-1.45057 -0.305448,-0.43609 -0.612349,-0.57769 -1.064648,-0.49123 -0.349519,0.0668 -0.69643,0.0229 -0.770914,-0.0976 -0.07448,-0.12052 -0.415701,-0.0914 -0.758259,0.0647 -0.342559,0.15608 -0.755026,0.57391 -0.916594,0.92851 -0.161567,0.35461 -0.293759,0.8612 -0.293759,1.12577 0,0.26457 0.240497,0.78678 0.534439,1.16047 0.293941,0.37368 0.799956,0.72924 1.124479,0.79013 0.324522,0.0609 0.828165,0.0585 1.119207,-0.005 0.291042,-0.0638 0.737526,-0.35696 0.992187,-0.65147 z m -14.829895,9.52438 c -0.174625,-0.17462 -0.3175,-0.58284 -0.3175,-0.90714 0,-0.3243 0.187098,-0.77674 0.415773,-1.00542 0.228676,-0.22867 0.702181,-0.41577 1.052234,-0.41577 0.372499,0 0.802124,0.25283 1.035907,0.60963 0.365659,0.55807 0.556402,0.60162 2.255057,0.51487 1.58868,-0.0811 1.855612,-0.0318 1.855612,0.34326 0,0.38411 -0.230553,0.41488 -1.873036,0.24993 -1.719647,-0.1727 -1.905051,-0.1424 -2.263961,0.37002 -0.236144,0.33714 -0.678309,0.55812 -1.116756,0.55812 -0.399207,0 -0.868705,-0.14287 -1.04333,-0.3175 z m 24.637883,-0.19572 c -0.379281,-0.44297 -0.777964,-0.54511 -2.127726,-0.54511 -1.065978,0 -1.660991,-0.10795 -1.660991,-0.30133 0,-0.20882 0.501105,-0.25589 1.63212,-0.15334 1.500449,0.13606 1.672761,0.0963 2.135867,-0.49242 0.27707,-0.35222 0.77432,-0.64041 1.105,-0.64041 0.33069,0 0.82001,0.24173 1.08739,0.53718 0.38444,0.42481 0.43353,0.68771 0.23467,1.25677 -0.19187,0.54903 -0.45153,0.73905 -1.09554,0.80168 -0.59555,0.0579 -0.98147,-0.0784 -1.31079,-0.46302 z M 38.168202,73.851676 c -0.245872,-0.1376 -0.44704,-0.4782 -0.44704,-0.75689 0,-0.27869 0.23108,-0.63038 0.513511,-0.78153 0.411887,-0.22044 0.591203,-0.16391 0.906082,0.28565 0.215914,0.30826 0.332815,0.71619 0.259781,0.90651 -0.07303,0.19033 -0.279602,0.40238 -0.459041,0.47124 -0.179439,0.0689 -0.527421,0.0126 -0.773293,-0.12498 z"
       id="path7" /></g></svg>
