<?xml version="1.0" encoding="UTF-8" standalone="no"?>
<!-- Created with Inkscape (http://www.inkscape.org/) -->

<svg
   width="201.24855mm"
   height="238.67709mm"
   viewBox="0 0 201.24855 238.67709"
   version="1.1"
   id="svg1"
   xml:space="preserve"
   xmlns="http://www.w3.org/2000/svg"
   xmlns:svg="http://www.w3.org/2000/svg"><defs
     id="defs1" /><g
     id="layer1"
     transform="translate(-4.3757269,-6.1459192)"><path
       style="fill:#000000"
       d="m 103.35177,244.17359 c -0.93011,-0.93012 -0.90602,-2.57762 0.0507,-3.46425 1.13357,-1.05056 3.16762,-0.73567 3.76864,0.58343 0.83562,1.83398 -0.16741,3.53025 -2.08749,3.53025 -0.79642,0 -1.25396,-0.17158 -1.73182,-0.64943 z m -6.629922,-9.27709 c -0.78974,-1.20528 0.0205,-4.54309 1.60797,-6.62442 0.8517,-1.11663 2.993272,-2.4623 4.588222,-2.88304 3.50556,-0.92475 7.46501,0.69245 9.46946,3.86771 1.59833,2.53191 1.66082,6.30585 0.10443,6.30585 -0.70255,0 -1.07834,-0.62182 -1.21419,-2.00912 -0.45205,-4.61621 -5.00065,-7.26243 -9.03108,-5.25399 -2.09896,1.04596 -3.513072,3.37942 -3.513072,5.79704 0,1.50633 -1.22876,1.99495 -2.01174,0.79997 z m 7.476712,-14.36984 c -0.36512,-0.40345 -0.43788,-1.12204 -0.43788,-4.32461 0,-3.50734 0.046,-3.88243 0.53024,-4.32063 0.43812,-0.3965 0.64496,-0.42759 1.19062,-0.17897 l 0.66039,0.30089 v 4.2297 c 0,3.91098 -0.0386,4.25033 -0.51178,4.50359 -0.70839,0.37911 -0.92757,0.34697 -1.43159,-0.20997 z M 79.422318,205.72321 c -0.94771,-0.98645 -3.74716,-3.94349 -6.22102,-6.57121 -3.76071,-3.9946 -8.53928,-9.06091 -18.04084,-19.1272 l -1.3721,-1.45365 -7.22686,2.16628 c -3.97478,1.19145 -9.84231,2.94469 -13.03897,3.89609 -3.19665,0.95141 -6.74491,2.02451 -7.88501,2.38466 -1.1401,0.36016 -2.36023,0.65484 -2.7114,0.65484 -0.73982,0 -1.29329,-0.83352 -1.05403,-1.58736 0.18925,-0.59628 1.23933,-0.92983 25.46619,-8.08901 2.36471,-0.69878 4.29948,-1.37428 4.29948,-1.50109 0,-0.12682 -1.39899,-1.69787 -3.10886,-3.49122 l -3.10885,-3.26064 -14.59659,-0.0312 c -8.02812,-0.0172 -14.78492,-0.10345 -15.0151,-0.19177 -0.49446,-0.18974 -0.56099,-1.44319 -0.10102,-1.90316 0.23863,-0.23863 3.66467,-0.3175 13.79224,-0.3175 h 13.47475 l -0.62923,-0.77956 c -0.34607,-0.42876 -3.04023,-3.2773 -5.98703,-6.33008 l -5.35781,-5.55051 V 136.4737 118.30747 l -1.14777,-1.49901 c -0.63128,-0.82445 -2.17909,-2.90821 -3.43959,-4.63057 l -2.29181,-3.13157 V 65.862593 c 0,-33.234582 0.0731,-43.256897 0.3175,-43.501248 0.17463,-0.174625 0.56601,-0.3175 0.86975,-0.3175 0.37968,0 8.23715,7.688843 25.1459,24.606251 l 24.59366,24.60625 h 30.441182 30.44117 l 12.02719,-12.107673 c 14.58234,-14.679914 24.05745,-24.308247 31.11161,-31.614723 4.31801,-4.472454 5.43259,-5.490105 6.01304,-5.490105 0.99058,0 1.1542,0.626148 1.10621,4.233334 -0.0223,1.673489 -0.0647,21.021146 -0.0942,42.994792 l -0.0537,39.952089 -3.4367,4.4873 -3.4367,4.4873 v 18.05922 18.05922 l -0.8599,0.9996 c -0.47294,0.54977 -3.22376,3.44118 -6.11293,6.42535 l -5.25304,5.42576 13.58742,0.13229 c 7.47307,0.0728 13.73624,0.22861 13.91814,0.34634 0.42056,0.2722 0.4285,1.30214 0.0132,1.71741 -0.23935,0.23934 -3.94615,0.3175 -15.0589,0.3175 H 164.6596 l -3.19758,3.35999 c -1.75866,1.848 -3.10817,3.43821 -2.99891,3.53382 0.10925,0.0956 2.52037,0.8596 5.35802,1.69778 2.83766,0.83818 8.85032,2.62917 13.36147,3.97999 4.51114,1.35081 8.70374,2.59057 9.31687,2.75502 1.23352,0.33084 1.9411,1.10228 1.73476,1.89133 -0.19327,0.73906 -1.21714,0.89936 -2.79869,0.43817 -0.75558,-0.22033 -6.31487,-1.88813 -12.35399,-3.70621 -6.03911,-1.81808 -12.29952,-3.68976 -13.912,-4.15929 l -2.9318,-0.85368 -2.64213,2.74144 c -2.56916,2.66572 -4.87659,5.1134 -17.80515,18.88744 -3.41139,3.63449 -6.44749,6.75277 -6.74687,6.92951 -0.41575,0.24544 -6.1375,0.32357 -24.22124,0.33073 l -23.676897,0.009 z m 50.200762,-2.50592 c 0.8606,-0.90951 3.6387,-3.86688 6.17356,-6.57194 2.53485,-2.70506 7.57004,-8.04914 11.18929,-11.87574 l 6.58046,-6.95744 -2.744,-0.83228 c -1.5092,-0.45776 -2.89283,-0.925 -3.07473,-1.03832 -0.42062,-0.26203 -0.42861,-1.29402 -0.0132,-1.70939 0.48578,-0.48578 1.10403,-0.39721 4.55309,0.65222 l 3.18706,0.96971 2.85797,-3.02024 2.85797,-3.02023 -5.89461,-0.14508 c -3.24203,-0.0798 -5.91164,-0.16909 -5.93245,-0.19844 -0.30635,-0.432 -0.29135,-1.04329 0.0379,-1.54584 l 0.40898,-0.62418 h 6.83337 6.83337 l 6.52198,-6.78308 6.52199,-6.78308 v -18.03173 -18.03173 l 3.57188,-4.68884 3.57187,-4.68884 V 67.306556 26.320311 l -6.15156,6.369873 c -3.38336,3.50343 -13.90402,14.179585 -23.37925,23.724788 l -17.22768,17.354916 -31.32336,0.06131 -31.323362,0.06131 -23.87864,-23.871823 -23.87865,-23.871823 v 41.024012 41.024016 l 3.43959,4.67095 3.43958,4.67095 0.01,18.06763 0.01,18.06763 6.532,6.81302 6.532,6.81302 h 6.73271 c 5.89357,0 6.79302,0.0546 7.21657,0.43788 0.26612,0.24084 0.48386,0.63374 0.48386,0.87313 0,0.98872 -0.47907,1.07024 -6.28983,1.07024 h -5.65483 l 0.52985,0.6736 c 0.29142,0.37048 1.55444,1.75026 2.80671,3.06618 l 2.27686,2.39259 3.14975,-0.94952 c 3.42882,-1.03364 3.97265,-1.11086 4.45149,-0.63202 0.41527,0.41527 0.40733,1.44521 -0.0132,1.71741 -0.1819,0.11773 -1.55564,0.57784 -3.05275,1.02248 l -2.72203,0.80842 4.97098,5.28694 c 2.73404,2.90782 8.46757,9.00316 12.74118,13.54522 l 7.7702,8.25828 h 23.097922 23.09791 z m -38.140092,-7.95233 c -1.20191,-0.87886 -0.65162,-1.44337 9.335112,-9.57632 l 2.92401,-2.38125 0.009,-6.06958 0.009,-6.06957 -4.894802,-4.91949 c -2.69213,-2.70573 -4.89479,-5.11712 -4.89479,-5.35865 0,-0.24154 0.26462,-0.62451 0.58804,-0.85104 0.50698,-0.3551 1.96324,-0.41188 10.564442,-0.41188 10.72607,0 10.80794,0.0103 10.80794,1.35797 0,0.32807 -1.84175,2.3896 -4.88791,5.47121 l -4.88791,4.94478 -0.007,5.96036 -0.007,5.96036 5.76204,4.67044 c 8.03418,6.51213 7.89534,6.35833 6.54108,7.24567 -0.83921,0.54987 -0.43128,0.82192 -7.51962,-5.01481 -3.11715,-2.56675 -5.75565,-4.66681 -5.86332,-4.66681 -0.17145,0 -2.46643,1.8314 -10.522022,8.39657 -1.11331,0.90734 -2.15028,1.65148 -2.30436,1.65365 -0.15409,0.002 -0.49282,-0.15155 -0.75274,-0.34161 z m 16.907892,-29.55236 3.43195,-3.43958 h -6.78103 -6.781032 l 3.310862,3.43958 c 1.82098,1.89177 3.32807,3.43958 3.34909,3.43958 0.021,0 1.58259,-1.54781 3.47016,-3.43958 z M 68.306508,150.62639 c -5.78182,-0.80801 -11.45427,-3.87159 -14.82246,-8.00533 -1.53724,-1.88663 -3.64288,-5.90731 -4.52015,-8.63114 -0.58064,-1.80284 -0.58436,-1.87807 -0.11831,-2.39306 0.62692,-0.69273 5.04116,-2.94213 7.49284,-3.81819 3.3728,-1.20519 6.76803,-1.75406 10.81902,-1.74898 5.13183,0.006 8.36483,0.73077 12.25461,2.74558 5.17893,2.68254 8.76365,6.99263 10.87058,13.07024 1.07918,3.11299 1.00237,3.30899 -1.91341,4.88272 -5.04792,2.72451 -9.25723,3.88477 -14.63876,4.03506 -2.03729,0.0569 -4.47808,-0.005 -5.42396,-0.1369 z m 9.55649,-2.76434 c 2.9059,-0.50852 5.11333,-1.23733 8.0892,-2.67074 l 2.43215,-1.17151 -0.64133,-1.88559 c -2.27352,-6.68444 -7.05847,-11.07844 -14.14484,-12.98917 -3.19224,-0.86074 -9.87264,-0.86538 -13.28404,-0.009 -2.79394,0.70118 -5.94478,1.90169 -7.81017,2.97577 l -1.38274,0.79618 0.65438,1.8141 c 1.09239,3.02837 2.50255,5.29151 4.62873,7.42857 2.97335,2.98857 6.10571,4.64368 10.57241,5.58636 2.82397,0.59599 7.86488,0.65399 10.88625,0.12526 z m -8.58967,-1.15439 c -0.75136,-0.83025 -1.30043,-5.47444 -1.14707,-9.70235 0.0739,-2.0373 0.2793,-4.38441 0.45646,-5.21581 0.54275,-2.54712 1.84421,-3.04728 2.53959,-0.976 0.52289,1.55751 0.95998,6.84813 0.77385,9.36681 -0.20039,2.7115 -0.85872,6.18978 -1.26445,6.68073 -0.38353,0.46407 -0.84695,0.41174 -1.35838,-0.15338 z m 65.311312,4.03591 c -5.49057,-0.76753 -7.97849,-1.51559 -12.37793,-3.72176 -3.48803,-1.74913 -3.65369,-2.00353 -2.84115,-4.36297 1.00652,-2.92271 3.09254,-6.92069 4.41721,-8.46585 4.69889,-5.48103 11.03736,-8.16789 19.26853,-8.16789 3.89513,0 6.75403,0.46456 10.39969,1.6899 3.37028,1.13278 7.6785,3.45958 7.8781,4.25484 0.19425,0.77397 -1.47884,5.34251 -2.80606,7.66218 -3.91205,6.83739 -11.00161,10.83564 -19.70506,11.11293 -1.89177,0.0603 -3.79677,0.0597 -4.23333,-10e-4 z m 7.89664,-2.89062 c 5.97387,-1.04176 10.99279,-4.39212 13.87191,-9.26014 0.96142,-1.62557 2.44082,-5.0494 2.44082,-5.64888 0,-0.28735 -4.76032,-2.52863 -6.79058,-3.19719 -5.78843,-1.9061 -13.63209,-1.72651 -18.76387,0.42963 -5.35252,2.24889 -8.91722,6.15615 -11.09586,12.16212 l -0.59092,1.62902 2.54718,1.18427 c 4.84402,2.25215 8.15634,3.02504 13.162,3.07119 1.61804,0.0149 3.96674,-0.15159 5.21932,-0.37002 z m -3.26045,-1.05085 c -0.5529,-0.6662 -1.13477,-5.13998 -1.13656,-8.73846 -0.002,-3.34798 0.33056,-6.13776 0.9048,-7.59797 0.33949,-0.86326 1.19427,-1.20422 1.71456,-0.68393 0.62074,0.62074 1.24671,4.84709 1.24624,8.41419 -4.3e-4,3.32729 -0.64656,7.99533 -1.19878,8.66071 -0.37412,0.45079 -1.13333,0.42373 -1.53026,-0.0545 z m -35.17755,-0.1142 c -0.69162,-0.97129 -0.68978,-1.60547 0.008,-2.7883 0.67388,-1.14214 1.08939,-1.18183 1.80794,-0.17272 0.64957,0.91224 0.69663,1.87925 0.14351,2.94886 -0.51535,0.99657 -1.25533,1.00116 -1.95956,0.0122 z m 0.28946,-6.4559 c -0.15756,-0.18986 -0.36953,-1.34109 -0.47104,-2.55831 -0.17651,-2.11643 -0.22596,-2.24872 -1.13203,-3.02825 -0.5211,-0.44832 -1.72503,-1.52951 -2.6754,-2.40263 -0.950372,-0.87313 -3.182982,-2.89719 -4.961372,-4.49792 l -3.23342,-2.91042 -0.003,-7.80732 -0.003,-7.80732 -6.21771,-6.21348 -6.21771,-6.213489 v -7.758568 c 0,-4.842202 0.10295,-7.950938 0.27389,-8.27034 0.30616,-0.572061 1.30379,-0.680344 1.78986,-0.194273 0.23211,0.232113 0.3175,2.348453 0.3175,7.869287 v 7.551786 l 6.07016,6.087487 6.07016,6.08748 0.0648,7.73754 c 0.0357,4.25564 0.13182,7.83404 0.21369,7.95198 0.15921,0.22938 3.8015,3.53075 8.032642,7.2808 1.42566,1.26356 2.70074,2.29739 2.83349,2.29739 0.20147,0 2.84083,-2.32481 10.11866,-8.91277 l 0.99218,-0.89814 0.0109,-7.7284 0.0109,-7.7284 6.07129,-6.21771 6.07129,-6.217704 0.003,-7.442083 c 0.003,-6.260735 0.0657,-7.493915 0.39669,-7.768608 0.59687,-0.495364 1.68642,-0.1093 1.88115,0.666555 0.0913,0.363742 0.11944,4.055349 0.0625,8.203572 l -0.10343,7.542223 -6.14394,6.148115 -6.14394,6.14811 -0.0104,7.80314 -0.0104,7.80314 -5.34745,4.81483 c -2.9411,2.64815 -5.67488,5.06781 -6.07506,5.37701 -0.67441,0.52109 -0.7276,0.70157 -0.7276,2.4685 0,2.50131 -0.88886,3.84611 -1.80919,2.73719 z m -3.95777,-19.38478 c -0.577142,-0.40424 -0.583042,-0.48258 -0.583042,-7.73714 v -7.32875 l -2.25239,-3.37243 -2.25239,-3.37242 0.0696,-9.164971 c 0.0637,-8.396119 0.10841,-9.189464 0.53259,-9.456942 0.33751,-0.212827 0.58853,-0.212871 0.92604,-1.63e-4 0.42142,0.265587 0.47491,1.085757 0.59532,9.126772 l 0.13229,8.834963 2.31921,3.475031 2.319212,3.47503 -0.0702,7.60534 c -0.0677,7.3292 -0.0899,7.61838 -0.61169,7.96469 -0.46167,0.30642 -0.62734,0.2992 -1.12448,-0.049 z m 24.22164,0.1296 c -0.25466,-0.14833 -0.46183,-0.53166 -0.46039,-0.85185 0.003,-0.6673 4.47258,-7.55445 5.69121,-8.76957 0.44592,-0.44464 2.80003,-2.05855 5.23138,-3.58647 l 4.42062,-2.77805 v -4.92001 c 0,-4.45616 0.0463,-4.961893 0.4909,-5.36427 0.55688,-0.503969 1.24724,-0.345033 1.63311,0.375981 0.27514,0.514099 0.36372,10.248829 0.0995,10.937309 -0.0867,0.22604 -2.40316,1.80322 -5.14759,3.50485 l -4.98987,3.09387 -2.69598,3.99127 c -2.47873,3.66964 -3.26453,4.6663 -3.66203,4.64467 -0.0813,-0.004 -0.35622,-0.1294 -0.61089,-0.27773 z m -41.835112,-2.18484 c -2.61126,-4.04777 -4.32372,-6.1675 -5.64591,-6.98861 -5.26536,-3.26992 -8.19625,-5.19123 -8.47835,-5.55789 -0.23955,-0.31134 -0.33073,-1.90718 -0.33073,-5.78824 0,-5.237269 0.0133,-5.367697 0.58804,-5.770265 0.73238,-0.512982 0.86092,-0.512619 1.37744,0.0039 0.34843,0.348435 0.41577,1.219926 0.41577,5.380885 v 4.96512 l 4.47488,2.83424 c 2.46119,1.55883 4.75314,3.11312 5.09323,3.45397 0.34009,0.34085 1.79393,2.35181 3.23075,4.46881 2.15866,3.18056 2.58286,3.96677 2.44235,4.5266 -0.13478,0.53704 -0.33325,0.67752 -0.95719,0.67752 -0.69642,0 -0.95119,-0.25429 -2.21028,-2.20603 z m 25.506402,1.69426 c -0.16998,-0.31762 -0.27389,-3.3058 -0.27389,-7.87656 v -7.36479 l 2.37765,-3.64453 2.37765,-3.644524 0.0697,-8.62466 c 0.0637,-7.881329 0.10965,-8.649822 0.53276,-8.91662 0.33763,-0.212893 0.58842,-0.212891 0.92604,8e-6 0.42401,0.26737 0.46889,1.056662 0.53269,9.36799 l 0.0697,9.07602 -2.25248,3.518466 -2.25248,3.51848 v 7.23374 c 0,5.27348 -0.086,7.31979 -0.3175,7.55125 -0.48607,0.48608 -1.4837,0.37779 -1.78986,-0.19427 z M 37.144548,96.244469 36.556508,95.832591 V 74.398949 c 0,-14.268776 0.0916,-21.604717 0.27389,-21.945414 0.62594,-1.16957 1.32861,-0.659189 7.03616,5.110624 6.03501,6.10085 12.91745,13.184117 15.17733,15.620202 1.21742,1.312344 1.38522,1.616237 1.17432,2.126654 -0.13534,0.327533 -2.56779,2.783114 -5.40545,5.456848 -2.83766,2.673734 -5.33797,5.060711 -5.55625,5.304395 -1.02099,1.13981 -11.10549,10.584089 -11.30158,10.584089 -0.12229,0 -0.48696,-0.185345 -0.81038,-0.411878 z m 12.85868,-14.272497 c 3.95386,-3.783542 7.18927,-6.97255 7.18981,-7.086684 10e-4,-0.23506 -10.208,-10.855035 -15.05735,-15.663348 l -3.19793,-3.170864 v 18.212105 18.212104 l 1.93831,-1.812073 c 1.06608,-0.99664 5.1733,-4.907698 9.12716,-8.69124 z m 114.789282,7.757077 c -12.07544,-11.635655 -14.72975,-14.284485 -14.72975,-14.69936 0,-0.478896 0.69669,-1.228989 12.5358,-13.49678 9.51945,-9.864145 10.06938,-10.329122 10.73822,-9.079374 0.18234,0.340697 0.2739,7.676638 0.2739,21.945414 v 21.433642 l -0.58804,0.411878 c -0.32342,0.226533 -0.68996,0.411878 -0.81452,0.411878 -0.12457,0 -3.46159,-3.117284 -7.41561,-6.927298 z m 6.37422,-24.406127 -0.0696,-9.147145 -9.05684,9.375782 -9.05683,9.375781 9.05683,8.710087 9.05684,8.710087 0.0696,-8.938724 c 0.0383,-4.916298 0.0383,-13.054939 0,-18.085868 z M 5.7450179,134.99639 c -1.83054,-1.60724 -1.82518,-3.90464 0.0129,-5.51848 2.24372,-1.97001 5.9238301,-0.28612 5.9267801,2.71189 0.002,2.14999 -1.52536,3.62212 -3.7601201,3.62389 -1.01801,8.1e-4 -1.41905,-0.14958 -2.17955,-0.8173 z m 3.2419,-1.88046 c 0.86267,-0.86266 -0.25146,-2.60885 -1.30484,-2.0451 -1.24414,0.66585 -1.07323,2.3626 0.23799,2.3626 0.41214,0 0.89223,-0.14287 1.06685,-0.3175 z m 190.5437421,1.69349 c -1.32386,-1.32386 -1.56697,-2.5379 -0.818,-4.08505 0.66526,-1.37425 1.72244,-2.05344 3.19625,-2.05344 2.1326,0 3.71337,1.49717 3.71536,3.51887 0.002,2.16752 -1.52337,3.62214 -3.80045,3.62389 -1.13906,8.8e-4 -1.40408,-0.11519 -2.29316,-1.00427 z m 3.39585,-1.69349 c 0.17462,-0.17462 0.3175,-0.56753 0.3175,-0.87312 0,-0.76415 -0.49485,-1.19063 -1.38151,-1.19063 -0.94433,0 -1.4793,0.95603 -1.01765,1.81862 0.3365,0.62877 1.55458,0.77221 2.08166,0.24513 z m -186.591732,-0.0983 c -0.52941,-0.52941 -0.52751,-1.02219 0.006,-1.5557 0.3598,-0.35981 1.10348,-0.41118 5.06127,-0.34963 4.33857,0.0675 4.66279,0.10726 4.99868,0.61358 0.3062,0.46157 0.29894,0.62745 -0.0492,1.12448 -0.39431,0.56296 -0.56675,0.58305 -5.00469,0.58305 -3.82568,0 -4.66601,-0.0697 -5.01208,-0.41578 z m 167.382982,0.0983 c -0.17463,-0.17462 -0.3175,-0.56753 -0.3175,-0.87312 0,-1.0994 0.40545,-1.19063 5.29167,-1.19063 4.88621,0 5.29166,0.0912 5.29166,1.19063 0,1.09939 -0.40545,1.19062 -5.29166,1.19062 -3.26908,0 -4.75128,-0.0946 -4.97417,-0.3175 z m -79.5192,-66.576771 c -0.63749,-0.704413 -0.66044,-12.838988 -0.026,-13.744775 0.45316,-0.646972 1.15972,-0.76269 1.65188,-0.270538 0.2304,0.230408 0.3175,2.175463 0.3175,7.090833 0,6.973505 -0.0628,7.408334 -1.07025,7.408334 -0.23938,0 -0.63229,-0.217735 -0.87312,-0.483854 z m -2.50302,-19.251478 c -4.121492,-2.05383 -5.425062,-7.644188 -2.611542,-11.199628 2.590822,-3.274017 6.963672,-4.006681 10.263802,-1.719685 2.66472,1.846647 3.82991,5.236865 2.91684,8.486758 -0.41815,1.488313 -2.47046,3.719994 -4.13297,4.494176 -1.92129,0.894684 -4.56792,0.869344 -6.43613,-0.06162 z m 5.77812,-2.423523 c 4.62679,-2.359754 2.85074,-9.185451 -2.39007,-9.185451 -5.646512,0 -7.028752,7.707589 -1.71979,9.589858 1.36124,0.482622 2.61196,0.359552 4.10986,-0.404407 z m -3.43082,-16.437466 c -0.17624,-0.329304 -0.28216,-2.79924 -0.28216,-6.579466 0,-6.681552 0.0808,-7.061573 1.46825,-6.903683 l 0.7807,0.08884 v 6.879167 6.879166 l -0.84231,0.0816 c -0.62369,0.06042 -0.91556,-0.05525 -1.12448,-0.445627 z m -0.49646,-17.929643 c -2.20397,-2.0425346 0.0479,-5.4217926 2.67909,-4.0204026 0.9024,0.480623 1.22185,1.058234 1.23096,2.225766 0.0102,1.3039976 -0.77565,2.1747576 -2.16628,2.4004266 -0.77058,0.125047 -1.06586,0.02246 -1.74377,-0.60579 z"
       id="path1" /></g></svg>
