<?xml version="1.0" encoding="UTF-8" standalone="no"?>
<!-- Created with Inkscape (http://www.inkscape.org/) -->

<svg
   width="192.22121mm"
   height="228.86459mm"
   viewBox="0 0 192.22121 228.86459"
   version="1.1"
   id="svg1"
   xml:space="preserve"
   xmlns="http://www.w3.org/2000/svg"
   xmlns:svg="http://www.w3.org/2000/svg"><defs
     id="defs1" /><g
     id="layer1"
     transform="translate(-8.9721568,-8.8407636)"><path
       style="fill:#000000"
       d="m 103.68096,237.05592 c -0.6391,-0.63911 -0.83828,-1.72558 -0.48508,-2.64601 0.26009,-0.67778 1.62287,-1.25877 2.50047,-1.06602 2.37408,0.52144 1.89146,4.36146 -0.54815,4.36146 -0.51551,0 -1.05786,-0.24006 -1.46724,-0.64943 z m 7.81724,-8.87557 c -0.37375,-0.37376 -0.52917,-0.88195 -0.52917,-1.73033 0,-4.62195 -6.1093,-7.17019 -9.67804,-4.0368 -1.23433,1.08376 -1.745901,2.1028 -2.098212,4.17963 l -0.291745,1.71979 H 97.98972 97.078406 l 0.0118,-1.98438 c 0.01,-1.67697 0.130736,-2.20238 0.779569,-3.39165 3.137315,-5.75051 10.971095,-5.88065 14.368705,-0.23871 1.09433,1.81719 1.48651,4.80536 0.72997,5.5619 -0.57968,0.57968 -0.82434,0.56646 -1.47025,-0.0795 z m -7.37635,-14.34102 c -0.33925,-0.91707 -0.37039,-6.98708 -0.039,-7.60624 0.32056,-0.59898 1.30901,-0.72202 1.8062,-0.22483 0.33435,0.33435 0.46874,7.18261 0.1569,7.99524 -0.25441,0.663 -1.66254,0.54285 -1.92408,-0.16417 z M 70.026262,188.69128 C 63.322043,181.6699 57.428529,175.53373 56.929565,175.05534 l -0.907207,-0.8698 -4.475101,1.357 c -2.461306,0.74636 -9.058221,2.71005 -14.65981,4.36377 -9.415323,2.77962 -10.229812,2.97721 -10.781771,2.61555 -0.673091,-0.44103 -0.750728,-0.87609 -0.266334,-1.49247 0.187317,-0.23836 2.969523,-1.18539 6.416146,-2.18399 3.346979,-0.96973 7.573698,-2.2197 9.392709,-2.77773 1.81901,-0.55802 5.416427,-1.63858 7.99426,-2.40125 l 4.686968,-1.38667 -2.931081,-3.0721 -2.93108,-3.0721 -1.755888,-0.18367 c -0.965738,-0.10102 -7.405333,-0.17989 -14.31021,-0.17528 -11.733801,0.008 -12.576814,-0.0224 -12.898438,-0.4622 -0.459861,-0.6289 -0.436931,-0.80582 0.185052,-1.4278 0.514467,-0.51447 0.881944,-0.52917 13.229167,-0.52917 6.985,0 12.694546,-0.0893 12.687881,-0.19844 -0.0067,-0.10914 -2.503402,-2.75828 -5.548304,-5.88698 l -5.536185,-5.68854 -0.0079,-17.39631 -0.0079,-17.39632 -3.439584,-4.54836 -3.439583,-4.54836 V 66.510533 c 0,-39.561972 0.01905,-41.20083 0.483854,-41.62147 0.26612,-0.240835 0.718095,-0.437882 1.004389,-0.437882 0.320219,0 1.941299,1.448256 4.2125,3.763404 2.030581,2.069872 12.582508,12.725966 23.448727,23.680209 l 19.756761,19.916805 28.926577,-0.0043 28.92657,-0.0043 19.33421,-19.641049 c 10.63372,-10.802505 21.05169,-21.426915 23.15095,-23.609727 2.13892,-2.224051 4.06391,-4.004143 4.37888,-4.049261 0.30913,-0.04428 0.75561,0.113052 0.99219,0.349628 0.39344,0.393443 0.43014,3.942147 0.43014,41.597311 v 41.167169 l -3.43959,4.57331 -3.43958,4.57331 v 17.37778 17.37778 l -5.7185,5.91909 -5.7185,5.91909 h 12.74735 c 8.2811,0 12.92666,0.096 13.25913,0.27389 0.62277,0.3333 0.7012,1.71347 0.11025,1.94024 -0.22083,0.0847 -6.7065,0.16393 -14.4126,0.17599 l -14.01108,0.0219 -3.0384,3.2152 c -1.67113,1.76836 -3.00387,3.24975 -2.96164,3.29197 0.0422,0.0422 6.25806,1.91149 13.81298,4.15393 7.55492,2.24244 13.94004,4.15841 14.18917,4.25771 0.77517,0.30898 0.88138,1.2275 0.20524,1.77501 -0.32981,0.26706 -0.79142,0.43135 -1.0258,0.36508 -1.3152,-0.37185 -14.49042,-4.26337 -21.1834,-6.25687 -6.22118,-1.85298 -7.87686,-2.2589 -8.21015,-2.01287 -0.22961,0.1695 -2.96785,2.98709 -6.08497,6.26131 -9.72013,10.20999 -16.20436,16.99526 -18.01522,18.85156 l -1.74221,1.78594 H 105.10468 82.215751 Z m 64.125718,2.94148 c 3.91151,-4.09388 9.39149,-9.83865 12.17773,-12.76615 l 5.06588,-5.32272 -2.81692,-0.92604 c -2.71639,-0.89299 -2.81693,-0.95335 -2.81693,-1.69096 0,-1.35442 0.54519,-1.40229 4.13623,-0.36315 l 3.2721,0.94685 2.69632,-2.68752 2.69632,-2.68752 -1.49223,-0.16902 c -0.82074,-0.093 -3.14373,-0.14712 -5.16221,-0.12033 -2.72047,0.0361 -3.80209,-0.0438 -4.18065,-0.309 -0.62635,-0.43871 -0.6528,-1.05501 -0.0728,-1.69592 0.40165,-0.44381 0.9774,-0.48385 6.95664,-0.48385 h 6.51875 l 6.13027,-6.41615 6.13027,-6.41614 0.01,-17.22208 0.01,-17.22207 3.30984,-4.40595 3.30984,-4.40596 0.0636,-39.299977 0.0636,-39.29998 -3.30505,3.381133 c -8.4596,8.654289 -18.84074,19.19822 -29.70444,30.170196 L 135.29389,74.192849 H 105.31142 75.328948 L 73.653505,72.406911 C 72.732011,71.424645 62.534467,61.11762 50.992296,49.50241 L 30.00653,28.383847 v 39.276906 39.276907 l 3.439583,4.59182 3.439584,4.59182 0.0056,17.20192 0.0056,17.20192 1.499404,1.5875 c 0.824672,0.87312 3.577241,3.76039 6.11682,6.41614 l 4.617417,4.82865 h 6.330428 c 3.85775,0 6.530328,0.10698 6.842201,0.27389 0.536055,0.28689 0.725653,1.67936 0.267237,1.96268 -0.134495,0.0831 -2.128792,0.16279 -4.431771,0.17705 -2.302979,0.0143 -4.678369,0.1021 -5.278644,0.19521 l -1.091409,0.16929 2.548217,2.72139 2.548217,2.72138 3.085747,-0.93544 c 3.443827,-1.044 3.978182,-1.1091 4.448827,-0.54201 0.423936,0.51081 0.136072,1.64901 -0.460784,1.82192 -0.254323,0.0737 -1.512318,0.44848 -2.795545,0.83289 l -2.333138,0.69894 1.396008,1.49984 c 0.767804,0.82492 3.848234,4.05969 6.8454,7.18839 2.997166,3.12869 7.868592,8.21862 10.825392,11.31093 l 5.375999,5.6224 h 21.89364 21.89365 z m -42.05656,-1.7288 c -0.09701,-0.097 -0.176389,-0.48864 -0.176389,-0.87027 0,-0.56579 0.592408,-1.18039 3.209152,-3.32934 6.676017,-5.48256 8.570387,-7.07608 8.751637,-7.36174 0.10275,-0.16196 0.1675,-2.73667 0.14389,-5.72159 l -0.0429,-5.42713 -4.707956,-4.78289 c -2.589377,-2.63059 -4.707958,-4.96362 -4.707958,-5.18452 0,-0.22089 0.217735,-0.59867 0.483855,-0.8395 0.431637,-0.39063 1.526529,-0.43788 10.145449,-0.43788 9.02398,0 9.6905,0.0319 10.09948,0.48385 0.24084,0.26612 0.43788,0.6439 0.43788,0.83951 0,0.19561 -2.14551,2.52927 -4.76781,5.18591 l -4.76782,4.83026 0.0715,5.62323 0.0715,5.62324 5.95312,4.87098 c 3.44324,2.81733 5.98958,5.08993 6.03959,5.39031 0.1105,0.66378 -0.40159,1.28396 -1.06019,1.28396 -0.28163,0 -3.06566,-2.11336 -6.18673,-4.69636 -3.12108,-2.58299 -5.7661,-4.72704 -5.87784,-4.76455 -0.20811,-0.0699 -1.02429,0.5806 -7.798086,6.2146 -3.660288,3.04439 -4.724126,3.65906 -5.313267,3.06992 z m 16.36007,-28.13403 3.16673,-3.175 -1.18649,-0.0237 c -2.48691,-0.0497 -6.84055,-0.0582 -9.25215,-0.0181 l -2.509402,0.0418 3.166732,3.175 c 1.7417,1.74625 3.22998,3.175 3.30729,3.175 0.0773,0 1.56559,-1.42875 3.30729,-3.175 z m -37.9755,-14.28716 c -2.586215,-0.29802 -6.519782,-1.57979 -8.855751,-2.8857 -2.132888,-1.19237 -4.578897,-3.32481 -6.150791,-5.36228 -1.998406,-2.5903 -4.504285,-8.36591 -4.183786,-9.64288 0.327696,-1.30564 7.849685,-4.61652 12.318952,-5.4223 3.081631,-0.5556 8.640417,-0.42838 11.509375,0.26341 4.945878,1.19259 9.755322,4.19431 12.437812,7.76281 2.109652,2.80646 4.561939,8.37345 4.24493,9.63651 -0.3084,1.22876 -7.136493,4.31135 -11.585355,5.23029 -2.493174,0.51498 -7.163316,0.71652 -9.735386,0.42014 z m 9.281283,-2.79668 c 2.601673,-0.49353 5.83522,-1.63517 7.892252,-2.78645 0.81806,-0.45785 1.521536,-0.86185 1.56328,-0.89778 0.04174,-0.0359 -0.284578,-1.05306 -0.725162,-2.26029 -3.076893,-8.43089 -11.108993,-13.19831 -21.178862,-12.57065 -4.399891,0.27426 -9.153433,1.62028 -12.361442,3.5003 -1.06842,0.62613 -1.146805,0.74479 -0.995128,1.50638 0.274932,1.38046 2.094817,4.9627 3.392899,6.67854 2.595351,3.43061 6.516784,5.80446 11.286587,6.83235 2.392586,0.51561 8.401694,0.51431 11.125576,-0.002 z m -8.704342,-0.86784 c -0.363735,-0.36374 -0.601382,-1.25488 -0.86596,-3.24721 -0.821751,-6.188 -0.03227,-13.46153 1.461137,-13.46153 0.6947,0 1.031733,0.83529 1.52362,3.77609 0.595392,3.5596 0.577182,6.08585 -0.07141,9.9067 -0.266427,1.56952 -0.48789,2.87925 -0.492142,2.91051 -0.0043,0.0313 -0.243126,0.18281 -0.530833,0.33679 -0.411947,0.22047 -0.629627,0.17343 -1.024413,-0.22135 z m 60.946479,3.55235 c -3.20748,-0.47193 -4.57584,-0.84855 -7.54063,-2.07542 -3.35735,-1.38931 -5.75828,-2.75509 -5.95989,-3.39032 -0.38279,-1.20607 2.0659,-6.82047 4.23038,-9.69949 5.8729,-7.81168 17.06979,-10.50761 28.35528,-6.82722 3.64088,1.18735 7.70212,3.35288 7.92061,4.22344 0.21101,0.84072 -1.1948,4.79835 -2.53803,7.14505 -2.90163,5.06932 -7.74372,8.6361 -13.84094,10.19551 -2.60151,0.66535 -7.63692,0.86837 -10.62678,0.42845 z m 9.26041,-2.56769 c 5.29546,-0.92341 10.37229,-4.38256 12.99148,-8.85188 0.79628,-1.35875 2.22207,-4.74308 2.22207,-5.27444 0,-0.74359 -4.93079,-2.9589 -8.65003,-3.88628 -3.31192,-0.82582 -9.57325,-0.82128 -12.64893,0.009 -6.22789,1.68157 -10.94565,5.77678 -13.15899,11.42252 -1.14312,2.91588 -1.15603,2.7396 0.25673,3.50612 2.92231,1.58556 7.63297,3.01471 11.44705,3.47287 1.31715,0.15823 5.66735,-0.0714 7.54062,-0.39809 z m -3.3261,-0.91502 c -0.43844,-0.52828 -1.20907,-5.25873 -1.27743,-7.84132 -0.0681,-2.57245 0.68352,-7.60947 1.22498,-8.20945 1.09992,-1.21881 1.75412,-0.20394 2.31721,3.59472 0.48449,3.26838 0.45078,5.53155 -0.14252,9.5683 -0.43424,2.95456 -1.20095,3.99783 -2.12224,2.88775 z m -33.80528,-8.77473 c -0.13234,-0.25466 -0.24758,-2.83599 -0.2561,-5.73629 l -0.0155,-5.27326 -7.095394,-7.09433 -7.095399,-7.09433 -2.116667,-0.17019 c -2.252533,-0.18113 -2.778125,-0.40313 -2.778125,-1.17347 0,-0.86233 1.031073,-1.30552 3.037238,-1.30552 h 1.861162 l 7.179051,-7.2099 7.179054,-7.209896 -0.0958,-5.256775 c -0.0586,-3.216056 0.008,-5.450068 0.17064,-5.754687 0.2999,-0.560379 1.30113,-0.66172 1.78244,-0.180413 0.22635,0.226351 0.3175,1.878942 0.3175,5.756491 v 5.438992 l 7.21167,7.208088 7.21166,7.2081 h 2.00775 c 1.60904,0 2.09469,0.0961 2.44562,0.48385 1.10185,1.21753 0.3423,1.87214 -2.33898,2.01582 l -2.05091,0.1099 -2.81164,2.71996 c -1.54639,1.49598 -4.80366,4.68906 -7.23836,7.09574 l -4.42674,4.37576 -0.005,5.33618 c -0.003,2.93489 -0.0773,5.5245 -0.16563,5.75468 -0.2217,0.57773 -1.60688,0.54551 -1.91349,-0.0445 z m 7.7633,-19.91056 6.61128,-6.61525 -6.67941,-6.67941 -6.67941,-6.679406 -6.679411,6.679406 -6.67941,6.67941 6.611279,6.61525 c 3.636202,3.63838 6.672592,6.61525 6.747542,6.61525 0.0749,0 3.11133,-2.97687 6.74754,-6.61525 z M 39.860957,95.053943 c -0.25716,-0.25716 -0.329427,-4.811949 -0.329427,-20.762821 0,-18.223034 0.04498,-20.478369 0.415774,-20.849167 0.441293,-0.441293 1.129807,-0.534805 1.570381,-0.213284 0.1465,0.106912 3.175877,3.230479 6.731949,6.941261 3.556071,3.710781 8.168942,8.482215 10.250824,10.603187 2.395922,2.440908 3.785239,4.056225 3.785239,4.400983 0,0.307721 -0.489187,0.9792 -1.124479,1.543508 -0.618464,0.549361 -5.280177,4.938762 -10.359364,9.754226 -9.296957,8.814237 -10.08815,9.434854 -10.940897,8.582107 z M 53.366461,80.827195 59.337159,75.158416 58.364032,74.029323 C 56.840724,72.261868 42.333182,57.317121 42.111218,57.286706 42.002077,57.271746 41.91278,65.008485 41.91278,74.479448 v 17.219933 l 2.741492,-2.601703 c 1.50782,-1.430938 5.428305,-5.152655 8.712189,-8.270483 z m 109.990069,9.334151 c -2.98318,-2.855049 -7.65638,-7.276985 -10.38489,-9.826525 -3.45276,-3.226277 -4.9574,-4.804187 -4.9493,-5.190312 0.007,-0.345586 1.42896,-2.022017 3.77031,-4.445802 2.06727,-2.140059 6.72878,-6.991856 10.35891,-10.781771 6.58659,-6.876501 7.21425,-7.390222 8.03122,-6.573254 0.24146,0.241462 0.3175,5.210422 0.3175,20.748152 0,11.236859 -0.0723,20.618984 -0.1606,20.849167 -0.091,0.237092 -0.46374,0.41696 -0.85989,0.414929 -0.54575,-0.0028 -1.89028,-1.143414 -6.12326,-5.194584 z m 4.7,-24.285692 -0.0698,-8.620189 -8.46667,8.768288 c -4.65667,4.822558 -8.46667,8.880992 -8.46667,9.018741 0,0.137749 3.81,3.864059 8.46667,8.280689 l 8.46667,8.030236 0.0698,-8.428787 c 0.0384,-4.635834 0.0384,-12.307874 0,-17.048978 z M 10.975337,133.00915 c -1.3214102,-0.69284 -2.0031802,-1.75523 -2.0031802,-3.12151 0,-2.08823 2.0258302,-3.82154 4.0275802,-3.44601 1.251,0.23469 2.62331,1.60701 2.858,2.85801 0.49589,2.6433 -2.5305,4.94266 -4.8824,3.70951 z m 2.21125,-2.34666 c 0.52976,-0.52976 0.52457,-0.87755 -0.0221,-1.48162 -0.56192,-0.62093 -0.9524,-0.61116 -1.54035,0.0385 -0.4427,0.48918 -0.44492,0.56487 -0.0349,1.19062 0.50293,0.76757 1.0032,0.84664 1.59737,0.25247 z m 183.362033,2.42486 c -2.86117,-1.24625 -3.00186,-4.91098 -0.23985,-6.24804 1.318,-0.63804 1.75818,-0.6502 2.9562,-0.0817 1.76507,0.83758 2.47178,3.18444 1.46974,4.88076 -0.4442,0.75197 -2.2329,1.83171 -2.99973,1.81079 -0.20872,-0.006 -0.74258,-0.16851 -1.18636,-0.36181 z m 1.83976,-2.35464 c 0.99213,-0.72546 -0.0625,-2.52478 -1.09904,-1.87503 -0.65178,0.40858 -0.74827,1.45438 -0.17299,1.87503 0.25991,0.19005 0.54612,0.34555 0.63602,0.34555 0.0899,0 0.3761,-0.1555 0.63601,-0.34555 z m -177.733551,-0.1383 c -0.54668,-0.60408 -0.551869,-0.95186 -0.02211,-1.48162 0.342731,-0.34273 1.146872,-0.41578 4.577292,-0.41578 4.366468,0 4.796518,0.10675 4.796518,1.19063 0,1.08311 -0.431131,1.19062 -4.77441,1.19062 -3.674174,0 -4.188624,-0.0544 -4.57729,-0.48385 z m 159.952541,0.16635 c -0.17463,-0.17462 -0.3175,-0.56753 -0.3175,-0.87312 0,-1.08388 0.43005,-1.19063 4.79651,-1.19063 3.43042,0 4.23456,0.0731 4.5773,0.41578 0.22867,0.22867 0.41577,0.57735 0.41577,0.77485 0,0.19749 -0.1871,0.54617 -0.41577,0.77485 -0.34274,0.34273 -1.14688,0.41577 -4.5773,0.41577 -2.88395,0 -4.25898,-0.0975 -4.47901,-0.3175 z M 104.29772,67.379828 c -0.33959,-0.389847 -0.39834,-1.478538 -0.37174,-6.888826 0.0332,-6.75479 0.0627,-6.920016 1.23545,-6.931602 0.97444,-0.0096 1.0451,0.473066 1.0451,7.139698 0,6.698303 -0.0667,7.14375 -1.07024,7.14375 -0.23939,0 -0.61674,-0.208359 -0.83857,-0.46302 z m -1.05299,-18.14974 c -1.30726,-0.366219 -1.64691,-0.572728 -3.08987,-1.878647 -1.880275,-1.701697 -2.622257,-4.698545 -1.830028,-7.391438 0.486302,-1.653005 2.908928,-3.970223 4.710038,-4.505093 1.77114,-0.525972 2.45357,-0.52655 4.21464,-0.0036 2.78944,0.828374 5.04244,3.8765 5.04244,6.822009 0,4.564606 -4.69616,8.175655 -9.04722,6.956739 z m 4.20492,-2.843903 c 3.2478,-1.57223 3.26239,-6.553034 0.024,-8.205116 -0.85462,-0.435993 -1.44269,-0.534343 -2.71182,-0.45353 -1.95543,0.124512 -3.07461,0.820923 -3.89311,2.422487 -2.105598,4.120025 2.30954,8.303884 6.58089,6.236159 z m -3.05663,-15.546434 c -0.45101,-0.451011 -0.48837,-0.981464 -0.46302,-6.573983 0.0288,-6.344676 0.13438,-6.958338 1.19768,-6.958338 1.00953,0 1.07885,0.444185 1.07885,6.913185 0,5.354663 -0.0612,6.339346 -0.41577,6.693959 -0.53802,0.538021 -0.79886,0.524058 -1.39774,-0.07482 z M 103.72867,12.79031 c -1.50717,-1.185541 -0.51374,-3.9495464 1.41953,-3.9495464 1.15229,0 2.11666,1.0246469 2.11666,2.2489584 0,1.913765 -2.02633,2.888246 -3.53619,1.700588 z"
       id="path1" /></g></svg>
