<?xml version="1.0" encoding="UTF-8" standalone="no"?>
<!-- Created with Inkscape (http://www.inkscape.org/) -->

<svg
   width="29.583792mm"
   height="35.941322mm"
   viewBox="0 0 29.583792 35.941322"
   version="1.1"
   id="svg1"
   xml:space="preserve"
   xmlns:inkscape="http://www.inkscape.org/namespaces/inkscape"
   xmlns:sodipodi="http://sodipodi.sourceforge.net/DTD/sodipodi-0.dtd"
   xmlns="http://www.w3.org/2000/svg"
   xmlns:svg="http://www.w3.org/2000/svg"><sodipodi:namedview
     id="namedview1"
     pagecolor="#ffffff"
     bordercolor="#000000"
     borderopacity="0.25"
     inkscape:showpageshadow="2"
     inkscape:pageopacity="0.0"
     inkscape:pagecheckerboard="0"
     inkscape:deskcolor="#d1d1d1"
     inkscape:document-units="mm"
     inkscape:zoom="0.71891835"
     inkscape:cx="397.12437"
     inkscape:cy="561.25984"
     inkscape:window-width="1920"
     inkscape:window-height="1009"
     inkscape:window-x="3832"
     inkscape:window-y="-8"
     inkscape:window-maximized="1"
     inkscape:current-layer="layer1"><inkscape:page
       x="0"
       y="0"
       width="29.583792"
       height="35.941322"
       id="page2"
       margin="0"
       bleed="0" /></sodipodi:namedview><defs
     id="defs1" /><g
     inkscape:label="Layer 1"
     inkscape:groupmode="layer"
     id="layer1"
     transform="translate(-54.510091,-86.483581)"><path
       style="fill:#000000"
       d="m 68.814194,122.15615 c -0.327422,-0.22106 -0.595312,-0.61094 -0.595312,-0.86641 0,-0.25548 0.178593,-0.61272 0.396875,-0.79388 0.218281,-0.18116 0.396875,-0.49339 0.396875,-0.69385 0,-0.20047 0.119062,-0.36448 0.264583,-0.36448 0.145521,0 0.264583,0.12756 0.264583,0.28348 0,0.15591 0.178594,0.46208 0.396875,0.68036 0.218282,0.21828 0.396875,0.60804 0.396875,0.86613 0,0.2581 -0.208359,0.65405 -0.46302,0.87991 -0.414951,0.36801 -0.524826,0.36892 -1.058334,0.009 z m 0.264584,-3.5495 c -0.181901,-0.18331 -0.33073,-0.72425 -0.33073,-1.20209 v -0.86881 l -7.077604,-0.0705 -7.077604,-0.0705 -0.06916,-10.83168 c -0.04547,-7.12171 0.02354,-10.924373 0.201483,-11.102314 0.148851,-0.148852 0.745518,-0.236351 1.325926,-0.194445 0.97732,0.07057 1.055289,0.02583 1.055289,-0.605496 0,-0.509964 0.136096,-0.681691 0.540251,-0.681691 0.297139,0 2.053311,0.310991 3.902605,0.69109 1.849293,0.3801 4.285086,0.957546 5.412873,1.283214 2.050521,0.592125 2.050521,0.592125 2.082113,0.03652 0.01738,-0.305586 0.01007,-1.269986 -0.01624,-2.143111 -0.02631,-0.873125 -0.09734,-1.766093 -0.157845,-1.984375 -0.06051,-0.218281 -1.43e-4,-0.57202 0.134144,-0.786087 0.134286,-0.214067 0.330967,-0.302402 0.437069,-0.1963 0.106102,0.106102 0.164458,1.432003 0.129679,2.946446 l -0.06323,2.753534 1.538353,-0.475957 c 0.846095,-0.261776 3.40102,-0.864545 5.677613,-1.339487 2.276592,-0.474942 4.330421,-0.790176 4.564062,-0.700519 0.233642,0.08966 0.424804,0.404874 0.424804,0.700483 0,0.460613 0.170257,0.537471 1.190625,0.537471 h 1.190625 v 11.112504 11.1125 h -7.261545 -7.261545 l -0.08064,1.20641 c -0.06462,0.96672 -0.146352,1.1402 -0.411371,0.87313 z m -3.173801,-3.2596 c -0.617804,-0.193 -2.582335,-0.60795 -4.365625,-0.92212 -1.78329,-0.31417 -3.44245,-0.61124 -3.687023,-0.66016 -0.244572,-0.0489 -0.666941,0.16564 -0.938597,0.4768 -0.271656,0.31116 -0.651677,0.77411 -0.84449,1.02877 -0.331317,0.43759 -0.04,0.46205 5.304222,0.44532 5.101039,-0.016 5.544794,-0.0521 4.531513,-0.36861 z m 16.865988,0.18069 c 0,-0.11309 -0.343552,-0.58176 -0.763448,-1.04148 -0.480902,-0.52652 -0.946024,-0.79486 -1.256771,-0.72506 -0.271327,0.0609 -2.398322,0.48257 -4.726656,0.93693 -2.328333,0.45436 -4.282943,0.87317 -4.343576,0.93067 -0.06063,0.0575 2.409913,0.10456 5.490104,0.10456 3.080191,0 5.600347,-0.0925 5.600347,-0.20562 z m -4.580507,-2.0697 2.695534,-0.44262 0.01492,-9.20671 c 0.0082,-5.063691 -0.05016,-9.376288 -0.129692,-9.583549 -0.123694,-0.322344 -0.515659,-0.308752 -2.710449,0.09399 -1.411213,0.258954 -3.518343,0.722889 -4.682509,1.030965 -1.164167,0.308077 -2.480325,0.676103 -2.924796,0.817837 -0.80813,0.257697 -0.80813,0.257697 -0.80813,2.865662 0,2.607965 0,2.607965 0.866435,2.921275 0.476539,0.17231 1.122399,0.67277 1.435244,1.11212 0.455947,0.64032 0.543792,1.05919 0.442725,2.11101 -0.08391,0.87327 -0.326917,1.52597 -0.726488,1.95129 -0.330221,0.35151 -0.942638,0.71427 -1.360926,0.80614 -0.760523,0.16704 -0.760523,0.16704 -0.760523,3.81223 v 3.6452 l 2.976563,-0.74612 c 1.637109,-0.41036 4.189553,-0.94529 5.672097,-1.18872 z m -9.44241,-1.79362 c 0,-3.53978 0,-3.53978 -0.825042,-3.88152 -0.453773,-0.18796 -1.04864,-0.70842 -1.321927,-1.15658 -0.273287,-0.44816 -0.497331,-1.21318 -0.497875,-1.70005 -5.44e-4,-0.48687 0.202139,-1.22909 0.450407,-1.64937 0.248267,-0.42029 0.84358,-0.95026 1.322916,-1.17772 0.871521,-0.41356 0.871521,-0.41356 0.871521,-3.037674 0,-2.231278 -0.06931,-2.660061 -0.46302,-2.864262 -0.254662,-0.132083 -2.010834,-0.608887 -3.902605,-1.059564 -1.891771,-0.450677 -4.124192,-0.924086 -4.960937,-1.05202 l -1.521354,-0.232607 v 9.563647 9.56364 l 2.84427,0.47966 c 1.564349,0.26382 3.856303,0.75546 5.09323,1.09254 1.236927,0.33709 2.397786,0.6216 2.579687,0.63227 0.249069,0.0146 0.330729,-0.85462 0.330729,-3.52039 z m 14.552084,-6.60086 V 94.922925 l -0.79375,0.116498 -0.79375,0.116498 v 9.112229 c 0,9.11223 0,9.11223 0.727604,10.02413 0.400182,0.50154 0.75737,0.9119 0.79375,0.91191 0.03638,0 0.06615,-4.56328 0.06615,-10.14063 z m -0.79375,-6.528116 c 0,-1.940278 0.102893,-3.175 0.264583,-3.175 0.16169,0 0.264584,1.234722 0.264584,3.175 0,1.940276 -0.102894,3.174996 -0.264584,3.174996 -0.16169,0 -0.264583,-1.23472 -0.264583,-3.174996 z M 56.043997,113.41826 c 0.0022,-0.47295 0.123114,-0.8599 0.268635,-0.8599 0.14552,0 0.264583,0.24515 0.264583,0.54478 0,0.29963 0.119062,0.4712 0.264583,0.38126 0.168102,-0.10389 0.264584,-3.48643 0.264584,-9.27603 0,-8.806609 -0.01704,-9.112509 -0.507528,-9.112509 -0.279139,0 -0.695858,-0.07227 -0.926041,-0.160599 -0.377038,-0.144683 -0.418515,0.821134 -0.418515,9.745488 0,5.44834 0.08116,9.98725 0.180365,10.08645 0.0992,0.0992 0.275972,0.0297 0.392824,-0.15434 0.116852,-0.18409 0.214281,-0.72166 0.21651,-1.1946 z m -0.08017,-10.8219 c -0.0992,-0.0992 -0.180365,-0.9274 -0.180365,-1.84044 0,-0.913044 0.119062,-1.733664 0.264583,-1.823601 0.159075,-0.09831 0.278049,0.291117 0.298351,0.976573 0.01857,0.627048 0.06138,1.398248 0.09513,1.713778 0.03375,0.31552 -0.01935,0.70427 -0.117986,0.86387 -0.09864,0.1596 -0.260511,0.20903 -0.359713,0.10982 z m 15.045203,4.0209 c 0.468009,-0.46801 0.649432,-0.93836 0.649432,-1.68371 0,-0.76472 -0.181796,-1.21608 -0.697538,-1.73182 -0.470706,-0.4707 -0.980343,-0.69754 -1.5672,-0.69754 -0.549587,0 -1.169269,0.25211 -1.683712,0.68498 -0.573303,0.4824 -0.81405,0.91791 -0.81405,1.4726 0,0.4332 0.125036,1.02126 0.277858,1.30681 0.152822,0.28555 0.409344,0.43792 0.570047,0.3386 0.170431,-0.10533 0.217708,-0.0601 0.113452,0.10862 -0.0983,0.15906 0.03213,0.41196 0.289849,0.562 0.257722,0.15004 0.860951,0.27642 1.340508,0.28085 0.580523,0.005 1.088965,-0.209 1.521354,-0.64139 z M 68.536382,88.428361 c -0.174625,-0.174625 -0.3175,-0.587155 -0.3175,-0.916733 0,-0.329578 0.2295,-0.722057 0.509999,-0.872176 0.2805,-0.150119 0.698247,-0.200707 0.928326,-0.112417 0.230079,0.08829 0.490125,0.446596 0.577879,0.796237 0.08822,0.351502 0.01357,0.811606 -0.166972,1.02915 -0.179589,0.216391 -0.52626,0.393439 -0.770379,0.393439 -0.244119,0 -0.586728,-0.142875 -0.761353,-0.3175 z"
       id="path4" /></g></svg>
