<?xml version="1.0" encoding="UTF-8" standalone="no"?>
<!-- Created with Inkscape (http://www.inkscape.org/) -->

<svg
   width="59.002155mm"
   height="73.791786mm"
   viewBox="0 0 59.002155 73.791786"
   version="1.1"
   id="svg1"
   xml:space="preserve"
   xmlns="http://www.w3.org/2000/svg"
   xmlns:svg="http://www.w3.org/2000/svg"><defs
     id="defs1" /><g
     id="layer1"
     transform="translate(-84.310733,-198.57899)"><path
       style="fill:#000000"
       d="m 111.88216,269.39421 c -2.87185,-4.43758 -3.1499,-4.92664 -2.96816,-5.22069 0.0916,-0.14818 1.11197,-0.26941 2.26755,-0.26941 h 2.10106 v -2.12497 c 0,-1.70433 0.0838,-2.15715 0.42357,-2.28751 0.655,-0.25135 0.89088,0.4058 0.89529,2.49425 l 0.004,1.91823 h 2.10105 c 1.15558,0 2.17054,0.11243 2.25547,0.24984 0.13745,0.2224 -4.76878,8.21683 -5.04272,8.21683 -0.061,0 -0.97768,-1.33946 -2.03716,-2.97657 z m 1.40045,-2.18281 v -1.98437 h -1.3105 -1.31049 l 1.24435,1.97853 c 0.68439,1.08819 1.27411,1.98116 1.31049,1.98437 0.0364,0.003 0.0662,-0.88712 0.0662,-1.97853 z m 3.89281,-2.12394 c -0.031,-0.0175 -0.6219,0.0187 -1.31313,0.0805 l -1.25677,0.11232 6.7e-4,1.89159 6.7e-4,1.89158 1.31246,-1.97211 c 0.72185,-1.08467 1.28709,-1.98642 1.2561,-2.00391 z m -11.91574,-6.05984 c -4.05482,-1.44229 -8.229783,-4.58275 -11.077387,-8.33255 -2.63108,-3.46467 -4.75995,-8.81451 -5.1787,-13.01403 l -0.19495,-1.95506 -2.24896,-0.13229 c -1.76388,-0.10376 -2.24895,-0.21789 -2.24895,-0.52917 0,-0.31433 0.45189,-0.41282 2.1728,-0.47355 l 2.1728,-0.0767 0.11879,-0.84936 c 0.0653,-0.46715 0.24278,-1.82356 0.39433,-3.01425 0.6894,-5.41666 3.33125,-10.58536 7.552902,-14.77703 4.098425,-4.06931 9.106295,-6.4447 15.028485,-7.12848 l 1.51094,-0.17445 0.0766,-2.16507 c 0.0694,-1.96317 0.12591,-2.16508 0.60572,-2.16508 0.47982,0 0.53631,0.20191 0.60573,2.16508 l 0.0766,2.16507 1.51094,0.17471 c 11.89867,1.37584 20.92119,10.65458 22.56302,23.20377 l 0.33573,2.5662 2.13839,0.0761 c 1.69056,0.0602 2.13838,0.15924 2.13838,0.473 0,0.31403 -0.44974,0.41282 -2.15463,0.47327 -2.36845,0.084 -2.46364,0.16397 -2.47196,2.07745 -0.005,1.18896 -1.22452,5.72123 -2.09949,7.80372 -2.13245,5.07537 -6.84558,10.10867 -11.79475,12.59597 -2.97161,1.49343 -5.68901,2.05412 -5.37391,1.10881 0.0517,-0.1552 1.23911,-0.73256 2.63861,-1.28303 8.42861,-3.31524 14.35991,-11.22763 15.42927,-20.58272 l 0.1878,-1.64298 -2.33984,-0.0768 c -1.86934,-0.0614 -2.33985,-0.15661 -2.33985,-0.47368 0,-0.31686 0.46879,-0.41232 2.32519,-0.47347 l 2.3252,-0.0766 -0.1777,-2.04007 c -0.81897,-9.40233 -6.91184,-17.62331 -15.54608,-20.97599 -2.22999,-0.86591 -5.86453,-1.5693 -8.1089,-1.5693 -3.70602,0 -8.45903,1.34867 -11.87111,3.36841 -2.462955,1.45793 -5.866184,4.76743 -7.645462,7.43491 -2.387825,3.57981 -3.698435,7.3814 -4.139295,12.0066 l -0.16924,1.77555 2.32141,0.0765 c 1.853066,0.0611 2.321406,0.15661 2.321406,0.47341 0,0.31128 -0.485069,0.42541 -2.248956,0.52917 -1.23929,0.0729 -2.24702,0.25108 -2.24465,0.39687 0.14601,8.9593 6.502532,18.16019 14.892497,21.55645 1.12009,0.45342 2.31377,0.93987 2.65262,1.081 0.70776,0.29478 0.64331,0.87917 -0.10765,0.97609 -0.27964,0.0361 -1.32079,-0.22333 -2.31366,-0.57649 z m 6.05601,-7.2292 c -5.40024,-9.51795 -9.41602,-16.89448 -9.81743,-18.03353 -0.58704,-1.66578 -0.78624,-5.11283 -0.40224,-6.96052 0.9245,-4.44841 4.74724,-8.68929 9.03565,-10.02399 2.34074,-0.72852 5.67471,-0.67328 7.95555,0.13181 4.43955,1.56708 8.01483,5.99318 8.7154,10.78942 0.42987,2.94303 -0.10625,5.32816 -2.04159,9.08271 -3.29457,6.39143 -10.42026,18.97142 -10.81697,19.09672 -0.14552,0.046 -1.32828,-1.79122 -2.62837,-4.08262 z m 5.61276,-3.30629 c 4.23647,-7.48784 7.62291,-13.90744 8.13006,-15.41198 1.84905,-5.48552 -0.96465,-11.93761 -6.29333,-14.4312 -2.34918,-1.09931 -4.34347,-1.42345 -6.51307,-1.05859 -3.92581,0.66021 -7.23694,3.18544 -8.97462,6.84451 -0.80594,1.69708 -0.96563,2.34213 -1.05798,4.2737 -0.1944,4.06601 -0.2928,3.83699 7.96038,18.52679 3.16534,5.63397 3.58881,6.35 3.75549,6.35 0.0613,0 1.40816,-2.29195 2.99307,-5.09323 z m -5.36564,-13.13097 c -3.89486,-1.78668 -4.99103,-6.99137 -2.08459,-9.89781 3.20975,-3.20974 7.75813,-2.54649 9.77052,1.42476 0.74397,1.46816 0.87174,3.69181 0.29167,5.07606 -1.29603,3.09275 -5.10507,4.71471 -7.9776,3.39699 z m 4.01768,-1.10722 c 1.80191,-0.68081 3.06938,-2.58585 3.06938,-4.61337 0,-1.50031 -0.46647,-2.57394 -1.57333,-3.62119 -2.10479,-1.99145 -5.53258,-1.57478 -7.14987,0.86911 -0.99622,1.50538 -1.0526,3.83879 -0.12875,5.32839 1.18836,1.9161 3.73153,2.812 5.78257,2.03706 z m -2.91834,-32.74619 c -0.59395,-0.65631 -0.55154,-1.78373 0.0913,-2.42656 0.70785,-0.70784 1.47361,-0.66711 2.26099,0.12027 0.75083,0.75083 0.818,1.37341 0.23755,2.20211 -0.51924,0.74133 -1.96074,0.79931 -2.58982,0.10418 z m 1.63204,-1.19171 c 0.0506,-0.26109 -0.0843,-0.4411 -0.33073,-0.4411 -0.24543,0 -0.41627,0.22622 -0.41627,0.55122 0,0.6448 0.61827,0.55365 0.747,-0.11012 z"
       id="path10" /></g></svg>
