<?xml version="1.0" encoding="UTF-8" standalone="no"?>
<!-- Created with Inkscape (http://www.inkscape.org/) -->

<svg
   width="75.925827mm"
   height="70.411797mm"
   viewBox="0 0 75.925827 70.411797"
   version="1.1"
   id="svg1"
   xml:space="preserve"
   xmlns="http://www.w3.org/2000/svg"
   xmlns:svg="http://www.w3.org/2000/svg"><defs
     id="defs1" /><g
     id="layer1"
     transform="translate(-8.92734,-192.80737)"><path
       style="fill:#000000"
       d="m 46.376762,263.04341 c -0.09592,-0.1552 -0.100816,-0.40125 -0.01088,-0.54677 0.08994,-0.14552 0.0397,-0.26458 -0.111635,-0.26458 -0.151337,0 -0.353493,-0.32743 -0.449235,-0.72761 -0.321494,-1.34377 -2.153579,-6.80025 -2.71523,-8.08673 -0.305841,-0.70054 -0.676101,-1.19953 -0.822799,-1.10886 -0.342556,0.21171 -0.935634,-0.14005 -0.611149,-0.36248 0.132681,-0.0909 0.02633,-0.37373 -0.236336,-0.62839 -0.313186,-0.30364 -0.478969,-0.34918 -0.481626,-0.13229 -0.0027,0.22422 -0.09444,0.20292 -0.284726,-0.0661 -0.211219,-0.29866 -0.313883,-0.31503 -0.414872,-0.0661 -0.07381,0.1819 -0.332635,0.34013 -0.57517,0.35162 -0.277599,0.0131 -0.317831,0.0705 -0.108594,0.15489 0.182808,0.0737 0.275965,0.22528 0.207016,0.33684 -0.06895,0.11156 -1.442655,-0.22603 -3.05268,-0.7502 -2.632096,-0.85693 -2.913712,-1.00877 -2.792396,-1.50559 0.134854,-0.55227 -0.849046,-1.69641 -1.45882,-1.69641 -0.153002,0 -0.188773,-0.14883 -0.07949,-0.33073 0.149568,-0.24896 0.104366,-0.26053 -0.182823,-0.0468 -0.209835,0.15615 -0.662867,0.2986 -1.006737,0.31654 -1.008944,0.0526 -1.017039,0.31808 -0.03455,1.13285 2.259124,1.87347 6.983889,4.16409 8.950758,4.33944 0.339941,0.0303 0.697129,0.17653 0.79375,0.32494 0.09662,0.14841 0.354269,0.33782 0.572551,0.42092 0.218281,0.0831 -0.287958,0.16047 -1.124976,0.17196 -3.560714,0.0489 -11.575025,-4.07786 -11.575025,-5.96022 0,-0.57072 -0.414885,-0.45988 -3.09656,0.82733 -1.37066,0.65792 -2.60465,1.12667 -2.74219,1.04167 -0.13753,-0.085 0.21584,-0.7126 0.78528,-1.39466 1.7633,-2.11204 2.44725,-3.75365 1.56389,-3.75365 -0.80371,0 -2.4658,-2.0527 -3.42776,-4.23333 -0.16049,-0.3638 -0.56501,-1.25677 -0.89893,-1.98438 -0.66853,-1.45671 -1.70873,-4.68142 -1.70873,-5.29722 0,-0.21523 0.11906,-0.39132 0.26458,-0.39132 0.14552,0 0.26641,0.26789 0.26864,0.59531 0.002,0.32743 0.12851,0.77391 0.28064,0.99219 0.20358,0.29213 0.22937,0.15247 0.0977,-0.52917 -0.0984,-0.50932 -0.28999,-1.06427 -0.42577,-1.23321 -0.1539,-0.19148 -0.14921,-0.36754 0.0125,-0.46745 0.14263,-0.0881 0.45159,0.10961 0.68658,0.43947 0.3845,0.53971 0.45267,0.55546 0.68114,0.15739 0.39822,-0.69384 1.77511,-0.88741 2.38516,-0.33532 0.28127,0.25454 0.5114,0.67384 0.5114,0.93176 0,0.25793 0.28631,0.69417 0.63625,0.96943 0.61331,0.48243 0.61808,0.51181 0.13229,0.81519 -0.59537,0.37182 -0.66338,0.83941 -0.12208,0.83941 0.5447,0 1.20562,1.04759 1.20562,1.91096 0,0.47683 0.13936,0.73487 0.39688,0.73487 0.21828,0 0.39687,0.10792 0.39687,0.23982 0,0.13189 0.23813,0.17754 0.52917,0.10143 0.69744,-0.18238 0.669335,-0.44592 -0.20257,-1.89948 -1.26929,-2.11603 -2.23693,-6.11468 -1.47971,-6.11468 0.42422,0 0.70956,0.45653 0.35848,0.57356 -0.43929,0.14643 0.43201,3.04595 1.643032,5.46772 0.93796,1.87571 2.265669,3.68057 4.383701,5.95913 0.871051,0.93707 3.533562,2.59184 6.260974,3.89124 2.672367,1.27317 3.588177,1.54731 3.588177,1.07408 0,-0.39196 -0.597878,-0.73596 -2.116667,-1.21785 -0.800364,-0.25395 -1.945548,-0.74178 -2.544852,-1.08408 -0.599304,-0.3423 -1.164851,-0.567 -1.256771,-0.49933 -0.09192,0.0677 -0.106148,0.0422 -0.03162,-0.0566 0.07453,-0.0988 -0.378708,-0.48574 -1.007195,-0.8599 -1.331161,-0.79248 -3.792433,-3.28553 -5.509503,-5.58063 -1.000781,-1.33768 -2.784558,-4.72477 -3.097388,-5.88143 -0.44413,-1.6421 0.0851,-1.11834 0.85636,0.84757 0.797956,2.03385 2.448888,4.74064 3.639252,5.96673 l 0.771861,0.79503 2.525429,-2.43672 c 2.422354,-2.33727 2.786845,-2.9898 1.67006,-2.9898 -0.503142,0 -0.502825,-0.0107 0.01561,-0.52916 0.725221,-0.72522 0.665729,-1.12244 -0.271941,-1.81569 -0.440609,-0.32576 -0.728015,-0.71055 -0.63868,-0.8551 0.08933,-0.14454 0.01522,-0.44018 -0.164694,-0.65697 -0.456403,-0.54993 -0.691774,-10.39438 -0.267474,-11.18719 0.202456,-0.3783 0.218273,-0.72476 0.04764,-1.04358 -0.285198,-0.5329 0.03266,-1.26762 0.439601,-1.01612 0.144073,0.089 0.327242,-0.1636 0.407043,-0.56142 0.0798,-0.39782 0.663506,-1.28759 1.297122,-1.97727 1.198009,-1.30402 4.509462,-3.64083 5.15935,-3.64083 0.205293,0 0.308013,-0.10557 0.228267,-0.2346 -0.260927,-0.42219 0.510288,-0.79627 1.459695,-0.70804 1.165717,0.10835 1.853287,-0.36134 1.699322,-1.16081 -0.06358,-0.33014 0.17773,-1.32213 0.536241,-2.20443 0.358511,-0.8823 0.651839,-1.74951 0.651839,-1.92714 0,-0.36287 0.783453,-0.74264 1.027852,-0.49824 0.0871,0.0871 -0.04432,0.27179 -0.292036,0.41042 -0.423191,0.23683 -0.735693,1.00639 -1.264548,3.11404 -0.165516,0.65964 -0.146472,0.81484 0.07305,0.59532 0.422949,-0.42295 0.730615,-0.36719 0.551363,0.0999 -0.105228,0.27422 0.01743,0.39687 0.396875,0.39687 0.381281,0 0.502259,-0.12225 0.395724,-0.39987 -0.1098,-0.28614 -0.03218,-0.35335 0.272887,-0.23628 0.52003,0.19955 0.520824,0.17675 0.0412,-1.18267 -0.211826,-0.60038 -0.281204,-1.0916 -0.154174,-1.0916 0.320933,0 1.161999,2.28047 0.961007,2.60568 -0.360219,0.58285 0.432349,1.56192 1.52362,1.88216 4.587203,1.34613 7.806194,4.4616 9.168476,8.87362 0.179727,0.58209 0.491087,1.44933 0.69191,1.92721 0.200823,0.47788 0.365133,1.28938 0.365133,1.80333 0,0.51395 0.127325,1.17237 0.282944,1.46314 0.197118,0.36832 0.199031,0.6298 0.0063,0.86202 -0.152152,0.18333 -0.260888,0.75233 -0.241636,1.26443 0.01925,0.51211 -0.06005,1.08491 -0.176236,1.2729 -0.116182,0.18798 -0.246418,0.94836 -0.289412,1.68972 -0.04299,0.74136 -0.20465,1.39009 -0.359235,1.44162 -0.154584,0.0515 -0.281062,0.24962 -0.281062,0.44021 0,0.19058 -0.178594,0.41505 -0.396875,0.49881 -0.218281,0.0838 -0.396875,0.39416 -0.396875,0.68977 0,0.29561 -0.171757,0.53747 -0.381683,0.53747 -0.234024,0 -0.343818,0.19662 -0.283806,0.50823 0.05549,0.28816 -0.08205,0.57729 -0.317645,0.66769 -0.228536,0.0877 -0.340799,0.23417 -0.249473,0.3255 0.09133,0.0913 -0.04046,0.33355 -0.29286,0.53827 -0.412961,0.33496 -0.372494,0.36199 0.404179,0.26996 0.719715,-0.0853 0.96996,0.0379 1.506448,0.74122 0.353849,0.46392 1.215616,1.39626 1.915038,2.07186 l 1.271677,1.22838 0.479981,-0.59587 c 0.26399,-0.32773 0.860331,-1.02924 1.325203,-1.55891 0.464872,-0.52968 1.368802,-1.8989 2.008733,-3.04271 1.943738,-3.47424 1.902415,-3.41943 2.190261,-2.90508 0.169698,0.30323 0.10652,0.87876 -0.196671,1.79158 -0.481428,1.44945 -0.294919,1.87762 0.704074,1.61638 0.560665,-0.14662 0.661909,-0.50006 0.18845,-0.65788 -0.557338,-0.18578 0.05797,-0.73404 0.823812,-0.73404 0.410157,0 0.886184,-0.16923 1.05784,-0.37606 0.256091,-0.30857 0.214422,-0.35051 -0.232186,-0.23372 -0.634643,0.16596 -0.744177,-0.31523 -0.125774,-0.55254 0.75955,-0.29146 1.168986,-0.16784 1.168986,0.35296 0,0.28245 0.119062,0.58713 0.264583,0.67707 0.452729,0.2798 0.29136,0.83226 -0.330729,1.13229 -0.327422,0.15791 -0.446484,0.29516 -0.264583,0.30501 0.389346,0.0211 0.430593,0.80163 0.08767,1.6591 -0.133682,0.33427 -0.318681,0.84255 -0.411109,1.12952 -0.137967,0.42835 -0.21029,0.4534 -0.404014,0.13995 -0.12978,-0.20999 -0.309801,-0.30796 -0.400047,-0.21771 -0.09025,0.0902 0.009,0.32492 0.220543,0.5215 0.334526,0.31087 0.298285,0.51251 -0.278223,1.54805 -0.364567,0.65484 -0.946535,1.47475 -1.293263,1.82202 -0.724307,0.72543 -0.802189,1.08839 -0.233538,1.08839 0.218282,0 0.396875,-0.10777 0.396875,-0.2395 0,-0.13173 0.531974,-1.10235 1.182163,-2.15692 1.021791,-1.6573 3.139024,-7.1342 3.139279,-8.12076 1.24e-4,-0.47532 0.619308,-0.40818 0.809626,0.0878 0.271137,0.70657 0.185792,1.33864 -0.500549,3.70706 -0.793644,2.73869 -1.769692,4.63222 -3.733024,7.24205 -1.657034,2.20266 -1.663496,2.03236 0.16898,4.45348 0.583565,0.77102 0.88989,1.38615 0.718703,1.44321 -0.298942,0.0996 -3.103185,-0.96272 -4.642862,-1.75892 -0.935219,-0.48362 -1.209198,-0.5324 -0.988968,-0.17606 0.183213,0.29645 -2.464389,2.9486 -3.958556,3.96536 -1.639549,1.1157 -5.155342,2.39519 -7.871355,2.86461 -0.927084,0.16023 -0.957554,-0.33873 -0.06362,-1.04189 1.149915,-0.90453 0.50074,-1.18554 -1.367004,-0.59174 -0.44889,0.14272 -0.446719,0.12172 0.02734,-0.26444 0.352985,-0.28754 0.429313,-0.5051 0.242681,-0.69173 -0.358493,-0.3585 -1.154502,-0.0412 -1.154502,0.46017 0,0.21664 -0.179878,0.70991 -0.39973,1.09617 -0.219851,0.38625 -1.038619,2.64222 -1.819484,5.01326 -0.780865,2.37103 -1.482033,4.37325 -1.558151,4.44937 -0.07612,0.0761 -0.216877,0.0114 -0.312797,-0.14379 z m 0.385995,-1.45117 c 0,-0.0609 0.07976,-0.31852 0.177255,-0.57257 0.111905,-0.29162 0.07441,-0.39836 -0.101709,-0.28951 -0.234707,0.14506 -0.589295,-0.76574 -1.011886,-2.59915 -0.03354,-0.14552 -0.307744,-1.09802 -0.609337,-2.11666 -0.301594,-1.01865 -0.677097,-2.3581 -0.834452,-2.97656 -0.16496,-0.64836 -0.442277,-1.12448 -0.654947,-1.12448 -0.202866,0 -0.440935,-0.22713 -0.529041,-0.50473 -0.140164,-0.44162 -0.933799,-1.0141 -0.933799,-0.67359 0,0.0704 0.347119,0.75127 0.771375,1.51305 0.77943,1.39952 1.995565,4.76533 2.818727,7.8012 0.246609,0.90951 0.551752,1.65365 0.678097,1.65365 0.126344,0 0.229717,-0.0498 0.229717,-0.11065 z m 1.91823,-5.66227 c 0.836744,-2.44602 1.521354,-4.52528 1.521354,-4.62056 0,-0.31173 -0.704819,0.089 -0.733195,0.41684 -0.04247,0.49066 -1.38453,5.01341 -1.664989,5.61101 -0.423938,0.90333 -0.998705,3.04278 -0.817068,3.04137 0.0949,-7.4e-4 0.857153,-2.00263 1.693898,-4.44866 z m -2.711941,-1.43042 c -0.438481,-2.14339 -0.924145,-2.7042 -0.683839,-0.78965 0.177545,1.41452 0.663178,2.81014 0.896615,2.5767 0.06977,-0.0698 -0.02598,-0.87394 -0.212776,-1.78705 z m 1.995703,0.1981 c 0.281716,-0.93607 0.293399,-1.20893 0.04809,-1.12307 -0.178221,0.0624 -0.291115,0.30044 -0.250875,0.52904 0.04024,0.22859 -0.04906,0.49115 -0.198438,0.58347 -0.14938,0.0923 -0.2716,0.47834 -0.2716,0.8578 0,0.92689 0.223646,0.64527 0.672825,-0.84724 z m -1.282238,-2.05674 c -0.129856,-0.40018 -0.358096,-0.7276 -0.5072,-0.7276 -0.173357,0 -0.164853,0.12801 0.02359,0.35507 0.162077,0.19529 0.224366,0.42539 0.13842,0.51134 -0.08594,0.0859 -0.06131,0.6703 0.05475,1.29857 l 0.211011,1.14231 0.157769,-0.92604 c 0.08677,-0.50933 0.05152,-1.25347 -0.07833,-1.65365 z m 9.07608,1.04066 c 2.719571,-0.76221 4.10547,-1.54216 6.386586,-3.59422 1.633477,-1.46945 1.475087,-1.7462 -0.219644,-0.38377 -0.699682,0.56249 -1.569806,1.19205 -1.933609,1.39904 -1.942698,1.10529 -4.25282,2.13442 -5.423958,2.4163 -1.497896,0.36053 -2.337146,0.91867 -1.058333,0.70385 0.436562,-0.0733 1.448593,-0.31688 2.248958,-0.5412 z m -15.989177,0.11313 c -0.07997,-0.1294 -0.473954,-0.31351 -0.875511,-0.40914 -1.787539,-0.42567 -4.460777,-1.62265 -6.541918,-2.92923 -1.421815,-0.89264 -2.257978,-1.28159 -2.257978,-1.05032 0,0.70426 6.137064,3.90923 8.334375,4.35249 1.47993,0.29854 1.503562,0.29918 1.341032,0.0362 z m 15.195427,-1.08764 c 0,-0.14552 -0.171567,-0.26459 -0.38126,-0.26459 -0.209693,0 -0.454845,0.11907 -0.544782,0.26459 -0.08994,0.14552 0.08163,0.26458 0.38126,0.26458 0.29963,0 0.544782,-0.11906 0.544782,-0.26458 z m 3.56036,-1.33502 c 1.321291,-0.67 2.746312,-1.75137 2.469218,-1.87375 -0.36357,-0.16058 -1.267078,-0.11074 -1.267078,0.0699 0,0.12565 0.148828,0.23813 0.330729,0.24995 0.181901,0.0118 0.01409,0.1622 -0.372912,0.33418 -0.387003,0.17198 -0.922784,0.5072 -1.190625,0.74494 -0.267841,0.23774 -0.715242,0.47431 -0.994225,0.52572 -0.278983,0.0514 -0.556796,0.24229 -0.617361,0.42419 -0.145537,0.4371 -0.171587,0.44464 1.642254,-0.47512 z m -19.729078,-0.61425 c 0.228256,-0.27504 0.205113,-0.44073 -0.09652,-0.69106 -0.465863,-0.38664 -1.197257,-0.17956 -1.197257,0.33897 0,0.75537 0.782381,0.96829 1.293782,0.35209 z m 16.359956,-0.15471 c -0.07428,-0.28407 0.0011,-0.57233 0.167579,-0.64057 0.166453,-0.0683 0.10702,-0.13349 -0.132072,-0.14498 -0.553788,-0.0266 -0.883785,0.79308 -0.434144,1.07838 0.497613,0.31575 0.548089,0.27867 0.398637,-0.29283 z M 25.96733,248.16766 c -0.0634,-0.1026 0.0241,-0.27269 0.19449,-0.37799 0.19347,-0.11958 0.2389,-0.0768 0.12099,0.11401 -0.24702,0.3997 -0.0214,0.38536 0.99309,-0.0631 0.458551,-0.20271 1.05472,-0.44194 1.324817,-0.53164 0.384263,-0.12761 0.452575,-0.32082 0.314047,-0.88822 -0.09737,-0.39883 -0.387895,-0.9402 -0.645609,-1.20304 -0.451222,-0.46021 -0.497138,-0.45041 -1.240085,0.26458 -0.42434,0.40837 -1.18824,1.36734 -1.69756,2.13104 -0.50933,0.7637 -1.01534,1.38878 -1.12448,1.38906 -0.10914,2.8e-4 -0.19844,0.12313 -0.19844,0.273 0,0.14986 0.46666,0.004 1.03701,-0.32435 0.57036,-0.32825 0.98514,-0.68077 0.92173,-0.78337 z m 33.064081,0.76908 c 0.08775,-0.32742 0.161164,-0.68461 0.163151,-0.79375 0.0063,-0.34548 -0.59802,-0.21487 -1.09757,0.23722 -0.456334,0.41297 -0.457418,0.45385 -0.02083,0.78533 0.639375,0.48545 0.772379,0.4536 0.955253,-0.2288 z m -23.731171,-0.0928 c 0.187182,-0.48779 -0.452692,-0.99621 -0.807382,-0.64152 -0.288792,0.28879 -0.02374,1.0651 0.363649,1.0651 0.154655,0 0.354335,-0.19061 0.443733,-0.42358 z m 26.411476,0.159 c 0.08994,-0.14552 0.03743,-0.26459 -0.116677,-0.26459 -0.154109,0 -0.280198,0.11907 -0.280198,0.26459 0,0.14552 0.0525,0.26458 0.116677,0.26458 0.06417,0 0.190261,-0.11906 0.280198,-0.26458 z m 7.532627,-0.27953 c -0.16016,-0.29926 -0.461322,-0.60939 -0.669248,-0.68918 -0.207926,-0.0798 -0.317258,-0.24343 -0.24296,-0.36365 0.0743,-0.12022 0.0042,-0.29945 -0.155708,-0.3983 -0.159938,-0.0988 -0.504629,-0.67857 -0.765981,-1.28828 -0.430549,-1.00443 -0.563457,-1.10856 -1.414952,-1.10856 -0.7234,0 -1.003495,0.13986 -1.21656,0.60749 -0.459892,1.00935 0.05045,1.80697 1.612244,2.51978 3.257299,1.48664 3.263991,1.48833 2.853165,0.7207 z m -21.952419,0.0404 c 0,-0.13154 0.429819,-0.99475 0.955154,-1.91823 0.525334,-0.92348 1.794809,-3.28641 2.821054,-5.25094 1.026246,-1.96453 2.054942,-3.87498 2.285992,-4.24545 0.231051,-0.37046 0.682181,-1.08484 1.002512,-1.5875 0.320331,-0.50266 0.596706,-1.03299 0.614166,-1.17851 0.01746,-0.14552 0.181711,-0.44317 0.365001,-0.66146 1.784361,-2.12501 3.196167,-6.61429 3.289715,-10.46069 0.107848,-4.43437 -3.591972,-9.56204 -8.096607,-11.22129 -1.45419,-0.53565 -2.007381,-0.59624 -4.504016,-0.49338 -2.458356,0.10129 -3.058101,0.22094 -4.401125,0.87802 -1.875862,0.91777 -2.809623,1.67766 -4.158574,3.38421 -1.046096,1.32341 -1.234164,1.77355 -0.740991,1.77355 0.154109,0 0.21498,-0.10553 0.135268,-0.2345 -0.1488,-0.24077 0.92072,-0.63417 1.136753,-0.41814 0.22242,0.22242 -1.120912,1.20087 -1.466584,1.06822 -0.38625,-0.14821 -0.671928,0.30321 -1.259243,1.98982 -0.774146,2.22315 -0.336638,8.07139 0.627873,8.3929 0.212422,0.0708 0.280674,-0.002 0.170074,-0.18064 -0.2254,-0.36471 0.101869,-0.38225 0.640245,-0.0343 0.352777,0.22798 0.352777,0.25738 0,0.26458 -0.32843,0.007 -0.333992,0.0479 -0.03225,0.23906 0.200544,0.12702 0.282815,0.36332 0.182822,0.52511 -0.276692,0.4477 -0.677168,0.35118 -0.700628,-0.16885 -0.01177,-0.26092 -0.0778,-0.32269 -0.151267,-0.14152 -0.07171,0.17683 0.193834,1.04395 0.590093,1.92693 0.67134,1.49595 1.122901,1.8603 1.373572,1.10829 0.06149,-0.18448 -0.05438,-0.2533 -0.280415,-0.16656 -0.258569,0.0992 -0.426556,-0.0685 -0.510983,-0.51014 -0.110818,-0.57971 -0.03616,-0.65542 0.62768,-0.63654 0.810388,0.023 1.057953,0.44987 0.290437,0.50075 -0.440972,0.0292 -0.440972,0.0365 0,0.15169 0.569142,0.14873 0.604848,0.95803 0.06214,1.40844 -0.349979,0.29046 -0.210288,0.68932 1.100136,3.14125 0.825559,1.5447 1.78236,3.34433 2.126226,3.99918 1.104385,2.10315 1.545597,2.72625 2.07769,2.93424 0.286433,0.11196 0.36777,0.21193 0.180749,0.22216 -0.259186,0.0142 -0.271757,0.14618 -0.05287,0.55517 0.157942,0.29512 0.400256,0.46669 0.538476,0.38126 0.13822,-0.0854 0.251308,-0.0391 0.251308,0.10284 0,0.14198 -0.148828,0.31402 -0.330729,0.38231 -0.195353,0.0733 -0.05998,0.23794 0.330729,0.40215 0.363802,0.15289 0.519857,0.28554 0.346789,0.29476 -0.502561,0.0268 0.424334,2.44165 0.994396,2.59072 0.260861,0.0682 0.538324,0.29089 0.616584,0.49483 0.176539,0.46006 -0.152311,0.48211 -0.597611,0.0401 -0.267139,-0.26517 -0.298237,-0.23895 -0.156901,0.1323 0.183066,0.48085 1.70716,0.68071 1.70716,0.22385 z m -1.455208,-1.34833 c 0.727362,-0.31256 1.145108,-0.31256 0.661458,0 -0.218281,0.14106 -0.575469,0.24993 -0.79375,0.24193 -0.261687,-0.01 -0.216625,-0.092 0.132292,-0.24193 z m 1.08028,-1.28741 c -0.113975,-0.18442 -0.135773,-0.40675 -0.04844,-0.49409 0.236792,-0.23679 0.494974,0.11147 0.367079,0.49516 -0.08962,0.26886 -0.151941,0.26865 -0.318638,-0.001 z m -1.87403,-0.30009 c -0.08994,-0.14553 -0.04446,-0.26459 0.101062,-0.26459 0.14552,0 0.338168,0.11906 0.428104,0.26459 0.08994,0.14552 0.04446,0.26458 -0.101061,0.26458 -0.145521,0 -0.338168,-0.11906 -0.428105,-0.26458 z m 1.569799,-1.27423 c -0.141361,-0.0995 -0.290513,-0.80606 -0.331451,-1.57005 -0.06098,-1.13798 0.0035,-1.38906 0.356821,-1.38906 0.33563,0 0.394834,0.16581 0.26701,0.74779 -0.09033,0.41128 -0.04481,1.06191 0.101159,1.44584 0.269862,0.70979 0.07252,1.09365 -0.393539,0.76548 z m -0.996723,-0.95572 c -0.08446,-0.22009 -0.35663,-0.31916 -0.659322,-0.24001 -0.28352,0.0741 -0.595487,0.005 -0.693259,-0.15283 -0.257521,-0.41668 0.9729,-0.36246 1.562767,0.0689 0.30155,0.2205 0.381882,0.42178 0.210586,0.52765 -0.152318,0.0941 -0.341665,0.002 -0.420772,-0.20366 z m -2.463316,-2.13587 c -0.02099,-0.3637 0.05857,-0.66127 0.176798,-0.66127 0.118225,0 0.403286,-0.0723 0.633469,-0.1606 0.230183,-0.0883 0.418514,-0.0288 0.418514,0.13229 0,0.16109 -0.178593,0.29289 -0.396875,0.29289 -0.218281,0 -0.382775,0.0893 -0.365542,0.19844 0.06951,0.44025 -0.04264,0.85989 -0.22977,0.85971 -0.109141,-10e-5 -0.215608,-0.29776 -0.236594,-0.66146 z m 4.536073,0.13248 c -0.08994,-0.14552 -0.04446,-0.26458 0.101062,-0.26458 0.145521,0 0.338168,0.11906 0.428105,0.26458 0.08994,0.14552 0.04446,0.26458 -0.101062,0.26458 -0.145521,0 -0.338168,-0.11906 -0.428105,-0.26458 z m -1.303447,-1.78594 c 0.07569,-0.83674 0.146988,-1.64041 0.158435,-1.78593 0.01145,-0.14552 -0.06657,-0.59201 -0.173375,-0.99219 -0.161494,-0.6051 -0.110216,-0.72761 0.304571,-0.72761 0.409444,0 0.496182,0.19324 0.484373,1.07907 -0.0079,0.59349 0.06224,1.12643 0.1559,1.18431 0.09366,0.0579 0.113125,0.40426 0.04326,0.76973 -0.08636,0.45178 0.0097,0.71694 0.300067,0.82837 0.60615,0.2326 0.531898,0.72557 -0.08499,0.56425 -0.296061,-0.0774 -0.571591,0.0212 -0.653154,0.23372 -0.07759,0.2022 -0.260694,0.36764 -0.406894,0.36764 -0.163172,0 -0.212675,-0.58748 -0.128195,-1.52136 z m -3.062178,-0.0505 c 0,-0.44515 0.119063,-0.80936 0.264583,-0.80936 0.145521,0 0.264584,0.29063 0.264584,0.64584 0,0.35522 -0.119063,0.71943 -0.264584,0.80937 -0.154364,0.0954 -0.264583,-0.17364 -0.264583,-0.64585 z m 5.820834,0.38126 c 0,-0.21828 0.04679,-0.39687 0.103984,-0.39687 0.05719,0 0.172517,0.17859 0.256279,0.39687 0.08376,0.21829 0.03697,0.39688 -0.103984,0.39688 -0.140954,0 -0.256279,-0.17859 -0.256279,-0.39688 z m -4.195436,-0.10327 c -0.22073,-0.13986 -0.256881,-0.29055 -0.09387,-0.3913 0.145809,-0.0901 0.333377,0.0141 0.416819,0.23151 0.175321,0.45688 0.158807,0.46505 -0.322949,0.15979 z m -2.733341,-0.47434 c 0.190996,-0.0764 0.4192,-0.067 0.507118,0.0209 0.08792,0.0879 -0.06835,0.15045 -0.347265,0.13896 -0.308225,-0.0127 -0.370919,-0.0754 -0.159853,-0.15985 z m 6.002735,-0.0838 c 0.727362,-0.31256 1.145108,-0.31256 0.661458,0 -0.218281,0.14106 -0.575469,0.24993 -0.79375,0.24193 -0.261687,-0.01 -0.216625,-0.092 0.132292,-0.24193 z m 1.455208,-0.52917 c 0,-0.14552 0.126089,-0.26458 0.280198,-0.26458 0.154109,0 0.206614,0.11906 0.116677,0.26458 -0.08994,0.14552 -0.216026,0.26459 -0.280198,0.26459 -0.06417,0 -0.116677,-0.11907 -0.116677,-0.26459 z m -6.35,-0.54478 c 0,-0.15411 0.119063,-0.20661 0.264583,-0.11668 0.145521,0.0899 0.264584,0.21603 0.264584,0.2802 0,0.0642 -0.119063,0.11668 -0.264584,0.11668 -0.14552,0 -0.264583,-0.12609 -0.264583,-0.2802 z m -1.852083,-0.38126 c 0.181157,-0.21828 0.448439,-0.39687 0.59396,-0.39687 0.147592,0 0.118942,0.17548 -0.06479,0.39687 -0.181157,0.21828 -0.448439,0.39688 -0.59396,0.39688 -0.147592,0 -0.118942,-0.17549 0.06479,-0.39688 z m 6.973302,-0.26477 c -0.02099,-0.3637 0.06831,-0.66127 0.198437,-0.66127 0.130127,0 0.236594,0.10932 0.236594,0.24294 0,0.13362 0.07227,0.43128 0.160599,0.66146 0.09783,0.25495 0.02028,0.41844 -0.198437,0.41833 -0.19747,-1e-4 -0.376207,-0.29776 -0.397193,-0.66146 z m -5.23492,-0.10202 c -0.07971,-0.12898 0.09866,-0.29821 0.396381,-0.37606 0.443957,-0.1161 0.485181,-0.0739 0.229211,0.2345 -0.365374,0.44025 -0.431713,0.45526 -0.625592,0.14156 z m 7.522035,-0.16238 c 0,-0.21828 0.119062,-0.39687 0.264583,-0.39687 0.145521,0 0.264583,0.17859 0.264583,0.39687 0,0.21829 -0.119062,0.39688 -0.264583,0.39688 -0.145521,0 -0.264583,-0.17859 -0.264583,-0.39688 z m -10.583334,-0.66145 c 0,-0.14553 0.119062,-0.26459 0.264583,-0.26459 0.145521,0 0.264584,0.11906 0.264584,0.26459 0,0.14552 -0.119063,0.26458 -0.264584,0.26458 -0.145521,0 -0.264583,-0.11906 -0.264583,-0.26458 z m 11.159824,-0.28713 c -0.303835,-0.48652 -0.288266,-0.54087 0.131755,-0.45998 0.261966,0.0505 0.516166,0.29872 0.564887,0.55171 0.121548,0.63114 -0.278061,0.57852 -0.696642,-0.0917 z m -5.338991,-1.13035 c 0,-0.49704 -0.416498,-0.87062 -2.05052,-1.83921 -1.127787,-0.66852 -2.444823,-1.57847 -2.926747,-2.02211 -0.481924,-0.44364 -0.959299,-0.80662 -1.060834,-0.80662 -0.221824,0 -0.474131,-0.39571 -1.689044,-2.64905 -0.674826,-1.25162 -0.982401,-2.22185 -1.124246,-3.54637 -0.131003,-1.22329 -0.272645,-1.70115 -0.430386,-1.452 -0.151414,0.23916 -0.236562,0.25919 -0.239171,0.0563 -0.0022,-0.17331 0.104651,-0.38229 0.237509,-0.4644 0.132859,-0.0821 0.326174,-0.65011 0.429588,-1.26222 0.103415,-0.6121 0.2866,-1.29609 0.40708,-1.51996 0.120479,-0.22388 0.428678,-0.87819 0.684886,-1.45402 0.741077,-1.66558 2.260317,-2.93138 4.673089,-3.89353 1.882282,-0.75061 2.447747,-0.85764 4.360362,-0.82537 1.208685,0.0204 2.339778,0.14969 2.513542,0.28731 0.173764,0.13762 0.745096,0.38832 1.269626,0.5571 1.072529,0.34512 3.14735,2.0066 3.14735,2.52034 0,0.53979 0.890474,1.4022 1.322917,1.28123 0.320091,-0.0895 0.327603,-0.0624 0.03883,0.14005 -0.274545,0.19253 -0.289971,0.37828 -0.06615,0.7965 0.160545,0.29999 0.2919,0.82815 0.2919,1.17371 0,0.34555 0.167758,0.8577 0.372797,1.13811 0.26301,0.35969 0.296916,0.65161 0.115132,0.99128 -0.141715,0.2648 -0.203993,0.62368 -0.138394,0.79751 0.0656,0.17383 0.244366,0.0184 0.397263,-0.3454 l 0.277993,-0.66146 0.01677,0.6993 c 0.0092,0.38461 -0.1442,0.76107 -0.340942,0.83657 -0.196743,0.0755 -0.42899,0.65728 -0.516105,1.29285 -0.08711,0.63557 -0.610753,1.97021 -1.16364,2.96587 -0.994821,1.79151 -3.090721,4.12687 -3.703965,4.12715 -0.316026,1.4e-4 -2.725244,1.52986 -2.725244,1.73037 0,0.0579 0.198126,0.0292 0.440279,-0.0637 0.296039,-0.1136 0.377603,-0.0675 0.248968,0.1406 -0.10522,0.17025 -0.428602,0.30954 -0.718625,0.30954 -0.348027,0 -0.621394,0.26988 -0.804018,0.79375 -0.203885,0.58487 -0.443962,0.79375 -0.912278,0.79375 -0.491306,0 -0.635576,-0.14158 -0.635576,-0.62372 z m 2.466123,-7.06827 c 1.225208,-0.34022 2.940892,-1.83542 3.529574,-3.07597 0.926228,-1.95188 0.247836,-5.76545 -1.267454,-7.12497 -0.74471,-0.66815 -2.477317,-1.27127 -2.900568,-1.00969 -0.164635,0.10175 -0.391677,0.0356 -0.504537,-0.14702 -0.347457,-0.5622 -2.702841,0.16789 -3.929767,1.2181 -1.394715,1.19382 -1.893225,2.23872 -2.074566,4.34839 -0.123037,1.43137 -0.05256,1.91892 0.407857,2.8214 0.724026,1.41921 2.554643,2.91359 3.745021,3.05715 1.689476,0.20376 1.976047,0.1954 2.99444,-0.0874 z m -3.326018,-1.59196 c -0.254662,-0.14704 -0.463021,-0.17962 -0.463021,-0.0724 0,0.10722 -0.344565,-0.13518 -0.7657,-0.53865 -0.429313,-0.41131 -0.912296,-1.27577 -1.099389,-1.96773 -0.183529,-0.67878 -0.448856,-1.38297 -0.589614,-1.56487 -0.179729,-0.23226 -0.134379,-0.33073 0.152325,-0.33073 0.228646,0 0.481434,-0.3201 0.574603,-0.7276 0.36005,-1.57481 2.05726,-2.71198 4.047566,-2.71198 1.34621,0 3.093503,1.14574 3.739989,2.45241 0.653443,1.32072 0.343535,2.37794 -1.195462,4.0782 -0.703566,0.77729 -1.028132,1.32496 -0.850332,1.43484 0.470303,0.29067 -3.046693,0.23966 -3.550965,-0.0515 z m 4.034896,-0.50563 c 0,-0.14552 0.109324,-0.26458 0.242943,-0.26458 0.133619,0 0.461041,-0.0755 0.727604,-0.16789 0.425922,-0.14754 0.420528,-0.11649 -0.04451,0.25617 -0.613306,0.49148 -0.926041,0.55102 -0.926041,0.1763 z m 0.198437,8.82061 c 0.181901,-0.0734 0.479557,-0.0734 0.661458,0 0.181901,0.0734 0.03307,0.13345 -0.330729,0.13345 -0.363802,0 -0.51263,-0.06 -0.330729,-0.13345 z m -10.517188,-0.35394 c 0,-0.14552 0.112036,-0.26458 0.248969,-0.26458 0.136932,0 0.322553,0.11906 0.41249,0.26458 0.08994,0.14552 -0.0221,0.26458 -0.248969,0.26458 -0.226869,0 -0.41249,-0.11906 -0.41249,-0.26458 z m 5.159375,0 c -0.08994,-0.14552 0.08866,-0.26458 0.396875,-0.26458 0.308218,0 0.486812,0.11906 0.396875,0.26458 -0.08994,0.14552 -0.26853,0.26458 -0.396875,0.26458 -0.128344,0 -0.306938,-0.11906 -0.396875,-0.26458 z m -1.320249,-0.2689 c 0.0914,-0.1479 0.277024,-0.2004 0.41249,-0.11668 0.366988,0.22681 0.298559,0.38558 -0.166189,0.38558 -0.226869,0 -0.337705,-0.12101 -0.246301,-0.2689 z m 8.011673,-1.23749 c -0.09887,-0.37809 0.03209,-0.47799 0.626686,-0.47799 0.424957,0 0.751682,0.14376 0.751682,0.33073 0,0.1819 -0.109324,0.33073 -0.242943,0.33073 -0.13362,0 -0.415628,0.0663 -0.626687,0.14726 -0.230123,0.0883 -0.433781,-0.0441 -0.508738,-0.33073 z m -10.263299,-0.0811 c -0.238467,-0.15411 -0.2711,-0.2581 -0.08176,-0.26053 0.173312,-0.002 0.388698,0.11501 0.478635,0.26053 0.203016,0.32849 0.111422,0.32849 -0.396875,0 z m -1.124479,-0.7044 c 0.181901,-0.0734 0.479557,-0.0734 0.661458,0 0.181901,0.0734 0.03307,0.13346 -0.330729,0.13346 -0.363802,0 -0.51263,-0.06 -0.330729,-0.13346 z m -2.050521,-2.09263 c 0,-0.27652 0.751087,-0.90714 1.080442,-0.90714 0.204797,0 0.147844,0.19519 -0.1544,0.52917 -0.458523,0.50666 -0.926042,0.69748 -0.926042,0.37797 z m 17.991667,-1.83318 c 0.181158,-0.21828 0.463627,-0.38748 0.62771,-0.37599 0.185877,0.013 0.173044,0.0714 -0.03405,0.15489 -0.182807,0.0737 -0.265078,0.2429 -0.182822,0.37599 0.08226,0.13309 -0.05064,0.24199 -0.295332,0.24199 -0.365456,0 -0.386079,-0.0709 -0.11551,-0.39688 z M 36.508505,227.9252 c -0.182808,-0.0737 -0.268292,-0.2377 -0.189965,-0.36443 0.171484,-0.27747 0.919217,-0.0302 0.919217,0.30393 0,0.25486 -0.204986,0.27186 -0.729252,0.0605 z m 20.041418,-2.34068 c -0.357023,-0.43019 -0.07703,-0.52002 0.493687,-0.1584 0.218056,0.13817 0.255791,0.29123 0.09612,0.38991 -0.144568,0.0894 -0.409983,-0.0148 -0.589811,-0.23151 z m 1.325335,-0.12938 c 0,-0.14552 0.126089,-0.26458 0.280198,-0.26458 0.154109,0 0.206614,0.11906 0.116677,0.26458 -0.08994,0.14552 -0.216026,0.26459 -0.280198,0.26459 -0.06417,0 -0.116677,-0.11907 -0.116677,-0.26459 z m -21.960417,-0.52916 c -0.342024,-0.22104 -0.33504,-0.25705 0.05053,-0.26054 0.246074,-0.002 0.520991,0.11501 0.610928,0.26054 0.206952,0.33485 -0.143306,0.33485 -0.661458,0 z m 20.372917,-0.24897 c 0,-0.44356 0.46925,-0.55339 0.62543,-0.14639 0.09215,0.24015 -8.29e-4,0.39536 -0.236859,0.39536 -0.213714,0 -0.388571,-0.11204 -0.388571,-0.24897 z m -20.310079,-0.58778 c -0.180082,-0.18008 -0.327422,-0.50772 -0.327422,-0.72808 0,-0.3467 0.05757,-0.34308 0.427586,0.0269 0.235172,0.23518 0.382512,0.56281 0.327422,0.72808 -0.07234,0.21701 -0.191125,0.20953 -0.427586,-0.0269 z m -0.377031,-1.72525 c 0.190996,-0.0764 0.419199,-0.067 0.507118,0.0209 0.08792,0.0879 -0.06835,0.15046 -0.347266,0.13897 -0.308224,-0.0127 -0.370919,-0.0754 -0.159852,-0.15985 z m 20.582788,-2.41983 c -0.09023,-0.14599 -0.02116,-0.60285 0.153473,-1.01524 l 0.317521,-0.74981 0.101932,0.75984 c 0.107184,0.79899 -0.280254,1.47876 -0.572926,1.00521 z m -3.070678,-5.07234 c 0,-0.14552 0.119062,-0.26459 0.264583,-0.26459 0.145521,0 0.264583,0.11907 0.264583,0.26459 0,0.14552 -0.119062,0.26458 -0.264583,0.26458 -0.145521,0 -0.264583,-0.11906 -0.264583,-0.26458 z m 0,33.07292 c 0,-0.14553 0.232468,-0.26459 0.516596,-0.26459 0.713081,0 4.326148,-1.93668 5.805151,-3.11168 1.677089,-1.33238 3.203253,-2.94441 3.203253,-3.38349 0,-0.20096 0.245943,-0.497 0.546541,-0.65788 1.127217,-0.60326 4.228399,-6.19629 4.209679,-7.59221 -0.0035,-0.25755 -0.291934,0.22645 -0.641066,1.07557 -1.00893,2.45381 -2.547208,4.57559 -5.827768,8.0384 -2.573235,2.71619 -4.438724,3.99585 -7.253664,4.97576 -2.238686,0.77931 -2.701486,1.1847 -1.352472,1.1847 0.436562,0 0.79375,-0.11906 0.79375,-0.26458 z m -10.384896,-0.6329 c -0.254662,-0.19332 -0.463021,-0.50703 -0.463021,-0.69714 0,-0.42438 -0.394668,-0.0714 -0.402432,0.3599 -0.0055,0.30474 0.549558,0.65875 1.06389,0.67854 0.145521,0.006 0.05622,-0.14798 -0.198437,-0.3413 z m 20.835938,0.10373 c 0.08994,-0.14552 0.03743,-0.26458 -0.116677,-0.26458 -0.154109,0 -0.280198,0.11906 -0.280198,0.26458 0,0.14552 0.0525,0.26458 0.116676,0.26458 0.06417,0 0.190262,-0.11906 0.280199,-0.26458 z m -1.897098,-0.68336 c -0.07914,-0.20623 -0.01209,-0.37497 0.148998,-0.37497 0.16109,0 0.292891,-0.17486 0.292891,-0.38858 0,-0.47403 -0.674373,-0.25997 -1.36885,0.43451 -0.391159,0.39116 -0.407614,0.48323 -0.08636,0.48323 0.218281,0 0.396875,0.11533 0.396875,0.25628 0,0.14096 0.171076,0.19063 0.380168,0.1104 0.209093,-0.0802 0.315417,-0.31463 0.236276,-0.52087 z m -29.558288,-0.70165 c -0.421832,-0.27833 -1.220657,-0.24751 -1.220657,0.0471 0,0.13727 0.265994,0.43589 0.591098,0.6636 0.542933,0.38028 0.604669,0.37612 0.757637,-0.0511 0.0916,-0.25584 0.03396,-0.55264 -0.128078,-0.65955 z m 8.965802,0.59126 c 0.08994,-0.14552 0.07055,-0.41341 -0.04309,-0.59531 -0.306815,-0.49113 -0.340039,-0.99219 -0.06579,-0.99219 0.395447,0 0.276228,-0.39176 -0.311051,-1.02213 -0.303722,-0.32601 -0.485511,-0.76659 -0.403975,-0.97907 0.15889,-0.41406 -0.32654,-1.70297 -0.641374,-1.70297 -0.104345,0 -0.337937,0.1786 -0.519094,0.39688 -0.181158,0.21828 -0.4466,0.39687 -0.589871,0.39687 -0.143272,0 -0.191961,-0.17859 -0.108199,-0.39687 0.08376,-0.21828 0.04812,-0.39688 -0.07921,-0.39688 -0.12733,0 -0.169238,-0.23812 -0.09313,-0.52916 0.07737,-0.29586 0.0081,-0.52917 -0.157062,-0.52917 -0.260196,0 -0.418378,0.54432 -0.326774,1.12448 0.01723,0.10914 -0.101611,0.19844 -0.264096,0.19844 -0.164101,0 -0.244606,-0.26586 -0.181102,-0.59806 0.10919,-0.57119 0.05412,-0.5918 -1.225926,-0.45879 -0.866432,0.09 -1.316868,0.25469 -1.274107,0.46576 0.08052,0.39745 -0.381216,0.43962 -0.512165,0.0468 -0.139596,-0.41878 -0.907317,-0.0319 -1.188879,0.59907 -0.191476,0.42911 -0.116707,0.68312 0.333636,1.13347 0.907329,0.90733 3.813079,2.77249 4.57862,2.93896 0.78878,0.17152 0.967007,0.24482 1.882018,0.77408 0.788446,0.45605 0.974385,0.4757 1.190625,0.12581 z m -4.7625,-2.91042 c -0.08994,-0.14552 0.08866,-0.26458 0.396875,-0.26458 0.308218,0 0.486811,0.11906 0.396875,0.26458 -0.08994,0.14552 -0.268531,0.26459 -0.396875,0.26459 -0.128345,0 -0.306939,-0.11907 -0.396875,-0.26459 z m 19.067482,2.10298 c 0.866139,-0.31815 2.531317,-1.50489 3.741274,-2.66635 0.96811,-0.92931 1.071718,-1.1343 0.796252,-1.57539 -0.17417,-0.27889 -0.517653,-0.50707 -0.763295,-0.50707 -0.245643,0 -0.624875,-0.17825 -0.842739,-0.39612 -0.395576,-0.39557 -1.229182,-0.28717 -1.229182,0.15984 0,0.40803 -0.687895,0.25786 -1.316585,-0.2874 -0.332091,-0.28802 -0.715252,-0.45479 -0.851469,-0.3706 -0.25722,0.15897 0.368621,1.02719 1.180293,1.6374 0.257096,0.19328 0.402135,0.4571 0.322308,0.58626 -0.197733,0.31994 -1.336352,-0.14377 -1.252776,-0.5102 0.03638,-0.15951 -0.201745,-0.29184 -0.529167,-0.29407 -0.493002,-0.003 -0.527106,-0.0523 -0.198438,-0.28472 0.352778,-0.24949 0.352778,-0.26741 0,-0.16132 -0.218281,0.0656 -0.363412,0.2644 -0.322514,0.44167 0.126218,0.54706 -0.557882,2.12509 -0.921262,2.12509 -0.189048,0 -0.343724,0.1 -0.343724,0.22212 0,0.12216 -0.296574,0.35724 -0.659054,0.5224 -0.478798,0.21815 -0.643929,0.48305 -0.603751,0.96851 0.06038,0.72952 0.49699,0.86448 1.045469,0.32316 0.206793,-0.2041 0.619857,-0.27956 1.011086,-0.18471 0.640974,0.1554 0.645071,0.1703 0.132292,0.481 -0.469117,0.28424 -0.439092,0.3008 0.264583,0.14596 0.436563,-0.0961 1.039742,-0.26503 1.340399,-0.37546 z M 27.03807,244.47523 c 0.15382,-0.14371 0.0894,-0.23484 -0.16604,-0.23484 -0.22957,0 -0.57454,-0.18935 -0.7666,-0.42077 -0.3177,-0.3828 -0.3799,-0.37879 -0.68937,0.0444 -0.68761,0.94036 0.70718,1.46592 1.62201,0.61118 z m 43.925134,-3.77892 c 0.520555,-1.00336 0.898812,-1.87194 0.840571,-1.93018 -0.111386,-0.11139 -1.4931,2.13825 -1.4931,2.43099 0,0.0934 -0.357188,0.68896 -0.79375,1.32348 -0.436563,0.63452 -0.793159,1.25128 -0.792436,1.37059 0.0027,0.45115 1.329287,-1.44198 2.238715,-3.19488 z m -48.080194,0.0529 c -0.63779,-1.20912 -1.23782,-2.43631 -1.33341,-2.72708 -0.3648,-1.10972 -1.21627,-2.89521 -1.23039,-2.58009 -0.029,0.64779 3.48381,8.0846 3.64025,7.70654 0.0457,-0.11053 -0.43866,-1.19025 -1.07645,-2.39937 z m 2.03961,1.24554 c -0.38268,-0.653 -0.64514,-1.33761 -0.58325,-1.52136 0.0619,-0.18375 -0.0765,-0.48066 -0.30756,-0.65979 -0.36463,-0.2827 -0.36909,-0.35917 -0.0337,-0.57916 0.33161,-0.21754 0.31729,-0.32977 -0.10104,-0.79202 -0.26807,-0.29621 -0.70982,-0.60916 -0.98167,-0.69544 -0.59049,-0.18742 -0.65982,-0.65039 -0.0974,-0.65039 0.21828,0 0.39687,-0.2282 0.39687,-0.50712 0,-0.27891 0.14883,-0.56542 0.33073,-0.63668 0.1819,-0.0713 -0.1778,-0.33836 -0.79933,-0.59354 -0.75443,-0.30975 -1.18172,-0.66978 -1.28546,-1.08311 -0.0855,-0.34052 -0.26154,-0.61913 -0.39129,-0.61913 -0.45714,0 -0.22717,1.09072 0.55785,2.64583 0.43656,0.86483 0.79375,1.73611 0.79375,1.93618 0,0.88262 2.33715,4.94299 2.84518,4.94299 0.24206,0 0.13463,-0.37113 -0.34365,-1.18726 z m 28.055973,0.92571 c 0.09269,-0.14999 -0.01351,-0.19434 -0.248969,-0.10399 -0.458368,0.17589 -0.542233,0.36554 -0.161648,0.36554 0.136933,0 0.32171,-0.1177 0.410617,-0.26155 z M 33.476402,240.3877 c 0.249735,-0.17492 0.513595,-0.31453 0.586355,-0.31024 0.345536,0.0204 2.297062,-1.14346 2.673195,-1.59419 0.351072,-0.42071 0.36583,-0.58826 0.08558,-0.97153 -0.494982,-0.67693 -1.078724,-0.37972 -3.090345,1.57342 -1.362516,1.32291 -1.754065,1.86624 -1.669846,2.31717 0.06051,0.32398 0.119595,0.64858 0.131306,0.72135 0.01171,0.0728 0.203182,-0.21651 0.425493,-0.64283 0.222312,-0.42631 0.608531,-0.91823 0.858266,-1.09315 z m -6.215672,0.74379 c -0.20412,-0.55324 -0.63239,-0.87501 -0.9244,-0.69453 -0.39937,0.24682 -0.21057,0.61158 0.22921,0.44282 0.28007,-0.10747 0.37575,-0.0645 0.26293,0.118 -0.14764,0.23889 -0.0229,0.37068 0.545254,0.57584 0.03181,0.0115 -0.01903,-0.18747 -0.112994,-0.44213 z m 33.92182,-0.33073 c -0.08994,-0.14552 -0.335089,-0.26458 -0.544782,-0.26458 -0.209693,0 -0.356704,-0.0893 -0.326691,-0.19844 0.08398,-0.30538 -1.69626,-2.18281 -2.069798,-2.18281 -0.181699,0 -0.400737,-0.22174 -0.486752,-0.49275 -0.178334,-0.56188 -1.380728,-0.62635 -1.260239,-0.0676 0.167528,0.77693 1.595208,2.20134 2.821982,2.81552 1.360842,0.68131 2.147718,0.84601 1.86628,0.39063 z m 5.894944,-0.21732 c 0.08294,-0.25244 -0.126331,-0.32597 -0.752998,-0.26458 -0.477324,0.0468 -0.919549,0.24235 -0.982724,0.43463 -0.08294,0.25244 0.126331,0.32598 0.752998,0.26458 0.477324,-0.0468 0.919549,-0.24234 0.982724,-0.43463 z m 1.519717,-2.18387 c 0.198266,-0.62468 0.03005,-0.90928 -0.3856,-0.6524 -0.347025,0.21447 -0.376133,1.20151 -0.03543,1.20151 0.135715,0 0.32518,-0.2471 0.421033,-0.54911 z M 24.97562,238.03409 c -0.0862,-0.22455 -0.27947,-0.40828 -0.42956,-0.40828 -0.38776,0 -0.33937,0.72591 0.0578,0.86777 0.44948,0.16053 0.55811,0.0263 0.37172,-0.45949 z m 47.821786,-1.96002 c 0.6735,-2.25638 0.438909,-2.76124 -0.262507,-0.56493 -0.348554,1.09141 -0.626348,2.2225 -0.617322,2.51354 l 0.01641,0.52917 0.219866,-0.52917 c 0.120926,-0.29104 0.410524,-1.16791 0.643551,-1.94861 z m -48.969316,-1.3303 c -0.0784,-0.29965 -0.4573,-0.56605 -0.94353,-0.66329 -1.04441,-0.20888 -1.27277,0.0123 -0.36787,0.35637 0.38398,0.14599 0.69815,0.38745 0.69815,0.53657 0,0.14913 0.16745,0.27114 0.3721,0.27114 0.23482,0 0.32379,-0.18477 0.24115,-0.50079 z m 34.444043,21.40287 c -0.263389,-0.29104 -0.348401,-0.52917 -0.188914,-0.52917 0.159487,0 0.368717,0.12741 0.464956,0.28313 0.09624,0.15572 0.430688,0.38629 0.743219,0.51239 0.566916,0.22874 0.566948,0.22931 0.01393,0.24605 -0.304868,0.009 -0.769805,-0.22136 -1.033194,-0.5124 z M 34.86417,255.89239 c -0.555845,-0.35153 -0.265382,-0.51686 0.611978,-0.34835 0.541602,0.10402 0.652616,0.20737 0.396875,0.36946 -0.446445,0.28296 -0.530846,0.28119 -1.008853,-0.0211 z m 1.050671,-0.80408 c 0,-0.14552 0.119062,-0.26459 0.264583,-0.26459 0.145521,0 0.264583,0.11907 0.264583,0.26459 0,0.14552 -0.119062,0.26458 -0.264583,0.26458 -0.145521,0 -0.264583,-0.11906 -0.264583,-0.26458 z m 22.704557,0.0838 c 0.190996,-0.0764 0.4192,-0.067 0.507118,0.0209 0.08792,0.0879 -0.06835,0.15045 -0.347265,0.13896 -0.308225,-0.0127 -0.370919,-0.0754 -0.159853,-0.15985 z m -23.547917,-0.26459 c 0.190996,-0.0764 0.419199,-0.067 0.507118,0.0209 0.08792,0.0879 -0.06835,0.15046 -0.347265,0.13897 -0.308225,-0.0127 -0.37092,-0.0754 -0.159853,-0.15986 z M 17.57954,239.57523 c -0.10204,-0.10204 -0.17145,-0.55264 -0.15423,-1.00133 l 0.0313,-0.8158 0.16714,0.77192 c 0.0919,0.42456 0.33403,0.82746 0.53802,0.89533 0.29091,0.0968 0.33243,-0.0689 0.19253,-0.76838 -0.17007,-0.85036 -0.15678,-0.87021 0.28609,-0.42734 0.3597,0.3597 0.39939,0.56774 0.17598,0.92249 -0.31543,0.5009 -0.94401,0.71593 -1.23683,0.42311 z m 57.333555,-0.1423 c -0.130657,-0.21141 -0.04396,-0.25301 0.273453,-0.1312 0.330874,0.12696 0.50471,0.0256 0.603429,-0.35192 0.153756,-0.58796 0.606115,-0.727 0.606115,-0.1863 0,0.78824 -1.102099,1.28572 -1.482997,0.66942 z m 0.165386,-1.41664 c 0.184076,-0.2218 0.389171,-0.34879 0.455766,-0.28219 0.183488,0.18349 -0.18932,0.68546 -0.509084,0.68546 -0.175443,0 -0.155371,-0.15182 0.05332,-0.40327 z M 17.39401,237.36122 c 0,-0.14552 0.11203,-0.26458 0.24897,-0.26458 0.13693,0 0.32255,0.11906 0.41249,0.26458 0.0899,0.14552 -0.0221,0.26459 -0.24897,0.26459 -0.22687,0 -0.41249,-0.11907 -0.41249,-0.26459 z m 59.091199,-3.32187 c -0.245722,-0.52299 -0.231645,-0.73114 0.06983,-1.03261 0.327067,-0.32707 0.321756,-0.40884 -0.03969,-0.61112 -0.379626,-0.21245 -0.379382,-0.26497 0.0027,-0.58208 0.230993,-0.19171 0.499931,-0.26861 0.59764,-0.1709 0.475289,0.47528 0.479276,2.2523 0.0061,2.72395 -0.261696,0.26086 -0.391687,0.19404 -0.636602,-0.32724 z M 15.54192,233.82021 c 0,-0.42487 0.18762,-0.67967 0.57509,-0.78099 0.68592,-0.17937 1.01241,-0.0178 1.01241,0.50116 0,0.46812 -0.43978,0.50477 -0.60633,0.0505 -0.0955,-0.26037 -0.19414,-0.26208 -0.46378,-0.008 -0.27674,0.26071 -0.21959,0.37179 0.29766,0.57854 l 0.64016,0.25588 -0.7276,0.0168 c -0.59492,0.0137 -0.72761,-0.0982 -0.72761,-0.61383 z m 58.27531,-2.59443 c -0.909051,-0.10027 -1.763557,-0.25075 -1.898903,-0.33439 -0.135345,-0.0837 -0.251527,-1.3113 -0.258183,-2.72811 -0.0067,-1.41681 -0.02936,-2.96366 -0.05046,-3.43744 -0.04726,-1.06131 0.449214,-1.72074 1.132289,-1.50394 0.27748,0.0881 0.647624,0.0441 0.822541,-0.0978 0.293195,-0.23775 0.766636,-0.19057 3.838794,0.38252 0.501821,0.0936 0.573795,0.21815 0.404785,0.70036 -0.113058,0.32257 -0.177826,1.18181 -0.143928,1.90942 0.0339,0.7276 -0.0085,2.17447 -0.09421,3.21527 l -0.155838,1.89236 -0.972038,0.092 c -0.53462,0.0506 -1.715806,0.01 -2.624857,-0.0903 z m 1.379548,-0.71883 c -0.140742,-0.13682 -0.613082,-0.28769 -1.049645,-0.33526 -0.559054,-0.0609 -0.81373,-0.24297 -0.861322,-0.61568 -0.107434,-0.84132 0.543805,-1.84859 1.217393,-1.88295 0.332885,-0.017 0.730204,-0.15582 0.88293,-0.30855 0.193857,-0.19385 -0.04302,-0.24679 -0.784659,-0.17536 -0.952689,0.0918 -1.079593,0.0336 -1.229458,-0.56351 -0.09191,-0.36621 -0.09691,-0.77942 -0.01111,-0.91825 0.0858,-0.13883 0.02991,-0.25242 -0.124197,-0.25242 -0.154109,0 -0.280198,0.2282 -0.280198,0.50712 0,0.27891 -0.112102,0.54681 -0.249115,0.59531 -0.137014,0.0485 -0.328269,0.98117 -0.425012,2.07257 l -0.175896,1.98438 1.673094,0.0707 c 1.048253,0.0443 1.577526,-0.0222 1.417199,-0.17808 z m 1.607068,-0.0425 c 0.284763,-0.46075 -0.03956,-0.55833 -0.402448,-0.12108 -0.20869,0.25146 -0.228762,0.40327 -0.05332,0.40327 0.154751,0 0.359845,-0.12698 0.455766,-0.28219 z m -0.672338,-2.09906 c 0,-0.14552 -0.26789,-0.25621 -0.595312,-0.24599 -0.568035,0.0177 -0.571065,0.029 -0.06615,0.24599 0.291042,0.12507 0.558932,0.23576 0.595312,0.24599 0.03638,0.0102 0.06615,-0.10047 0.06615,-0.24599 z m 0.709908,-0.57878 c -0.08446,-0.21106 -0.147157,-0.14837 -0.159853,0.15986 -0.01149,0.27891 0.05105,0.43518 0.138964,0.34726 0.08792,-0.0879 0.09732,-0.31612 0.02089,-0.50712 z m -0.657817,-2.21541 c 0.06049,-0.51815 0.01166,-1.00287 -0.108517,-1.07714 -0.376546,-0.23272 -2.06024,0.45444 -2.06024,0.84084 0,0.21845 0.161312,0.30615 0.396875,0.21575 0.27539,-0.10567 0.396875,0.0183 0.396875,0.40518 0,0.41145 0.165683,0.55748 0.632511,0.55748 0.527943,0 0.650694,-0.15575 0.742496,-0.94211 z m -3.647476,0.31479 c -0.07656,-0.1995 0.04624,-0.43389 0.272888,-0.52086 0.226644,-0.087 0.41208,-0.32772 0.41208,-0.535 0,-0.51711 0.586449,-0.69807 2.262295,-0.69807 1.243074,0 1.404437,0.0592 1.262336,0.46302 -0.113491,0.32252 -0.07656,0.38274 0.121696,0.19844 0.776802,-0.72211 0.450859,-0.97301 -1.397368,-1.07567 -2.290772,-0.12724 -3.248675,0.0522 -3.364553,0.63015 -0.134908,0.6729 0.08703,1.90072 0.343571,1.90072 0.124437,0 0.163612,-0.16323 0.08705,-0.36273 z m -54.969393,4.90533 c -0.24115,-0.26648 -0.36396,-0.559 -0.27291,-0.65005 0.0911,-0.091 0.0836,-0.37905 -0.0165,-0.63999 -0.10013,-0.26094 -0.19498,-0.53396 -0.21078,-0.60672 -0.25479,-1.17355 -0.88672,-2.71 -1.44729,-3.5189 -0.58723,-0.84737 -0.64195,-1.05911 -0.32547,-1.25936 1.08836,-0.68866 2.03152,0.0818 2.774,2.26619 0.49651,1.4607 0.9014,1.50773 0.90968,0.10568 0.002,-0.37763 0.2251,-0.88665 0.49528,-1.13116 0.43946,-0.3977 0.52667,-0.40185 0.8275,-0.0394 0.18495,0.22285 0.41038,0.76754 0.50095,1.21042 0.22505,1.10033 0.56718,1.03112 1.20939,-0.24465 0.61673,-1.22514 0.92604,-1.40556 0.73985,-0.43155 -0.0695,0.3638 -0.21615,0.66145 -0.3258,0.66145 -0.10964,0 -0.34385,0.56555 -0.52045,1.25678 -0.17661,0.69122 -0.42765,1.52466 -0.55788,1.85208 -0.1775,0.44627 -0.14424,0.59531 0.13285,0.59531 0.21964,0 0.60063,-0.69415 0.93889,-1.71062 0.31309,-0.94085 0.78952,-2.16124 1.05873,-2.71198 0.48807,-0.99851 0.48783,-1.00177 -0.0847,-1.14583 -0.50582,-0.12728 -0.51904,-0.16565 -0.11111,-0.32243 0.89669,-0.34462 1.75967,0.52173 0.99218,0.99607 -0.14552,0.0899 -0.26458,0.44712 -0.26458,0.79375 0,0.34662 -0.12718,0.70883 -0.28262,0.8049 -0.15544,0.0961 -0.21634,0.3474 -0.13532,0.55852 0.081,0.21112 0.0392,0.31704 -0.0929,0.23538 -0.23297,-0.14398 -0.97908,1.6289 -0.86271,2.04994 0.0318,0.11503 -0.0619,0.43285 -0.20823,0.70626 -0.19117,0.3572 -0.17356,0.53446 0.0626,0.62985 0.18074,0.073 0.008,0.14215 -0.38337,0.15364 -0.3916,0.0115 -0.78558,-0.0982 -0.87551,-0.2437 -0.0899,-0.14552 -0.51369,-0.26458 -0.94166,-0.26458 -0.42798,0 -0.77814,0.11906 -0.77814,0.26458 0,0.45601 -1.48419,0.28811 -1.94394,-0.21991 z m 1.07148,-1.56603 c -0.0772,-0.25467 -0.56323,-1.41552 -1.07998,-2.57969 -0.70676,-1.59223 -1.08144,-2.13873 -1.51225,-2.20571 l -0.5727,-0.089 0.5165,0.7505 c 0.68976,1.00224 1.40423,2.58237 1.40423,3.1056 0,0.23266 0.11906,0.42303 0.26458,0.42303 0.14552,0 0.26458,0.23812 0.26458,0.52917 0,0.31095 0.17639,0.52916 0.42774,0.52916 0.28447,0 0.3807,-0.15507 0.2873,-0.46302 z m 0.93722,-1.52136 c -0.1472,-0.77002 0.1288,-0.85973 0.612,-0.19892 0.27768,0.37975 0.28529,0.23126 0.0425,-0.82953 l -0.29567,-1.29207 -0.32398,0.89568 c -0.38656,1.06868 -0.45307,2.0863 -0.13635,2.0863 0.12534,0 0.171,-0.29766 0.10145,-0.66146 z m 4.10243,2.89006 c -0.48865,-0.49281 0.0329,-1.91474 0.57858,-1.57748 0.19702,0.12176 0.21782,0.29979 0.0581,0.49691 -0.13693,0.16895 -0.29153,0.52622 -0.34357,0.79394 -0.052,0.26771 -0.18392,0.3967 -0.29306,0.28663 z m 37.758255,-1.18809 c -0.08388,-0.13572 -0.07126,-0.37822 0.02805,-0.53889 0.240606,-0.38931 2.284373,-1.29419 2.550951,-1.12943 0.115581,0.0714 0.210147,-0.0465 0.210147,-0.2621 0,-0.21558 -0.407195,-0.52635 -0.904877,-0.6906 -0.827076,-0.27296 -1.820659,-1.06532 -1.335863,-1.06532 0.112918,0 0.812106,0.28231 1.553752,0.62737 0.741645,0.34505 2.00329,0.70183 2.803655,0.79284 l 1.455208,0.16548 -2.248958,-0.76396 c -2.534856,-0.86108 -3.699068,-1.38991 -3.702103,-1.68163 -0.003,-0.28987 0.137462,-0.25215 1.107291,0.29732 0.481261,0.27267 1.767989,0.71284 2.859395,0.97816 1.091406,0.26532 1.99935,0.48871 2.017652,0.49643 0.0183,0.008 0.111697,0.26955 0.207543,0.58185 0.155004,0.50506 0.0051,0.61956 -1.356194,1.03587 -0.841753,0.25742 -1.947178,0.67029 -2.456501,0.91748 -1.019153,0.49463 -2.55011,0.62589 -2.789143,0.23913 z m 1.466226,-0.5422 c 0,-0.12855 0.178594,-0.23373 0.396875,-0.23373 0.218281,0 0.396875,0.13364 0.396875,0.29698 0,0.21725 0.09763,0.21596 0.363642,-0.005 0.200004,-0.16598 1.003675,-0.52905 1.785938,-0.80681 l 1.422295,-0.50502 -1.079533,-0.0193 c -1.122643,-0.0201 -4.125942,1.04501 -4.284049,1.51933 -0.05178,0.15535 0.142578,0.21081 0.453682,0.12945 0.299351,-0.0783 0.544275,-0.2475 0.544275,-0.37605 z m -33.998959,0.11025 c -0.873125,-0.2079 -1.825622,-0.42882 -2.116662,-0.49094 -1.63016,-0.34793 -1.49466,-1.26878 0.27998,-1.90291 1.535553,-0.5487 3.781421,-1.12766 4.296987,-1.10771 0.247561,0.01 -0.200816,0.19234 -0.996395,0.40615 -0.795579,0.21381 -1.796137,0.56316 -2.223463,0.77634 -0.427325,0.21318 -1.003819,0.38759 -1.281089,0.38759 -0.31369,0 -0.43281,0.1154 -0.31534,0.30547 0.11696,0.18925 0.0726,0.23364 -0.11668,0.11667 -0.168,-0.10383 -0.30546,-0.0818 -0.30546,0.0491 0,0.24716 1.04515,0.59788 3.307289,1.10981 0.727604,0.16466 1.620573,0.36746 1.984375,0.45068 1.034623,0.23665 0.309788,-0.29141 -1.124479,-0.81921 -1.262147,-0.46447 -1.657354,-0.94061 -0.79375,-0.95631 0.418956,-0.008 0.414143,-0.0454 -0.05057,-0.39687 -0.497648,-0.37641 -0.493541,-0.38972 0.132291,-0.42876 1.006374,-0.0628 1.148113,-0.0915 1.571924,-0.31877 0.218282,-0.11704 0.06945,0.0888 -0.330729,0.45732 -0.400182,0.36856 -0.727604,0.78177 -0.727604,0.91825 0,0.13647 0.556119,0.50954 1.235819,0.82904 0.933618,0.43885 1.143893,0.63909 0.859896,0.81884 -0.491938,0.31136 -1.345253,0.25846 -3.28634,-0.20374 z M 12.89609,228.69882 c -2.41306,-0.089 -3.96875,-0.32491 -3.96875,-0.60179 0,-0.73556 5.73909,-1.1292 6.31667,-0.43326 0.55103,0.66395 -0.44963,1.10508 -2.34792,1.03505 z m 1.67341,-0.75576 c -0.11922,-0.31069 -0.37058,-0.38063 -0.95081,-0.26459 -0.43381,0.0868 -1.57754,0.15958 -2.54161,0.1618 -1.22939,0.003 -1.63434,0.0806 -1.35599,0.26054 0.21828,0.14106 1.43493,0.2583 2.70368,0.26053 2.00455,0.003 2.28556,-0.0513 2.14473,-0.41828 z m 63.800087,-0.38903 c -0.09592,-0.1552 0.04588,-0.4585 0.315114,-0.67399 0.393006,-0.31456 1.035245,-0.36089 3.257567,-0.235 1.522429,0.0862 2.81706,0.20581 2.876958,0.2657 0.0599,0.0599 0.0384,0.29264 -0.04777,0.5172 -0.128614,0.33516 -0.700312,0.40828 -3.192071,0.40828 -1.864436,0 -3.102677,-0.10886 -3.209798,-0.28219 z m 5.831713,-0.24697 c 0.104631,-0.1693 -0.7417,-0.26459 -2.35002,-0.26459 -1.390291,0 -2.586616,0.11824 -2.677063,0.26459 -0.104632,0.16929 0.7417,0.26458 2.35002,0.26458 1.390291,0 2.586616,-0.11824 2.677063,-0.26458 z m -16.645294,-3.42145 c -0.878354,-0.49268 -0.902478,-0.53259 -1.890566,-3.12699 -0.40181,-1.05503 -0.808645,-1.91823 -0.904077,-1.91823 -0.09543,0 -0.361765,-0.38695 -0.59185,-0.8599 -0.230085,-0.47294 -0.85482,-1.36368 -1.388299,-1.97942 l -0.969963,-1.11953 -0.562679,0.52422 c -0.755619,0.70396 -1.121191,0.66573 -0.610192,-0.0638 0.710776,-1.01478 0.42701,-1.17462 -0.38953,-0.21942 -0.57077,0.6677 -0.692046,0.96814 -0.452268,1.12043 0.23371,0.14843 0.199375,0.20925 -0.119772,0.21214 -0.797623,0.007 -0.796987,-0.51337 0.0019,-1.522 0.43016,-0.54312 0.807294,-1.08791 0.838076,-1.21066 0.08136,-0.32443 -1.225761,-1.64208 -2.967033,-2.99093 -1.324986,-1.02638 -2.923254,-1.8766 -5.561435,-2.95847 -0.400182,-0.16411 -0.727604,-0.41999 -0.727604,-0.56863 0,-0.34761 0.661099,-0.34087 1.960834,0.02 0.779935,0.21654 0.942844,0.34849 0.661458,0.53573 -0.263574,0.17538 -0.178866,0.20549 0.288125,0.10239 0.44876,-0.0991 1.252137,0.15359 2.498372,0.78572 1.010303,0.51245 1.940724,0.93173 2.067602,0.93173 0.126879,0 0.531243,0.35719 0.898586,0.79375 0.648062,0.77018 1.68216,1.15889 1.231784,0.46302 -0.117729,-0.1819 -0.214052,-0.5629 -0.214052,-0.84667 0,-0.33197 -0.235866,-0.57209 -0.661459,-0.67339 -0.363802,-0.0866 -0.661458,-0.29098 -0.661458,-0.45419 0,-0.16322 -0.0893,-0.38605 -0.198437,-0.49519 -0.109141,-0.10914 -0.198438,-0.37177 -0.198438,-0.58361 0,-0.3151 0.07337,-0.32428 0.403269,-0.0505 0.221798,0.18407 0.48624,0.25171 0.58765,0.1503 0.10141,-0.10141 0.0092,-0.29515 -0.204831,-0.43053 -0.338832,-0.21428 -0.336898,-0.24667 0.01494,-0.2502 0.581761,-0.006 1.580225,0.75339 1.580225,1.20158 0,0.21003 0.127567,0.38187 0.283482,0.38187 0.391615,0 1.051203,0.69379 0.850447,0.89455 -0.09009,0.0901 -0.0487,0.16379 0.09197,0.16379 0.467288,0 0.890764,-0.6261 0.890764,-1.31697 0,-0.37508 0.170456,-0.92532 0.37879,-1.22276 0.390645,-0.55772 4.303665,-2.6556 4.530397,-2.42887 0.07001,0.07 -0.110326,0.65105 -0.400758,1.29118 -0.825014,1.81839 -0.710831,2.56481 0.626143,4.09317 1.315162,1.50343 2.884209,4.25512 4.399377,7.71532 0.661723,1.51119 0.844519,3.52238 0.336242,3.69945 -0.29823,0.1039 -1.100149,-1.37304 -1.539129,-2.83469 -0.524477,-1.74633 -3.582444,-7.14107 -4.050328,-7.14542 -0.09883,-9.2e-4 -0.382514,-0.35811 -0.630407,-0.79375 -0.576227,-1.01265 -0.975353,-1.01195 -0.946533,0.002 0.01241,0.43656 0.12452,0.79375 0.249129,0.79375 0.124609,0 0.081,0.23308 -0.09691,0.51796 -0.270673,0.43341 -0.234866,0.61696 0.219361,1.12448 0.626582,0.70009 1.706046,2.74836 1.537333,2.91707 -0.0627,0.0627 0.173456,0.26783 0.524782,0.45586 0.675085,0.36129 0.934575,0.88362 1.188817,2.39296 0.134515,0.79857 0.247038,0.91555 0.817445,0.84986 0.557537,-0.0642 0.668181,0.0397 0.704244,0.66146 0.02353,0.4057 -0.09006,0.89817 -0.25242,1.09438 -0.235068,0.28406 -0.162936,0.34547 0.354089,0.30144 1.022208,-0.087 1.07973,-0.0303 0.528162,0.52129 -0.359266,0.35926 -0.773384,0.48568 -1.351345,0.41254 -1.053124,-0.13328 -1.098533,-0.18488 -1.167879,-1.32708 -0.03445,-0.5675 -0.283454,-1.15508 -0.623893,-1.47224 -0.805115,-0.75008 -1.340748,-1.88947 -1.429021,-3.03978 -0.04752,-0.6192 -0.258239,-1.10053 -0.561452,-1.28248 -0.266963,-0.1602 -0.9798,-0.78027 -1.584082,-1.37795 -0.970593,-0.95998 -2.553903,-1.74157 -2.553903,-1.26071 0,0.0969 0.446484,0.7211 0.992187,1.38706 0.545704,0.66596 0.992618,1.27354 0.993144,1.35017 5.26e-4,0.0766 0.327948,0.69631 0.727604,1.37707 0.399657,0.68076 0.726648,1.31722 0.726648,1.41437 0,0.0971 0.23398,0.50521 0.519955,0.90683 0.285976,0.40161 0.672929,1.31296 0.859896,2.02522 0.186968,0.71225 0.547615,1.4736 0.801439,1.69188 0.741371,0.63756 0.20422,1.05597 -0.702625,0.54731 z m -1.187883,-3.61703 c -0.44773,-0.95677 -1.172568,-2.27081 -1.610751,-2.92007 -0.438184,-0.64927 -0.796697,-1.27818 -0.796697,-1.39758 0,-0.49806 -4.549101,-4.99933 -5.857164,-5.79558 l -1.418878,-0.86371 1.058333,0.93951 c 0.582083,0.51673 1.37376,1.13597 1.759282,1.37609 0.385521,0.24012 1.01836,0.93874 1.406309,1.55249 0.387948,0.61375 1.086787,1.45837 1.552976,1.87693 1.093919,0.98216 2.350458,2.89269 3.569806,5.42779 0.534624,1.11152 1.012273,1.91356 1.061441,1.78233 0.04917,-0.13123 -0.276928,-1.02142 -0.724657,-1.9782 z m 4.471718,0.86185 c 0,-0.17851 -0.238125,-0.32457 -0.529166,-0.32457 -0.602097,0 -0.664866,0.17425 -0.222229,0.61688 0.348636,0.34864 0.751395,0.19195 0.751395,-0.29231 z m 1.876303,-2.31762 c -0.283804,-0.63968 -0.524417,-1.01826 -0.534696,-0.84129 -0.02185,0.37617 0.827075,2.22796 0.960302,2.09474 0.04972,-0.0497 -0.141802,-0.61377 -0.425606,-1.25345 z m -3.463803,-0.10471 c 0,-0.21828 -0.174857,-0.39688 -0.388571,-0.39688 -0.236694,0 -0.329045,0.15512 -0.236276,0.39688 0.08376,0.21828 0.25862,0.39687 0.388571,0.39687 0.129952,0 0.236276,-0.17859 0.236276,-0.39687 z m 1.357961,-4.30328 c -0.88833,-1.58047 -1.914467,-3.15477 -2.280303,-3.49846 -0.952855,-0.89516 -0.821169,-0.45892 0.341805,1.1323 0.55383,0.75778 1.536096,2.28727 2.182813,3.39889 0.646717,1.11161 1.21972,1.98055 1.27334,1.93098 0.05362,-0.0496 -0.629325,-1.38324 -1.517655,-2.96371 z m -4.013309,0.26838 c -0.0052,-0.10914 -0.306764,-0.55562 -0.670069,-0.99219 -0.410371,-0.49312 -0.58979,-0.60098 -0.473717,-0.28479 0.102759,0.27992 0.374525,0.71649 0.603922,0.97014 0.485838,0.5372 0.552733,0.57522 0.539864,0.30684 z m 0.114126,-5.68854 c 0.294186,-1.1056 0.641579,-2.71544 0.595841,-2.76118 -0.241237,-0.24124 -2.233937,0.54628 -2.726541,1.07753 -0.737698,0.79557 -0.788907,1.36039 -0.156724,1.7286 0.653262,0.38049 2.182214,0.35044 2.287424,-0.045 z M 52.715883,207.4633 c -0.727363,-0.31255 -1.145108,-0.31255 -0.661459,0 0.218282,0.14107 0.575469,0.24994 0.79375,0.24194 0.261688,-0.01 0.216625,-0.092 -0.132291,-0.24194 z M 26.26366,222.90975 c -0.25233,-0.25234 -0.3594,-0.61263 -0.25627,-0.86233 0.0974,-0.2359 0.22143,-0.95417 0.27554,-1.59616 0.12776,-1.51552 0.29106,-1.99801 1.059441,-3.13029 0.917912,-1.35261 0.829132,-2.05222 -0.357221,-2.81493 -0.5457,-0.35083 -1.09658,-0.53988 -1.22417,-0.4201 -0.29726,0.27908 0.0363,1.64985 0.35375,1.45366 0.1312,-0.0811 0.31405,-0.0252 0.40634,0.12408 0.18681,0.30226 -1.40746,2.91212 -1.7789,2.91212 -0.12961,0 -0.16358,0.11661 -0.0755,0.25912 0.0881,0.14251 0.0314,0.4997 -0.12599,0.79375 -0.24752,0.46249 -0.20454,0.53745 0.3185,0.55552 0.55777,0.0193 0.54824,0.0415 -0.12299,0.28664 -0.56669,0.20697 -0.7276,0.4364 -0.7276,1.03744 0,0.67616 -0.0955,0.7717 -0.7717,0.7717 -0.42444,0 -0.82486,0.14883 -0.88982,0.33073 -0.065,0.1819 -0.20923,0.24599 -0.32059,0.14243 -0.31976,-0.29737 0.38156,-2.67062 0.94404,-3.19466 0.54022,-0.50329 0.66966,-0.98267 0.26534,-0.98267 -0.40889,0 -0.60591,-1.51816 -0.27682,-2.13307 0.21608,-0.40375 0.22023,-0.522 0.0138,-0.39444 -0.44869,0.2773 -1.17905,1.9071 -1.86838,4.1693 -0.56843,1.86545 -1.04675,2.53278 -1.57945,2.20355 -1.0344,-0.63929 3.09694,-9.85997 5.13665,-11.4644 0.3684,-0.28979 0.66982,-0.67842 0.66982,-0.86363 0,-0.18521 0.0786,-0.25813 0.1747,-0.16204 0.0961,0.0961 0.34142,-0.0633 0.54517,-0.3542 0.4341,-0.61977 0.23447,-2.6926 -0.34874,-3.62112 -0.55686,-0.88657 -0.0123,-0.99487 1.6138,-0.32091 l 1.437011,0.59561 1.397882,-0.88925 c 3.410864,-2.16981 7.749032,-4.04674 9.885177,-4.27689 0.613588,-0.0661 0.789288,0.0298 0.851463,0.46465 0.06396,0.44737 -0.130283,0.60007 -1.058333,0.83196 -2.40036,0.59976 -5.795761,2.10197 -6.898047,3.05186 -0.295517,0.25467 -0.793986,0.46302 -1.107708,0.46302 -0.313723,0 -0.768887,0.14883 -1.011477,0.33073 -0.391108,0.29327 -0.402885,0.47857 -0.103966,1.63585 0.396158,1.53375 0.735889,1.7421 1.339207,0.82132 0.241894,-0.36918 0.579937,-0.67123 0.751208,-0.67123 0.235423,0 0.233935,0.0775 -0.0061,0.3175 -0.412382,0.41238 -0.40151,0.65198 0.03722,0.82034 0.670285,0.25721 1.056771,-0.21337 0.708973,-0.86324 -0.274301,-0.51253 -0.252736,-0.57478 0.17112,-0.49396 0.267534,0.051 0.523834,0.36543 0.571644,0.70126 0.12573,0.88318 0.636329,0.95761 2.076865,0.30275 0.701828,-0.31905 1.96066,-0.79379 2.797404,-1.05499 2.304268,-0.71929 1.979903,0.0131 -0.529166,1.19477 -1.127787,0.53115 -2.490024,1.31435 -3.027194,1.74044 -0.53717,0.42609 -1.090383,0.77471 -1.229362,0.77471 -0.138979,0 -0.62172,0.42031 -1.072757,0.93401 l -0.820068,0.93401 0.924951,1.34464 c 1.053004,1.5308 1.076057,1.62423 0.515552,2.08941 -0.326998,0.27138 -0.340311,0.38359 -0.06615,0.55751 0.257447,0.16331 0.230685,0.21875 -0.107057,0.22179 -0.247671,0.002 -0.809081,-0.5174 -1.247579,-1.15474 -1.083751,-1.57518 -1.450713,-1.65979 -2.310377,-0.53271 -1.282247,1.68111 -3.049403,5.62151 -3.040413,6.77952 0.005,0.6668 -0.38551,0.80146 -0.88271,0.30426 z m 1.04264,-2.35598 c 0.255766,-0.81313 0.392317,-1.55113 0.30345,-1.64 -0.260705,-0.26071 -0.36476,-0.0287 -0.76579,1.70715 -0.46304,2.00429 -0.17609,1.96261 0.46234,-0.0672 z m -6.87085,0.33714 c 0.0952,-0.47294 0.23646,-1.08317 0.31395,-1.35605 0.091,-0.32036 0.0371,-0.43201 -0.15205,-0.31512 -0.16111,0.0996 -0.29293,0.4795 -0.29293,0.84428 0,0.36478 -0.12325,0.89354 -0.27389,1.17501 -0.16629,0.31072 -0.17455,0.51178 -0.021,0.51178 0.13908,0 0.33075,-0.38696 0.42594,-0.8599 z m 3.11956,0.0703 c 0.0767,-0.29331 0.0315,-0.53329 -0.10036,-0.53329 -0.13189,0 -0.23981,0.17859 -0.23981,0.39687 0,0.21829 -0.12609,0.39688 -0.2802,0.39688 -0.15411,0 -0.20541,0.121 -0.11401,0.2689 0.22505,0.36414 0.56476,0.11927 0.73438,-0.52936 z m 5.01805,-3.77444 c 0.744378,-1.17239 1.761596,-2.4313 3.434185,-4.25016 0.542958,-0.59045 0.928049,-1.13268 0.855757,-1.20497 -0.131622,-0.13163 -1.535777,1.27275 -3.326479,3.32699 -0.948176,1.08772 -2.179306,3.25262 -1.84969,3.25262 0.09475,0 0.493551,-0.50601 0.886227,-1.12448 z m -6.26744,-1.72501 c -0.13941,-0.13941 -1.2126,2.05116 -1.19351,2.43617 0.008,0.15457 0.30455,-0.30513 0.65975,-1.02154 0.35521,-0.71641 0.5954,-1.353 0.53376,-1.41463 z m 2.49672,1.93907 c 0,-0.0642 -0.11906,-0.19027 -0.26458,-0.2802 -0.14552,-0.0899 -0.26459,-0.0374 -0.26459,0.11667 0,0.15411 0.11907,0.2802 0.26459,0.2802 0.14552,0 0.26458,-0.0525 0.26458,-0.11667 z m 8.73125,-1.41378 c 0,-0.53258 -0.212913,-0.86248 -0.768427,-1.19063 -0.946954,-0.55938 -1.253703,-0.58074 -0.819073,-0.0571 0.181158,0.21828 0.500419,0.39688 0.70947,0.39688 0.209052,0 0.309502,0.11422 0.223224,0.25382 -0.130332,0.21088 0.363145,1.33368 0.586159,1.33368 0.03776,0 0.06865,-0.33152 0.06865,-0.73671 z m -8.74028,-0.23796 0.55855,-0.71008 -0.5364,-0.5364 c -0.41902,-0.41902 -0.60631,-0.4665 -0.85586,-0.21696 -0.24954,0.24955 -0.216,0.39509 0.15325,0.66509 0.42973,0.31423 0.43445,0.37739 0.0519,0.69485 -0.23142,0.19206 -0.42076,0.45369 -0.42076,0.58139 0,0.45038 0.49727,0.22391 1.0493,-0.47789 z m -1.84305,-0.89013 c 0,-0.15251 0.42839,-0.95618 0.95197,-1.78594 0.52359,-0.82975 0.7121,-1.27052 0.41892,-0.97948 -0.72833,0.72303 -1.98166,3.04271 -1.64398,3.04271 0.1502,0 0.27309,-0.12478 0.27309,-0.27729 z m 7.098166,-1.44812 0.303941,-0.66708 -0.790638,0.58455 c -0.92553,0.68427 -0.952023,0.74961 -0.303942,0.74961 0.267684,0 0.623471,-0.30019 0.790639,-0.66708 z m -2.162387,-0.27037 c 0.08617,-0.22456 0.09263,-0.47233 0.01436,-0.55061 -0.232654,-0.23265 -1.274455,0.43417 -1.105475,0.70758 0.24245,0.3923 0.917618,0.29516 1.091119,-0.15697 z m -0.754709,-1.61419 c 0.431678,-0.11563 0.585872,-0.3258 0.529164,-0.72129 -0.108578,-0.75723 -0.854804,-0.84709 -1.518974,-0.18292 -0.95472,0.95473 -0.55662,1.3184 0.98981,0.90421 z m 6.330063,-1.15253 c 0.375584,-0.29543 0.510883,-0.52545 0.306316,-0.52075 -0.404797,0.009 -1.292452,0.61413 -1.292452,0.88065 0,0.29297 0.291298,0.18666 0.986136,-0.3599 z m 1.428863,0.089 c 0.32927,-0.39915 0.307622,-0.41062 -0.232186,-0.12298 -0.615675,0.32806 -0.767273,0.56318 -0.363126,0.56318 0.127702,0 0.395593,-0.19809 0.595312,-0.4402 z m -5.912175,-1.47803 c 0.149482,-0.18191 0.344214,-0.79111 0.432739,-1.3538 0.08852,-0.56268 0.233293,-1.1401 0.321708,-1.28316 0.08841,-0.14306 -0.09631,-0.12253 -0.4105,0.0456 -0.469046,0.25102 -0.821891,0.19098 -1.972112,-0.33561 l -1.400856,-0.64133 0.5452,1.67136 c 0.63268,1.93951 1.748518,2.79169 2.483821,1.89692 z m 10.569268,-0.88746 c -0.08792,-0.0879 -0.316122,-0.0973 -0.507118,-0.0209 -0.211067,0.0845 -0.148372,0.14716 0.159853,0.15985 0.278915,0.0115 0.435184,-0.0511 0.347265,-0.13896 z m -7.045353,-3.11682 c 0.640137,-0.34696 1.699667,-0.93219 2.354511,-1.3005 0.654844,-0.36831 2.262188,-1.00559 3.571875,-1.41617 1.608031,-0.50412 2.175793,-0.77671 1.748511,-0.83948 -0.348006,-0.0511 -1.062381,0.0924 -1.5875,0.319 -0.525118,0.22658 -1.636863,0.64389 -2.470544,0.92736 -0.833681,0.28348 -1.864092,0.76343 -2.289803,1.06656 -0.42571,0.30313 -0.851252,0.55115 -0.945649,0.55115 -0.0944,0 -0.609671,0.29766 -1.145054,0.66146 -1.23567,0.83966 -0.763906,0.85857 0.763653,0.0306 z M 24.27317,222.6769 c 0,-0.21828 0.17157,-0.39687 0.38126,-0.39687 0.55976,0 0.74141,0.44786 0.25704,0.63373 -0.5897,0.22629 -0.6383,0.20826 -0.6383,-0.23686 z m 21.960421,-14.94896 c 0,-0.14552 0.119062,-0.26458 0.264583,-0.26458 0.145521,0 0.264583,0.11906 0.264583,0.26458 0,0.14553 -0.119062,0.26459 -0.264583,0.26459 -0.145521,0 -0.264583,-0.11906 -0.264583,-0.26459 z m -9.999679,-0.86804 c -0.747682,-0.79587 -0.743247,-1.40872 0.01166,-1.61103 1.282214,-0.34362 1.447909,-0.23214 1.417652,0.95375 -0.03421,1.3407 -0.560088,1.58253 -1.42931,0.65728 z m 0.739262,-0.98628 c 0,-0.46518 -0.06595,-0.49022 -0.529167,-0.20094 -0.291041,0.18176 -0.529166,0.42089 -0.529166,0.53141 0,0.11052 0.238125,0.20094 0.529166,0.20094 0.353522,0 0.529167,-0.17639 0.529167,-0.53141 z m 19.323893,0.5488 c -0.416989,-0.77915 -0.3347,-1.05038 0.372528,-1.22788 0.959852,-0.24091 1.205793,0.03 0.859658,0.94705 -0.343356,0.90965 -0.835608,1.02185 -1.232186,0.28083 z m 0.784441,-0.26636 c 0,-0.31217 -0.516032,-0.64611 -0.705556,-0.45659 -0.189524,0.18953 0.144416,0.70556 0.456587,0.70556 0.136933,0 0.248969,-0.11204 0.248969,-0.24897 z m -10.318751,-0.0156 c 0,-0.14552 0.119063,-0.26458 0.264584,-0.26458 0.145521,0 0.264583,0.11906 0.264583,0.26458 0,0.14552 -0.119062,0.26458 -0.264583,0.26458 -0.145521,0 -0.264584,-0.11906 -0.264584,-0.26458 z m 12.964584,-1.14302 c -1.091406,-0.61009 -2.996406,-1.44473 -4.233333,-1.85475 -2.517232,-0.83441 -3.53793,-1.39155 -3.28857,-1.79502 0.29708,-0.48069 4.104185,0.36067 6.10563,1.34932 1.799292,0.88879 3.610909,2.23561 3.831079,2.84816 0.302246,0.84089 -0.08977,0.75198 -2.414806,-0.54771 z m -0.07213,-0.99334 c -0.985559,-0.59132 -1.986109,-1.03716 -2.223446,-0.99074 -0.249191,0.0487 0.340255,0.49186 1.395051,1.04875 2.481038,1.30989 3.042717,1.27056 0.828395,-0.058 z m -2.902767,-1.36937 c -0.108369,-0.33008 -3.12006,-1.07084 -3.36359,-0.82731 -0.219459,0.21946 0.616551,0.62036 1.311408,0.62887 0.363802,0.005 0.840052,0.12352 1.058333,0.26459 0.561378,0.36279 1.122414,0.32545 0.993849,-0.0661 z m -13.629314,2.91042 c -0.145664,-0.1819 -0.33035,-1.85577 -0.410414,-3.71971 -0.162284,-3.77807 -0.03042,-4.08411 1.3731,-3.18689 1.074166,0.68668 2.890849,2.18774 3.850826,3.18181 l 0.810495,0.83928 -0.01004,-1.50073 c -0.0055,-0.82541 0.08796,-1.7091 0.207746,-1.96376 0.234523,-0.4986 0.865051,-0.61939 1.115753,-0.21375 0.273272,0.44217 0.34492,2.40329 0.09348,2.55868 -0.138572,0.0856 -0.167047,0.92761 -0.06604,1.95268 0.30089,3.05356 0.02748,3.01947 -3.490485,-0.43516 -1.291582,-1.26833 -2.434072,-2.28536 -2.538868,-2.26006 -0.104796,0.0253 -0.313477,-0.18373 -0.463736,-0.46449 -0.446568,-0.83442 0.150645,-0.87814 0.837934,-0.0613 0.345823,0.41099 0.776371,0.71789 0.956773,0.68201 0.180402,-0.0359 0.205243,-0.005 0.0552,0.0698 -0.150041,0.0743 0.709943,1.0664 1.911075,2.20473 1.373754,1.30192 2.252508,1.95864 2.368888,1.77033 0.101756,-0.16464 0.05516,-0.3796 -0.103547,-0.47769 -0.158707,-0.0981 -0.226546,-0.41547 -0.150755,-0.7053 0.07579,-0.28983 0.03516,-0.68897 -0.0903,-0.88698 -0.167345,-0.26412 -0.229182,-0.27192 -0.232154,-0.0293 -0.0073,0.59584 -0.416249,0.3523 -2.007172,-1.19532 -2.246103,-2.18496 -3.621546,-3.2769 -3.83277,-3.04275 -0.100806,0.11175 -0.09799,1.69146 0.0063,3.51047 0.170653,2.9777 0.19372,3.08976 0.231462,1.12448 0.02306,-1.20055 0.151576,-2.18281 0.285601,-2.18281 0.362478,0 0.472997,3.88742 0.124026,4.36255 -0.356967,0.48602 -0.489732,0.49706 -0.832338,0.0692 z m 6.531452,-4.89479 c -0.01338,-1.09458 -0.08239,-1.37291 -0.245987,-0.99219 -0.318776,0.74183 -0.318776,2.51354 0,2.51354 0.147869,0 0.25638,-0.67111 0.245987,-1.52135 z m -10.829321,3.88698 c 0,-0.1541 0.119063,-0.20661 0.264584,-0.11667 0.14552,0.0899 0.264583,0.21602 0.264583,0.2802 0,0.0642 -0.119063,0.11667 -0.264583,0.11667 -0.145521,0 -0.264584,-0.12609 -0.264584,-0.2802 z m 7.077605,-7.04317 c -0.500995,-0.13391 -0.60922,-0.49254 -0.221036,-0.73245 0.133092,-0.0823 0.296803,1e-5 0.363802,0.18282 0.09747,0.26594 0.191893,0.26627 0.47239,0.002 0.289347,-0.27297 0.277677,-0.33073 -0.06682,-0.33073 -0.85909,0 -1.030541,-0.62147 -0.6644,-2.4083 0.315158,-1.53803 0.37577,-1.63962 0.66317,-1.11153 0.285123,0.5239 0.732898,3.0529 0.716259,4.04537 -0.007,0.41797 -0.502619,0.55651 -1.263363,0.35317 z m 0.587266,-2.26777 c -0.0068,-0.73071 -0.04991,-0.78792 -0.286724,-0.38081 -0.153273,0.2635 -0.21292,0.65046 -0.132549,0.8599 0.244562,0.63732 0.427761,0.42798 0.419273,-0.47909 z"
       id="path8" /></g></svg>
