<svg width="393" height="101" viewBox="0 0 393 101" fill="none" xmlns="http://www.w3.org/2000/svg">
<g clip-path="url(#clip0_50_217)">
<g clip-path="url(#clip1_50_217)">
<path d="M34.4682 75.4661C34.464 74.6049 33.836 73.1191 33.0737 72.1641C32.3114 71.2092 31.6877 69.9688 31.6877 69.4076C31.6877 68.8464 31.2136 67.9113 30.6341 67.3295C29.7642 66.4562 29.651 65.8546 29.9848 63.8802C30.3545 61.6943 30.2781 61.4419 29.0969 60.9444C25.7763 59.5461 24.3914 53.2346 26.6531 49.8067C27.87 47.9622 30.8942 45.7107 32.5193 45.4394C33.4387 45.286 33.6571 44.7844 33.7981 42.5032C33.9515 40.0212 33.8702 39.7892 32.9665 40.1323C30.8116 40.9504 30.1647 40.9606 29.8412 40.1814C29.359 39.0201 29.8831 38.0775 31.4391 37.3079C33.0303 36.5208 33.8114 36.9604 32.8076 38.0782C32.2283 38.7233 32.2628 38.8591 33.0058 38.8591C33.7252 38.8591 33.9053 38.3016 33.9053 36.0756C33.9053 33.7542 33.7236 33.2387 32.811 32.971C31.1245 32.4763 29.4702 30.1906 29.4702 28.3553C29.4702 26.5596 31.2858 24 32.5596 24C33.6187 24 33.5583 24.3632 32.2421 25.9097C30.9086 27.4766 30.8466 28.5174 31.9964 30.0346C33.7511 32.35 38.3404 30.7909 38.3404 27.8795C38.3404 27.1951 37.9662 26.2893 37.5088 25.8665C36.5587 24.9884 36.4119 24 37.2316 24C37.5366 24 38.285 24.4611 38.8948 25.0248C40.5623 26.5659 40.4261 30.3171 38.6428 31.9652C37.8944 32.657 36.8965 33.2229 36.4252 33.2229C35.1269 33.2229 35.3221 35.9085 36.6773 36.6907C38.086 37.5038 38.1167 38.8591 36.7265 38.8591C35.8219 38.8591 35.6395 39.3089 35.4791 41.9344C35.2968 44.9171 35.3331 45.0099 36.6773 45.02C38.4179 45.0329 42.2525 46.6203 43.2592 47.7447C43.7288 48.2691 44.8431 48.5944 46.1698 48.5944C47.3521 48.5944 48.3195 48.825 48.3195 49.1068C48.3195 49.3887 47.8383 49.6192 47.2503 49.6192C46.6622 49.6192 45.773 49.9964 45.2743 50.4573C44.5975 51.0829 44.2077 51.1478 43.7378 50.7135C42.8096 49.8557 40.558 49.9878 40.558 50.9002C40.558 51.9061 40.0123 51.8757 39.1797 50.8232C38.535 50.0084 37.2166 49.9319 29.7474 50.2758C26.3417 50.4326 25.645 55.9542 28.6634 58.8661C29.7827 59.9459 30.7581 60.3793 32.0687 60.3793C33.8928 60.3793 33.9053 60.3626 33.9053 57.9198C33.9053 56.5671 33.6326 55.2084 33.2993 54.9003C32.8609 54.4951 32.9552 53.9708 33.6403 53.0045C34.7411 51.4517 35.5685 51.2743 35.5685 52.591C35.5685 53.0983 35.8397 53.764 36.1712 54.0704C36.6052 54.4715 36.6052 54.7237 36.1712 54.9717C35.8397 55.161 35.5685 56.3365 35.5685 57.5839V59.8518L37.3703 58.8365C39.9613 57.3764 43.565 57.4757 45.273 59.0542C47.177 60.814 47.5331 62.6012 46.2921 64.1691C45.2245 65.5178 43.8042 65.5384 42.3056 64.227C41.2991 63.3461 42.3987 61.4041 43.9038 61.4041C45.3448 61.4041 45.2912 60.5627 43.8031 59.8267C41.9785 58.9243 37.7404 59.5509 36.5604 60.8977C35.2663 62.3747 35.1333 67.5527 36.3894 67.5527C37.8147 67.5527 38.0153 69.915 36.7315 71.5813C36.0918 72.4116 35.5646 73.6317 35.5599 74.2928C35.5557 74.9538 35.3096 75.8405 35.014 76.2632C34.6024 76.8519 34.4747 76.6654 34.4682 75.4661ZM36.1229 69.5943C36.1229 68.954 34.6976 68.6372 33.8906 69.0982C33.2726 69.4512 33.2701 69.6635 33.876 70.3381C34.4335 70.9589 34.7867 71.014 35.3649 70.5706C35.7818 70.2508 36.1229 69.8114 36.1229 69.5943ZM33.9053 64.6989C33.9053 62.0325 33.8233 61.8559 32.6579 62.0089C31.6051 62.1471 31.4203 62.4709 31.4729 64.0848C31.5336 65.9458 32.4352 67.5527 33.4188 67.5527C33.6864 67.5527 33.9053 66.2685 33.9053 64.6989ZM44.4387 62.3683C44.4387 62.0865 44.1892 61.9985 43.8843 62.1726C43.5794 62.3468 43.3299 62.7199 43.3299 63.0017C43.3299 63.2835 43.5794 63.3716 43.8843 63.1974C44.1892 63.0232 44.4387 62.6502 44.4387 62.3683ZM33.7097 47.7305C33.5388 47.5724 32.9514 47.6116 32.4046 47.8176C31.4775 48.1668 31.4853 48.2183 32.5192 48.5807C33.5633 48.9467 34.3882 48.3576 33.7097 47.7305ZM37.5088 48.6134C38.6611 48.1755 38.6637 48.1776 35.9843 47.3787C35.2828 47.1696 35.0141 47.3688 35.0141 48.0981C35.0141 49.1646 35.6908 49.3043 37.5088 48.6134ZM21.1906 50.4235L20 49.2522L21.4087 48.3991C22.1835 47.9299 22.8175 47.2055 22.8175 46.7893C22.8175 46.3731 23.094 46.0325 23.4319 46.0325C23.8034 46.0325 23.9146 46.5179 23.7131 47.2601C23.4845 48.1016 23.6475 48.5826 24.2313 48.7896C24.8807 49.0199 24.9492 49.3224 24.5199 50.0637C23.6436 51.5771 22.4899 51.7018 21.1906 50.4235Z" fill="#9046A4"/>
</g>
<g clip-path="url(#clip2_50_217)">
<path d="M90.2713 85.0068C90.2403 83.9659 89.7588 82.766 89.0932 82.0708C87.619 80.5312 86.9525 77.1797 86.8683 70.8832C86.8306 68.0651 86.5703 65.3895 86.2898 64.9375C85.5961 63.8195 83.7784 62.9412 82.1585 62.9412C80.6648 62.9412 80.3625 62.1978 81.6578 61.7101C83.1613 61.1441 86.5062 62.3947 87.6898 63.9654C88.3104 64.789 89.0159 65.3431 89.2574 65.1966C89.4989 65.0501 89.6966 62.177 89.6966 58.8119V52.6935H84.7353C79.843 52.6935 78.2227 52.1013 81.4061 51.4766C82.3037 51.3005 84.4029 51.1564 86.071 51.1564C88.7143 51.1564 89.1497 51.0151 89.4598 50.0565C89.7057 49.2963 89.5456 48.8084 88.9412 48.4766C88.1345 48.0337 88.1318 47.8994 88.9061 46.7398C89.5041 45.8443 89.7008 44.5678 89.5904 42.2992L89.4354 39.1153L87.8687 41.5482C86.2343 44.0861 85.371 44.401 85.0942 42.5602C84.8722 41.0839 85.8798 39.3722 86.9732 39.3683C87.4657 39.3665 88.28 38.6561 88.7826 37.7896C89.7767 36.076 90.0319 32.1981 89.1506 32.1981C88.0105 32.1981 86.0409 29.6604 86.0409 28.1915C86.0409 26.3205 88.016 23.6834 88.8237 24.4758C89.2215 24.8662 89.2021 25.2024 88.7564 25.6396C87.6845 26.6913 87.9863 29.5248 89.2403 30.1833C91.7419 31.4969 94.5199 28.1648 92.6307 26.1166C91.7008 25.1085 91.5118 24 92.2697 24C93.2032 24 94.9188 26.7145 94.9188 28.1915C94.9188 29.6604 92.9493 32.1981 91.8091 32.1981C90.9215 32.1981 91.1535 36.5948 92.0809 37.35C94.2221 39.0935 95.0529 42.8108 93.571 44.0174C92.837 44.6151 92.7833 44.4914 93.0871 42.9024C93.3531 41.5117 93.1886 40.8365 92.3461 39.8591L91.2633 38.603L91.3978 44.7516L91.5322 50.9002L94.1394 50.991C95.5734 51.041 97.3929 51.0986 98.1828 51.1191C99.0943 51.1428 99.6189 51.4371 99.6189 51.925C99.6189 52.7258 98.5749 52.8637 93.7437 52.7011L91.2631 52.6176V58.1249V63.6322L92.4382 62.5781C96.6768 58.7756 102.355 59.1187 104.129 63.2845C105.125 65.6231 104.664 67.5945 102.724 69.2898C101.878 70.0296 101.186 71.0943 101.186 71.6557C101.186 72.2172 100.951 72.6765 100.663 72.6765C100.376 72.6765 100.141 72.1842 100.141 71.5824C100.141 70.9807 99.5536 69.9541 98.8356 69.3012C97.3569 67.9566 97.2187 67.1414 98.2378 65.774C98.724 65.1216 99.2554 64.942 99.9351 65.2003C100.871 65.5559 100.875 65.6123 100.011 66.2367C98.1018 67.616 99.6971 69.0819 101.648 67.7412C103.318 66.5933 103.146 63.8327 101.316 62.4172C99.4629 60.9838 96.6377 61.2902 94.0835 63.2016C91.4393 65.1804 90.9069 66.8582 92.4212 68.4407C93.517 69.5858 93.605 70.1044 93.5106 74.8616C93.4247 79.1856 93.2306 80.2719 92.3303 81.4667C91.7376 82.2531 91.0437 83.7675 90.7882 84.8319L90.3236 86.7671L90.2713 85.0068ZM91.5324 79.8253C91.9904 78.4096 90.8648 77.0618 89.8884 77.8568C89.1364 78.4691 88.9333 79.955 89.5225 80.5331C90.2078 81.2054 91.1988 80.8565 91.5324 79.8253ZM89.6966 72.4364C89.6966 69.3542 89.5533 68.6635 88.9604 68.8868C87.9895 69.2523 87.5402 71.1382 87.9168 73.267C88.3623 75.7853 88.5603 76.2632 89.158 76.2632C89.4799 76.2632 89.6966 74.7237 89.6966 72.4364ZM91.8734 71.7819L91.3894 68.8336L91.3422 72.6765C91.3075 75.5091 91.4348 76.2842 91.8262 75.6248C92.1746 75.038 92.1908 73.7158 91.8734 71.7819ZM78.1453 70.6253C77.6803 70.3578 76.9991 69.4265 76.6315 68.5559C75.759 66.4891 76.7914 65.2118 78.7576 65.9254L80.018 66.3829L78.8228 66.7551C77.5008 67.1667 77.5331 67.9573 78.9061 68.797C79.5875 69.2137 79.9248 69.1608 80.3057 68.5774C80.5818 68.1547 80.7028 67.528 80.5748 67.1848C80.1718 66.1046 81.262 65.9384 81.8369 66.9924C82.4321 68.0836 81.7586 70.627 80.8742 70.627C80.6034 70.627 80.0688 70.7361 79.6862 70.8694C79.3037 71.0027 78.6103 70.8929 78.1453 70.6253Z" fill="#9046A4"/>
</g>
<g clip-path="url(#clip3_50_217)">
<path d="M148.422 75.3665C147.943 72.933 147.81 72.6765 147.025 72.6765C145.76 72.6765 143.184 70.6288 142.445 69.0357C141.537 67.081 142.266 65.2535 143.774 65.704C144.322 65.8677 144.926 66.0047 145.115 66.0085C145.889 66.0242 145.393 67.6682 144.54 67.9166C142.189 68.6013 144.753 71.2791 147.76 71.2791C151.883 71.2791 153.955 68.7969 152.675 65.3882C151.913 63.3561 150.062 62.3828 150.062 64.014C150.062 64.5512 149.855 64.9908 149.602 64.9908C149.349 64.9908 149.142 64.1974 149.142 63.2276C149.142 61.4184 148.484 60.38 148.066 61.529C147.879 62.0405 147.745 62.0368 147.412 61.5106C147.099 61.0168 146.519 60.9671 145.128 61.3151C142.462 61.9821 138.687 61.1829 136.494 59.4874C130.936 55.191 131.486 45.5332 137.508 41.6772C139.155 40.6226 139.913 39.8098 139.923 39.0878C139.95 37.2678 142.27 32.7369 143.872 31.3765C148.81 27.1825 157.053 28.8962 159.673 34.6616C160.146 35.7021 160.677 37.2981 160.854 38.2084C161.273 40.3697 160.372 45.118 159.238 46.7227C158.747 47.4183 158.345 48.3546 158.345 48.8033C158.345 49.2521 158.131 49.6192 157.87 49.6192C157.609 49.6192 156.625 50.0019 155.684 50.4696C154.743 50.9373 153.827 51.3408 153.648 51.3662C153.469 51.3917 153.036 51.8484 152.687 52.3811C152.116 53.2501 152.021 53.2633 151.761 52.5092C151.56 51.9248 150.913 51.6687 149.638 51.6687C145.925 51.6687 142.354 48.878 140.831 44.7845L139.799 42.012L138.62 42.8694C135.272 45.3051 134.307 47.2083 134.358 51.2735C134.441 57.8128 138.623 60.8573 145.557 59.4267C148.776 58.7625 152.064 59.6694 153.77 61.6923C154.697 62.7909 154.894 63.5482 154.894 66.0232C154.894 68.5971 154.714 69.2312 153.628 70.4933C152.932 71.3022 152.363 72.1841 152.363 72.4532C152.363 72.7223 151.921 73.2497 151.381 73.6253C150.562 74.1948 150.334 74.194 150.007 73.6204C149.752 73.171 149.614 73.5984 149.609 74.8541C149.6 77.0887 148.827 77.4229 148.422 75.3665ZM155.722 48.2516C156.733 47.4538 157.943 45.9977 158.412 45.0158C159.454 42.8352 159.554 37.8934 158.598 35.8355C157.457 33.3779 154.904 31.2764 152.591 30.8901C146.949 29.9479 142.786 32.8343 141.588 38.5202C141.293 39.9192 141.334 39.9617 142.67 39.6349C144.157 39.2713 145.921 39.6771 145.921 40.3827C145.921 40.6191 144.886 40.9709 143.622 41.1646C141.422 41.5015 141.335 41.5751 141.604 42.8779C142.042 44.9984 144.163 47.7093 146.408 49.0159C149.219 50.653 153.083 50.3359 155.722 48.2516ZM149.376 46.1748C149.121 44.223 148.793 43.4166 148.165 43.1944C146.014 42.4344 146.825 38.0598 149.295 37.0922C150.842 36.4866 151.873 37.0822 152.758 39.0926C153.514 40.8088 152.855 42.9108 151.431 43.3254C150.834 43.4993 150.506 44.0528 150.476 44.9394C150.451 45.6815 150.272 46.8652 150.078 47.5697C149.778 48.6625 149.675 48.4576 149.376 46.1748ZM151.001 41.1392C151.491 40.483 151.46 40.1966 150.828 39.4922C150.114 38.6969 150.01 38.6969 149.296 39.4922C148.664 40.1966 148.634 40.483 149.123 41.1392C149.448 41.576 149.871 41.9335 150.062 41.9335C150.253 41.9335 150.676 41.576 151.001 41.1392ZM153.283 45.1057C153.283 44.8777 153.59 44.2437 153.965 43.6966C154.545 42.8495 154.712 42.8134 155.089 43.4534C155.378 43.9442 155.361 44.4329 155.041 44.8625C154.499 45.5896 153.283 45.7578 153.283 45.1057ZM140.417 52.9743C139.195 51.3343 140.99 48.8149 142.585 49.933C143.607 50.6499 143.857 52.0145 143.142 52.9743C142.431 53.928 141.128 53.928 140.417 52.9743ZM135.627 36.8827C134.9 35.9888 134.908 35.8567 135.758 34.7051L136.662 33.4791L137.656 34.5695C138.483 35.4758 138.563 35.8437 138.128 36.7472C137.485 38.0866 136.642 38.1323 135.627 36.8827ZM136.488 32.7105C136.112 32.0344 136.663 31.075 137.21 31.4515C137.769 31.8361 137.765 33.2229 137.205 33.2229C136.966 33.2229 136.644 32.9923 136.488 32.7105ZM146.841 26.3484C146.841 25.9022 147.169 25.5371 147.57 25.5371C147.97 25.5371 148.216 25.811 148.116 26.1456C147.832 27.0957 146.841 27.2533 146.841 26.3484ZM148.909 26.5573C148.484 25.7905 149.112 24 149.807 24C150.138 24 150.667 24.3459 150.982 24.7686C151.439 25.3818 151.439 25.6926 150.982 26.3057C150.323 27.1898 149.327 27.3107 148.909 26.5573Z" fill="#9046A4"/>
</g>
<g clip-path="url(#clip4_50_217)">
<path d="M198.796 83.8748C198.758 83.2407 198.421 82.7219 198.047 82.7219C197.178 82.7219 195.355 80.7394 194.929 79.331C194.456 77.7644 195.427 75.6293 196.923 74.9476C197.976 74.4675 198.214 73.9974 198.214 72.392C198.214 71.31 197.971 70.4247 197.675 70.4247C197.378 70.4247 196.895 69.733 196.6 68.8875C196.143 67.5754 195.79 67.3424 194.193 67.2959C193.164 67.2659 191.976 67.1902 191.553 67.1274C191.13 67.0647 190.335 66.9739 189.785 66.9257C189.014 66.8581 188.925 66.6993 189.395 66.2295C189.78 65.8445 191.512 65.6529 194.109 65.7081L198.214 65.7955V64.31C198.214 63.4929 197.926 62.72 197.573 62.5925C197.061 62.407 197.061 62.1436 197.573 61.2758C198.527 59.6604 198.359 58.8704 196.921 58.2155C196.099 57.841 195.514 57.055 195.315 56.057C195.07 54.8307 194.667 54.4208 193.476 54.1824C192.192 53.9258 192.088 53.8003 192.818 53.3917C193.296 53.1246 194.137 53.024 194.689 53.1683C195.295 53.3269 196.168 52.9889 196.898 52.3126C197.972 51.3173 198.096 50.778 198.031 47.3922L197.958 43.5896L196.248 43.1467C195.091 42.847 194.305 42.8982 193.814 43.305C193.232 43.7882 193.09 43.7102 193.09 42.9081C193.09 42.3591 192.527 41.3805 191.838 40.7336C188.092 37.2146 187.981 29.8641 191.622 26.5123C192.896 25.3398 196.677 23.5411 196.677 24.1076C196.677 24.2855 195.985 25.2189 195.14 26.1818C194.294 27.1447 193.602 28.3857 193.602 28.9395C193.602 29.4933 193.372 29.9464 193.09 29.9464C192.808 29.9464 192.578 29.5511 192.578 29.068C192.578 28.254 192.516 28.2512 191.738 29.0298C190.474 30.2929 190.23 34.5428 191.291 36.7801C192.298 38.9023 196.77 41.9602 198.287 41.5637C198.81 41.4269 199.356 41.507 199.501 41.7416C199.811 42.2433 202.153 41.6417 203.786 40.6408C206.51 38.9715 208.051 34.1275 206.934 30.7442C206.435 29.2329 206.181 28.9882 205.604 29.4663C205.036 29.9384 204.787 29.7813 204.371 28.6878C204.084 27.9343 203.85 27.1214 203.85 26.8815C203.85 26.6415 203.239 25.9999 202.492 25.4557C200.662 24.1228 201.712 23.6044 203.883 24.7688C208.484 27.236 210.312 33.0071 208.004 37.7748C206.557 40.7641 204.748 42.3804 202.148 43.0079L200.007 43.5246L199.857 47.5441C199.681 52.2399 200.101 53.0037 202.858 53.0037C203.934 53.0037 204.957 53.2343 205.131 53.5161C205.316 53.815 204.795 54.0285 203.88 54.0285C202.475 54.0285 202.313 54.1898 202.313 55.5901C202.313 56.5976 201.859 57.5729 201.032 58.3389C199.521 59.739 199.476 60.0485 200.599 61.2896C201.388 62.1615 201.388 62.2266 200.599 62.2266C199.972 62.2266 199.751 62.6922 199.751 64.011V65.7954L203.466 65.686C207.477 65.5679 209.73 66.2536 207.432 66.8933C206.73 67.0886 204.991 67.2713 203.568 67.2994C202.145 67.3275 200.704 67.6272 200.366 67.9654C200.028 68.3036 199.751 69.8172 199.751 71.3289C199.751 73.7643 199.929 74.2276 201.314 75.3931C202.66 76.5256 202.856 77.0011 202.723 78.8116C202.597 80.5351 202.275 81.101 200.938 81.9465C200.041 82.5139 199.208 83.4394 199.087 84.003C198.889 84.9199 198.859 84.9062 198.796 83.8748ZM200.673 80.5699C201.466 79.7773 201.466 77.4684 200.673 76.6758C199.291 75.2929 196.164 76.6719 196.164 78.6656C196.164 80.7025 199.241 82.002 200.673 80.5699ZM198.726 78.6228C198.726 78.341 198.971 78.1104 199.269 78.1104C199.567 78.1104 199.669 78.341 199.495 78.6228C199.321 78.9046 199.077 79.1352 198.952 79.1352C198.828 79.1352 198.726 78.9046 198.726 78.6228ZM198.003 67.4811C197.443 66.9213 197.06 67.8115 197.461 68.7373C197.842 69.6152 197.87 69.6144 198.082 68.7199C198.205 68.2047 198.169 67.6469 198.003 67.4811ZM200.46 56.5672C200.708 56.336 200.751 55.7278 200.553 55.2157C200.214 54.335 200.167 54.3331 199.691 55.1812C199.414 55.6744 198.738 56.0779 198.188 56.0779C197.186 56.0779 196.887 56.6296 197.536 57.2791C197.923 57.6656 199.759 57.2185 200.46 56.5672ZM198.323 33.9493C197.52 33.1462 197.533 32.261 198.359 31.5755C199.306 30.7896 200.383 31.6543 200.18 33.0384C199.976 34.4339 199.192 34.8185 198.323 33.9493Z" fill="#9046A4"/>
</g>
<g clip-path="url(#clip5_50_217)">
<path d="M251.773 78.1439C251.55 76.7467 251.168 76.007 250.669 76.007C250.25 76.007 249.907 75.8014 249.907 75.5502C249.907 75.1723 250.731 74.8184 252.981 74.2303C255.745 73.5078 257.08 71.6778 257.08 68.611C257.08 66.3317 254.938 63.8368 252.597 63.3883C251.129 63.1071 250.931 63.202 250.931 64.1884C250.931 64.8039 250.701 65.1649 250.419 64.9908C250.137 64.8167 249.907 64.1428 249.907 63.4934C249.907 62.4682 249.513 62.2292 246.919 61.6788C243.696 60.9948 241.192 59.0926 238.878 55.5721C236.462 51.8958 236.372 46.6229 238.65 42.1577C239.996 39.5211 244.462 35.6599 247.009 34.9325C248.18 34.5981 249.426 34.106 249.778 33.8391C250.657 33.1731 250.586 31.942 249.668 31.942C249.256 31.942 248.656 31.4532 248.337 30.8557C247.865 29.9747 247.943 29.515 248.747 28.4219C249.292 27.6807 249.936 26.3826 250.178 25.5372L250.618 24L250.819 25.5372C250.93 26.3826 251.462 27.4868 252.001 27.9909C253.27 29.1782 253.251 30.74 251.956 31.5485C251.393 31.9005 250.932 32.5942 250.932 33.09C250.932 33.8078 251.375 33.9931 253.109 33.9993C254.307 34.0036 255.633 34.2307 256.055 34.5039C256.62 34.8685 256.256 35.0027 254.688 35.0084C251.504 35.02 250.941 35.3876 250.862 37.5049C250.811 38.8522 250.733 39.0151 250.58 38.0906C250.151 35.4905 249.967 35.4342 248.076 37.3253C246.966 38.4354 246.348 39.4728 246.523 39.9306C246.695 40.3789 246.45 40.8205 245.927 41.006C243.319 41.9302 241.704 45.0121 241.717 49.0413C241.731 52.9962 243.3 55.4216 247.01 57.2193L250.007 58.6708L251.188 57.5614C252.557 56.275 254.679 56.3475 254.935 57.6892C255.072 58.4078 254.742 58.5859 253.275 58.5859C251.697 58.5859 251.444 58.7514 251.444 59.7846C251.444 60.9631 253.13 62.1726 254.772 62.1726C255.168 62.1726 256.137 63.0193 256.926 64.0541C258.115 65.6128 258.361 66.4432 258.361 68.8933C258.361 71.5707 258.194 72.0236 256.595 73.6728C255.624 74.6748 254.563 75.4946 254.236 75.4946C253.91 75.4946 253.299 76.5714 252.879 77.8877L252.115 80.2807L251.773 78.1439ZM249.789 60.027C249.678 59.6924 248.593 59.0874 247.379 58.6827C244.747 57.8054 241.401 54.5353 240.927 52.3771C240.602 50.8984 239.446 49.918 238.794 50.5693C238.625 50.7387 238.896 51.9509 239.397 53.2631C240.969 57.3793 244.862 60.4111 248.796 60.5832C249.508 60.6144 249.91 60.3892 249.789 60.027ZM240.348 47.954C240.484 47.4608 240.738 46.2011 240.915 45.1546C241.117 43.9522 242.084 42.2575 243.542 40.5499C246.556 37.0192 245.403 36.5261 242.223 39.9854C239.987 42.4162 238.634 45.3472 238.634 47.7572C238.634 49.0714 239.999 49.228 240.348 47.954ZM249.623 68.789C249.183 68.0776 250.158 67.0745 250.864 67.5113C251.453 67.8749 251.076 69.346 250.394 69.346C250.159 69.346 249.812 69.0954 249.623 68.789ZM248.882 51.4126C247.495 50.0252 247.593 48.5352 249.138 47.5226C250.325 46.7451 250.513 46.7451 251.7 47.5226C253.315 48.5809 253.383 50.5601 251.842 51.6397C250.377 52.6662 250.115 52.6461 248.882 51.4126ZM250.459 43.9403C250.484 43.3434 250.605 43.222 250.769 43.6307C250.917 44.0006 250.899 44.4425 250.729 44.6128C250.558 44.7831 250.437 44.4804 250.459 43.9403Z" fill="#9046A4"/>
</g>
<g clip-path="url(#clip6_50_217)">
<path d="M302.529 89.3309C302.529 88.3346 302.173 87.0088 301.739 86.3847C301.304 85.7605 300.779 84.3852 300.573 83.3284C300.367 82.2716 299.89 81.4047 299.512 81.4019C297.934 81.3903 292.858 78.8242 290.86 77.0281C285.22 71.9558 284.845 63.8273 289.954 57.3751C290.582 56.582 292.896 54.8374 295.096 53.498C297.296 52.1586 299.59 50.339 300.193 49.4543C301.642 47.3315 302.529 42.7709 302.529 37.4484C302.529 33.223 302.502 33.1379 301.243 33.4221C300.535 33.5819 299.597 33.5129 299.157 33.2689C298.078 32.669 296.833 33.1623 296.823 34.1943C296.818 34.6573 296.583 35.364 296.301 35.7647C295.923 36.3012 295.614 35.9106 295.126 34.2822C294.384 31.8021 294.822 31.2152 297.429 31.2011C298.731 31.1941 298.859 31.0202 298.667 29.528C298.521 28.3884 298.781 27.5873 299.494 26.9899C300.067 26.5098 301.117 25.6407 301.828 25.0585L303.121 24L305.389 26.0193C307.871 28.2283 307.998 28.6923 306.949 31.7137C306.305 33.5705 305.378 34.4817 305.378 33.2589C305.378 32.9859 304.994 32.8953 304.524 33.0575C303.807 33.3049 303.668 34.8915 303.66 42.9048C303.656 48.1869 303.405 52.8008 303.099 53.2258C302.686 53.8007 302.545 53.53 302.538 52.1517L302.529 50.3089L300.155 52.2797C298.85 53.3637 297.568 54.2506 297.306 54.2506C297.045 54.2506 296.793 55.1152 296.746 56.172C296.677 57.7176 296.614 57.8178 296.423 56.6844C296.099 54.7586 295.333 54.9094 292.675 57.4218C289.672 60.2606 288.337 63.0925 288.368 66.5619C288.417 72.0992 290.989 76.2322 295.886 78.6427C298.275 79.8187 299.508 80.0843 302.47 80.0615C305.902 80.035 306.209 79.9317 307.74 78.2863C308.634 77.3255 309.532 75.9841 309.736 75.3056C310.071 74.1873 310.171 74.1527 310.808 74.9363C311.45 75.7253 311.542 75.7283 311.866 74.971C312.444 73.6158 311.736 73.2089 308.802 73.2089C306.578 73.2089 305.957 73.4019 305.683 74.1783C305.044 75.9889 300.862 75.8942 300.076 74.0513C299.894 73.626 298.917 73.2049 297.905 73.1153C295.328 72.8874 295.029 71.6716 297.55 71.6716C298.78 71.6716 299.886 71.292 300.535 70.6469C301.884 69.307 304.58 69.307 305.511 70.6469C306.462 72.0173 309.126 72.0087 309.945 70.6333C310.285 70.0618 310.812 69.7319 311.114 69.9001C311.417 70.0684 311.517 70.4207 311.337 70.6831C311.157 70.9454 311.308 71.16 311.674 71.16C312.045 71.16 312.186 70.8031 311.992 70.3496C311.802 69.9038 311.646 69.3274 311.646 69.0686C311.646 68.8098 311.326 68.6558 310.934 68.7262C310.542 68.7967 310.247 68.5661 310.279 68.2138C310.448 66.3122 310.57 66.0901 311.304 66.3434C311.742 66.4946 312.757 67.9787 313.559 69.6413C314.896 72.4137 314.948 72.7823 314.19 74.0897C313.735 74.8738 313.361 75.7938 313.359 76.1342C313.355 76.7868 310.001 79.932 307.462 81.6639C306.541 82.2926 305.958 83.1894 305.954 83.9839C305.95 84.6962 305.435 85.6739 304.809 86.1565C304.021 86.7631 303.669 87.668 303.669 89.0885C303.669 90.2185 303.413 91.143 303.099 91.143C302.786 91.143 302.529 90.3271 302.529 89.3309ZM302.349 83.8728C302.167 83.4641 302.032 83.5855 302.005 84.1824C301.98 84.7225 302.115 85.0251 302.304 84.8549C302.493 84.6846 302.513 84.2427 302.349 83.8728ZM304.8 83.5846C304.793 82.4866 304.669 82.3452 304.239 82.9441C303.518 83.9466 303.518 84.9936 304.239 84.9936C304.552 84.9936 304.805 84.3596 304.8 83.5846ZM304.276 31.1753C304.983 30.8351 305.378 30.1033 305.378 29.1355C305.378 27.9293 305.074 27.5575 303.866 27.2847C300.913 26.6183 299.29 28.7929 301.355 30.6494C302.71 31.868 302.802 31.8846 304.276 31.1753ZM297.763 76.5733C296.626 75.0129 296.606 74.746 297.624 74.746C298.06 74.746 298.586 75.3496 298.792 76.0874C299.302 77.9148 298.884 78.112 297.763 76.5733ZM296.576 67.6159C296.025 66.8132 299.088 64.0395 301.071 63.5474C303.31 62.9914 305.659 63.3111 306.568 64.2958C307.106 64.879 306.899 64.9709 305.401 64.814C304.178 64.686 303.475 64.8696 303.26 65.3724C303.005 65.9696 302.848 65.9867 302.484 65.4566C301.878 64.5749 297.971 66.1777 297.971 67.308C297.971 68.162 297.086 68.3574 296.576 67.6159ZM301.763 60.487C300.557 59.2886 300.575 58.708 301.849 57.6709C302.78 56.9138 302.999 56.9089 304.129 57.6205C305.652 58.5799 305.713 59.4555 304.336 60.576C303.033 61.6368 302.916 61.6328 301.763 60.487Z" fill="#9046A4"/>
</g>
<g clip-path="url(#clip7_50_217)">
<path d="M356.652 78.4003C356.508 77.9658 356.39 77.0261 356.39 76.3122C356.39 75.5983 356.058 74.589 355.652 74.0694C355.07 73.324 355.018 72.9327 355.405 72.2148C355.812 71.4593 355.523 70.6068 353.703 67.1883C352.305 64.5617 351.394 63.2914 351.187 63.6789C350.71 64.573 349.947 63.8126 350.199 62.6946C350.36 61.9816 350.154 61.6808 349.402 61.5288L348.387 61.324L349.359 60.8506C350.313 60.3861 350.317 60.3482 349.576 58.8442C347.945 55.5366 347.783 55.3344 347.362 56.0763C347.115 56.5119 346.753 56.6091 346.381 56.3394C346.057 56.1042 345.475 55.972 345.088 56.0456C344.495 56.1584 343.877 55.3124 343.866 54.3724C343.864 54.2345 343.553 53.427 343.174 52.5779C342.795 51.7288 342.59 50.7161 342.719 50.3274C343.029 49.3924 344.239 49.4223 344.554 50.3727C344.691 50.7862 344.948 51.1246 345.126 51.1246C345.58 51.1246 349.58 44.0681 349.305 43.7502C349.181 43.6067 348.438 43.3129 347.652 43.0974C346.681 42.8309 347.851 42.6891 351.307 42.6542L356.39 42.6029V41.063V39.5231L354.063 39.86C351.691 40.2035 350.588 39.6012 351.55 38.487C351.993 37.9733 351.896 37.7395 350.47 35.8863C350.087 35.3889 350.082 35.0754 350.448 34.6505C351.206 33.7722 351.889 33.9708 352.369 35.2091C352.786 36.286 352.867 36.2249 354.167 33.855C354.96 32.4091 355.428 31.0071 355.288 30.4964C355.156 30.0143 355.35 28.943 355.719 28.1158C356.088 27.2887 356.39 26.0743 356.39 25.4173C356.39 21.7506 358.069 25.8631 358.345 30.2068C358.482 32.3581 359.653 34.7473 360.419 34.4363C360.701 34.3216 360.875 33.8565 360.805 33.4026C360.612 32.1507 361.736 32.4153 362.835 33.8807L363.813 35.184L362.873 36.3444C362.284 37.0706 362.028 37.855 362.188 38.4405C362.385 39.1599 362.12 39.5182 361.04 39.9903C360.135 40.3863 359.585 40.4252 359.491 40.0999C359.262 39.3024 358.052 39.5118 357.459 40.4515C356.322 42.2538 357.108 42.6029 362.302 42.6029C365.494 42.6029 367.16 42.7812 366.988 43.1042C366.841 43.3799 366.16 43.6055 365.474 43.6055C364.314 43.6055 364.263 43.6848 364.743 44.7498C365.026 45.3792 366.011 47.0816 366.932 48.5328C368.471 50.9597 368.665 51.1093 369.345 50.3962C370.599 49.0809 371.229 49.4215 370.924 51.2499C370.775 52.146 370.573 53.4101 370.475 54.0592C370.378 54.7083 369.904 55.6659 369.421 56.1872C368.635 57.0352 368.502 57.0513 368.159 56.3402C367.484 54.942 365.803 55.7038 364.736 57.8918C363.578 60.2656 363.531 60.6489 364.393 60.6489C364.75 60.6489 365.042 60.8744 365.042 61.1501C365.042 61.4258 364.843 61.6514 364.601 61.6514C364.347 61.6514 364.275 62.1819 364.431 62.9046C364.72 64.2394 364.095 64.5582 362.902 63.6837C362.416 63.3274 361.812 64.1203 360.198 67.2318C358.463 70.5746 358.197 71.4065 358.587 72.2514C358.949 73.0349 358.9 73.4623 358.371 74.1392C357.995 74.6204 357.688 75.829 357.688 76.8249C357.688 78.7696 357.08 79.6937 356.652 78.4003ZM358.574 67.2908C359.346 65.7055 360.262 63.9009 360.612 63.2806L361.248 62.1527H357.051H352.855L354.468 65.5363C356.018 68.787 356.79 70.1731 357.051 70.1731C357.118 70.1731 357.803 68.8761 358.574 67.2908ZM356.246 65.8287C355.612 65.0943 355.977 63.6565 356.797 63.6565C357.901 63.6565 358.326 64.5194 357.672 65.4329C357.101 66.2303 356.691 66.3442 356.246 65.8287ZM356.39 58.1425C356.39 56.3143 356.224 55.6361 355.777 55.6361C355.44 55.6361 355.09 55.894 354.999 56.2092C354.876 56.6393 354.604 56.6393 353.91 56.2092C352.797 55.5188 349.469 55.4436 349.469 56.1089C349.469 56.369 349.827 56.8766 350.264 57.2368C350.701 57.5971 351.192 58.5122 351.354 59.2704C351.63 60.565 351.792 60.6489 354.019 60.6489H356.39V58.1425ZM362.792 58.3797C363.316 57.1317 363.744 56.0531 363.744 55.983C363.744 55.9128 362.381 55.8078 360.716 55.7496C357.858 55.6498 357.684 55.7069 357.62 56.7678C357.583 57.386 357.515 58.5122 357.468 59.2703C357.387 60.6084 357.45 60.6489 359.613 60.6489C361.827 60.6489 361.847 60.6346 362.792 58.3797ZM353.989 52.3939C353.644 51.4378 353.362 50.1269 353.362 49.4808C353.362 48.1465 354.809 46.1118 355.758 46.1118C356.144 46.1118 356.39 45.6236 356.39 44.8586C356.39 43.689 356.246 43.6055 354.227 43.6055C353.038 43.6055 351.918 43.5643 351.74 43.5141C351.561 43.4638 350.849 44.3562 350.157 45.4973C349.106 47.231 348.99 47.699 349.453 48.3457C349.921 48.9994 349.873 49.1195 349.142 49.1195C348.255 49.1195 347.62 49.7836 347.206 51.1426C347.019 51.7553 347.26 51.8735 348.385 51.7213C350.024 51.4996 350.926 52.5428 349.476 52.9824C347.884 53.4647 349.409 54.1161 352.15 54.1246L354.616 54.1324L353.989 52.3939ZM363.744 53.5952C363.744 52.7001 364.923 51.6259 365.905 51.6259C367.11 51.6259 366.812 50.3872 364.673 46.5095L363.095 43.6489L360.175 43.6272C357.379 43.6064 357.255 43.6563 357.255 44.8043C357.255 45.663 357.56 46.0918 358.33 46.3157C359.019 46.5163 359.702 47.3428 360.236 48.6241L361.068 50.6199L360.04 52.3761L359.012 54.1323H361.378C362.772 54.1323 363.744 53.9116 363.744 53.5952ZM358.306 52.8433C358.68 52.41 358.985 52.0136 358.985 51.9624C358.985 51.9112 358.07 51.9537 356.952 52.0567C355.099 52.2275 354.991 52.3057 355.737 52.9375C356.8 53.8379 357.469 53.8134 358.306 52.8433ZM367.087 53.3281C366.944 53.1616 366.57 53.1438 366.258 53.2886C365.913 53.4486 366.016 53.5674 366.519 53.5914C366.975 53.6132 367.231 53.4947 367.087 53.3281ZM357.873 50.3369C358.689 49.3915 358.718 49.0099 358.034 48.2172C356.728 46.7037 354.656 48.241 355.51 50.09C356.08 51.3247 356.943 51.4148 357.873 50.3369ZM358.012 37.9989C359.023 38.055 359.851 37.9826 359.851 37.8379C359.851 37.2995 357.162 32.0765 356.889 32.086C356.531 32.0985 353.795 37.4925 353.795 38.1858C353.795 38.5116 354.232 38.5533 354.984 38.2991C355.638 38.0779 357.001 37.9428 358.012 37.9989ZM360.769 35.4514C360.342 34.96 360.292 35.0176 360.527 35.732C360.69 36.2263 360.932 36.5046 361.065 36.3502C361.198 36.1959 361.065 35.7914 360.769 35.4514Z" fill="#9046A4"/>
<ellipse cx="363.336" cy="73.317" rx="1.34707" ry="1.5" fill="#9046A4"/>
<ellipse cx="364.683" cy="76.8792" rx="1.34707" ry="1.5" fill="#9046A4"/>
</g>
<path d="M388 42.5H375.5L367.5 34.5" stroke="#9046A4"/>
<path d="M390.5 45.5H374.5L368 39" stroke="#9046A4"/>
<circle cx="388.5" cy="42.5" r="1.5" transform="rotate(180 388.5 42.5)" fill="#9046A4"/>
<circle cx="367.5" cy="34.5" r="1.5" transform="rotate(180 367.5 34.5)" fill="#9046A4"/>
<circle cx="367.5" cy="38.5" r="1.5" transform="rotate(180 367.5 38.5)" fill="#9046A4"/>
<circle cx="391.5" cy="45.5" r="1.5" transform="rotate(180 391.5 45.5)" fill="#9046A4"/>
<path d="M10 39.5H17L28.8357 19H45" stroke="#9046A4"/>
<path d="M8 36.5H16L27.8357 16H43" stroke="#9046A4"/>
<path d="M6 33.5H15L26.8357 13H41" stroke="#9046A4"/>
<circle cx="45.5" cy="19" r="1.5" fill="#9046A4"/>
<circle cx="43.5" cy="16" r="1.5" fill="#9046A4"/>
<circle cx="41.5" cy="13" r="1.5" fill="#9046A4"/>
<circle cx="5.5" cy="33.5" r="1.5" fill="#9046A4"/>
<circle cx="7.5" cy="36.5" r="1.5" fill="#9046A4"/>
<circle cx="9.5" cy="39.5" r="1.5" fill="#9046A4"/>
<path d="M385 63.5H378L366.164 84H350" stroke="#9046A4"/>
<path d="M387 66.5H379L367.164 87H352" stroke="#9046A4"/>
<path d="M389 69.5H380L368.164 90H354" stroke="#9046A4"/>
<circle cx="349.5" cy="84" r="1.5" transform="rotate(180 349.5 84)" fill="#9046A4"/>
<circle cx="351.5" cy="87" r="1.5" transform="rotate(180 351.5 87)" fill="#9046A4"/>
<circle cx="353.5" cy="90" r="1.5" transform="rotate(180 353.5 90)" fill="#9046A4"/>
<circle cx="389.5" cy="69.5" r="1.5" transform="rotate(180 389.5 69.5)" fill="#9046A4"/>
<circle cx="387.5" cy="66.5" r="1.5" transform="rotate(180 387.5 66.5)" fill="#9046A4"/>
<circle cx="385.5" cy="63.5" r="1.5" transform="rotate(180 385.5 63.5)" fill="#9046A4"/>
<circle cx="19.5" cy="76.5" r="1.5" fill="#9046A4"/>
<circle cx="65.5" cy="76.5" r="1.5" fill="#9046A4"/>
<circle cx="63.5" cy="73.5" r="1.5" fill="#9046A4"/>
<circle cx="20.5" cy="81.5" r="1.5" fill="#9046A4"/>
<path d="M20 77L30 87H38.5L52 73.5H62.5" stroke="#9046A4"/>
<path d="M21 81.5L29.5 90H38.5L52 76.5H65" stroke="#9046A4"/>
<circle cx="1.5" cy="1.5" r="1.5" transform="matrix(1 0 0 -1 233 28)" fill="#9046A4"/>
<circle cx="1.5" cy="1.5" r="1.5" transform="matrix(1 0 0 -1 278 44)" fill="#9046A4"/>
<circle cx="1.5" cy="1.5" r="1.5" transform="matrix(1 0 0 -1 275 47)" fill="#9046A4"/>
<circle cx="1.5" cy="1.5" r="1.5" transform="matrix(1 0 0 -1 234 23)" fill="#9046A4"/>
<path d="M235 26L245 16H253.5L267 29.5H272L276.5 34V45" stroke="#9046A4"/>
<path d="M236 21.5L244.5 13H253.5L267 26.5H273.5L279.5 33V41.5" stroke="#9046A4"/>
<circle cx="371.5" cy="29.5" r="1.5" transform="rotate(180 371.5 29.5)" fill="#9046A4"/>
<circle cx="325.5" cy="29.5" r="1.5" transform="rotate(180 325.5 29.5)" fill="#9046A4"/>
<circle cx="327.5" cy="32.5" r="1.5" transform="rotate(180 327.5 32.5)" fill="#9046A4"/>
<circle cx="370.5" cy="24.5" r="1.5" transform="rotate(180 370.5 24.5)" fill="#9046A4"/>
<path d="M371 29L361 19H352.5L339 32.5H328.5" stroke="#9046A4"/>
<path d="M370 24.5L361.5 16H352.5L339 29.5H326" stroke="#9046A4"/>
<circle cx="1.5" cy="1.5" r="1.5" transform="matrix(-1 0 0 1 166 78)" fill="#9046A4"/>
<circle cx="1.5" cy="1.5" r="1.5" transform="matrix(-1 0 0 1 120 78)" fill="#9046A4"/>
<circle cx="1.5" cy="1.5" r="1.5" transform="matrix(-1 0 0 1 122 75)" fill="#9046A4"/>
<circle cx="1.5" cy="1.5" r="1.5" transform="matrix(-1 0 0 1 165 83)" fill="#9046A4"/>
<path d="M164 80L154 90H145.5L132 76.5H121.5" stroke="#9046A4"/>
<path d="M163 84.5L154.5 93H145.5L132 79.5H119" stroke="#9046A4"/>
<path d="M68 30.5L83.5 14.5H104.5L108.5 18.5V40" stroke="#9046A4"/>
<path d="M68 27L82.8 12H105L111.5 18.5V37" stroke="#9046A4"/>
<circle cx="67.5" cy="27.5" r="1.5" fill="#9046A4"/>
<circle cx="67.5" cy="31" r="1.5" fill="#9046A4"/>
<circle cx="111.5" cy="37" r="1.5" fill="#9046A4"/>
<circle cx="108.5" cy="40.5" r="1.5" fill="#9046A4"/>
<path d="M220 73L204.5 89H177.5" stroke="#9046A4"/>
<path d="M220 76.5L205.2 91.5H183M205.2 91.5H183" stroke="#9046A4"/>
<circle cx="177.5" cy="89" r="1.5" transform="rotate(180 177.5 89)" fill="#9046A4"/>
<circle cx="220.5" cy="76" r="1.5" transform="rotate(180 220.5 76)" fill="#9046A4"/>
<circle cx="220.5" cy="72.5" r="1.5" transform="rotate(180 220.5 72.5)" fill="#9046A4"/>
<circle cx="182.5" cy="91.5" r="1.5" transform="rotate(180 182.5 91.5)" fill="#9046A4"/>
<circle cx="1.5" cy="1.5" r="1.5" transform="matrix(-1 0 0 1 104 85)" fill="#9046A4"/>
<circle cx="1.5" cy="1.5" r="1.5" transform="matrix(-1 0 0 1 104 89)" fill="#9046A4"/>
<circle cx="1.5" cy="1.5" r="1.5" transform="matrix(-1 0 0 1 104 93)" fill="#9046A4"/>
<circle cx="1.5" cy="1.5" r="1.5" transform="matrix(-1 0 0 1 79 85)" fill="#9046A4"/>
<circle cx="1.5" cy="1.5" r="1.5" transform="matrix(-1 0 0 1 79 89)" fill="#9046A4"/>
<circle cx="1.5" cy="1.5" r="1.5" transform="matrix(-1 0 0 1 79 93)" fill="#9046A4"/>
<path d="M78 87L84 93H96L102 87" stroke="#9046A4"/>
<path d="M78 95L84 98.5H96L102 95" stroke="#9046A4"/>
<path d="M78 91L84 96H96L102 91" stroke="#9046A4"/>
<circle cx="211.5" cy="23.5" r="1.5" transform="rotate(-180 211.5 23.5)" fill="#9046A4"/>
<circle cx="211.5" cy="19.5" r="1.5" transform="rotate(-180 211.5 19.5)" fill="#9046A4"/>
<circle cx="183.5" cy="46.5" r="1.5" transform="rotate(-180 183.5 46.5)" fill="#9046A4"/>
<circle cx="180.5" cy="49.5" r="1.5" transform="rotate(-180 180.5 49.5)" fill="#9046A4"/>
<path d="M211 23L205 17H193L187 23L183.536 26.5V46.5" stroke="#9046A4"/>
<path d="M211 19L205 14H193L187 19.5L180.5 26V48.5" stroke="#9046A4"/>
<path d="M241 79.5L248 86.5H260.5L272.5 94" stroke="#9046A4"/>
<path d="M241 83.5L247 89.5H259.5L274.5 98.5" stroke="#9046A4"/>
<path d="M240 86.5L246 92.5H258.5L270.5 99.4282" stroke="#9046A4"/>
<circle cx="270.5" cy="99.5" r="1.5" fill="#9046A4"/>
<circle cx="274.5" cy="98.5" r="1.5" fill="#9046A4"/>
<circle cx="272.5" cy="94" r="1.5" fill="#9046A4"/>
<circle cx="240.5" cy="87" r="1.5" fill="#9046A4"/>
<circle cx="240.5" cy="83" r="1.5" fill="#9046A4"/>
<circle cx="240.5" cy="79" r="1.5" fill="#9046A4"/>
<path d="M128 26.5L135 19.5H147.5L159.5 12" stroke="#9046A4"/>
<path d="M128 22.5L134 16.5H146.5L161.5 7.5" stroke="#9046A4"/>
<path d="M127 19.5L133 13.5H145.5L157.5 6.5718" stroke="#9046A4"/>
<circle cx="1.5" cy="1.5" r="1.5" transform="matrix(1 0 0 -1 156 8)" fill="#9046A4"/>
<circle cx="1.5" cy="1.5" r="1.5" transform="matrix(1 0 0 -1 160 9)" fill="#9046A4"/>
<circle cx="1.5" cy="1.5" r="1.5" transform="matrix(1 0 0 -1 158 13.5)" fill="#9046A4"/>
<circle cx="1.5" cy="1.5" r="1.5" transform="matrix(1 0 0 -1 126 20.5)" fill="#9046A4"/>
<circle cx="1.5" cy="1.5" r="1.5" transform="matrix(1 0 0 -1 126 24.5)" fill="#9046A4"/>
<circle cx="1.5" cy="1.5" r="1.5" transform="matrix(1 0 0 -1 126 28.5)" fill="#9046A4"/>
<path d="M68.5 21L81.5 8H97" stroke="#9046A4"/>
<path d="M67.5 18L80.5 5H94" stroke="#9046A4"/>
<circle cx="94.5" cy="5" r="1.5" fill="#9046A4"/>
<circle cx="67.5" cy="18" r="1.5" fill="#9046A4"/>
<circle cx="67.5" cy="22" r="1.5" fill="#9046A4"/>
<circle cx="97.5" cy="8" r="1.5" fill="#9046A4"/>
<path d="M6 61.5H18.5L26.5 69.5" stroke="#9046A4"/>
<path d="M3.5 58.5H19.5L26 65" stroke="#9046A4"/>
<circle cx="5.5" cy="61.5" r="1.5" fill="#9046A4"/>
<circle cx="26.5" cy="69.5" r="1.5" fill="#9046A4"/>
<circle cx="26.5" cy="65.5" r="1.5" fill="#9046A4"/>
<circle cx="2.5" cy="58.5" r="1.5" fill="#9046A4"/>
<path d="M292.5 90.5H299L303 94.5L307 90.5H313.5" stroke="#9046A4"/>
<path d="M292.5 94.5H299L303 98.5L307 94.5H313.5" stroke="#9046A4"/>
<circle cx="314.5" cy="90.5" r="1.5" fill="#9046A4"/>
<circle cx="314.5" cy="94.5" r="1.5" fill="#9046A4"/>
<circle cx="291.5" cy="94.5" r="1.5" fill="#9046A4"/>
<circle cx="291.5" cy="90.5" r="1.5" fill="#9046A4"/>
<path d="M294.5 21.5L298.5 17.5H307L314 24.5V48" stroke="#9046A4"/>
<path d="M295 18L298 15H308L316.5 23.5V44.5" stroke="#9046A4"/>
<circle cx="294.5" cy="18.5" r="1.5" fill="#9046A4"/>
<circle cx="293.5" cy="22.5" r="1.5" fill="#9046A4"/>
<circle cx="314" cy="48.5" r="1.5" fill="#9046A4"/>
<circle cx="316.5" cy="45.5" r="1.5" fill="#9046A4"/>
<path d="M209 9L213.5 13.5H234L239 8.5H245.5" stroke="#9046A4"/>
<path d="M209 5L214.5 10.5H232.5L238 5.5H242.5" stroke="#9046A4"/>
<circle cx="208.5" cy="4.5" r="1.5" fill="#9046A4"/>
<circle cx="208.5" cy="8.5" r="1.5" fill="#9046A4"/>
<circle cx="246.5" cy="8.5" r="1.5" fill="#9046A4"/>
<circle cx="243.5" cy="5.5" r="1.5" fill="#9046A4"/>
</g>
<defs>
<clipPath id="clip0_50_217">
<rect width="393" height="101" fill="white"/>
</clipPath>
<clipPath id="clip1_50_217">
<rect width="28.3195" height="52.5865" fill="white" transform="translate(20 24)"/>
</clipPath>
<clipPath id="clip2_50_217">
<rect width="28.3195" height="62.7671" fill="white" transform="translate(76.3195 24)"/>
</clipPath>
<clipPath id="clip3_50_217">
<rect width="28.3195" height="52.7351" fill="white" transform="translate(132.639 24)"/>
</clipPath>
<clipPath id="clip4_50_217">
<rect width="20.0435" height="60.6706" fill="white" transform="translate(188.958 24)"/>
</clipPath>
<clipPath id="clip5_50_217">
<rect width="21.3591" height="56.2807" fill="white" transform="translate(237.002 24)"/>
</clipPath>
<clipPath id="clip6_50_217">
<rect width="28.3195" height="67.143" fill="white" transform="translate(286.361 24)"/>
</clipPath>
<clipPath id="clip7_50_217">
<rect width="28.3195" height="55" fill="white" transform="translate(342.681 24)"/>
</clipPath>
</defs>
</svg>
