<svg width="393" height="135" viewBox="0 0 393 135" fill="none" xmlns="http://www.w3.org/2000/svg">
<g clip-path="url(#clip0_50_217)">
<g clip-path="url(#clip1_50_217)">
<path d="M37.4682 96.4661C37.464 95.6049 36.836 94.1191 36.0737 93.1641C35.3114 92.2092 34.6877 90.9688 34.6877 90.4076C34.6877 89.8464 34.2136 88.9113 33.6341 88.3295C32.7642 87.4562 32.651 86.8546 32.9848 84.8802C33.3545 82.6943 33.2781 82.4419 32.0969 81.9444C28.7763 80.5461 27.3914 74.2346 29.6531 70.8067C30.87 68.9622 33.8942 66.7107 35.5193 66.4394C36.4387 66.286 36.6571 65.7844 36.7981 63.5032C36.9515 61.0212 36.8702 60.7892 35.9665 61.1323C33.8116 61.9504 33.1647 61.9606 32.8412 61.1814C32.359 60.0201 32.8831 59.0775 34.4391 58.3079C36.0303 57.5208 36.8114 57.9604 35.8076 59.0782C35.2283 59.7233 35.2628 59.8591 36.0058 59.8591C36.7252 59.8591 36.9053 59.3016 36.9053 57.0756C36.9053 54.7542 36.7236 54.2387 35.811 53.971C34.1245 53.4763 32.4702 51.1906 32.4702 49.3553C32.4702 47.5596 34.2858 45 35.5596 45C36.6187 45 36.5583 45.3632 35.2421 46.9097C33.9086 48.4766 33.8466 49.5174 34.9964 51.0346C36.7511 53.35 41.3404 51.7909 41.3404 48.8795C41.3404 48.1951 40.9662 47.2893 40.5088 46.8665C39.5587 45.9884 39.4119 45 40.2316 45C40.5366 45 41.285 45.4611 41.8948 46.0248C43.5623 47.5659 43.4261 51.3171 41.6428 52.9652C40.8944 53.657 39.8965 54.2229 39.4252 54.2229C38.1269 54.2229 38.3221 56.9085 39.6773 57.6907C41.086 58.5038 41.1167 59.8591 39.7265 59.8591C38.8219 59.8591 38.6395 60.3089 38.4791 62.9344C38.2968 65.9171 38.3331 66.0099 39.6773 66.02C41.4179 66.0329 45.2525 67.6203 46.2592 68.7447C46.7288 69.2691 47.8431 69.5944 49.1698 69.5944C50.3521 69.5944 51.3195 69.825 51.3195 70.1068C51.3195 70.3887 50.8383 70.6192 50.2503 70.6192C49.6622 70.6192 48.773 70.9964 48.2743 71.4573C47.5975 72.0829 47.2077 72.1478 46.7378 71.7135C45.8096 70.8557 43.558 70.9878 43.558 71.9002C43.558 72.9061 43.0123 72.8757 42.1797 71.8232C41.535 71.0084 40.2166 70.9319 32.7474 71.2758C29.3417 71.4326 28.645 76.9542 31.6634 79.8661C32.7827 80.9459 33.7581 81.3793 35.0687 81.3793C36.8928 81.3793 36.9053 81.3626 36.9053 78.9198C36.9053 77.5671 36.6326 76.2084 36.2993 75.9003C35.8609 75.4951 35.9552 74.9708 36.6403 74.0045C37.7411 72.4517 38.5685 72.2743 38.5685 73.591C38.5685 74.0983 38.8397 74.764 39.1712 75.0704C39.6052 75.4715 39.6052 75.7237 39.1712 75.9717C38.8397 76.161 38.5685 77.3365 38.5685 78.5839V80.8518L40.3703 79.8365C42.9613 78.3764 46.565 78.4757 48.273 80.0542C50.177 81.814 50.5331 83.6012 49.2921 85.1691C48.2245 86.5178 46.8042 86.5384 45.3056 85.227C44.2991 84.3461 45.3987 82.4041 46.9038 82.4041C48.3448 82.4041 48.2912 81.5627 46.8031 80.8267C44.9785 79.9243 40.7404 80.5509 39.5604 81.8977C38.2663 83.3747 38.1333 88.5527 39.3894 88.5527C40.8147 88.5527 41.0153 90.915 39.7315 92.5813C39.0918 93.4116 38.5646 94.6317 38.5599 95.2928C38.5557 95.9538 38.3096 96.8405 38.014 97.2632C37.6024 97.8519 37.4747 97.6654 37.4682 96.4661ZM39.1229 90.5943C39.1229 89.954 37.6976 89.6372 36.8906 90.0982C36.2726 90.4512 36.2701 90.6635 36.876 91.3381C37.4335 91.9589 37.7867 92.014 38.3649 91.5706C38.7818 91.2508 39.1229 90.8114 39.1229 90.5943ZM36.9053 85.6989C36.9053 83.0325 36.8233 82.8559 35.6579 83.0089C34.6051 83.1471 34.4203 83.4709 34.4729 85.0848C34.5336 86.9458 35.4352 88.5527 36.4188 88.5527C36.6864 88.5527 36.9053 87.2685 36.9053 85.6989ZM47.4387 83.3683C47.4387 83.0865 47.1892 82.9985 46.8843 83.1726C46.5794 83.3468 46.3299 83.7199 46.3299 84.0017C46.3299 84.2835 46.5794 84.3716 46.8843 84.1974C47.1892 84.0232 47.4387 83.6502 47.4387 83.3683ZM36.7097 68.7305C36.5388 68.5724 35.9514 68.6116 35.4046 68.8176C34.4775 69.1668 34.4853 69.2183 35.5192 69.5807C36.5633 69.9467 37.3882 69.3576 36.7097 68.7305ZM40.5088 69.6134C41.6611 69.1755 41.6637 69.1776 38.9843 68.3787C38.2828 68.1696 38.0141 68.3688 38.0141 69.0981C38.0141 70.1646 38.6908 70.3043 40.5088 69.6134ZM24.1906 71.4235L23 70.2522L24.4087 69.3991C25.1835 68.9299 25.8175 68.2055 25.8175 67.7893C25.8175 67.3731 26.094 67.0325 26.4319 67.0325C26.8034 67.0325 26.9146 67.5179 26.7131 68.2601C26.4845 69.1016 26.6475 69.5826 27.2313 69.7896C27.8807 70.0199 27.9492 70.3224 27.5199 71.0637C26.6436 72.5771 25.4899 72.7018 24.1906 71.4235Z" fill="#9046A4"/>
</g>
<g clip-path="url(#clip2_50_217)">
<path d="M93.2713 106.007C93.2403 104.966 92.7588 103.766 92.0932 103.071C90.619 101.531 89.9525 98.1797 89.8683 91.8832C89.8306 89.0651 89.5703 86.3895 89.2898 85.9375C88.5961 84.8195 86.7784 83.9412 85.1585 83.9412C83.6648 83.9412 83.3625 83.1978 84.6578 82.7101C86.1613 82.1441 89.5062 83.3947 90.6898 84.9654C91.3104 85.789 92.0159 86.3431 92.2574 86.1966C92.4989 86.0501 92.6966 83.177 92.6966 79.8119V73.6935H87.7353C82.843 73.6935 81.2227 73.1013 84.4061 72.4766C85.3037 72.3005 87.4029 72.1564 89.071 72.1564C91.7143 72.1564 92.1497 72.0151 92.4598 71.0565C92.7057 70.2963 92.5456 69.8084 91.9412 69.4766C91.1345 69.0337 91.1318 68.8994 91.9061 67.7398C92.5041 66.8443 92.7008 65.5678 92.5904 63.2992L92.4354 60.1153L90.8687 62.5482C89.2343 65.0861 88.371 65.401 88.0942 63.5602C87.8722 62.0839 88.8798 60.3722 89.9732 60.3683C90.4657 60.3665 91.28 59.6561 91.7826 58.7896C92.7767 57.076 93.0319 53.1981 92.1506 53.1981C91.0105 53.1981 89.0409 50.6604 89.0409 49.1915C89.0409 47.3205 91.016 44.6834 91.8237 45.4758C92.2215 45.8662 92.2021 46.2024 91.7564 46.6396C90.6845 47.6913 90.9863 50.5248 92.2403 51.1833C94.7419 52.4969 97.5199 49.1648 95.6307 47.1166C94.7008 46.1085 94.5118 45 95.2697 45C96.2032 45 97.9188 47.7145 97.9188 49.1915C97.9188 50.6604 95.9493 53.1981 94.8091 53.1981C93.9215 53.1981 94.1535 57.5948 95.0809 58.35C97.2221 60.0935 98.0529 63.8108 96.571 65.0174C95.837 65.6151 95.7833 65.4914 96.0871 63.9024C96.3531 62.5117 96.1886 61.8365 95.3461 60.8591L94.2633 59.603L94.3978 65.7516L94.5322 71.9002L97.1394 71.991C98.5734 72.041 100.393 72.0986 101.183 72.1191C102.094 72.1428 102.619 72.4371 102.619 72.925C102.619 73.7258 101.575 73.8637 96.7437 73.7011L94.2631 73.6176V79.1249V84.6322L95.4382 83.5781C99.6768 79.7756 105.355 80.1187 107.129 84.2845C108.125 86.6231 107.664 88.5945 105.724 90.2898C104.878 91.0296 104.186 92.0943 104.186 92.6557C104.186 93.2172 103.951 93.6765 103.663 93.6765C103.376 93.6765 103.141 93.1842 103.141 92.5824C103.141 91.9807 102.554 90.9541 101.836 90.3012C100.357 88.9566 100.219 88.1414 101.238 86.774C101.724 86.1216 102.255 85.942 102.935 86.2003C103.871 86.5559 103.875 86.6123 103.011 87.2367C101.102 88.616 102.697 90.0819 104.648 88.7412C106.318 87.5933 106.146 84.8327 104.316 83.4172C102.463 81.9838 99.6377 82.2902 97.0835 84.2016C94.4393 86.1804 93.9069 87.8582 95.4212 89.4407C96.517 90.5858 96.605 91.1044 96.5106 95.8616C96.4247 100.186 96.2306 101.272 95.3303 102.467C94.7376 103.253 94.0437 104.767 93.7882 105.832L93.3236 107.767L93.2713 106.007ZM94.5324 100.825C94.9904 99.4096 93.8648 98.0618 92.8884 98.8568C92.1364 99.4691 91.9333 100.955 92.5225 101.533C93.2078 102.205 94.1988 101.856 94.5324 100.825ZM92.6966 93.4364C92.6966 90.3542 92.5533 89.6635 91.9604 89.8868C90.9895 90.2523 90.5402 92.1382 90.9168 94.267C91.3623 96.7853 91.5603 97.2632 92.158 97.2632C92.4799 97.2632 92.6966 95.7237 92.6966 93.4364ZM94.8734 92.7819L94.3894 89.8336L94.3422 93.6765C94.3075 96.5091 94.4348 97.2842 94.8262 96.6248C95.1746 96.038 95.1908 94.7158 94.8734 92.7819ZM81.1453 91.6253C80.6803 91.3578 79.9991 90.4265 79.6315 89.5559C78.759 87.4891 79.7914 86.2118 81.7576 86.9254L83.018 87.3829L81.8228 87.7551C80.5008 88.1667 80.5331 88.9573 81.9061 89.797C82.5875 90.2137 82.9248 90.1608 83.3057 89.5774C83.5818 89.1547 83.7028 88.528 83.5748 88.1848C83.1718 87.1046 84.262 86.9384 84.8369 87.9924C85.4321 89.0836 84.7586 91.627 83.8742 91.627C83.6034 91.627 83.0688 91.7361 82.6862 91.8694C82.3037 92.0027 81.6103 91.8929 81.1453 91.6253Z" fill="#9046A4"/>
</g>
<g clip-path="url(#clip3_50_217)">
<path d="M151.422 96.3665C150.943 93.933 150.81 93.6765 150.025 93.6765C148.76 93.6765 146.184 91.6288 145.445 90.0357C144.537 88.081 145.266 86.2535 146.774 86.704C147.322 86.8677 147.926 87.0047 148.115 87.0085C148.889 87.0242 148.393 88.6682 147.54 88.9166C145.189 89.6013 147.753 92.2791 150.76 92.2791C154.883 92.2791 156.955 89.7969 155.675 86.3882C154.913 84.3561 153.062 83.3828 153.062 85.014C153.062 85.5512 152.855 85.9908 152.602 85.9908C152.349 85.9908 152.142 85.1974 152.142 84.2276C152.142 82.4184 151.484 81.38 151.066 82.529C150.879 83.0405 150.745 83.0368 150.412 82.5106C150.099 82.0168 149.519 81.9671 148.128 82.3151C145.462 82.9821 141.687 82.1829 139.494 80.4874C133.936 76.191 134.486 66.5332 140.508 62.6772C142.155 61.6226 142.913 60.8098 142.923 60.0878C142.95 58.2678 145.27 53.7369 146.872 52.3765C151.81 48.1825 160.053 49.8962 162.673 55.6616C163.146 56.7021 163.677 58.2981 163.854 59.2084C164.273 61.3697 163.372 66.118 162.238 67.7227C161.747 68.4183 161.345 69.3546 161.345 69.8033C161.345 70.2521 161.131 70.6192 160.87 70.6192C160.609 70.6192 159.625 71.0019 158.684 71.4696C157.743 71.9373 156.827 72.3408 156.648 72.3662C156.469 72.3917 156.036 72.8484 155.687 73.3811C155.116 74.2501 155.021 74.2633 154.761 73.5092C154.56 72.9248 153.913 72.6687 152.638 72.6687C148.925 72.6687 145.354 69.878 143.831 65.7845L142.799 63.012L141.62 63.8694C138.272 66.3051 137.307 68.2083 137.358 72.2735C137.441 78.8128 141.623 81.8573 148.557 80.4267C151.776 79.7625 155.064 80.6694 156.77 82.6923C157.697 83.7909 157.894 84.5482 157.894 87.0232C157.894 89.5971 157.714 90.2312 156.628 91.4933C155.932 92.3022 155.363 93.1841 155.363 93.4532C155.363 93.7223 154.921 94.2497 154.381 94.6253C153.562 95.1948 153.334 95.194 153.007 94.6204C152.752 94.171 152.614 94.5984 152.609 95.8541C152.6 98.0887 151.827 98.4229 151.422 96.3665ZM158.722 69.2516C159.733 68.4538 160.943 66.9977 161.412 66.0158C162.454 63.8352 162.554 58.8934 161.598 56.8355C160.457 54.3779 157.904 52.2764 155.591 51.8901C149.949 50.9479 145.786 53.8343 144.588 59.5202C144.293 60.9192 144.334 60.9617 145.67 60.6349C147.157 60.2713 148.921 60.6771 148.921 61.3827C148.921 61.6191 147.886 61.9709 146.622 62.1646C144.422 62.5015 144.335 62.5751 144.604 63.8779C145.042 65.9984 147.163 68.7093 149.408 70.0159C152.219 71.653 156.083 71.3359 158.722 69.2516ZM152.376 67.1748C152.121 65.223 151.793 64.4166 151.165 64.1944C149.014 63.4344 149.825 59.0598 152.295 58.0922C153.842 57.4866 154.873 58.0822 155.758 60.0926C156.514 61.8088 155.855 63.9108 154.431 64.3254C153.834 64.4993 153.506 65.0528 153.476 65.9394C153.451 66.6815 153.272 67.8652 153.078 68.5697C152.778 69.6625 152.675 69.4576 152.376 67.1748ZM154.001 62.1392C154.491 61.483 154.46 61.1966 153.828 60.4922C153.114 59.6969 153.01 59.6969 152.296 60.4922C151.664 61.1966 151.634 61.483 152.123 62.1392C152.448 62.576 152.871 62.9335 153.062 62.9335C153.253 62.9335 153.676 62.576 154.001 62.1392ZM156.283 66.1057C156.283 65.8777 156.59 65.2437 156.965 64.6966C157.545 63.8495 157.712 63.8134 158.089 64.4534C158.378 64.9442 158.361 65.4329 158.041 65.8625C157.499 66.5896 156.283 66.7578 156.283 66.1057ZM143.417 73.9743C142.195 72.3343 143.99 69.8149 145.585 70.933C146.607 71.6499 146.857 73.0145 146.142 73.9743C145.431 74.928 144.128 74.928 143.417 73.9743ZM138.627 57.8827C137.9 56.9888 137.908 56.8567 138.758 55.7051L139.662 54.4791L140.656 55.5695C141.483 56.4758 141.563 56.8437 141.128 57.7472C140.485 59.0866 139.642 59.1323 138.627 57.8827ZM139.488 53.7105C139.112 53.0344 139.663 52.075 140.21 52.4515C140.769 52.8361 140.765 54.2229 140.205 54.2229C139.966 54.2229 139.644 53.9923 139.488 53.7105ZM149.841 47.3484C149.841 46.9022 150.169 46.5371 150.57 46.5371C150.97 46.5371 151.216 46.811 151.116 47.1456C150.832 48.0957 149.841 48.2533 149.841 47.3484ZM151.909 47.5573C151.484 46.7905 152.112 45 152.807 45C153.138 45 153.667 45.3459 153.982 45.7686C154.439 46.3818 154.439 46.6926 153.982 47.3057C153.323 48.1898 152.327 48.3107 151.909 47.5573Z" fill="#9046A4"/>
</g>
<g clip-path="url(#clip4_50_217)">
<path d="M201.796 104.875C201.758 104.241 201.421 103.722 201.047 103.722C200.178 103.722 198.355 101.739 197.929 100.331C197.456 98.7644 198.427 96.6293 199.923 95.9476C200.976 95.4675 201.214 94.9974 201.214 93.392C201.214 92.31 200.971 91.4247 200.675 91.4247C200.378 91.4247 199.895 90.733 199.6 89.8875C199.143 88.5754 198.79 88.3424 197.193 88.2959C196.164 88.2659 194.976 88.1902 194.553 88.1274C194.13 88.0647 193.335 87.9739 192.785 87.9257C192.014 87.8581 191.925 87.6993 192.395 87.2295C192.78 86.8445 194.512 86.6529 197.109 86.7081L201.214 86.7955V85.31C201.214 84.4929 200.926 83.72 200.573 83.5925C200.061 83.407 200.061 83.1436 200.573 82.2758C201.527 80.6604 201.359 79.8704 199.921 79.2155C199.099 78.841 198.514 78.055 198.315 77.057C198.07 75.8307 197.667 75.4208 196.476 75.1824C195.192 74.9258 195.088 74.8003 195.818 74.3917C196.296 74.1246 197.137 74.024 197.689 74.1683C198.295 74.3269 199.168 73.9889 199.898 73.3126C200.972 72.3173 201.096 71.778 201.031 68.3922L200.958 64.5896L199.248 64.1467C198.091 63.847 197.305 63.8982 196.814 64.305C196.232 64.7882 196.09 64.7102 196.09 63.9081C196.09 63.3591 195.527 62.3805 194.838 61.7336C191.092 58.2146 190.981 50.8641 194.622 47.5123C195.896 46.3398 199.677 44.5411 199.677 45.1076C199.677 45.2855 198.985 46.2189 198.14 47.1818C197.294 48.1447 196.602 49.3857 196.602 49.9395C196.602 50.4933 196.372 50.9464 196.09 50.9464C195.808 50.9464 195.578 50.5511 195.578 50.068C195.578 49.254 195.516 49.2512 194.738 50.0298C193.474 51.2929 193.23 55.5428 194.291 57.7801C195.298 59.9023 199.77 62.9602 201.287 62.5637C201.81 62.4269 202.356 62.507 202.501 62.7416C202.811 63.2433 205.153 62.6417 206.786 61.6408C209.51 59.9715 211.051 55.1275 209.934 51.7442C209.435 50.2329 209.181 49.9882 208.604 50.4663C208.036 50.9384 207.787 50.7813 207.371 49.6878C207.084 48.9343 206.85 48.1214 206.85 47.8815C206.85 47.6415 206.239 46.9999 205.492 46.4557C203.662 45.1228 204.712 44.6044 206.883 45.7688C211.484 48.236 213.312 54.0071 211.004 58.7748C209.557 61.7641 207.748 63.3804 205.148 64.0079L203.007 64.5246L202.857 68.5441C202.681 73.2399 203.101 74.0037 205.858 74.0037C206.934 74.0037 207.957 74.2343 208.131 74.5161C208.316 74.815 207.795 75.0285 206.88 75.0285C205.475 75.0285 205.313 75.1898 205.313 76.5901C205.313 77.5976 204.859 78.5729 204.032 79.3389C202.521 80.739 202.476 81.0485 203.599 82.2896C204.388 83.1615 204.388 83.2266 203.599 83.2266C202.972 83.2266 202.751 83.6922 202.751 85.011V86.7954L206.466 86.686C210.477 86.5679 212.73 87.2536 210.432 87.8933C209.73 88.0886 207.991 88.2713 206.568 88.2994C205.145 88.3275 203.704 88.6272 203.366 88.9654C203.028 89.3036 202.751 90.8172 202.751 92.3289C202.751 94.7643 202.929 95.2276 204.314 96.3931C205.66 97.5256 205.856 98.0011 205.723 99.8116C205.597 101.535 205.275 102.101 203.938 102.946C203.041 103.514 202.208 104.439 202.087 105.003C201.889 105.92 201.859 105.906 201.796 104.875ZM203.673 101.57C204.466 100.777 204.466 98.4684 203.673 97.6758C202.291 96.2929 199.164 97.6719 199.164 99.6656C199.164 101.703 202.241 103.002 203.673 101.57ZM201.726 99.6228C201.726 99.341 201.971 99.1104 202.269 99.1104C202.567 99.1104 202.669 99.341 202.495 99.6228C202.321 99.9046 202.077 100.135 201.952 100.135C201.828 100.135 201.726 99.9046 201.726 99.6228ZM201.003 88.4811C200.443 87.9213 200.06 88.8115 200.461 89.7373C200.842 90.6152 200.87 90.6144 201.082 89.7199C201.205 89.2047 201.169 88.6469 201.003 88.4811ZM203.46 77.5672C203.708 77.336 203.751 76.7278 203.553 76.2157C203.214 75.335 203.167 75.3331 202.691 76.1812C202.414 76.6744 201.738 77.0779 201.188 77.0779C200.186 77.0779 199.887 77.6296 200.536 78.2791C200.923 78.6656 202.759 78.2185 203.46 77.5672ZM201.323 54.9493C200.52 54.1462 200.533 53.261 201.359 52.5755C202.306 51.7896 203.383 52.6543 203.18 54.0384C202.976 55.4339 202.192 55.8185 201.323 54.9493Z" fill="#9046A4"/>
</g>
<g clip-path="url(#clip5_50_217)">
<path d="M254.773 99.1439C254.55 97.7467 254.168 97.007 253.669 97.007C253.25 97.007 252.907 96.8014 252.907 96.5502C252.907 96.1723 253.731 95.8184 255.981 95.2303C258.745 94.5078 260.08 92.6778 260.08 89.611C260.08 87.3317 257.938 84.8368 255.597 84.3883C254.129 84.1071 253.931 84.202 253.931 85.1884C253.931 85.8039 253.701 86.1649 253.419 85.9908C253.137 85.8167 252.907 85.1428 252.907 84.4934C252.907 83.4682 252.513 83.2292 249.919 82.6788C246.696 81.9948 244.192 80.0926 241.878 76.5721C239.462 72.8958 239.372 67.6229 241.65 63.1577C242.996 60.5211 247.462 56.6599 250.009 55.9325C251.18 55.5981 252.426 55.106 252.778 54.8391C253.657 54.1731 253.586 52.942 252.668 52.942C252.256 52.942 251.656 52.4532 251.337 51.8557C250.865 50.9747 250.943 50.515 251.747 49.4219C252.292 48.6807 252.936 47.3826 253.178 46.5372L253.618 45L253.819 46.5372C253.93 47.3826 254.462 48.4868 255.001 48.9909C256.27 50.1782 256.251 51.74 254.956 52.5485C254.393 52.9005 253.932 53.5942 253.932 54.09C253.932 54.8078 254.375 54.9931 256.109 54.9993C257.307 55.0036 258.633 55.2307 259.055 55.5039C259.62 55.8685 259.256 56.0027 257.688 56.0084C254.504 56.02 253.941 56.3876 253.862 58.5049C253.811 59.8522 253.733 60.0151 253.58 59.0906C253.151 56.4905 252.967 56.4342 251.076 58.3253C249.966 59.4354 249.348 60.4728 249.523 60.9306C249.695 61.3789 249.45 61.8205 248.927 62.006C246.319 62.9302 244.704 66.0121 244.717 70.0413C244.731 73.9962 246.3 76.4216 250.01 78.2193L253.007 79.6708L254.188 78.5614C255.557 77.275 257.679 77.3475 257.935 78.6892C258.072 79.4078 257.742 79.5859 256.275 79.5859C254.697 79.5859 254.444 79.7514 254.444 80.7846C254.444 81.9631 256.13 83.1726 257.772 83.1726C258.168 83.1726 259.137 84.0193 259.926 85.0541C261.115 86.6128 261.361 87.4432 261.361 89.8933C261.361 92.5707 261.194 93.0236 259.595 94.6728C258.624 95.6748 257.563 96.4946 257.236 96.4946C256.91 96.4946 256.299 97.5714 255.879 98.8877L255.115 101.281L254.773 99.1439ZM252.789 81.027C252.678 80.6924 251.593 80.0874 250.379 79.6827C247.747 78.8054 244.401 75.5353 243.927 73.3771C243.602 71.8984 242.446 70.918 241.794 71.5693C241.625 71.7387 241.896 72.9509 242.397 74.2631C243.969 78.3793 247.862 81.4111 251.796 81.5832C252.508 81.6144 252.91 81.3892 252.789 81.027ZM243.348 68.954C243.484 68.4608 243.738 67.2011 243.915 66.1546C244.117 64.9522 245.084 63.2575 246.542 61.5499C249.556 58.0192 248.403 57.5261 245.223 60.9854C242.987 63.4162 241.634 66.3472 241.634 68.7572C241.634 70.0714 242.999 70.228 243.348 68.954ZM252.623 89.789C252.183 89.0776 253.158 88.0745 253.864 88.5113C254.453 88.8749 254.076 90.346 253.394 90.346C253.159 90.346 252.812 90.0954 252.623 89.789ZM251.882 72.4126C250.495 71.0252 250.593 69.5352 252.138 68.5226C253.325 67.7451 253.513 67.7451 254.7 68.5226C256.315 69.5809 256.383 71.5601 254.842 72.6397C253.377 73.6662 253.115 73.6461 251.882 72.4126ZM253.459 64.9403C253.484 64.3434 253.605 64.222 253.769 64.6307C253.917 65.0006 253.899 65.4425 253.729 65.6128C253.558 65.7831 253.437 65.4804 253.459 64.9403Z" fill="#9046A4"/>
</g>
<g clip-path="url(#clip6_50_217)">
<path d="M305.529 110.331C305.529 109.335 305.173 108.009 304.739 107.385C304.304 106.761 303.779 105.385 303.573 104.328C303.367 103.272 302.89 102.405 302.512 102.402C300.934 102.39 295.858 99.8242 293.86 98.0281C288.22 92.9558 287.845 84.8273 292.954 78.3751C293.582 77.582 295.896 75.8374 298.096 74.498C300.296 73.1586 302.59 71.339 303.193 70.4543C304.642 68.3315 305.529 63.7709 305.529 58.4484C305.529 54.223 305.502 54.1379 304.243 54.4221C303.535 54.5819 302.597 54.5129 302.157 54.2689C301.078 53.669 299.833 54.1623 299.823 55.1943C299.818 55.6573 299.583 56.364 299.301 56.7647C298.923 57.3012 298.614 56.9106 298.126 55.2822C297.384 52.8021 297.822 52.2152 300.429 52.2011C301.731 52.1941 301.859 52.0202 301.667 50.528C301.521 49.3884 301.781 48.5873 302.494 47.9899C303.067 47.5098 304.117 46.6407 304.828 46.0585L306.121 45L308.389 47.0193C310.871 49.2283 310.998 49.6923 309.949 52.7137C309.305 54.5705 308.378 55.4817 308.378 54.2589C308.378 53.9859 307.994 53.8953 307.524 54.0575C306.807 54.3049 306.668 55.8915 306.66 63.9048C306.656 69.1869 306.405 73.8008 306.099 74.2258C305.686 74.8007 305.545 74.53 305.538 73.1517L305.529 71.3089L303.155 73.2797C301.85 74.3637 300.568 75.2506 300.306 75.2506C300.045 75.2506 299.793 76.1152 299.746 77.172C299.677 78.7176 299.614 78.8178 299.423 77.6844C299.099 75.7586 298.333 75.9094 295.675 78.4218C292.672 81.2606 291.337 84.0925 291.368 87.5619C291.417 93.0992 293.989 97.2322 298.886 99.6427C301.275 100.819 302.508 101.084 305.47 101.061C308.902 101.035 309.209 100.932 310.74 99.2863C311.634 98.3255 312.532 96.9841 312.736 96.3056C313.071 95.1873 313.171 95.1527 313.808 95.9363C314.45 96.7253 314.542 96.7283 314.866 95.971C315.444 94.6158 314.736 94.2089 311.802 94.2089C309.578 94.2089 308.957 94.4019 308.683 95.1783C308.044 96.9889 303.862 96.8942 303.076 95.0513C302.894 94.626 301.917 94.2049 300.905 94.1153C298.328 93.8874 298.029 92.6716 300.55 92.6716C301.78 92.6716 302.886 92.292 303.535 91.6469C304.884 90.307 307.58 90.307 308.511 91.6469C309.462 93.0173 312.126 93.0087 312.945 91.6333C313.285 91.0618 313.812 90.7319 314.114 90.9001C314.417 91.0684 314.517 91.4207 314.337 91.6831C314.157 91.9454 314.308 92.16 314.674 92.16C315.045 92.16 315.186 91.8031 314.992 91.3496C314.802 90.9038 314.646 90.3274 314.646 90.0686C314.646 89.8098 314.326 89.6558 313.934 89.7262C313.542 89.7967 313.247 89.5661 313.279 89.2138C313.448 87.3122 313.57 87.0901 314.304 87.3434C314.742 87.4946 315.757 88.9787 316.559 90.6413C317.896 93.4137 317.948 93.7823 317.19 95.0897C316.735 95.8738 316.361 96.7938 316.359 97.1342C316.355 97.7868 313.001 100.932 310.462 102.664C309.541 103.293 308.958 104.189 308.954 104.984C308.95 105.696 308.435 106.674 307.809 107.156C307.021 107.763 306.669 108.668 306.669 110.088C306.669 111.218 306.413 112.143 306.099 112.143C305.786 112.143 305.529 111.327 305.529 110.331ZM305.349 104.873C305.167 104.464 305.032 104.585 305.005 105.182C304.98 105.722 305.115 106.025 305.304 105.855C305.493 105.685 305.513 105.243 305.349 104.873ZM307.8 104.585C307.793 103.487 307.669 103.345 307.239 103.944C306.518 104.947 306.518 105.994 307.239 105.994C307.552 105.994 307.805 105.36 307.8 104.585ZM307.276 52.1753C307.983 51.8351 308.378 51.1033 308.378 50.1355C308.378 48.9293 308.074 48.5575 306.866 48.2847C303.913 47.6183 302.29 49.7929 304.355 51.6494C305.71 52.868 305.802 52.8846 307.276 52.1753ZM300.763 97.5733C299.626 96.0129 299.606 95.746 300.624 95.746C301.06 95.746 301.586 96.3496 301.792 97.0874C302.302 98.9148 301.884 99.112 300.763 97.5733ZM299.576 88.6159C299.025 87.8132 302.088 85.0395 304.071 84.5474C306.31 83.9914 308.659 84.3111 309.568 85.2958C310.106 85.879 309.899 85.9709 308.401 85.814C307.178 85.686 306.475 85.8696 306.26 86.3724C306.005 86.9696 305.848 86.9867 305.484 86.4566C304.878 85.5749 300.971 87.1777 300.971 88.308C300.971 89.162 300.086 89.3574 299.576 88.6159ZM304.763 81.487C303.557 80.2886 303.575 79.708 304.849 78.6709C305.78 77.9138 305.999 77.9089 307.129 78.6205C308.652 79.5799 308.713 80.4555 307.336 81.576C306.033 82.6368 305.916 82.6328 304.763 81.487Z" fill="#9046A4"/>
</g>
<g clip-path="url(#clip7_50_217)">
<path d="M359.652 99.4003C359.508 98.9658 359.39 98.0261 359.39 97.3122C359.39 96.5983 359.058 95.589 358.652 95.0694C358.07 94.324 358.018 93.9327 358.405 93.2148C358.812 92.4593 358.523 91.6068 356.703 88.1883C355.305 85.5617 354.394 84.2914 354.187 84.6789C353.71 85.573 352.947 84.8126 353.199 83.6946C353.36 82.9816 353.154 82.6808 352.402 82.5288L351.387 82.324L352.359 81.8506C353.313 81.3861 353.317 81.3482 352.576 79.8442C350.945 76.5366 350.783 76.3344 350.362 77.0763C350.115 77.5119 349.753 77.6091 349.381 77.3394C349.057 77.1042 348.475 76.972 348.088 77.0456C347.495 77.1584 346.877 76.3124 346.866 75.3724C346.864 75.2345 346.553 74.427 346.174 73.5779C345.795 72.7288 345.59 71.7161 345.719 71.3274C346.029 70.3924 347.239 70.4223 347.554 71.3727C347.691 71.7862 347.948 72.1246 348.126 72.1246C348.58 72.1246 352.58 65.0681 352.305 64.7502C352.181 64.6067 351.438 64.3129 350.652 64.0974C349.681 63.8309 350.851 63.6891 354.307 63.6542L359.39 63.6029V62.063V60.5231L357.063 60.86C354.691 61.2035 353.588 60.6012 354.55 59.487C354.993 58.9733 354.896 58.7395 353.47 56.8863C353.087 56.3889 353.082 56.0754 353.448 55.6505C354.206 54.7722 354.889 54.9708 355.369 56.2091C355.786 57.286 355.867 57.2249 357.167 54.855C357.96 53.4091 358.428 52.0071 358.288 51.4964C358.156 51.0143 358.35 49.943 358.719 49.1158C359.088 48.2887 359.39 47.0743 359.39 46.4173C359.39 42.7506 361.069 46.8631 361.345 51.2068C361.482 53.3581 362.653 55.7473 363.419 55.4363C363.701 55.3216 363.875 54.8565 363.805 54.4026C363.612 53.1507 364.736 53.4153 365.835 54.8807L366.813 56.184L365.873 57.3444C365.284 58.0706 365.028 58.855 365.188 59.4405C365.385 60.1599 365.12 60.5182 364.04 60.9903C363.135 61.3863 362.585 61.4252 362.491 61.0999C362.262 60.3024 361.052 60.5118 360.459 61.4515C359.322 63.2538 360.108 63.6029 365.302 63.6029C368.494 63.6029 370.16 63.7812 369.988 64.1042C369.841 64.3799 369.16 64.6055 368.474 64.6055C367.314 64.6055 367.263 64.6848 367.743 65.7498C368.026 66.3792 369.011 68.0816 369.932 69.5328C371.471 71.9597 371.665 72.1093 372.345 71.3962C373.599 70.0809 374.229 70.4215 373.924 72.2499C373.775 73.146 373.573 74.4101 373.475 75.0592C373.378 75.7083 372.904 76.6659 372.421 77.1872C371.635 78.0352 371.502 78.0513 371.159 77.3402C370.484 75.942 368.803 76.7038 367.736 78.8918C366.578 81.2656 366.531 81.6489 367.393 81.6489C367.75 81.6489 368.042 81.8744 368.042 82.1501C368.042 82.4258 367.843 82.6514 367.601 82.6514C367.347 82.6514 367.275 83.1819 367.431 83.9046C367.72 85.2394 367.095 85.5582 365.902 84.6837C365.416 84.3274 364.812 85.1203 363.198 88.2318C361.463 91.5746 361.197 92.4065 361.587 93.2514C361.949 94.0349 361.9 94.4623 361.371 95.1392C360.995 95.6204 360.688 96.829 360.688 97.8249C360.688 99.7696 360.08 100.694 359.652 99.4003ZM361.574 88.2908C362.346 86.7055 363.262 84.9009 363.612 84.2806L364.248 83.1527H360.051H355.855L357.468 86.5363C359.018 89.787 359.79 91.1731 360.051 91.1731C360.118 91.1731 360.803 89.8761 361.574 88.2908ZM359.246 86.8287C358.612 86.0943 358.977 84.6565 359.797 84.6565C360.901 84.6565 361.326 85.5194 360.672 86.4329C360.101 87.2303 359.691 87.3442 359.246 86.8287ZM359.39 79.1425C359.39 77.3143 359.224 76.6361 358.777 76.6361C358.44 76.6361 358.09 76.894 357.999 77.2092C357.876 77.6393 357.604 77.6393 356.91 77.2092C355.797 76.5188 352.469 76.4436 352.469 77.1089C352.469 77.369 352.827 77.8766 353.264 78.2368C353.701 78.5971 354.192 79.5122 354.354 80.2704C354.63 81.565 354.792 81.6489 357.019 81.6489H359.39V79.1425ZM365.792 79.3797C366.316 78.1317 366.744 77.0531 366.744 76.983C366.744 76.9128 365.381 76.8078 363.716 76.7496C360.858 76.6498 360.684 76.7069 360.62 77.7678C360.583 78.386 360.515 79.5122 360.468 80.2703C360.387 81.6084 360.45 81.6489 362.613 81.6489C364.827 81.6489 364.847 81.6346 365.792 79.3797ZM356.989 73.3939C356.644 72.4378 356.362 71.1269 356.362 70.4808C356.362 69.1465 357.809 67.1118 358.758 67.1118C359.144 67.1118 359.39 66.6236 359.39 65.8586C359.39 64.689 359.246 64.6055 357.227 64.6055C356.038 64.6055 354.918 64.5643 354.74 64.5141C354.561 64.4638 353.849 65.3562 353.157 66.4973C352.106 68.231 351.99 68.699 352.453 69.3457C352.921 69.9994 352.873 70.1195 352.142 70.1195C351.255 70.1195 350.62 70.7836 350.206 72.1426C350.019 72.7553 350.26 72.8735 351.385 72.7213C353.024 72.4996 353.926 73.5428 352.476 73.9824C350.884 74.4647 352.409 75.1161 355.15 75.1246L357.616 75.1324L356.989 73.3939ZM366.744 74.5952C366.744 73.7001 367.923 72.6259 368.905 72.6259C370.11 72.6259 369.812 71.3872 367.673 67.5095L366.095 64.6489L363.175 64.6272C360.379 64.6064 360.255 64.6563 360.255 65.8043C360.255 66.663 360.56 67.0918 361.33 67.3157C362.019 67.5163 362.702 68.3428 363.236 69.6241L364.068 71.6199L363.04 73.3761L362.012 75.1323H364.378C365.772 75.1323 366.744 74.9116 366.744 74.5952ZM361.306 73.8433C361.68 73.41 361.985 73.0136 361.985 72.9624C361.985 72.9112 361.07 72.9537 359.952 73.0567C358.099 73.2275 357.991 73.3057 358.737 73.9375C359.8 74.8379 360.469 74.8134 361.306 73.8433ZM370.087 74.3281C369.944 74.1616 369.57 74.1438 369.258 74.2886C368.913 74.4486 369.016 74.5674 369.519 74.5914C369.975 74.6132 370.231 74.4947 370.087 74.3281ZM360.873 71.3369C361.689 70.3915 361.718 70.0099 361.034 69.2172C359.728 67.7037 357.656 69.241 358.51 71.09C359.08 72.3247 359.943 72.4148 360.873 71.3369ZM361.012 58.9989C362.023 59.055 362.851 58.9826 362.851 58.8379C362.851 58.2995 360.162 53.0765 359.889 53.086C359.531 53.0985 356.795 58.4925 356.795 59.1858C356.795 59.5116 357.232 59.5533 357.984 59.2991C358.638 59.0779 360.001 58.9428 361.012 58.9989ZM363.769 56.4514C363.342 55.96 363.292 56.0176 363.527 56.732C363.69 57.2263 363.932 57.5046 364.065 57.3502C364.198 57.1959 364.065 56.7914 363.769 56.4514Z" fill="#9046A4"/>
<ellipse cx="366.336" cy="94.317" rx="1.34707" ry="1.5" fill="#9046A4"/>
<ellipse cx="367.683" cy="97.8792" rx="1.34707" ry="1.5" fill="#9046A4"/>
</g>
<path d="M4.5 86.5V45.5L16 38.5V19.5" stroke="#9046A4"/>
<path d="M1.5 89V45L13.5 38V22.5" stroke="#9046A4"/>
<circle cx="13.5" cy="21.5" r="1.5" fill="#9046A4"/>
<circle cx="16" cy="18.5" r="1.5" fill="#9046A4"/>
<circle cx="1.5" cy="89.5" r="1.5" fill="#9046A4"/>
<circle cx="4.5" cy="87.5" r="1.5" fill="#9046A4"/>
<path d="M55.5 84.5V50.5L41.5 36.5V10.5" stroke="#9046A4"/>
<path d="M58.5 90V49L44.5 35V7.5" stroke="#9046A4"/>
<path d="M61.5 88.5V47.5L47.5 34V4.5" stroke="#9046A4"/>
<circle cx="44.5" cy="6.5" r="1.5" fill="#9046A4"/>
<circle cx="47.5" cy="3.5" r="1.5" fill="#9046A4"/>
<circle cx="41.5" cy="9.5" r="1.5" fill="#9046A4"/>
<circle cx="55.5" cy="85.5" r="1.5" fill="#9046A4"/>
<circle cx="58.5" cy="90.5" r="1.5" fill="#9046A4"/>
<circle cx="61.5" cy="88.5" r="1.5" fill="#9046A4"/>
<path d="M58.5 90V49L44.5 35V8.5" stroke="#9046A4"/>
<circle cx="19.5" cy="62.5" r="1.5" fill="#9046A4"/>
<path d="M19.5 61.5V51.5L25.5 47V11.5" stroke="#9046A4"/>
<circle cx="22.5" cy="63.5" r="1.5" fill="#9046A4"/>
<circle cx="28.5" cy="15.5" r="1.5" fill="#9046A4"/>
<path d="M22.5 62.5V52.5L28.5 48V16" stroke="#9046A4"/>
<circle cx="16.5" cy="61.5" r="1.5" fill="#9046A4"/>
<circle cx="22.5" cy="13.5" r="1.5" fill="#9046A4"/>
<path d="M16.5 60.5V50.5L22.5 46V14" stroke="#9046A4"/>
<circle cx="25.5" cy="10.5" r="1.5" fill="#9046A4"/>
<circle cx="10.5" cy="71.5" r="1.5" fill="#9046A4"/>
<circle cx="17.5" cy="110.5" r="1.5" fill="#9046A4"/>
<path d="M10.5 72V92.5L17.5 99.5V110" stroke="#9046A4"/>
<circle cx="13.5" cy="74.5" r="1.5" fill="#9046A4"/>
<circle cx="20.5" cy="107.5" r="1.5" fill="#9046A4"/>
<path d="M13.5 75.5V91.5L20.5 98.5V107" stroke="#9046A4"/>
<circle cx="1.5" cy="1.5" r="1.5" transform="matrix(1 0 0 -1 76 118)" fill="#9046A4"/>
<circle cx="1.5" cy="1.5" r="1.5" transform="matrix(1 0 0 -1 68 92)" fill="#9046A4"/>
<path d="M69.5 91V100.5L77.5 109V116" stroke="#9046A4"/>
<circle cx="1.5" cy="1.5" r="1.5" transform="matrix(1 0 0 -1 79 116)" fill="#9046A4"/>
<path d="M72.5 84.5V98.5L80.5 107V114" stroke="#9046A4"/>
<circle cx="1.5" cy="1.5" r="1.5" transform="matrix(1 0 0 -1 82 119)" fill="#9046A4"/>
<circle cx="1.5" cy="1.5" r="1.5" transform="matrix(1 0 0 -1 74 88)" fill="#9046A4"/>
<path d="M75.5 87V96.5L83.5 105V116.5" stroke="#9046A4"/>
<circle cx="1.5" cy="1.5" r="1.5" transform="matrix(1 0 0 -1 71 85)" fill="#9046A4"/>
<path d="M169.5 61.5V95.5L155.5 109.5V118" stroke="#9046A4"/>
<path d="M172.5 56V97L158.5 111V126" stroke="#9046A4"/>
<path d="M175.5 57.5V98.5L161.5 112V120" stroke="#9046A4"/>
<circle cx="1.5" cy="1.5" r="1.5" transform="matrix(1 0 0 -1 157 128)" fill="#9046A4"/>
<circle cx="1.5" cy="1.5" r="1.5" transform="matrix(1 0 0 -1 160 122)" fill="#9046A4"/>
<circle cx="1.5" cy="1.5" r="1.5" transform="matrix(1 0 0 -1 154 119)" fill="#9046A4"/>
<circle cx="1.5" cy="1.5" r="1.5" transform="matrix(1 0 0 -1 168 62)" fill="#9046A4"/>
<circle cx="1.5" cy="1.5" r="1.5" transform="matrix(1 0 0 -1 171 57)" fill="#9046A4"/>
<circle cx="1.5" cy="1.5" r="1.5" transform="matrix(1 0 0 -1 174 59)" fill="#9046A4"/>
<path d="M131.5 82.5V48.5L140.5 39V34.5" stroke="#9046A4"/>
<path d="M128.5 88V47L137.5 38V28.5" stroke="#9046A4"/>
<path d="M125.5 86.5V45.5L134.5 36V32.5" stroke="#9046A4"/>
<circle cx="1.5" cy="1.5" r="1.5" transform="matrix(-1 0 0 1 139 26)" fill="#9046A4"/>
<circle cx="1.5" cy="1.5" r="1.5" transform="matrix(-1 0 0 1 136 30)" fill="#9046A4"/>
<circle cx="1.5" cy="1.5" r="1.5" transform="matrix(-1 0 0 1 142 32)" fill="#9046A4"/>
<circle cx="1.5" cy="1.5" r="1.5" transform="matrix(-1 0 0 1 133 82)" fill="#9046A4"/>
<circle cx="1.5" cy="1.5" r="1.5" transform="matrix(-1 0 0 1 130 87)" fill="#9046A4"/>
<circle cx="1.5" cy="1.5" r="1.5" transform="matrix(-1 0 0 1 127 85)" fill="#9046A4"/>
<circle cx="1.5" cy="1.5" r="1.5" transform="matrix(1 0 0 -1 71 71)" fill="#9046A4"/>
<circle cx="1.5" cy="1.5" r="1.5" transform="matrix(1 0 0 -1 78 32)" fill="#9046A4"/>
<path d="M72.5 69V48.5L79.5 41.5V31" stroke="#9046A4"/>
<circle cx="1.5" cy="1.5" r="1.5" transform="matrix(1 0 0 -1 74 74)" fill="#9046A4"/>
<circle cx="1.5" cy="1.5" r="1.5" transform="matrix(1 0 0 -1 81 35)" fill="#9046A4"/>
<path d="M75.5 71.5V49.5L82.5 42.5V34" stroke="#9046A4"/>
<path d="M112 48.5V93.5L102.5 103V116" stroke="#9046A4"/>
<path d="M115 50.5V95.5L105.5 105V118" stroke="#9046A4"/>
<circle cx="1.5" cy="1.5" r="1.5" transform="matrix(1 0 0 -1 101 118)" fill="#9046A4"/>
<circle cx="1.5" cy="1.5" r="1.5" transform="matrix(1 0 0 -1 104 120)" fill="#9046A4"/>
<circle cx="1.5" cy="1.5" r="1.5" transform="matrix(1 0 0 -1 110.5 49)" fill="#9046A4"/>
<circle cx="1.5" cy="1.5" r="1.5" transform="matrix(1 0 0 -1 113.5 51)" fill="#9046A4"/>
<path d="M193.5 32V39.5L187.5 46V62.5L192.5 67.5V75.5" stroke="#9046A4"/>
<circle cx="1.5" cy="1.5" r="1.5" transform="matrix(1 0 0 -1 192 33)" fill="#9046A4"/>
<circle cx="1.5" cy="1.5" r="1.5" transform="matrix(1 0 0 -1 191 77)" fill="#9046A4"/>
<path d="M190 32V39.5L184 46V62.5L190 68.5V87" stroke="#9046A4"/>
<circle cx="1.5" cy="1.5" r="1.5" transform="matrix(1 0 0 -1 188.5 33)" fill="#9046A4"/>
<path d="M187 32V39.5L180 46V62.5L187.5 69.5C187.5 74.3 187.5 78.8333 187.5 81.5" stroke="#9046A4"/>
<circle cx="1.5" cy="1.5" r="1.5" transform="matrix(1 0 0 -1 185.5 33)" fill="#9046A4"/>
<circle cx="1.5" cy="1.5" r="1.5" transform="matrix(1 0 0 -1 188.5 89)" fill="#9046A4"/>
<circle cx="1.5" cy="1.5" r="1.5" transform="matrix(1 0 0 -1 186 84)" fill="#9046A4"/>
<circle cx="1.5" cy="1.5" r="1.5" transform="matrix(1 0 0 -1 211 81)" fill="#9046A4"/>
<circle cx="1.5" cy="1.5" r="1.5" transform="matrix(1 0 0 -1 209 113)" fill="#9046A4"/>
<circle cx="1.5" cy="1.5" r="1.5" transform="matrix(1 0 0 -1 212 115)" fill="#9046A4"/>
<circle cx="1.5" cy="1.5" r="1.5" transform="matrix(1 0 0 -1 215 109)" fill="#9046A4"/>
<circle cx="1.5" cy="1.5" r="1.5" transform="matrix(1 0 0 -1 210.5 77)" fill="#9046A4"/>
<circle cx="1.5" cy="1.5" r="1.5" transform="matrix(1 0 0 -1 214 77)" fill="#9046A4"/>
<path d="M213 80L214.5 81.5V93.5L210.5 97V110.5" stroke="#9046A4"/>
<path d="M216 76L221 81V95L216.5 99V107.5" stroke="#9046A4"/>
<path d="M212.5 76L217.5 81V95L213.5 98.5V112.5" stroke="#9046A4"/>
<path d="M247.74 37.5L233 52.2402V90" stroke="#9046A4"/>
<path d="M247.5 41.2779L235.5 53.2778V91.9999" stroke="#9046A4"/>
<path d="M241.5 40.5L230.5 51.5V88" stroke="#9046A4"/>
<circle cx="242.5" cy="39.5" r="1.5" fill="#9046A4"/>
<circle cx="248.5" cy="36.5" r="1.5" fill="#9046A4"/>
<circle cx="230.5" cy="88.5" r="1.5" fill="#9046A4"/>
<circle cx="233" cy="90.5" r="1.5" fill="#9046A4"/>
<circle cx="235.5" cy="92.5" r="1.5" fill="#9046A4"/>
<circle cx="248" cy="40.5" r="1.5" fill="#9046A4"/>
<path d="M259.26 112.5L274 97.7598V60" stroke="#9046A4"/>
<path d="M259.5 108.722L271.5 96.7222V58.0001" stroke="#9046A4"/>
<circle cx="258.5" cy="113.5" r="1.5" transform="rotate(-180 258.5 113.5)" fill="#9046A4"/>
<circle cx="274" cy="59.5" r="1.5" transform="rotate(-180 274 59.5)" fill="#9046A4"/>
<circle cx="271.5" cy="57.5" r="1.5" transform="rotate(-180 271.5 57.5)" fill="#9046A4"/>
<circle cx="259" cy="109.5" r="1.5" transform="rotate(-180 259 109.5)" fill="#9046A4"/>
<path d="M291.5 115V107.5L285.5 101.5V56" stroke="#9046A4"/>
<path d="M288.5 117V108.5L282.5 102.5V49" stroke="#9046A4"/>
<path d="M285.5 119V110.5L279.5 104.5V53" stroke="#9046A4"/>
<circle cx="279.5" cy="52.5" r="1.5" fill="#9046A4"/>
<circle cx="282.5" cy="48.5" r="1.5" fill="#9046A4"/>
<circle cx="285.5" cy="55.5" r="1.5" fill="#9046A4"/>
<circle cx="285.5" cy="119.5" r="1.5" fill="#9046A4"/>
<circle cx="288.5" cy="117.5" r="1.5" fill="#9046A4"/>
<circle cx="291.5" cy="115.5" r="1.5" fill="#9046A4"/>
<path d="M315.5 49V77L322.5 84V122" stroke="#9046A4"/>
<path d="M318.5 47V75L325.5 82V120" stroke="#9046A4"/>
<path d="M321.5 45V73L328.5 80V118" stroke="#9046A4"/>
<circle cx="328.5" cy="118.5" r="1.5" fill="#9046A4"/>
<circle cx="325.5" cy="120.5" r="1.5" fill="#9046A4"/>
<circle cx="322.5" cy="122.5" r="1.5" fill="#9046A4"/>
<circle cx="315.5" cy="48.5" r="1.5" fill="#9046A4"/>
<circle cx="318.5" cy="46.5" r="1.5" fill="#9046A4"/>
<circle cx="321.5" cy="44.5" r="1.5" fill="#9046A4"/>
<circle cx="346.5" cy="118.5" r="1.5" fill="#9046A4"/>
<circle cx="349.5" cy="121.5" r="1.5" fill="#9046A4"/>
<circle cx="348.5" cy="26.5" r="1.5" fill="#9046A4"/>
<circle cx="345.5" cy="31.5" r="1.5" fill="#9046A4"/>
<path d="M349.5 120.5V107L335.278 82.5V64L348.5 40.5V27.5" stroke="#9046A4"/>
<path d="M346.5 118V108L332 82.5V64L345.568 40.5V32" stroke="#9046A4"/>
<circle cx="349.5" cy="92.5" r="1.5" fill="#9046A4"/>
<circle cx="350" cy="88.5" r="1.5" fill="#9046A4"/>
<circle cx="355.5" cy="117.5" r="1.5" fill="#9046A4"/>
<circle cx="358" cy="127.5" r="1.5" fill="#9046A4"/>
<circle cx="362" cy="130.5" r="1.5" fill="#9046A4"/>
<circle cx="364.5" cy="120.062" r="1.5" fill="#9046A4"/>
<circle cx="371.5" cy="109.5" r="1.5" fill="#9046A4"/>
<circle cx="374" cy="106.5" r="1.5" fill="#9046A4"/>
<circle cx="382.5" cy="84.5" r="1.5" fill="#9046A4"/>
<circle cx="382.5" cy="79.5" r="1.5" fill="#9046A4"/>
<path d="M381.892 80.5L371.5 97.5V109" stroke="#9046A4"/>
<path d="M382.5 84.5L374 98V105.5" stroke="#9046A4"/>
<circle cx="379.5" cy="101.5" r="1.5" fill="#9046A4"/>
<circle cx="388.5" cy="72.5" r="1.5" fill="#9046A4"/>
<circle cx="391.5" cy="77.5" r="1.5" fill="#9046A4"/>
<circle cx="384.5" cy="100.5" r="1.5" fill="#9046A4"/>
<circle cx="1.5" cy="1.5" r="1.5" transform="matrix(-1 0 0 1 389 64)" fill="#9046A4"/>
<circle cx="1.5" cy="1.5" r="1.5" transform="matrix(-1 0 0 1 386.5 61)" fill="#9046A4"/>
<circle cx="1.5" cy="1.5" r="1.5" transform="matrix(-1 0 0 1 378 39)" fill="#9046A4"/>
<circle cx="1.5" cy="1.5" r="1.5" transform="matrix(-1 0 0 1 378 34)" fill="#9046A4"/>
<path d="M377.108 36.5L387.5 53.5V65" stroke="#9046A4"/>
<path d="M376.5 40.5L385 54V61.5" stroke="#9046A4"/>
<circle cx="1.5" cy="1.5" r="1.5" transform="matrix(-1 0 0 1 384 63)" fill="#9046A4"/>
<circle cx="1.5" cy="1.5" r="1.5" transform="matrix(-1 0 0 1 378 44)" fill="#9046A4"/>
<path d="M376.726 46L382.5 54.5V63.5" stroke="#9046A4"/>
<path d="M355.5 117L355.5 102.5L350.304 93.5" stroke="#9046A4"/>
<path d="M358 126.5V102.5L350.206 89" stroke="#9046A4"/>
<path d="M364.5 119.562V103.062L368 97" stroke="#9046A4"/>
<path d="M362 129.5V102.697L367 93" stroke="#9046A4"/>
<path d="M388.5 73L388.5 86.5L380.128 101" stroke="#9046A4"/>
<path d="M391.5 78L391.5 87.5L384.775 100" stroke="#9046A4"/>
</g>
<defs>
<clipPath id="clip0_50_217">
<rect width="393" height="135" fill="white"/>
</clipPath>
<clipPath id="clip1_50_217">
<rect width="28.3195" height="52.5865" fill="white" transform="translate(23 45)"/>
</clipPath>
<clipPath id="clip2_50_217">
<rect width="28.3195" height="62.7671" fill="white" transform="translate(79.3195 45)"/>
</clipPath>
<clipPath id="clip3_50_217">
<rect width="28.3195" height="52.7351" fill="white" transform="translate(135.639 45)"/>
</clipPath>
<clipPath id="clip4_50_217">
<rect width="20.0435" height="60.6706" fill="white" transform="translate(191.958 45)"/>
</clipPath>
<clipPath id="clip5_50_217">
<rect width="21.3591" height="56.2807" fill="white" transform="translate(240.002 45)"/>
</clipPath>
<clipPath id="clip6_50_217">
<rect width="28.3195" height="67.143" fill="white" transform="translate(289.361 45)"/>
</clipPath>
<clipPath id="clip7_50_217">
<rect width="28.3195" height="55" fill="white" transform="translate(345.681 45)"/>
</clipPath>
</defs>
</svg>
