<svg width="109" height="121" viewBox="0 0 109 121" fill="none" xmlns="http://www.w3.org/2000/svg">
<path d="M107 11V88L76 119H12.5" stroke="#9046A4"/>
<path d="M104 8V85L73 116H9.5" stroke="#9046A4"/>
<path d="M101 5V82L70 113H6.5" stroke="#9046A4"/>
<circle cx="1.5" cy="110.5" r="1.5" transform="rotate(180 1.5 110.5)" fill="#9046A4"/>
<circle cx="8.5" cy="116.5" r="1.5" transform="rotate(180 8.5 116.5)" fill="#9046A4"/>
<circle cx="12.5" cy="119.5" r="1.5" transform="rotate(180 12.5 119.5)" fill="#9046A4"/>
<circle cx="5.5" cy="113.5" r="1.5" transform="rotate(180 5.5 113.5)" fill="#9046A4"/>
<path d="M97 2V79L66 110H2.5" stroke="#9046A4"/>
<circle cx="107.5" cy="10.5" r="1.5" transform="rotate(180 107.5 10.5)" fill="#9046A4"/>
<circle cx="97.5" cy="1.5" r="1.5" transform="rotate(180 97.5 1.5)" fill="#9046A4"/>
<circle cx="101.5" cy="4.5" r="1.5" transform="rotate(180 101.5 4.5)" fill="#9046A4"/>
<circle cx="104.5" cy="7.5" r="1.5" transform="rotate(180 104.5 7.5)" fill="#9046A4"/>
</svg>
