<?xml version="1.0" encoding="UTF-8" standalone="no"?>
<!-- Created with Inkscape (http://www.inkscape.org/) -->

<svg
   width="64.377686mm"
   height="69.320862mm"
   viewBox="0 0 64.377686 69.320862"
   version="1.1"
   id="svg1"
   xml:space="preserve"
   xmlns="http://www.w3.org/2000/svg"
   xmlns:svg="http://www.w3.org/2000/svg"><defs
     id="defs1" /><g
     id="layer1"
     transform="translate(-10.778757,-118.52842)"><path
       style="fill:#000000"
       d="m 42.666254,186.85709 c -0.231016,-0.5457 -0.4333,-1.31934 -0.44952,-1.71919 -0.03107,-0.76581 -0.38071,-0.93261 -0.889145,-0.42418 -0.228981,0.22898 -0.294202,0.17359 -0.264222,-0.2244 0.02899,-0.38481 0.219937,-0.52138 0.702531,-0.50247 0.552665,0.0217 0.699044,0.20097 0.881422,1.07973 0.120284,0.57957 0.32456,1.15963 0.453947,1.28901 0.129386,0.12939 0.172283,0.39934 0.09533,0.59989 -0.07696,0.20055 -0.02723,0.36463 0.110498,0.36463 0.343268,0 0.826487,-1.12414 1.029822,-2.39572 0.185485,-1.15996 0.516256,-1.52648 0.969007,-1.07373 0.16195,0.16195 0.50876,0.29445 0.7707,0.29445 0.26194,0 0.47625,0.1318 0.47625,0.29289 0,0.16286 0.1928,0.21891 0.4343,0.12624 0.36149,-0.13872 0.37877,-0.0998 0.10304,0.23247 -0.29243,0.35236 -0.40952,0.33757 -0.99914,-0.12623 -0.961177,-0.75606 -1.390285,-0.66997 -1.390285,0.27892 0,0.90419 -0.923419,2.89988 -1.341795,2.89988 -0.149989,0 -0.46172,-0.44649 -0.692735,-0.99219 z m -2.412156,-1.33743 c -0.391979,-0.40816 -1.056312,-0.88924 -1.476294,-1.06906 l -0.763605,-0.32695 1.028188,-0.9151 c 0.964077,-0.85805 1.636971,-1.20787 1.312019,-0.68208 -0.07935,0.12839 0.21712,0.21526 0.658824,0.19305 0.441704,-0.0222 0.901454,-0.19954 1.021668,-0.39405 0.140573,-0.22745 0.428517,-0.28702 0.80689,-0.16693 0.508247,0.16131 0.564404,0.11138 0.412606,-0.36689 -0.134388,-0.42342 -0.08223,-0.51776 0.221757,-0.4011 0.218608,0.0839 0.339248,0.30424 0.268088,0.48968 -0.171974,0.44816 1.340307,1.05991 2.43748,0.98602 0.47328,-0.0319 0.93601,0.0642 1.02831,0.21358 0.24745,0.40038 -0.95854,0.33466 -2.925537,-0.15943 -1.549434,-0.38921 -1.75979,-0.39128 -2.171042,-0.0214 -0.250456,0.22525 -1.018124,0.45607 -1.705928,0.51294 -1.408369,0.11644 -1.848077,0.36928 -1.10242,0.63392 0.517291,0.18358 1.954379,1.66625 1.955478,2.0175 0.0011,0.36177 -0.285766,0.2068 -1.006482,-0.54368 z m -2.942495,-3.64752 c -0.78983,-0.21234 -1.607974,-0.52875 -1.818097,-0.70314 -0.393043,-0.32619 -2.169806,-3.79613 -2.169806,-4.23753 0,-0.13586 -0.163816,-0.62219 -0.364035,-1.08075 -0.839459,-1.92258 -2.149006,-7.22441 -1.863929,-7.5463 0.139875,-0.15794 2.072808,1.9285 2.008653,2.16817 -0.03211,0.11996 0.06679,0.14074 0.219772,0.0462 0.152986,-0.0945 0.245233,-0.35893 0.204993,-0.58753 -0.04024,-0.22859 0.08086,-0.46939 0.269107,-0.53511 0.253044,-0.0883 0.295264,0.0769 0.161955,0.63401 -0.09917,0.41443 -0.273683,0.87359 -0.387799,1.02035 -0.114116,0.14677 -0.146892,1.02339 -0.07284,1.94805 0.07974,0.99561 0.03505,1.61963 -0.109588,1.53024 -0.134329,-0.083 -0.265626,-0.72151 -0.291772,-1.41887 -0.02614,-0.69737 -0.164701,-1.30762 -0.307903,-1.35613 -0.143202,-0.0485 -0.260367,-0.26278 -0.260367,-0.47616 0,-0.45792 -0.785596,-2.04553 -0.937182,-1.89395 -0.05743,0.0574 0.119032,0.8424 0.39213,1.74438 0.273098,0.90198 0.453813,1.63997 0.401589,1.63997 -0.224536,0 2.01054,5.93222 2.639328,7.00516 0.698481,1.19187 0.824364,1.26029 3.369217,1.83139 1.078818,0.2421 1.061444,-0.39947 -0.02651,-0.97914 -0.519077,-0.27657 -1.093608,-0.5106 -1.276737,-0.52006 -0.774363,-0.04 -3.434693,-4.7813 -2.997273,-5.34178 0.11838,-0.15168 0.290301,-1.56228 0.382048,-3.13466 0.13078,-2.24135 0.09572,-2.81799 -0.162293,-2.66956 -0.18268,0.10509 -0.234908,0.0861 -0.117388,-0.0428 0.116444,-0.12764 0.533162,-0.25031 0.926041,-0.27259 0.392879,-0.0223 0.800565,-0.056 0.905969,-0.0749 0.105403,-0.0189 0.384886,-0.40811 0.621072,-0.86484 0.347062,-0.67114 0.370253,-0.9603 0.120907,-1.50756 -0.240157,-0.52708 -0.359093,-0.5953 -0.536747,-0.30785 -0.174679,0.28264 -0.266289,0.21732 -0.390459,-0.27838 -0.08923,-0.35621 -0.182277,-0.91555 -0.206775,-1.24297 -0.0245,-0.32742 -0.184569,-0.59532 -0.355714,-0.59532 -0.171145,0 -0.294636,0.20836 -0.274425,0.46303 0.02021,0.25466 -0.114556,0.43243 -0.299483,0.39504 -0.239247,-0.0484 -0.285722,0.14242 -0.161124,0.66146 l 0.175105,0.72943 -0.632625,-0.5649 c -0.738362,-0.65932 -1.611373,-0.97101 -2.822652,-1.00776 -0.507628,-0.0154 -1.220611,-0.31148 -1.719792,-0.71419 -0.896494,-0.72323 -2.40385,-3.07206 -2.692414,-4.19544 -0.156591,-0.6096 -0.145087,-0.61998 0.146746,-0.13229 0.81763,1.36635 2.706819,4.10464 2.85267,4.13481 0.08978,0.0186 0.401358,0.0733 0.6924,0.12158 0.291042,0.0483 1.214231,0.2606 2.051531,0.47177 2.059006,0.5193 1.731904,0.15739 -0.449873,-0.49774 -2.002206,-0.60122 -3.021953,-1.49282 -4.470461,-3.90868 -0.548813,-0.91533 -0.978006,-1.39382 -1.067959,-1.19063 -0.08272,0.18685 -0.123753,0.0514 -0.09119,-0.30101 0.09565,-1.03522 0.607185,-0.91366 0.948454,0.2254 0.173778,0.58002 0.439084,1.13067 0.58957,1.22368 0.150486,0.093 0.379612,0.4479 0.509168,0.78866 0.312373,0.8216 2.80234,2.77086 3.525874,2.7602 0.559486,-0.008 0.56071,-0.0166 0.05796,-0.39687 -0.282475,-0.21365 -0.728959,-0.38846 -0.992187,-0.38846 -0.263229,0 -0.478597,-0.14504 -0.478597,-0.32231 0,-0.17727 -0.297408,-0.57786 -0.660906,-0.8902 -0.677147,-0.58186 -1.308404,-2.49428 -0.698996,-2.11764 0.17061,0.10544 0.250066,0.28901 0.176568,0.40793 -0.0735,0.11892 0.103154,0.27814 0.392559,0.35383 0.766411,0.20042 0.644065,-0.27701 -0.267559,-1.04409 -0.436562,-0.36734 -0.79375,-0.84293 -0.79375,-1.05686 0,-0.21394 -0.119062,-0.31539 -0.264583,-0.22545 -0.157991,0.0976 -0.252219,-0.1892 -0.233891,-0.71199 0.01834,-0.52308 0.08238,-0.67367 0.159087,-0.37409 0.08829,0.34479 0.189609,0.40238 0.324349,0.18437 0.111205,-0.17994 1.026942,-0.36625 2.117375,-0.4308 2.492978,-0.14758 4.157612,0.506 5.164694,2.0278 0.642978,0.97161 1.199636,1.15895 1.199636,0.40373 0,-0.53381 0.930831,-0.43791 1.287129,0.13262 0.238597,0.38205 0.251247,0.62541 0.0454,0.87344 -0.21685,0.26129 -0.141103,0.38438 0.315539,0.51278 0.52072,0.14642 0.547666,0.2125 0.201969,0.49534 -0.219405,0.17951 -0.359952,0.59427 -0.312327,0.92169 0.107203,0.73701 -0.310299,0.76439 -1.008545,0.0661 -0.42938,-0.42938 -0.529167,-0.45138 -0.529167,-0.11668 0,0.22687 -0.101652,0.34967 -0.225894,0.27288 -0.124241,-0.0768 -0.355694,0.14527 -0.51434,0.49346 -0.225276,0.49443 -0.204777,0.70251 0.0936,0.95014 0.317458,0.26347 0.385579,0.18859 0.402936,-0.44293 0.01178,-0.42845 0.08641,-0.58686 0.171088,-0.36312 0.08261,0.21828 0.304428,0.48822 0.492927,0.59987 0.266885,0.15807 0.277984,0.39227 0.05016,1.05833 -0.160914,0.47044 -0.402548,0.92834 -0.536964,1.01755 -0.134416,0.0892 -0.200407,0.44641 -0.146646,0.79375 0.0885,0.57179 0.152916,0.52684 0.680827,-0.47499 0.320693,-0.60859 0.714242,-1.18759 0.874553,-1.28667 0.16031,-0.0991 -0.205398,0.78492 -0.812686,1.96442 -0.607288,1.17951 -1.064172,2.26175 -1.015297,2.40498 0.04887,0.14323 0.498013,-0.56789 0.998087,-1.58026 1.019147,-2.06322 1.435484,-2.33264 0.543605,-0.35178 -0.316669,0.70331 -0.615164,1.45735 -0.663323,1.67563 -0.04816,0.21828 -0.111866,0.39688 -0.141572,0.39688 -0.05844,0 -0.201677,0.70722 -0.333826,1.64825 -0.04556,0.32446 -0.164643,0.67173 -0.264622,0.7717 -0.09998,0.1 -0.181779,0.29839 -0.181779,0.4409 0,0.14252 0.297657,-0.062 0.661459,-0.4546 0.363802,-0.39255 0.661458,-0.82665 0.661458,-0.96468 0,-0.13802 0.13197,-0.25095 0.293266,-0.25095 0.280621,0 0.213451,0.59516 -0.198787,1.76136 -0.143504,0.40597 -0.110932,0.43047 0.194559,0.14639 0.218689,-0.20336 0.365654,-0.87142 0.363787,-1.65364 -0.0031,-1.31415 0.242326,-1.71891 0.515115,-0.84942 0.194466,0.61984 -0.500425,3.1789 -1.018718,3.7516 -0.227593,0.25149 -0.413805,0.58213 -0.413805,0.73475 0,0.15263 -0.177283,0.42463 -0.393962,0.60446 -0.216679,0.17983 -0.328715,0.43253 -0.248968,0.56156 0.07975,0.12904 0.0027,0.23461 -0.171169,0.23461 -0.222672,0 -0.267724,-0.35339 -0.152358,-1.19508 0.133308,-0.97258 0.06791,-1.29097 -0.351261,-1.71014 -0.287889,-0.28789 -0.402623,-0.58456 -0.260132,-0.67262 0.140213,-0.0867 0.25311,-0.29936 0.250882,-0.47267 -0.0024,-0.18934 -0.106423,-0.15671 -0.260532,0.0818 -0.213444,0.33028 -0.260665,0.30808 -0.28142,-0.13229 -0.01372,-0.29105 -0.08499,-0.38034 -0.158392,-0.19844 -0.0734,0.1819 -0.289386,0.33073 -0.479971,0.33073 -0.190585,0 -0.418789,0.18833 -0.507118,0.41851 -0.269528,0.70238 -0.182357,4.34399 0.103984,4.34399 0.145521,0 0.264583,0.3324 0.264583,0.73866 0,0.52479 0.325579,1.04845 1.12448,1.8086 1.6737,1.59252 2.569112,2.20269 2.993449,2.03985 0.477619,-0.18328 0.52791,0.97997 0.06249,1.44539 -0.374729,0.37473 -0.240964,0.38149 -2.044597,-0.10339 z m -0.632162,-11.79955 c -0.08446,-0.21107 -0.147157,-0.14838 -0.159853,0.15985 -0.01149,0.27891 0.05105,0.43518 0.138965,0.34726 0.08792,-0.0879 0.09732,-0.31612 0.02089,-0.50711 z m -0.268935,-6.15646 c 0,-0.21188 -0.09922,-0.32392 -0.220486,-0.24897 -0.121268,0.0749 -0.220487,0.2483 -0.220487,0.38523 0,0.13694 0.09922,0.24897 0.220487,0.24897 0.121267,0 0.220486,-0.17335 0.220486,-0.38523 z m 1.146527,0.12065 c 0,-0.14552 -0.126089,-0.26459 -0.280198,-0.26459 -0.154109,0 -0.206613,0.11907 -0.116677,0.26459 0.08994,0.14552 0.216027,0.26458 0.280199,0.26458 0.06417,0 0.116676,-0.11906 0.116676,-0.26458 z m -1.852083,-1.05834 c 0,-0.14552 -0.126089,-0.26458 -0.280198,-0.26458 -0.154109,0 -0.206614,0.11906 -0.116677,0.26458 0.08994,0.14553 0.216026,0.26459 0.280198,0.26459 0.06417,0 0.116677,-0.11906 0.116677,-0.26459 z m -0.79375,-0.11667 c 0,-0.0642 -0.119062,-0.19026 -0.264583,-0.2802 -0.145521,-0.0899 -0.264584,-0.0374 -0.264584,0.11668 0,0.15411 0.119063,0.28019 0.264584,0.28019 0.145521,0 0.264583,-0.0525 0.264583,-0.11667 z m -0.155492,-2.33072 c -0.149378,-0.26458 -0.115459,-0.26458 0.169593,0 0.489359,0.45422 0.779649,0.41432 0.779649,-0.10715 0,-0.39071 0.05823,-0.38519 0.540553,0.0513 0.527204,0.47711 0.53576,0.47649 0.346452,-0.0251 -0.610123,-1.61671 -1.649132,-2.91598 -2.80934,-3.51305 -1.352261,-0.69589 -2.099299,-0.64894 -3.137438,0.19719 l -0.628769,0.51247 0.497857,0.93341 c 0.672536,1.26091 2.159426,2.24588 3.420362,2.26578 0.732475,0.0116 0.956791,-0.0744 0.821081,-0.31482 z m 12.855491,21.29274 c -1.75048,-0.59945 -1.74135,-0.59208 -1.15671,-0.93417 2.46264,-1.44095 3.2772,-2.14072 3.84669,-3.30458 0.73245,-1.49692 0.79473,-3.43203 0.12257,-3.80819 -0.24334,-0.13618 -0.362,-0.37774 -0.26369,-0.5368 0.11534,-0.18662 0.0544,-0.21238 -0.17169,-0.0726 -0.25657,0.15856 -0.30376,0.095 -0.1762,-0.23745 0.0958,-0.24971 0.0689,-0.38894 -0.0598,-0.3094 -0.1287,0.0795 -0.51429,-0.0908 -0.85687,-0.37851 l -0.62287,-0.52312 0.59531,-0.16778 c 0.66293,-0.18683 0.82016,-0.89981 0.19844,-0.89981 -0.21828,0 -0.39688,-0.11906 -0.39688,-0.26458 0,-0.14552 0.23285,-0.26459 0.51743,-0.26459 0.49092,0 0.49798,-0.0551 0.13787,-1.07581 -0.20877,-0.5917 -0.6042,-1.39537 -0.87875,-1.78594 -0.80344,-1.14295 -1.44981,-2.51415 -1.07635,-2.28334 0.22941,0.14179 0.28199,0.0761 0.17085,-0.21356 -0.0979,-0.25526 0.0115,-0.48441 0.28072,-0.58772 0.2427,-0.0931 0.48347,-0.0427 0.53506,0.11205 0.0516,0.15475 0.20268,0.21407 0.33577,0.13182 0.13309,-0.0823 0.24199,-0.0155 0.24199,0.14847 0,0.17731 -0.21367,0.23021 -0.5275,0.1306 -0.40494,-0.12852 -0.49058,-0.0712 -0.36857,0.24676 0.0874,0.2278 0.24338,0.41417 0.3466,0.41417 0.10321,0 0.5934,0.80368 1.0893,1.78594 0.4959,0.98227 0.94422,1.84528 0.99628,1.91782 0.0521,0.0725 0.27839,-0.10607 0.50296,-0.39688 0.39498,-0.51149 0.4018,-0.50716 0.20891,0.13271 -0.39693,1.31675 -0.43666,3.15722 -0.10085,4.67171 l 0.34279,1.546 0.15413,-1.05834 0.15413,-1.05833 0.1344,0.98461 c 0.0847,0.62038 0.0199,1.02853 -0.17506,1.10335 -0.1702,0.0653 -0.39396,0.5692 -0.49724,1.11975 -0.29516,1.5733 -1.07587,2.85624 -2.18462,3.58998 -0.65299,0.43213 -1.0206,0.87817 -1.0206,1.23833 0,0.68347 -0.0608,0.68182 1.21106,0.033 1.80387,-0.92027 2.28769,-1.94835 4.48211,-9.52422 0.31613,-1.0914 0.6361,-2.2225 0.71104,-2.51354 l 0.13625,-0.52917 -0.44544,0.52917 c -0.245,0.29104 -0.71436,1.0961 -1.04303,1.78901 -0.73534,1.55028 -1.08008,1.28549 -1.29575,-0.99526 -0.0988,-1.04479 -0.0767,-1.30825 0.0646,-0.77065 0.43058,1.6383 0.79389,1.81575 1.31361,0.64161 0.43053,-0.97264 1.89594,-2.11797 1.89594,-1.48183 0,0.22524 -0.16822,0.85843 -0.37381,1.40708 -0.20559,0.54865 -0.87006,2.77183 -1.4766,4.9404 -0.90028,3.21882 -1.29474,4.20268 -2.14808,5.35781 -0.57491,0.77822 -1.08653,1.41495 -1.13692,1.41495 -0.0504,0 -0.49313,0.16313 -0.98385,0.36251 -0.49071,0.19938 -1.0708,0.30134 -1.28908,0.22659 z m 1.72848,-14.21503 c -0.92831,-1.85366 -1.35652,-2.44463 -1.59706,-2.2041 -0.0539,0.0539 0.37077,0.83516 0.94365,1.73619 0.57288,0.90103 1.0416,1.80153 1.0416,2.00111 0,0.41874 0.29256,0.77586 0.48113,0.5873 0.0706,-0.0706 -0.3206,-1.02482 -0.86932,-2.1205 z m -22.926165,12.67683 c -0.173397,-0.42388 -0.455006,-1.42494 -0.625797,-2.22459 -0.295242,-1.38232 -0.366109,-1.47351 -1.439369,-1.85208 -0.620861,-0.219 -1.124856,-0.51725 -1.119989,-0.66277 0.0049,-0.14552 0.434251,-0.48534 0.954185,-0.75517 0.758227,-0.39348 1.003833,-0.7229 1.240887,-1.66432 0.330736,-1.31348 0.756388,-1.38008 1.153773,-0.18053 0.145729,0.4399 0.395137,0.96674 0.55424,1.17075 0.398069,0.51044 0.66038,1.29855 0.429264,1.28972 -0.269563,-0.0103 -1.379144,-2.27455 -1.388804,-2.83405 -0.01257,-0.72834 -0.415258,0.11622 -0.632854,1.32731 -0.09877,0.54975 -0.280158,0.93738 -0.403078,0.86142 -0.12292,-0.076 -0.292184,0.0409 -0.376144,0.25968 -0.08396,0.21879 -0.245264,0.38261 -0.358454,0.36402 -0.113189,-0.0186 -0.384393,-0.0161 -0.602674,0.006 -0.311484,0.0309 -0.293128,0.0997 0.08531,0.31979 0.265203,0.15423 0.800984,0.21486 1.190625,0.13475 0.389641,-0.0801 0.5533,-0.0788 0.363686,0.003 -0.259391,0.11174 -0.226635,0.23529 0.132292,0.49899 0.406223,0.29844 0.504028,0.28465 0.658802,-0.0929 0.09997,-0.24384 0.12298,0.0924 0.05114,0.74728 -0.07291,0.6646 0.03299,1.71665 0.239695,2.38125 l 0.370311,1.19063 -0.08284,-2.19236 c -0.0801,-2.1199 -0.06132,-2.20054 0.568437,-2.43998 0.358204,-0.13618 0.832423,-0.1781 1.053821,-0.0931 0.437595,0.16792 1.260463,-0.3697 1.060663,-0.69298 -0.06768,-0.10951 -0.409605,-0.14434 -0.759823,-0.0774 -0.350218,0.0669 -0.708613,0.005 -0.796434,-0.13663 -0.09315,-0.15072 0.277523,-0.26439 0.889708,-0.27284 0.57716,-0.008 1.118899,0.098 1.203863,0.23547 0.25785,0.41721 -0.668661,1.12229 -1.692362,1.28789 l -0.96502,0.15612 -0.07845,2.112 c -0.08774,2.36214 -0.396688,3.00429 -0.878611,1.8262 z m 32.421115,0.0321 c -0.0952,-0.37949 -0.10029,-1.05442 -0.0112,-1.49984 0.29395,-1.46976 -0.0239,-1.98886 -1.61254,-2.63364 -1.36082,-0.55232 -1.43041,-0.62189 -0.96884,-0.96849 0.27351,-0.20539 0.94486,-0.55585 1.49189,-0.77881 0.70212,-0.28617 1.03929,-0.6106 1.14657,-1.10328 0.31317,-1.43812 0.35258,-1.4804 0.86615,-0.92914 0.26314,0.28245 0.56678,0.86554 0.67476,1.29577 0.10798,0.43023 0.33572,0.87091 0.50608,0.97928 0.20148,0.12816 0.14245,0.19845 -0.16888,0.20108 -0.30748,0.003 -0.41058,0.12232 -0.28831,0.33478 0.11058,0.19216 0.0894,0.23835 -0.0505,0.11025 -0.13247,-0.12127 -0.24623,-0.29986 -0.2528,-0.39688 -0.10814,-1.59828 -0.85985,-2.88417 -0.95379,-1.6316 -0.0218,0.29105 -0.0516,0.678 -0.0661,0.8599 -0.0146,0.1819 -0.56224,0.45063 -1.21709,0.59718 -1.30708,0.29252 -1.64193,0.99273 -0.54857,1.14714 0.35313,0.0499 0.93247,0.28096 1.28741,0.51352 0.60669,0.39753 0.63679,0.53078 0.50237,2.22444 -0.15798,1.9906 0.1818,2.44541 0.50584,0.6771 0.24198,-1.32048 0.22578,-1.25895 0.48822,-1.85546 0.1218,-0.27687 0.0704,-0.62875 -0.12642,-0.86595 -0.27617,-0.33276 -0.259,-0.3717 0.10269,-0.23291 0.50241,0.1928 0.59914,-0.29931 0.10357,-0.52692 -0.18191,-0.0836 -0.0796,-0.0908 0.22731,-0.0161 0.76122,0.18531 1.48717,-0.12972 1.31755,-0.57175 -0.17986,-0.46871 0.13809,-0.46188 0.78582,0.0169 0.48944,0.36178 0.46734,0.39909 -0.4701,0.79375 -0.54103,0.22778 -1.07681,0.41521 -1.19063,0.41652 -0.11381,0.001 -0.44506,0.97401 -0.7361,2.16156 -0.55,2.24417 -1.04703,2.86592 -1.34428,1.68157 z m -3.65054,-0.88889 c -0.11708,-0.33839 -0.14247,-0.68566 -0.0564,-0.7717 0.27427,-0.27427 0.46705,0.13015 0.36654,0.76892 l -0.0973,0.61803 z m 0.82266,-0.55417 c -0.11509,-0.44009 -0.0807,-0.54339 0.11569,-0.34705 0.15375,0.15375 0.22748,0.43572 0.16386,0.6266 -0.0661,0.19816 -0.18599,0.0782 -0.27955,-0.27955 z m -13.23511,-0.47028 c -0.261081,-0.0678 -0.54155,-0.46117 -0.624485,-0.87585 -0.09374,-0.46868 -0.279208,-0.70337 -0.491489,-0.62191 -0.187517,0.0719 -0.41954,0.004 -0.515609,-0.15179 -0.09607,-0.15545 -0.376002,-0.28329 -0.622075,-0.2841 -0.246073,-8.1e-4 -0.88857,-0.124 -1.42777,-0.27376 -0.693906,-0.19272 -0.936892,-0.38556 -0.831588,-0.65998 0.08183,-0.21324 0.30788,-0.3877 0.50234,-0.3877 0.194461,0 0.520001,-0.23762 0.723423,-0.52805 0.232344,-0.33172 0.890771,-0.62683 1.770907,-0.79375 1.952628,-0.37031 2.909779,-0.33364 4.473436,0.17136 1.11466,0.36 1.3533,0.54555 1.3533,1.05224 0,0.35096 -0.25567,0.77548 -0.59531,0.98844 -0.77542,0.48621 -2.697788,0.83782 -2.457823,0.44955 0.09567,-0.1548 0.560887,-0.28146 1.033808,-0.28146 1.040615,0 1.840215,-0.52773 1.629925,-1.07574 -0.47918,-1.24872 -6.080931,-1.45022 -7.06134,-0.25399 -0.241607,0.29479 -0.592841,0.53598 -0.78052,0.53598 -0.813256,0 0.284886,0.4794 1.815119,0.7924 0.909505,0.18603 1.653646,0.44103 1.653646,0.56667 0,0.12564 0.240825,0.46926 0.535167,0.7636 0.453452,0.45345 0.558774,0.47365 0.689766,0.13229 0.08503,-0.22158 0.25837,-0.40288 0.385202,-0.40288 0.126832,0 0.09498,0.29766 -0.07078,0.66146 -0.16576,0.3638 -0.371566,0.64765 -0.457349,0.63077 -0.08578,-0.0169 -0.369239,-0.0861 -0.629904,-0.1538 z m 16.7667,-1.29277 c 0.0127,-0.30822 0.0754,-0.37092 0.15985,-0.15985 0.0764,0.191 0.067,0.4192 -0.0209,0.50712 -0.0879,0.0879 -0.15045,-0.0684 -0.13896,-0.34727 z m -0.93135,-1.30928 c -0.4161,-0.31472 -0.43403,-0.38846 -0.0945,-0.38846 0.23053,0 0.48767,0.17859 0.57144,0.39688 0.1845,0.48082 0.1695,0.48056 -0.47698,-0.008 z m -32.162456,-0.41677 c 0,-0.16109 -0.178594,-0.22435 -0.396875,-0.14059 -0.552621,0.21206 -0.497532,-0.0232 0.07749,-0.33094 0.37674,-0.20162 0.482264,-0.14909 0.512723,0.25527 0.02109,0.28004 -0.01378,0.50915 -0.07749,0.50915 -0.06372,0 -0.115848,-0.1318 -0.115848,-0.29289 z m 17.462501,0.0127 c 0,-0.15411 0.119062,-0.20662 0.264583,-0.11668 0.145521,0.0899 0.264583,0.21603 0.264583,0.2802 0,0.0642 -0.119062,0.11667 -0.264583,0.11667 -0.145521,0 -0.264583,-0.12608 -0.264583,-0.28019 z m 5.024535,-1.37918 c -0.21969,-0.46979 -0.54711,-0.8244 -0.72761,-0.78802 -0.31947,0.0644 -0.4363,-0.24883 -0.34696,-0.93023 0.0241,-0.1842 -0.10031,-0.30327 -0.27657,-0.26458 -0.42604,0.0935 -1.55114,-1.8905 -1.49091,-2.62908 0.0476,-0.58425 0.30722,-0.57964 0.34378,0.006 0.0283,0.45404 0.89278,2.29643 1.07747,2.29643 0.0864,0 0.0861,-0.18477 -5.2e-4,-0.41061 -0.29251,-0.76227 0.29364,-0.13713 0.62777,0.66952 0.19042,0.45973 0.52829,0.79943 0.79512,0.79943 0.4089,0 0.79473,0.91521 0.79473,1.88515 0,0.50693 -0.41861,0.17358 -0.7963,-0.63411 z m -29.056545,-0.79986 c -0.238994,-0.28797 -0.163948,-0.43975 0.354662,-0.7173 0.36179,-0.19362 0.737354,-0.27249 0.834587,-0.17525 0.09723,0.0972 -0.02165,0.17678 -0.264184,0.17678 -0.242535,0 -0.440973,0.13181 -0.440973,0.2929 0,0.16109 0.188543,0.22054 0.418984,0.13211 0.265956,-0.10206 0.378742,-0.0399 0.308804,0.17013 -0.158948,0.47738 -0.858053,0.54697 -1.21188,0.12063 z m 32.234095,-0.33451 c 0,-0.37239 0.10788,-0.61039 0.23974,-0.5289 0.13186,0.0815 0.17751,0.38618 0.10144,0.67707 -0.19038,0.72802 -0.34118,0.66253 -0.34118,-0.14817 z m 12.78071,0.31921 c 0.0884,-0.23042 0.0411,-0.49288 -0.10511,-0.58326 -0.27378,-0.1692 0.16877,-0.91096 0.54349,-0.91096 0.19555,0 0.88336,1.34008 0.74759,1.45654 -0.0418,0.0359 -0.36196,0.15329 -0.71139,0.26092 -0.51393,0.1583 -0.60462,0.11563 -0.47458,-0.22324 z m -27.597379,-2.7859 c 0,-0.14552 0.119063,-0.33817 0.264583,-0.42811 0.145521,-0.0899 0.264584,-0.0445 0.264584,0.10106 0,0.14553 -0.119063,0.33817 -0.264584,0.42811 -0.14552,0.0899 -0.264583,0.0445 -0.264583,-0.10106 z m 21.552869,-1.10684 c -0.15091,-0.24418 1.25572,-0.51189 2.68958,-0.51189 1.31689,0 1.42234,-0.19198 0.48164,-0.87688 -0.86367,-0.62882 -2.02488,-0.49001 -2.36382,0.28256 -0.14388,0.32797 -0.37264,0.55929 -0.50835,0.51405 -0.44474,-0.14824 -0.34554,-1.2668 0.17054,-1.92288 0.57295,-0.7284 0.99629,-0.83285 0.99629,-0.24581 0,0.21828 0.13084,0.39687 0.29074,0.39687 0.15991,0 0.72546,0.20216 1.25678,0.44924 1.48961,0.69272 1.75171,1.26812 0.75096,1.6486 -0.79699,0.30302 -3.6183,0.50248 -3.76436,0.26614 z m -35.311203,-0.15458 c -2.838837,-0.30027 -3.080549,-0.49886 -1.54159,-1.2666 1.034987,-0.51632 0.987654,-0.52665 0.83241,0.18168 -0.07431,0.33904 -0.03517,0.48101 0.09092,0.32978 0.327906,-0.3933 1.676598,-0.49141 1.676598,-0.12197 0,0.17312 -0.182657,0.24174 -0.410617,0.15426 -0.235459,-0.0904 -0.341662,-0.046 -0.248969,0.10399 0.218006,0.35274 1.717919,0.3349 1.717919,-0.0204 0,-0.15509 -0.129314,-0.5236 -0.287364,-0.81892 -0.23816,-0.44501 -0.45335,-0.5083 -1.256771,-0.36967 -0.702201,0.12118 -0.860013,0.0928 -0.572532,-0.10306 0.578735,-0.39423 1.738054,-0.33778 2.103388,0.10242 0.173855,0.20948 0.27773,0.7155 0.230835,1.12448 -0.09161,0.79893 -0.440942,0.90429 -2.334223,0.70404 z m -4.850252,-0.53326 c -0.232234,-0.23223 1.099491,-2.50385 1.733382,-2.95674 0.394553,-0.2819 0.431724,-0.43234 0.181364,-0.734 -0.173195,-0.20869 -0.240339,-0.45399 -0.149209,-0.54512 0.226227,-0.22623 -1.082572,-1.40903 -1.559125,-1.40903 -0.655909,0 -0.420948,-0.65738 0.410507,-1.14853 0.436562,-0.25789 0.79375,-0.58603 0.79375,-0.72922 0,-0.14319 0.264167,-0.61764 0.587037,-1.05435 0.483813,-0.65439 0.530041,-0.8735 0.262899,-1.24606 -0.178275,-0.24862 -0.393792,-0.59603 -0.478925,-0.77202 -0.08513,-0.17598 0.525033,-1.33115 1.355926,-2.56703 1.453185,-2.16148 2.506396,-3.39134 2.506396,-2.92677 0,0.12175 0.386954,-0.20927 0.859896,-0.7356 0.472943,-0.52633 1.198074,-1.03982 1.611401,-1.14108 0.715409,-0.17527 0.734498,-0.15688 0.39742,0.38287 -0.194748,0.31184 -0.50316,0.50977 -0.68536,0.43986 -0.1822,-0.0699 -0.331273,0.042 -0.331273,0.24871 0,0.20671 -0.416719,0.78055 -0.926042,1.2752 -0.509323,0.49464 -0.926042,1.01266 -0.926042,1.15114 0,0.13849 -0.501279,0.75808 -1.113953,1.37688 -1.214852,1.227 -1.191773,1.84838 0.08066,2.17174 0.647004,0.16442 0.729118,0.75259 0.152031,1.08896 -0.929838,0.54199 -1.285861,0.98694 -1.480607,1.85041 -0.265064,1.17526 -0.136846,1.3978 1.185447,2.05748 1.004261,0.50102 1.015865,0.52132 0.303893,0.53146 -0.96229,0.0137 -2.037887,-1.12524 -2.037887,-2.1579 0,-1.11076 0.671151,-2.24134 1.445971,-2.43581 0.368883,-0.0926 0.670695,-0.2832 0.670695,-0.4236 0,-0.14039 -0.40635,-0.0615 -0.903001,0.17535 -0.608429,0.29014 -1.05902,0.78504 -1.381269,1.51708 -0.263047,0.59755 -0.665706,1.26505 -0.894797,1.48333 -0.655229,0.62432 -0.366156,1.35952 0.453645,1.15376 0.644906,-0.16186 0.670213,-0.12594 0.562336,0.7981 -0.07079,0.60639 -0.0091,0.93033 0.165167,0.86776 0.15297,-0.0549 0.251905,-0.34251 0.219855,-0.63914 -0.04511,-0.41754 0.05944,-0.50854 0.463021,-0.403 0.812861,0.21257 0.625791,0.66311 -0.950638,2.28953 -0.30024,0.30976 -0.696286,0.91618 -0.880102,1.3476 -0.295095,0.6926 -0.209247,0.64615 0.733476,-0.39687 0.587228,-0.6497 1.072571,-1.3301 1.078539,-1.51201 0.006,-0.1819 0.248977,-0.33073 0.540018,-0.33073 0.291042,0 0.529167,-0.11103 0.529167,-0.24675 0,-0.13571 0.238125,-0.32233 0.529167,-0.4147 0.30002,-0.0952 0.542457,-0.41802 0.559858,-0.74544 0.02599,-0.48907 0.05006,-0.50222 0.157198,-0.0859 0.09172,0.35642 -0.601274,1.21129 -2.520172,3.10885 -2.566939,2.5384 -2.939779,2.81324 -3.31172,2.4413 z m 2.117291,-5.55562 c -0.07824,-0.0782 -0.281945,-0.0559 -0.452683,0.0496 -0.230172,0.14225 -0.217621,0.24952 0.04854,0.41489 0.352808,0.21919 0.694787,-0.17386 0.404141,-0.4645 z m -0.971205,-0.88302 c 0,-0.14552 -0.0525,-0.26458 -0.116677,-0.26458 -0.06417,0 -0.190262,0.11906 -0.280198,0.26458 -0.08994,0.14553 -0.03743,0.26459 0.116676,0.26459 0.154109,0 0.280199,-0.11906 0.280199,-0.26459 z m 2.373587,-3.95841 c 0.214067,-0.13538 0.306241,-0.32912 0.204832,-0.43053 -0.10141,-0.10141 -0.356078,-0.0419 -0.56593,0.13228 -0.674807,0.56004 -0.316894,-0.89936 0.460404,-1.87732 1.716309,-2.15936 2.014581,-2.59628 2.020972,-2.96039 0.0022,-0.12696 -0.17742,-0.0802 -0.399218,0.10385 -0.221797,0.18407 -0.350027,0.38792 -0.284955,0.453 0.06507,0.0651 -0.229706,0.48248 -0.655064,0.92758 -0.425358,0.44509 -0.773378,0.90153 -0.773378,1.0143 0,0.11278 -0.30073,0.56244 -0.668288,0.99926 -0.378801,0.45018 -0.555724,0.86378 -0.40843,0.95481 0.142921,0.0883 0.192787,0.33539 0.110813,0.54901 -0.168367,0.43875 0.359696,0.51268 0.958242,0.13415 z m 43.021202,10.27808 c 0.16078,-0.26014 -3.10584,-3.40925 -3.53647,-3.40925 -0.38689,0 -1.64539,-1.17964 -1.6376,-1.53498 0.01,-0.44444 0.45174,-0.79256 1.21697,-0.95849 1.92726,-0.41789 2.64673,-2.46393 1.28329,-3.64943 l -0.67068,-0.58315 0.97446,-0.89273 0.97446,-0.89272 -0.50221,-0.87877 c -0.27622,-0.48333 -0.62128,-0.91174 -0.7668,-0.95203 -0.14552,-0.0403 -0.50271,-0.37691 -0.79375,-0.74802 -0.29104,-0.37111 -0.91612,-1.07393 -1.38906,-1.5618 -0.91343,-0.94228 -1.02714,-1.2362 -0.58417,-1.50998 0.15166,-0.0937 0.86603,0.40222 1.5875,1.1021 1.23641,1.19941 1.71586,1.94486 0.98104,1.52532 -0.1819,-0.10385 -0.0174,0.15701 0.36544,0.5797 0.3829,0.42269 0.88414,1.12571 1.11389,1.56227 0.27103,0.51503 0.42144,0.6344 0.42831,0.33994 0.006,-0.2496 -0.35893,-0.87468 -0.81057,-1.38906 -0.45163,-0.51439 -0.69532,-0.93525 -0.54152,-0.93525 0.15381,0 0.49356,0.31098 0.75502,0.69108 0.26145,0.38009 0.92185,1.19708 1.46756,1.81553 1.12861,1.27905 1.21288,1.60729 0.46302,1.80338 -0.39694,0.10381 -0.52842,0.35945 -0.52618,1.02305 0.002,0.72993 0.23386,1.0853 1.32292,2.03176 0.72596,0.6309 1.31993,1.29892 1.31993,1.4845 0,0.20712 -0.50534,0.39726 -1.3087,0.4924 -0.71978,0.0853 -1.66716,0.34037 -2.10529,0.56694 l -0.7966,0.41194 1.07827,1.10005 c 1.01777,1.03833 1.8094,2.43359 1.8094,3.1891 0,0.18657 -0.28629,0.33923 -0.63619,0.33923 -0.34991,0 -0.59097,-0.0732 -0.53569,-0.16263 z m 0.35861,-1.22644 c -0.32551,-0.5457 -1.01388,-1.43831 -1.5297,-1.98357 -0.94742,-1.0015 -1.26786,-2.30292 -0.62018,-2.51881 0.20363,-0.0679 0.25575,0.0555 0.14518,0.34362 -0.14372,0.37454 -0.0667,0.41594 0.46182,0.24819 0.7245,-0.22994 1.32272,-0.9283 1.10164,-1.28602 -0.0821,-0.13282 0.0547,-0.39066 0.30408,-0.57298 0.42403,-0.31006 0.41921,-0.36329 -0.0746,-0.82338 -0.56851,-0.52964 -1.0941,-1.69923 -1.08755,-2.4201 0.004,-0.38453 0.0393,-0.39125 0.26054,-0.0489 0.2317,0.35854 0.30566,0.30694 0.24198,-0.16886 -0.0124,-0.0929 0.12189,-0.25815 0.29848,-0.36729 0.39002,-0.24105 0.10183,-0.78677 -0.41548,-0.78677 -0.24088,0 -0.31526,0.16398 -0.21003,0.46302 0.13077,0.37165 0.0945,0.39964 -0.18398,0.14183 -0.27518,-0.25479 -0.4432,-0.21016 -0.81265,0.21581 -0.25616,0.29536 -0.5343,0.52919 -0.61808,0.51963 -0.0838,-0.01 -0.12256,0.0719 -0.0862,0.18106 0.0364,0.10914 0.15544,0.16867 0.26458,0.13229 0.70426,-0.23475 0.86399,-0.12994 0.90735,0.59532 0.0261,0.43656 -0.0124,0.58539 -0.0855,0.33073 -0.26443,-0.92061 -0.49107,-0.43239 -0.49107,1.05785 v 1.52183 l -1.54754,0.74969 c -1.53484,0.74354 -1.54317,0.75376 -1.01473,1.24607 0.29304,0.27301 0.83776,0.57293 1.2105,0.66648 0.37274,0.0935 1.10114,0.63878 1.61866,1.21162 0.51753,0.57283 1.0343,0.98383 1.14838,0.91332 0.11409,-0.0705 0.4146,0.22252 0.66781,0.65117 0.25321,0.42865 0.52289,0.77936 0.59929,0.77936 0.0764,0 -0.12741,-0.44648 -0.45293,-0.99219 z m -1.50081,-6.75473 c -0.0213,-0.28324 -0.0115,-0.47175 0.0219,-0.41892 0.0334,0.0528 0.20369,0.28457 0.37848,0.51497 0.2501,0.32967 0.24543,0.41893 -0.0219,0.41893 -0.18683,0 -0.35715,-0.23174 -0.37849,-0.51498 z m 2.90939,1.73553 c -0.1819,-0.065 -0.33073,-0.29098 -0.33073,-0.50226 0,-0.31025 -0.10866,-0.32598 -0.56491,-0.0818 -0.43676,0.23374 -0.48464,0.35194 -0.21107,0.52102 0.19461,0.12027 0.4406,0.16506 0.54663,0.0995 0.10603,-0.0655 0.27247,0.01 0.36986,0.16736 0.0974,0.15757 0.25444,0.20274 0.34901,0.10038 0.0946,-0.10236 0.0231,-0.23927 -0.15879,-0.30423 z m -5.09323,-9.16114 c 0,-0.0502 -0.26789,-0.3181 -0.59531,-0.59532 l -0.59531,-0.50402 0.50402,0.59531 c 0.47367,0.55945 0.6866,0.71576 0.6866,0.50403 z m 9.01672,15.28277 c 0.0127,-0.30822 0.0754,-0.37091 0.15986,-0.15985 0.0764,0.191 0.067,0.4192 -0.0209,0.50712 -0.0879,0.0879 -0.15045,-0.0684 -0.13897,-0.34727 z m -38.343693,-0.37482 c 0,-0.3638 0.06005,-0.51263 0.133452,-0.33073 0.0734,0.1819 0.0734,0.47956 0,0.66146 -0.0734,0.1819 -0.133452,0.0331 -0.133452,-0.33073 z m -17.714803,-2.02944 c 0.04953,-1.11738 0.199569,-1.80494 0.408964,-1.87413 0.222491,-0.0735 0.324643,0.17936 0.312133,0.77267 -0.01546,0.73318 -0.05695,0.79268 -0.245987,0.35277 -0.183973,-0.42812 -0.230942,-0.34512 -0.245987,0.43472 -0.01264,0.65497 0.118143,1.01635 0.408077,1.12761 0.345543,0.13259 0.364538,0.2386 0.09989,0.55747 -0.620921,0.74816 -0.815034,0.38708 -0.737095,-1.37111 z m 55.420246,1.32388 c -0.25457,-0.25457 -0.21751,-2.94196 0.0428,-3.10284 0.12054,-0.0745 0.16533,0.51379 0.0995,1.30731 -0.0809,0.97549 -0.0217,1.44275 0.18274,1.44275 0.17892,0 0.24489,-0.24307 0.16158,-0.59531 -0.0774,-0.32742 -0.0385,-0.9525 0.0866,-1.38906 l 0.22742,-0.79375 0.1943,1.11332 c 0.10687,0.61233 0.11713,1.35647 0.0228,1.65365 -0.16858,0.53114 -0.67093,0.71077 -1.01778,0.36393 z m -27.936747,-1.30087 c 0.0127,-0.30822 0.07539,-0.37091 0.159852,-0.15985 0.07643,0.191 0.06703,0.4192 -0.02089,0.50712 -0.08792,0.0879 -0.150453,-0.0684 -0.138964,-0.34727 z m -7.274983,-0.33931 c -0.113975,-0.18442 -0.135774,-0.40675 -0.04844,-0.49409 0.236791,-0.23679 0.494973,0.11147 0.367079,0.49516 -0.08962,0.26886 -0.151942,0.26865 -0.318638,-0.001 z m 14.89568,-1.29228 c -0.0172,-0.10914 -0.0255,-0.26302 -0.0183,-0.34195 0.007,-0.0789 -0.23032,-0.16185 -0.52774,-0.18425 -0.77543,-0.0584 -0.87783,-0.23879 -0.87783,-1.54637 0,-0.64272 -0.0893,-1.16858 -0.19843,-1.16858 -0.39809,0 -0.18054,-0.8373 0.59531,-2.2912 0.43656,-0.8181 0.79375,-1.34557 0.79375,-1.17216 0,0.17695 0.3773,0.0335 0.85989,-0.32689 0.47295,-0.35319 1.28078,-0.77676 1.7952,-0.94125 1.35289,-0.4326 3.60809,-0.26809 3.29389,0.24029 -0.26132,0.42282 0.69383,1.25929 1.26686,1.10944 0.30755,-0.0804 0.47261,-0.0324 0.38361,0.11158 -0.0859,0.13901 -0.0514,0.42232 0.0767,0.62958 0.2516,0.40709 0.34855,0.25957 0.61205,-0.93126 0.0887,-0.40106 0.12452,-0.35902 0.14778,0.17366 0.0247,0.56658 0.13329,0.67601 0.55986,0.56446 1.22667,-0.32078 0.1295,2.60232 -1.72449,4.59439 -1.39295,1.4967 -1.45019,1.52728 -2.95683,1.57977 -1.33544,0.0465 -1.44987,0.0142 -0.87493,-0.24706 0.3638,-0.16532 0.73587,-0.40588 0.82682,-0.53459 0.0923,-0.13066 0.23851,-0.11566 0.331,0.034 0.28594,0.46267 1.16186,0.0383 2.39533,-1.16053 1.18058,-1.14741 2.2252,-2.75513 1.79017,-2.75513 -0.12459,0 -0.61283,0.53791 -1.08498,1.19537 -0.88771,1.23611 -1.98691,1.9414 -3.93075,2.52213 -0.62019,0.18529 -1.25985,0.49621 -1.42146,0.69094 -0.30755,0.37058 -2.05816,0.49954 -2.11246,0.15562 z m 1.95679,-3.52164 c 1.12021,-0.31108 2.77718,-1.64429 3.10049,-2.49465 0.11688,-0.30741 0.1528,-0.87125 0.0798,-1.25297 -0.12052,-0.6305 -0.22816,-0.68529 -1.1758,-0.59855 -1.71507,0.15699 -2.75258,0.6211 -3.71586,1.66221 -0.72584,0.7845 -1.53704,2.30005 -1.53704,2.87164 0,0.20566 2.31327,0.072 3.24838,-0.18768 z m 5.48288,-0.24868 c 0,-0.14552 -0.0525,-0.26458 -0.11668,-0.26458 -0.0642,0 -0.19026,0.11906 -0.2802,0.26458 -0.0899,0.14553 -0.0374,0.26459 0.11668,0.26459 0.15411,0 0.2802,-0.11906 0.2802,-0.26459 z m -14.750526,3.24558 c -0.203755,-0.0707 -0.330729,-0.61053 -0.330729,-1.40623 0,-1.0126 -0.112164,-1.35159 -0.519314,-1.56949 -0.32416,-0.17348 -0.458814,-0.43559 -0.358321,-0.69747 0.08855,-0.23075 0.01862,-0.50753 -0.155399,-0.61508 -0.174015,-0.10755 -0.331492,-0.48249 -0.349947,-0.83319 -0.03637,-0.69122 -0.426587,-1.35655 -0.697519,-1.1893 -0.09265,0.0572 -0.185629,-0.18224 -0.206615,-0.53208 -0.03325,-0.55426 0.07734,-0.63607 0.859896,-0.63607 0.796273,0 0.901339,-0.0825 0.927057,-0.7276 0.09134,-2.29116 0.460851,-4.77312 0.735935,-4.94313 0.112859,-0.0697 0.205199,0.0189 0.205199,0.197 0,0.1781 0.08085,0.64594 0.179661,1.03964 0.147749,0.58869 0.103934,0.68677 -0.246685,0.55222 -0.372691,-0.14301 -0.382261,-0.093 -0.07604,0.39732 0.276423,0.44263 0.281948,0.62928 0.0262,0.88503 -0.387803,0.38781 -0.436864,1.11294 -0.05952,0.87973 0.145521,-0.0899 0.264583,0.0221 0.264583,0.24897 0,0.22687 -0.208359,0.42189 -0.463021,0.43338 -0.276605,0.0125 -0.329866,0.0746 -0.132291,0.15434 0.388919,0.15693 0.450372,1.14769 0.07119,1.14769 -0.142748,0 -0.335052,0.30085 -0.427342,0.66856 -0.109077,0.4346 -0.277244,0.59664 -0.480532,0.46303 -0.172002,-0.11306 -0.09876,-0.008 0.16276,0.23373 0.261519,0.24161 0.47549,0.68107 0.47549,0.97658 0,0.2955 0.105566,0.60252 0.23459,0.68227 0.129024,0.0797 0.313013,0.56301 0.408864,1.07394 0.09585,0.51093 0.287942,0.92897 0.426869,0.92897 0.295308,0 0.334792,1.58458 0.05011,2.01085 -0.106912,0.16008 -0.343214,0.23945 -0.525115,0.17639 z m -22.291147,-1.63398 c 0,-0.12314 0.178594,-0.3721 0.396875,-0.55326 0.323085,-0.26814 0.396875,-0.25483 0.396875,0.0716 0,0.22053 -0.178593,0.46949 -0.396875,0.55326 -0.218281,0.0838 -0.396875,0.0515 -0.396875,-0.0716 z m 19.446876,-0.28868 c 0.08994,-0.14552 0.216026,-0.26458 0.280198,-0.26458 0.06417,0 0.116677,0.11906 0.116677,0.26458 0,0.14552 -0.126089,0.26458 -0.280198,0.26458 -0.154109,0 -0.206614,-0.11906 -0.116677,-0.26458 z m 29.723947,-0.99219 c -0.21355,-0.25466 -0.58219,-0.77556 -0.81919,-1.15755 -0.42185,-0.67993 -0.41689,-0.69453 0.23603,-0.69453 0.36681,0 0.95512,0.28819 1.30734,0.64041 0.64749,0.64749 0.85524,1.41011 0.38414,1.41011 -0.14096,0 -0.19237,-0.16655 -0.11426,-0.37011 0.16375,-0.42672 -0.2963,-0.79789 -0.68851,-0.55549 -0.17643,0.10904 -0.17331,0.33586 0.009,0.67708 0.34155,0.6382 0.19753,0.66111 -0.31486,0.0501 z m 0.0417,-1.25677 c 0,-0.21828 -0.11906,-0.39687 -0.26458,-0.39687 -0.14553,0 -0.26459,0.17859 -0.26459,0.39687 0,0.21828 0.11906,0.39688 0.26459,0.39688 0.14552,0 0.26458,-0.1786 0.26458,-0.39688 z m -55.176507,1.17303 c -0.284764,-0.46076 0.03956,-0.55834 0.402448,-0.12109 0.208689,0.25146 0.228761,0.40327 0.05332,0.40327 -0.154751,0 -0.359846,-0.12698 -0.455766,-0.28218 z m 1.292789,-0.20167 c 0.240835,-0.26612 0.437882,-0.64315 0.437882,-0.83785 0,-0.1947 0.06533,-0.28867 0.145168,-0.20882 0.286309,0.2863 -0.21099,1.53052 -0.611733,1.53052 -0.358754,0 -0.355218,-0.0597 0.02868,-0.48385 z m 27.739449,-0.83906 c 0.03601,-1.15594 0.158012,-1.52528 0.593238,-1.79591 0.503542,-0.3131 0.481802,-0.32824 -0.268505,-0.18696 l -0.816408,0.15372 0.27616,-1.34812 c 0.204885,-1.00018 0.194828,-1.47836 -0.03897,-1.85273 -0.210678,-0.33735 -0.234488,-0.7055 -0.07183,-1.11074 l 0.243292,-0.60614 0.01677,0.64267 c 0.01408,0.53972 0.496759,2.28507 0.729033,2.63618 0.03778,0.0571 0.269664,-0.0619 0.515287,-0.26458 0.405842,-0.33482 0.418495,-0.31571 0.138685,0.20948 -0.400848,0.75238 -0.3889,0.96499 0.04488,0.79853 0.457251,-0.17546 0.477751,0.6157 0.02947,1.1371 -0.187672,0.21828 -0.587643,0.99218 -0.888825,1.71979 l -0.547603,1.32291 z m -28.359901,0.13229 c 0.181158,-0.21828 0.442366,-0.39688 0.580463,-0.39688 0.138097,0 0.07249,0.1786 -0.14579,0.39688 -0.218281,0.21828 -0.479489,0.39687 -0.580462,0.39687 -0.100973,0 -0.03537,-0.17859 0.145789,-0.39687 z m 27.191854,-1.49584 c -0.203336,-0.52902 0.0307,-1.54687 0.355673,-1.54687 0.264774,0 0.263876,0.36384 -0.0033,1.32292 -0.14802,0.5314 -0.217308,0.57544 -0.352405,0.22395 z m -29.246875,-3.43545 c -2.269542,-2.20366 -2.689229,-2.87392 -1.799519,-2.87392 0.191159,0 0.814941,-0.50602 1.386182,-1.12448 1.16705,-1.26353 2.677645,-2.57969 2.960779,-2.57969 0.102981,0 0.406234,0.38696 0.673896,0.8599 0.267662,0.47294 0.845248,1.18732 1.283524,1.5875 0.491035,0.44835 0.64905,0.7276 0.411719,0.7276 -0.332871,0 -1.041728,-0.74318 -2.249402,-2.35833 -0.27222,-0.36407 -0.528099,-0.20029 -1.927691,1.23385 -0.887593,0.90951 -1.46072,1.65547 -1.273616,1.6577 0.26307,0.003 0.258811,0.0556 -0.01879,0.23151 -0.260249,0.1649 -0.275481,0.27906 -0.05538,0.41509 0.166976,0.1032 0.238113,0.39394 0.158081,0.6461 -0.09005,0.28372 0.107543,0.6962 0.518404,1.08219 0.365154,0.34304 0.668684,0.51367 0.67451,0.37916 0.0058,-0.13451 0.190074,0.0864 0.409438,0.49089 0.226973,0.41853 0.525063,0.65745 0.691746,0.55444 0.165613,-0.10236 0.21891,-0.0613 0.122641,0.0945 -0.09364,0.15152 0.01071,0.42567 0.231892,0.60924 0.340231,0.28237 0.450867,0.20469 0.718546,-0.50447 0.174018,-0.46103 0.444625,-0.78902 0.601349,-0.72888 0.156725,0.0601 0.550025,-0.2775 0.874,-0.75031 0.455656,-0.66499 0.534504,-1.00311 0.348192,-1.49315 -0.387755,-1.01987 0.222561,-1.37211 1.271816,-0.73402 l 0.851027,0.51754 -0.750516,0.58043 c -0.412784,0.31924 -0.791379,0.67543 -0.841323,0.79154 -0.04994,0.11612 -0.704788,0.8541 -1.455209,1.63997 l -1.364401,1.42886 z m -0.959514,-2.04589 c -0.01821,-0.49092 -0.145118,-0.71481 -0.358902,-0.63315 -0.181901,0.0695 -0.330729,0.17473 -0.330729,0.23389 0,0.10423 0.625324,1.15873 0.68713,1.15873 0.01687,0 0.018,-0.34176 0.0025,-0.75947 z m 6.281964,-0.17505 c -0.209874,-0.54692 -0.357012,-0.48247 -0.357012,0.15638 0,0.29963 0.113863,0.47441 0.253028,0.38841 0.139166,-0.086 0.185958,-0.33117 0.103984,-0.54479 z m 52.559661,3.60143 c 0,-0.2086 -0.16956,-0.27721 -0.43415,-0.17568 -0.60394,0.23176 -1.41794,-0.0695 -1.41794,-0.52469 0,-0.20847 0.11906,-0.37904 0.26459,-0.37904 0.14552,0 0.26458,0.17859 0.26458,0.39687 0,0.48879 -0.021,0.48919 1.20447,-0.0228 0.985551,-0.41179 3.822611,-2.8888 3.822611,-3.33748 0,-0.12549 -0.20836,-0.3081 -0.46302,-0.4058 -0.78468,-0.30104 -2.539801,-1.57116 -3.356791,-2.4292 -0.82518,-0.86663 -1.20727,-1.02205 -1.20727,-0.49107 0,0.1788 -0.38695,1.13635 -0.8599,2.1279 -0.65945,1.38259 -0.96776,1.77516 -1.32265,1.68414 -0.89204,-0.22879 -0.76114,0.38979 0.30893,1.45985 0.59393,0.59393 1.07987,1.1254 1.07987,1.18104 0,0.34597 -0.61055,-0.0782 -1.94902,-1.35405 -1.15319,-1.09924 -1.40018,-1.4552 -1.00967,-1.4552 0.9639,0 1.97514,-0.75338 2.72832,-2.0326 0.41278,-0.70108 0.75254,-1.48306 0.75502,-1.73772 0.008,-0.80709 0.81801,-0.50667 2.670971,0.99045 0.98941,0.79941 2.1039,1.59243 2.47665,1.76226 0.62073,0.28282 0.97537,1.28219 0.45501,1.28219 -0.12249,0 -1.07499,0.85566 -2.11666,1.90147 -1.04168,1.0458 -1.893951,1.74744 -1.893951,1.55919 z m -56.17999,-1.42045 c -0.412376,-0.46727 -1.061415,-1.17877 -1.442309,-1.5811 l -0.692534,-0.73151 1.430857,-1.44886 1.430857,-1.44885 0.761386,1.22327 c 1.012168,1.6262 1.219776,2.90047 0.5546,3.40406 -0.274632,0.20792 -0.410035,0.38182 -0.300894,0.38645 0.109141,0.005 -0.03969,0.24654 -0.330729,0.53758 -0.291042,0.29104 -0.558932,0.52453 -0.595313,0.51886 -0.03638,-0.006 -0.403544,-0.39262 -0.815921,-0.8599 z m 1.501793,-0.65115 c 0.777061,-0.63023 0.831485,-1.25949 0.187188,-2.16432 -0.298282,-0.4189 -0.542331,-0.88506 -0.542331,-1.03591 0,-0.69056 -0.640417,-0.53067 -1.599001,0.39924 -0.575499,0.55828 -1.046468,1.1069 -1.046597,1.21916 -1.29e-4,0.11226 0.297421,0.33973 0.661223,0.50549 0.363803,0.16576 0.661459,0.43705 0.661459,0.60287 0,0.35867 0.537468,0.93649 0.87108,0.93649 0.129844,0 0.492984,-0.20836 0.806979,-0.46302 z m 12.449983,0.6021 c -0.487749,-0.36255 -0.484246,-0.39048 0.123398,-0.98371 0.61302,-0.59849 0.619566,-0.59914 0.330729,-0.0327 -0.387676,0.76033 -0.376465,0.82228 0.168352,0.93024 0.291132,0.0577 0.354713,0.15997 0.171271,0.27551 -0.160463,0.10107 -0.51765,0.0158 -0.79375,-0.18938 z m 40.778644,-0.13284 c -0.26028,-0.28761 -0.56369,-0.46703 -0.67424,-0.3987 -0.11055,0.0683 -0.27514,-0.17117 -0.36575,-0.53221 -0.16332,-0.65071 0.075,-1.26164 0.9682,-2.48257 0.25466,-0.34808 0.46302,-0.91447 0.46302,-1.25865 0,-0.34417 0.0598,-0.62577 0.13298,-0.62577 0.25118,0 2.116051,2.18525 2.320261,2.71889 0.13605,0.35549 0.0611,0.69203 -0.22435,1.00745 -0.23792,0.2629 -0.34006,0.61698 -0.22955,0.79578 0.11679,0.18898 0.0887,0.25392 -0.0679,0.15712 -0.146861,-0.0908 -0.543191,0.12897 -0.880761,0.48828 -0.741,0.78876 -0.83812,0.79755 -1.4419,0.13038 z m 1.49797,-0.65944 c 1.035631,-0.9603 1.137221,-1.57027 0.42947,-2.57857 -0.82678,-1.17787 -1.10263,-1.33378 -1.32003,-0.74611 -0.10141,0.27415 -0.49069,0.98367 -0.86506,1.57671 -0.37437,0.59304 -0.56012,1.07826 -0.41277,1.07826 0.14735,0 0.2679,0.1357 0.2679,0.30156 0,0.27817 0.7493,0.99351 1.06104,1.01294 0.0742,0.005 0.452,-0.28553 0.83945,-0.64479 z m -40.714291,0.56191 c 0.07881,-0.20537 0.0038,-0.52443 -0.16677,-0.70903 -0.243367,-0.26345 -0.224693,-0.28603 0.08682,-0.10499 0.218281,0.12685 0.605234,0.19637 0.859896,0.15447 0.705108,-0.116 0.552146,0.36071 -0.230105,0.71713 -0.576422,0.26263 -0.669001,0.25294 -0.549843,-0.0576 z m 24.658591,-0.17329 -0.52916,-0.22739 h 0.52916 c 0.29105,0 0.7673,0.10232 1.05834,0.22739 l 0.52916,0.22739 h -0.52916 c -0.29104,0 -0.76729,-0.10233 -1.05834,-0.22739 z m 12.74179,-0.64799 c -0.0983,-0.25625 -0.02,-0.33461 0.23627,-0.23627 0.4185,0.16059 0.5275,0.61968 0.14713,0.61968 -0.12996,0 -0.30249,-0.17253 -0.3834,-0.38341 z m -12.74179,-0.14576 c -0.44344,-0.19056 -0.38987,-0.2304 0.33073,-0.24599 0.47295,-0.0102 0.8599,0.10047 0.8599,0.24599 0,0.31411 -0.45966,0.31411 -1.19063,0 z m -5.3932,-1.33001 c -0.78344,-0.7237 -1.56063,-1.31582 -1.72708,-1.31582 -0.16645,0 -0.99798,-0.36077 -1.84784,-0.8017 -0.981633,-0.50931 -1.750958,-0.74423 -2.109368,-0.64413 -0.412746,0.11528 -0.465097,0.0891 -0.195043,-0.0975 0.299886,-0.20726 0.275069,-0.27513 -0.132292,-0.36179 -0.275783,-0.0587 -0.888377,0.18152 -1.36132,0.53377 -0.472943,0.35225 -0.859896,0.56373 -0.859896,0.46996 0,-0.0938 -0.367933,0.0198 -0.81763,0.25233 -0.449697,0.23254 -0.979415,0.36073 -1.177151,0.28485 -0.212662,-0.0816 -0.307922,-0.003 -0.233204,0.19121 0.07529,0.19621 -0.330938,0.5197 -1.005662,0.80085 -0.622588,0.25942 -1.407612,0.60574 -1.744498,0.7696 -0.485699,0.23625 -0.666023,0.21829 -0.870928,-0.0867 -0.208526,-0.31039 -0.24351,-0.28779 -0.18123,0.11707 0.133827,0.86998 -0.505874,0.75021 -0.681432,-0.12758 -0.280612,-1.40306 -0.193793,-2.06979 0.455747,-3.49994 0.614097,-1.35211 1.332499,-3.36284 1.293753,-3.62107 -0.01092,-0.0728 0.09616,-0.27208 0.237955,-0.44293 0.253958,-0.306 0.03214,-0.64932 -1.559574,-2.41394 -0.764089,-0.84709 -0.800832,-1.90563 -0.06615,-1.90563 0.558243,0 0.726719,-0.64042 0.246546,-0.93719 -0.155442,-0.0961 -0.219918,-0.33807 -0.143281,-0.53778 0.07664,-0.19971 -0.01352,-0.45556 -0.200352,-0.56855 -0.516283,-0.31223 -0.761449,-1.13973 -0.283313,-0.95625 0.272195,0.10445 0.338047,0.0223 0.222801,-0.27806 -0.08998,-0.23448 -0.247871,-0.42633 -0.350871,-0.42633 -0.102999,0 -0.391563,-0.38696 -0.641252,-0.8599 -0.249689,-0.47294 -1.049756,-1.69333 -1.777927,-2.71198 -0.728171,-1.01864 -1.762727,-2.50693 -2.299014,-3.30729 -0.536287,-0.80036 -1.400791,-1.99099 -1.92112,-2.64583 -0.52033,-0.65485 -1.167666,-1.54782 -1.438525,-1.98438 -1.510941,-2.43529 -4.497679,-6.21771 -4.909729,-6.21771 -0.34275,0 -1.378266,4.84574 -1.978916,9.26042 -0.0891,0.65484 -0.210818,1.36922 -0.270493,1.5875 -0.268541,0.98227 -0.450767,4.16551 -0.454387,7.9375 -0.0034,3.52528 -0.03899,3.87816 -0.253651,2.51354 -0.294498,-1.87219 -0.126697,-8.31691 0.275559,-10.58333 1.745292,-9.8335 2.036288,-10.98021 2.786396,-10.98021 0.523023,0 2.9615,2.90195 5.145816,6.12386 2.736368,4.03621 3.280392,4.80191 4.307704,6.06305 0.52623,0.646 1.00248,1.29741 1.058333,1.44758 0.242779,0.65273 2.772201,4.09024 3.011968,4.0933 0.145521,0.002 0.536029,0.4787 0.867796,1.05966 0.331767,0.58097 0.71872,1.0563 0.859896,1.0563 0.141175,0 0.256683,0.16913 0.256683,0.37585 0,0.5347 1.557843,0.8343 1.971782,0.3792 0.17918,-0.197 0.597734,-1.01302 0.930119,-1.81338 0.332386,-0.80037 1.112956,-2.49652 1.734601,-3.76922 0.621644,-1.27271 1.010685,-2.24011 0.864536,-2.14979 -0.14615,0.0903 -1.056719,0.19691 -2.023487,0.23685 -0.966768,0.0399 -2.260616,0.27486 -2.875218,0.52205 -1.00193,0.40298 -1.159216,0.40769 -1.521354,0.0455 -0.57521,-0.57521 -0.507488,-1.05967 0.125007,-0.89427 0.290897,0.0761 0.589954,0.0395 0.664571,-0.0812 0.165002,-0.26698 2.270651,-0.94723 3.647132,-1.17825 0.737446,-0.12376 1.069505,-0.34043 1.250222,-0.81575 0.135341,-0.35597 0.368084,-0.64722 0.517207,-0.64722 0.149123,0 0.274753,-0.26789 0.279178,-0.59532 0.0071,-0.52873 0.03798,-0.54392 0.275768,-0.13579 0.181604,0.3117 0.179016,0.62526 -0.008,0.97479 -0.370262,0.69184 -0.347909,1.11562 0.05496,1.04194 1.493959,-0.27323 6.883073,1.33762 7.805753,2.3332 0.85569,0.92331 0.4373,1.28537 -0.88726,0.76781 -1.40369,-0.54847 -6.243114,-1.77677 -6.396406,-1.62348 -0.160944,0.16095 1.115527,4.00404 1.820766,5.48182 1.51446,3.17345 1.4496,3.09927 2.87527,3.28839 0.72613,0.0963 1.25595,0.27916 1.17737,0.4063 -0.20322,0.32882 -0.0829,0.29712 1.17067,-0.30856 1.72115,-0.83157 0.98219,-1.33096 -0.90046,-0.60852 -0.39525,0.15167 -0.43395,0.0689 -0.27113,-0.57979 0.10446,-0.41619 0.53925,-1.15458 0.96621,-1.64085 0.42696,-0.48628 0.95473,-1.26666 1.17283,-1.73419 0.68045,-1.45862 1.99233,-3.45667 2.90334,-4.42192 0.48071,-0.50932 1.06651,-1.28323 1.30179,-1.71979 0.23528,-0.43656 0.65364,-1.09141 0.92968,-1.45521 0.27604,-0.3638 1.54323,-2.09021 2.81597,-3.83646 3.82241,-5.24452 3.94059,-5.39609 4.33039,-5.55413 0.49122,-0.19916 0.6817,0.13376 1.43699,2.51142 1.03732,3.26553 1.89692,8.53021 2.13839,13.09688 0.0539,1.01864 0.17888,2.05254 0.2778,2.29754 0.0989,0.245 -0.0165,1.61422 -0.25646,3.04271 -0.23998,1.42849 -0.46273,2.77584 -0.495,2.99412 -0.11948,0.80829 -2.04257,4.40225 -2.79838,5.22977 -1.14917,1.25817 -1.34451,1.11166 -1.1595,-0.86963 0.13764,-1.47393 0.0732,-1.89624 -0.44241,-2.89872 -0.33193,-0.64539 -0.82563,-1.41185 -1.0971,-1.70324 -0.27148,-0.29139 -0.49359,-0.60999 -0.49359,-0.70799 0,-0.38603 2.11437,0.13331 2.67708,0.65755 0.71474,0.66589 1.17656,0.70928 1.39832,0.13139 0.31175,-0.81241 0.14266,-8.00052 -0.19142,-8.13752 -0.23089,-0.0947 -0.23406,-0.18487 -0.0122,-0.34657 0.33018,-0.24062 0.27095,-2.37937 -0.13794,-4.98108 -1.0509,-6.68671 -1.10314,-6.81527 -2.07453,-5.10511 -0.3532,0.62182 -0.724,1.19141 -0.824,1.26576 -0.17774,0.13216 -2.37544,3.52449 -3.72752,5.75376 -0.37383,0.61636 -1.13369,1.86651 -1.68857,2.77812 -0.55488,0.91161 -1.49673,2.49091 -2.09301,3.50955 -0.59627,1.01865 -1.33291,2.09925 -1.63696,2.40135 -0.30405,0.30209 -0.79095,0.88978 -1.08199,1.30597 -0.62762,0.8975 -1.68094,2.19014 -2.2843,2.8033 -0.51885,0.52727 -0.37808,1.6359 0.33754,2.65835 0.27035,0.38627 0.49448,0.92205 0.49806,1.19063 0.004,0.26858 0.23341,1.16627 0.51073,1.99488 0.60942,1.82084 0.95154,3.92006 0.63728,3.91031 -0.12566,-0.004 -0.86948,-0.59921 -1.65293,-1.32292 z m 1.05123,-1.06857 c -0.82107,-2.81771 -1.069,-3.33336 -1.38672,-2.88412 -0.22387,0.31653 -0.2462,0.30079 -0.12139,-0.0856 0.0841,-0.26042 0.0504,-0.67714 -0.0748,-0.92604 -0.34246,-0.6803 -0.82194,-2.28719 -0.82194,-2.75455 0,-0.22678 0.46807,-0.89465 1.04017,-1.48415 1.25089,-1.28897 2.03175,-2.43157 1.66174,-2.43157 -0.14815,0 -0.84645,0.60518 -1.55178,1.34486 -1.23406,1.29414 -2.50256,2.25546 -2.0853,1.58031 0.10287,-0.16643 -0.002,-0.59084 -0.23265,-0.94313 -0.23083,-0.35228 -0.41572,-0.97212 -0.41088,-1.37742 l 0.009,-0.73692 0.50907,0.61067 c 0.43741,0.52472 0.59163,0.56648 1.09571,0.29671 0.58529,-0.31324 0.58486,-0.31473 -0.18714,-0.64794 -0.50554,-0.2182 -2.1725,-0.33855 -4.808514,-0.34714 -2.219102,-0.007 -4.125009,-0.069 -4.235349,-0.13714 -0.110339,-0.0682 -0.64693,-0.20772 -1.192423,-0.31005 l -0.991805,-0.18607 1.126112,1.17192 c 0.619361,0.64456 1.20524,1.13346 1.301951,1.08644 0.09671,-0.047 0.24686,0.0641 0.333663,0.24689 0.0868,0.18281 0.10815,0.0646 0.04744,-0.26267 -0.06071,-0.32728 -0.02839,-0.64572 0.07182,-0.70766 0.100215,-0.0619 1.448657,-0.18223 2.996537,-0.26731 l 2.814326,-0.1547 0.31788,0.99465 c 0.17483,0.54706 0.41181,1.09702 0.52661,1.22212 0.34374,0.37458 -0.26843,1.70631 -1.10978,2.41426 -0.571339,0.48075 -0.741258,0.80666 -0.61991,1.18899 0.150326,0.47363 0.278806,0.40898 1.27512,-0.64172 1.04353,-1.10049 1.13872,-1.14434 1.63712,-0.75406 0.39121,0.30635 0.41353,0.37472 0.0856,0.26227 -0.36993,-0.12686 -0.33374,0.0758 0.21809,1.22118 1.74631,3.62468 1.9798,4.18002 1.88146,4.47503 -0.0986,0.29575 1.11009,1.89326 1.29359,1.70975 0.046,-0.046 -0.13957,-0.84977 -0.41241,-1.78612 z m -3.19335,-6.72315 c -0.20869,-0.25146 -0.22876,-0.40327 -0.0533,-0.40327 0.31976,0 0.69257,0.50197 0.50908,0.68545 -0.0666,0.0666 -0.27169,-0.0604 -0.45577,-0.28218 z m -10.978509,7.05616 c -0.08146,-0.0815 -0.294956,-1.7e-4 -0.474432,0.18065 -0.259363,0.26131 -0.228972,0.2917 0.148112,0.14812 0.260938,-0.0994 0.407781,-0.24731 0.32632,-0.32877 z m -0.588564,-0.67676 c 0.101578,0.10158 0.186603,-0.0435 0.188943,-0.32243 0.0023,-0.27891 0.517346,-1.64115 1.144456,-3.02719 0.890815,-1.96888 1.114282,-2.74208 1.021701,-3.53511 -0.06517,-0.55826 -0.203736,-0.87711 -0.307915,-0.70854 -0.133813,0.21651 -0.299063,0.17139 -0.562936,-0.15371 -0.240943,-0.29685 -0.256131,-0.38966 -0.04279,-0.26149 0.596664,0.35846 0.347104,-0.14715 -0.578097,-1.17124 -0.739602,-0.81865 -0.964594,-0.93876 -1.208327,-0.64508 -0.365733,0.44068 0.215075,1.43465 1.363484,2.33342 l 0.760496,0.59518 -0.569007,1.17771 c -0.312954,0.64773 -0.66162,1.47695 -0.774815,1.84269 -0.113195,0.36575 -0.488995,1.37937 -0.835112,2.25249 -0.660569,1.66638 -0.73705,3.21797 -0.09994,2.02752 0.173345,-0.3239 0.398282,-0.5058 0.49986,-0.40422 z m 1.639896,-5.98892 c 0.08994,-0.14552 0.216026,-0.26458 0.280198,-0.26458 0.06417,0 0.116677,0.11906 0.116677,0.26458 0,0.14552 -0.126089,0.26458 -0.280198,0.26458 -0.154109,0 -0.206614,-0.11906 -0.116677,-0.26458 z m 0.77211,6.1894 c 0.230183,-0.0883 0.418515,-0.30634 0.418515,-0.48446 0,-0.35943 1.077876,-1.01997 1.469876,-0.90076 0.255232,0.0776 1.557571,-0.69342 2.186519,-1.2945 0.246763,-0.23583 0.493744,-0.25622 0.842502,-0.0696 0.621486,0.33261 0.79277,0.33249 0.79277,-5.3e-4 0,-0.14552 -0.148828,-0.23482 -0.330729,-0.19844 -0.181902,0.0364 -0.303902,-0.0739 -0.271113,-0.24499 0.03279,-0.17113 -0.303147,-0.39082 -0.746524,-0.4882 -0.443377,-0.0974 -0.740209,-0.24299 -0.659627,-0.32357 0.188516,-0.18852 -1.20094,-1.38988 -1.60798,-1.39031 -0.169774,-1.8e-4 -0.35862,0.089 -0.419657,0.19812 -0.06104,0.10914 -0.07225,0.0432 -0.02492,-0.14644 0.04733,-0.18969 -0.150778,-0.59909 -0.440239,-0.90979 -0.28946,-0.3107 -0.526292,-0.72105 -0.526292,-0.91189 0,-0.19084 -0.119062,-0.34699 -0.264583,-0.34699 -0.34723,0 -0.341839,0.71478 0.007,0.93038 0.14938,0.0923 0.243462,0.30771 0.209072,0.47864 -0.08395,0.41723 0.531525,1.5014 0.852334,1.5014 0.434837,0 2.656887,1.47816 2.483178,1.65187 -0.09006,0.0901 -0.330706,0.0997 -0.53476,0.0214 -0.204054,-0.0783 -0.371008,-0.02 -0.371008,0.1295 0,0.14953 -0.327422,0.35071 -0.727604,0.44707 -0.830153,0.19989 -3.016784,1.7073 -3.177953,2.19081 -0.117336,0.35201 0.19041,0.411 0.841209,0.16127 z m 9.710247,-0.96388 c -0.36172,-0.99594 -3.174548,-1.95033 -3.620668,-1.22849 -0.124571,0.20156 -0.08469,0.24891 0.108889,0.12928 0.168005,-0.10384 0.305464,-0.0488 0.305464,0.12227 0,0.18079 0.2216,0.2531 0.529165,0.17267 0.29104,-0.0761 0.52917,-0.0432 0.52917,0.0731 0,0.38992 0.88087,0.5546 1.12828,0.21093 0.1738,-0.24141 0.20033,-0.2028 0.0917,0.13349 -0.13229,0.40954 0.20415,0.70842 1.08659,0.96526 0.0317,0.009 -0.0397,-0.25112 -0.1586,-0.57854 z m -7.90267,-1.88967 c 0.634208,-0.48143 0.581167,-0.64086 -0.19825,-0.59588 -0.438776,0.0253 -0.661335,0.19394 -0.661459,0.50117 -2.21e-4,0.54813 0.229121,0.5734 0.859709,0.0947 z m 24.34461,-1.68221 c 0.618,-0.68838 1.77515,-3.07861 1.56683,-3.23648 -0.0994,-0.0753 -0.21569,-0.34531 -0.25845,-0.59997 -0.0883,-0.52589 0.37578,-0.63761 0.54953,-0.1323 0.0626,0.18191 0.0651,0.0926 0.006,-0.19843 -0.21305,-1.04288 -0.34551,-2.63937 -0.19194,-2.31346 0.0861,0.18281 0.2655,0.26508 0.3986,0.18282 0.13309,-0.0823 0.24198,-0.004 0.24198,0.17474 0,0.17837 0.0765,0.2478 0.17,0.15431 0.0935,-0.0935 0.0338,-0.3341 -0.13266,-0.53467 -0.16646,-0.20057 -0.31809,-1.03427 -0.33695,-1.85267 -0.0189,-0.81839 -0.12664,-1.43093 -0.23948,-1.36119 -0.11285,0.0697 -0.0675,-0.17104 0.10081,-0.53508 0.1683,-0.36404 0.45482,-0.60604 0.63672,-0.53779 0.1819,0.0683 0.33073,0.009 0.33073,-0.13219 0,-0.14095 -0.1786,-0.25628 -0.39688,-0.25628 -0.23638,0 -0.39523,-0.24073 -0.39282,-0.59531 0.003,-0.4814 0.0531,-0.51937 0.26053,-0.19844 0.19411,0.30037 0.25747,0.18398 0.26053,-0.47864 0.002,-0.48153 -0.0901,-0.8173 -0.20523,-0.74616 -0.11511,0.0711 -0.16324,-0.26511 -0.10696,-0.74722 0.21561,-1.84686 -1.47452,-10.87167 -2.41188,-12.87876 -0.32397,-0.69368 -0.3302,-0.68837 -2.30409,1.96554 -1.08858,1.4636 -2.35402,3.16068 -2.81209,3.77127 -0.45807,0.6106 -0.95355,1.33345 -1.10108,1.60635 -0.14753,0.27289 -1.20149,1.76256 -2.34215,3.31038 -2.07607,2.81713 -3.37637,4.80864 -3.94973,6.04932 -0.16813,0.3638 -0.61852,0.95011 -1.00088,1.30289 -0.38235,0.35279 -0.69519,0.74162 -0.69519,0.86407 0,0.12245 0.36814,-0.16619 0.81808,-0.64143 0.59253,-0.62584 0.77057,-0.71818 0.64578,-0.3349 -0.13821,0.42448 -0.10638,0.46374 0.16088,0.19844 0.18325,-0.18191 0.54375,-0.33073 0.80112,-0.33073 0.30725,0 0.41565,-0.13629 0.31566,-0.39688 -0.0838,-0.21828 -0.0205,-0.39687 0.14059,-0.39687 0.53337,0 0.30353,0.97207 -0.30242,1.27905 l -0.59531,0.30159 0.63491,-0.0627 c 0.79583,-0.0786 1.75183,-1.30639 1.50931,-1.93838 -0.13505,-0.35196 -0.25064,-0.38833 -0.48602,-0.15295 -0.37335,0.37334 -1.26133,0.41034 -1.26133,0.0525 0,-0.14095 0.16655,-0.19236 0.37011,-0.11425 0.20357,0.0781 0.46009,-0.004 0.57005,-0.18148 0.12785,-0.20687 0.0898,-0.25543 -0.10553,-0.13471 -0.168,0.10383 -0.30546,0.0627 -0.30546,-0.0914 0,-0.3649 0.97602,-1.33853 1.34181,-1.33853 0.15592,0 0.0964,0.18709 -0.13229,0.41577 -0.51022,0.51022 -0.52177,0.75438 -0.0541,1.14255 0.29072,0.24128 0.62826,-0.14579 1.71979,-1.97216 0.74694,-1.24979 1.35807,-2.32567 1.35807,-2.39084 0,-0.0652 0.42161,-0.7314 0.9369,-1.48051 0.5153,-0.74911 0.87385,-1.52633 0.79678,-1.72715 -0.0771,-0.20083 -0.0284,-0.2961 0.10816,-0.2117 0.13655,0.0844 0.38395,-0.10007 0.54978,-0.40992 0.16583,-0.30985 0.88618,-1.3647 1.60078,-2.3441 0.7146,-0.97941 1.29927,-1.89122 1.29927,-2.02624 0,-0.13502 0.23458,-0.392 0.52129,-0.57105 0.4361,-0.27235 0.5601,-0.25032 0.75879,0.13479 0.313,0.60671 0.72447,2.51996 1.26549,5.88431 0.40011,2.48813 0.56305,5.79194 0.48279,9.78958 -0.0511,2.54661 -0.0973,4.9498 -0.10257,5.34042 -0.005,0.39061 -0.15021,0.7971 -0.32204,0.9033 -0.20751,0.12824 -0.25901,0.0539 -0.15335,-0.22148 0.0875,-0.228 -0.008,-0.63449 -0.2112,-0.90329 -0.20366,-0.26881 -0.37408,-0.38711 -0.3787,-0.2629 -0.005,0.12422 -0.42928,-0.14367 -0.94367,-0.59531 -1.00876,-0.8857 -1.71058,-1.05978 -1.71058,-0.42428 0,0.21828 0.1028,0.39687 0.22845,0.39687 0.31018,0 1.62363,2.96978 1.62363,3.67111 0,0.68317 0.3069,0.71845 0.86284,0.0992 z m -12.50451,-9.59114 c 0,-0.14552 0.11907,-0.26458 0.26459,-0.26458 0.14552,0 0.26458,0.11906 0.26458,0.26458 0,0.14552 -0.11906,0.26458 -0.26458,0.26458 -0.14552,0 -0.26459,-0.11906 -0.26459,-0.26458 z m 2.81804,-2.86632 c -0.35538,-0.39269 -0.36687,-0.48507 -0.0603,-0.48507 0.20826,0 0.43573,0.21828 0.5055,0.48507 0.0698,0.26679 0.0969,0.48507 0.0603,0.48507 -0.0366,0 -0.26405,-0.21828 -0.50549,-0.48507 z m -0.43678,-1.10243 c 0,-0.14552 0.18562,-0.26458 0.41248,-0.26458 0.22687,0 0.33891,0.11906 0.24897,0.26458 -0.0899,0.14552 -0.27555,0.26458 -0.41249,0.26458 -0.13693,0 -0.24896,-0.11906 -0.24896,-0.26458 z m 2.01706,-1.46544 c -0.25532,-0.66534 -0.18,-0.83702 0.1319,-0.30065 0.15443,0.26557 0.22505,0.5386 0.15693,0.60672 -0.0681,0.0681 -0.1981,-0.0696 -0.28883,-0.30607 z m 9.38091,-1.07015 c 0.0127,-0.30823 0.0754,-0.37092 0.15985,-0.15985 0.0764,0.19099 0.067,0.4192 -0.0209,0.50711 -0.0879,0.0879 -0.15045,-0.0684 -0.13896,-0.34726 z m -8.48756,-0.52273 c 0,-0.22687 0.12101,-0.33771 0.2689,-0.2463 0.1479,0.0914 0.2004,0.27702 0.11668,0.41249 -0.22681,0.36698 -0.38558,0.29855 -0.38558,-0.16619 z m 3.175,-5.15938 c 0,-0.15411 0.11906,-0.20661 0.26459,-0.11668 0.14552,0.0899 0.26458,0.21603 0.26458,0.2802 0,0.0642 -0.11906,0.11668 -0.26458,0.11668 -0.14553,0 -0.26459,-0.12609 -0.26459,-0.2802 z m 2.38125,-3.43958 c 0,-0.15411 0.11906,-0.20662 0.26459,-0.11668 0.14552,0.0899 0.26458,0.21603 0.26458,0.2802 0,0.0642 -0.11906,0.11668 -0.26458,0.11668 -0.14553,0 -0.26459,-0.12609 -0.26459,-0.2802 z m -17.4625,21.44686 c 0,-0.14552 -0.119061,-0.26458 -0.264582,-0.26458 -0.145521,0 -0.264583,0.11906 -0.264583,0.26458 0,0.14552 0.119062,0.26459 0.264583,0.26459 0.145521,0 0.264582,-0.11907 0.264582,-0.26459 z m 21.69584,-1.5875 c 0,-0.14552 -0.12609,-0.26458 -0.2802,-0.26458 -0.15411,0 -0.20662,0.11906 -0.11668,0.26458 0.0899,0.14552 0.21603,0.26459 0.2802,0.26459 0.0642,0 0.11668,-0.11907 0.11668,-0.26459 z m -20.91068,-1.86814 c -0.15104,-0.28221 -0.33698,-0.51311 -0.41321,-0.51311 -0.0762,0 -0.0529,0.14883 0.0517,0.33073 0.10468,0.1819 0.0923,0.24186 -0.0275,0.13323 -0.11983,-0.10862 -0.665188,-1.53737 -1.211904,-3.175 -0.989495,-2.96392 -1.220373,-3.25738 -0.784344,-0.99696 0.203459,1.05476 0.187459,1.13008 -0.143815,0.67704 -0.476411,-0.65154 -0.491204,-0.17057 -0.01614,0.5247 0.196132,0.28704 0.571883,1.09368 0.835,1.79255 0.468053,1.24319 1.32017,2.15071 1.76265,1.87725 0.12219,-0.0755 0.0986,-0.36822 -0.0524,-0.65043 z m -9.913284,-0.51311 c -0.265004,-0.29282 -0.541356,-0.47288 -0.614117,-0.40012 -0.07276,0.0728 0.08453,0.37188 0.349534,0.66471 0.265004,0.29282 0.541356,0.47288 0.614117,0.40012 0.07276,-0.0728 -0.08453,-0.37188 -0.349534,-0.66471 z m 4.730687,-0.36646 c 0.940712,-1.6052 2.045433,-4.73721 1.768565,-5.01408 -0.256852,-0.25685 -1.344507,1.76237 -2.295782,4.2621 -0.713695,1.87543 -0.721234,1.91219 -0.392153,1.91219 0.131694,0 0.54541,-0.52209 0.91937,-1.16021 z m 26.357857,-0.55958 c 0,-0.65484 -0.0902,-1.19062 -0.20035,-1.19062 -0.11018,0 -0.15773,0.53578 -0.10565,1.19062 0.0521,0.65484 0.14224,1.19063 0.20035,1.19063 0.0581,0 0.10565,-0.53579 0.10565,-1.19063 z m -16.40417,-5.09478 c 0,-0.47974 -3.78278,-1.866 -5.35781,-1.96345 -0.545704,-0.0338 -0.992189,-0.13845 -0.992189,-0.23263 0,-0.19155 -2.345928,-0.10213 -4.365625,0.1664 -1.262102,0.1678 -3.488504,1.07832 -3.241264,1.32556 0.06452,0.0645 0.541519,-0.0599 1.06,-0.27658 1.845219,-0.77098 4.500515,-1.03968 6.737748,-0.68181 1.13195,0.18106 2.1944,0.44025 2.36098,0.57597 0.16658,0.13572 0.40471,0.22336 0.52917,0.19475 0.12445,-0.0286 0.58347,0.0998 1.02003,0.28525 0.43657,0.18549 1.09141,0.43261 1.45521,0.54915 0.3638,0.11654 0.69123,0.22213 0.72761,0.23464 0.0364,0.0125 0.0661,-0.0673 0.0661,-0.17725 z m -28.839583,18.22405 c 0,-0.1277 0.190997,-0.3907 0.424438,-0.58444 0.233441,-0.19374 0.521963,-0.60876 0.641159,-0.92227 0.222851,-0.58614 1.315653,-1.0722 1.315653,-0.58518 0,0.16204 0.159439,0.13988 0.393962,-0.0548 0.216679,-0.17983 0.318275,-0.4623 0.225768,-0.62771 -0.113956,-0.20377 -0.05896,-0.19977 0.170543,0.0124 0.270246,0.24983 0.07748,0.5839 -0.953372,1.65222 -1.160043,1.2022 -2.218151,1.73157 -2.218151,1.10973 z m 1.980572,-1.5796 c -0.174634,-0.17463 -1.451405,1.03778 -1.451405,1.37824 0,0.14738 0.355946,-0.073 0.79099,-0.48985 0.435045,-0.4168 0.732232,-0.81657 0.660415,-0.88839 z m 5.257141,-0.56742 c -0.830797,-0.33524 -1.929676,-1.90157 -2.061195,-2.93801 -0.19196,-1.51273 0.771351,-4.17061 1.522041,-4.19947 0.296346,-0.0114 -0.06063,1.08425 -0.526472,1.61585 -0.334268,0.38146 -0.460472,1.81357 -0.306909,3.48265 0.02412,0.26214 0.40154,0.77759 0.838717,1.14545 0.652737,0.54924 0.964194,0.63793 1.74184,0.496 1.163207,-0.21229 2.020288,-0.74302 2.42692,-1.50282 l 0.307939,-0.57539 -0.927421,0.5472 c -1.604795,0.94685 -2.386425,0.98984 -3.200255,0.17601 -0.863456,-0.86346 -1.056608,-1.56247 -0.722615,-2.61514 l 0.251845,-0.79375 -0.03566,0.95946 c -0.04065,1.09376 0.593303,2.22695 1.386724,2.47877 0.341781,0.10847 1.069819,-0.0977 1.989859,-0.56358 1.02393,-0.51847 1.533583,-0.65195 1.731931,-0.4536 0.389445,0.38945 -0.850542,1.82101 -2.152748,2.48535 -1.1077,0.5651 -1.411362,0.5993 -2.264546,0.25502 z m -7.475894,-0.49301 c -0.01452,-0.3428 -0.3313,-0.98562 -0.703954,-1.42849 -0.989416,-1.17586 -2.278067,-3.85687 -2.172399,-4.51964 0.06471,-0.40587 0.271347,-0.0929 0.710368,1.07598 0.340513,0.90658 1.010246,2.09721 1.488297,2.64583 l 0.869184,0.9975 -0.288812,-1.09792 c -0.17791,-0.67633 -0.412667,-1.0504 -0.611353,-0.97415 -0.472357,0.18126 -0.705799,-0.35453 -0.401886,-0.9224 0.297197,-0.55531 0.07021,-1.87109 -0.237023,-1.37397 -0.30261,0.48963 -1.070214,-0.4576 -1.033562,-1.27542 0.01741,-0.38838 -0.03973,-1.48005 -0.126977,-2.42593 -0.121143,-1.31342 -0.09003,-1.60392 0.131676,-1.2294 0.159665,0.26971 0.325509,0.86502 0.368541,1.32291 0.04303,0.45789 0.139363,1.29975 0.21407,1.8708 0.09586,0.73272 0.05853,0.92738 -0.126847,0.66146 -0.226468,-0.32487 -0.248503,-0.32439 -0.159852,0.004 0.05655,0.20919 0.220635,0.41961 0.364625,0.46761 0.167289,0.0558 0.240349,-1.51428 0.202381,-4.34909 -0.03268,-2.44 0.05471,-5.50103 0.194208,-6.80231 0.285093,-2.65948 1.406775,-8.55173 1.679962,-8.82491 0.09807,-0.0981 0.409922,0.11757 0.693005,0.47919 0.652371,0.83338 3.168156,4.80145 3.649563,5.75635 0.200196,0.39709 0.765743,1.33748 1.256771,2.08975 0.491028,0.75226 0.892779,1.45664 0.892779,1.56528 0,0.38993 3.000234,6.45967 3.192976,6.45967 0.346082,0 -0.07148,-1.16905 -0.642877,-1.79987 -0.445675,-0.49203 -0.482357,-0.65221 -0.190644,-0.83249 0.198667,-0.12279 0.631572,-0.19357 0.962009,-0.1573 0.390187,0.0428 0.556247,-0.0501 0.473712,-0.26522 -0.0699,-0.18215 -0.01344,-0.40141 0.125456,-0.48726 0.325864,-0.20139 0.575142,0.73625 0.309853,1.1655 -0.111415,0.18027 -0.328723,0.2498 -0.482906,0.15451 -0.176462,-0.10906 -0.237586,0.0499 -0.164964,0.42912 0.129661,0.677 0.864595,1.32641 1.239128,1.09494 0.135228,-0.0836 0.479513,0.0988 0.765078,0.40535 0.517832,0.55582 0.517567,0.5573 -0.09964,0.5573 -0.340367,0 -0.745914,-0.12706 -0.901217,-0.28237 -0.200101,-0.2001 -0.327779,-0.16402 -0.438236,0.12382 -0.08573,0.22341 -0.04109,0.47712 0.09919,0.56382 0.146875,0.0908 0.07361,0.33909 -0.172733,0.58543 -0.393999,0.394 -0.451634,0.38794 -0.729634,-0.0767 -0.730457,-1.22091 -2.616934,-4.77469 -2.662153,-5.01502 -0.112299,-0.59684 -1.197197,-2.75634 -2.228787,-4.43643 -0.604694,-0.98483 -1.099445,-1.88375 -1.099445,-1.9976 0,-0.11386 -0.143456,-0.35047 -0.318792,-0.5258 -0.175337,-0.17534 -0.681352,-0.95014 -1.12448,-1.72177 -1.761972,-3.06821 -2.05797,-3.44557 -2.326418,-2.96588 -0.136161,0.24331 -0.181309,0.50863 -0.10033,0.58961 0.08098,0.081 0.03582,0.35542 -0.100357,0.60987 -0.136177,0.25445 -0.49593,2.0545 -0.799453,4.00011 -0.963243,6.17449 -0.839798,14.51768 0.214801,14.51768 0.292292,0 0.342885,0.23019 0.218077,0.99219 l -0.162511,0.99219 0.357576,-0.79375 c 0.196667,-0.43657 0.314731,-0.91289 0.262364,-1.05851 -0.154567,-0.42981 2.554623,-1.56285 2.903267,-1.21421 0.213104,0.21311 0.159783,0.41685 -0.197125,0.75325 -0.465249,0.43852 -0.481321,0.43842 -0.327694,-0.002 0.208124,-0.5965 -0.285849,-0.59575 -1.151917,0.002 -0.461913,0.31867 -0.662506,0.69322 -0.648847,1.21152 0.01087,0.41264 -0.141301,0.94842 -0.338166,1.19063 -0.312598,0.38459 -0.321394,0.36497 -0.06945,-0.15494 0.357942,-0.73863 0.129882,-0.79333 -0.261173,-0.0626 -0.177712,0.33206 -0.194691,0.69418 -0.04508,0.96152 0.193855,0.3464 0.386752,0.1583 1.003373,-0.97844 0.419858,-0.774 0.941973,-1.4622 1.160254,-1.52933 0.322653,-0.0992 0.313726,-0.0282 -0.04773,0.3801 -0.500317,0.56508 -0.836309,1.3222 -1.690123,3.80848 -0.355767,1.03598 -0.601091,1.47197 -0.616995,1.09653 z m 31.942584,-0.38016 c -0.7764,-0.59068 -1.17244,-1.1063 -1.23012,-1.60155 l -0.0851,-0.7304 1.33305,0.67551 c 2.59041,1.31265 4.06314,0.72513 3.33129,-1.32895 -0.43724,-1.2272 -0.50098,-2.66017 -0.12856,-2.89034 0.14552,-0.0899 0.26458,-0.0374 0.26458,0.11668 0,0.15411 0.16402,0.2802 0.36448,0.2802 0.64343,0 0.94639,0.66468 1.11054,2.43642 0.25246,2.72509 -0.58569,3.91358 -2.75997,3.91358 -0.785,0 -1.34834,-0.22305 -2.20021,-0.87115 z m 2.15897,0.40813 c -0.004,-0.22227 -1.72857,-1.39133 -2.04354,-1.38501 -0.11118,0.002 -0.0236,0.11946 0.19473,0.26053 0.35278,0.22798 0.35278,0.25816 0,0.27162 -0.21828,0.008 0.0199,0.24329 0.52917,0.52213 1.01413,0.55521 1.32463,0.63303 1.31964,0.33073 z m 1.98765,-0.59531 c 0.44587,-0.49268 0.44739,-0.52917 0.0221,-0.52917 -0.40859,0 -0.41438,-0.0424 -0.0548,-0.40195 0.27101,-0.27101 0.39951,-0.91155 0.39446,-1.96633 -0.007,-1.37705 -0.0683,-1.55979 -0.51534,-1.52612 -0.27932,0.021 -0.50786,0.20609 -0.50786,0.41123 0,0.31 0.0706,0.31436 0.41828,0.0258 0.37292,-0.30951 0.40033,-0.23414 0.25284,0.6952 -0.091,0.57329 -0.3017,1.49923 -0.46825,2.05765 -0.28139,0.94345 -0.36404,1.00815 -1.16786,0.91431 -0.81861,-0.0956 -0.84078,-0.0763 -0.41305,0.35804 0.61016,0.61964 1.45827,0.60355 2.0395,-0.0387 z m -4.49792,-1.32292 c -0.0899,-0.14552 -0.28258,-0.26458 -0.4281,-0.26458 -0.14552,0 -0.191,0.11906 -0.10106,0.26458 0.0899,0.14552 0.28258,0.26458 0.4281,0.26458 0.14552,0 0.191,-0.11906 0.10106,-0.26458 z m -40.348956,0.39687 c 0,-0.21828 0.04679,-0.39687 0.103984,-0.39687 0.05719,0 0.172517,0.17859 0.256279,0.39687 0.08376,0.21829 0.03697,0.39688 -0.103984,0.39688 -0.140954,0 -0.256279,-0.17859 -0.256279,-0.39688 z m 1.322916,-3.82202 c 0,-0.13758 -0.327421,-0.40658 -0.727604,-0.59779 -0.882882,-0.42183 -1.165688,-1.53331 -0.390138,-1.53331 0.278609,0 0.733374,0.25831 1.010589,0.57403 0.451468,0.51417 0.455744,0.55556 0.04101,0.39687 -1.225467,-0.46887 -1.330574,-0.4339 -0.595313,0.19806 0.730356,0.62775 0.820164,0.64653 1.124479,0.23523 0.347361,-0.46948 0.443501,-0.15385 0.17013,0.55854 -0.173995,0.45343 -0.633151,0.57553 -0.633151,0.16837 z m 56.69202,0.0668 c 0.25743,-0.0671 0.61462,-0.0627 0.793751,0.01 0.17913,0.0725 -0.0315,0.12736 -0.468061,0.12197 -0.43656,-0.005 -0.58312,-0.0647 -0.32569,-0.13177 z m -0.0134,-0.74269 c 0.0627,-0.42006 0.29669,-0.53668 1.135061,-0.56559 0.75584,-0.0261 0.83401,-7.9e-4 0.27492,0.0889 -0.42967,0.0689 -0.940441,0.32343 -1.135061,0.56558 -0.32288,0.40176 -0.34694,0.39398 -0.27492,-0.0889 z m 1.397441,0.13229 c 0.0899,-0.14552 0.28259,-0.26458 0.42811,-0.26458 0.14552,0 0.191,0.11906 0.10106,0.26458 -0.0899,0.14552 -0.28258,0.26458 -0.4281,0.26458 -0.14553,0 -0.191,-0.11906 -0.10107,-0.26458 z m -45.747409,-3.92748 c -0.211943,-0.34293 -2.569225,-0.61003 -2.908514,-0.32956 -0.3262,0.26965 -1.747201,0.075 -1.747201,-0.23932 0,-0.38635 0.869906,-0.92976 1.952278,-1.21955 l 1.090431,-0.29195 -0.99511,-0.20107 c -1.367362,-0.27627 -1.576473,-0.73548 -0.291388,-0.63988 1.206806,0.0898 1.213719,0.2413 -0.146237,-3.20536 -0.756665,-1.91768 -0.926509,-2.62011 -0.716463,-2.96311 0.207839,-0.33939 0.361826,-0.37777 0.628328,-0.15659 0.496015,0.41166 1.509117,2.70391 2.055182,4.65007 0.277853,0.99026 0.605498,1.64463 0.82347,1.64463 0.436218,0 0.469038,0.62856 0.0716,1.37118 -0.229966,0.4297 -0.1969,0.63259 0.158867,0.97479 0.420177,0.40417 0.437156,0.37432 0.262119,-0.46084 -0.13097,-0.6249 -0.09923,-0.83865 0.105717,-0.71199 0.355145,0.21949 0.390886,1.64548 0.04658,1.85827 -0.135466,0.0837 -0.310809,0.0479 -0.389651,-0.0797 z m -0.833253,-1.12225 c -0.224715,-0.3636 -2.658505,-0.29095 -2.974826,0.0888 -0.216741,0.2602 0.08702,0.3118 1.42443,0.24194 0.937971,-0.049 1.632899,-0.19724 1.550396,-0.33073 z m 0.262891,-1.10183 c -0.101002,-0.32743 -0.330441,-0.89297 -0.509865,-1.25677 -0.179423,-0.36381 -0.407236,-1.01865 -0.506251,-1.45521 -0.275471,-1.21458 -1.532534,-4.10104 -1.786012,-4.10104 -0.422956,0 -0.22259,0.92537 0.429665,1.98437 0.358515,0.58208 0.655561,1.31168 0.660103,1.62134 0.0045,0.30965 0.193826,1.00712 0.420632,1.54995 0.226806,0.54282 0.345609,1.05371 0.264006,1.13532 -0.18067,0.18067 0.63245,1.11735 0.969956,1.11735 0.132773,0 0.158768,-0.26789 0.05777,-0.59531 z m -12.750457,1.99193 c -0.181901,-0.0648 -0.330729,-0.23397 -0.330729,-0.37595 0,-0.14198 0.126788,-0.17979 0.281751,-0.084 0.337782,0.20876 2.099606,-0.0878 2.099247,-0.35333 -2.72e-4,-0.20048 -2.719625,-1.37749 -2.865456,-1.24024 -0.04817,0.0453 0.04785,0.36052 0.213377,0.7004 l 0.300959,0.61798 -0.542688,-0.62288 c -0.63442,-0.72815 -0.463271,-1.214 0.344233,-0.97718 0.310998,0.0912 0.794826,0.21785 1.075173,0.28143 0.280347,0.0636 0.578003,0.22368 0.661458,0.35578 0.08346,0.1321 0.379996,0.28371 0.658979,0.33693 0.70317,0.13412 0.81685,0.66816 0.211226,0.99228 -0.636348,0.34057 -1.676016,0.5225 -2.10753,0.3688 z m 45.639187,-0.13985 c -0.0614,-0.1819 0.0302,-0.68792 0.2036,-1.12448 0.1734,-0.43656 0.59058,-2.06095 0.92706,-3.60974 0.64979,-2.99095 1.2234,-4.1254 1.94578,-3.8482 0.58532,0.22462 0.54267,1.28942 -0.0973,2.42882 -0.29042,0.51705 -0.76268,1.622 -1.04947,2.45544 -0.2868,0.83344 -0.52544,1.3282 -0.53032,1.09946 -0.01,-0.46937 0.75977,-2.88332 1.04858,-3.28828 0.40947,-0.57413 0.76529,-1.98437 0.50068,-1.98437 -0.14654,0 -0.17941,-0.14883 -0.073,-0.33073 0.10636,-0.1819 -0.0747,-0.0953 -0.40232,0.19235 -0.43993,0.3863 -0.55824,0.71043 -0.45243,1.23948 0.0831,0.4154 -0.11627,1.47403 -0.47446,2.51962 -0.83798,2.44616 -1.03732,3.34388 -0.69564,3.13271 0.15135,-0.0935 0.27947,-0.37141 0.2847,-0.61749 0.007,-0.34723 0.14067,-0.29043 0.59532,0.25372 0.32218,0.38561 0.82392,0.74443 1.11496,0.79737 0.29104,0.0529 0.52917,0.27322 0.52917,0.48951 0,0.29191 -0.34092,0.40021 -1.32292,0.42026 l -1.32292,0.027 1.25677,-0.10766 c 1.37195,-0.11752 1.74544,-0.60783 0.46303,-0.60783 -0.52406,0 -0.79375,-0.13292 -0.79375,-0.3912 0,-0.32398 -0.11671,-0.33803 -0.67911,-0.0818 -0.46359,0.21122 -0.63939,0.46133 -0.55394,0.78807 0.13953,0.53358 -0.24616,0.66877 -0.42204,0.14793 z m 5.09467,-0.18282 c 0,-0.13694 0.11906,-0.32256 0.26458,-0.41249 0.14552,-0.0899 0.26459,0.0221 0.26459,0.24897 0,0.22687 -0.11907,0.41249 -0.26459,0.41249 -0.14552,0 -0.26458,-0.11204 -0.26458,-0.24897 z m 6.70344,-0.16569 c -0.17829,-0.46462 0.3235,-1.11327 0.62667,-0.81009 0.10736,0.10735 0.0235,0.3013 -0.18636,0.431 -0.7036,0.43485 -0.1306,0.50142 0.729691,0.0848 0.80532,-0.39003 0.95549,-1.07415 0.16959,-0.77257 -0.20356,0.0781 -0.37011,0.0362 -0.37011,-0.0932 0,-0.24292 1.11177,-0.52188 1.90659,-0.47839 0.24826,0.0136 0.38886,0.12586 0.31244,0.24951 -0.0764,0.12364 -0.25778,0.15134 -0.40304,0.0616 -0.14526,-0.0898 -0.32411,0.0662 -0.39745,0.34665 -0.13263,0.50718 -1.36161,1.39545 -1.930691,1.39545 -0.16402,0 -0.36982,-0.1866 -0.45733,-0.41466 z m -37.993842,-0.70792 c -0.169885,-0.44271 0.520278,-1.43047 0.794437,-1.13699 0.110644,0.11844 0.05234,0.2685 -0.129558,0.33346 -0.346771,0.12385 -0.476847,0.6519 -0.132292,0.53704 0.109141,-0.0364 0.234492,0.0529 0.278559,0.19844 0.122999,0.40618 -0.656307,0.47156 -0.811146,0.068 z m -13.667879,-0.39878 c -0.01403,-0.39995 0.131056,-0.59398 0.442132,-0.59126 0.2856,0.002 0.351494,0.0785 0.171965,0.19844 -0.160081,0.10691 -0.359041,0.37298 -0.442133,0.59126 -0.100948,0.26519 -0.158007,0.19935 -0.171964,-0.19844 z m 43.563181,-0.93094 c -0.0931,-0.24265 -0.073,-0.5007 0.0448,-0.57346 0.31548,-0.19498 1.2537,0.56475 1.00481,0.81365 -0.11683,0.11682 -0.31059,0.0536 -0.43058,-0.1406 -0.17883,-0.28935 -0.23904,-0.29038 -0.33393,-0.006 -0.0839,0.25176 -0.16233,0.22594 -0.28506,-0.0939 z m -31.818254,-0.51623 c -0.0929,-0.24208 -0.129067,-0.6297 -0.08038,-0.86138 0.07566,-0.36002 0.133053,-0.34922 0.394969,0.0744 0.181473,0.29349 0.214253,0.64478 0.08038,0.86139 -0.185388,0.29996 -0.256462,0.28658 -0.39497,-0.0744 z m -15.602274,-0.39793 c -0.716022,-0.176 -1.143473,-0.54824 -2.028487,-1.76647 -0.873391,-1.20223 -0.962504,-1.75237 -0.253837,-1.56705 0.70065,0.18323 2.668146,2.25148 2.801751,2.94523 0.06141,0.31886 0.08872,0.56593 0.06069,0.54905 -0.02802,-0.0169 -0.289079,-0.0892 -0.580121,-0.16076 z m -0.822528,-1.77607 c -0.981754,-1.17449 -1.42643,-1.4719 -1.42643,-0.95403 0,0.37494 2.091029,2.50622 2.276712,2.32054 0.08747,-0.0875 -0.295155,-0.7024 -0.850282,-1.36651 z m 17.15565,1.43836 c -0.290432,-0.72852 -0.196759,-1.06939 0.285098,-1.03745 0.216286,0.0143 0.207926,0.0639 -0.02666,0.15803 -0.258254,0.10362 -0.268306,0.22565 -0.04113,0.49938 0.165352,0.19924 0.243434,0.51508 0.173516,0.70187 -0.07747,0.20698 -0.23012,0.0813 -0.390824,-0.32183 z m 38.634066,0.0716 c -0.58627,-0.20515 -0.35446,-0.84415 0.6499,-1.7915 0.988161,-0.93206 1.840361,-1.36817 2.122401,-1.08613 0.084,0.084 -0.19286,0.7076 -0.61525,1.38578 -0.752191,1.20769 -1.497011,1.72282 -2.157051,1.49185 z m 1.19941,-0.74915 c 0.613121,-0.42944 1.547881,-1.97273 1.188641,-1.96243 -0.26447,0.008 -1.093711,0.7244 -1.906201,1.64776 -0.72613,0.82522 -0.28656,1.01798 0.71756,0.31467 z m -40.953056,-0.38081 c -0.238467,-0.15411 -0.2711,-0.2581 -0.08176,-0.26054 0.173312,-0.002 0.388698,0.11502 0.478635,0.26054 0.203016,0.32848 0.111422,0.32848 -0.396875,0 z m -1.058333,-1.03944 c 0,-0.31078 0.171827,-0.54806 0.396875,-0.54806 0.218281,0 0.396875,0.068 0.396875,0.15119 0,0.0832 -0.178594,0.32978 -0.396875,0.54806 -0.352778,0.35278 -0.396875,0.33598 -0.396875,-0.15119 z m -0.264583,-1.47411 c -0.186995,-0.22531 -0.280459,-0.46919 -0.207699,-0.54195 0.07276,-0.0728 0.285287,0.0521 0.472282,0.27737 0.186994,0.22532 0.280459,0.4692 0.207698,0.54196 -0.07276,0.0728 -0.285287,-0.0521 -0.472281,-0.27738 z m 40.547392,-0.58574 c -0.8245,-0.2987 -0.0447,-2.20693 0.88907,-2.17561 0.44112,0.0148 0.43264,0.0439 -0.072,0.24745 -0.67767,0.27327 -1.05733,1.25495 -0.64486,1.66741 0.15998,0.15998 0.29351,0.17776 0.29675,0.0395 0.003,-0.13825 0.2366,-0.54901 0.5186,-0.91282 0.47953,-0.61865 0.50313,-0.62404 0.36461,-0.0833 -0.18462,0.72077 -0.9129,1.37645 -1.35212,1.21733 z M 15.507918,129.58 c 0.210636,-1.10623 0.26129,-1.15604 0.405965,-0.39922 0.06523,0.34124 -0.03649,0.76532 -0.226044,0.9424 -0.280204,0.26175 -0.313847,0.16018 -0.179921,-0.54318 z m 16.925654,-0.75795 c -1.295057,-1.67891 -1.108482,-1.98632 0.220908,-0.36398 1.027552,1.254 1.481429,1.42461 0.91938,0.34561 -0.372565,-0.71524 -0.96123,-1.31895 -1.708448,-1.75212 -0.521605,-0.30238 -0.521479,-0.30504 0.01488,-0.31301 0.600344,-0.009 2.501764,2.26914 2.501764,2.99734 0,0.83841 -0.935173,0.39981 -1.948481,-0.91384 z m -17.724713,0.60773 c -0.224305,-0.63647 0.166661,-1.37985 0.721736,-1.37231 0.213952,0.003 0.211541,0.0593 -0.0085,0.1993 -0.168771,0.10738 -0.350074,0.55204 -0.402897,0.98813 -0.09131,0.75382 -0.106602,0.76293 -0.310317,0.18488 z m 37.19192,0.16153 c -0.47686,-0.47686 -0.41683,-0.62481 0.72705,-1.79179 1.36904,-1.39669 1.63542,-1.3737 0.42797,0.0369 -1.34325,1.56928 -1.17494,1.8586 0.24396,0.41937 0.65485,-0.66422 1.19063,-1.40524 1.19063,-1.6467 0,-0.26448 -0.12145,-0.36397 -0.30547,-0.25024 -0.18925,0.11697 -0.23364,0.0726 -0.11667,-0.11668 0.28559,-0.4621 0.68672,-0.36591 0.68672,0.16468 0,0.43808 -1.9456,3.28171 -2.35074,3.43577 -0.10045,0.0382 -0.32701,-0.0749 -0.50345,-0.25135 z m -9.107803,-1.90972 c -0.785086,-0.57718 -0.982266,-1.5159 -0.547422,-2.60614 0.222982,-0.55905 0.514538,-0.91327 0.671745,-0.81611 0.163591,0.10111 0.199069,0.0443 0.08631,-0.13811 -0.1053,-0.17038 -0.319552,-0.23061 -0.476117,-0.13385 -0.188505,0.11651 -0.236668,-0.0751 -0.14258,-0.56732 0.07815,-0.4088 0.03121,-1.06131 -0.1043,-1.45004 -0.160283,-0.45978 -0.146712,-0.96892 0.03883,-1.45695 0.276336,-0.72682 0.296651,-0.73385 0.652486,-0.22582 0.214826,0.3067 0.393725,1.34004 0.431007,2.48953 0.03505,1.08085 0.173819,2.39888 0.308364,2.92894 0.328458,1.29402 -0.225259,2.4854 -0.918328,1.97587 z m 0.471163,-1.68288 c -0.04421,-0.41666 -0.260756,-0.75969 -0.510671,-0.80896 -0.511016,-0.10075 -0.547066,0.20918 -0.130642,1.12313 0.377862,0.82931 0.743627,0.65013 0.641313,-0.31417 z m -0.150835,-4.41197 c 0,-0.9886 -0.376585,-1.45633 -0.633498,-0.78682 -0.198296,0.51675 0.07825,1.69725 0.397597,1.69725 0.129745,0 0.235901,-0.4097 0.235901,-0.91043 z m -6.697266,2.85622 c -0.296267,-0.29627 -0.207583,-0.62801 0.148828,-0.55673 0.181901,0.0364 0.314406,-0.14093 0.294456,-0.39403 -0.01995,-0.25309 0.06768,-0.39592 0.194743,-0.3174 0.295623,0.18271 0.139554,1.2515 -0.19924,1.36443 -0.141287,0.0471 -0.338742,0.004 -0.438787,-0.0963 z m 12.260901,-0.48169 c -0.43205,-0.52058 -0.23167,-1.01659 0.43039,-1.06537 0.43051,-0.0317 0.53462,0.1113 0.51405,0.70619 -0.0281,0.81379 -0.43783,0.96961 -0.94444,0.35918 z m 0.52178,-0.27348 c 0,-0.21828 -0.11532,-0.39687 -0.25628,-0.39687 -0.14095,0 -0.18774,0.17859 -0.10398,0.39687 0.0838,0.21828 0.19909,0.39688 0.25628,0.39688 0.0572,0 0.10398,-0.1786 0.10398,-0.39688 z m 20.23916,-0.39924 c -0.22372,-0.36199 0.10189,-1.32055 0.44857,-1.32055 0.17008,0 0.14682,0.15945 -0.0595,0.40809 -0.25085,0.30225 -0.2615,0.48527 -0.0411,0.7057 0.30203,0.30203 0.30674,0.29597 0.66006,-0.84921 0.10108,-0.32759 0.15609,-0.31545 0.31515,0.0695 0.33592,0.81304 -0.87323,1.71448 -1.32318,0.98645 z m -53.524804,-0.86119 c -0.189806,-0.2287 -0.170862,-0.46782 0.06233,-0.78673 0.375053,-0.51291 0.679567,-0.35346 0.679567,0.35585 0,0.61482 -0.397594,0.84573 -0.741895,0.43088 z m 0.477311,-0.45936 c 0,-0.14552 -0.0525,-0.26458 -0.116677,-0.26458 -0.06417,0 -0.190261,0.11906 -0.280198,0.26458 -0.08994,0.14552 -0.03743,0.26458 0.116677,0.26458 0.154109,0 0.280198,-0.11906 0.280198,-0.26458 z m 0.967844,-2.29535 c -0.256769,-0.25677 -0.211712,-1.14423 0.05809,-1.14423 0.127702,0 0.367295,0.16279 0.532429,0.36177 0.226815,0.27329 0.212607,0.4345 -0.05809,0.65916 -0.197085,0.16357 -0.436678,0.21905 -0.532429,0.1233 z m 0.27123,-0.66468 c -0.08446,-0.21106 -0.147157,-0.14837 -0.159852,0.15986 -0.01149,0.27891 0.05104,0.43518 0.138964,0.34726 0.08792,-0.0879 0.09732,-0.31612 0.02089,-0.50712 z M 67.454969,118.793 c 0,-0.14552 0.11906,-0.26458 0.26459,-0.26458 0.14552,0 0.26458,0.11906 0.26458,0.26458 0,0.14552 -0.11906,0.26458 -0.26458,0.26458 -0.14553,0 -0.26459,-0.11906 -0.26459,-0.26458 z"
       id="path1" /></g></svg>
