<?xml version="1.0" encoding="UTF-8" standalone="no"?>
<!-- Created with Inkscape (http://www.inkscape.org/) -->

<svg
   width="61.118748mm"
   height="71.015137mm"
   viewBox="0 0 61.118748 71.015137"
   version="1.1"
   id="svg1"
   xml:space="preserve"
   xmlns="http://www.w3.org/2000/svg"
   xmlns:svg="http://www.w3.org/2000/svg"><defs
     id="defs1" /><g
     id="layer1"
     transform="translate(-9.086449,-120.20744)"><path
       style="fill:#000000"
       d="m 38.575464,190.59864 c -0.357187,-0.35719 -0.649432,-0.89838 -0.649432,-1.20265 0,-0.70846 1.136194,-1.85208 1.840057,-1.85208 1.508027,0 2.213767,2.2293 1.026064,3.24114 -0.749541,0.63856 -1.450681,0.5796 -2.216689,-0.18641 z m 1.613775,-0.96112 c 0.272658,-0.44117 -0.340575,-0.94708 -0.70557,-0.58208 -0.305309,0.3053 -0.114226,0.86972 0.294447,0.86972 0.128344,0 0.313349,-0.12944 0.411123,-0.28764 z m -0.983416,-4.33156 c -0.262914,-0.57704 -0.241878,-0.76544 0.126605,-1.13393 0.577529,-0.57752 1.047788,-0.13639 0.929393,0.87184 -0.115639,0.98476 -0.664642,1.12102 -1.055998,0.26209 z m -5.065638,-4.1782 c -0.352195,-0.32742 -1.240167,-1.25016 -1.97327,-2.05052 l -1.332916,-1.45521 -0.702926,-3.83646 c -0.386609,-2.11005 -0.862918,-4.07458 -1.058464,-4.36562 -0.195545,-0.29104 -2.32163,-2.83285 -4.72463,-5.64845 -3.70476,-4.3409 -4.57362,-5.21405 -5.71427,-5.74252 -1.3555,-0.62801 -1.73992,-1.30646 -0.91881,-1.62155 0.2345,-0.09 0.77853,0.0444 1.20894,0.29867 0.43042,0.25425 0.8203,0.42091 0.86639,0.37035 0.0461,-0.0506 0.12715,-1.26864 0.18012,-2.70685 0.0948,-2.57414 0.0853,-2.62319 -0.61003,-3.14463 l -0.70633,-0.52971 -1.334,0.82082 c -1.2133,0.74655 -1.37166,0.78316 -1.75019,0.40462 -0.52709,-0.52709 -0.23479,-0.90846 1.18805,-1.55007 0.58292,-0.26286 1.05985,-0.55234 1.05985,-0.6433 0,-0.091 -0.47583,-0.79865 -1.05741,-1.57265 -0.90065,-1.19866 -1.0378,-1.55061 -0.92517,-2.37413 0.0727,-0.53177 0.30792,-3.64576 0.52264,-6.91998 0.21473,-3.27422 0.51902,-7.91062 0.67619,-10.30311 0.15718,-2.39249 0.34532,-4.44632 0.41809,-4.56406 0.0728,-0.11775 0.27411,-0.21015 0.44742,-0.20535 0.25293,0.007 4.6988,5.22395 11.385248,13.35981 0.740824,0.90142 0.744543,0.92312 0.264584,1.54437 -0.26774,0.34656 -1.909402,2.46097 -3.648152,4.6987 -5.96806,7.68079 -5.78341,7.40147 -5.17468,7.82785 0.48348,0.33864 0.53082,0.66828 0.53082,3.69617 v 3.32438 l 2.98694,3.47364 c 1.64281,1.9105 3.56227,4.15825 4.26547,4.995 0.703196,0.83674 1.38072,1.52135 1.505606,1.52135 0.124886,0 0.470031,-0.47625 0.766988,-1.05833 0.517114,-1.01363 1.114387,-1.34521 1.448709,-0.80427 0.08636,0.13974 -0.20965,0.98045 -0.657806,1.86824 l -0.814829,1.61417 0.65481,3.55399 0.654809,3.554 1.520805,1.72152 1.520804,1.72152 h 1.93739 1.937391 v -1.38321 c 0,-1.36977 -0.01965,-1.40297 -2.021492,-3.41663 -2.833941,-2.85066 -2.811973,-2.87308 2.815242,-2.87308 3.80172,0 4.538971,0.0637 4.669357,0.40349 0.102642,0.26748 -0.568025,1.13703 -1.989668,2.57968 -2.074199,2.10486 -2.144599,2.2174 -2.147511,3.43297 l -0.003,1.25678 h 1.953994 1.953994 l 1.585423,-1.63022 1.585423,-1.63021 0.561625,-3.21399 c 0.71233,-4.07643 0.711806,-4.09108 -0.211505,-5.92015 -0.480647,-0.95216 -0.690938,-1.66455 -0.555869,-1.88309 0.354158,-0.57305 0.967776,-0.12902 1.616351,1.16963 0.57612,1.15357 0.631143,1.19286 1.045622,0.74669 0.486799,-0.52402 5.0395,-5.98034 6.957633,-8.33857 l 1.234392,-1.51762 V 154.904 c 0,-2.59156 0.08317,-3.34766 0.396875,-3.60801 0.218281,-0.18116 0.396875,-0.4834 0.396875,-0.67165 0,-0.31505 -5.818349,-8.07864 -8.290953,-11.06285 -1.266792,-1.5289 -1.449121,-1.08114 2.31489,-5.68483 1.467824,-1.79527 3.025959,-3.70586 3.462521,-4.24575 2.331974,-2.88396 4.961867,-5.85159 5.185639,-5.85159 0.14021,0 0.307665,0.14883 0.372123,0.33073 0.06446,0.1819 0.419848,4.73604 0.789754,10.12031 0.369907,5.38427 0.738792,10.42652 0.819745,11.20499 0.141337,1.35916 0.104361,1.4662 -0.93035,2.6933 -0.592645,0.70285 -1.077536,1.37647 -1.077536,1.49694 0,0.12047 0.553515,0.55338 1.230032,0.96201 1.09981,0.66431 1.187514,0.78548 0.828421,1.14458 -0.359094,0.35909 -0.543315,0.3298 -1.740081,-0.27664 l -1.338469,-0.67826 -0.700069,0.83199 c -0.464372,0.55187 -0.650183,1.01778 -0.551897,1.38383 0.08149,0.30351 0.149797,1.37627 0.151784,2.3839 l 0.0036,1.83206 0.638949,-0.60026 c 0.440884,-0.41419 0.809961,-0.54598 1.190625,-0.42516 0.804036,0.25519 0.685961,0.568 -0.553226,1.46567 -1.122286,0.81298 -1.49294,1.23263 -7.382824,8.35878 l -3.328351,4.02696 -0.626948,3.74007 -0.626948,3.74007 -1.954604,2.10394 -1.954603,2.10394 h -4.989405 c -4.808074,0 -5.012678,-0.0216 -5.629761,-0.59531 z m 6.960847,-5.88698 1.16851,-1.19062 h -2.491426 -2.491427 l 1.16851,1.19062 c 0.64268,0.65484 1.237993,1.19063 1.322917,1.19063 0.08492,0 0.680236,-0.53579 1.322916,-1.19063 z m 20.043969,-27.44236 1.070917,-1.39722 -0.343402,-4.8948 c -0.868984,-12.38633 -1.015654,-14.17755 -1.188096,-14.50961 -0.1253,-0.24128 -0.894309,0.50824 -2.409238,2.34817 -1.223856,1.48642 -3.32652,4.01873 -4.672588,5.62736 -1.346067,1.60863 -2.447396,3.02425 -2.447396,3.14582 0,0.12157 0.39291,0.64977 0.873133,1.17379 l 0.873133,0.95275 0.804119,-1.82055 c 1.064243,-2.40948 2.126795,-4.06148 2.612309,-4.06148 0.661431,0 0.454616,0.75398 -1.095672,3.99444 l -1.489229,3.11283 2.990197,3.97433 c 1.644608,2.18588 3.071354,3.92416 3.170546,3.86286 0.09919,-0.0613 0.662263,-0.74021 1.251267,-1.50869 z m -39.891462,-0.53733 c 0.79531,-1.05502 2.07401,-2.7053 2.84155,-3.66728 0.76754,-0.96198 1.39553,-1.88837 1.39553,-2.05865 0,-0.17028 -0.83344,-1.84185 -1.85209,-3.71461 -1.87751,-3.45176 -2.1549,-4.25165 -1.47441,-4.25165 0.53297,0 1.13057,0.83662 2.79733,3.91619 0.80037,1.47879 1.52458,2.69088 1.60936,2.69355 0.0848,0.003 0.52372,-0.45502 0.97541,-1.01709 l 0.82125,-1.02193 -4.11933,-4.99734 c -5.94983,-7.21798 -5.60032,-6.84549 -5.7465,-6.12451 -0.0667,0.32891 -0.1861,1.78863 -0.26537,3.24384 -0.0793,1.45521 -0.2732,4.37224 -0.43097,6.48229 -0.15777,2.11006 -0.37572,5.14615 -0.48435,6.74688 l -0.19749,2.91042 1.07124,1.38906 c 0.58918,0.76398 1.19309,1.38906 1.34203,1.38906 0.14893,0 0.9215,-0.8632 1.71681,-1.91823 z m -4.84695,22.11476 c -0.097,-0.097 -0.17639,-0.75186 -0.17639,-1.45521 v -1.27882 h -1.29461 c -0.85581,0 -1.34203,-0.12359 -1.43453,-0.36463 -0.22787,-0.59383 0.37739,-0.95829 1.59143,-0.95829 h 1.13771 v -1.15822 c 0,-1.16917 0.50856,-1.95968 1.04674,-1.62706 0.1519,0.0939 0.27618,0.75897 0.27618,1.47798 v 1.3073 h 1.15823 c 1.16916,0 1.95967,0.50857 1.62706,1.04675 -0.0939,0.15189 -0.75897,0.27617 -1.47799,0.27617 h -1.3073 v 1.45521 c 0,1.23472 -0.0735,1.45521 -0.48507,1.45521 -0.26679,0 -0.56445,-0.0794 -0.66146,-0.17639 z m 45.212821,-1.26503 -0.180093,-1.44142 -1.239455,-0.0799 c -1.036421,-0.0668 -1.239456,-0.16662 -1.239456,-0.6091 0,-0.44164 0.202856,-0.5423 1.226349,-0.60857 1.133876,-0.0734 1.238618,-0.14075 1.389063,-0.89297 0.08949,-0.44746 0.162713,-1.10507 0.162713,-1.46135 0,-0.47408 0.124159,-0.62418 0.463021,-0.55976 0.357114,0.0679 0.481207,0.40212 0.54253,1.46124 l 0.07951,1.37322 1.375699,0.0795 c 1.172807,0.0678 1.375699,0.15755 1.375699,0.60868 0,0.45181 -0.203047,0.54086 -1.389063,0.60914 l -1.389062,0.08 v 1.44138 c 0,1.23562 -0.07119,1.44138 -0.498681,1.44138 -0.405456,0 -0.532347,-0.26946 -0.678774,-1.44142 z m -31.960108,-9.07704 c -1.086423,-0.67361 -1.599643,-1.94912 -1.332133,-3.31072 0.20593,-1.04813 0.28138,-1.12494 1.179252,-1.20035 1.992536,-0.16735 3.91823,1.3915 3.920706,3.17381 5.44e-4,0.39159 0.125833,0.78915 0.27842,0.88345 0.189654,0.11721 0.179404,0.28958 -0.0324,0.54478 -0.447102,0.53873 -3.095053,0.47871 -4.013848,-0.091 z m 2.141201,-1.09282 c 0.515222,-0.32651 0.279991,-1.08469 -0.522159,-1.68299 -0.565101,-0.42149 -0.799356,-0.46197 -1.256771,-0.21716 -0.730005,0.39068 -0.717844,1.20158 0.02583,1.72247 0.655516,0.45914 1.218872,0.51624 1.7531,0.17768 z m 13.706017,1.16871 c -0.08197,-0.21362 -0.03518,-0.45877 0.103984,-0.54478 0.139165,-0.086 0.253028,-0.46272 0.253028,-0.83714 0,-1.50856 1.83875,-3.25676 3.42545,-3.25676 0.878459,0 1.866216,1.15281 1.866216,2.17806 0,1.80412 -1.440372,2.84902 -3.927303,2.84902 -1.138307,0 -1.613473,-0.10721 -1.721375,-0.3884 z m 3.737724,-1.34639 c 0.611693,-0.42845 0.798,-1.5438 0.308417,-1.84638 -0.833616,-0.5152 -2.621028,0.948 -2.271316,1.85934 0.198612,0.51757 1.215036,0.51086 1.962899,-0.013 z M 9.735879,155.67364 c -0.35718,-0.35719 -0.64943,-0.89838 -0.64943,-1.20265 0,-0.75679 1.15506,-1.85209 1.95315,-1.85209 0.89802,0 1.83265,1.21277 1.6224,2.10522 -0.19095,0.81052 -1.06116,1.59895 -1.7648,1.59895 -0.28154,0 -0.80413,-0.29224 -1.16132,-0.64943 z m 1.68508,-1.29072 c 0.0495,-0.25521 -0.0833,-0.4411 -0.31512,-0.4411 -0.49152,0 -0.78818,0.43131 -0.55555,0.80772 0.23932,0.38723 0.7676,0.16478 0.87067,-0.36662 z m 55.49195,1.08753 c -0.226533,-0.32342 -0.411878,-0.83845 -0.411878,-1.1445 0,-0.7161 1.053624,-1.70705 1.815017,-1.70705 0.715946,0 1.88915,1.11174 1.88915,1.79017 0,1.46424 -2.45562,2.25589 -3.292289,1.06138 z m 1.903226,-1.06561 c -0.06063,-0.1819 -0.268993,-0.33073 -0.463021,-0.33073 -0.194027,0 -0.402387,0.14883 -0.46302,0.33073 -0.06558,0.19674 0.122002,0.33073 0.46302,0.33073 0.341019,0 0.528602,-0.13399 0.463021,-0.33073 z m -31.393527,-4.2025 c -1.178325,-1.3291 -2.142409,-2.52966 -2.142409,-2.6679 0,-0.27238 3.862642,-4.71872 4.363344,-5.02271 0.316031,-0.19187 4.367906,4.52933 4.367906,5.08944 0,0.36534 -3.917889,5.01773 -4.225551,5.01773 -0.121485,0 -1.184965,-1.08745 -2.36329,-2.41656 z m 3.762061,-0.89513 c 0.864202,-0.98538 1.223811,-1.6016 1.117486,-1.91489 -0.08623,-0.25408 -0.719176,-1.07933 -1.406554,-1.83391 l -1.249777,-1.37194 -1.412918,1.69614 -1.412918,1.69614 1.386451,1.59403 c 0.762548,0.87672 1.457892,1.59254 1.54521,1.5907 0.08732,-0.002 0.732176,-0.65716 1.43302,-1.45627 z m -7.224648,-10.18036 c -0.189437,-0.11708 -0.271287,-0.40348 -0.181888,-0.63645 0.171003,-0.44563 1.90164,-0.53125 8.645816,-0.42775 2.860951,0.0439 3.490101,0.23173 2.951223,0.88104 -0.244082,0.2941 -1.412707,0.3728 -5.688952,0.38308 -2.959973,0.007 -5.536762,-0.0829 -5.726199,-0.19992 z m 5.200733,-4.14684 c -0.09701,-0.097 -0.176388,-1.57071 -0.176388,-3.27489 0,-2.39002 0.0881,-3.17162 0.385285,-3.41826 0.767573,-0.63703 0.937631,-0.0121 0.937631,3.44558 0,3.14382 -0.03969,3.42396 -0.485069,3.42396 -0.266788,0 -0.564445,-0.0794 -0.661459,-0.17639 z m -0.58529,-9.46887 c -0.80657,-0.80657 -0.825776,-1.55548 -0.05954,-2.32171 0.367594,-0.36759 0.641785,-1.04061 0.727604,-1.78594 0.09506,-0.82555 0.260652,-1.19605 0.534591,-1.19605 0.288709,0 0.419579,0.36031 0.480181,1.32201 0.05228,0.82965 0.231012,1.40466 0.479906,1.54395 0.956355,0.5352 0.881959,1.96077 -0.143409,2.74803 -0.651356,0.50009 -1.310181,0.39886 -2.01933,-0.31029 z m 1.613775,-0.96112 c 0.272658,-0.44117 -0.340575,-0.94708 -0.70557,-0.58209 -0.305309,0.30531 -0.114226,0.86972 0.294447,0.86972 0.128344,0 0.313349,-0.12943 0.411123,-0.28763 z"
       id="path1" /></g></svg>
