<?xml version="1.0" encoding="UTF-8" standalone="no"?>
<!-- Created with Inkscape (http://www.inkscape.org/) -->

<svg
   width="67.192604mm"
   height="71.051086mm"
   viewBox="0 0 67.192604 71.051086"
   version="1.1"
   id="svg1"
   xml:space="preserve"
   xmlns="http://www.w3.org/2000/svg"
   xmlns:svg="http://www.w3.org/2000/svg"><defs
     id="defs1" /><g
     id="layer1"
     transform="translate(-5.3283729,-196.64989)"><path
       id="path9"
       style="fill:#000000"
       d="m 38.902535,196.65001 c -0.0027,1.6e-4 -0.0055,8.1e-4 -0.0078,0.001 -0.517598,0.14215 -4.127393,4.18167 -3.967717,4.44003 0.356173,0.5763 1.060936,0.18813 2.524394,-1.39061 l 1.532723,-1.65364 1.736845,1.84743 c 1.649278,1.75452 1.759474,1.82377 2.196248,1.38699 0.436774,-0.43677 0.353926,-0.56623 -1.648995,-2.58123 -1.141741,-1.14863 -2.194321,-2.05996 -2.365747,-2.05001 z m 0.12609,3.93568 c -0.356556,-0.008 -0.715552,0.15951 -1.059883,0.50384 -0.670938,0.67094 -0.670938,1.33607 0,2.18902 0.439546,0.5588 0.529167,1.07312 0.529167,3.03806 v 2.36574 l -2.280998,0.31885 c -4.09874,0.57338 -7.893323,2.02379 -11.345044,4.33668 -2.994101,2.00625 -8.069792,7.68569 -8.069792,9.02943 0,0.2331 0.220521,0.41806 0.498161,0.41806 0.32119,0 0.892031,-0.60463 1.607137,-1.70222 1.200881,-1.84318 4.675187,-5.332 6.689514,-6.71742 3.116367,-2.14339 8.09881,-3.9446 11.297502,-4.08399 l 1.471228,-0.0641 0.132292,2.11408 c 0.107582,1.71923 0.216854,2.12997 0.58446,2.19987 0.392206,0.0746 0.462247,-0.20521 0.529167,-2.11408 l 0.077,-2.19987 1.5875,0.0941 c 3.339912,0.19843 8.061229,1.90766 11.160559,4.04006 2.038846,1.40276 5.096959,4.4686 6.617167,6.63422 0.966167,1.37636 1.554869,1.98993 1.814359,1.89033 0.599949,-0.23022 0.467945,-0.67724 -0.724503,-2.45308 -3.34116,-4.97579 -8.211603,-8.63886 -13.851351,-10.41745 -1.732661,-0.54643 -5.371492,-1.24334 -6.49056,-1.24334 -0.134991,0 -0.245463,-1.10453 -0.245463,-2.45463 0,-2.12733 0.07058,-2.51518 0.529167,-2.90783 0.679515,-0.58182 0.67523,-1.52502 -0.01034,-2.26085 -0.335801,-0.36044 -0.689891,-0.545 -1.046448,-0.55345 z m 0.0026,16.37884 c -0.795977,0 -1.112863,0.85128 -0.808219,2.17196 0.556346,2.4119 0.65314,2.32596 -2.608626,2.32596 -2.586976,0 -3.00179,-0.0678 -4.034896,-0.65836 -0.925846,-0.52928 -1.517791,-0.65845 -3.021521,-0.66145 -3.534242,-0.006 -6.406517,1.39435 -8.006747,3.90363 -1.634706,2.56335 -4.597131,12.47263 -4.575431,15.30501 0.0388,5.05612 5.28542,8.19896 9.870199,5.9123 0.628416,-0.31342 2.123933,-1.53687 3.323311,-2.71869 l 2.180745,-2.14871 3.573942,-0.0832 3.573943,-0.0832 v 1.56425 c 0,1.06758 -0.125997,1.66861 -0.396875,1.89342 -0.602927,0.50039 -0.495715,1.75283 0.191202,2.23397 0.796121,0.55762 1.159148,0.51872 1.645895,-0.17621 0.521216,-0.74415 0.527637,-1.63226 0.01499,-2.05776 -0.566785,-0.47039 -0.549593,-3.05963 0.0217,-3.27887 0.834784,-0.32034 5.669991,-0.16714 6.535518,0.20722 0.468269,0.20254 1.684549,1.22413 2.703195,2.26963 2.488791,2.55441 3.437102,3.03861 5.953125,3.03961 2.19803,9.7e-4 3.21182,-0.38691 4.719608,-1.80454 1.931056,-1.81558 2.517948,-4.26685 1.78232,-7.44451 -0.68821,-2.97282 -3.068331,-10.47248 -3.754809,-11.83132 -0.852767,-1.68799 -2.269548,-3.04618 -4.047299,-3.87986 -1.30069,-0.60996 -1.811375,-0.69298 -4.25607,-0.69298 -2.457342,0 -2.874474,0.0687 -3.6127,0.59531 -0.739962,0.52781 -1.153733,0.59531 -3.65094,0.59531 h -2.816882 l 0.178284,-1.57251 c 0.224393,-1.98338 0.0061,-2.92541 -0.676962,-2.92541 z m 9.562207,4.50206 c 0.361165,-1.8e-4 0.802931,0.016 1.369426,0.0408 2.133443,0.0933 2.634126,0.21128 3.885551,0.91829 0.905307,0.51146 1.753222,1.27184 2.2934,2.05569 1.372203,1.9912 4.579299,12.29829 4.580599,14.7221 0.0016,2.97128 -2.517,5.54103 -5.423442,5.53403 -1.874059,-0.005 -3.166668,-0.7112 -5.291666,-2.89233 -1.018646,-1.04556 -2.180441,-2.07434 -2.581755,-2.28617 -0.686041,-0.3621 -3.762499,-0.43595 -15.617651,-0.37465 -0.892605,0.005 -1.251832,0.2456 -3.307292,2.22002 -1.268256,1.21825 -2.806763,2.4684 -3.41943,2.77812 -1.927028,0.97415 -4.562838,0.61224 -6.120039,-0.84026 -1.095051,-1.02143 -1.735709,-2.56755 -1.720309,-4.15272 0.02257,-2.32864 2.83072,-11.78125 4.218864,-14.20171 1.436537,-2.50483 3.816928,-3.63563 7.337537,-3.48558 1.765024,0.0752 2.315866,0.20447 2.930053,0.68782 0.736634,0.57971 0.922612,0.59531 7.090007,0.59531 h 6.333463 l 1.18184,-0.69247 c 0.820133,-0.48065 1.177351,-0.62579 2.260844,-0.62631 z m -36.403462,2.12855 c -0.07225,-0.003 -0.159734,0.007 -0.262,0.0305 -0.40775,0.0925 -5.3927642,6.42399 -6.1432942,7.80262 l -0.4563029,0.83819 1.1565186,1.54306 c 0.63606,0.84881 2.1009152,2.71544 3.2556152,4.14755 1.8882293,2.34187 2.1407173,2.56287 2.5063073,2.19728 0.36559,-0.36558 0.25538,-0.60107 -1.09399,-2.33939 -0.82517,-1.06302 -2.1631623,-2.79164 -2.9734623,-3.84162 l -1.4732951,-1.90945 2.9517578,-3.86591 c 2.5077836,-3.28426 3.2305766,-4.57397 2.5321456,-4.60282 z m 53.812219,0.0357 c -0.0088,-3.1e-4 -0.01797,-3e-5 -0.02687,5.2e-4 -0.154376,0.008 -0.31287,0.13309 -0.383956,0.31833 -0.103095,0.26866 0.833942,1.76522 2.662887,4.25297 1.773133,2.41184 2.748033,3.96196 2.623612,4.17132 -0.108906,0.18324 -1.366695,1.84431 -2.795178,3.69125 -2.453693,3.1725 -2.839317,3.85227 -2.421041,4.27054 0.09701,0.097 0.267121,0.17673 0.377755,0.17673 0.209675,0 6.290586,-7.79572 6.479708,-8.30699 0.123757,-0.33456 -5.937878,-8.3932 -6.438884,-8.5602 -0.02553,-0.008 -0.0515,-0.0135 -0.07803,-0.0145 z m -16.117879,1.83607 c -0.389773,-0.009 -0.770408,0.18883 -1.238168,0.59118 -0.96461,0.82973 -1.023285,2.37823 -0.117822,3.11143 1.341109,1.08597 3.463355,0.17584 3.463355,-1.48518 0,-0.66155 -0.204232,-1.05537 -0.813904,-1.56838 -0.504555,-0.42455 -0.903689,-0.64015 -1.293461,-0.64905 z m -21.903573,0.81235 c -1.055026,-0.0428 -1.925566,0.0168 -1.934766,0.13229 -0.0092,0.11552 -0.03899,0.86516 -0.06614,1.66553 l -0.04961,1.45521 -1.455208,0.13229 -1.455208,0.1323 v 1.85208 1.85208 l 1.521354,0.0791 1.521354,0.0796 v 1.39785 c 0,0.76885 0.0841,1.48194 0.187069,1.58491 0.102974,0.10324 0.966177,0.15289 1.918229,0.11059 l 1.73116,-0.077 0.07906,-1.50843 0.07906,-1.50895 1.508435,-0.0791 1.508435,-0.0786 v -1.85208 -1.85208 l -1.508952,-0.0791 -1.508951,-0.0791 -0.07855,-1.64073 -0.07855,-1.64073 z m 22.043099,0.53072 c 0.371189,-0.005 0.66805,0.30537 0.59738,0.80305 -0.05455,0.38417 -0.296932,0.6266 -0.681096,0.6811 -0.758373,0.10769 -1.080843,-0.63792 -0.518831,-1.19993 0.193191,-0.19319 0.408115,-0.28179 0.602547,-0.28422 z m -22.956222,0.47335 h 0.820105 0.820622 v 2.77813 0.73897 h 0.0093 c 0.148449,5e-4 0.29643,-0.0149 0.444417,-0.0253 0.1298,-0.008 0.260122,-0.0135 0.390157,-0.0165 0.107174,-0.002 0.214234,-0.002 0.321428,-0.003 0.108368,0.006 0.215609,-0.009 0.322977,-0.0207 0.02829,-0.003 0.05497,-0.004 0.0801,-0.004 0.04341,0.001 0.08201,0.007 0.115755,0.0176 0.144819,-0.0131 0.347509,6.7e-4 0.630969,0.0243 0.861399,0.0713 1.003224,0.17807 1.075904,0.80977 0.07277,0.63246 0.03345,0.71703 -0.763261,0.72657 -0.0063,0.003 -0.01282,0.005 -0.01912,0.008 -0.08754,0.0313 -0.17372,0.0674 -0.26665,0.0801 -0.09163,0.019 -0.183099,0.0345 -0.276469,0.0413 -0.119256,0.0154 -0.238373,0.0216 -0.358634,0.0176 -0.110218,0 -0.220511,-10e-6 -0.330729,0 -0.124834,3e-5 -0.249821,3.8e-4 -0.374655,5.1e-4 -0.120518,7e-5 -0.241219,-2.8e-4 -0.361735,5.2e-4 -0.117982,0.001 -0.235524,0.003 -0.353466,0.006 -0.0808,0.003 -0.161554,0.005 -0.242363,0.008 4.3e-5,0.003 0,0.006 0,0.009 v 0.34675 0.37776 0.34416 0.34003 0.3452 c 0.0022,0.11817 0.01744,0.23601 0.02584,0.35398 0.0067,0.10004 0.0098,0.20057 0.01292,0.30076 0.0053,0.16858 -0.05472,0.27686 -0.132808,0.32298 -7.67e-4,0.009 -0.0015,0.018 -0.0026,0.0269 -6.35e-4,0.009 -0.0016,0.0186 -0.0036,0.0274 v 5.2e-4 c -0.03972,0.22871 -0.217113,0.2958 -0.337447,0.20102 -0.07157,0.011 -0.15349,0.017 -0.245463,0.017 -0.146148,0 -0.269984,-0.0158 -0.37052,-0.0465 -0.07874,0.0131 -0.166024,-0.0279 -0.224276,-0.12971 -0.05858,-0.0635 -0.08888,-0.1435 -0.08888,-0.23926 0,-0.0307 0.004,-0.0595 0.01188,-0.0858 -0.0051,-0.051 -0.0089,-0.1019 -0.0124,-0.15296 -0.0073,-0.11232 -0.0088,-0.22494 -0.01034,-0.33745 -0.0013,-0.10967 -0.0018,-0.2195 -0.0021,-0.32918 -2.39e-4,-0.10157 4.1e-5,-0.2028 0,-0.30437 -3.7e-5,-0.1076 6e-6,-0.21537 0,-0.32298 -5e-6,-0.10927 -5.15e-4,-0.21836 -5.16e-4,-0.32763 v -0.32246 -0.12041 c -0.15433,-0.0483 -0.251148,-0.11649 -0.251148,-0.19223 0,-0.14731 -0.711409,-0.26459 -1.60507,-0.26459 -1.594894,0 -1.604544,-0.005 -1.521354,-0.7276 0.07895,-0.68619 0.174094,-0.73514 1.671216,-0.8599 l 1.5875,-0.13229 -0.09302,-1.65364 z M 45.991007,229.4 c -0.910647,0 -1.936832,1.12138 -1.936832,2.11667 0,0.51551 0.240199,1.05772 0.649572,1.46709 1.296935,1.29694 3.319178,0.40313 3.319178,-1.46709 0,-1.16028 -0.917999,-2.11667 -2.031918,-2.11667 z m 7.768002,0 c -1.113918,0 -2.031918,0.95639 -2.031918,2.11667 0,0.78671 0.159387,1.1454 0.697115,1.56838 0.383427,0.3016 0.984012,0.54828 1.334803,0.54828 0.910647,0 1.936832,-1.12137 1.936832,-2.11666 0,-0.99529 -1.026185,-2.11667 -1.936832,-2.11667 z m 13.796573,1.3224 c -0.369464,-0.0135 -0.728355,0.0876 -0.958597,0.31781 -0.526268,0.52627 -0.377565,1.7275 0.270267,2.18126 0.789201,0.55278 1.143009,0.51935 1.782837,-0.16743 0.647638,-0.69516 0.667941,-0.97166 0.127641,-1.74304 -0.255239,-0.36441 -0.747122,-0.57127 -1.222148,-0.5886 z m -57.18979,5.2e-4 c -0.6884939,0 -1.5012008,0.73821 -1.5012008,1.36374 0,0.26849 0.2381267,0.72647 0.5291667,1.01751 0.29105,0.29104 0.7077621,0.52916 0.9260421,0.52916 0.53326,0 1.455208,-0.95081 1.455208,-1.50068 0,-0.62881 -0.780706,-1.40973 -1.409216,-1.40973 z m 43.345674,0 c 0.182644,0 0.480302,0.17859 0.661459,0.39687 0.26278,0.31664 0.26278,0.47712 0,0.79375 -0.181157,0.21829 -0.478815,0.39688 -0.661459,0.39688 -0.182645,0 -0.4803,-0.17859 -0.661458,-0.39688 -0.26278,-0.31663 -0.26278,-0.47711 0,-0.79375 0.181158,-0.21828 0.478813,-0.39687 0.661458,-0.39687 z m -7.665165,0.0506 c 0.376712,-1.7e-4 0.675594,0.3184 0.606165,0.80512 -0.108843,0.76302 -0.892993,0.91701 -1.25212,0.24598 -0.209033,-0.39058 -0.181783,-0.59616 0.111104,-0.83923 0.176045,-0.1461 0.363618,-0.21179 0.534851,-0.21187 z m 3.947563,2.58124 c -0.06755,-0.002 -0.135046,-0.002 -0.202572,0.003 -0.648246,0.0399 -1.282447,0.38534 -1.651579,1.09916 -0.475814,0.92012 -0.267863,1.9512 0.501778,2.49028 1.320131,0.92466 3.350184,-0.002 3.350184,-1.52962 0,-1.25912 -0.984537,-2.02618 -1.997811,-2.0624 z m -0.118856,1.33687 c 0.673158,0 0.966213,0.664 0.526583,1.19372 -0.17962,0.21643 -0.416698,0.39378 -0.526583,0.39378 -0.385419,0 -0.851218,-0.79133 -0.699182,-1.18753 0.08447,-0.22013 0.399006,-0.39997 0.699182,-0.39997 z m 6.605281,13.80949 c -0.341425,-0.003 -0.897927,0.4253 -2.371948,1.67018 -3.322336,2.80586 -8.252938,4.87007 -12.673128,5.30562 l -1.861902,0.18345 -0.07493,-3.27111 c -0.06489,-2.84706 -0.133403,-3.28256 -0.529166,-3.35846 -0.406874,-0.078 -0.462567,0.25544 -0.529167,3.17139 l -0.07441,3.25923 -1.5875,-0.0589 c -3.952313,-0.14663 -8.968896,-2.20097 -12.7894,-5.23741 -1.973544,-1.56852 -2.953308,-1.97667 -2.953308,-1.23041 0,0.43092 2.576925,2.65614 4.622456,3.99148 3.127156,2.04142 7.141857,3.43296 11.186398,3.87729 l 1.653646,0.18138 v 1.68569 c 0,1.33284 -0.110748,1.79643 -0.529167,2.21485 -0.635691,0.63569 -0.671654,1.2663 -0.117306,2.05775 0.465514,0.66461 1.365032,0.76253 2.09548,0.22841 0.631332,-0.46164 0.663946,-1.98707 0.05013,-2.3306 -0.345602,-0.19342 -0.4408,-0.64442 -0.4408,-2.08566 0,-1.75804 0.02761,-1.83865 0.626835,-1.83865 2.410202,0 7.237954,-1.29876 10.08879,-2.71405 3.146979,-1.56232 7.144303,-4.93196 6.552571,-5.52369 -0.109847,-0.10985 -0.210563,-0.17671 -0.344165,-0.17777 z m -13.858585,14.14952 c -0.288081,-0.007 -0.713643,0.39424 -1.853117,1.57717 l -1.750281,1.81694 -1.546675,-1.65364 c -1.463982,-1.56533 -2.188362,-1.96687 -2.535246,-1.4056 -0.08426,0.13634 0.769406,1.26796 1.897042,2.51509 1.127637,1.24713 2.126532,2.23675 2.219502,2.19935 0.09297,-0.0374 1.096288,-1.05667 2.229838,-2.2655 1.867058,-1.99104 2.022316,-2.23685 1.648479,-2.61069 -0.105142,-0.10514 -0.196815,-0.17044 -0.309542,-0.17312 z" /></g></svg>
