<?xml version="1.0" encoding="UTF-8" standalone="no"?>
<!-- Created with Inkscape (http://www.inkscape.org/) -->

<svg
   width="68.965904mm"
   height="71.898689mm"
   viewBox="0 0 68.965904 71.898689"
   version="1.1"
   id="svg1"
   xml:space="preserve"
   xmlns="http://www.w3.org/2000/svg"
   xmlns:svg="http://www.w3.org/2000/svg"><defs
     id="defs1" /><g
     id="layer1"
     transform="translate(-82.030475,-112.93869)"><path
       style="fill:#000000"
       d="m 116.10352,184.42489 c 0,-0.22687 0.11906,-0.33891 0.26458,-0.24897 0.14552,0.0899 0.26459,0.27556 0.26459,0.41249 0,0.13693 -0.11907,0.24897 -0.26459,0.24897 -0.14552,0 -0.26458,-0.18562 -0.26458,-0.41249 z m 0.68366,-1.37345 c 0.12765,-0.91656 0.0789,-1.12448 -0.26353,-1.12448 -0.30441,0 -0.42739,0.2733 -0.4465,0.99219 -0.0233,0.87777 -0.05,0.91591 -0.23162,0.33073 -0.11289,-0.36381 -0.14353,-0.94576 -0.0681,-1.29324 0.0952,-0.4384 -0.0311,-0.76235 -0.41239,-1.05834 -0.49506,-0.38426 -0.52229,-0.5446 -0.27462,-1.61717 0.15121,-0.65485 0.29219,-1.66474 0.31328,-2.24421 0.0336,-0.9221 -0.0442,-1.07208 -0.62311,-1.20172 -0.36381,-0.0815 -1.23806,-0.41154 -1.94278,-0.73348 -0.70473,-0.32193 -1.57614,-0.65933 -1.93646,-0.74976 -0.62828,-0.15769 -0.64777,-0.12518 -0.4755,0.79313 0.22562,1.20264 -0.0324,2.28395 -0.5451,2.28395 -0.21919,0 -0.39183,0.24004 -0.39183,0.54479 0,0.3159 -0.11767,0.47205 -0.28007,0.37168 -0.16011,-0.099 -0.20821,-0.50032 -0.11229,-0.93704 0.0923,-0.42017 0.0208,-1.4208 -0.15887,-2.22362 -0.27701,-1.23783 -0.55196,-1.67458 -1.80905,-2.87363 -2.03425,-1.94036 -3.58442,-4.05904 -4.56415,-6.23805 -0.82301,-1.83046 -0.82682,-1.83416 -1.46157,-1.41826 -0.362,0.23719 -0.57495,0.57717 -0.49386,0.78847 0.0835,0.2175 0.0267,0.29992 -0.13681,0.19883 -0.15365,-0.095 -0.34477,0.0774 -0.42471,0.38313 -0.08382,0.32055 -0.359766,0.55579 -0.65195,0.55579 -0.278637,0 -0.575145,0.17859 -0.658907,0.39687 -0.08376,0.21828 -0.305413,0.39688 -0.492556,0.39688 -0.187143,0 -0.411166,0.18477 -0.497828,0.41061 -0.09036,0.23546 -0.046,0.34167 0.103984,0.24897 0.143854,-0.0889 0.2704,-0.0653 0.281214,0.0524 0.01081,0.11773 0.06281,0.51171 0.115541,0.87551 0.05273,0.36381 0.03396,0.51263 -0.04171,0.33073 -0.07567,-0.1819 -0.32084,-0.33073 -0.544813,-0.33073 -0.31067,0 -0.337353,0.0842 -0.112539,0.35508 0.162077,0.19529 0.216343,0.43341 0.120592,0.52916 -0.297913,0.29792 0.170895,0.19171 0.963868,-0.21835 0.826931,-0.42762 1.32431,-0.28058 2.686944,0.79435 1.05927,0.83562 1.23227,1.40658 1.22974,4.0585 l -0.002,2.47603 -0.64972,-0.64972 c -0.41287,-0.41287 -0.70384,-1.07436 -0.79818,-1.81457 -0.30539,-2.39625 -0.81972,-2.57353 -3.586762,-1.23632 l -1.790367,0.86522 0.167242,1.05833 c 0.219215,1.38723 0.140084,1.29198 2.201517,2.65006 2.64469,1.74233 3.25351,3.40424 1.888507,5.15515 -0.692338,0.88807 -1.227373,0.43941 -0.803982,-0.67419 0.585124,-1.53899 -0.439612,-2.96969 -2.74479,-3.83217 -1.686964,-0.63117 -1.892093,-0.84125 -2.134528,-2.18607 -0.09954,-0.55214 -0.503553,-1.36492 -0.897816,-1.80617 -0.698848,-0.78215 -0.758824,-0.79754 -2.389459,-0.61305 -1.07093,0.12116 -1.72503,0.32584 -1.81833,0.56898 -0.0802,0.20885 0.0972,1.21261 0.39418,2.23056 0.48925,1.67715 0.4968,1.8118 0.0805,1.43505 -0.25268,-0.22867 -0.5308,-0.34438 -0.61804,-0.25714 -0.30973,0.30974 -1.25364,-2.26366 -1.25364,-3.41785 0,-0.7158 -0.1535,-1.30013 -0.39396,-1.4997 -0.21668,-0.17983 -0.33855,-0.41662 -0.27083,-0.5262 0.16433,-0.26588 -0.7859,-1.11233 -1.00394,-0.8943 -0.30275,0.30275 -0.92658,-0.43776 -0.79445,-0.94303 0.0704,-0.26927 -10e-4,-0.56958 -0.15961,-0.66735 -0.15819,-0.0978 -0.296,-0.0219 -0.30623,0.16858 -0.0102,0.19049 -0.12092,0.10822 -0.24598,-0.18283 -0.30424,-0.708 -0.31458,-0.98817 -0.03,-0.81227 0.12903,0.0797 0.37294,-0.0217 0.54201,-0.22542 0.21044,-0.25356 0.2199,-0.42449 0.03,-0.54186 -0.15258,-0.0943 -0.27743,-0.45507 -0.27743,-0.80169 0,-0.34663 -0.1193,-0.70397 -0.26512,-0.79409 -0.14933,-0.0923 -0.19505,-0.59023 -0.10467,-1.14009 0.0883,-0.53693 0.14003,-1.45249 0.11508,-2.03457 -0.0534,-1.24441 0.42693,-5.55042 0.81743,-7.32869 0.15015,-0.68379 0.37281,-1.87442 0.49478,-2.64583 0.20094,-1.27082 2.18639,-7.32042 2.93511,-8.94319 1.06194,-2.30165 2.33648,-4.43327 3.01885,-5.04893 3.571798,-3.22263 5.284598,-4.12626 8.771338,-4.6275 1.04532,-0.15028 2.20887,0.27447 2.20887,0.80634 0,0.28466 0.2726,0.40342 0.92604,0.40342 0.50932,0 0.92604,0.11906 0.92604,0.26458 0,0.14552 0.1786,0.26459 0.39688,0.26459 0.21828,0 0.39687,-0.10633 0.39687,-0.23628 0,-0.12995 -0.17859,-0.30481 -0.39687,-0.38857 -0.21828,-0.0838 -0.39688,-0.40023 -0.39688,-0.70325 0,-0.30303 -0.43948,-0.95359 -0.97663,-1.44568 -0.91165,-0.83518 -0.95477,-0.94273 -0.64792,-1.61618 0.26526,-0.58218 0.26226,-0.76385 -0.0156,-0.94109 -0.18935,-0.12081 -0.51107,-0.1582 -0.71494,-0.0831 -0.20387,0.0751 -0.59546,-0.10475 -0.8702,-0.39966 -0.61328,-0.65827 -0.97156,-0.6802 -1.19553,-0.0732 -0.094,0.25466 -0.28821,0.54156 -0.431665,0.63756 -0.41662,0.27879 -2.015543,0.0432 -3.136157,-0.46216 -0.782499,-0.35286 -1.013051,-0.59827 -0.953495,-1.01493 0.105919,-0.74102 1.471092,-0.88351 2.211982,-0.23088 0.601181,0.52957 1.601333,1.13656 1.872734,1.13656 0.09729,0 -0.03158,-0.23036 -0.286371,-0.5119 -0.441681,-0.48805 -0.44051,-0.5425 0.02514,-1.16892 0.26862,-0.36136 0.845582,-0.84718 1.282152,-1.07959 0.43656,-0.23242 1.38906,-0.79569 2.11666,-1.25173 3.25895,-2.04258 8.35489,-3.92466 10.62784,-3.92517 1.55747,-3.5e-4 1.63233,-0.11083 1.49116,-2.20062 -0.0706,-1.04534 -0.15977,-1.93286 -0.19813,-1.97228 -0.0384,-0.0394 -0.35737,0.48724 -0.7089,1.17033 -0.35153,0.6831 -0.78561,1.29082 -0.96462,1.35048 -0.55714,0.18572 -0.37267,-1.44755 0.31727,-2.80908 0.3535,-0.69761 0.95977,-2.24773 1.34726,-3.44472 0.41814,-1.29168 0.82906,-2.1362 1.01091,-2.07759 0.16851,0.0543 0.68195,1.19009 1.14098,2.52397 0.45903,1.33388 1.08411,2.94065 1.38906,3.5706 0.57731,1.19256 0.71444,2.03663 0.33089,2.03663 -0.3819,0 -1.07785,-0.91859 -1.4162,-1.86926 l -0.32347,-0.90886 -0.19375,1.05833 c -0.10657,0.58209 -0.20062,1.56435 -0.20901,2.18281 -0.0133,0.98248 0.0599,1.12971 0.58007,1.1659 1.61807,0.11256 2.06094,0.19685 3.9026,0.74278 2.65706,0.78764 4.59462,1.56019 6.35,2.53189 0.80037,0.44304 1.82805,0.95833 2.28373,1.14508 0.50132,0.20545 1.02377,0.72383 1.32292,1.31262 0.27192,0.5352 0.64573,1.0697 0.83069,1.18779 0.18496,0.11808 0.26723,0.32644 0.18282,0.46302 -0.2965,0.47975 0.94206,0.24236 1.46526,-0.28085 0.5525,-0.5525 1.46606,-0.68184 2.07784,-0.29418 0.6804,0.43115 -0.13125,1.20346 -2.04705,1.94783 -2.01459,0.78275 -2.24936,0.84196 -2.04824,0.51653 0.0718,-0.11609 0.0283,-0.37632 -0.0965,-0.5783 -0.18769,-0.30369 -0.29911,-0.30735 -0.644,-0.0211 -0.22937,0.19037 -0.41704,0.48533 -0.41704,0.65547 0,0.17015 -0.38695,0.74225 -0.85989,1.27134 -1.35389,1.51461 -1.52136,1.74873 -1.52136,2.12689 0,0.19532 -0.14089,0.49601 -0.31309,0.66821 -0.43974,0.43974 -0.0981,0.68066 0.68606,0.48385 0.49672,-0.12467 0.70539,-0.39651 0.83509,-1.08787 0.14362,-0.76555 0.26882,-0.90199 0.7392,-0.80553 0.31145,0.0639 1.28066,0.18985 2.15378,0.27994 2.18608,0.22557 3.29395,0.64594 4.28385,1.6255 0.46434,0.45949 1.22555,0.91919 1.69158,1.02155 0.75459,0.16573 2.06395,1.27646 2.086,1.76954 0.005,0.10281 0.48685,0.69813 1.07166,1.32291 0.58481,0.62479 1.54444,2.14801 2.1325,3.38494 0.58805,1.23693 1.19418,2.47659 1.34693,2.7548 0.64291,1.17092 1.33467,3.56844 1.44396,5.00457 0.0645,0.84792 0.41558,2.45527 0.7801,3.57188 0.52641,1.61253 0.69627,2.80589 0.82563,5.80052 0.0896,2.07367 0.26341,3.77031 0.38627,3.77031 0.12287,0 0.2234,-0.11906 0.2234,-0.26458 0,-0.14552 0.12655,-0.26458 0.28121,-0.26458 0.15467,0 0.24398,0.21983 0.19846,0.48852 -0.0455,0.26868 0.083,0.68828 0.28565,0.93243 0.20263,0.24416 0.29069,0.52164 0.19569,0.61665 -0.095,0.095 -0.35038,-0.0567 -0.56752,-0.33713 -0.33228,-0.42912 -0.36926,-0.43653 -0.23354,-0.0468 0.0887,0.25466 0.0565,0.46302 -0.0716,0.46302 -0.12809,0 -0.25485,0.77738 -0.28169,1.7275 -0.0314,1.11179 -0.18751,1.86619 -0.43798,2.11666 -0.52399,0.52399 -0.69156,0.49006 -0.69156,-0.13999 0,-0.29104 0.0935,-0.52917 0.20789,-0.52917 0.11434,0 0.21619,-0.20836 0.22634,-0.46302 0.0102,-0.25466 0.11538,-0.70114 0.23385,-0.99218 0.2092,-0.51393 0.19969,-0.5154 -0.32993,-0.0511 -0.33551,0.29412 -0.4936,0.67586 -0.41088,0.99218 0.0739,0.28278 0.001,0.51414 -0.16099,0.51414 -0.1625,0 -0.29544,0.30468 -0.29544,0.67707 0,0.37239 -0.10457,0.61245 -0.23237,0.53346 -0.12781,-0.079 -0.305,0.21954 -0.39377,0.66338 -0.0888,0.44385 -0.27363,0.73763 -0.41081,0.65285 -0.13717,-0.0848 -0.33556,-0.0147 -0.44086,0.15564 -0.11957,0.19347 -0.0768,0.23889 0.11401,0.12099 0.2176,-0.13449 0.30472,0.25328 0.30288,1.34818 -0.003,1.68972 -0.82067,3.80508 -1.812,4.68683 -0.5601,0.49819 -0.56667,0.49731 -0.56667,-0.0755 0,-0.31872 0.18431,-0.86077 0.40958,-1.20458 0.30606,-0.4671 0.36447,-0.96513 0.23111,-1.97045 -0.21797,-1.64309 -0.56768,-1.999 -1.58439,-1.61245 -0.40892,0.15547 -0.98895,0.26391 -1.28896,0.24098 -1.17025,-0.0894 -1.27874,-0.0115 -1.11602,0.80214 0.11158,0.55788 0.0377,0.85206 -0.25521,1.01597 -0.22675,0.1269 -0.4016,0.30931 -0.38856,0.40537 0.10398,0.76608 -0.12017,1.04888 -1.19732,1.5106 -0.67156,0.28786 -1.55314,0.75988 -1.95907,1.04893 -0.40593,0.28905 -0.90958,0.52554 -1.11922,0.52554 -1.15979,0 -1.71705,2.22681 -0.87781,3.50767 0.4132,0.63061 0.40656,0.66606 -0.15208,0.81214 -1.00214,0.26207 -1.74793,-1.19721 -1.44288,-2.82328 0.17875,-0.95281 1.83393,-3.08403 2.39517,-3.08403 0.18939,0 0.83681,-0.47791 1.4387,-1.06203 1.09954,-1.06706 1.14844,-1.26569 0.69001,-2.80264 -0.0813,-0.2725 -2.23854,-1.09705 -3.44034,-1.31498 -0.8827,-0.16006 -1.25664,0.29578 -1.39117,1.69589 -0.17014,1.77066 -0.72746,1.98964 -1.34758,0.52951 -0.67967,-1.60034 -0.44561,-2.46177 1.05326,-3.87643 0.77252,-0.72912 1.28861,-1.44625 1.28861,-1.79058 0,-0.3159 0.17152,-0.71671 0.38115,-0.89069 0.49134,-0.40777 0.23773,-1.07138 -0.40945,-1.07138 -0.27548,0 -0.50086,-0.11906 -0.50086,-0.26458 0,-0.14553 -0.23813,-0.26459 -0.52917,-0.26459 -0.29104,0 -0.52917,-0.11906 -0.52917,-0.26458 0,-0.55459 -0.4196,-0.22071 -1.00008,0.79579 -0.33177,0.58096 -0.70842,1.05629 -0.83701,1.05629 -0.12859,0 -0.59219,0.48735 -1.03024,1.083 -0.43804,0.59564 -1.59611,1.91958 -2.57349,2.94207 l -1.77706,1.85908 0.15262,2.16262 c 0.25322,3.58816 -0.61245,3.72751 -1.55373,0.2501 l -0.46675,-1.72431 -0.89182,0.16731 c -0.4905,0.092 -1.43264,0.39913 -2.09364,0.68247 -0.66101,0.28334 -1.43009,0.51516 -1.70906,0.51516 -0.27898,0 -0.52081,0.0893 -0.5374,0.19844 -0.20248,1.33184 -0.1533,1.8339 0.22003,2.24644 0.55225,0.61022 0.60688,1.76048 0.0972,2.04574 -0.26319,0.14729 -0.37322,0.56444 -0.3322,1.25952 0.0337,0.57161 -0.0619,1.32738 -0.21239,1.67948 -0.22503,0.52633 -0.24586,0.4402 -0.11711,-0.48431 z m -16.55866,-1.45525 c 0,-0.4367 -0.465849,0.0601 -0.616362,0.65738 -0.145746,0.57831 -0.13755,0.58134 0.232647,0.0858 0.211045,-0.28248 0.383715,-0.61693 0.383715,-0.74322 z m 32.85321,0.0612 c -0.0573,-0.601 0.04,-1.2337 0.22384,-1.45521 0.1928,-0.23231 0.21485,-0.39189 0.0542,-0.39189 -0.37137,0 -0.75308,1.29618 -0.6428,2.18281 0.14334,1.15243 0.47741,0.84501 0.36481,-0.33571 z m -15.83399,-1.42471 c 0.0784,-0.20424 0.0773,-0.62078 -0.002,-0.92564 -0.11061,-0.42298 -0.30148,-0.5259 -0.80574,-0.43446 -0.61938,0.11232 -0.634,0.0902 -0.23325,-0.3526 0.23514,-0.25983 0.34975,-0.55021 0.25468,-0.64528 -0.0951,-0.0951 -0.32966,0.0337 -0.52133,0.28605 -0.36638,0.4825 -0.48999,1.96582 -0.18891,2.2669 0.31873,0.31873 1.35149,0.18422 1.497,-0.19497 z m -1.14422,-0.68698 c 0,-0.14552 0.12609,-0.26458 0.2802,-0.26458 0.15411,0 0.20661,0.11906 0.11668,0.26458 -0.0899,0.14553 -0.21603,0.26459 -0.2802,0.26459 -0.0642,0 -0.11668,-0.11906 -0.11668,-0.26459 z m -16.786342,-0.14699 c -0.249621,-0.38097 -0.515575,-0.63095 -0.591009,-0.55552 -0.155312,0.15532 0.785104,1.49811 0.942879,1.34632 0.05609,-0.054 -0.10225,-0.40983 -0.35187,-0.7908 z m 37.063152,-1.44051 c 0.1812,0 0.39518,-0.10633 0.4755,-0.23629 0.084,-0.13587 -0.21864,-0.14883 -0.71199,-0.0305 -1.28338,0.30782 -1.6054,0.49044 -2.13005,1.20792 -0.46119,0.6307 -0.43336,0.62558 0.7794,-0.14354 0.69173,-0.43867 1.40594,-0.79759 1.58714,-0.79759 z m -38.645613,0.29652 c -0.07908,-0.12795 -0.41353,-0.30062 -0.74322,-0.38371 -0.578317,-0.14575 -0.581341,-0.13755 -0.08585,0.23265 0.568801,0.42496 1.052853,0.51316 0.829065,0.15106 z m 46.406223,-0.9424 c 0.005,-0.13695 -0.16639,-0.0179 -0.38005,0.26459 -0.21365,0.28247 -0.39224,0.62564 -0.39687,0.76259 -0.005,0.13696 0.16639,0.0179 0.38005,-0.26458 0.21365,-0.28247 0.39224,-0.62564 0.39687,-0.7626 z m -20.20037,-1.33755 c -0.0175,-1.2364 -0.11695,-2.24843 -0.22097,-2.24895 -0.63624,-0.003 -1.00906,2.53149 -0.45399,3.08655 0.1556,0.15561 0.32509,0.50684 0.37663,0.78052 0.12038,0.63924 0.11694,0.6299 0.23218,0.6299 0.0539,0 0.0837,-1.01161 0.0661,-2.24802 z m -28.426043,1.13236 c -0.189855,-0.18986 -0.31309,-0.20548 -0.31309,-0.0397 0,0.35316 0.312899,0.66606 0.489479,0.48948 0.07519,-0.0752 -0.0042,-0.27759 -0.176389,-0.44979 z m 21.226133,-1.54363 c 0.0803,-0.67243 0.0464,-1.02585 -0.0791,-0.82426 -0.17741,0.28488 -0.25016,0.27376 -0.37734,-0.0577 -0.0867,-0.22582 -0.0356,-0.48597 0.11351,-0.57811 0.14908,-0.0921 0.19938,-0.35433 0.11177,-0.58263 -0.0876,-0.22831 -0.0248,-0.49822 0.13955,-0.5998 0.21283,-0.13153 0.24379,-1.1071 0.10757,-3.38939 -0.1052,-1.76258 -0.29518,-3.14048 -0.42217,-3.06199 -0.127,0.0785 -0.2309,0.0265 -0.2309,-0.11545 0,-0.14198 0.14883,-0.32069 0.33073,-0.39713 0.23684,-0.0995 0.19929,-0.22219 -0.13229,-0.43207 -0.25466,-0.1612 -0.46302,-0.42833 -0.46302,-0.59362 0,-0.37997 -1.06262,-1.52526 -1.41516,-1.52526 -0.14552,0 -0.0206,0.26789 0.27764,0.59532 1.05074,1.15362 1.13752,1.63891 1.13752,6.36182 0,4.92111 0.20115,7.37792 0.55265,6.74982 0.11463,-0.20482 0.27171,-0.90213 0.34907,-1.54958 z m 21.19538,0.39464 c 0.0234,-0.71897 0.1288,-1.66441 0.23422,-2.10098 0.15528,-0.64306 0.13545,-0.70528 -0.10443,-0.32775 -0.16285,0.25629 -0.3192,1.14926 -0.34743,1.98437 -0.0282,0.83511 -0.1704,1.61674 -0.31592,1.73696 -0.15987,0.13207 -0.11506,0.17822 0.11321,0.11661 0.25467,-0.0687 0.39167,-0.52801 0.42035,-1.40921 z m -27.78172,-0.31504 c -0.10364,-0.69122 -0.29994,-1.46513 -0.43622,-1.71979 -0.18596,-0.3475 -0.14644,-0.46302 0.1584,-0.46302 0.2234,0 0.40619,-0.1955 0.40619,-0.43443 0,-0.41473 -1.9849,-3.78715 -2.39164,-4.06349 -0.10709,-0.0728 -0.63574,-0.93596 -1.17478,-1.91823 -0.53903,-0.98226 -1.02611,-1.78594 -1.0824,-1.78594 -0.14724,0 0.37875,1.14975 1.63409,3.57188 0.60336,1.16417 1.17934,2.38456 1.27995,2.71198 0.33063,1.07595 -0.45487,0.63772 -1.96939,-1.09872 -1.83466,-2.10349 -2.88816,-2.83421 -1.33015,-0.9226 2.16192,2.65257 2.70353,3.14321 3.30351,2.99263 0.41202,-0.10341 0.56224,-0.0147 0.57109,0.33715 0.0368,1.46523 0.44866,3.67311 0.71695,3.84376 0.49803,0.31679 0.51235,0.26892 0.3144,-1.05118 z m 29.10092,-1.71979 c 0.13457,-0.33101 0.0626,-0.46302 -0.25257,-0.46302 -0.24244,0 -0.38497,0.0903 -0.31674,0.20073 0.0682,0.1104 0.0278,0.72733 -0.0899,1.37096 -0.11769,0.64363 -0.13927,1.35697 -0.048,1.58521 0.0964,0.24079 0.24011,-0.1403 0.34251,-0.90794 0.0971,-0.72761 0.26117,-1.53128 0.36469,-1.78594 z m -50.243205,2.29346 c -0.0883,-0.23018 -0.1606,-0.4683 -0.1606,-0.52916 0,-0.0609 -0.10791,-0.11066 -0.23981,-0.11066 -0.1319,0 -0.17754,0.23813 -0.10143,0.52917 0.0761,0.29104 0.25629,0.52917 0.40041,0.52917 0.14412,0 0.18976,-0.18833 0.10143,-0.41852 z m 6.251881,-0.49561 c 0.06911,-0.36155 0.04075,-0.60488 -0.06303,-0.54074 -0.103781,0.0641 -0.155017,-0.35618 -0.113857,-0.93405 0.04116,-0.57787 -0.03532,-1.05067 -0.169961,-1.05067 -0.521689,0 -0.209867,-0.55554 0.453356,-0.8077 0.992715,-0.37743 0.621085,-0.57864 -0.406873,-0.22029 -0.551484,0.19225 -0.80332,0.42641 -0.712666,0.66265 0.08547,0.22273 -0.0373,0.36693 -0.314522,0.3694 -0.390312,0.004 -0.398505,0.0404 -0.05784,0.26053 0.340775,0.22022 0.332686,0.25705 -0.05723,0.26053 -0.355139,0.003 -0.278485,0.18371 0.35173,0.82841 0.618944,0.63317 0.767823,0.9758 0.641936,1.47738 -0.0933,0.37175 -0.05898,0.58817 0.0797,0.50247 0.133978,-0.0828 0.300144,-0.44637 0.369259,-0.80792 z m 49.414604,0.12038 c 0,-0.14552 -0.11906,-0.26459 -0.26458,-0.26459 -0.14552,0 -0.26458,0.11907 -0.26458,0.26459 0,0.14552 0.11906,0.26458 0.26458,0.26458 0.14552,0 0.26458,-0.11906 0.26458,-0.26458 z m -42.59792,-2.28197 c 0,-2.10507 -0.24287,-2.59444 -1.61711,-3.25841 l -1.071759,-0.51781 -1.438677,0.68118 c -0.791272,0.37465 -1.497906,0.77702 -1.570296,0.89415 -0.269387,0.43587 0.456595,0.5505 0.906705,0.14315 0.25695,-0.23253 0.606635,-0.42279 0.777078,-0.42279 0.170443,0 0.309896,-0.10518 0.309896,-0.23373 0,-0.12855 0.238125,-0.29599 0.529167,-0.3721 0.406901,-0.10641 0.53111,-0.007 0.537581,0.43216 0.0082,0.55671 0.01777,0.55818 0.394141,0.0607 0.212154,-0.28042 0.452154,-0.44342 0.533354,-0.36223 0.26358,0.26359 -0.674878,0.9864 -1.079228,0.83124 -0.215923,-0.0829 -0.558087,-0.0133 -0.760363,0.15458 -0.279104,0.23163 -0.39346,0.22817 -0.474304,-0.0144 -0.07363,-0.22091 -0.224548,-0.18063 -0.48875,0.13043 -0.210223,0.24751 -0.531051,0.61597 -0.712952,0.81881 -0.619436,0.69072 -0.332579,0.68921 0.910542,-0.005 0.846862,-0.4728 1.519426,-0.66053 2.116667,-0.5908 0.481468,0.0562 0.875398,-0.0168 0.875398,-0.16218 0,-0.17235 0.094,-0.17035 0.27011,0.006 0.14856,0.14857 0.34405,1.06193 0.43443,2.0297 0.20653,2.21173 0.61837,2.05015 0.61837,-0.24261 z m 13.09688,1.48822 c -0.0899,-0.14552 -0.36486,-0.26276 -0.61093,-0.26053 -0.38557,0.004 -0.39255,0.0395 -0.0505,0.26053 0.51815,0.33485 0.86841,0.33485 0.66146,0 z m 4.10104,-0.0156 c 0,-0.15411 0.11084,-0.2117 0.2463,-0.12798 0.13547,0.0837 0.31419,0.0424 0.39717,-0.0919 0.083,-0.13426 0.73713,-0.32474 1.45367,-0.42329 0.74302,-0.10219 1.36458,-0.34021 1.44661,-0.55395 0.0791,-0.20613 0.32614,-0.37478 0.54899,-0.37478 0.3718,0 0.54344,-0.62255 0.42244,-1.53219 -0.025,-0.18786 0.25856,-0.98416 0.63011,-1.76955 0.37155,-0.78539 0.67554,-1.54851 0.67554,-1.69581 0,-0.1473 0.14883,-0.36303 0.33073,-0.4794 0.33753,-0.21594 1.25677,-1.72872 1.25677,-2.06825 0,-0.28305 -1.6519,2.13171 -2.98959,4.3702 -1.32112,2.21077 -2.76133,3.67371 -4.15416,4.21971 -1.23042,0.48234 -1.57127,0.80738 -0.84666,0.80738 0.32014,0 0.58208,-0.12609 0.58208,-0.2802 z m 12.39372,-1.13414 c -0.0933,-1.45696 0.34611,-2.45996 0.92186,-2.10413 0.16008,0.0989 0.71213,0.22031 1.2268,0.26972 0.51466,0.0494 1.33685,0.2192 1.82708,0.37728 0.70459,0.2272 0.93933,0.21166 1.12043,-0.0742 0.34747,-0.54848 0.28449,-0.75891 -0.22583,-0.75445 -0.39569,0.004 -0.40531,0.0413 -0.0661,0.26053 0.30927,0.19987 0.23626,0.25738 -0.33072,0.26054 -0.84327,0.005 -0.91273,-0.18275 -0.26459,-0.71401 0.25466,-0.20873 0.30618,-0.29918 0.11448,-0.20098 -0.2209,0.11315 -0.40176,-0.025 -0.49387,-0.37726 -0.0799,-0.30568 -0.31005,-0.55579 -0.51136,-0.55579 -0.20131,0 -0.36602,-0.10583 -0.36602,-0.23518 0,-0.26736 -0.79186,-0.25393 -1.19062,0.0202 -0.14553,0.10003 -0.82775,0.67854 -1.51605,1.28557 -1.12794,0.99476 -1.23974,1.19523 -1.13272,2.03115 0.29627,2.31402 1.02983,2.7365 0.88728,0.51101 z m 2.4425,-2.39857 c -0.2118,-0.2552 -0.22205,-0.42757 -0.0324,-0.54478 0.15258,-0.0943 0.27743,-0.0454 0.27743,0.10874 0,0.46058 0.4808,0.3168 0.61136,-0.18282 0.0744,-0.28487 0.13281,-0.18307 0.1517,0.26458 0.0336,0.79758 -0.48804,0.98092 -1.0081,0.35428 z m -0.93429,-0.13756 c -0.0837,-0.13547 -0.0312,-0.32109 0.11667,-0.41249 0.1479,-0.0914 0.2689,0.0194 0.2689,0.2463 0,0.46475 -0.15876,0.53318 -0.38557,0.16619 z m -44.529525,2.17299 c -0.17213,-1.77607 -0.32866,-1.76216 -0.32866,0.0292 0,0.8332 0.10154,1.45216 0.22564,1.37547 0.1241,-0.0767 0.17046,-0.70881 0.10302,-1.40468 z m 55.758965,1.31446 c -0.002,-0.10915 -0.11947,-0.37704 -0.26053,-0.59532 -0.2074,-0.32093 -0.25726,-0.28295 -0.26054,0.19844 -0.002,0.32742 0.11501,0.59531 0.26054,0.59531 0.14552,0 0.26276,-0.0893 0.26053,-0.19843 z m -25.38857,-0.7898 c 1.2999,-0.59323 1.94345,-1.47815 1.80213,-2.47801 -0.0836,-0.59138 -0.20089,-0.6348 -1.71495,-0.6348 h -1.62523 l -0.12259,1.26425 c -0.13125,1.3536 0.0191,2.62043 0.29445,2.48066 0.0925,-0.047 0.70728,-0.3314 1.36619,-0.6321 z m -6.48182,-0.086 c -0.57776,-0.2882 -1.16712,-0.64064 -1.30969,-0.78321 -0.38092,-0.38092 -0.68756,-0.31557 -0.52364,0.11159 0.0783,0.20394 0.40194,0.45974 0.7193,0.56843 0.31735,0.1087 0.81513,0.28716 1.10618,0.39658 1.03682,0.3898 1.04132,0.22212 0.008,-0.29339 z m 32.31976,-0.0337 c -0.0845,-0.21107 -0.14715,-0.14837 -0.15985,0.15985 -0.0115,0.27892 0.0511,0.43519 0.13896,0.34727 0.0879,-0.0879 0.0973,-0.31612 0.0209,-0.50712 z m -29.61055,-0.9887 c 0,-1.00118 -0.0848,-1.27035 -0.36634,-1.16232 -0.21032,0.0807 -0.36635,-0.0261 -0.36635,-0.25079 0,-0.25247 -0.37833,-0.45186 -1.06599,-0.56182 -0.82341,-0.13167 -1.13858,-0.33504 -1.38499,-0.89371 -0.32613,-0.73944 -1.22751,-1.56392 -1.58392,-1.44881 -0.10914,0.0352 -0.19843,-0.22796 -0.19843,-0.58491 0,-0.77125 -0.51848,-1.99683 -0.84475,-1.99683 -0.12685,0 -0.32901,-0.26593 -0.44925,-0.59097 l -0.21861,-0.59096 -0.18757,0.59096 c -0.23434,0.73833 -0.61696,0.76528 -0.72882,0.0513 -0.0465,-0.2968 -0.1903,-0.52476 -0.31955,-0.50656 -0.12925,0.0182 -0.32104,-0.10614 -0.4262,-0.27629 -0.40918,-0.66208 -0.47172,0.46001 -0.0717,1.28602 0.30589,0.63159 0.53189,0.80372 0.9013,0.68647 0.54339,-0.17246 0.69189,0.28356 0.16231,0.49844 -0.23191,0.0941 -0.2451,0.19951 -0.0441,0.35278 0.15763,0.12022 0.6076,0.90319 0.99994,1.73994 0.54412,1.16048 0.8527,1.52631 1.30089,1.54224 0.32316,0.0115 0.43874,0.0809 0.25684,0.15434 -0.18191,0.0734 -0.33073,0.26468 -0.33073,0.42508 0,0.36136 1.06205,1.51636 1.39434,1.51636 0.13407,0 0.56136,0.22615 0.94953,0.50255 0.61957,0.44117 1.2571,0.65652 2.32195,0.78433 0.18812,0.0226 0.3002,-0.45043 0.3002,-1.26686 z m 28.51465,0.26216 c -0.0959,-0.1552 -0.29113,-0.28218 -0.4338,-0.28218 -0.14267,0 -0.10588,0.16658 0.0818,0.37019 0.37985,0.41217 0.62352,0.35126 0.35204,-0.088 z m 0.56674,-0.0672 c -0.0845,-0.21106 -0.14716,-0.14837 -0.15986,0.15986 -0.0115,0.27891 0.0511,0.43518 0.13897,0.34726 0.0879,-0.0879 0.0973,-0.31612 0.0209,-0.50712 z m -3.92425,0.0795 c 0.25807,-0.16354 0.14766,-0.26241 -0.39688,-0.3554 -0.41492,-0.0709 -0.99253,-0.22497 -1.28357,-0.34247 -0.41897,-0.16915 -0.39142,-0.0961 0.13229,0.35065 0.72874,0.62168 1.01406,0.68568 1.54816,0.34722 z m -15.04191,-1.06355 c 0,-0.098 0.48491,-0.70918 1.07758,-1.3582 1.30253,-1.42636 1.99619,-2.61376 0.84392,-1.44462 -0.43026,0.43656 -1.15683,1.07437 -1.61461,1.41736 -0.45777,0.34298 -0.76168,0.7379 -0.67534,0.87759 0.0863,0.13969 -0.007,0.21626 -0.20813,0.17014 -0.20081,-0.0461 -0.39135,0.005 -0.42343,0.1146 -0.15063,0.51246 -0.0158,0.66695 0.47084,0.53968 0.29104,-0.0761 0.52917,-0.21855 0.52917,-0.31655 z m 12.30312,0.23989 c 0.0899,-0.14552 0.0374,-0.26458 -0.11667,-0.26458 -0.15411,0 -0.2802,0.11906 -0.2802,0.26458 0,0.14552 0.0525,0.26458 0.11668,0.26458 0.0642,0 0.19026,-0.11906 0.28019,-0.26458 z m 6.74688,0 c 0,-0.14552 -0.26789,-0.25621 -0.59531,-0.24599 -0.56804,0.0177 -0.57107,0.029 -0.0662,0.24599 0.29104,0.12507 0.55893,0.23576 0.59531,0.24599 0.0364,0.0102 0.0661,-0.10047 0.0661,-0.24599 z m -31.22084,-2.64583 c 0,-0.14552 -0.18562,-0.26459 -0.41249,-0.26459 -0.22687,0 -0.3389,0.11907 -0.24896,0.26459 0.0899,0.14552 0.27555,0.26458 0.41249,0.26458 0.13693,0 0.24896,-0.11906 0.24896,-0.26458 z m -20.619373,-0.68837 c 1.930659,-0.56934 4.4098,-2.60817 6.723457,-5.52934 0.691543,-0.87313 1.570946,-1.86941 1.954236,-2.21397 0.85983,-0.77295 2.85164,-1.6717 3.7396,-1.68739 0.3638,-0.006 0.51263,-0.0639 0.33073,-0.12773 -0.1819,-0.0638 -0.32133,-0.31449 -0.30984,-0.55702 0.0138,-0.29205 0.0672,-0.32555 0.15802,-0.0992 0.0992,0.24718 0.23143,0.26351 0.47781,0.059 0.25955,-0.21541 0.38258,-0.11579 0.51664,0.41835 0.16235,0.64686 0.20245,0.66485 0.51854,0.23257 0.32339,-0.44226 0.35045,-0.43846 0.48283,0.0678 0.10931,0.41802 0.48303,0.59546 1.69473,0.80467 1.46783,0.25343 2.09598,0.24547 3.45307,-0.0437 0.73807,-0.15729 1.93789,-0.94051 1.93789,-1.26501 0,-0.13737 0.11115,-0.18107 0.24701,-0.0971 0.13585,0.084 0.72643,-0.0125 1.31239,-0.2144 0.58596,-0.20188 1.09988,-0.29331 1.14205,-0.20319 0.0422,0.0901 0.83308,0.56093 1.75757,1.04623 2.43575,1.27861 4.92658,1.44688 7.04709,0.47608 0.83733,-0.38334 1.71639,-0.69587 1.95347,-0.6945 0.9547,0.005 3.14627,1.62778 4.66438,3.45274 3.37752,4.06023 4.4192,5.05271 5.1478,4.90464 0.37016,-0.0752 0.5242,-0.072 0.3423,0.007 -1.1483,0.49942 0.59624,1.2093 3.77031,1.53422 0.29105,0.0298 0.7673,-0.0719 1.05834,-0.22591 0.29104,-0.15404 0.64823,-0.28728 0.79375,-0.29609 0.14552,-0.009 0.75092,-0.26963 1.34533,-0.5796 0.87168,-0.45457 1.22022,-0.87439 1.80174,-2.17019 0.67995,-1.51513 0.71108,-1.75333 0.5468,-4.18412 -0.23687,-3.5048 -0.68571,-5.94361 -1.81344,-9.85357 -1.03007,-3.57139 -1.91058,-5.98347 -2.41459,-6.61458 -0.17433,-0.21828 -0.44089,-0.7672 -0.59236,-1.21982 -0.67274,-2.01024 -2.74792,-4.472 -4.53207,-5.37634 -1.60122,-0.81161 -5.09097,-1.66163 -6.90912,-1.6829 -1.92835,-0.0225 -2.93684,0.38253 -4.13591,1.66127 -0.41738,0.44513 -1.2124,1.12526 -1.7667,1.51141 l -1.00783,0.7021 -6.5328,0.0618 c -8.8437,0.0836 -10.12068,-0.18657 -12.43968,-2.63194 -1.15019,-1.21287 -2.78464,-1.58975 -5.32931,-1.22885 -3.888983,0.55156 -7.52424,2.57212 -8.923595,4.95993 -1.56942,2.67802 -4.28213,10.41838 -4.3829,12.50604 -0.035,0.72428 -0.129,1.31773 -0.20897,1.31877 -0.18535,0.002 -0.78064,5.31261 -0.78064,6.96357 0,0.68681 0.14883,1.73234 0.33073,2.32339 0.46053,1.49643 2.4663,3.66873 3.63802,3.94007 1.37765,0.31904 1.626,0.30697 3.193122,-0.15517 z m -3.049532,-0.35168 c -0.18073,-0.29243 0.23664,-0.60819 0.48096,-0.36387 0.25156,0.25156 0.20468,0.61017 -0.0798,0.61017 -0.13693,0 -0.31747,-0.11084 -0.40119,-0.2463 z m 50.391825,-0.29848 c 0,-0.15411 0.11906,-0.20662 0.26459,-0.11668 0.14552,0.0899 0.26458,0.21603 0.26458,0.2802 0,0.0642 -0.11906,0.11667 -0.26458,0.11667 -0.14553,0 -0.26459,-0.12609 -0.26459,-0.28019 z m 1.05834,-0.38126 c 0,-0.47837 -0.14216,-0.66146 -0.51356,-0.66146 -0.28245,0 -0.57898,-0.10588 -0.65896,-0.23528 -0.08,-0.1294 -0.47395,-0.31551 -0.87551,-0.41359 -1.15385,-0.28181 -2.59502,-1.40044 -4.14811,-3.21977 -0.84523,-0.99012 -1.48931,-1.54636 -1.56726,-1.35353 -0.0728,0.18006 -0.14173,0.0575 -0.15322,-0.27222 -0.0144,-0.41288 -0.30572,-0.73542 -0.9356,-1.03579 -0.50309,-0.2399 -0.86451,-0.51741 -0.80315,-0.61669 0.21681,-0.3508 -1.34084,-1.53786 -2.54562,-1.93997 -1.33172,-0.44447 -1.89722,-0.38329 -3.6267,0.39239 -1.11774,0.50131 -3.68934,0.72552 -4.262,0.3716 -0.15668,-0.0968 -0.28323,0.0162 -0.28323,0.25306 0,0.23545 -0.12101,0.35332 -0.2689,0.26191 -0.1479,-0.0914 -0.20629,-0.26749 -0.12977,-0.3913 0.21742,-0.35179 -1.08913,-1.2505 -2.68727,-1.84844 -1.26026,-0.47152 -1.5955,-0.50197 -2.51005,-0.22797 -0.78594,0.23548 -1.02558,0.43071 -0.93831,0.76446 0.0872,0.33352 -0.0118,0.41447 -0.38711,0.31633 -0.59507,-0.15562 -1.5664,0.62975 -1.37992,1.11572 0.0713,0.18583 -0.0726,0.4155 -0.31985,0.51037 -0.36634,0.14058 -0.39125,0.1023 -0.13465,-0.20689 0.45066,-0.54301 0.0378,-0.64724 -1.03376,-0.26098 -0.50932,0.18359 -0.80698,0.34413 -0.66145,0.35677 0.14552,0.0126 0.0538,0.14568 -0.20378,0.29565 -0.58286,0.33934 -1.51602,0.0692 -1.51602,-0.43888 0,-0.20848 -0.24952,-0.37905 -0.55449,-0.37905 -0.30497,0 -0.87051,-0.17024 -1.25677,-0.37831 -1.88431,-1.01505 -2.30703,-1.00187 -4.26392,0.13295 -1.0846,0.62897 -3.707882,3.0905 -3.712236,3.48334 -0.0044,0.40001 -3.199242,3.3448 -4.491269,4.1398 -1.822521,1.1214 -3.71812,1.15724 -5.11594,0.0967 -0.52745,-0.40019 -0.96334,-0.95055 -0.96865,-1.22303 -0.008,-0.41013 -0.078,-0.43871 -0.40651,-0.16604 -0.46565,0.38645 -0.54637,1.18196 -0.0914,0.90078 0.2019,-0.12478 0.23306,-0.0716 0.0919,0.15676 -0.16788,0.27163 -0.28605,0.24641 -0.55244,-0.11791 -0.18639,-0.2549 -0.46587,-0.38497 -0.62107,-0.28905 -0.15521,0.0959 -0.28219,0.0483 -0.28219,-0.1058 0,-0.1541 0.18562,-0.28019 0.41249,-0.28019 0.22687,0 0.34661,-0.10659 0.2661,-0.23686 -0.0805,-0.13028 0.0251,-0.30267 0.23473,-0.38311 0.30214,-0.11594 0.35209,-0.54661 0.24104,-2.07824 -0.17823,-2.45828 -0.29034,-2.85457 -0.65676,-2.32146 -0.20339,0.29592 -0.22746,0.24648 -0.10023,-0.20585 0.12247,-0.43538 0.056,-0.59532 -0.24725,-0.59532 -0.22809,0 -0.41471,-0.17859 -0.41471,-0.39687 0,-0.46516 0.30615,-0.51406 0.70723,-0.11298 0.20214,0.20214 0.37421,-0.23598 0.59748,-1.52135 0.44569,-2.56579 1.07902,-5.41903 1.34039,-6.03859 0.26404,-0.62591 1.62047,-4.64499 1.69664,-5.02708 0.061,-0.30627 1.05892,-2.35861 1.586387,-3.26272 0.930001,-1.5941 3.442128,-3.6299 5.184378,-4.20138 0.509323,-0.16707 1.969105,-0.38588 3.24396,-0.48625 l 2.31792,-0.1825 1.08874,1.02372 c 0.5988,0.56304 1.33546,1.25562 1.63702,1.53907 0.5759,0.54131 2.99645,1.29314 3.38674,1.05192 0.12519,-0.0774 2.15996,-0.14067 4.5217,-0.14067 2.45041,0 4.13859,-0.0961 3.93192,-0.22383 -0.23838,-0.14732 -0.0323,-0.22382 0.60284,-0.22382 0.53075,0 0.96499,0.0812 0.96499,0.18042 0,0.0992 0.3042,0.20559 0.67599,0.23636 0.39174,0.0324 0.60768,-0.0546 0.51355,-0.20687 -0.20155,-0.32612 0.03,-0.33611 0.6138,-0.0265 0.73996,0.39245 4.27497,0.57825 4.9042,0.25777 0.71888,-0.36615 3.30061,-3.09778 3.10894,-3.28945 -0.0787,-0.0787 0.0812,-0.057 0.35531,0.0482 0.31442,0.12065 0.43646,0.0911 0.33067,-0.0801 -0.10399,-0.16826 0.0805,-0.22388 0.48576,-0.14641 0.39515,0.0755 0.65345,0.002 0.65345,-0.18613 0,-0.17107 0.12636,-0.23295 0.2808,-0.1375 0.15444,0.0954 0.62963,0.22852 1.05598,0.29572 0.6206,0.0978 0.74363,0.0399 0.61694,-0.29023 -0.21387,-0.55734 0.0705,-0.51909 0.73363,0.0987 0.3017,0.28108 1.04086,0.59393 1.64258,0.69522 1.69015,0.28452 3.27123,1.51816 5.5258,4.31152 0.25466,0.31552 0.46302,0.72442 0.46302,0.90865 0,0.18424 0.15998,0.56983 0.3555,0.85688 0.19552,0.28704 0.48454,0.87908 0.64227,1.31564 0.15772,0.43656 0.54042,1.44859 0.85043,2.24896 0.31001,0.80036 0.81083,2.22911 1.11292,3.175 0.30209,0.94588 0.64313,1.95791 0.75786,2.24895 0.20708,0.52531 0.54236,1.75235 0.6868,2.51355 0.37571,1.97995 0.61385,2.74229 0.91474,2.92824 0.19398,0.11989 0.26788,0.3028 0.16422,0.40646 -0.10366,0.10367 -0.0606,0.34255 0.0957,0.53086 0.15628,0.18831 0.20845,0.58086 0.11594,0.87235 -0.14084,0.44373 -0.27636,0.48885 -0.83283,0.27728 -0.85427,-0.32479 -1.49191,-0.29946 -0.67795,0.0269 0.41718,0.16728 0.56884,0.3949 0.47362,0.71083 -0.077,0.25561 -0.17461,1.0898 -0.21682,1.85376 -0.0494,0.89386 -0.19464,1.38903 -0.40747,1.38906 -0.30051,5e-5 -0.44402,0.34089 -0.36206,0.85995 0.0172,0.10914 -0.058,0.17287 -0.16711,0.14162 -0.34551,-0.0989 -2.47331,1.38834 -2.32638,1.62607 0.0773,0.12506 -0.0471,0.29939 -0.27646,0.3874 -0.61569,0.23626 -0.6383,0.21849 -0.6383,-0.50145 z M 92.2592,163.43006 c -0.436293,-0.98566 -1.471585,-1.11235 -2.231155,-0.27303 -0.62932,0.69539 -0.24676,1.40842 0.79879,1.48878 0.4024,0.0309 0.80007,0.12467 0.88372,0.20833 0.08365,0.0837 0.322753,-0.0186 0.531338,-0.22716 0.324098,-0.3241 0.326614,-0.49815 0.01731,-1.19692 z m 49.71093,1.05371 c 0.25269,-0.13489 0.67534,-0.31265 0.93922,-0.395 0.81793,-0.25527 0.20814,-0.68264 -0.974,-0.68264 -0.61914,0 -1.35523,0.1845 -1.63803,0.41057 -0.49913,0.39902 -0.49683,0.40597 0.0817,0.24676 0.32798,-0.0902 0.59531,-0.0457 0.59531,0.0992 0,0.14465 -0.20836,0.31746 -0.46302,0.38401 -0.28342,0.0741 -0.17939,0.1329 0.26818,0.15169 0.40215,0.0169 0.93793,-0.0797 1.19062,-0.21458 z m -3.07996,-0.60916 c 0.17362,-0.32442 0.47547,-0.74964 0.67076,-0.94494 0.1953,-0.1953 0.35509,-0.51036 0.35509,-0.70014 0,-0.18978 0.29385,-1.00949 0.65299,-1.82158 1.01262,-2.28971 1.722,-5.99766 1.14744,-5.99766 -0.11157,0 -0.27716,0.32743 -0.36799,0.72761 -0.35211,1.55138 -1.15361,4.01926 -1.46976,4.5255 -0.32456,0.5197 -0.35029,0.51453 -1.21467,-0.24441 -0.88054,-0.77313 -1.65843,-1.01271 -1.65843,-0.51078 0,0.14552 0.0893,0.23847 0.19844,0.20655 0.10914,-0.0319 0.70446,0.28157 1.32292,0.69662 1.24554,0.8359 1.40868,1.45846 0.59531,2.27183 -0.29104,0.29104 -0.52916,0.7205 -0.52916,0.95435 0,0.25606 -0.14758,0.36855 -0.37101,0.28281 -0.53401,-0.20491 -0.71005,0.0781 -0.40413,0.64971 0.35011,0.65418 0.68705,0.62417 1.0722,-0.0955 z m -43.240777,-1.20159 c 0.325241,-0.39716 0.595629,-0.9391 0.600862,-1.20433 0.0088,-0.44448 -0.04743,-0.43759 -0.718089,0.088 -0.400182,0.31362 -0.809963,0.76875 -0.910623,1.0114 -0.155343,0.37446 -0.210022,0.35115 -0.361588,-0.15414 -0.103014,-0.34342 -0.389411,-0.59531 -0.676877,-0.59531 -0.613316,0 -0.628534,0.21131 -0.06043,0.83906 0.26199,0.2895 0.31513,0.48386 0.132292,0.48386 -0.168075,0 -0.305591,0.13394 -0.305591,0.29765 0,0.54613 1.685032,-0.0152 2.30004,-0.76618 z m 42.149957,-0.0606 c 0,-0.14552 -0.12608,-0.26458 -0.28019,-0.26458 -0.15411,0 -0.20662,0.11906 -0.11668,0.26458 0.0899,0.14552 0.21603,0.26458 0.2802,0.26458 0.0642,0 0.11667,-0.11906 0.11667,-0.26458 z m -1.00982,-0.58649 c -0.18986,-0.18986 -0.31309,-0.20548 -0.31309,-0.0397 0,0.15037 0.0794,0.35277 0.17639,0.44979 0.097,0.097 0.2379,0.11487 0.31309,0.0397 0.0752,-0.0752 -0.004,-0.27759 -0.17639,-0.44979 z m 5.50774,-0.20083 c 0,-0.27032 0.14883,-0.56095 0.33073,-0.64584 0.26458,-0.12347 0.26458,-0.18521 0,-0.30868 -0.1819,-0.0849 -0.33073,-0.27051 -0.33073,-0.41249 0,-0.14198 0.11309,-0.18826 0.25131,-0.10283 0.42112,0.26026 0.83976,-0.86743 0.9617,-2.59052 l 0.11568,-1.63461 -0.5172,1.5659 c -0.28447,0.86124 -0.5001,1.63515 -0.47918,1.71979 0.0209,0.0846 -0.3455,0.74675 -0.81425,1.47136 -0.76755,1.18653 -0.80568,1.33445 -0.3836,1.48825 0.60846,0.22171 0.86554,0.0582 0.86554,-0.55033 z m -51.147105,-0.40331 c -0.0446,-0.14552 -0.43779,-0.4249 -0.87366,-0.62084 -0.65175,-0.29299 -0.79715,-0.52105 -0.81878,-1.28428 -0.0259,-0.913 -0.44405,-1.6526 -0.75728,-1.33937 -0.22126,0.22126 0.41902,3.20766 0.72981,3.40401 0.40925,0.25855 1.80837,0.12878 1.71991,-0.15952 z m 2.125533,-0.97716 c -0.211631,-0.13446 -0.127814,-0.20676 0.242781,-0.20941 0.311301,-0.002 0.847082,-0.24105 1.190625,-0.53072 l 0.624624,-0.52667 -1.236219,0.44383 c -1.547584,0.55562 -1.837124,0.35419 -2.456283,-1.70876 -0.250612,-0.83501 -0.631221,-1.87538 -0.845811,-2.31194 -0.7415,-1.50856 -0.25113,2.42892 0.51711,4.1522 l 0.671537,1.50637 0.807428,-0.30477 c 0.540801,-0.20413 0.700695,-0.37258 0.484208,-0.51013 z m 18.310982,-3.77555 c 0.84126,-0.43503 1.14201,-0.9884 0.8917,-1.64069 -0.1136,-0.29604 -0.0675,-0.3776 0.14059,-0.24897 0.40297,0.24905 0.39039,0.072 -0.0738,-1.03904 -0.27884,-0.66738 -0.54936,-0.91865 -0.99218,-0.9216 -0.42106,-0.003 -0.50296,-0.0712 -0.26556,-0.22179 0.44149,-0.28006 -0.0284,-0.71019 -1.05829,-0.96867 -1.80022,-0.45182 -3.48246,0.99671 -3.50504,3.0181 -0.0118,1.05995 0.0829,1.25237 0.88576,1.79835 1.05356,0.71649 2.83119,0.81675 3.97685,0.22431 z m -3.03775,-1.17781 c 0.0823,-0.1331 -2e-5,-0.31169 -0.18282,-0.39688 -0.25239,-0.11761 -0.25636,-0.19084 -0.0165,-0.30427 0.17372,-0.0822 0.25306,-0.31306 0.17629,-0.5131 -0.0768,-0.20004 -0.0142,-0.5793 0.13911,-0.8428 0.26871,-0.46196 0.27897,-0.46197 0.28673,-4.6e-4 0.01,0.59434 0.49301,0.33012 0.80356,-0.43956 l 0.22927,-0.56824 0.0168,0.5979 c 0.009,0.32885 -0.22135,0.80179 -0.51239,1.05099 -0.29104,0.2492 -0.52917,0.72428 -0.52917,1.05574 0,0.33147 -0.12609,0.60266 -0.2802,0.60266 -0.15411,0 -0.2129,-0.10889 -0.13064,-0.24198 z m 1.23684,-0.26191 c -0.20055,-0.12688 -0.28282,-0.36307 -0.18282,-0.52486 0.29184,-0.47222 0.67972,-0.33845 0.4896,0.16886 -0.15724,0.41956 -0.12758,0.42576 0.31592,0.0661 0.41166,-0.33381 0.46946,-0.33644 0.36373,-0.0165 -0.16072,0.48626 -0.52387,0.59906 -0.98643,0.3064 z m 1.3267,-0.36431 c -0.0198,-0.25923 -0.20598,-0.53654 -0.41369,-0.61624 -0.34355,-0.13184 -0.36662,-1.03447 -0.0349,-1.36618 0.22523,-0.22523 0.70783,1.32716 0.59291,1.90724 -0.0851,0.4295 -0.11598,0.4456 -0.1443,0.0752 z m 13.56516,1.42072 c 0.94544,-0.8882 1.26653,-2.44574 0.6968,-3.38004 -0.24965,-0.4094 -0.64857,-0.90509 -0.8865,-1.10154 -0.72199,-0.59614 -2.22649,-0.42509 -3.57456,0.40638 -1.11294,0.68645 -1.24607,0.87364 -1.3181,1.85341 -0.0672,0.91391 0.0587,1.24796 0.77996,2.06943 0.82537,0.94004 0.91683,0.9749 2.26498,0.8631 0.97845,-0.0811 1.59688,-0.29688 2.03742,-0.71074 z m -2.42255,-0.2322 c -0.47294,-0.0491 -0.85989,-0.20078 -0.85989,-0.33708 0,-0.1363 0.11532,-0.24782 0.25628,-0.24782 0.14095,0 0.18774,-0.1786 0.10398,-0.39688 -0.0838,-0.21828 -0.0205,-0.39687 0.1406,-0.39687 0.16109,0 0.29289,0.11906 0.29289,0.26458 0,0.50635 0.46847,0.26066 0.62193,-0.32616 0.22271,-0.85164 -0.1949,-1.11539 -0.96602,-0.61014 -0.40462,0.26512 -0.72836,0.33376 -0.82635,0.17521 -0.19289,-0.31209 0.27736,-0.65444 0.61355,-0.44667 0.31132,0.19241 0.58231,-0.53481 0.38798,-1.0412 -0.1923,-0.50114 0.14884,-0.49522 0.82279,0.0143 0.39651,0.29976 0.53149,0.74293 0.56286,1.84811 0.0227,0.79959 -0.0334,1.48442 -0.12471,1.52185 -0.0913,0.0374 -0.55294,0.0279 -1.02589,-0.0212 z m -1.38906,-1.11407 c 0,-0.14552 0.12609,-0.26458 0.2802,-0.26458 0.15411,0 0.20661,0.11906 0.11668,0.26458 -0.0899,0.14552 -0.21603,0.26458 -0.2802,0.26458 -0.0642,0 -0.11668,-0.11906 -0.11668,-0.26458 z m 3.3356,-0.41851 c -0.25148,-0.65536 -0.19001,-0.9583 0.17013,-0.83839 0.1819,0.0606 0.34424,0.36813 0.36075,0.6835 0.0349,0.66709 -0.29715,0.76397 -0.53088,0.15489 z m -25.031433,0.25791 c 0,-0.26729 0.145876,-0.3692 0.392839,-0.27443 0.520754,0.19983 1.051364,-0.79673 0.965794,-1.81393 -0.10611,-1.26147 -0.32176,-1.76817 -0.692055,-1.62607 -0.189172,0.0726 -0.570721,-0.0793 -0.847887,-0.33751 -1.136646,-1.05894 -2.63235,0.56158 -2.494993,2.70321 0.07679,1.1973 2.676302,2.50733 2.676302,1.34873 z m -1.583449,-2.1545 c 0.0074,-0.36213 0.493793,-0.97942 0.649249,-0.82396 0.208426,0.20843 -0.123584,1.02239 -0.417024,1.02239 -0.129952,0 -0.234453,-0.0893 -0.232225,-0.19843 z m 35.185532,0.9778 c 0,0.56369 1.52073,-0.74189 1.70106,-1.46039 0.25188,-1.00354 -0.0344,-1.62196 -0.96583,-2.08664 -0.76776,-0.38301 -0.9027,-0.37347 -1.96042,0.13856 -1.05203,0.50928 -1.13176,0.62083 -1.07983,1.51072 0.0796,1.36439 1.2263,2.43553 1.97429,1.84421 0.22579,-0.1785 0.33073,-0.16151 0.33073,0.0535 z m 0.18439,-1.67713 c -0.10826,-0.27549 -0.13451,-0.56322 -0.0583,-0.63941 0.24132,-0.24132 0.45365,0.15414 0.35253,0.65657 -0.0927,0.46046 -0.10682,0.45964 -0.2942,-0.0172 z m -1.37501,-0.42515 c 0.0899,-0.14552 0.21602,-0.26459 0.28019,-0.26459 0.0642,0 0.11668,0.11907 0.11668,0.26459 0,0.14552 -0.12609,0.26458 -0.2802,0.26458 -0.15411,0 -0.20661,-0.11906 -0.11667,-0.26458 z m 1.05833,-0.79375 c 0.0899,-0.14552 0.27556,-0.26459 0.41249,-0.26459 0.13693,0 0.24897,0.11907 0.24897,0.26459 0,0.14552 -0.18562,0.26458 -0.41249,0.26458 -0.22687,0 -0.33891,-0.11906 -0.24897,-0.26458 z m -16.24141,-1.74992 c -0.0623,-1.54039 0.50134,-2.68068 1.12937,-2.28471 0.46307,0.29197 3.30318,0.3364 3.47746,0.0544 0.086,-0.13921 5.8e-4,-0.26405 -0.18991,-0.27742 -0.19049,-0.0134 -0.644,-0.0497 -1.0078,-0.0807 -0.3638,-0.031 -1.22701,-0.0796 -1.91823,-0.10798 l -1.25677,-0.0515 -0.0264,-0.99219 c -0.0145,-0.5457 -0.1217,-1.28984 -0.23821,-1.65365 l -0.21184,-0.66145 -0.0264,0.7276 c -0.0145,0.40018 -0.13825,0.7276 -0.27498,0.7276 -0.13674,0 -0.28557,0.44649 -0.33073,0.99219 l -0.0821,0.99219 -1.91823,-0.0809 c -1.2824,-0.0541 -1.91823,0.0169 -1.91823,0.21405 0,0.16221 -0.11906,0.22135 -0.26459,0.13141 -0.14552,-0.0899 -0.26458,-0.0523 -0.26458,0.0836 0,0.37009 1.5006,0.5978 2.19632,0.33329 0.68907,-0.26198 2.08371,-0.0725 2.33805,0.31771 0.0928,0.14237 0.10919,0.70278 0.0364,1.24534 -0.12648,0.94298 0.32806,2.33753 0.65525,2.01034 0.0858,-0.0858 0.12909,-0.82347 0.0961,-1.63916 z m -0.42734,-3.80633 c 0.0899,-0.14552 0.21602,-0.26459 0.2802,-0.26459 0.0642,0 0.11667,0.11907 0.11667,0.26459 0,0.14552 -0.12609,0.26458 -0.28019,0.26458 -0.15411,0 -0.20662,-0.11906 -0.11668,-0.26458 z m -11.31426,4.66441 c 0.24928,-0.39856 0.35827,-0.89421 0.45958,-2.09001 0.0677,-0.79897 -0.0285,-1.05865 -0.48353,-1.30487 -1.30306,-0.70517 -2.39353,-0.43072 -3.99315,1.00498 l -0.779277,0.69942 0.752877,0.56355 c 2.06629,1.54671 3.52645,1.95366 4.0435,1.12693 z m -1.65033,-0.43108 c 0.0899,-0.14552 0.27556,-0.26458 0.41249,-0.26458 0.13694,0 0.24897,0.11906 0.24897,0.26458 0,0.14552 -0.18562,0.26458 -0.41249,0.26458 -0.22687,0 -0.3389,-0.11906 -0.24897,-0.26458 z m -6.844246,-0.0216 c 0.934624,-0.57763 1.193343,-1.51797 0.560397,-2.03682 -0.574093,-0.4706 -2.553368,-0.88093 -3.443504,-0.71388 -0.815041,0.15296 -0.857263,0.2199 -0.8829,1.39983 -0.01847,0.85022 0.1061,1.3405 0.396875,1.56199 0.666387,0.50757 2.380003,0.4002 3.369132,-0.21112 z m -1.225541,-0.1958 c 0,-0.28586 0.178594,-0.58829 0.396875,-0.67205 0.218282,-0.0838 0.396875,-0.0285 0.396875,0.12288 0,0.15135 -0.178593,0.45378 -0.396875,0.67206 -0.352777,0.35277 -0.396875,0.33912 -0.396875,-0.12289 z m 33.932517,-0.30679 c 0.37064,-0.29155 0.71985,-0.88851 0.78687,-1.34513 0.1626,-1.10789 -1.04321,-2.36586 -2.26213,-2.35998 -1.0011,0.005 -1.31313,0.18668 -1.7533,1.02178 -0.26068,0.49459 -0.26236,0.6717 -0.008,0.82899 0.2383,0.14727 0.20268,0.26772 -0.13504,0.45672 -0.38191,0.21372 -0.40648,0.35427 -0.14674,0.83958 0.59886,1.11899 2.43485,1.4102 3.5182,0.55804 z m 10.08493,-0.28878 c 0.92599,-0.72839 0.89881,-1.67192 -0.0763,-2.64698 -1.14753,-1.14753 -2.29115,-0.9432 -3.0618,0.54707 -0.39048,0.75511 -0.37634,0.80036 0.53525,1.71194 1.07599,1.07599 1.62424,1.15771 2.60281,0.38797 z m -1.20455,-2.80737 c 0.19099,-0.0764 0.41919,-0.067 0.50711,0.0209 0.0879,0.0879 -0.0683,0.15045 -0.34726,0.13896 -0.30823,-0.0127 -0.37092,-0.0754 -0.15985,-0.15985 z m -37.805218,-0.14898 c 0.571408,-1.07467 0.624208,-1.36475 0.370668,-2.03645 -0.22004,-0.58296 -0.21818,-0.82078 0.007,-0.92993 0.16661,-0.0807 -0.0245,-0.0841 -0.424679,-0.008 -0.400182,0.0764 -0.727604,0.0355 -0.727604,-0.0908 0,-0.48563 -1.923384,-0.1469 -2.382036,0.41951 -0.386788,0.47766 -0.412125,0.71809 -0.162563,1.54259 0.365903,1.20886 1.581363,2.56233 2.194941,2.44417 0.251724,-0.0485 0.757525,-0.65207 1.124003,-1.34132 z m 33.847488,-1.09528 c 0.60775,-0.46315 0.81675,-1.38739 0.54021,-2.38894 -0.26028,-0.94264 -0.58559,-1.19028 -0.8985,-0.68398 -0.0899,0.14552 -0.41738,0.26458 -0.72764,0.26458 -0.55283,0 -0.55384,-0.008 -0.0505,-0.38846 0.50256,-0.38011 0.50127,-0.38864 -0.0601,-0.39687 -0.92034,-0.0135 -1.41071,0.27475 -1.41071,0.82926 0,0.28406 -0.11906,0.44289 -0.26458,0.35295 -0.63128,-0.39016 -0.18909,1.05166 0.56904,1.85543 0.83522,0.88548 1.62139,1.07531 2.3028,0.55603 z m -1.34818,-1.63578 c -0.21671,-0.21857 0.25814,-0.90797 0.62541,-0.90797 0.1277,0 0.23219,0.12609 0.23219,0.2802 0,0.15411 -0.11005,0.21218 -0.24456,0.12905 -0.13451,-0.0831 -0.28334,0.0396 -0.33073,0.2727 -0.0474,0.23312 -0.17443,0.33483 -0.28231,0.22602 z m -43.680595,25.37397 c -0.097,-0.097 -0.17639,-0.29942 -0.17639,-0.44979 0,-0.16579 0.12323,-0.15017 0.31309,0.0397 0.1722,0.1722 0.25157,0.37461 0.17639,0.44979 -0.0752,0.0752 -0.21608,0.0573 -0.31309,-0.0397 z m 2.998608,-0.35278 c 0,-0.14552 0.126089,-0.26458 0.280198,-0.26458 0.154109,0 0.206614,0.11906 0.116677,0.26458 -0.08994,0.14552 -0.216026,0.26459 -0.280198,0.26459 -0.06417,0 -0.116677,-0.11907 -0.116677,-0.26459 z M 138.32852,167.803 c 0,-0.21828 0.11906,-0.47046 0.26459,-0.56039 0.14552,-0.0899 0.26458,0.0151 0.26458,0.23335 0,0.21828 -0.11906,0.47046 -0.26458,0.5604 -0.14553,0.0899 -0.26459,-0.0151 -0.26459,-0.23336 z m -50.376325,-1.00064 c 0.0673,-0.10895 0.29722,-0.13103 0.51084,-0.0491 0.53865,0.2067 0.4852,0.33142 -0.12244,0.28565 -0.28096,-0.0212 -0.45574,-0.12763 -0.3884,-0.23659 z m 47.201325,-1.67642 c 0,-0.21828 0.11906,-0.39688 0.26458,-0.39688 0.14553,0 0.26459,0.1786 0.26459,0.39688 0,0.21828 -0.11906,0.39687 -0.26459,0.39687 -0.14552,0 -0.26458,-0.17859 -0.26458,-0.39687 z m -48.418755,-0.66146 c 0,-0.14552 0.11907,-0.26458 0.26459,-0.26458 0.14552,0 0.26458,0.11906 0.26458,0.26458 0,0.14552 -0.11906,0.26458 -0.26458,0.26458 -0.14552,0 -0.26459,-0.11906 -0.26459,-0.26458 z m -0.52916,-2.36563 c 0,-0.13694 0.11906,-0.32256 0.26458,-0.41249 0.14552,-0.0899 0.26458,0.0221 0.26458,0.24896 0,0.22687 -0.11906,0.41249 -0.26458,0.41249 -0.14552,0 -0.26458,-0.11203 -0.26458,-0.24896 z m 35.261995,-1.99218 c -0.26905,-0.30593 -0.18998,-0.36512 0.46302,-0.34655 0.47301,0.0135 0.78748,0.1648 0.78748,0.379 0,0.46369 -0.83318,0.44207 -1.2505,-0.0325 z m -10.92033,-0.14011 c 0,-0.14552 0.11906,-0.26458 0.26458,-0.26458 0.14552,0 0.26459,0.11906 0.26459,0.26458 0,0.14553 -0.11907,0.26459 -0.26459,0.26459 -0.14552,0 -0.26458,-0.11906 -0.26458,-0.26459 z m -7.67292,-0.52778 c 0,-0.12667 0.23986,-0.30643 0.53301,-0.39948 0.30771,-0.0977 0.45906,-0.30091 0.35806,-0.48085 -0.12702,-0.22629 -0.0895,-0.2332 0.13712,-0.0252 0.17164,0.15757 0.24554,0.45989 0.16421,0.67182 -0.15884,0.41392 -1.1924,0.6165 -1.1924,0.23371 z m 23.1637,-0.11021 c 0.28087,-0.20538 0.62315,-0.3039 0.76062,-0.21894 0.13746,0.085 0.0197,0.24462 -0.26167,0.35481 -0.82857,0.32447 -1.04712,0.26496 -0.49895,-0.13587 z m 3.17936,-0.0782 c -0.14359,-0.37709 -0.1132,-0.40748 0.14811,-0.14812 0.18082,0.17948 0.26211,0.39297 0.18065,0.47444 -0.0815,0.0815 -0.2294,-0.0654 -0.32876,-0.32632 z m -11.52639,-0.88692 c 0,-0.15411 0.11906,-0.20662 0.26458,-0.11668 0.14552,0.0899 0.26459,0.21602 0.26459,0.2802 0,0.0642 -0.11907,0.11667 -0.26459,0.11667 -0.14552,0 -0.26458,-0.12609 -0.26458,-0.28019 z m 8.94623,0.0995 c 0.19099,-0.0764 0.41919,-0.067 0.50711,0.0209 0.0879,0.0879 -0.0684,0.15045 -0.34726,0.13896 -0.30823,-0.0127 -0.37092,-0.0754 -0.15985,-0.15985 z M 89.666075,146.05387 c 0.0127,-0.30822 0.0754,-0.37092 0.15985,-0.15985 0.0764,0.19099 0.067,0.4192 -0.0209,0.50712 -0.0879,0.0879 -0.15045,-0.0684 -0.13896,-0.34727 z m 1.831195,-3.25285 c 0,-0.1277 0.198086,-0.39559 0.440192,-0.59531 0.399152,-0.32927 0.410618,-0.30762 0.122983,0.23219 -0.32806,0.61567 -0.563175,0.76727 -0.563175,0.36312 z m 33.86667,-1.64466 c 0,-0.1319 0.17859,-0.23982 0.39687,-0.23982 0.21828,0 0.39688,-0.16401 0.39688,-0.36447 0,-0.20047 0.20836,-0.52215 0.46302,-0.71485 0.3939,-0.29806 0.41365,-0.295 0.13229,0.0205 -0.1819,0.20399 -0.33073,0.57131 -0.33073,0.81628 0,0.24496 -0.23812,0.50766 -0.52917,0.58377 -0.29104,0.0761 -0.52916,0.0305 -0.52916,-0.10143 z m -20.8812,-1.71707 c 0.0127,-0.30823 0.0754,-0.37092 0.15985,-0.15985 0.0764,0.19099 0.067,0.41919 -0.0209,0.50711 -0.0879,0.0879 -0.15045,-0.0684 -0.13896,-0.34726 z m 7.80771,28.79682 c -0.28456,-0.28455 -0.43562,0.11397 -0.23587,0.62225 0.18738,0.4768 0.20153,0.47762 0.2942,0.0172 0.0535,-0.26605 0.0273,-0.55378 -0.0583,-0.63941 z m 8.34474,0.26325 c 0.3291,-0.41965 0.31975,-0.42901 -0.0999,-0.0999 -0.44073,0.34564 -0.58089,0.56291 -0.36313,0.56291 0.0549,0 0.2633,-0.20836 0.46302,-0.46302 z m 3.23755,-0.65354 c -0.0987,-0.15967 -0.25174,-0.12193 -0.38991,0.0961 -0.36162,0.57071 -0.27178,0.85071 0.1584,0.49368 0.21668,-0.17982 0.32086,-0.44524 0.23151,-0.58981 z m 4.76715,0.44136 c 0.0904,-0.23546 0.046,-0.34167 -0.10398,-0.24897 -0.14386,0.0889 -0.26156,0.27368 -0.26156,0.41062 0,0.38058 0.18965,0.29672 0.36554,-0.16165 z m -22.59054,-0.15113 c 0,-0.16344 -0.38513,-0.99773 -0.85585,-1.85397 -0.80975,-1.47293 -1.48327,-2.03841 -2.02736,-1.70214 -0.36278,0.22421 -0.0235,1.20528 0.53814,1.55602 0.27115,0.16933 0.49299,0.42155 0.49299,0.56048 0,0.3127 1.34226,1.73677 1.637,1.73677 0.1183,0 0.21508,-0.13372 0.21508,-0.29716 z m 23.41563,-1.02576 c 0.26339,-0.29104 0.41936,-0.52916 0.3466,-0.52916 -0.0728,0 -0.34779,0.23812 -0.61118,0.52916 -0.26339,0.29105 -0.41936,0.52917 -0.3466,0.52917 0.0728,0 0.34779,-0.23812 0.61118,-0.52917 z m -8.41822,-0.57877 c -0.0845,-0.21107 -0.14716,-0.14837 -0.15985,0.15985 -0.0115,0.27892 0.0511,0.43518 0.13896,0.34727 0.0879,-0.0879 0.0973,-0.31613 0.0209,-0.50712 z m 9.23953,-2.52457 c -0.26895,-0.26895 -0.49087,0.13597 -0.2702,0.49302 0.1667,0.26972 0.22902,0.26993 0.31864,0.001 0.0613,-0.18383 0.0395,-0.40617 -0.0484,-0.49408 z m -11.37965,-0.49385 c 0.51294,-0.45824 0.58543,-0.59511 0.21783,-0.41132 -0.52524,0.26261 -1.36987,1.0981 -1.11012,1.0981 0.068,0 0.46947,-0.30905 0.89229,-0.68678 z m -10.31043,-25.30143 c -0.24064,-0.33133 -0.70377,-0.9879 -1.02917,-1.45904 -0.32541,-0.47114 -0.69939,-0.85809 -0.83109,-0.85989 -0.13169,-0.002 -0.0424,0.21446 0.19844,0.48058 0.24083,0.26612 0.43788,0.66545 0.43788,0.8874 0,0.47767 1.28296,1.93189 1.50685,1.708 0.085,-0.085 -0.0423,-0.42572 -0.28291,-0.75705 z m 10.67643,-0.64415 c -0.008,-0.28895 -1.03882,1.02563 -1.04657,1.33419 -0.003,0.12876 0.23224,-0.0686 0.52328,-0.43861 0.29105,-0.37 0.52652,-0.77301 0.52329,-0.89558 z m 5.79128,-0.33903 c 0.89553,-2.01124 0.9136,-2.63417 0.0273,-0.94215 -0.45734,0.87312 -1.00556,1.86 -1.21828,2.19305 -0.36647,0.57381 -0.35948,0.58852 0.13344,0.28069 0.2861,-0.17867 0.76197,-0.86789 1.05749,-1.53159 z m -9.30883,0.72803 c -0.0845,-0.21107 -0.14715,-0.14837 -0.15985,0.15985 -0.0115,0.27892 0.051,0.43519 0.13897,0.34727 0.0879,-0.0879 0.0973,-0.31613 0.0209,-0.50712 z m 19.68231,-1.64694 c -0.3507,-0.42256 -2.73665,-1.06377 -3.25287,-0.87419 -0.18606,0.0683 0.0189,0.20231 0.45545,0.29773 0.43656,0.0954 1.27,0.33945 1.85208,0.5423 0.58209,0.20286 1.10268,0.37759 1.15688,0.38831 0.0542,0.0107 -0.041,-0.14865 -0.21154,-0.35415 z m -33.90801,-0.85089 c 0.20834,-0.18595 -1.43358,-0.0455 -2.09462,0.17916 -0.446076,0.15161 -0.230695,0.17506 0.66146,0.072 0.7276,-0.084 1.37252,-0.19707 1.43316,-0.25118 z m 16.23627,-1.00024 c 1.8808,-0.82328 3.10036,-2.59387 3.10036,-4.50117 0,-1.01392 -0.47489,-2.2699 -0.85827,-2.2699 -0.13429,0 -0.19572,-0.14533 -0.13651,-0.32296 0.21172,-0.63514 -1.95698,-1.47977 -4.04575,-1.57567 -1.05934,-0.0486 -3.5604,0.85725 -3.12621,1.13232 0.28145,0.1783 0.2561,0.22994 -0.11442,0.23309 -0.61781,0.005 -1.49487,1.91472 -1.50261,3.27136 -0.0105,1.83713 1.42001,3.82287 3.0369,4.21567 1.08895,0.26455 2.82322,0.17764 3.64651,-0.18274 z m -1.92672,-0.0431 c 0,-0.0831 0.16703,-0.31822 0.37117,-0.52237 0.31852,-0.31851 0.3936,-0.31276 0.52917,0.0405 0.23844,0.62137 0.18229,0.81545 -0.10659,0.36844 -0.17099,-0.26459 -0.25783,-0.28664 -0.26053,-0.0662 -0.002,0.1819 -0.12312,0.33072 -0.26864,0.33072 -0.14552,0 -0.26458,-0.068 -0.26458,-0.15119 z m 1.32291,-0.39359 c 0,-0.15411 0.11907,-0.20662 0.26459,-0.11668 0.14552,0.0899 0.26458,0.21602 0.26458,0.2802 0,0.0642 -0.11906,0.11667 -0.26458,0.11667 -0.14552,0 -0.26459,-0.12609 -0.26459,-0.28019 z m -2.3491,-1.22427 c -1.62249,-0.8107 -2.29095,-2.60463 -1.52063,-4.0809 0.23684,-0.45389 0.27712,-0.83928 0.11752,-1.12448 -0.15715,-0.2808 -0.14483,-0.43391 0.0349,-0.43391 0.15275,0 0.27773,0.17252 0.27773,0.38338 0,0.33087 0.13266,0.32794 0.96881,-0.0214 0.58905,-0.24612 1.30544,-0.34165 1.82757,-0.24369 0.47232,0.0886 0.90981,0.0685 0.9722,-0.0447 0.0624,-0.11321 0.0805,-0.0657 0.0402,0.10555 -0.0954,0.40602 0.54199,0.93218 0.822,0.67851 0.11909,-0.10788 0.12643,-0.0401 0.0163,0.15056 -0.1101,0.19068 -0.0527,0.70286 0.12765,1.13818 0.25588,0.61774 0.25907,1.02103 0.0145,1.83718 -0.5065,1.69055 -2.15362,2.42788 -3.69885,1.65577 z m -2.39251,-3.67696 c 0.0127,-0.30822 0.0754,-0.37092 0.15985,-0.15985 0.0764,0.19099 0.067,0.4192 -0.0209,0.50712 -0.0879,0.0879 -0.15045,-0.0683 -0.13896,-0.34727 z m 10.58349,4.26865 c 1.00168,-1.12164 1.05226,-1.22787 0.35233,-0.73996 -0.44948,0.31334 -0.93702,0.72408 -1.0834,0.91278 -0.24419,0.31476 -0.7704,1.54434 -0.53968,1.26106 0.0556,-0.0683 0.62748,-0.71357 1.27075,-1.43388 z m -13.35466,-0.0106 c -0.39411,-0.36525 -0.82575,-0.66409 -0.95921,-0.66409 -0.13346,0 -0.18001,-0.16323 -0.10346,-0.36273 0.0766,-0.1995 -0.0538,-0.43679 -0.28965,-0.5273 -0.23587,-0.0905 -0.34887,-0.29398 -0.25111,-0.45216 0.0978,-0.15818 -0.0733,-0.46343 -0.3801,-0.67833 -0.30682,-0.2149 -0.55785,-0.48538 -0.55785,-0.60107 0,-0.28035 1.3959,-1.73095 1.72502,-1.79264 0.14264,-0.0267 0.43795,-0.31854 0.65623,-0.64846 l 0.39687,-0.59986 -0.85989,0.50707 c -0.47295,0.27889 -0.8599,0.59875 -0.8599,0.7108 0,0.11205 -0.71437,0.56435 -1.5875,1.0051 -1.5129,0.76371 -2.02477,1.32292 -1.21093,1.32292 0.20712,0 0.71314,0.28136 1.12448,0.62525 0.41135,0.34389 1.01753,0.70965 1.34706,0.8128 0.32954,0.10315 0.54575,0.27395 0.48048,0.37957 -0.16761,0.2712 0.12127,0.62763 1.03655,1.27893 1.03005,0.73297 1.2124,0.53636 0.29291,-0.3158 z m -3.27014,-2.91318 c -0.27256,-0.30951 -0.22526,-0.43175 0.26458,-0.68378 0.47436,-0.24407 0.53299,-0.2395 0.28642,0.0223 -0.17053,0.18106 -0.24709,0.4933 -0.17013,0.69384 0.17695,0.46114 0.0438,0.44982 -0.38087,-0.0324 z m 18.44281,1.23494 c -0.21111,-0.0679 -0.47132,-0.2545 -0.57823,-0.41458 -0.12173,-0.18227 -0.1959,-0.12624 -0.19844,0.14991 -0.004,0.47425 0.49904,0.76955 0.90896,0.53322 0.13835,-0.0798 0.0788,-0.20061 -0.13229,-0.26855 z m -26.894004,-1.3842 c -1.061553,-0.80359 -1.534962,-0.94132 -1.79414,-0.52196 -0.177136,0.28661 2.256847,1.61655 2.58789,1.41404 0.117017,-0.0716 -0.24017,-0.47302 -0.79375,-0.89208 z m 36.435084,0.51372 c 1.08025,-0.56306 1.26357,-1.08352 0.43805,-1.24362 -0.25858,-0.0502 -0.4411,0.0839 -0.4411,0.32393 0,0.22522 -0.35719,0.59419 -0.79375,0.81995 -0.43656,0.22575 -0.79375,0.46694 -0.79375,0.53596 0,0.25816 0.54523,0.10863 1.59055,-0.43622 z m -7.93552,-0.1058 c 0.27961,-0.3369 0.26324,-0.37562 -0.0999,-0.23627 -0.39398,0.15118 -0.4926,-0.0442 -0.42066,-0.83334 0.007,-0.0823 -0.27155,-0.37396 -0.6201,-0.64813 -0.66571,-0.52365 -1.77479,-0.6084 -1.77479,-0.13563 0,0.41654 1.00234,0.97345 1.19397,0.66339 0.2089,-0.33801 0.65811,-0.33432 0.65811,0.005 0,0.14552 -0.17859,0.26458 -0.39687,0.26458 -0.21828,0 -0.39688,0.11906 -0.39688,0.26458 0,0.14552 0.20836,0.26641 0.46302,0.26864 0.37048,0.003 0.38924,0.0508 0.0939,0.23778 -0.35263,0.22329 -0.17075,0.34183 0.79976,0.52122 0.0913,0.0169 0.31652,-0.15062 0.50044,-0.37224 z m -2.25399,-1.71373 c 0.0899,-0.14552 0.28259,-0.26459 0.42811,-0.26459 0.14552,0 0.191,0.11907 0.10106,0.26459 -0.0899,0.14552 -0.28258,0.26458 -0.42811,0.26458 -0.14552,0 -0.19099,-0.11906 -0.10106,-0.26458 z m -1.78002,-1.91113 c -0.1635,-0.46903 -0.34363,-0.71376 -0.40027,-0.54383 -0.0991,0.29728 0.36401,1.39662 0.58834,1.39662 0.0601,0 -0.0246,-0.38375 -0.18807,-0.85279 z m -15.48885,-1.0102 c 0.68859,-0.17587 1.19444,-0.41285 1.12412,-0.52662 -0.0703,-0.11378 0.097,-0.14807 0.37182,-0.0762 0.27482,0.0719 0.57966,10e-4 0.67744,-0.15697 0.0978,-0.1582 0.46839,-0.28763 0.82361,-0.28763 0.43074,0 0.6528,-0.15421 0.66673,-0.46302 0.0115,-0.25467 0.0748,-0.33262 0.14069,-0.17323 0.0846,0.20458 0.52578,0.18096 1.50047,-0.0803 2.22263,-0.59581 7.08558,-0.49569 7.99524,0.16461 0.48371,0.35111 5.47154,1.6509 5.65007,1.47237 0.16346,-0.16346 0.18121,-0.15312 -1.68132,-0.97867 -5.20295,-2.30616 -9.40292,-2.41104 -15.35091,-0.38335 -2.07656,0.70791 -3.97418,1.618 -4.22716,2.02733 -0.11144,0.18032 0.0368,0.18895 0.44507,0.0259 0.33669,-0.13446 1.17555,-0.38835 1.86413,-0.56422 z m 20.84075,0.68798 c 0,-0.0642 -0.11906,-0.19026 -0.26459,-0.2802 -0.14552,-0.0899 -0.26458,-0.0374 -0.26458,0.11668 0,0.15411 0.11906,0.2802 0.26458,0.2802 0.14553,0 0.26459,-0.0525 0.26459,-0.11668 z m -11.52011,-8.26766 c -0.15954,-0.36053 -0.27492,-0.13921 -0.46591,0.89368 -0.13962,0.75508 -0.15842,1.58852 -0.0418,1.85208 0.15954,0.36053 0.27493,0.13921 0.46591,-0.89368 0.13962,-0.75508 0.15843,-1.58852 0.0418,-1.85208 z m 1.75474,0.41926 c -0.2838,-0.63968 -0.52441,-1.07616 -0.53469,-0.96996 -0.0303,0.31323 0.83162,2.35209 0.946,2.23771 0.0576,-0.0576 -0.1275,-0.62807 -0.41131,-1.26775 z m -3.84796,0.003 c 0.23275,-0.45009 0.3582,-0.88332 0.27878,-0.96274 -0.0794,-0.0794 -0.27037,0.18693 -0.42433,0.59188 -0.15396,0.40495 -0.34291,0.83818 -0.41989,0.96273 -0.077,0.12456 -0.0765,0.22647 0.001,0.22647 0.0776,0 0.33154,-0.36825 0.56429,-0.81834 z m 0.90522,-2.22437 c 0,-0.14552 -0.11541,-0.086 -0.25648,0.13229 -0.14106,0.21828 -0.25648,0.51594 -0.25648,0.66146 0,0.14552 0.11542,0.086 0.25648,-0.13229 0.14107,-0.21828 0.25648,-0.51594 0.25648,-0.66146 z m 2.19869,0.38638 c -0.0776,-0.29681 -0.20024,-0.48054 -0.2725,-0.40829 -0.14313,0.14314 0.1097,0.94795 0.2978,0.94795 0.0637,0 0.0523,-0.24285 -0.0253,-0.53966 z m -1.37046,-2.32022 c 0.0164,-0.2785 0.10635,-0.19769 0.23821,0.21405 0.17029,0.53174 0.21336,0.55768 0.21961,0.13229 0.004,-0.29104 -0.083,-0.76121 -0.19398,-1.04481 -0.17627,-0.45048 -0.24078,-0.4037 -0.51057,0.37021 -0.37593,1.07839 -0.37912,1.14616 -0.0442,0.93918 0.14552,-0.0899 0.27645,-0.36485 0.29096,-0.61092 z m -6.11179,63.85984 c 0,-0.10098 0.17859,-0.36219 0.39688,-0.58047 0.21828,-0.21828 0.39687,-0.28388 0.39687,-0.14579 0,0.1381 -0.17859,0.39931 -0.39687,0.58047 -0.21829,0.18115 -0.39688,0.24676 -0.39688,0.14579 z m 40.35156,-19.18762 c -0.0923,-0.29077 -0.21607,-1.04359 -0.27506,-1.67295 -0.059,-0.62935 -0.41759,-2.03028 -0.79687,-3.11318 -1.0251,-2.92683 -1.02507,-2.92666 -0.62454,-2.84008 1.12312,0.24279 2.35533,3.47108 2.35533,6.17079 0,1.68483 -0.34451,2.44585 -0.65886,1.45542 z m -0.25151,-4.8882 c -0.65254,-2.24468 -0.91856,-1.95982 -0.30643,0.32814 0.29994,1.12109 0.58598,1.83057 0.63564,1.57662 0.0497,-0.25395 -0.0985,-1.11109 -0.32921,-1.90476 z m -67.757735,3.54299 c -0.0947,-0.15328 -0.0854,-1.01649 0.0208,-1.91823 0.13828,-1.17432 0.24974,-1.48938 0.39282,-1.11036 0.15769,0.41772 0.22896,0.44558 0.33836,0.13229 0.50542,-1.44733 0.44157,-2.53833 -0.0736,-1.25677 -0.23347,0.58084 -0.23969,0.57834 -0.25606,-0.10298 -0.009,-0.38406 0.22808,-0.97937 0.52734,-1.32291 0.53514,-0.61434 0.53934,-0.61482 0.25527,-0.0293 -0.19443,0.40074 -0.19931,0.59531 -0.0149,0.59531 0.15064,0 0.27389,-0.13891 0.27389,-0.30868 0,-0.16978 0.0662,-0.24248 0.14712,-0.16156 0.0809,0.0809 -0.0381,0.86208 -0.26458,1.73593 -0.22644,0.87385 -0.4117,1.95156 -0.4117,2.3949 0,0.44335 -0.12101,0.88088 -0.2689,0.97228 -0.1479,0.0914 -0.2004,0.27703 -0.11668,0.41249 0.0837,0.13547 0.0332,0.2463 -0.11236,0.2463 -0.14552,0 -0.34209,-0.12541 -0.43683,-0.2787 z m 67.120575,-9.48058 c -0.2503,-0.15862 -0.0725,-0.27953 0.59532,-0.40481 0.68813,-0.12909 0.95221,-0.31519 0.95221,-0.67104 0,-0.3688 -0.13845,-0.4562 -0.55153,-0.34818 -0.42818,0.11197 -0.47256,0.19907 -0.19844,0.38944 0.24534,0.17037 0.17993,0.1968 -0.21434,0.0866 -0.342,-0.0956 -0.72867,0.003 -0.97329,0.24725 -0.45919,0.45919 -1.38816,0.5395 -1.63428,0.14127 -0.0899,-0.14552 0.0633,-0.26458 0.34061,-0.26458 0.27728,0 0.85687,-0.17597 1.28799,-0.39104 0.43112,-0.21507 1.07449,-0.42343 1.42971,-0.46302 0.52957,-0.059 0.66093,0.059 0.72957,0.65549 0.0668,0.58046 -0.057,0.78097 -0.61254,0.99219 -0.82333,0.31303 -0.70979,0.31003 -1.15099,0.0304 z m -67.040625,-0.85563 -0.12114,-0.82532 0.4821,0.62689 c 0.58156,0.75623 0.61475,1.02376 0.12701,1.02376 -0.20844,0 -0.41915,-0.35636 -0.48797,-0.82533 z m 1.06012,0.098 c -0.0829,-0.31687 0.003,-0.50743 0.22787,-0.50743 0.41384,0 0.44536,0.16214 0.12865,0.66177 -0.17272,0.27247 -0.25412,0.23723 -0.35652,-0.15434 z m -0.46989,-1.12479 c -0.61575,-0.1972 -0.6214,-0.21366 -0.0818,-0.23821 0.31884,-0.0145 0.65329,0.0927 0.74322,0.23821 0.0899,0.14552 0.12673,0.25271 0.0818,0.23821 -0.045,-0.0145 -0.37941,-0.1217 -0.74322,-0.23821 z m 63.191805,-3.09105 c -0.24227,-0.0627 -0.51193,-0.30024 -0.59924,-0.52778 -0.12013,-0.31304 -0.029,-0.37978 0.37434,-0.27429 0.29321,0.0767 0.5331,0.0315 0.5331,-0.1004 0,-0.1319 0.29766,-0.23982 0.66146,-0.23982 0.64776,0 0.84578,0.39955 0.45897,0.92605 -0.22023,0.29975 -0.77936,0.38438 -1.42863,0.21624 z m -60.906235,-0.74541 c -0.0838,-0.21828 -0.037,-0.39688 0.10399,-0.39688 0.14095,0 0.25628,0.11907 0.25628,0.26459 0,0.14552 0.1318,0.26458 0.29289,0.26458 0.16109,0 0.22436,-0.17859 0.14059,-0.39687 -0.0838,-0.21829 -0.037,-0.39688 0.10399,-0.39688 0.14095,0 0.25628,0.23813 0.25628,0.52917 0,0.63125 -0.92199,0.73694 -1.15402,0.13229 z m 59.140895,-3.20351 c 0.11812,-0.61336 4.26925,-2.2296 4.67762,-1.82123 0.2557,0.2557 -0.67223,0.85654 -2.19138,1.41895 -2.4577,0.90986 -2.58806,0.93096 -2.48624,0.40228 z m 2.99771,-0.8945 c 0.0927,-0.14998 -0.0135,-0.19434 -0.24897,-0.10399 -0.45837,0.1759 -0.54223,0.36554 -0.16165,0.36554 0.13694,0 0.32171,-0.1177 0.41062,-0.26155 z m -60.720005,0.54929 c -1.8749,-0.61529 -2.91042,-1.10933 -2.91042,-1.38854 0,-0.29658 0.45967,-0.28404 0.64611,0.0176 0.0815,0.13186 0.37647,0.18004 0.65551,0.10707 0.27903,-0.073 0.72539,0.005 0.99192,0.17383 0.41238,0.26083 0.36631,0.28376 -0.30916,0.15388 -1.02759,-0.19759 -0.31084,0.24346 0.79375,0.48843 0.61946,0.13738 0.70661,0.11114 0.39687,-0.11954 -0.31784,-0.23671 -0.26515,-0.26537 0.26459,-0.14394 0.3638,0.0834 0.87684,0.15326 1.14009,0.15524 0.2833,0.002 0.40444,0.12367 0.29683,0.29778 -0.1,0.16179 -0.0177,0.39809 0.18283,0.52512 0.63474,0.40204 -0.56422,0.25309 -2.14892,-0.26696 z m 55.562505,-2.79197 c 0,-0.21316 0.26789,-0.52575 0.59531,-0.69463 0.32742,-0.16889 0.93717,-0.67248 1.35499,-1.11909 0.65124,-0.69612 0.80231,-0.75513 1.05834,-0.41346 0.16426,0.21922 0.50701,0.47676 0.76167,0.57232 0.81221,0.30476 0.50817,0.60314 -1.35687,1.3316 -2.08936,0.81607 -2.41344,0.85948 -2.41344,0.32326 z m 1.85208,-0.562 0.92604,-0.38014 -0.91777,0.14065 c -0.50478,0.0774 -1.0346,0.25747 -1.1774,0.40026 -0.35539,0.35539 0.0463,0.30016 1.16913,-0.16077 z m -55.463735,0.2058 c -1.70792,-0.56265 -2.63066,-1.17968 -2.37727,-1.58968 0.26379,-0.42683 1.352,-0.39428 1.72197,0.0515 0.1661,0.20014 0.86529,0.50943 1.55375,0.68731 2.150843,0.55572 2.107257,0.52863 1.5319,0.95206 -0.62788,0.4621 -0.73383,0.45769 -2.43035,-0.1012 z m 0.56269,-0.48943 c -0.7276,-0.22142 -1.532,-0.58943 -1.78756,-0.8178 -0.48937,-0.4373 -1.01201,-0.24587 -0.56074,0.2054 0.32376,0.32376 2.42311,0.99675 3.14205,1.00726 0.29104,0.004 -0.0661,-0.17344 -0.79375,-0.39486 z m 3.728643,-2.57111 -2.356773,-0.86533 -0.58705,-1.81177 c -0.41149,-1.26996 -0.80887,-1.97336 -1.32881,-2.35211 -1.23115,-0.89683 -2.06249,-1.74507 -1.88463,-1.92294 0.21105,-0.21104 2.56091,0.66991 2.56091,0.96007 0,0.11771 0.30169,0.28973 0.67041,0.38228 0.50207,0.12601 0.88535,0.61484 1.52651,1.94691 0.762004,1.58315 1.018821,1.8659 2.336425,2.5724 1.647906,0.88361 2.345827,1.40492 2.345827,1.75219 0,0.40239 -0.852917,0.23047 -3.282819,-0.6617 z m 1.695319,-0.16445 c 0,-0.14552 -0.150592,-0.26458 -0.334648,-0.26458 -0.184056,0 -0.766298,-0.23135 -1.293872,-0.51411 -0.527574,-0.28277 -1.050915,-0.43159 -1.162981,-0.33073 -0.112065,0.10086 -0.126023,0.0474 -0.03102,-0.11889 0.09501,-0.16625 -0.122592,-0.97006 -0.483553,-1.78625 -0.52782,-1.1935 -0.92882,-1.6597 -2.04854,-2.38164 -0.76575,-0.49372 -1.45179,-0.84009 -1.52456,-0.76972 -0.16835,0.16282 1.36182,1.40035 1.73368,1.40211 0.34044,0.002 1.2819,2.52752 1.0699,2.87054 -0.22535,0.36463 0.53044,0.89593 2.196227,1.5439 1.733339,0.67424 1.879365,0.70139 1.879365,0.34937 z m 41.010413,0.73747 c 0,-0.11456 0.11785,-0.2083 0.26188,-0.2083 0.14403,0 1.09073,-0.53128 2.10378,-1.18063 1.59684,-1.02355 1.88113,-1.32631 2.13676,-2.27566 0.16218,-0.60227 0.23468,-1.15523 0.16112,-1.22879 -0.29671,-0.29671 0.89384,-1.17024 2.7575,-2.02323 3.34962,-1.53313 4.089,-1.54683 2.08111,-0.0386 -2.18989,1.64497 -2.81711,2.3736 -3.30249,3.83645 -0.55886,1.68427 -0.85285,2.08548 -1.63908,2.2369 -0.31313,0.0603 -1.12672,0.3562 -1.80799,0.65756 -1.19348,0.52793 -2.75259,0.65496 -2.75259,0.22426 z m 3.65531,-1.05031 c 0.88812,-0.33588 1.48681,-0.74183 1.62473,-1.10169 0.75102,-1.9596 1.20118,-2.85553 1.62954,-3.24319 0.74346,-0.67283 0.32259,-0.93754 -0.63486,-0.39932 -0.63338,0.35605 -0.82835,0.63118 -0.76308,1.07678 0.0482,0.32919 -0.021,0.53135 -0.15386,0.44925 -0.13284,-0.0821 -0.40218,0.44066 -0.59853,1.1617 -0.19634,0.72104 -0.45874,1.31098 -0.58311,1.31098 -0.12437,0 -0.84699,0.36894 -1.60582,0.81986 -1.41865,0.84301 -1.32355,0.83649 1.08499,-0.0744 z m 5.48918,-6.24128 c -0.0887,-0.0887 -0.36678,0.0539 -0.61797,0.31693 -0.43662,0.45713 -0.42953,0.46423 0.16125,0.16125 0.33989,-0.17431 0.54541,-0.38949 0.45672,-0.47818 z m -11.8708,0.5614 c 0.13695,-0.3569 0.0461,-0.40602 -0.49819,-0.2694 -0.36613,0.0919 -0.73249,0.10027 -0.81414,0.0186 -0.18059,-0.18059 1.06309,-2.0368 2.15431,-3.21535 0.7717,-0.83347 1.61975,-1.14169 1.61975,-0.5887 0,0.68412 -1.10838,3.31985 -1.62919,3.87423 -0.67555,0.71909 -1.0722,0.80513 -0.83254,0.1806 z m 1.42514,-1.77898 c 0.85121,-1.8745 0.63517,-2.1317 -0.6832,-0.81333 -1.26581,1.26582 -1.48018,1.8659 -0.7276,2.03679 0.67285,0.15279 0.85923,-0.009 1.4108,-1.22346 z m -35.314677,1.24671 c -0.762127,-0.70668 -2.437327,-3.98711 -2.171717,-4.25272 0.08827,-0.0883 0.427908,0.0817 0.754757,0.37769 0.326848,0.29599 0.784274,0.64373 1.016503,0.77274 0.232229,0.12902 0.926298,0.67081 1.542375,1.20399 1.099429,0.95149 1.112119,0.98166 0.686369,1.63143 -0.62424,0.95271 -1.025478,1.01128 -1.828287,0.26687 z m 1.267647,-0.42644 c 0.2171,-0.34418 0.10812,-0.61428 -0.510262,-1.26465 -0.432479,-0.45484 -1.124508,-1.00358 -1.537841,-1.2194 -0.733603,-0.38307 -0.747046,-0.37777 -0.564017,0.22205 0.103123,0.33796 0.352008,0.80244 0.553077,1.03218 0.201069,0.22974 0.36558,0.51802 0.36558,0.64063 0,0.36964 0.868289,1.20987 1.15241,1.11517 0.145746,-0.0486 0.389221,-0.28528 0.541053,-0.52598 z m -0.737395,0.12085 c -0.106451,-0.17224 -0.124998,-0.42408 -0.04122,-0.55965 0.08378,-0.13556 -0.110366,-0.43048 -0.431443,-0.65537 -0.321077,-0.22489 -0.531428,-0.46103 -0.467447,-0.52476 0.06398,-0.0637 0.42362,0.14863 0.799199,0.47191 0.475897,0.40963 0.630069,0.73831 0.508662,1.08441 -0.119865,0.34171 -0.234584,0.39894 -0.367756,0.18346 z m 5.393935,-2.27561 c 0,-0.20621 -0.24348,-0.94294 -0.54106,-1.63717 -0.29758,-0.69424 -0.50005,-1.50778 -0.44994,-1.80788 0.0563,-0.33718 0.27634,0.0861 0.57593,1.10801 0.26664,0.90951 0.58817,1.65365 0.71452,1.65365 0.39225,0 0.25365,-0.88922 -0.29945,-1.92119 -0.58664,-1.09453 -0.62689,-1.25381 -0.31685,-1.25381 0.32262,0 1.11339,2.39913 1.11191,3.37344 -9e-4,0.58738 -0.12709,0.85989 -0.39819,0.85989 -0.21828,0 -0.39687,-0.16872 -0.39687,-0.37494 z m 1.32291,-0.15422 c 0,-0.14552 0.11907,-0.26459 0.26459,-0.26459 0.14552,0 0.26458,0.11907 0.26458,0.26459 0,0.14552 -0.11906,0.26458 -0.26458,0.26458 -0.14552,0 -0.26459,-0.11906 -0.26459,-0.26458 z m 20.15572,-0.60437 c -0.53172,-0.64068 0.53933,-3.62897 1.30067,-3.62897 0.18284,0 0.21462,0.51904 0.0931,1.52136 -0.21938,1.81029 -0.30979,2.00289 -0.84393,1.79792 -0.33805,-0.12972 -0.35052,-0.0877 -0.0731,0.24654 0.1843,0.22208 0.21564,0.40293 0.0698,0.40293 -0.14553,0 -0.39149,-0.1529 -0.54658,-0.33978 z m 0.74637,-1.5123 c 0,-0.27386 0.11906,-0.57152 0.26458,-0.66146 0.14552,-0.0899 0.25495,-0.42438 0.24317,-0.74322 -0.0165,-0.44595 -0.13697,-0.33551 -0.52223,0.47864 -0.5524,1.16735 -0.65834,1.8398 -0.25011,1.5875 0.14553,-0.0899 0.26459,-0.38759 0.26459,-0.66146 z m -17.46618,-0.53604 c -0.45832,-0.85637 -0.57733,-2.37438 -0.18615,-2.37438 0.23086,0 0.30542,0.32169 0.23813,1.02737 -0.0539,0.56505 0.0252,1.1035 0.17577,1.19656 0.17749,0.10969 0.23104,-0.18177 0.15229,-0.82893 -0.0931,-0.76475 -0.0628,-0.8744 0.12936,-0.46895 0.33295,0.7024 0.35411,1.98437 0.0328,1.98437 -0.1404,0 -0.38437,-0.24122 -0.54215,-0.53604 z m 12.09183,0.10058 c -0.46886,-0.46886 0.0833,-3.00412 0.65432,-3.00412 0.29442,0 0.28498,0.45908 -0.0132,0.64339 -0.28306,0.17494 -0.52959,2.00244 -0.27014,2.00244 0.10011,0 0.27005,-0.44648 0.37765,-0.99219 0.1076,-0.5457 0.24617,-0.85436 0.30793,-0.6859 0.0618,0.16845 0.0113,0.69614 -0.1122,1.17263 -0.22398,0.86436 -0.59988,1.20819 -0.94432,0.86375 z"
       id="path2" /></g></svg>
