<?xml version="1.0" encoding="UTF-8" standalone="no"?>
<!-- Created with Inkscape (http://www.inkscape.org/) -->

<svg
   width="61.833138mm"
   height="69.02504mm"
   viewBox="0 0 61.833138 69.02504"
   version="1.1"
   id="svg1"
   xml:space="preserve"
   xmlns="http://www.w3.org/2000/svg"
   xmlns:svg="http://www.w3.org/2000/svg"><defs
     id="defs1" /><g
     id="layer1"
     transform="translate(-115.61956,-16.271245)"><path
       style="fill:#000000"
       d="m 146.40774,85.013107 c -0.23737,-0.384076 -0.64445,-3.588284 -0.80438,-6.331404 -0.11501,-1.972664 -0.23078,-2.389083 -0.94239,-3.389535 -1.14908,-1.615493 -0.81369,-1.787182 0.52596,-0.269246 0.55431,0.628077 0.64315,1.07817 0.84111,4.260984 0.26912,4.326857 0.5116,5.84722 0.8105,5.081929 0.11273,-0.288617 0.21333,-0.872023 0.22356,-1.296459 0.0102,-0.424435 0.0904,-0.699949 0.17804,-0.612252 0.23093,0.230924 -0.16708,2.839162 -0.43324,2.839162 -0.12328,0 -0.3029,-0.127431 -0.39916,-0.283179 z m 1.06431,-5.907136 0.10175,-3.147606 1.2748,-1.336409 c 0.70114,-0.735025 1.09621,-1.207799 0.87793,-1.05061 -0.86985,0.626398 -5.2523,0.532589 -6.96254,-0.149038 -0.40966,-0.16327 -1.09426,-0.296855 -1.52135,-0.296855 -0.42709,0 -0.77653,-0.09875 -0.77653,-0.219451 0,-0.120698 -0.62508,-0.233191 -1.38906,-0.249983 -2.3438,-0.05152 -4.02051,-0.348436 -3.60589,-0.638549 0.2999,-0.209849 0.29419,-0.236 -0.0321,-0.147103 -0.21828,0.05946 -0.45641,0.444329 -0.52917,0.855256 -0.1177,0.66471 -0.17129,0.700069 -0.4858,0.320492 -0.19443,-0.234657 -0.28851,-0.531815 -0.20907,-0.660351 0.0794,-0.128537 -0.26035,-0.24892 -0.75508,-0.267519 -0.80415,-0.03023 -4.10696,-0.727531 -6.4214,-1.355706 -0.47295,-0.128364 -0.8599,-0.137346 -0.8599,-0.01996 0,0.117386 0.62508,0.352666 1.38906,0.522844 0.76399,0.170178 2.11105,0.47971 2.99347,0.687848 0.88242,0.208138 1.79242,0.378433 2.02221,0.378433 0.2298,0 0.49143,0.19185 0.58141,0.426334 0.12593,0.32816 0.0563,0.381018 -0.30242,0.229543 -0.51291,-0.216593 -4.10573,-1.040021 -6.47483,-1.48395 -1.45913,-0.273416 -2.34212,-0.831625 -1.94382,-1.228842 0.26494,-0.264222 3.85025,-0.243732 3.85099,0.02201 3.3e-4,0.117729 0.11845,0.141216 0.26249,0.05219 0.15358,-0.09492 0.0525,-0.386585 -0.24432,-0.705212 -0.27842,-0.298845 -0.62562,-0.469556 -0.77156,-0.379359 -0.3204,0.198017 -0.95227,-2.611922 -0.6847,-3.044861 0.27628,-0.447042 0.28758,-15.835175 0.0117,-15.927099 -0.13,-0.04332 -0.086,-0.359662 0.0977,-0.702988 0.23165,-0.432828 0.34469,-2.173165 0.36867,-5.675894 0.0332,-4.854062 0.0553,-5.052725 0.56376,-5.07874 0.29104,-0.01489 0.82683,-0.12668 1.19063,-0.248421 1.16736,-0.390638 5.38219,-1.102329 8.33437,-1.407292 2.91777,-0.301408 16.1643,-0.33995 17.4625,-0.05081 0.58209,0.129645 2.1648,0.367231 3.51713,0.527968 1.35234,0.160738 3.11283,0.462602 3.91219,0.67081 0.79937,0.208209 1.60362,0.320912 1.78724,0.250453 0.18361,-0.07046 0.58451,0.143293 0.89088,0.475003 0.55318,0.598927 0.62966,1.240154 0.90152,7.55809 0.0201,0.46702 0.10492,0.53951 0.37196,0.317882 0.22638,-0.187879 0.40235,-0.195808 0.50919,-0.02294 0.0898,0.145286 -0.0782,0.393381 -0.37332,0.551323 -0.37358,0.199933 -0.53658,0.553914 -0.53658,1.165274 v 0.878107 l 2.03426,0.05384 c 1.11885,0.02961 2.11689,0.104904 2.21786,0.167312 0.35675,0.22048 1.53398,-0.957216 1.80098,-1.801686 0.14881,-0.470668 0.25335,-1.510603 0.23231,-2.310967 -0.0878,-3.340707 0.0499,-4.7625 0.46147,-4.7625 0.23004,0 0.40417,0.250252 0.41424,0.595312 0.17893,6.134391 0.39725,8.56308 0.79167,8.806844 0.56227,0.347502 0.23673,1.618723 -0.62956,2.458356 l -0.87885,0.851818 -0.0645,4.948513 c -0.0355,2.721682 -0.1794,5.086973 -0.31985,5.256202 -0.35209,0.424239 -1.4239,0.596963 -1.93377,0.311628 -0.64538,-0.361174 -0.50447,-0.947486 0.33162,-1.379848 0.72491,-0.374864 0.76009,-0.483854 0.92013,-2.851066 0.17434,-2.578682 0.0318,-4.252609 -0.37479,-4.401579 -0.4018,-0.147212 -0.2712,-1.032066 0.30329,-2.054906 l 0.54402,-0.968572 -0.87475,-0.730484 c -1.38465,-1.156302 -4.97607,-1.370208 -4.97559,-0.296348 1.1e-4,0.238886 -0.0297,2.250055 -0.0661,4.469264 -0.0365,2.219209 0.03,4.034912 0.14771,4.034895 0.11773,-1.6e-5 0.15063,0.10259 0.0731,0.228013 -0.25371,0.410516 -0.36815,7.545357 -0.13103,8.169039 0.28912,0.760445 -0.45851,1.598498 -1.63614,1.834025 -0.50957,0.101913 -0.70987,0.252555 -0.54931,0.413118 0.16057,0.160564 0.43191,0.158406 0.74414,-0.0059 0.8433,-0.443816 3.18979,-0.662669 3.40317,-0.317407 0.10488,0.169697 0.0599,0.439343 -0.1,0.599213 -0.35619,0.356193 -3.14948,1.127822 -5.96873,1.648827 -1.15425,0.213309 -2.19423,0.538419 -2.31106,0.722468 -0.15718,0.247618 -0.21346,0.222833 -0.21646,-0.09531 -0.003,-0.272305 0.30248,-0.491254 0.83196,-0.59715 0.4598,-0.09196 0.76963,-0.233584 0.68849,-0.314717 -0.0811,-0.08113 -0.5764,-0.06706 -1.10059,0.03128 -0.76707,0.143902 -0.95308,0.297844 -0.95308,0.788762 0,0.335481 0.14883,0.663117 0.33073,0.728082 0.1819,0.06497 0.23945,0.215777 0.12788,0.335139 -0.32322,0.34581 -0.69975,-0.211761 -0.77056,-1.141079 -0.0733,-0.961824 -0.0804,-0.964274 -1.65051,-0.568915 -1.23903,0.311992 -1.48992,0.52779 -3.81943,3.28521 -1.83849,2.176209 -3.47853,3.78493 -3.47853,3.41211 0,-0.144963 0.14883,-0.423967 0.33073,-0.62001 0.27099,-0.292057 0.24049,-0.324476 -0.16885,-0.179481 -0.35199,0.124678 -0.19842,-0.196041 0.51979,-1.085538 0.56066,-0.694374 1.15181,-1.346173 1.31367,-1.448442 0.38234,-0.241587 1.30621,-2.289248 1.11785,-2.477609 -0.0795,-0.07954 -0.71928,0.125506 -1.42165,0.455656 -1.47736,0.694445 -2.87676,2.163476 -2.89426,3.038283 -0.007,0.332711 -0.096,0.68878 -0.19844,0.791264 -0.10248,0.102485 -0.1982,0.910633 -0.21271,1.795885 -0.0145,0.885251 -0.12794,1.907204 -0.25207,2.271006 -0.13936,0.408419 -0.18678,-0.542652 -0.12395,-2.486148 z m 5.18384,-3.731026 c 0.93546,-1.018352 1.40319,-1.620338 1.03939,-1.337746 -1.08355,0.841674 -3.70417,3.631745 -3.70417,3.943689 0,0.159082 0.21688,0.05442 0.48196,-0.232576 0.26508,-0.287 1.24735,-1.355015 2.18282,-2.373367 z m 0.7748,-2.000524 c 0,-0.136932 -0.11906,-0.248968 -0.26458,-0.248968 -0.14552,0 -0.26458,0.18562 -0.26458,0.41249 0,0.226869 0.11906,0.338905 0.26458,0.248968 0.14552,-0.08994 0.26458,-0.275557 0.26458,-0.41249 z m 10.58334,-1.837052 c 1.71085,-0.389262 2.74539,-0.902139 1.32291,-0.655839 -0.50932,0.08819 -1.22369,0.262954 -1.5875,0.388367 -0.3638,0.125414 -1.10794,0.301958 -1.65364,0.392321 -0.5457,0.09036 -0.99219,0.27177 -0.99219,0.403127 0,0.136967 0.31033,0.145914 0.7276,0.02098 0.40019,-0.11982 1.38245,-0.366849 2.18282,-0.548952 z m -1.39119,-0.444108 c 0.47178,-0.07803 0.80386,-0.229111 0.73796,-0.335735 -0.14418,-0.2333 -3.84469,0.527005 -3.84469,0.78993 0,0.101215 0.50602,0.07235 1.12448,-0.06415 0.61846,-0.136496 1.51048,-0.312018 1.98225,-0.390048 z M 132.6609,71.27337 c -0.0899,-0.145521 -0.42438,-0.256215 -0.74322,-0.245987 -0.55889,0.01793 -0.56071,0.02675 -0.0505,0.245987 0.72826,0.312944 0.98716,0.312944 0.79375,0 z m -6.74687,-0.529167 c 0,-0.145521 -0.20836,-0.26276 -0.46302,-0.260532 -0.3957,0.0035 -0.40532,0.04134 -0.0662,0.260532 0.49933,0.322689 0.52917,0.322689 0.52917,0 z m 41.53958,0 c 0,-0.145521 -0.12609,-0.264583 -0.2802,-0.264583 -0.1541,0 -0.20661,0.119062 -0.11667,0.264583 0.0899,0.145521 0.21602,0.264583 0.2802,0.264583 0.0642,0 0.11667,-0.119062 0.11667,-0.264583 z m -23.21749,-0.57054 c -0.10889,-0.416404 -0.0585,-0.514465 0.18664,-0.362978 0.19614,0.121218 0.43192,0.05588 0.5668,-0.157064 0.17293,-0.273032 0.23197,-0.220623 0.235,0.208638 0.002,0.315295 -0.14478,0.633317 -0.32668,0.706716 -0.1819,0.0734 -0.0558,0.142851 0.2802,0.15434 0.34389,0.01176 0.53945,-0.09476 0.44741,-0.243695 -0.0899,-0.145521 -0.0412,-0.264584 0.10837,-0.264584 0.38174,0 0.063,-0.722126 -0.39655,-0.898483 -0.44134,-0.16936 -1.6962,0.342573 -1.6962,0.691984 0,0.130751 -0.10309,0.174013 -0.2291,0.09614 -0.126,-0.07788 -0.17133,-0.443805 -0.10072,-0.813176 0.10262,-0.536803 0.0424,-0.638589 -0.30006,-0.507174 -0.23565,0.09043 -0.42845,0.270735 -0.42845,0.400686 0,0.129952 -0.0992,0.236276 -0.22037,0.236276 -0.1212,0 -0.19609,-0.26789 -0.16643,-0.595312 0.0297,-0.327422 0.18837,-0.565547 0.35266,-0.529167 0.1643,0.03638 0.30678,-0.201745 0.31663,-0.529166 l 0.0179,-0.595313 0.28711,0.595313 c 0.15791,0.327421 0.43759,0.595312 0.62151,0.595312 0.18391,0 0.38754,0.148828 0.45251,0.330729 0.065,0.181901 0.21557,0.239649 0.33469,0.128328 0.11912,-0.11132 -0.14762,-0.58757 -0.59275,-1.058333 -0.44513,-0.470763 -0.86051,-1.025159 -0.92307,-1.231992 -0.12045,-0.398238 -1.27414,-0.616621 -1.27414,-0.241182 0,0.121202 -0.23439,0.220367 -0.52087,0.220367 -0.38325,0 -0.47676,0.122323 -0.35394,0.463021 0.10058,0.279008 -0.12306,0.157609 -0.56273,-0.305472 -0.4252,-0.447831 -0.80191,-0.656171 -0.90283,-0.499303 -0.17864,0.277682 -1.23508,0.294086 -1.50578,0.02338 -0.30202,-0.302016 0.32202,-1.932874 0.6991,-1.827024 0.20291,0.05696 0.58748,0.09336 0.8546,0.08088 0.31926,-0.01491 0.43543,0.108254 0.33903,0.35946 -0.0972,0.253378 0.0289,0.382138 0.37422,0.382138 0.28648,0 0.52089,0.0893 0.52093,0.198438 4e-5,0.10914 0.51984,0.198213 1.15511,0.197938 0.88211,-3.8e-4 1.47203,-0.216811 2.49653,-0.91593 0.73783,-0.503487 1.45243,-1.158107 1.58801,-1.45471 0.23818,-0.521063 0.17843,-0.536078 -1.769,-0.444543 -1.10853,0.0521 -3.1466,-0.03679 -4.52905,-0.197551 -4.38545,-0.509959 -4.98954,-0.53898 -5.08773,-0.244419 -0.0517,0.155056 -0.3866,0.311186 -0.74427,0.346956 -0.35766,0.03577 -0.76814,0.08023 -0.91217,0.0988 -0.27249,0.03514 1.03234,1.356684 1.33952,1.356684 0.0961,0 0.11246,-0.238007 0.0364,-0.528903 -0.0761,-0.290897 -0.012,-0.60695 0.14231,-0.702339 0.15435,-0.09539 0.21668,-0.06574 0.13852,0.06588 -0.0782,0.131625 -0.0398,0.510166 0.0853,0.841201 0.1838,0.486433 0.35858,0.568965 0.91118,0.430271 0.54961,-0.137945 0.71214,-0.06309 0.82841,0.381541 0.0796,0.304235 0.36992,0.624652 0.64525,0.712039 0.31292,0.09932 0.5006,0.403676 0.5006,0.811821 0,0.57095 -0.0664,0.617377 -0.52916,0.369737 -0.37417,-0.200249 -0.52917,-0.200543 -0.52917,-0.001 0,0.155208 0.17859,0.350729 0.39688,0.434491 0.79867,0.306482 0.36143,0.506217 -1.06039,0.484382 -0.932,-0.01431 -1.36561,0.06926 -1.203,0.231867 0.16196,0.16196 0.16244,0.425785 0.001,0.726824 -0.1754,0.327726 -0.15132,0.535976 0.0785,0.679417 0.56772,0.354293 1.2573,0.366347 1.26154,0.02205 0.003,-0.223581 0.082,-0.205894 0.24712,0.05517 0.13369,0.211334 0.18437,0.479224 0.11263,0.595313 -0.0718,0.116088 -0.004,0.21107 0.14975,0.21107 0.1541,0 0.28019,-0.115326 0.28019,-0.256279 0,-0.140954 0.17791,-0.188009 0.39536,-0.104568 0.21744,0.08344 0.33837,0.243923 0.26871,0.356626 -0.0697,0.112702 0.79423,0.229306 1.91975,0.259119 1.12552,0.02981 2.58217,0.148348 3.23702,0.263412 1.8302,0.321586 1.8153,0.324245 1.65334,-0.2951 z m -4.69338,-0.492109 c 0.0914,-0.147895 0.27702,-0.200399 0.41249,-0.116677 0.36698,0.226811 0.29856,0.385576 -0.16619,0.385576 -0.22687,0 -0.33771,-0.121005 -0.2463,-0.268899 z m 2.04075,-0.987872 c 0.004,-0.719673 0.0586,-0.848007 0.19717,-0.467246 0.16725,0.459605 0.0793,1.459434 -0.12832,1.459434 -0.0412,0 -0.0722,-0.446485 -0.0688,-0.992188 z m -2.37415,0.125122 c -0.60655,-0.277269 -0.80999,-0.720434 -0.33073,-0.720434 0.14552,0 0.26458,0.126089 0.26458,0.280198 0,0.154109 0.11084,0.211698 0.24631,0.127976 0.13546,-0.08372 0.32598,-0.0233 0.42336,0.13428 0.26263,0.424931 0.0645,0.483355 -0.60352,0.17798 z m -3.86992,-0.333788 c -0.25532,-0.665346 -0.18,-0.837024 0.13191,-0.300656 0.15443,0.265576 0.22505,0.538602 0.15693,0.606723 -0.0681,0.06812 -0.1981,-0.06961 -0.28884,-0.306067 z m 4.75176,0.178031 c -0.11397,-0.184415 -0.13577,-0.406754 -0.0484,-0.494086 0.23679,-0.236792 0.49498,0.11147 0.36708,0.495153 -0.0896,0.268863 -0.15194,0.268654 -0.31864,-0.0011 z m -3.57293,-0.454434 c 0.0127,-0.308225 0.0754,-0.370919 0.15985,-0.159853 0.0764,0.190996 0.067,0.4192 -0.0209,0.507118 -0.0879,0.08792 -0.15045,-0.06835 -0.13896,-0.347265 z m 1.05833,0 c 0.0127,-0.308225 0.0754,-0.370919 0.15985,-0.159853 0.0764,0.190996 0.067,0.4192 -0.0209,0.507118 -0.0879,0.08792 -0.15046,-0.06835 -0.13897,-0.347265 z m 3.15411,0.15434 c 0,-0.145521 0.11907,-0.264583 0.26459,-0.264583 0.14552,0 0.26458,0.119062 0.26458,0.264583 0,0.145521 -0.11906,0.264583 -0.26458,0.264583 -0.14552,0 -0.26459,-0.119062 -0.26459,-0.264583 z m 1.45521,-1.322917 c 0.0899,-0.14552 0.21603,-0.264583 0.2802,-0.264583 0.0642,0 0.11668,0.119063 0.11668,0.264583 0,0.145521 -0.12609,0.264584 -0.2802,0.264584 -0.15411,0 -0.20661,-0.119063 -0.11668,-0.264584 z m -4.8739,-2.271007 c 0.0127,-0.308224 0.0754,-0.370919 0.15985,-0.159852 0.0764,0.190996 0.067,0.419199 -0.0209,0.507118 -0.0879,0.08792 -0.15045,-0.06835 -0.13896,-0.347266 z m -0.48391,-1.094556 c -0.37293,-0.133189 -0.45852,-1.132353 -0.097,-1.132353 0.12854,0 0.30242,0.262691 0.38638,0.583758 0.17601,0.673074 0.15749,0.70819 -0.28938,0.548595 z m 1.70927,-0.338603 c 0.0761,-0.291042 0.23241,-0.529167 0.34734,-0.529167 0.11492,0 0.14668,0.238125 0.0706,0.529167 -0.0761,0.291041 -0.23241,0.529166 -0.34733,0.529166 -0.11493,0 -0.14668,-0.238125 -0.0706,-0.529166 z m -0.96078,-0.15434 c 0.0127,-0.308225 0.0754,-0.37092 0.15985,-0.159853 0.0764,0.190996 0.067,0.419199 -0.0209,0.507118 -0.0879,0.08792 -0.15046,-0.06835 -0.13897,-0.347265 z m -4.25422,-0.125858 c 0,-0.154109 0.11906,-0.206614 0.26458,-0.116677 0.14552,0.08994 0.26459,0.216026 0.26459,0.280198 0,0.06417 -0.11907,0.116677 -0.26459,0.116677 -0.14552,0 -0.26458,-0.126089 -0.26458,-0.280198 z m 1.85208,0.03123 c 0,-0.136932 0.1177,-0.32171 0.26156,-0.410616 0.14998,-0.09269 0.19434,0.01351 0.10398,0.248968 -0.17589,0.458369 -0.36554,0.542234 -0.36554,0.161648 z m 13.49375,7.392719 c 0,-0.145521 -0.0525,-0.264584 -0.11667,-0.264584 -0.0642,0 -0.19026,0.119063 -0.2802,0.264584 -0.0899,0.14552 -0.0374,0.264583 0.11668,0.264583 0.1541,0 0.28019,-0.119063 0.28019,-0.264583 z m -0.26458,-1.108903 c 0,-0.117708 0.20135,-0.214014 0.44745,-0.214014 0.39016,0 0.3817,0.04973 -0.0662,0.38846 -0.47917,0.362423 -0.48151,0.389025 -0.035,0.396875 0.26325,0.0046 0.40506,0.127477 0.31512,0.272998 -0.0899,0.145521 -0.0374,0.264584 0.11668,0.264584 0.1541,0 0.28019,-0.119063 0.28019,-0.264584 0,-0.145521 0.18562,-0.264583 0.41249,-0.264583 0.22687,0 0.34336,0.111857 0.25887,0.248571 -0.17298,0.279892 0.29211,0.297524 2.78647,0.105635 1.52584,-0.117383 1.79147,-0.219845 2.17577,-0.839269 0.42228,-0.680637 0.43799,-0.684532 0.44478,-0.11025 0.004,0.356968 0.1704,0.595313 0.41507,0.595313 0.76774,0 4.48633,-0.840703 4.77569,-1.079692 0.15891,-0.131249 0.35525,-0.17231 0.43631,-0.09125 0.0811,0.08106 0.65611,0.0104 1.27789,-0.157025 0.83334,-0.224396 1.03161,-0.366995 0.75431,-0.542505 -0.34887,-0.220805 -0.14799,-0.362881 0.37927,-0.268246 0.12445,0.02234 0.4152,-0.11239 0.6461,-0.299396 0.31312,-0.253602 0.36979,-0.256731 0.22299,-0.01231 -0.13371,0.222612 -0.0652,0.277169 0.21379,0.17013 0.29559,-0.113426 0.42348,-0.575843 0.4565,-1.650616 0.16654,-5.418832 0.15991,-5.449796 -1.10201,-5.149623 -1.04245,0.247967 -1.07944,0.321039 -0.6648,1.313416 0.26057,0.623616 0.30953,1.088073 0.14677,1.392189 -0.14831,0.277122 -0.14941,0.865255 -0.003,1.497419 0.40339,1.739425 0.34775,1.879866 -0.87043,2.197205 -1.19602,0.311567 -2.16965,0.81704 -1.5875,0.824171 0.62598,0.0077 0.32957,0.400972 -0.33091,0.439083 -0.73172,0.04222 -0.83018,-0.156535 -0.33054,-0.667287 0.26777,-0.273735 0.12928,-0.302422 -0.72761,-0.150709 -0.58208,0.103059 -1.17739,0.27097 -1.32291,0.373136 -0.14553,0.102167 -0.8599,0.214214 -1.5875,0.248995 -0.72761,0.03478 -1.76941,0.161134 -2.31511,0.280786 -0.63831,0.139956 -0.99219,0.121657 -0.99219,-0.05131 0,-0.401968 -0.82334,0.35902 -1.0493,0.969827 -0.16634,0.449664 -0.21555,0.399986 -0.32196,-0.32499 -0.10486,-0.714464 -0.0513,-0.832213 0.32425,-0.713016 0.38786,0.123104 0.43816,-0.03135 0.36507,-1.121033 -0.17405,-2.594784 -0.34392,-4.039923 -0.50562,-4.301565 -0.0916,-0.148244 -0.0485,-0.269535 0.0958,-0.269535 0.1443,0 0.34188,0.250535 0.43907,0.556743 0.16425,0.517498 0.31005,0.546004 2.06835,0.404393 4.91552,-0.39589 5.49841,-0.488586 5.35887,-0.852218 -0.0753,-0.196105 -0.023,-0.426926 0.11621,-0.512934 0.13916,-0.08601 0.25302,0.02924 0.25302,0.25611 0,0.473765 0.46638,0.523859 1.43799,0.154455 0.4787,-0.182004 0.67868,-0.452918 0.67868,-0.919427 0,-0.572843 -0.0974,-0.646088 -0.7276,-0.54708 -0.40019,0.06287 -1.50151,0.237852 -2.4474,0.388844 -2.52735,0.403442 -3.72143,0.51499 -7.59346,0.709359 -2.57583,0.129303 -3.52868,0.269823 -3.63059,0.535415 -0.21191,0.55223 0.26153,1.549869 1.01783,2.144777 0.83924,0.660144 0.87014,1.481249 0.0859,2.282911 -0.9985,1.020691 -1.78639,2.230831 -1.77752,2.730126 0.008,0.437889 0.0378,0.434873 0.39687,-0.03986 0.21365,-0.282475 0.38846,-0.609897 0.38846,-0.727604 z m 2.11667,0.315153 c 0,-0.145521 0.12609,-0.264584 0.2802,-0.264584 0.1541,0 0.20661,0.119063 0.11667,0.264584 -0.0899,0.14552 -0.21602,0.264583 -0.2802,0.264583 -0.0642,0 -0.11667,-0.119063 -0.11667,-0.264583 z m 2.38125,0 c 0,-0.145521 0.11906,-0.264584 0.26458,-0.264584 0.14552,0 0.26458,0.119063 0.26458,0.264584 0,0.14552 -0.11906,0.264583 -0.26458,0.264583 -0.14552,0 -0.26458,-0.119063 -0.26458,-0.264583 z m 0.94799,0.03551 c -0.11398,-0.184416 -0.13578,-0.406754 -0.0485,-0.494087 0.2368,-0.236791 0.49498,0.11147 0.36708,0.495153 -0.0896,0.268863 -0.15194,0.268655 -0.31863,-0.0011 z m 2.2479,-0.454435 c 0.0127,-0.308224 0.0754,-0.370919 0.15985,-0.159852 0.0764,0.190996 0.067,0.419199 -0.0209,0.507118 -0.0879,0.08792 -0.15045,-0.06835 -0.13896,-0.347266 z m 0.77286,-0.374826 c 0,-0.145521 0.12609,-0.264584 0.2802,-0.264584 0.1541,0 0.20661,0.119063 0.11667,0.264584 -0.0899,0.14552 -0.21602,0.264583 -0.2802,0.264583 -0.0642,0 -0.11667,-0.119063 -0.11667,-0.264583 z m 1.98437,-0.529167 c 0.0899,-0.145521 0.21603,-0.264583 0.2802,-0.264583 0.0642,0 0.11668,0.119062 0.11668,0.264583 0,0.145521 -0.12609,0.264583 -0.2802,0.264583 -0.15411,0 -0.20661,-0.119062 -0.11668,-0.264583 z m -8.59896,-3.513074 c 0,-0.541465 0.19992,-1.038413 0.5322,-1.322916 0.64395,-0.551374 0.97517,-0.599857 0.54334,-0.07953 -0.24086,0.290228 -0.23467,0.500236 0.0271,0.919438 0.26773,0.428714 0.27094,0.61165 0.0152,0.8674 -0.25575,0.255749 -0.32411,0.17344 -0.32411,-0.390271 0,-0.392906 -0.13394,-0.714375 -0.29765,-0.714375 -0.18962,0 -0.24004,0.288102 -0.13891,0.79375 0.0896,0.447756 0.0463,0.79375 -0.0992,0.79375 -0.14188,0 -0.25797,-0.390258 -0.25797,-0.867241 z m 13.37276,-0.701977 c -0.0837,-0.135466 -0.0312,-0.321086 0.11668,-0.41249 0.14789,-0.0914 0.2689,0.01943 0.2689,0.246301 0,0.464748 -0.15877,0.533178 -0.38558,0.166189 z M 158.0609,62.54212 c 0.0899,-0.145521 0.21603,-0.264584 0.2802,-0.264584 0.0642,0 0.11668,0.119063 0.11668,0.264584 0,0.145521 -0.12609,0.264583 -0.2802,0.264583 -0.15411,0 -0.20661,-0.119062 -0.11668,-0.264583 z m 3.78685,-0.445324 c 0.191,-0.07643 0.4192,-0.06703 0.50712,0.02089 0.0879,0.08792 -0.0684,0.150453 -0.34727,0.138964 -0.30822,-0.0127 -0.37092,-0.07539 -0.15985,-0.159852 z m -28.78997,6.896757 c 0,-0.297472 -0.16116,-0.385592 -0.52917,-0.289354 -0.29104,0.07611 -0.52917,0.03046 -0.52917,-0.101433 0,-0.131897 -0.24039,-0.239813 -0.5342,-0.239813 -0.42954,0 -0.50345,-0.122577 -0.3772,-0.625598 0.17584,-0.700591 -0.52804,-1.200203 -0.77697,-0.551495 -0.0796,0.207348 -0.008,0.348658 0.15995,0.314023 0.16755,-0.03463 0.31209,0.223435 0.32121,0.573487 0.0132,0.505949 0.23361,0.703714 1.07492,0.964445 0.58209,0.180392 1.0881,0.340471 1.12448,0.355729 0.0364,0.01526 0.0661,-0.164738 0.0661,-0.399991 z m 0.93649,-1.319402 c -0.17703,-0.177029 -0.81009,-0.302828 -1.40681,-0.279555 -0.68154,0.02658 -0.99274,0.135603 -0.83695,0.293203 0.1364,0.137989 0.66493,0.23907 1.17451,0.224626 0.50958,-0.01445 0.92651,0.08101 0.92651,0.212132 0,0.131118 -0.12609,0.238396 -0.2802,0.238396 -0.15411,0 -0.20221,0.126187 -0.10689,0.280416 0.10985,0.17775 0.29749,0.11058 0.5125,-0.183466 0.26638,-0.364296 0.2701,-0.532981 0.0173,-0.785752 z m -5.1918,-1.794541 c -0.24448,-0.224867 -0.27988,-0.179832 -0.14926,0.189878 0.0942,0.266564 0.19204,0.921407 0.21746,1.455209 0.0436,0.916181 0.052,0.905545 0.14926,-0.189879 0.0618,-0.696162 -0.0252,-1.278362 -0.21746,-1.455208 z m -0.39228,1.926061 c -0.0995,-0.160984 -0.16989,-0.840941 -0.15644,-1.511015 0.0139,-0.694221 -0.11415,-1.306385 -0.29774,-1.423042 -0.24627,-0.156483 -0.24058,-0.205679 0.0241,-0.208776 0.19049,-0.0022 0.27276,-0.123114 0.18283,-0.268635 -0.39529,-0.639593 -0.66146,-0.154207 -0.66146,1.20624 0,0.913174 0.10031,1.408826 0.26458,1.307302 0.15006,-0.09274 0.26458,0.129544 0.26458,0.513551 0,0.372391 0.12609,0.677074 0.2802,0.677074 0.15411,0 0.1988,-0.131715 0.0993,-0.292699 z m 19.39811,-0.56583 c 0.48411,-0.38731 0.40536,-0.903408 -0.22785,-1.493339 -0.46392,-0.432206 -0.66844,-0.470346 -1.2068,-0.225052 -0.51008,0.232406 -0.61432,0.430415 -0.48915,0.929136 0.11841,0.471793 0.0718,0.582684 -0.18226,0.433847 -0.18774,-0.109967 -0.113,0.06033 0.16608,0.378447 0.51132,0.582848 1.19278,0.574755 1.93998,-0.02304 z m -18.15727,-0.27036 c -0.26131,-0.259363 -0.2917,-0.228972 -0.14812,0.148112 0.0994,0.260938 0.24731,0.407781 0.32877,0.32632 0.0815,-0.08146 1.7e-4,-0.294956 -0.18065,-0.474432 z m 4.11665,-0.772804 c -0.0845,-0.211067 -0.14715,-0.148372 -0.15985,0.159852 -0.0115,0.278915 0.0511,0.435185 0.13897,0.347266 0.0879,-0.08792 0.0973,-0.316122 0.0209,-0.507118 z m 0.8776,0.181901 c 0,-0.218281 -0.11907,-0.396875 -0.26459,-0.396875 -0.14552,0 -0.26458,0.178594 -0.26458,0.396875 0,0.218281 0.11906,0.396875 0.26458,0.396875 0.14552,0 0.26459,-0.178594 0.26459,-0.396875 z m 21.10211,-0.06615 c 0.075,-0.228325 -0.22587,-0.330729 -0.97173,-0.330729 -0.80253,0 -1.08038,0.106177 -1.08038,0.412847 0,0.314039 0.23256,0.393193 0.97173,0.330729 0.53446,-0.04517 1.02063,-0.230946 1.08038,-0.412847 z m 1.38747,0.17013 c 0,-0.16109 0.17678,-0.225055 0.39284,-0.142144 0.23377,0.0897 0.51029,-0.06872 0.68289,-0.391228 0.38585,-0.720965 0.27219,-0.784815 -0.99228,-0.557445 -0.97631,0.175554 -1.05363,0.247129 -0.85173,0.788396 0.22833,0.612125 0.76828,0.824666 0.76828,0.302421 z m -26.32604,-0.236276 c 0.0899,-0.14552 -0.0221,-0.264583 -0.24897,-0.264583 -0.22687,0 -0.41249,0.119063 -0.41249,0.264583 0,0.145521 0.11204,0.264584 0.24897,0.264584 0.13693,0 0.32255,-0.119063 0.41249,-0.264584 z m 28.55336,0.103985 c 0.23018,-0.08833 0.41851,-0.434371 0.41851,-0.76898 0,-0.478119 -0.1133,-0.578752 -0.52916,-0.470001 -0.34245,0.08955 -0.52917,0.360896 -0.52917,0.76898 0,0.688111 0.0245,0.706116 0.63982,0.470001 z m 2.21768,-0.421485 c 0.17463,-0.174625 0.3175,-0.507904 0.3175,-0.740621 0,-0.327771 -0.20868,-0.398759 -0.92604,-0.315011 -1.02768,0.119975 -1.04013,0.136418 -0.65215,0.86136 0.31209,0.583155 0.79707,0.65789 1.26069,0.194272 z m -30.83858,-1.137704 c 0.0695,-0.363802 0.0239,-0.661458 -0.10144,-0.661458 -0.12534,0 -0.2279,0.297656 -0.2279,0.661458 0,0.363802 0.0457,0.661458 0.10145,0.661458 0.0558,0 0.15835,-0.297656 0.22789,-0.661458 z m -2.00068,-0.446484 c -0.0845,-0.211067 -0.14716,-0.148372 -0.15985,0.159852 -0.0115,0.278915 0.051,0.435185 0.13896,0.347266 0.0879,-0.08792 0.0973,-0.316122 0.0209,-0.507118 z m -0.79926,-1.339453 c -0.0734,-0.181901 -0.13345,-0.03307 -0.13345,0.330729 0,0.363802 0.06,0.51263 0.13345,0.330729 0.0734,-0.181901 0.0734,-0.479557 0,-0.661458 z m 1.24931,-0.91742 c 0.0896,-0.08963 0.16296,-0.01703 0.16296,0.161333 0,0.178363 0.11788,0.251444 0.26195,0.162402 0.16489,-0.101907 0.14038,-0.293476 -0.0661,-0.517011 -0.18045,-0.195314 -0.41739,-0.301056 -0.52653,-0.234981 -0.10914,0.06607 -0.19844,-0.006 -0.19844,-0.160063 0,-0.321674 0.51862,-0.363414 0.96552,-0.07771 0.16723,0.106912 0.34582,0.492042 0.39687,0.855844 0.0696,0.496176 0.27463,0.682378 0.82043,0.745179 0.41233,0.04745 0.7276,-0.0453 0.7276,-0.214053 0,-0.163774 -0.11906,-0.224187 -0.26458,-0.134251 -0.14552,0.08994 -0.26459,0.106702 -0.26459,0.03726 0,-0.06945 -0.0723,-0.314599 -0.1606,-0.544782 -0.22835,-0.595086 0.84852,-0.555071 1.19774,0.04451 0.14833,0.254661 0.27149,0.343958 0.27368,0.198437 0.0101,-0.668173 -0.48593,-0.998415 -1.26543,-0.842514 -0.45774,0.09155 -0.84075,0.04394 -0.89237,-0.110931 -0.0497,-0.149223 -0.59389,-0.338843 -1.20923,-0.421377 -0.89822,-0.120477 -1.11879,-0.0693 -1.11879,0.259603 0,0.225315 0.14759,0.45886 0.32798,0.518988 0.19873,0.06624 0.3085,0.518047 0.27856,1.146528 l -0.0494,1.037203 0.21994,-0.873322 c 0.12096,-0.480328 0.29326,-0.946656 0.38289,-1.036285 z m 42.65918,-2.191434 c 0.0335,-3.90877 -0.0477,-3.755279 -0.3071,0.580371 l -0.16925,2.829331 -0.83546,0.114781 c -0.63396,0.0871 -0.58021,0.106655 0.22288,0.08109 l 1.05834,-0.03369 z m -24.41325,3.031297 c -0.0862,-0.224557 -0.21342,-0.351541 -0.28277,-0.282187 -0.0694,0.06935 -0.0476,0.253084 0.0483,0.408286 0.26089,0.422133 0.41338,0.340125 0.23447,-0.126099 z M 134.2484,62.012953 c -0.0899,-0.145521 -0.48391,-0.256215 -0.87551,-0.245987 -0.63575,0.0166 -0.65532,0.04295 -0.18282,0.245987 0.73507,0.315871 1.25355,0.315871 1.05833,0 z m 20.37292,-2.937921 c 2.91523,-0.279006 5.34197,-0.691677 8.64412,-1.469949 2.09621,-0.494048 2.05787,-0.411181 2.04955,-4.430097 l -0.006,-2.856624 -0.97825,0.131353 c -1.00505,0.134948 -4.71561,0.782957 -7.06368,1.23359 -1.97341,0.378731 -6.18281,0.86751 -7.33419,0.85162 -0.57725,-0.008 -0.94408,0.09433 -0.85502,0.238437 0.0858,0.138814 0.26682,0.18389 0.40229,0.100167 0.13546,-0.08372 0.2463,-0.01666 0.2463,0.149035 0,0.211503 0.53209,0.253087 1.78593,0.139576 3.93296,-0.356052 6.94532,-0.770037 6.94532,-0.954488 0,-0.107104 0.44648,-0.163382 0.99218,-0.125063 0.54571,0.03832 1.24121,-0.02327 1.54556,-0.13686 1.18884,-0.44371 2.19914,-0.468909 2.5358,-0.06325 0.37357,0.450121 0.32712,4.140717 -0.0612,4.866413 -0.16218,0.30305 -0.93053,0.512732 -2.68588,0.732978 -1.35229,0.169673 -3.17309,0.416919 -4.04621,0.549436 -1.61718,0.245445 -5.49656,0.501105 -8.00365,0.527461 -1.01515,0.01067 -1.38906,0.1155 -1.38906,0.389428 0,0.206155 0.14883,0.42539 0.33073,0.487189 0.41883,0.142295 3.2023,-0.0021 6.94531,-0.360353 z m 9.525,-7.116245 c -0.0899,-0.145521 -0.0374,-0.264584 0.11668,-0.264584 0.1541,0 0.28019,0.119063 0.28019,0.264584 0,0.145521 -0.0525,0.264583 -0.11667,0.264583 -0.0642,0 -0.19026,-0.119062 -0.2802,-0.264583 z m -19.45669,6.897502 c 0.2291,-0.42808 0.17704,-0.525471 -0.32142,-0.601207 -0.32714,-0.04971 -1.01153,-0.02027 -1.52085,0.06541 -1.07333,0.180568 -4.60143,-0.08398 -9.12812,-0.684466 -3.77048,-0.500166 -4.70297,-0.797849 -4.50023,-1.436624 0.0789,-0.248649 0.19404,-1.274742 0.25582,-2.280208 0.0618,-1.005465 0.11932,-1.897572 0.12785,-1.982459 0.009,-0.08489 0.75373,-0.15434 1.656,-0.15434 0.91765,0 1.41312,0.07994 1.12448,0.181423 -0.64764,0.227705 1.86185,0.68614 5.7254,1.045914 4.70837,0.438445 5.7766,0.444866 5.93315,0.03566 0.0776,-0.20273 0.0811,-0.428526 0.008,-0.50177 -0.0732,-0.07324 -1.35597,-0.235804 -2.8505,-0.361245 -4.483,-0.376275 -8.4583,-0.800689 -9.84395,-1.050968 -0.97418,-0.175959 -1.3595,-0.151244 -1.5173,0.09732 -0.15222,0.239781 -0.21265,0.203384 -0.21556,-0.129844 -0.004,-0.49658 -1.16605,-0.672876 -1.44626,-0.21948 -0.30143,0.487725 -0.43372,4.149947 -0.18713,5.180417 0.1393,0.582084 0.26522,0.810287 0.27984,0.507118 0.0146,-0.303168 0.19117,-0.551215 0.39234,-0.551215 0.27069,0 0.31301,0.183898 0.16283,0.707546 -0.18036,0.628891 -0.11072,0.740482 0.62643,1.00382 1.1027,0.393923 3.41519,0.687194 2.68144,0.340061 -0.50869,-0.240658 -0.50614,-0.251065 0.0661,-0.268942 0.36104,-0.01128 0.59531,0.137584 0.59531,0.378279 0,0.244279 0.2289,0.385074 0.59532,0.366183 0.44798,-0.0231 0.48072,-0.06064 0.13229,-0.151692 -0.39213,-0.102474 -0.68544,-0.611366 -0.35237,-0.611366 0.41183,0 0.94768,0.378112 0.94768,0.668706 0,0.235918 0.5735,0.401858 1.78594,0.516761 0.98226,0.09309 1.96453,0.207816 2.18281,0.25495 0.21828,0.04714 1.73214,0.09951 3.36413,0.116391 2.67863,0.02771 2.99384,-0.019 3.24064,-0.480139 z m -16.35471,-5.905315 c -0.0218,-0.691224 0.0724,-1.256771 0.20933,-1.256771 0.38963,0 0.64343,0.569259 0.33797,0.758046 -0.15104,0.09334 -0.32705,0.526516 -0.39113,0.962606 -0.0837,0.569665 -0.12769,0.439067 -0.15617,-0.463881 z m 11.28783,-0.379178 c 0.191,-0.07643 0.4192,-0.06703 0.50712,0.02089 0.0879,0.08792 -0.0683,0.150453 -0.34727,0.138965 -0.30822,-0.0127 -0.37092,-0.07539 -0.15985,-0.159853 z m -4.18372,-0.348426 c 0,-0.331502 0.28078,-0.331502 0.79375,0 0.32093,0.2074 0.28295,0.257256 -0.19844,0.260532 -0.32742,0.0022 -0.59531,-0.115011 -0.59531,-0.260532 z m 12.22836,4.696354 c 0.40424,-0.472943 0.73526,-0.953382 0.7356,-1.067642 0.001,-0.423879 -0.85929,-1.502386 -1.08665,-1.361867 -0.12961,0.0801 -0.23565,-0.09249 -0.23565,-0.383532 0,-0.983944 -0.59838,-0.9472 -1.49661,0.0919 -0.47909,0.554223 -0.80316,1.117558 -0.72016,1.251856 0.083,0.134299 0.31877,0.02869 0.52393,-0.234675 0.33911,-0.435329 0.35122,-0.417466 0.13329,0.196529 -0.25701,0.724089 0.0142,1.46083 0.7466,2.028182 0.57421,0.44481 0.57442,0.444733 1.39965,-0.520751 z m -1.24815,0.06615 c 0.0899,-0.145521 0.21602,-0.264583 0.28019,-0.264583 0.0642,0 0.11668,0.119062 0.11668,0.264583 0,0.145521 -0.12609,0.264583 -0.2802,0.264583 -0.15411,0 -0.20661,-0.119062 -0.11667,-0.264583 z m -0.1323,-1.338532 c 0,-0.154109 0.11907,-0.206613 0.26459,-0.116676 0.14552,0.08994 0.26458,0.216026 0.26458,0.280198 0,0.06417 -0.11906,0.116677 -0.26458,0.116677 -0.14552,0 -0.26459,-0.12609 -0.26459,-0.280199 z m 1.05834,-0.132291 c 0,-0.22687 0.121,-0.337705 0.2689,-0.246301 0.14789,0.0914 0.2004,0.277024 0.11667,0.41249 -0.22681,0.366988 -0.38557,0.298558 -0.38557,-0.166189 z m 6.81466,0.478635 c 0.15776,-0.480438 -0.86363,-0.409539 -1.27709,0.08865 -0.30565,0.36829 -0.25568,0.408578 0.41022,0.330729 0.41705,-0.04876 0.80714,-0.237477 0.86687,-0.419379 z m 2.71034,-0.06095 c 0,-0.124575 -0.0736,-0.418331 -0.16359,-0.652791 -0.14697,-0.383004 -0.19985,-0.378484 -0.52075,0.04451 -0.48377,0.637678 -0.46215,0.748422 0.15517,0.794924 0.29104,0.02192 0.52917,-0.06206 0.52917,-0.186639 z M 138.013,55.48167 c 0.12348,-0.370439 -0.9378,-0.640694 -1.1524,-0.29346 -0.18285,0.295855 0.41553,0.777264 0.81085,0.652346 0.13643,-0.04311 0.29012,-0.204608 0.34155,-0.358886 z m -1.78022,-0.178573 c 0,-0.237459 -0.47247,-0.414147 -1.38907,-0.519467 -0.76398,-0.08778 -1.68671,-0.224824 -2.05052,-0.304533 -0.3638,-0.07971 -0.48286,-0.06622 -0.26458,0.02997 0.21828,0.09619 0.45641,0.262824 0.52917,0.370289 0.0728,0.107465 0.72466,0.275188 1.44867,0.372717 0.72401,0.09753 1.36893,0.229876 1.43316,0.294103 0.20294,0.202935 0.29317,0.128119 0.29317,-0.243082 z m 23.68021,-0.301599 c 0,-0.145521 -0.26789,-0.30263 -0.59532,-0.349131 -0.40962,-0.05817 -0.59531,0.05073 -0.59531,0.349131 0,0.298404 0.18569,0.407306 0.59531,0.349131 0.32743,-0.0465 0.59532,-0.20361 0.59532,-0.349131 z m 12.15953,0.150574 c 0.0837,-0.135466 0.0312,-0.321086 -0.11667,-0.41249 -0.54241,-0.335228 -0.2429,-1.177647 0.78943,-2.220342 1.00445,-1.014542 1.37062,-1.883367 0.79375,-1.883367 -0.14552,0 -0.26458,-0.231098 -0.26458,-0.513552 0,-0.282453 -0.11907,-0.587136 -0.26459,-0.677073 -0.1581,-0.09771 -0.26458,-1.825433 -0.26458,-4.293045 0,-2.271238 -0.049,-4.079915 -0.10884,-4.019281 -0.0599,0.06063 -0.14638,1.866415 -0.19226,4.012847 -0.0629,2.940132 -0.16652,3.902604 -0.42033,3.902604 -0.1853,0 -0.3369,0.11985 -0.3369,0.266333 0,0.146483 -0.2896,0.518137 -0.64356,0.825897 l -0.64355,0.559563 0.84199,0.682174 c 0.4631,0.375196 0.87759,0.703908 0.9211,0.730472 0.0435,0.02656 -0.16713,0.486706 -0.46808,1.022539 -0.30096,0.535833 -0.48465,1.075454 -0.4082,1.199158 0.0764,0.123705 -0.002,0.271879 -0.17407,0.329277 -0.40161,0.13387 -0.0401,0.734587 0.44207,0.734587 0.20111,0 0.43415,-0.110836 0.51787,-0.246301 z m -0.50209,-4.226086 c -0.11428,-0.184921 -0.0773,-0.466737 0.0822,-0.626257 0.39037,-0.390371 0.5387,-0.175537 0.31129,0.450874 -0.1372,0.377917 -0.24003,0.423746 -0.39353,0.175383 z m -9.62456,3.092144 c -0.18986,-0.189855 -0.31309,-0.205477 -0.31309,-0.03969 0,0.150372 0.0794,0.352778 0.17639,0.449792 0.097,0.09701 0.2379,0.114873 0.31309,0.03969 0.0752,-0.07519 -0.004,-0.277592 -0.17639,-0.449792 z m 6.89681,-3.822069 c -0.18191,-0.0734 -0.47956,-0.0734 -0.66146,0 -0.1819,0.0734 -0.0331,0.133452 0.33073,0.133452 0.3638,0 0.51263,-0.06005 0.33073,-0.133452 z m -15.01511,-1.431166 c 5.89071,-0.570922 9.57202,-1.207269 10.40164,-1.798015 0.42383,-0.301788 0.85718,-0.462927 0.96302,-0.358086 0.17016,0.168563 -0.078,-6.308247 -0.24904,-6.500572 -0.0375,-0.04214 -0.94648,0.174828 -2.02001,0.482139 -1.07352,0.307312 -2.22866,0.550742 -2.56698,0.540955 -0.53518,-0.01548 -0.60573,0.09378 -0.54293,0.840778 0.0397,0.472214 0.18308,1.008407 0.31864,1.191539 0.13555,0.183133 0.18051,0.739392 0.0999,1.236132 -0.11209,0.690738 -0.0424,0.943318 0.29647,1.073887 0.41205,0.158783 0.41142,0.188475 -0.009,0.424512 -0.25055,0.140668 -0.38535,0.427566 -0.30242,0.643665 0.0823,0.214433 0.0307,0.389877 -0.1146,0.389877 -0.14532,0 -0.3327,-0.27289 -0.41641,-0.606423 -0.11406,-0.45446 -0.33673,-0.60364 -0.88858,-0.595313 -0.61698,0.0093 -0.75042,-0.111677 -0.82296,-0.746178 -0.12683,-1.109299 0.52215,-3.120935 0.95347,-2.955425 0.19317,0.07413 0.28476,0.02725 0.20354,-0.104176 -0.0812,-0.131425 0.002,-0.308507 0.18469,-0.393515 0.18281,-0.08501 -0.79871,-0.08045 -2.18116,0.01013 -2.87214,0.188188 -16.54564,0.173764 -20.50521,-0.02163 -1.45521,-0.07181 -2.34817,-0.03886 -1.98437,0.07322 0.59353,0.18286 0.95592,0.841389 0.46302,0.841389 -0.10914,0 -0.37476,0 -0.59027,0 -0.21551,0 -0.46366,-0.286151 -0.55144,-0.635891 -0.14696,-0.585537 -0.33068,-0.650714 -2.32014,-0.823072 -1.1883,-0.102949 -2.27961,-0.278476 -2.42513,-0.39006 -0.14552,-0.111584 -0.53247,-0.285006 -0.8599,-0.385383 -0.55689,-0.170725 -0.59298,-0.108778 -0.55928,0.959805 0.0198,0.62827 0.0876,0.874419 0.1507,0.546997 0.17937,-0.931271 0.68386,-0.709609 0.54459,0.239282 -0.11063,0.753773 -0.0879,0.787309 0.23455,0.346305 0.19638,-0.268559 0.35705,-0.584595 0.35705,-0.702303 0,-0.117707 0.28576,-0.214013 0.63502,-0.214013 0.56183,0 0.63217,0.11437 0.61024,0.992187 -0.0343,1.371876 0.15132,3.520257 0.29197,3.379609 0.0638,-0.06378 0.33534,0.146867 0.60348,0.468101 0.26813,0.321233 0.49148,0.449811 0.49632,0.285728 0.005,-0.164082 -0.16848,-0.445464 -0.38516,-0.625291 -0.21668,-0.179828 -0.32829,-0.433225 -0.24802,-0.563106 0.0803,-0.129881 -0.007,-0.658675 -0.19358,-1.175098 -0.28778,-0.795851 -0.28023,-0.980141 0.0496,-1.209225 0.29447,-0.204541 0.30867,-0.302913 0.0584,-0.404472 -0.1819,-0.07381 -0.32891,-0.451697 -0.32668,-0.839753 0.003,-0.504824 0.0698,-0.601819 0.235,-0.340929 0.12702,0.200544 0.3551,0.287899 0.50683,0.194122 0.15174,-0.09378 0.35424,-0.04372 0.45002,0.111242 0.12293,0.19891 0.27493,0.198089 0.51698,-0.0028 0.26178,-0.217262 0.38253,-0.126458 0.51065,0.384027 0.0923,0.367713 0.29917,0.668569 0.45974,0.668569 0.19417,0 0.17985,-0.135057 -0.0427,-0.403269 -0.37678,-0.453992 -0.19083,-0.807514 0.27373,-0.520402 0.17187,0.10622 0.23473,0.462163 0.14485,0.820244 -0.17426,0.694323 0.078,0.81501 0.63109,0.301865 0.29053,-0.26957 0.32727,-0.247598 0.19868,0.118817 -0.11182,0.318645 -0.0461,0.406705 0.22564,0.302422 0.21087,-0.08092 0.3834,-0.253449 0.3834,-0.383401 0,-0.129952 0.11907,-0.236276 0.26459,-0.236276 0.14552,0 0.26458,0.187699 0.26458,0.417108 0,0.32562 0.24133,0.399683 1.10025,0.337667 0.89835,-0.06486 1.13386,0.01639 1.28343,0.442788 0.10076,0.287226 0.33684,0.522229 0.52463,0.522229 0.18778,0 0.63079,0.457213 0.98446,1.016029 l 0.64303,1.016028 -0.61425,-0.189001 c -0.84279,-0.25932 -0.92675,-0.376633 -0.4743,-0.662766 0.31804,-0.201135 0.29244,-0.252619 -0.13996,-0.281546 -0.29104,-0.01947 -0.69508,-0.01215 -0.89787,0.01627 -0.20278,0.02842 -0.44405,-0.07025 -0.53615,-0.219269 -0.10393,-0.168165 -0.3145,-0.180052 -0.55512,-0.03134 -0.30876,0.190819 -0.3208,0.306483 -0.0592,0.568117 0.26164,0.261634 0.32852,0.260698 0.32852,-0.0046 0,-0.183214 0.12944,-0.25312 0.28763,-0.155348 0.1582,0.09777 0.23037,0.396746 0.16038,0.664387 -0.07,0.267641 -0.002,0.528363 0.15103,0.579381 0.16577,0.05526 0.20477,0.385698 0.0964,0.817257 -0.10596,0.422184 -0.30079,0.650979 -0.46691,0.54831 -0.19517,-0.12062 -0.17846,-0.242077 0.053,-0.385115 0.26663,-0.164787 0.24336,-0.353456 -0.11014,-0.892969 -0.24651,-0.376221 -0.55101,-0.684039 -0.67666,-0.684039 -0.35681,0 -0.52383,-1.694797 -0.18864,-1.914177 0.17519,-0.114658 0.0617,-0.196048 -0.27667,-0.198438 -0.31552,-0.0022 -0.73744,-0.0669 -0.93761,-0.143708 -0.26557,-0.10191 -0.37484,0.130511 -0.40427,0.859895 -0.039,0.966935 -0.0314,0.975809 0.23206,0.271949 0.3772,-1.007587 0.74822,-0.910595 0.70704,0.184833 -0.0307,0.817258 -0.11958,0.920757 -0.85184,0.992188 -0.72097,0.07033 -0.80749,0.165693 -0.73246,0.807354 0.0986,0.843306 -0.45068,0.985666 -1.1407,0.295638 -0.35259,-0.352586 -0.55419,-0.376279 -1.09706,-0.128931 -0.3658,0.16667 -0.77524,0.234966 -0.90985,0.151769 -0.13462,-0.0832 -0.24476,-0.02518 -0.24476,0.12893 0,0.154109 0.16886,0.280198 0.37524,0.280198 0.20638,0 0.56843,0.07414 0.80457,0.164752 0.23715,0.09101 0.39488,0.04363 0.35236,-0.105834 -0.0423,-0.148821 0.0123,-0.28249 0.12148,-0.297043 0.10914,-0.01455 0.18826,0.04953 0.17584,0.142398 -0.0474,0.354205 0.72483,0.615765 1.74239,0.590151 0.58208,-0.01465 0.84997,-0.08109 0.59531,-0.147641 -0.55993,-0.146325 -0.62195,-0.875949 -0.0744,-0.875949 0.24914,0 0.33633,-0.166145 0.24298,-0.463021 -0.13377,-0.425433 -0.11365,-0.424113 0.24781,0.01627 0.21636,0.263607 0.36245,0.761087 0.32464,1.105509 -0.0651,0.592928 0.0312,0.635119 1.81103,0.793545 6.48979,0.57767 11.06719,0.6106 16.16726,0.116306 z m -17.59479,-0.75924 c 0,-0.136933 0.11906,-0.322553 0.26458,-0.41249 0.14552,-0.08994 0.26458,0.0221 0.26458,0.248968 0,0.22687 -0.11906,0.41249 -0.26458,0.41249 -0.14552,0 -0.26458,-0.112036 -0.26458,-0.248968 z m 8.73125,-0.264584 c 0,-0.638853 0.14714,-0.703303 0.35701,-0.15638 0.082,0.213621 0.0352,0.458773 -0.10398,0.544782 -0.13917,0.08601 -0.25303,-0.08877 -0.25303,-0.388402 z m 6.08541,0.248969 c 0,-0.145521 0.11907,-0.264584 0.26459,-0.264584 0.14552,0 0.26458,0.119063 0.26458,0.264584 0,0.145521 -0.11906,0.264583 -0.26458,0.264583 -0.14552,0 -0.26459,-0.119062 -0.26459,-0.264583 z m 7.7147,-0.529167 c 0,-0.363802 0.0601,-0.51263 0.13345,-0.330729 0.0734,0.181901 0.0734,0.479557 0,0.661458 -0.0734,0.181901 -0.13345,0.03307 -0.13345,-0.330729 z M 138.74632,47.19629 c -0.0899,-0.145521 -0.0374,-0.264584 0.11668,-0.264584 0.1541,0 0.28019,0.119063 0.28019,0.264584 0,0.145521 -0.0525,0.264583 -0.11667,0.264583 -0.0642,0 -0.19026,-0.119062 -0.2802,-0.264583 z m 12.5687,-0.198438 c -0.001,-0.68785 -0.32206,-0.76798 -0.79474,-0.198437 -0.18116,0.218281 -0.7422,0.396875 -1.24676,0.396875 -1.12432,0 -1.90682,-0.827142 -1.91944,-2.028942 -0.007,-0.680858 0.16927,-0.948373 0.93928,-1.424265 l 0.94809,-0.585948 0.70556,0.525189 c 0.44236,0.329273 0.75491,0.860581 0.83785,1.424265 0.10019,0.680915 0.27674,0.919591 0.7276,0.983624 0.40042,0.05687 0.59532,-0.05141 0.59532,-0.330729 0,-0.228403 -0.13364,-0.415278 -0.29698,-0.415278 -0.20519,0 -0.19518,-0.12267 0.0324,-0.396875 0.22757,-0.274204 0.23759,-0.396874 0.0324,-0.396874 -0.16334,0 -0.29698,-0.185621 -0.29698,-0.41249 0,-0.22687 0.11906,-0.338906 0.26458,-0.248969 0.14552,0.08994 0.26461,0.0672 0.26464,-0.05053 5e-5,-0.183311 0.82336,-0.228663 2.05047,-0.112948 0.1819,0.01715 0.34013,0.239547 0.35162,0.494208 0.0126,0.279334 0.074,0.331162 0.15489,0.130643 0.19902,-0.493671 0.61858,-0.120243 0.61392,0.546431 -0.003,0.435141 -0.0619,0.488311 -0.23615,0.213223 -0.18653,-0.29453 -0.28871,-0.260672 -0.52052,0.172467 -0.25111,0.469188 -0.22054,0.521187 0.23614,0.401761 0.30337,-0.07933 0.52458,-0.006 0.52458,0.173877 0,0.171082 -0.11907,0.237473 -0.26459,0.147536 -0.14552,-0.08994 -0.26458,-0.03041 -0.26458,0.132291 0,0.162698 -0.11083,0.227314 -0.2463,0.143591 -0.13547,-0.08372 -0.31794,-0.03632 -0.40549,0.10535 -0.23986,0.388096 -1.68728,0.215709 -1.53481,-0.182795 0.24896,-0.65066 -0.21202,-0.314989 -0.72672,0.529167 -0.46565,0.763729 -0.5244,0.793319 -0.52527,0.264583 z m 9.94964,0.0866 c 0.24016,-0.625846 0.89728,-0.73163 0.89728,-0.144445 0,0.341706 -0.17915,0.520863 -0.52086,0.520863 -0.3417,0 -0.47118,-0.129473 -0.37642,-0.376418 z m -17.79103,-0.07083 c -0.66405,-0.130143 -1.88262,-1.413934 -1.78916,-1.88492 0.0357,-0.179789 0.004,-0.204851 -0.0696,-0.05569 -0.20701,0.417413 -0.88415,0.321161 -0.88415,-0.125678 0,-0.218281 0.15784,-0.396874 0.35076,-0.396874 0.19291,0 0.63039,-0.297657 0.97216,-0.661459 0.76732,-0.816774 2.03884,-0.874668 2.97839,-0.135611 0.56082,0.441138 0.64738,0.686212 0.53737,1.521354 -0.12267,0.931204 -0.84876,1.966889 -1.32188,1.885517 -0.11523,-0.01982 -0.46347,-0.0858 -0.77386,-0.146637 z M 162.712,46.777367 c 0.0127,-0.308224 0.0754,-0.370919 0.15985,-0.159852 0.0764,0.190996 0.067,0.419199 -0.0209,0.507118 -0.0879,0.08792 -0.15045,-0.06835 -0.13896,-0.347266 z m 0.50828,-0.110243 c 0,-0.293981 0.17639,-0.529167 0.39687,-0.529167 0.44531,0 0.4632,0.04846 0.23628,0.639819 -0.22686,0.591185 -0.63315,0.52018 -0.63315,-0.110652 z m -5.43484,-0.282186 c -0.0959,-0.155203 -0.11766,-0.338931 -0.0483,-0.408286 0.0694,-0.06936 0.1966,0.05763 0.28277,0.282186 0.17891,0.466224 0.0264,0.548232 -0.23447,0.1261 z m -1.79076,-0.287523 c -0.30832,-0.172548 -0.38813,-0.500889 -0.29708,-1.222174 0.20933,-1.658238 0.36939,-1.984993 0.79805,-1.629234 0.3079,0.255532 0.37795,0.17554 0.39327,-0.44909 0.0185,-0.755008 0.0208,-0.753917 0.3446,0.166041 0.27498,0.78123 0.34747,1.830272 0.199,2.879557 -0.0506,0.357793 -0.96448,0.519801 -1.43784,0.2549 z m 5.08256,-1.074628 c -0.0207,-1.0977 -0.0719,-1.256147 -0.23821,-0.736913 -0.18746,0.585324 -0.21838,0.539644 -0.26868,-0.396875 -0.0789,-1.469361 0.004,-2.073111 0.32755,-2.38125 0.19144,-0.182402 0.23309,-0.07956 0.13409,0.331094 -0.079,0.327623 -0.0357,0.528956 0.0963,0.447406 0.13195,-0.08155 0.2399,-0.332577 0.2399,-0.557839 0,-0.265974 0.14777,-0.352866 0.42146,-0.24784 0.2318,0.08895 0.69977,0.231581 1.03994,0.316958 0.57275,0.14375 0.61892,0.290248 0.62426,1.980692 0.005,1.569352 -0.0699,1.865948 -0.53344,2.114036 -0.29656,0.158716 -0.60419,0.223586 -0.68362,0.144155 -0.0794,-0.07943 -0.36689,-0.02536 -0.6388,0.120165 -0.45256,0.2422 -0.49661,0.146284 -0.52075,-1.133789 z m -22.99238,0.850587 c 0,-0.145521 0.11906,-0.264583 0.26458,-0.264583 0.14552,0 0.26459,0.119062 0.26459,0.264583 0,0.145521 -0.11907,0.264583 -0.26459,0.264583 -0.14552,0 -0.26458,-0.119062 -0.26458,-0.264583 z m 12.98547,-1.74184 c 0.0127,-0.308225 0.0754,-0.370919 0.15985,-0.159853 0.0764,0.190997 0.067,0.4192 -0.0209,0.507119 -0.0879,0.08792 -0.15046,-0.06835 -0.13897,-0.347266 z m 4.11677,-0.242535 c -0.0838,-0.218281 -0.037,-0.396875 0.10398,-0.396875 0.14095,0 0.25628,0.178594 0.25628,0.396875 0,0.218281 -0.0468,0.396875 -0.10398,0.396875 -0.0572,0 -0.17252,-0.178594 -0.25628,-0.396875 z m -5.39001,-1.161555 c 0.022,-0.29218 0.18017,-0.445413 0.38043,-0.368568 0.46588,0.178776 0.43596,0.868665 -0.0377,0.868665 -0.20996,0 -0.36355,-0.224096 -0.34276,-0.500097 z m 1.69746,-0.05736 c -0.10473,-0.400481 -0.0494,-0.423469 0.37755,-0.156841 0.59477,0.37144 0.64468,0.626101 0.12271,0.626101 -0.20765,0 -0.43277,-0.211167 -0.50026,-0.46926 z m 1.16328,0.138531 c 0.0127,-0.308224 0.0754,-0.370919 0.15985,-0.159852 0.0764,0.190996 0.067,0.419199 -0.0209,0.507118 -0.0879,0.08792 -0.15046,-0.06835 -0.13897,-0.347266 z m -16.7663,-0.374826 c -0.0761,-0.291042 -0.0305,-0.529167 0.10143,-0.529167 0.1319,0 0.23982,0.238125 0.23982,0.529167 0,0.291042 -0.0456,0.529167 -0.10144,0.529167 -0.0558,0 -0.1637,-0.238125 -0.23981,-0.529167 z m 2.21422,0.110243 c 0.0127,-0.308225 0.0754,-0.370919 0.15985,-0.159852 0.0764,0.190996 0.067,0.419199 -0.0209,0.507118 -0.0879,0.08792 -0.15045,-0.06835 -0.13896,-0.347266 z m 5.00619,0.15434 c 0,-0.145521 0.1786,-0.264583 0.39688,-0.264583 0.21828,0 0.39687,0.119062 0.39687,0.264583 0,0.145521 -0.17859,0.264584 -0.39687,0.264584 -0.21828,0 -0.39688,-0.119063 -0.39688,-0.264584 z m 11.2448,0 c 0.0899,-0.145521 0.21602,-0.264583 0.28019,-0.264583 0.0642,0 0.11668,0.119062 0.11668,0.264583 0,0.145521 -0.12609,0.264584 -0.2802,0.264584 -0.15411,0 -0.20661,-0.119063 -0.11667,-0.264584 z m -23.86813,4.497917 c -0.0761,-0.291042 -0.17429,-0.529167 -0.21818,-0.529167 -0.31182,0 -0.91682,0.362389 -0.91682,0.54917 0,0.125385 0.16655,0.164061 0.37011,0.08595 0.20356,-0.07811 0.44872,-0.01485 0.54478,0.140595 0.27354,0.442584 0.37159,0.332745 0.22011,-0.246545 z m -1.99669,-2.645833 -0.0152,-1.190625 -0.17062,1.322916 c -0.0941,0.729447 -0.24406,1.144876 -0.33434,0.926042 -0.0901,-0.218281 -0.23288,-0.575469 -0.31739,-0.79375 -0.0845,-0.218281 -0.0831,0.07847 0.003,0.659443 0.0862,0.580975 0.23011,1.175087 0.31983,1.320249 0.24095,0.389868 0.53206,-0.879613 0.51465,-2.244275 z m 5.3696,1.785937 c 0.006,-0.181901 0.0767,-0.791427 0.15813,-1.354502 0.10662,-0.73681 0.0624,-0.970756 -0.1579,-0.834626 -0.16833,0.104032 -0.27529,0.445667 -0.2377,0.75919 0.0376,0.313523 -0.0786,0.837933 -0.25827,1.165355 -0.2747,0.500681 -0.26205,0.595312 0.0796,0.595312 0.2234,0 0.41068,-0.148828 0.41618,-0.330729 z m 23.86865,-6.410553 c 0.25466,-0.106975 0.46302,-0.30785 0.46302,-0.44639 0,-0.13854 -0.14882,-0.176504 -0.33073,-0.08436 -0.1819,0.09214 -0.0996,-0.0199 0.18287,-0.248969 0.8454,-0.685578 1.33231,-0.40336 0.61088,0.354075 -0.26877,0.282193 -0.2316,0.321214 0.19844,0.208312 0.29104,-0.07641 0.9833,-0.215684 1.53835,-0.309498 0.56061,-0.09475 0.96585,-0.300555 0.9117,-0.463006 -0.11021,-0.330627 -0.22488,-0.354882 -3.50838,-0.742106 -1.30969,-0.154451 -3.09563,-0.398354 -3.96875,-0.542005 -0.91606,-0.150716 -4.55302,-0.206555 -8.59896,-0.132023 -6.71672,0.123732 -10.52843,0.444607 -10.83642,0.912226 -0.26633,0.404366 -1.33441,0.861739 -1.33441,0.571422 0,-0.150641 0.17859,-0.273893 0.39687,-0.273893 0.21828,0 0.39688,-0.119062 0.39688,-0.264583 0,-0.145521 -0.11204,-0.264583 -0.24897,-0.264583 -0.13693,0 -0.32255,0.119062 -0.41249,0.264583 -0.0899,0.145521 -0.50666,0.264583 -0.92604,0.264583 -0.41939,0 -0.83611,0.119063 -0.92604,0.264584 -0.0899,0.14552 -0.0472,0.264583 0.095,0.264583 0.14221,0 0.46642,0.07976 0.72048,0.177255 0.33164,0.127261 0.40336,0.0825 0.25429,-0.158689 -0.16531,-0.267478 -0.0887,-0.272273 0.37614,-0.02353 0.32106,0.171829 0.64726,0.248908 0.72488,0.171287 0.0776,-0.07762 0.31405,0.0318 0.52541,0.243147 0.53547,0.535479 0.87564,0.479192 0.87564,-0.144891 0,-0.291041 0.13295,-0.529166 0.29544,-0.529166 0.16518,0 0.23443,0.233312 0.15706,0.529166 -0.0761,0.291042 -0.0305,0.529167 0.10144,0.529167 0.13189,0 0.23981,-0.185621 0.23981,-0.41249 0,-0.226869 0.12101,-0.337705 0.2689,-0.246301 0.14789,0.0914 0.20431,0.270694 0.12537,0.398423 -0.0789,0.127729 0.48466,0.283728 1.25246,0.346665 2.24885,0.184342 19.87242,1.53e-4 20.37983,-0.212996 z M 134.2484,39.523372 c -0.0899,-0.145521 -0.0374,-0.264583 0.11668,-0.264583 0.15411,0 0.2802,0.119062 0.2802,0.264583 0,0.145521 -0.0525,0.264584 -0.11668,0.264584 -0.0642,0 -0.19026,-0.119063 -0.2802,-0.264584 z m -3.30729,-0.529166 c 0,-0.145521 -0.11204,-0.264584 -0.24897,-0.264584 -0.13693,0 -0.32255,0.119063 -0.41249,0.264584 -0.0899,0.14552 0.0221,0.264583 0.24897,0.264583 0.22687,0 0.41249,-0.119063 0.41249,-0.264583 z m 8.64306,42.68611 c -0.28354,-0.283534 -0.20291,-1.363495 0.11654,-1.560922 0.19454,-0.120235 0.23633,-0.0027 0.1244,0.349927 -0.11273,0.355182 -0.029,0.58452 0.25301,0.692724 0.23184,0.08897 0.34743,0.281659 0.25685,0.428208 -0.18989,0.307249 -0.4968,0.344065 -0.7508,0.09006 z m 12.78819,-0.609057 c 0,-0.140954 0.17859,-0.187747 0.39688,-0.103985 0.25131,0.09644 0.39687,-0.0036 0.39687,-0.272887 0,-0.23385 0.11906,-0.425182 0.26458,-0.425182 0.14552,0 0.26459,0.238125 0.26459,0.529166 0,0.388056 -0.17639,0.529167 -0.66146,0.529167 -0.3638,0 -0.66146,-0.115326 -0.66146,-0.256279 z m -12.03028,-0.350444 c -0.11326,-0.260938 -0.13169,-0.548672 -0.0409,-0.63941 0.26869,-0.268682 0.48527,0.10873 0.36161,0.630112 -0.10963,0.462212 -0.1239,0.462626 -0.32066,0.0093 z m 1.97709,-2.434942 c -0.34123,-0.363228 -0.56166,-0.719174 -0.48985,-0.79099 0.0718,-0.07182 0.47159,0.22537 0.88839,0.660415 0.4168,0.435045 0.63724,0.79099 0.48986,0.79099 -0.14738,0 -0.54716,-0.297187 -0.8884,-0.660415 z m 1.32194,0.438984 c 0,-0.121788 -0.56555,-0.813325 -1.25677,-1.536749 -2.56594,-2.685472 -3.47441,-3.741195 -3.33733,-3.87827 0.0774,-0.07742 0.74491,0.534031 1.48332,1.358781 0.73841,0.824749 1.85947,2.031479 2.49125,2.681621 1.15065,1.184091 1.37885,1.596048 0.88411,1.596048 -0.14552,0 -0.26458,-0.09964 -0.26458,-0.221431 z m -5.99164,-0.492753 c -0.71019,-0.136522 -1.52668,-1.01047 -1.2947,-1.38581 0.25282,-0.409082 1.80854,-0.344373 2.40713,0.100123 0.40334,0.299516 0.45274,0.480711 0.2301,0.844148 -0.32158,0.52495 -0.53813,0.596172 -1.34253,0.441539 z m 0.78512,-0.894 c -0.15689,-0.156898 -0.62719,-0.245005 -1.0451,-0.195795 l -0.75984,0.08947 0.79375,0.440513 c 0.82728,0.459118 1.56176,0.216376 1.01119,-0.33419 z m 16.51746,0.793241 c -0.25466,-0.148326 -0.46302,-0.450867 -0.46302,-0.672311 0,-0.354869 0.0493,-0.35331 0.41577,0.01315 0.81527,0.815265 1.69622,0.337465 1.17465,-0.637091 -0.20134,-0.376212 -0.2025,-0.534635 -0.004,-0.534635 0.47941,0 0.61792,0.796882 0.25604,1.473057 -0.37379,0.698434 -0.66503,0.77398 -1.37951,0.357833 z m -14.61823,-2.015672 c -1.23268,-1.338355 -1.59525,-2.103106 -0.53959,-1.138135 0.78817,0.720467 1.84526,2.104887 1.69293,2.217165 -0.0523,0.03852 -0.57126,-0.447046 -1.15334,-1.07903 z m 14.68437,0.713949 c 0,-0.145521 0.11907,-0.264584 0.26459,-0.264584 0.14552,0 0.26458,0.119063 0.26458,0.264584 0,0.14552 -0.11906,0.264583 -0.26458,0.264583 -0.14552,0 -0.26459,-0.119063 -0.26459,-0.264583 z m -19.71145,-0.79375 c -0.0899,-0.145521 0.0221,-0.264584 0.24896,-0.264584 0.22687,0 0.41249,0.119063 0.41249,0.264584 0,0.14552 -0.11203,0.264583 -0.24896,0.264583 -0.13694,0 -0.32256,-0.119063 -0.41249,-0.264583 z m 11.50937,-0.529167 c 0,-0.291042 0.10792,-0.529167 0.23981,-0.529167 0.1319,0 0.17755,0.238125 0.10144,0.529167 -0.0761,0.291042 -0.18403,0.529167 -0.23982,0.529167 -0.0558,0 -0.10143,-0.238125 -0.10143,-0.529167 z m -18.25625,-0.139828 c -2.01979,-0.41574 -6.25382,-1.832227 -6.77863,-2.267776 -0.25242,-0.209491 -0.36512,-0.930025 -0.36512,-2.334376 0,-1.227164 -0.12569,-2.157048 -0.3175,-2.348853 -0.17462,-0.174625 -0.93579,-0.3175 -1.69148,-0.3175 -1.06357,0 -1.41467,-0.104608 -1.55406,-0.463021 -0.22489,-0.57824 -0.21393,-6.712309 0.0131,-7.303797 0.2615,-0.681473 0.73379,-0.52815 0.493,0.160047 -0.33736,0.964169 -0.44652,5.689454 -0.14346,6.210094 0.20064,0.344699 0.2761,-0.337657 0.28199,-2.550025 0.004,-1.661362 0.0526,-2.97105 0.10696,-2.910416 0.0544,0.06063 0.16922,1.216074 0.25515,2.567644 0.0859,1.351571 0.21734,2.556268 0.29202,2.677105 0.0747,0.120837 0.71702,0.296807 1.42741,0.391044 1.83781,0.243793 2.12155,0.672533 2.21434,3.345962 l 0.0778,2.240988 1.05833,0.264583 c 0.58209,0.145521 1.18574,0.347667 1.34146,0.449214 0.15572,0.101546 0.57244,0.247978 0.92604,0.325403 0.35361,0.07743 1.35729,0.330488 2.23042,0.562363 0.87312,0.231874 1.93578,0.505222 2.36147,0.607439 0.81666,0.1961 1.2699,0.833706 0.59263,0.833706 -0.2185,0 -0.55585,0.04819 -0.74965,0.107081 -0.1938,0.05889 -1.12627,-0.05222 -2.07216,-0.246909 z m -0.13229,-0.802549 c -1.38749,-0.394722 -3.29664,-0.951922 -4.9483,-1.444197 -1.11606,-0.332641 -1.26478,-0.658916 -1.1433,-2.508218 0.11476,-1.747079 -0.32682,-3.041574 -1.03916,-3.046321 -0.29819,-0.002 -0.83981,-0.06284 -1.20362,-0.135225 -0.51275,-0.102024 -0.483,-0.06348 0.1323,0.171431 1.37051,0.523246 1.4552,0.692218 1.4552,2.903426 0,2.000845 0.0268,2.091033 0.72761,2.445023 0.70881,0.358055 4.43084,1.610601 5.4901,1.847541 1.30277,0.291409 1.72278,0.106108 0.52917,-0.23346 z m 34.0651,1.043539 c -0.1819,-0.07989 -0.33073,-0.240572 -0.33073,-0.357064 0,-0.28964 2.40937,-1.21879 4.49792,-1.734586 0.94589,-0.233598 2.22581,-0.665829 2.84427,-0.960512 l 1.12448,-0.535788 0.004,-2.291502 c 0.002,-1.260326 0.0919,-2.429614 0.19934,-2.598417 0.11325,-0.177993 0.76891,-0.289133 1.56088,-0.264583 0.75108,0.02328 1.44318,-0.03501 1.53799,-0.12954 0.0948,-0.09453 0.16532,-2.237655 0.15669,-4.7625 -0.009,-2.524846 0.0876,-4.752119 0.21391,-4.949496 0.45897,-0.717346 0.9106,2.43979 0.93408,6.529749 0.0263,4.581604 -0.0682,4.809327 -1.99606,4.809327 -0.54568,0 -1.08168,0.144869 -1.19111,0.32193 -0.10943,0.177062 -0.17197,1.107473 -0.13898,2.06758 0.0765,2.225093 -0.0763,2.367743 -3.96693,3.704046 -3.01826,1.036678 -4.83636,1.420781 -5.4498,1.151356 z m 5.45549,-1.568529 c 1.59402,-0.514541 3.04677,-1.114536 3.22835,-1.333321 0.28489,-0.343277 0.35412,-1.719066 0.25595,-5.086281 -0.006,-0.190489 -0.14379,-0.26372 -0.30718,-0.162734 -0.30652,0.189438 -0.19845,3.547453 0.14017,4.355653 0.20196,0.482017 -1.59624,1.451772 -3.67955,1.984353 -0.7276,0.186006 -2.09682,0.588275 -3.04271,0.893931 -1.48429,0.479637 -1.56734,0.537127 -0.60651,0.419833 0.6123,-0.07475 2.41747,-0.556893 4.01148,-1.071434 z m 5.56882,-6.299836 c -0.2931,-0.250677 -1.84129,-0.40256 -1.69528,-0.166313 0.0886,0.14333 0.53106,0.260599 0.98329,0.260599 0.45223,0 0.77262,-0.04243 0.71199,-0.09429 z m 1.49642,-1.396481 c 0.10113,-0.674402 0.0998,-2.371042 -0.003,-3.770313 -0.3498,-4.76493 -0.56569,-4.699959 -0.55552,0.167182 0.01,4.766895 0.2,5.993166 0.55841,3.603131 z m -41.42646,7.047017 c 0,-0.145521 0.11204,-0.264583 0.24897,-0.264583 0.13694,0 0.32256,0.119062 0.41249,0.264583 0.0899,0.145521 -0.0221,0.264584 -0.24897,0.264584 -0.22687,0 -0.41249,-0.119063 -0.41249,-0.264584 z m -11.8446,-9.28322 c -0.95603,-0.195527 -1.65966,-0.685603 -1.62826,-1.134072 0.0131,-0.187454 0.0705,-0.175413 0.15434,0.0324 0.40509,1.003918 0.61852,-0.03841 0.61852,-3.02066 0,-1.843264 -0.0835,-3.267843 -0.18565,-3.165732 -0.10211,0.102111 -0.2617,1.461408 -0.35465,3.02066 l -0.16898,2.835002 -0.0408,-2.513541 c -0.0224,-1.382448 0.0835,-2.960976 0.23537,-3.50784 0.4232,-1.523885 -0.0847,-3.807056 -1.07396,-4.827703 -0.95968,-0.990138 -0.98459,-1.354597 -0.15268,-2.233313 0.61638,-0.651065 0.64268,-0.836566 0.71465,-5.04156 0.0655,-3.825612 0.0163,-4.454025 -0.39729,-5.080275 -0.25961,-0.393057 -0.40394,-0.929133 -0.32074,-1.19128 0.21027,-0.662474 1.14729,-1.194095 1.76124,-0.999235 0.59041,0.187388 0.6393,0.582972 0.2016,1.63117 -0.32625,0.781283 -0.53955,6.893118 -0.30158,8.641441 0.12047,0.885101 0.28117,1.082236 1.23544,1.515543 0.60332,0.273953 1.47024,0.500712 1.92647,0.503908 1.00678,0.0071 2.65352,0.659713 2.26711,0.89853 -0.15267,0.09435 -0.88698,0.287122 -1.63182,0.428376 -1.32161,0.250639 -3.71377,1.437557 -3.71377,1.842664 0,0.111684 0.35719,0.652523 0.79375,1.201866 0.91975,1.157351 0.94224,1.267178 0.35871,1.751465 -0.38658,0.320836 -0.41416,0.295284 -0.24763,-0.229409 0.11737,-0.369807 0.0385,-0.803046 -0.21105,-1.159333 -0.36085,-0.515185 -0.39366,-0.147136 -0.34768,3.899827 l 0.0508,4.468699 1.394,0.17014 c 0.7667,0.09358 1.55784,0.306113 1.75809,0.472304 0.20025,0.166191 0.51056,0.268222 0.68959,0.226736 0.17903,-0.04149 0.38008,0.0734 0.44677,0.2553 0.08,0.218251 -0.17867,0.344786 -0.76067,0.372063 -0.48507,0.02273 -1.18236,0.05682 -1.54954,0.07574 -0.36718,0.01892 -1.05105,-0.04402 -1.51972,-0.139876 z m 1.65815,-0.506363 c -0.0899,-0.145521 -0.34212,-0.264583 -0.5604,-0.264583 -0.21828,0 -0.32329,0.119062 -0.23335,0.264583 0.0899,0.145521 0.34211,0.264583 0.56039,0.264583 0.21828,0 0.32329,-0.119062 0.23336,-0.264583 z m -1.26229,-0.159852 c -0.0879,-0.08792 -0.31612,-0.09732 -0.50712,-0.02089 -0.21106,0.08446 -0.14837,0.147156 0.15986,0.159852 0.27891,0.01149 0.43518,-0.05105 0.34726,-0.138964 z m -0.45751,-12.651264 c 0,-1.018742 -0.91935,-1.771851 -1.13875,-0.932842 -0.074,0.282846 -0.0266,0.580941 0.10526,0.662435 0.13186,0.08149 0.23974,-0.0017 0.23974,-0.184945 0,-0.238926 0.081,-0.252161 0.28631,-0.04681 0.20535,0.205353 0.18736,0.444749 -0.0636,0.846667 -0.43542,0.697213 -0.75183,0.719448 -0.75183,0.05283 0,-0.95072 -0.28827,-1.389695 -0.69236,-1.054329 -0.95351,0.791345 0.25339,2.279685 1.41823,1.748948 0.43271,-0.197154 0.59704,-0.497716 0.59704,-1.091958 z m -1.98437,0.111116 c -0.0899,-0.14552 -0.0374,-0.264583 0.11668,-0.264583 0.1541,0 0.28019,0.119063 0.28019,0.264583 0,0.145521 -0.0525,0.264584 -0.11667,0.264584 -0.0642,0 -0.19026,-0.119063 -0.2802,-0.264584 z m 3.66899,-0.446984 c 0.22831,0.08761 0.47779,0.05787 0.5544,-0.06609 0.0766,-0.123957 -0.3363,-0.270732 -0.91757,-0.326165 -0.69853,-0.06662 -1.05686,0.0062 -1.05686,0.214884 0,0.413102 0.61252,0.620079 0.83319,0.281543 0.0944,-0.144906 0.35853,-0.191784 0.58684,-0.104174 z m -3.09138,-2.777625 c -0.0845,-0.211067 -0.14715,-0.148372 -0.15985,0.159852 -0.0115,0.278915 0.051,0.435185 0.13897,0.347266 0.0879,-0.08792 0.0973,-0.316122 0.0209,-0.507118 z m 0.003,-3.318792 c -0.0671,-0.257431 -0.12638,-0.110869 -0.13178,0.325693 -0.005,0.436563 0.0495,0.647188 0.12197,0.468057 0.0725,-0.179132 0.0769,-0.536319 0.01,-0.79375 z m -0.008,-1.724828 c -0.0734,-0.181901 -0.13345,-0.03307 -0.13345,0.33073 0,0.363802 0.0601,0.51263 0.13345,0.330729 0.0734,-0.181901 0.0734,-0.479558 0,-0.661459 z m 0.47445,-4.099596 c 0.2659,-0.692915 -0.31973,-1.040826 -0.85,-0.504975 -0.43868,0.443288 -0.43683,0.456788 0.038,0.277229 0.36507,-0.138059 0.46278,-0.08861 0.3638,0.18414 -0.0744,0.205089 -0.27812,0.340174 -0.45264,0.300189 -0.17453,-0.03999 -0.24513,0.04411 -0.15689,0.186882 0.21526,0.3483 0.85719,0.07917 1.05774,-0.443465 z m 2.62587,20.185704 c -0.0811,-0.211313 -0.0703,-0.508969 0.0239,-0.661459 0.22442,-0.363129 1.9922,-0.360516 1.9922,0.0029 0,0.154109 -0.11906,0.206614 -0.26458,0.116677 -0.14552,-0.08994 -0.26459,0.0221 -0.26459,0.248968 0,0.22687 -0.19317,0.41249 -0.42927,0.41249 -0.35157,0 -0.36965,-0.07183 -0.0999,-0.396875 0.36054,-0.434431 0.0803,-0.523434 -0.49692,-0.157821 -0.20055,0.127023 -0.28282,0.363324 -0.18282,0.525115 0.1,0.16179 0.11151,0.294165 0.0256,0.294165 -0.0859,0 -0.22256,-0.172893 -0.30364,-0.384205 z m 43.7321,-0.05677 c -0.28498,-0.284973 -0.20435,-0.550019 0.21645,-0.711492 0.23091,-0.08861 0.50739,0.06331 0.67076,0.368567 0.23008,0.429906 0.19282,0.519314 -0.21645,0.519314 -0.27191,0 -0.57375,-0.07937 -0.67076,-0.176389 z m 1.47251,-0.352777 c -0.27563,-0.441354 -0.26424,-0.529167 0.0686,-0.529167 0.22273,0 0.39912,0.233864 0.39912,0.529167 0,0.291041 -0.0309,0.529166 -0.0686,0.529166 -0.0378,0 -0.21736,-0.238125 -0.39912,-0.529166 z m 8.14068,-2.630219 c 0,-0.136932 0.11906,-0.322553 0.26458,-0.41249 0.14552,-0.08994 0.26459,0.0221 0.26459,0.248969 0,0.226869 -0.11907,0.41249 -0.26459,0.41249 -0.14552,0 -0.26458,-0.112036 -0.26458,-0.248969 z m -60.9539,-3.113445 c -0.091,-0.09095 -0.15349,-0.472942 -0.13899,-0.848871 l 0.0264,-0.683507 0.18828,0.661458 0.18828,0.661459 0.31452,-0.577919 c 0.42623,-0.783204 0.40154,-0.87729 -0.23027,-0.87729 -0.29963,0 -0.471,-0.119384 -0.38082,-0.265298 0.2758,-0.446247 1.19059,0.224674 1.18613,0.86992 -0.006,0.898242 -0.68839,1.525156 -1.1535,1.060048 z m 60.41094,-0.773575 c -0.36574,-0.961947 -0.10434,-1.666062 0.55455,-1.49376 0.61765,0.161519 0.93596,1.167669 0.57401,1.814429 -0.21324,0.381047 -0.25538,0.337279 -0.25538,-0.265262 0,-0.396883 -0.14321,-0.861504 -0.31825,-1.032491 -0.24725,-0.241539 -0.27757,-0.08957 -0.13591,0.681302 0.21043,1.145134 -0.0312,1.315727 -0.41902,0.295782 z m -52.67257,-5.455157 c -0.0186,-0.03638 -0.0615,-0.327654 -0.0955,-0.647274 -0.0706,-0.664557 0.54028,-1.034435 0.76052,-0.460499 0.0888,0.231373 -0.0173,0.380169 -0.271,0.380169 -0.26186,0 -0.36024,0.147583 -0.26458,0.396875 0.12055,0.314148 0.008,0.600725 -0.12945,0.330729 z m 45.32521,-1.984375 0.0477,-1.521354 0.1123,1.322917 c 0.23586,2.778384 0.44897,0.27295 0.32149,-3.779591 -0.12877,-4.093334 -0.15239,-4.234315 -0.88647,-5.292534 -0.62988,-0.907994 -0.71353,-1.209338 -0.50755,-1.82836 0.33807,-1.015979 1.51399,-1.43696 2.03263,-0.727684 0.20603,0.281774 0.28355,0.572602 0.17225,0.646285 -0.11129,0.07368 -0.28106,0.312561 -0.37725,0.530842 -0.10381,0.235556 -0.13243,0.164172 -0.0704,-0.175617 0.0708,-0.38795 -0.0513,-0.61324 -0.37891,-0.698903 -0.68258,-0.1785 -1.3027,0.600476 -1.03546,1.300737 0.22574,0.591536 1.05117,1.069121 1.05117,0.608198 0,-0.149542 0.11341,-0.201804 0.25202,-0.116138 0.13861,0.08567 0.4315,-0.175197 0.65086,-0.579697 0.21937,-0.4045 0.40361,-0.602683 0.40944,-0.440407 0.006,0.162276 -0.24343,0.617982 -0.5539,1.012679 -0.54018,0.686733 -0.55837,0.911886 -0.42254,5.229212 0.13547,4.305922 -0.0437,6.030769 -0.62635,6.030769 -0.13128,0 -0.21724,-0.684609 -0.19101,-1.521354 z m -45.11505,-0.771701 c -0.097,-0.09701 -0.17718,-1.972249 -0.17814,-4.167188 -0.002,-3.537486 -0.0615,-4.08096 -0.52742,-4.784548 -0.6723,-1.015139 -0.66253,-1.270654 0.0816,-2.135816 0.72052,-0.837654 1.62927,-0.712452 2.08475,0.287224 0.22654,0.497198 0.1741,0.793742 -0.26642,1.506517 -0.47413,0.76716 -0.53807,1.236068 -0.47166,3.459041 0.0423,1.414366 -0.004,2.571575 -0.10316,2.571575 -0.099,0 -0.20675,-0.741436 -0.23945,-1.647636 -0.10578,-2.931295 -0.29324,-1.975424 -0.24962,1.27281 0.0233,1.734123 0.0913,2.736232 0.15116,2.22691 0.12035,-1.024258 0.60212,-1.760466 0.59734,-0.912813 -0.005,0.939634 -0.32787,2.500313 -0.51678,2.500313 -0.10222,0 -0.26524,-0.07938 -0.36225,-0.176389 z m 1.14064,-10.31875 c 0.007,-0.696061 -0.45271,-0.892652 -1.25089,-0.534765 -0.71242,0.319439 -0.76878,1.056666 -0.13229,1.730514 0.45013,0.476543 0.47575,0.474702 0.92016,-0.06615 0.25143,-0.305987 0.45979,-0.814308 0.46302,-1.129603 z m -0.78787,0.456587 c 0,-0.154109 -0.2024,-0.280198 -0.44979,-0.280198 -0.33569,0 -0.37356,-0.07623 -0.1493,-0.300491 0.22427,-0.224266 0.406,-0.194987 0.71641,0.115422 0.25606,0.256069 0.31344,0.479241 0.1493,0.580689 -0.14664,0.09063 -0.26662,0.03869 -0.26662,-0.115422 z m 44.45001,5.011468 c 0,-1.649236 0.0693,-2.929284 0.15406,-2.844551 0.21803,0.218033 0.24063,5.448471 0.0245,5.664627 -0.0982,0.09819 -0.17854,-1.17084 -0.17854,-2.820076 z m 4.1544,1.331584 c 0.0749,-0.286274 0.30184,-0.65804 0.5044,-0.826146 0.54509,-0.452386 0.44672,-1.238632 -0.17985,-1.437497 -0.35012,-0.111126 -0.73243,-0.0072 -1.05833,0.28776 -0.54752,0.495499 -0.72213,0.168302 -0.19271,-0.361117 0.43746,-0.437459 1.66684,-0.39888 2.0513,0.06437 0.25303,0.304877 0.17447,0.624957 -0.38962,1.5875 -0.7737,1.320219 -0.94238,1.477411 -0.73519,0.685128 z m -0.71482,-0.670125 c -0.18699,-0.225315 -0.28046,-0.469194 -0.2077,-0.541955 0.0728,-0.07276 0.28529,0.05206 0.47228,0.277371 0.187,0.225315 0.28046,0.469194 0.2077,0.541955 -0.0728,0.07276 -0.28529,-0.05206 -0.47228,-0.277371 z m -44.71459,-2.487991 c 0,-0.103947 0.14883,-0.392411 0.33073,-0.641031 0.28151,-0.384765 0.8426,-0.454199 3.77032,-0.466569 4.46613,-0.01887 5.70097,0.35896 2.51182,0.768561 -3.02097,0.388001 -6.61287,0.572156 -6.61287,0.339039 z m 2.05052,-0.472518 c -0.25466,-0.06655 -0.67138,-0.06655 -0.92604,0 -0.25466,0.06655 -0.0463,0.121 0.46302,0.121 0.50933,0 0.71769,-0.05445 0.46302,-0.121 z m 32.21303,0.3773 c -2.0373,-0.122805 -3.74411,-0.336704 -3.79291,-0.475331 -0.0488,-0.138627 -0.19764,-0.184749 -0.33073,-0.102494 -0.1331,0.08225 -0.24199,0.04276 -0.24199,-0.08777 0,-0.13053 0.42258,-0.253214 0.93906,-0.272631 0.51649,-0.01942 1.05227,-0.105266 1.19063,-0.190776 0.13836,-0.08551 0.25156,0.03015 0.25156,0.257015 0,0.334344 0.31329,0.404064 1.65365,0.368012 l 1.65364,-0.04448 -1.5875,-0.164605 c -1.11477,-0.115588 -1.44918,-0.229125 -1.12299,-0.381274 0.60938,-0.284244 3.6846,-0.02882 4.42523,0.367549 0.69922,0.374209 0.68224,0.391004 0.9174,-0.907348 0.16859,-0.930857 0.14405,-1.005214 -0.22949,-0.695207 -0.23005,0.190925 -0.41827,0.570682 -0.41827,0.843906 0,0.273223 -0.1318,0.49677 -0.29289,0.49677 -0.17833,0 -0.21509,-0.181105 -0.094,-0.463021 0.1094,-0.254662 0.27096,-0.92958 0.35903,-1.499818 0.20792,-1.346214 0.70894,-1.498735 0.93661,-0.285124 0.18399,0.980758 -0.0472,3.256329 -0.34399,3.386356 -0.0923,0.04046 -1.83478,-0.02692 -3.87207,-0.149727 z m 2.1773,-0.619352 c -0.0879,-0.08792 -0.31613,-0.09732 -0.50712,-0.02089 -0.21107,0.08446 -0.14837,0.147156 0.15985,0.159852 0.27892,0.01149 0.43518,-0.05105 0.34727,-0.138964 z m -16.33251,-0.767487 c 0,-0.267548 1.57036,-3.311519 2.56086,-4.963956 0.0668,-0.111514 0.24508,-0.126397 0.39608,-0.03307 0.17528,0.108329 0.18121,0.22947 0.0164,0.335045 -0.40156,0.257218 -1.99381,2.952871 -1.83688,3.109802 0.0769,0.0769 0.45293,-0.394482 0.83563,-1.04751 0.3827,-0.653027 0.83968,-1.242788 1.01551,-1.31058 0.52959,-0.204183 1.60833,-2.30614 1.18353,-2.30614 -0.19836,0 -0.50482,-0.398682 -0.68102,-0.88596 -0.1762,-0.487278 -0.90323,-1.612224 -1.61562,-2.49988 -0.7124,-0.887657 -1.4411,-2.066553 -1.61935,-2.619769 -0.17825,-0.553217 -0.4371,-1.148513 -0.57523,-1.32288 -0.13812,-0.174367 -0.34412,-1.364992 -0.45779,-2.645833 -0.11366,-1.280841 -0.23095,-1.971615 -0.26064,-1.535052 -0.19714,2.898703 -0.39351,3.880904 -1.05796,5.291666 -0.41123,0.873125 -0.97589,1.825625 -1.2548,2.116667 -0.52012,0.542746 -2.20496,2.920988 -2.20496,3.112428 0,0.05867 0.1813,0.106669 0.4029,0.106669 0.2216,0 0.47541,-0.2889 0.56403,-0.642 0.0886,-0.353099 0.85836,-1.434584 1.71053,-2.403298 0.85567,-0.972691 1.48957,-1.924396 1.41578,-2.125564 -0.16016,-0.436621 0.36703,-1.145436 0.69924,-0.940124 0.12903,0.07975 0.2346,0.336611 0.2346,0.57081 0,0.234199 0.59156,1.236587 1.31457,2.227528 1.40422,1.92457 2.39515,3.693592 2.38079,4.250198 -0.005,0.193372 -0.22402,0.08328 -0.50543,-0.254043 -0.83248,-0.997907 -1.02386,-0.857315 -1.45285,1.067331 -0.0949,0.426012 -0.44001,0.862278 -0.81834,1.034657 -0.35978,0.163931 -0.65416,0.398006 -0.65416,0.520169 0,0.458311 -0.98806,0.198721 -1.55972,-0.409777 -0.37656,-0.400828 -0.78186,-0.582668 -1.10839,-0.49728 -0.36931,0.09658 -0.47356,0.02728 -0.36897,-0.245278 0.0802,-0.208939 0.03,-0.669772 -0.11159,-1.024074 -0.25375,-0.63514 -0.2576,-0.635826 -0.27414,-0.04887 -0.009,0.330161 -0.1842,0.595312 -0.39269,0.595312 -0.37816,0 0.19608,1.317779 1.32511,3.040904 0.31214,0.476392 0.37583,0.83936 0.21167,1.206317 -0.22907,0.51204 -0.24396,0.510198 -0.60805,-0.07523 -0.34192,-0.549759 -0.33637,-0.569647 0.0661,-0.236993 0.5452,0.450579 0.57495,0.04799 0.0475,-0.643285 -0.33917,-0.44454 -0.42755,-0.460232 -0.65741,-0.116716 -0.1843,0.275441 -0.2668,0.293871 -0.26961,0.06023 -0.002,-0.185153 -0.4803,-0.853311 -1.06239,-1.484797 -0.58208,-0.631486 -1.05833,-1.333279 -1.05833,-1.55954 0,-0.226261 -0.14883,-0.46343 -0.33073,-0.527041 -0.44004,-0.153886 0.82151,-2.545834 2.59049,-4.911654 1.64654,-2.202071 1.87658,-2.775333 2.24729,-5.600119 0.16232,-1.236927 0.35374,-2.427552 0.42538,-2.645833 0.2511,-0.765155 0.61878,0.405582 0.85296,2.715899 0.24963,2.46283 1.30429,5.00801 2.73285,6.595123 0.43339,0.48149 0.97063,1.232623 1.19386,1.669186 0.22323,0.436562 0.58085,0.993577 0.7947,1.23781 0.25304,0.288993 0.32163,0.658565 0.19643,1.058333 -0.50323,1.606755 -4.61781,6.63219 -4.61781,5.640059 z m 1.00723,-1.32862 c -0.0815,-0.08146 -0.2294,0.06538 -0.32876,0.326319 -0.14359,0.377084 -0.1132,0.407475 0.14811,0.148113 0.18082,-0.179476 0.26211,-0.39297 0.18065,-0.474432 z m -5.24057,-2.344005 c 0,-0.05613 -0.17786,-0.44308 -0.39524,-0.859896 -0.21739,-0.416816 -0.39598,-1.072531 -0.39688,-1.457145 -8.9e-4,-0.384613 -0.18022,-0.767829 -0.3985,-0.851591 -0.27236,-0.104516 -0.39688,0.01602 -0.39688,0.384182 0,0.295063 -0.11182,0.46737 -0.24848,0.382904 -0.13667,-0.08447 0.13122,0.441649 0.59531,1.169142 0.71303,1.117726 1.24067,1.641852 1.24067,1.232404 z m 3.86569,-0.894191 c 0.39434,-0.260896 1.1614,-1.784296 1.1614,-2.306572 0,-0.499616 -1.37921,-3.294556 -1.63076,-3.304696 -0.37941,-0.01529 -1.82634,2.268748 -1.71354,2.704903 0.0659,0.254661 0.0156,0.463021 -0.11175,0.463021 -0.39256,0 0.0526,0.883023 0.90039,1.785937 0.86369,0.919869 0.94185,0.956722 1.39426,0.657407 z m -0.93438,-1.010185 c 0.0127,-0.308224 0.0754,-0.370919 0.15985,-0.159852 0.0764,0.190996 0.067,0.419199 -0.0209,0.507118 -0.0879,0.08792 -0.15045,-0.06835 -0.13896,-0.347266 z m -18.62061,2.897677 c -0.0919,-0.09189 -0.0427,-0.399454 0.10928,-0.683468 0.20595,-0.384808 0.17941,-0.628762 -0.10413,-0.957399 -0.20927,-0.242556 -0.50825,-0.822294 -0.66439,-1.288307 -0.23964,-0.715218 -0.20255,-0.950707 0.23793,-1.510693 0.45163,-0.574154 0.61753,-0.627012 1.23323,-0.392922 1.31791,0.501067 1.51118,1.765033 0.45727,2.990501 -0.36363,0.422817 -0.66114,1.047895 -0.66114,1.389063 0,0.600295 -0.26411,0.79716 -0.60805,0.453225 z m 1.08733,-2.48906 c 0.31848,-0.296711 0.57906,-0.733273 0.57906,-0.970139 0,-0.236866 -0.0796,-0.351031 -0.17697,-0.253699 -0.0973,0.09733 -0.37777,-0.0048 -0.62319,-0.226865 -0.49468,-0.447676 -1.31651,-0.268989 -1.31651,0.286243 0,0.472643 0.56822,1.703933 0.78633,1.703933 0.0947,0 0.4328,-0.242763 0.75128,-0.539473 z m -0.42356,-0.359883 c 0.18764,-0.203604 0.38285,-0.330588 0.4338,-0.282186 0.15694,0.149082 -0.24081,0.652376 -0.51556,0.652376 -0.14267,0 -0.10588,-0.166585 0.0818,-0.37019 z m 9.64113,2.097638 c -0.15286,-0.398337 0.4571,-1.198282 0.91369,-1.198282 0.42778,0 0.58048,0.777216 0.23458,1.193995 -0.41708,0.502553 -0.9563,0.504566 -1.14827,0.0043 z m 0.88649,-0.256625 c 0,-0.279261 -0.50777,-0.396587 -0.65879,-0.152222 -0.0914,0.147894 0.0194,0.268899 0.2463,0.268899 0.22687,0 0.41249,-0.05251 0.41249,-0.116677 z m 15.56008,0.217352 c -0.0798,-0.30531 0.0705,-0.791461 0.35242,-1.139622 0.27042,-0.333947 0.49166,-0.542766 0.49166,-0.464043 0,0.07872 0.35742,0.04063 0.79425,-0.08465 0.66011,-0.189317 0.84195,-0.138656 1.0767,0.299965 0.20174,0.376965 0.19917,0.628092 -0.009,0.878935 -0.37045,0.446364 -1.83184,0.671497 -2.05152,0.316045 -0.093,-0.15042 -0.24322,-0.04972 -0.34077,0.228383 -0.16647,0.474561 -0.1809,0.472951 -0.31373,-0.03501 z m 2.62462,-0.960571 c -0.1252,-0.358053 -0.96375,-0.304049 -1.37043,0.08826 -0.15416,0.14871 0.0846,0.242471 0.61736,0.242471 0.58026,0 0.83032,-0.109818 0.75307,-0.330729 z m 7.526,-0.281636 c -0.71831,-0.764603 -0.72436,-1.243427 -0.0269,-2.130078 0.64196,-0.816115 1.31146,-0.890326 1.92417,-0.213286 0.55029,0.608065 0.56123,1.603557 0.026,2.367691 -0.52909,0.755378 -1.19871,0.746908 -1.92325,-0.02433 z m 1.9149,-0.771256 c 0.19947,-0.567175 0.15057,-0.829284 -0.23397,-1.2542 -0.62943,-0.695507 -0.82938,-0.677161 -1.3545,0.124279 -0.40221,0.61385 -0.40145,0.710233 0.0106,1.339101 0.54883,0.837628 1.24205,0.745729 1.57787,-0.20918 z m -33.44644,0.589871 c 0,-0.145521 0.11907,-0.264583 0.26459,-0.264583 0.14552,0 0.26458,0.119062 0.26458,0.264583 0,0.145521 -0.11906,0.264583 -0.26458,0.264583 -0.14552,0 -0.26459,-0.119062 -0.26459,-0.264583 z m 26.45834,-0.132292 c 0,-0.272509 0.1734,-0.40228 0.46302,-0.346506 0.5577,0.107404 0.52253,0.576973 -0.0522,0.696636 -0.23971,0.04991 -0.41085,-0.09594 -0.41085,-0.35013 z m -22.95261,-0.319704 c -0.1819,-0.0667 -0.33073,-0.28994 -0.33073,-0.496094 0,-0.260909 0.32165,-0.374827 1.05834,-0.374827 0.58208,0 1.05833,0.119063 1.05833,0.264584 0,0.145521 -0.21431,0.264583 -0.47625,0.264583 -0.26194,0 -0.58936,0.10418 -0.7276,0.231511 -0.13825,0.12733 -0.40019,0.17694 -0.58209,0.110243 z m 21.1414,-3.63255 c 0.0503,-0.242727 0.21048,-0.435033 0.356,-0.427346 0.39272,0.02074 0.32057,0.612674 -0.0914,0.750003 -0.22254,0.07418 -0.32173,-0.04677 -0.26458,-0.322657 z m -21.20754,-0.296694 c 0,-0.226869 0.11906,-0.338905 0.26458,-0.248968 0.14552,0.08994 0.26458,0.275557 0.26458,0.41249 0,0.136932 -0.11906,0.248968 -0.26458,0.248968 -0.14552,0 -0.26458,-0.18562 -0.26458,-0.41249 z m 3.76435,-1.577825 c -0.87335,-1.061494 -1.02198,-1.846143 -0.3497,-1.846143 0.60458,0 1.39906,1.302484 1.30318,2.136443 l -0.0876,0.762093 z m 0.31887,-0.939787 c -0.74441,-0.82257 -0.93327,-0.584739 -0.30073,0.378716 0.37252,0.56741 0.6154,0.751417 0.67247,0.509481 0.0491,-0.208294 -0.11815,-0.607983 -0.37174,-0.888197 z m 12.16542,0.161427 c 0.71703,-0.931019 1.57645,-1.241215 1.43632,-0.518423 -0.0496,0.255818 -0.26876,0.524117 -0.48705,0.596221 -0.35277,0.116531 -0.35277,0.07487 0,-0.37495 0.36531,-0.465789 0.36072,-0.477718 -0.0577,-0.149942 -0.25001,0.195858 -0.44427,0.433983 -0.43169,0.529167 0.0679,0.51365 -0.093,0.721126 -0.55915,0.721126 -0.49428,0 -0.48949,-0.03876 0.0992,-0.803199 z m -6.17359,-2.677332 c 0.0127,-0.308224 0.0754,-0.370919 0.15985,-0.159852 0.0764,0.190996 0.067,0.419199 -0.0209,0.507118 -0.0879,0.08792 -0.15046,-0.06835 -0.13897,-0.347266 z m 3.94786,0.05967 c 0,-0.446613 0.71125,-0.782031 0.92498,-0.436211 0.0815,0.131864 -0.0933,0.368979 -0.3884,0.526921 -0.42262,0.226182 -0.53658,0.206918 -0.53658,-0.09071 z"
       id="path10" /></g></svg>
