<?xml version="1.0" encoding="UTF-8" standalone="no"?>
<!-- Created with Inkscape (http://www.inkscape.org/) -->

<svg
   width="62.792416mm"
   height="70.329468mm"
   viewBox="0 0 62.792416 70.329468"
   version="1.1"
   id="svg1"
   xml:space="preserve"
   xmlns="http://www.w3.org/2000/svg"
   xmlns:svg="http://www.w3.org/2000/svg"><defs
     id="defs1" /><g
     id="layer1"
     transform="translate(-76.541307,-119.52752)"><path
       style="fill:#000000"
       d="m 106.04236,189.35023 c -0.29104,-0.29104 -0.52917,-0.82682 -0.52917,-1.19062 0,-0.7945 0.85412,-1.7198 1.5875,-1.7198 1.40476,0 2.14042,2.22856 0.99946,3.02771 -0.79144,0.55435 -1.4221,0.5184 -2.05779,-0.11729 z m 0.70555,-4.93889 c -0.097,-0.097 -0.17638,-1.64482 -0.17638,-3.43958 v -3.2632 h -8.298699 c -7.994934,0 -8.324212,-0.0201 -8.995834,-0.54837 l -0.697139,-0.54837 v -4.35844 c 0,-4.27471 0.01248,-4.37093 0.649431,-5.00788 l 0.649432,-0.64943 h 17.968009 c 17.77713,0 17.97542,0.006 18.66516,0.54837 l 0.69714,0.54837 v 4.35844 c 0,4.27471 -0.0125,4.37093 -0.64944,5.00788 l -0.64943,0.64943 h -9.00786 -9.00786 v 3.12209 c 0,2.07551 -0.10643,3.22851 -0.3175,3.43958 -0.35969,0.35969 -0.57397,0.39616 -0.82903,0.14111 z m 19.00591,-12.25902 v -4.10105 H 107.89444 90.035066 l -0.07374,3.82429 c -0.04056,2.10336 -0.01421,3.97944 0.05856,4.16906 0.107255,0.2795 3.501712,0.33188 17.933114,0.27675 l 17.80082,-0.068 z m -5.62967,1.17562 c -0.82878,-0.5805 -0.79057,-1.82447 0.0734,-2.39058 0.61274,-0.40148 0.71017,-0.40148 1.32291,0 0.86399,0.56611 0.9022,1.81008 0.0734,2.39058 -0.32342,0.22653 -0.65411,0.41188 -0.73487,0.41188 -0.0808,0 -0.41146,-0.18535 -0.73488,-0.41188 z m -6.09137,-0.17021 c -0.5607,-0.56069 -0.37675,-1.74815 0.34395,-2.22037 0.61275,-0.40148 0.71018,-0.40148 1.32292,0 0.44271,0.29007 0.66146,0.67639 0.66146,1.16814 0,0.91904 -0.43528,1.36973 -1.32292,1.36973 -0.37835,0 -0.83079,-0.14287 -1.00541,-0.3175 z M 79.857507,164.887 c -0.28762,-0.34657 -1.16566,-3.79401 -1.46721,-5.76073 -0.12863,-0.83891 -0.27913,-1.02059 -1.0002,-1.20744 -1.09382,-0.28344 -1.08823,-0.89158 0.0111,-1.20687 0.83075,-0.23825 0.8599,-0.29408 0.8599,-1.64678 0,-1.38628 -0.009,-1.40099 -0.8599,-1.48308 -0.65587,-0.0632 -0.85989,-0.20846 -0.85989,-0.61208 0,-0.4035 0.204,-0.54884 0.85904,-0.61201 0.9312,-0.0898 0.968,-0.16569 1.24284,-2.56299 0.24704,-2.15471 1.18119,-4.67431 1.69477,-4.57112 0.53274,0.10704 0.52506,0.82711 -0.0318,2.98362 -0.22545,0.87313 -0.47689,2.14575 -0.55875,2.82805 -0.14872,1.23959 -0.14817,1.24062 0.70378,1.32292 0.64876,0.0627 0.85261,0.20888 0.85261,0.61153 0,0.40362 -0.20403,0.54884 -0.8599,0.61208 -0.85452,0.0824 -0.85989,0.0919 -0.85989,1.52135 0,1.31414 0.0515,1.4388 0.59531,1.4425 0.8451,0.006 1.36129,0.40029 1.17134,0.89529 -0.0996,0.25948 -0.47327,0.42358 -0.9646,0.42358 -0.44113,0 -0.80205,0.11484 -0.80205,0.2552 0,0.23959 0.94942,5.03646 1.23818,6.25583 0.15866,0.66999 -0.53003,1.03489 -0.9647,0.51115 z m 55.309773,0.13439 c -0.29652,-0.18326 -0.26263,-0.62591 0.19636,-2.56455 0.3051,-1.28869 0.62965,-2.84908 0.72123,-3.46755 0.16594,-1.12064 0.16366,-1.12447 -0.66891,-1.12447 -0.71501,0 -0.82322,-0.0858 -0.75086,-0.59532 0.0605,-0.42624 0.29119,-0.61909 0.81216,-0.67903 0.6942,-0.0799 0.7276,-0.14971 0.7276,-1.52135 0,-1.33735 -0.0439,-1.43764 -0.62906,-1.43764 -0.70475,0 -1.35919,-0.62395 -1.09789,-1.04674 0.0939,-0.1519 0.53436,-0.27617 0.97886,-0.27617 h 0.80817 l -0.18277,-1.21885 c -0.10053,-0.67037 -0.41785,-2.11631 -0.70515,-3.2132 -0.54376,-2.07599 -0.51175,-2.7117 0.13651,-2.7117 0.57529,0 1.99153,4.88815 2.01225,6.94531 0.001,0.10914 0.36292,0.19844 0.80405,0.19844 0.49133,0 0.86502,0.16409 0.9646,0.42357 0.18995,0.495 -0.32624,0.88954 -1.17134,0.89529 -0.54471,0.004 -0.59531,0.12775 -0.59531,1.45926 0,1.33152 0.0506,1.45555 0.59531,1.45926 0.8451,0.006 1.36129,0.40029 1.17134,0.89529 -0.098,0.25536 -0.4712,0.42358 -0.93977,0.42358 -0.73876,0 -0.78598,0.0688 -0.95412,1.38906 -0.25155,1.97538 -1.19069,5.42117 -1.56137,5.7288 -0.17647,0.14646 -0.47017,0.16338 -0.67189,0.0387 z m -46.012135,-1.68352 c -0.542764,-0.57775 -0.575287,-0.85963 -0.575287,-4.98608 0,-4.01703 0.04255,-4.41222 0.521772,-4.84591 0.556433,-0.50356 -0.903475,-0.48417 31.29438,-0.41579 7.38081,0.0157 6.81302,-0.42735 6.81302,5.31592 0,4.15464 -0.0139,4.25924 -0.64944,4.89479 l -0.64943,0.64943 H 107.8203 89.730432 Z m 36.671715,-4.87774 0.073,-4.0349 H 107.90134 89.902777 v 3.92466 c 0,2.15855 0.08021,4.00485 0.178237,4.10288 0.09803,0.098 8.164514,0.14764 17.925526,0.11025 l 17.74728,-0.068 z m -11.69581,1.10558 c -0.22868,-0.22868 -0.41577,-0.76027 -0.41577,-1.18132 0,-1.42661 1.89788,-1.77699 2.62125,-0.48392 0.34944,0.62466 0.34285,0.76904 -0.0634,1.38907 -0.51793,0.79046 -1.50104,0.91721 -2.14208,0.27617 z m 5.86808,0.13 c -0.53888,-0.31387 -0.6338,-1.81886 -0.14552,-2.30714 0.17462,-0.17463 0.62706,-0.3175 1.00542,-0.3175 0.88409,0 1.32291,0.4501 1.32291,1.35693 0,1.26915 -1.09174,1.9032 -2.18281,1.26771 z M 89.158915,149.65243 c -0.550512,-0.51288 -0.579057,-0.75477 -0.579057,-4.90682 0,-4.28416 0.01237,-4.37972 0.649431,-5.01678 l 0.649432,-0.64943 h 18.015719 18.01572 l 0.64943,0.64943 c 0.63707,0.63706 0.64944,0.73262 0.64944,5.01678 0,4.15205 -0.0285,4.39394 -0.57906,4.90682 -0.57108,0.53204 -0.82915,0.53947 -18.73553,0.53947 -17.906378,0 -18.164445,-0.007 -18.735525,-0.53947 z m 36.667745,-4.91375 0.0728,-3.99802 -1.23425,-0.16917 c -1.612,-0.22095 -28.835989,-0.21723 -32.182786,0.004 l -2.579688,0.17083 v 4.06298 4.06299 l 17.925524,-0.068 17.92552,-0.068 z m -11.6735,1.00062 c -0.55185,-0.60979 -0.56132,-1.47158 -0.0221,-2.01079 0.90016,-0.90016 2.23006,-0.28029 2.23006,1.03943 0,1.35842 -1.32867,1.94295 -2.20795,0.97136 z m 5.79872,0.0681 c -0.66906,-0.66907 -0.53383,-1.92303 0.24569,-2.27821 1.07505,-0.48982 1.98437,0.071 1.98437,1.22379 0,1.33432 -1.3241,1.96038 -2.23006,1.05442 z m -35.469683,-8.5746 c -0.27582,-0.44628 0.29155,-1.17147 2.71323,-3.46797 2.283428,-2.16537 6.53233,-5.00416 7.489898,-5.00416 0.248876,0 0.520943,0.17836 0.604595,0.39635 0.158032,0.41183 -0.0057,0.54153 -2.344437,1.8567 -1.941987,1.09208 -4.124137,2.82528 -6.000366,4.76587 -1.61676,1.67221 -2.13763,1.97955 -2.46292,1.45321 z m 44.369163,-1.29006 c -1.80244,-2.07232 -4.79747,-4.29718 -7.58574,-5.63508 -2.1584,-1.03568 -2.73211,-1.64651 -1.86056,-1.98095 0.51143,-0.19626 3.85046,1.38841 6.00244,2.84868 2.11537,1.43543 5.8266,5.16718 5.71502,5.74661 -0.17082,0.88699 -0.93424,0.55782 -2.27116,-0.97926 z m -22.10345,1.10821 c -0.097,-0.097 -0.17638,-0.99372 -0.17638,-1.99268 0,-1.4213 0.0921,-1.85164 0.42357,-1.97883 0.61862,-0.23739 0.89071,0.38394 0.89529,2.04446 0.005,1.62656 -0.53425,2.53527 -1.14248,1.92705 z m -2.09461,-9.46691 c -1.27331,-1.36182 -2.31511,-2.61698 -2.31511,-2.78926 0,-0.42628 4.50794,-5.30148 4.87029,-5.26708 0.39753,0.0378 4.787,4.79105 4.787,5.18378 0,0.3443 -4.55325,5.37956 -4.84721,5.36035 -0.0989,-0.006 -1.22167,-1.12597 -2.49497,-2.48779 z m 4.09337,-0.86561 c 0.84096,-0.83219 1.52902,-1.64534 1.52902,-1.80699 0,-0.3458 -2.85739,-3.5591 -3.16489,-3.5591 -0.11554,0 -0.89411,0.77914 -1.73017,1.73142 l -1.5201,1.73142 1.55393,1.67715 c 0.85467,0.92244 1.61002,1.69111 1.67856,1.70817 0.0685,0.0171 0.81268,-0.64988 1.65365,-1.48207 z"
       id="path8" /></g></svg>
