<?xml version="1.0" encoding="UTF-8" standalone="no"?>
<!-- Created with Inkscape (http://www.inkscape.org/) -->

<svg
   width="69.983803mm"
   height="74.045067mm"
   viewBox="0 0 69.983803 74.045067"
   version="1.1"
   id="svg1"
   xml:space="preserve"
   xmlns="http://www.w3.org/2000/svg"
   xmlns:svg="http://www.w3.org/2000/svg"><defs
     id="defs1" /><g
     id="layer1"
     transform="translate(-114.6797,-15.328393)"><path
       style="fill:#000000"
       d="m 149.23778,89.002102 c -0.19505,-0.508288 0.0912,-1.508662 0.38055,-1.329846 0.30672,0.189566 0.30515,1.701201 -0.002,1.701201 -0.12995,0 -0.3004,-0.16711 -0.37878,-0.371355 z m -0.61669,-2.134565 c -1.09307,-0.765613 -0.85434,-2.358691 0.45876,-3.061442 0.43176,-0.231072 0.65974,-0.142834 1.30934,0.506767 0.95632,0.956318 0.98559,1.446037 0.13713,2.294497 -0.74976,0.749756 -1.13178,0.801925 -1.90523,0.260178 z m -2.07555,-6.136435 c -2.30712,-0.280205 -6.1159,-1.340928 -8.37189,-2.331524 -6.15893,-2.704355 -11.02963,-7.44632 -14.13835,-13.764661 -3.87276,-7.871217 -3.93274,-16.158029 -0.17423,-24.069064 4.26111,-8.968901 12.79237,-15.185734 22.4061,-16.32759 l 2.79191,-0.331605 -0.004,-1.463995 c -0.005,-2.107738 -0.19396,-2.610674 -1.01551,-2.705791 -1.00286,-0.116107 -0.98103,-1.107194 0.0269,-1.223173 0.67757,-0.07796 0.72788,-0.16892 0.73165,-1.322917 0.005,-1.443966 0.30042,-2.043495 0.89529,-1.815221 0.31457,0.120714 0.42358,0.523011 0.42358,1.563314 0,1.1843 0.0893,1.441133 0.57819,1.661949 0.84239,0.380517 0.88692,0.881669 0.10477,1.179043 -0.64926,0.246848 -0.68296,0.356233 -0.68296,2.216422 v 1.956759 l 2.16033,0.188448 c 6.46855,0.564259 12.72285,3.546222 17.42808,8.309461 3.7681,3.814567 6.2183,8.070159 7.58474,13.173464 0.60929,2.275537 0.69888,3.12683 0.70587,6.707371 0.007,3.578236 -0.0803,4.444368 -0.68479,6.794193 -2.45561,9.545778 -9.65028,17.310931 -18.8093,20.300737 -3.47184,1.133323 -8.68377,1.701898 -11.95681,1.30438 z m 6.35,-1.432647 c 2.80659,-0.334643 7.23782,-1.74028 9.65729,-3.063404 7.00232,-3.829316 11.78551,-10.214279 13.66467,-18.240645 0.77276,-3.300659 0.65317,-8.71186 -0.2684,-12.144905 -2.61077,-9.725568 -9.89208,-17.010874 -19.61623,-19.626979 -2.31753,-0.62349 -3.14938,-0.712709 -6.74462,-0.723378 -3.68337,-0.01093 -4.35897,0.06094 -6.63363,0.705695 -5.1793,1.468077 -9.11791,3.800905 -12.70111,7.522832 -3.55581,3.693467 -5.82872,7.809727 -7.14151,12.933318 -0.83394,3.254722 -0.85575,8.258895 -0.0501,11.491636 2.46304,9.88292 9.37815,17.29565 18.85765,20.214687 3.66511,1.128601 6.96914,1.408897 10.97597,0.931143 z m -4.36562,-3.683331 c -0.87746,-0.877461 -0.67596,-2.015728 0.46302,-2.615533 0.69238,-0.364618 1.48038,-0.05467 1.91216,0.75212 0.39976,0.746952 0.33933,1.025034 -0.37878,1.743148 -0.78782,0.787816 -1.29811,0.818557 -1.9964,0.120265 z m -15.01511,-8.907638 c -0.2552,-0.102082 -0.33072,-2.121076 -0.33072,-8.841493 0,-7.878125 -0.0412,-8.709201 -0.4318,-8.709201 -0.77935,0 -2.26774,-1.122238 -2.62619,-1.980134 -0.39566,-0.946935 -0.29185,-6.946693 0.12744,-7.365985 0.59728,-0.59728 0.81388,0.234862 0.81388,3.126802 0,3.460422 0.19814,4.182468 1.30481,4.754748 l 0.79838,0.412859 0.0729,-4.170499 c 0.0694,-3.969816 0.0983,-4.170499 0.60204,-4.170499 0.50371,0 0.53268,0.200683 0.60205,4.170499 l 0.0729,4.170499 0.77024,-0.398305 c 0.42363,-0.219067 0.86708,-0.54798 0.98545,-0.730915 0.11837,-0.182936 0.27475,-1.880424 0.34751,-3.772194 0.12381,-3.219097 0.16621,-3.439584 0.66146,-3.439584 0.5043,0 0.52916,0.176389 0.52916,3.753595 v 3.753595 l -0.78381,0.817467 c -0.43109,0.449607 -1.14547,0.911117 -1.5875,1.025577 l -0.80369,0.20811 -0.13229,8.692682 c -0.0831,5.463286 -0.23058,8.717199 -0.39687,8.758675 -0.14552,0.0363 -0.41341,0.0065 -0.59532,-0.0663 z m 32.38941,0 c -0.097,-0.09701 -0.17639,-2.462181 -0.17639,-5.255926 v -5.079537 l -1.25441,-0.645541 c -0.87128,-0.44838 -1.49755,-1.038432 -2.05052,-1.931929 -0.73354,-1.185287 -0.80309,-1.509406 -0.8849,-4.124012 -0.0626,-1.999367 0.0376,-3.334597 0.33894,-4.519957 0.70361,-2.767377 2.69943,-5.229299 4.32788,-5.3386 l 0.71364,-0.0479 0.0686,13.199056 c 0.0669,12.869708 0.0127,13.920735 -0.7184,13.920735 -0.10344,0 -0.26746,-0.07937 -0.36447,-0.176389 z M 165.599,54.11773 c 0.0802,-0.327422 0.11225,-3.33375 0.0712,-6.680729 l -0.0746,-6.085417 -0.70533,0.742205 c -1.36828,1.439815 -1.88047,2.977725 -2.01526,6.050972 -0.15458,3.524782 0.023,4.4882 1.04126,5.647896 0.93446,1.064287 1.47608,1.168914 1.6828,0.325073 z m -18.19464,7.997171 c -2.78352,-0.701406 -5.22024,-2.762968 -6.50492,-5.503435 -0.58959,-1.257714 -0.7039,-1.867658 -0.7039,-3.756071 0,-2.014917 0.0926,-2.442612 0.87128,-4.024332 1.6658,-3.383734 4.76051,-5.315236 8.5266,-5.321717 2.46073,-0.0042 4.37447,0.787297 6.33316,2.619427 3.10629,2.905573 3.85832,7.359849 1.88625,11.172286 -0.75448,1.458587 -2.86345,3.37918 -4.56065,4.153295 -1.67472,0.763858 -4.27308,1.057359 -5.84782,0.660547 z m 3.85237,-1.42158 c 2.83583,-0.667253 5.12516,-2.783862 6.00665,-5.553472 0.46242,-1.452921 0.21622,-4.532679 -0.46772,-5.850765 -0.74747,-1.440511 -2.59132,-3.169862 -4.03241,-3.782 -2.08192,-0.884348 -3.54772,-0.964871 -5.59293,-0.307247 -6.89484,2.216987 -7.82526,11.232067 -1.51375,14.667216 1.26921,0.690795 2.51398,1.085033 3.6671,1.161429 0.21828,0.01446 1.08816,-0.136361 1.93306,-0.335161 z m -2.51037,-28.602153 c -0.27803,-0.610213 -0.43939,-0.661458 -2.08269,-0.661458 -1.24523,0 -1.82227,-0.106752 -1.91742,-0.354723 -0.33439,-0.871398 0.21449,-0.996128 4.43139,-1.007007 4.20608,-0.01085 4.86973,0.12713 4.55509,0.94707 -0.11969,0.311908 -0.54745,0.41466 -1.72624,0.41466 -1.45094,0 -1.57943,0.04904 -1.73314,0.661458 -0.10794,0.43006 -0.35135,0.661458 -0.69581,0.661458 -0.30836,0 -0.65577,-0.276466 -0.83118,-0.661458 z m -33.64523,21.608853 c -0.5812,-0.64222 -0.55691,-1.97224 0.046,-2.517847 0.64222,-0.581201 1.97224,-0.556916 2.51784,0.04597 0.5812,0.642219 0.55692,1.972239 -0.046,2.517846 -0.64222,0.581201 -1.97224,0.556917 -2.51785,-0.04597 z m 1.67879,-1.19184 c 0,-0.194028 -0.0783,-0.43112 -0.17409,-0.526871 -0.23928,-0.239271 -0.91349,0.353699 -0.73342,0.645045 0.22545,0.364791 0.90751,0.275976 0.90751,-0.118174 z m 64.83851,1.162128 c -1.10445,-1.10445 -0.30235,-2.926017 1.28842,-2.926017 1.46258,0 2.25692,1.471498 1.40972,2.611483 -0.67822,0.912617 -1.95161,1.061061 -2.69814,0.314534 z m 1.83649,-1.206225 c 0,-0.220486 -0.23519,-0.396875 -0.52917,-0.396875 -0.52711,0 -0.68821,0.281925 -0.35278,0.617361 0.32225,0.322244 0.88195,0.182319 0.88195,-0.220486 z"
       id="path2" /></g></svg>
