<?xml version="1.0" encoding="UTF-8" standalone="no"?>
<!-- Created with Inkscape (http://www.inkscape.org/) -->

<svg
   width="67.699844mm"
   height="63.809185mm"
   viewBox="0 0 67.699844 63.809185"
   version="1.1"
   id="svg1"
   xml:space="preserve"
   xmlns="http://www.w3.org/2000/svg"
   xmlns:svg="http://www.w3.org/2000/svg"><defs
     id="defs1" /><g
     id="layer1"
     transform="translate(-91.519091,-197.87874)"><path
       style="fill:#000000"
       d="m 124.98191,261.35965 c -0.54813,-0.40081 -0.47069,-1.35172 0.11353,-1.39402 0.23015,-0.0167 0.25638,0.0176 0.0631,0.0825 -0.46894,0.15742 -0.41201,1.13056 0.0661,1.13056 0.21828,0 0.39687,0.11906 0.39687,0.26458 0,0.34319 -0.0681,0.33428 -0.63966,-0.0836 z m 1.16883,-0.19657 c 0,-0.15411 0.11906,-0.20661 0.26458,-0.11667 0.14552,0.0899 0.26458,0.21602 0.26458,0.28019 0,0.0642 -0.11906,0.11668 -0.26458,0.11668 -0.14552,0 -0.26458,-0.12609 -0.26458,-0.2802 z m -8.41395,-0.52511 c -1.34105,-0.29434 -1.28133,-0.4718 0.10615,-0.31541 0.8351,0.0941 1.18676,0.0486 1.07103,-0.13864 -0.10806,-0.17486 0.029,-0.22614 0.36773,-0.13757 0.6016,0.15732 0.60011,0.16281 -0.14242,0.52511 -0.29104,0.14201 -0.92216,0.17194 -1.40249,0.0665 z m 8.56609,-0.28286 c -0.37629,-0.36891 -0.41084,-0.49827 -0.13229,-0.49528 0.6316,0.007 1.19655,0.47479 0.90398,0.74885 -0.16462,0.15419 -0.45214,0.0597 -0.77169,-0.25357 z m 4.87494,0.0119 c 0,-0.24904 1.26862,-0.65371 1.45743,-0.4649 0.0604,0.0604 -0.24277,0.24298 -0.67378,0.40566 -0.43101,0.16269 -0.78365,0.18935 -0.78365,0.0592 z m 2.60817,-0.13363 c 1.4864,-0.39985 2.94808,-1.14008 2.94808,-1.49297 0,-0.27774 -0.19856,-0.26149 -0.81114,0.0664 -0.28148,0.15064 -0.5079,0.1804 -0.50316,0.0661 0.005,-0.11426 0.42223,-0.40143 0.92776,-0.63815 l 0.91914,-0.43041 -0.0571,0.74982 c -0.0314,0.41239 -0.11183,0.69511 -0.17868,0.62826 -0.0668,-0.0668 -0.3098,0.0388 -0.53989,0.23486 -0.63002,0.53674 -2.58311,1.23453 -3.40026,1.21483 -0.49857,-0.012 -0.28323,-0.13551 0.69529,-0.39874 z M 114.8398,259.5941 c -0.81811,-0.49881 -1.17878,-1.32581 -0.57822,-1.32581 0.15493,0 0.83954,0.22826 1.52136,0.50724 0.68182,0.27899 1.59686,0.59132 2.03342,0.69408 0.43656,0.10276 0.65345,0.23877 0.48197,0.30224 -0.17149,0.0635 -1.16033,-0.17969 -2.19743,-0.54036 -1.3697,-0.47633 -1.7961,-0.54788 -1.55841,-0.26147 0.17998,0.21685 0.69257,0.55468 1.13909,0.75073 0.44653,0.19605 0.63327,0.36572 0.41499,0.37705 -0.21828,0.0113 -0.78383,-0.21534 -1.25677,-0.5037 z m 18.98385,-0.11478 c 0.36381,-0.21919 0.84006,-0.39913 1.05834,-0.39986 0.35277,-10e-4 0.35277,0.0236 0,0.2232 -0.21828,0.12349 -0.69453,0.30343 -1.05834,0.39987 l -0.66145,0.17533 z m -8.50892,-0.81232 c -0.075,-0.075 -0.60212,-0.18816 -1.17149,-0.25157 -1.68853,-0.18807 -4.9413,-0.88098 -6.29817,-1.34165 -0.69541,-0.2361 -1.49238,-0.44645 -1.77103,-0.46744 -0.27865,-0.021 -0.50664,-0.13189 -0.50664,-0.24644 0,-0.11456 -0.14882,-0.20854 -0.33073,-0.20885 -0.37822,-6.5e-4 -3.33,-1.51837 -3.80647,-1.95718 -0.17392,-0.16016 -1.44902,-1.11968 -2.83356,-2.13225 -1.38455,-1.01257 -2.46279,-1.92933 -2.39609,-2.03724 0.0667,-0.10792 -0.14247,-0.33735 -0.4648,-0.50986 -0.32233,-0.1725 -0.77681,-0.5059 -1.00997,-0.74088 -0.47865,-0.48239 -1.97133,-2.72071 -1.98303,-2.9736 -0.004,-0.0908 -0.41971,-0.80107 -0.92336,-1.57833 -0.50365,-0.77726 -1.31512,-2.60795 -1.80327,-4.06821 -0.884618,-2.64625 -1.745128,-6.64721 -1.511088,-7.0259 0.0678,-0.10964 -0.0595,-0.35098 -0.28279,-0.53631 -0.2233,-0.18532 -0.34373,-0.49922 -0.26762,-0.69756 0.22273,-0.58044 -0.83941,0.0873 -1.19464,0.75109 -0.63248,1.18181 0.15037,6.24278 1.4977,9.68232 0.47028,1.20055 0.79942,2.18281 0.73142,2.18281 -0.23324,0 -1.68663,-3.4471 -2.06359,-4.89436 -0.20733,-0.79598 -0.51536,-2.63768 -0.68451,-4.09267 l -0.30755,-2.64543 0.69062,-0.82076 c 0.37984,-0.45141 0.63013,-0.91863 0.5562,-1.03825 -0.0739,-0.11963 0.11737,-0.15166 0.42513,-0.0712 0.49056,0.12828 0.52464,0.0811 0.2764,-0.38276 -0.15574,-0.291 -0.58399,-0.81443 -0.95167,-1.16319 -0.36768,-0.34876 -0.73758,-0.99129 -0.82199,-1.42786 -0.17967,-0.9292 0.29783,-5.09488 0.63337,-5.52555 0.31687,-0.40669 1.12338,-2.87245 0.98485,-3.01098 -0.1933,-0.1933 -1.33417,1.86025 -1.80271,3.24487 -0.24621,0.7276 -0.59542,2.14996 -0.77601,3.16079 -0.36251,2.02912 -1.28977,3.49732 -2.79742,4.42937 -1.22323,0.75621 -1.04899,0.22745 0.21264,-0.6453 1.4419,-0.99746 1.97818,-1.99219 2.36093,-4.37921 0.1796,-1.12007 0.39983,-2.15555 0.48941,-2.30107 0.0896,-0.14552 0.19819,-0.50271 0.24139,-0.79375 0.0432,-0.29104 0.31453,-0.85177 0.60297,-1.24606 0.28843,-0.39429 0.52443,-0.84332 0.52443,-0.99786 0,-0.33539 1.25722,-0.95268 1.48216,-0.72773 0.0864,0.0864 -0.0886,0.81354 -0.38884,1.61596 -0.77961,2.08369 -1.35791,4.75 -1.35791,6.2608 0,1.10325 0.10269,1.36768 0.67733,1.7442 1.00133,0.6561 1.37104,0.11123 1.54955,-2.28368 0.2779,-3.72849 2.944188,-9.23752 5.824128,-12.0337 1.92861,-1.87252 6.00609,-4.78413 8.01531,-5.7235 2.17636,-1.01752 5.7043,-2.08655 6.88586,-2.08655 0.54918,0 0.61184,-0.0995 0.50193,-0.79681 -0.0691,-0.43825 -0.55246,-1.57344 -1.07422,-2.52265 -0.52175,-0.94921 -0.94599,-1.81104 -0.94275,-1.91517 0.0119,-0.3822 1.09461,1.17775 1.88866,2.72108 1.24912,2.42782 3.16352,5.17146 3.47437,4.97934 0.16981,-0.10494 0.21379,-0.006 0.11348,0.25545 -0.12083,0.31488 -0.0512,0.3836 0.26555,0.26206 0.31648,-0.12145 0.38638,-0.0528 0.2659,0.26117 -0.0919,0.23959 0.0671,0.71908 0.36366,1.09603 l 0.52711,0.67011 -0.65914,0.16543 c -0.36254,0.091 -0.80338,0.0763 -0.97965,-0.0327 -0.20394,-0.12604 -0.25184,-0.087 -0.13172,0.10739 0.11187,0.181 0.0207,0.30546 -0.2237,0.30546 -0.24084,0 -0.41249,-0.22806 -0.41249,-0.54806 0,-0.30144 -0.1943,-0.74237 -0.43178,-0.97985 -0.39932,-0.39932 -0.41808,-0.38862 -0.24955,0.14237 0.15022,0.4733 0.0542,0.60629 -0.54648,0.75706 -0.4646,0.1166 -0.76572,0.0718 -0.83083,-0.12348 -0.14211,-0.42634 -0.73788,-0.38247 -1.20941,0.0891 -0.21749,0.21749 -0.61294,0.44053 -0.87879,0.49566 -1.88135,0.3901 -2.10953,0.51136 -2.4724,1.31383 -0.20836,0.46078 -0.37157,0.95685 -0.36268,1.10237 0.0335,0.54927 0.43184,1.18199 0.65661,1.04307 0.12861,-0.0795 0.15499,0.0609 0.0586,0.31204 -0.1349,0.35154 -0.0734,0.41556 0.26761,0.27832 0.24355,-0.098 0.64207,-0.25842 0.88562,-0.35645 0.32903,-0.13243 0.40184,-0.0714 0.28335,0.23731 -0.19104,0.49786 0.99968,0.75863 1.91608,0.41963 1.07473,-0.39756 6.81634,-1.07981 7.18289,-0.85351 0.0923,0.057 0.74716,0.12173 1.45521,0.14386 0.70805,0.0221 1.40643,0.10938 1.55195,0.1939 0.14552,0.0845 0.54314,0.16914 0.8836,0.18805 0.34046,0.0189 0.92045,0.37962 1.28887,0.80158 0.66269,0.759 0.66794,0.76013 0.49138,0.10574 -0.17588,-0.65186 -0.17162,-0.6509 0.29377,0.0661 0.25973,0.40018 0.67305,0.72761 0.91848,0.72761 0.76605,0 1.28311,-0.30362 1.28733,-0.75592 0.004,-0.37733 0.0379,-0.38233 0.26053,-0.0378 0.21027,0.32537 0.25721,0.29658 0.26053,-0.1598 0.002,-0.30617 0.30228,-0.87847 0.66679,-1.27178 0.52805,-0.56978 0.60754,-0.81822 0.39116,-1.22254 -0.31974,-0.59744 -1.87603,-1.88648 -2.21494,-1.83458 -0.12925,0.0198 -0.33761,-0.12301 -0.46302,-0.31734 -0.18594,-0.28812 -0.26895,-0.28998 -0.44981,-0.0101 -0.17666,0.27339 -0.29306,0.25738 -0.57196,-0.0787 -0.27724,-0.33406 -0.39418,-0.35071 -0.56151,-0.08 -0.16215,0.26237 -0.30498,0.21909 -0.61364,-0.18592 -0.32832,-0.43081 -0.44661,-0.46054 -0.64329,-0.16168 -0.16282,0.2474 -0.72232,0.35509 -1.72482,0.33198 -0.85151,-0.0196 -1.48382,0.0804 -1.48382,0.23479 0,0.14795 -0.29393,0.40293 -0.65316,0.56661 -0.35924,0.16368 -0.59543,0.39102 -0.52486,0.50521 0.0706,0.11418 -0.0111,0.29376 -0.18146,0.39906 -0.18845,0.11647 -0.23905,0.077 -0.1292,-0.10073 0.0993,-0.1607 -0.053,-0.41723 -0.3386,-0.57005 -0.73632,-0.39406 -0.81856,-0.35743 -0.81856,0.3647 0,0.83564 -0.75045,1.62324 -1.15817,1.21552 -0.21376,-0.21376 -0.19769,-0.35127 0.0596,-0.5103 0.20281,-0.12534 0.31679,-0.5555 0.26869,-1.01405 -0.0659,-0.628 0.0969,-0.94822 0.77004,-1.51461 0.46947,-0.39503 0.85358,-0.86448 0.85358,-1.04322 0,-0.17873 0.72385,-1.29528 1.60856,-2.48121 0.88471,-1.18593 1.53253,-2.27926 1.43959,-2.42963 -0.0929,-0.15036 -0.0535,-0.27339 0.0876,-0.27339 0.1411,0 0.92906,-1.06583 1.75103,-2.36851 0.82196,-1.30268 1.77244,-2.63604 2.11218,-2.96303 l 0.61771,-0.59452 -0.66987,-0.34753 c -1.35179,-0.70132 -4.32431,-0.93062 -9.97882,-0.76978 -3.0618,0.0871 -5.82493,0.18943 -6.14027,0.22742 -0.58579,0.0706 -1.18456,0.46595 -0.70565,0.46595 0.14542,0 0.66653,0.50602 1.15803,1.12448 0.95022,1.19568 0.43864,0.91661 -1.03122,-0.56255 -1.0488,-1.05542 -0.8954,-1.23808 1.28221,-1.52681 2.49785,-0.33119 13.26216,-0.10101 14.88509,0.3183 0.10914,0.0282 0.60603,0.0661 1.1042,0.0843 l 0.90576,0.0331 -0.39438,0.79056 c -0.21691,0.4348 -0.54514,0.88129 -0.72941,0.99218 -0.18426,0.1109 -0.99338,1.21367 -1.79803,2.45059 -2.3813,3.66059 -2.41808,3.7943 -1.05859,3.84883 1.38094,0.0554 3.38902,0.4224 3.76904,0.68884 0.27712,0.19429 0.12609,0.22384 -0.54182,0.10599 -0.50932,-0.0899 -1.64042,-0.22198 -2.51354,-0.2936 -1.2314,-0.101 -1.44846,-0.0692 -0.96766,0.14166 0.34091,0.14953 0.99269,0.33756 1.44838,0.41785 0.4557,0.0803 0.89115,0.23901 0.96766,0.35274 0.13628,0.20255 2.06394,0.80027 2.98752,0.92635 0.25693,0.0351 0.60817,0.20479 0.78052,0.37714 0.17235,0.17235 0.41496,0.31337 0.53912,0.31337 0.12416,0 1.03245,0.5266 2.01843,1.17023 6.23052,4.06718 9.96147,9.62182 11.0173,16.4026 0.42543,2.7322 0.58161,6.26601 0.32838,7.43029 -0.0633,0.29104 -0.26489,1.22702 -0.44797,2.07994 -0.71003,3.30789 -2.28281,7.1435 -3.48677,8.5034 -0.25767,0.29104 -0.44594,0.6077 -0.41837,0.7037 0.0276,0.096 -0.54519,0.8594 -1.27279,1.69646 -0.7276,0.83707 -1.29315,1.62173 -1.25677,1.7437 0.0364,0.12197 -0.025,0.19199 -0.13642,0.15561 -0.11142,-0.0364 -0.80603,0.52917 -1.54358,1.25677 -0.77828,0.76779 -2.34565,1.85099 -3.73516,2.58136 -1.3168,0.69214 -2.54068,1.43497 -2.71975,1.65073 -0.17906,0.21577 -0.44954,0.31568 -0.60106,0.22204 -0.15151,-0.0936 -0.19838,-0.0455 -0.10414,0.10698 0.20322,0.32881 -1.0399,0.69626 -1.46554,0.43319 -0.17738,-0.10962 -0.21869,-0.0605 -0.10451,0.1242 0.11299,0.18282 0.0169,0.30546 -0.23932,0.30546 -0.23546,0 -0.35452,-0.11906 -0.26458,-0.26458 0.20279,-0.32812 0.19928,-0.32803 -0.92779,0.0246 -1.53662,0.48077 -2.90867,0.71073 -2.90867,0.4875 0,-0.11582 -0.38423,-0.10039 -0.85383,0.0343 -1.07324,0.30781 -1.6381,0.13324 -2.00085,-0.61836 l -0.28451,-0.58949 -0.0179,0.586 c -0.029,0.94957 -0.72564,1.10622 -3.1929,0.71798 -3.67948,-0.57899 -7.322,-1.86265 -10.35993,-3.65095 -2.11307,-1.24387 -5.58104,-4.48486 -7.03531,-6.57485 -0.57922,-0.83243 -1.12896,-1.43766 -1.22165,-1.34497 -0.0927,0.0927 -0.16853,-0.0109 -0.16853,-0.23019 0,-0.21929 -0.35454,-1.1082 -0.78786,-1.97535 -1.28793,-2.57739 -2.40515,-7.80024 -2.41747,-11.30137 -0.0128,-3.62347 0.44383,-7.50495 1.10598,-9.40212 0.2737,-0.78421 0.43428,-1.52835 0.35684,-1.65365 -0.0774,-0.1253 0.0157,-0.22782 0.2071,-0.22782 0.19135,0 0.50574,-0.35658 0.69865,-0.7924 0.58312,-1.31736 3.4209,-4.62002 5.15702,-6.00183 2.0535,-1.63441 5.3686,-3.53872 7.51558,-4.31718 0.90716,-0.32893 1.78494,-0.76139 1.95063,-0.96103 0.16568,-0.19964 0.68062,-0.36298 1.14432,-0.36298 0.46369,0 1.07419,-0.1748 1.35666,-0.38846 0.48521,-0.36699 0.4652,-0.38892 -0.36192,-0.39687 -0.48153,-0.005 -0.80879,0.0995 -0.72724,0.23149 0.0816,0.13195 -0.0636,0.18451 -0.32252,0.11679 -0.25894,-0.0677 -1.36043,0.19372 -2.44776,0.58095 -6.41456,2.28445 -11.76255,6.70767 -14.51748,12.00716 -1.550378,2.98236 -2.200738,5.80652 -2.319898,10.07394 -0.11246,4.02756 0.13925,5.904 1.277658,9.525 1.27418,4.05282 3.06393,6.85757 6.62091,10.37577 2.55255,2.52472 7.53491,5.93498 8.34453,5.71154 0.11265,-0.0311 0.58585,0.14655 1.05157,0.39475 0.46571,0.2482 1.06698,0.45127 1.33614,0.45127 0.26917,0 0.6025,0.10554 0.74075,0.23452 0.46916,0.43774 5.17737,1.35299 6.95206,1.35145 1.4616,-0.001 4.06118,-0.31608 5.20554,-0.63041 0.14552,-0.04 0.80037,-0.21767 1.45521,-0.39488 0.65484,-0.17722 1.36922,-0.38356 1.5875,-0.45853 0.21828,-0.075 0.45641,-0.13808 0.52917,-0.14024 0.50192,-0.0149 4.6715,-2.44031 6.06723,-3.52919 7.01257,-5.47086 11.13069,-13.22464 11.13069,-20.95738 0,-3.19417 -1.01608,-7.94744 -2.25397,-10.54419 -0.8033,-1.68509 -2.67525,-4.64483 -3.79494,-6.00016 -1.97481,-2.39041 -5.36887,-5.08308 -8.17141,-6.48278 -1.3455,-0.67199 -2.39068,-1.27749 -2.32262,-1.34555 0.24439,-0.24438 4.69081,2.07682 6.19403,3.23352 1.46229,1.1252 4.08344,3.59789 4.67126,4.40667 0.15151,0.20847 0.76558,1.03388 1.3646,1.83424 2.14576,2.86703 4.31305,8.17709 4.31305,10.56739 0,0.98573 0.60339,1.60041 1.3844,1.41028 1.12318,-0.27342 1.52601,-0.86184 1.52601,-2.22909 0,-0.70505 -0.0893,-1.28288 -0.19844,-1.28406 -0.10914,-0.001 -0.21567,-0.68579 -0.23675,-1.52135 -0.0212,-0.84058 -0.28848,-2.14752 -0.59834,-2.92576 -0.30802,-0.77361 -0.44731,-1.33689 -0.30955,-1.25175 0.81264,0.50224 2.15076,6.67196 1.77327,8.17603 -0.1724,0.68687 -1.01734,1.65557 -1.89124,2.16823 -0.42516,0.24941 -0.34806,0.39497 0.75848,1.4321 1.13432,1.06317 1.23174,1.25487 1.23174,2.42376 0,1.52579 -1.15147,6.1585 -2.02426,8.14416 -0.34563,0.78635 -0.58039,1.47777 -0.52167,1.53649 0.0587,0.0587 0.45135,-0.40607 0.87251,-1.03286 1.49766,-2.22885 2.90324,-7.47139 2.65306,-9.8954 -0.14242,-1.37997 -0.12937,-1.42003 0.29557,-0.90692 0.44162,0.53324 0.45233,0.53064 1.60629,-0.39034 0.70649,-0.56385 0.99161,-0.92716 0.72761,-0.92716 -0.23876,0 -0.43411,0.12609 -0.43411,0.2802 0,0.15411 -0.12858,0.20073 -0.28573,0.10361 -0.15715,-0.0971 -0.4736,0.0916 -0.70322,0.41946 -0.40301,0.57538 -0.43003,0.5789 -0.77917,0.10143 -0.29706,-0.40626 -0.45083,-0.43895 -0.86075,-0.18295 -0.40634,0.25376 -0.52964,0.23202 -0.66357,-0.11699 -0.23195,-0.60447 0.32672,-1.11953 0.65357,-0.60255 0.19954,0.31561 0.25033,0.27542 0.25357,-0.20065 0.005,-0.67973 0.57459,-0.78619 1.06238,-0.19844 0.18116,0.21829 0.49758,0.39688 0.70317,0.39688 0.3047,0 0.31548,-0.11003 0.0584,-0.59531 -0.17349,-0.32743 -0.51617,-0.77391 -0.76153,-0.99219 -0.68939,-0.61332 -0.96529,-1.34106 -1.03596,-2.7325 -0.0774,-1.52361 -1.10679,-5.19847 -1.71716,-6.13002 -0.23874,-0.36436 -0.60993,-0.66248 -0.82485,-0.66248 -0.21493,0 -0.39078,-0.11651 -0.39078,-0.25891 0,-0.62451 1.35836,0.43079 1.83304,1.42408 0.68304,1.42931 1.60654,5.03067 1.60654,6.26501 0,1.05226 0.6818,1.96969 2.31511,3.11525 0.47294,0.3317 0.85776,0.68429 0.85514,0.78352 -0.003,0.0992 -0.60218,0.57111 -1.33236,1.0486 -1.5274,0.99884 -1.63286,1.2106 -2.20295,4.42349 -0.61293,3.45437 -1.67628,6.01258 -3.20516,7.71098 -0.70288,0.78081 -1.31285,1.38477 -1.35549,1.34212 -0.11462,-0.11462 0.5113,-1.78192 1.0396,-2.76925 0.25307,-0.47294 0.38295,-0.85989 0.28864,-0.85989 -0.0943,0 -0.0481,-0.14883 0.10262,-0.33073 0.38772,-0.46781 1.64277,-5.42109 1.64277,-6.48348 0,-1.31563 -0.69272,-2.49773 -1.40434,-2.39646 -0.41832,0.0595 -0.60438,0.29584 -0.66737,0.84758 -0.048,0.42078 0.0443,0.84639 0.20517,0.94582 0.39246,0.24255 -0.26175,1.81528 -0.69456,1.66971 -0.19655,-0.0661 -0.37894,0.36628 -0.49253,1.16764 -0.28425,2.00538 -3.03767,8.54867 -3.59727,8.54867 -0.12555,0 -0.22827,0.12428 -0.22827,0.27617 0,0.37213 -2.42179,3.29692 -3.85741,4.65857 -3.34374,3.17148 -7.41976,5.77217 -10.56238,6.7393 -1.10377,0.33968 -4.59307,1.06048 -5.58452,1.15362 -0.4521,0.0425 -1.05603,0.15149 -1.34205,0.24227 -0.28602,0.0908 -0.58136,0.10373 -0.65631,0.0288 z m 0.57142,-5.72278 c 0,-0.27322 0.11907,-0.49677 0.26459,-0.49677 0.14552,0 0.26458,0.12325 0.26458,0.27389 0,0.17549 0.16637,0.18805 0.46302,0.035 0.25466,-0.13141 1.11787,-0.38407 1.91823,-0.56148 2.70403,-0.59936 5.82083,-1.94102 5.82083,-2.50564 0,-0.0955 -2.05801,0.4697 -4.10104,1.12633 -1.01349,0.32574 -2.44851,0.52556 -3.96875,0.55264 -1.30969,0.0233 -2.42094,0.15664 -2.46944,0.29627 -0.11739,0.3379 -1.6316,0.32795 -1.6316,-0.0107 0,-0.14552 -0.0893,-0.2384 -0.19844,-0.20639 -0.44421,0.13028 -4.75523,-1.48135 -5.53859,-2.07055 -1.34502,-1.01164 -1.63564,-0.66998 -0.44386,0.52181 0.80985,0.80984 4.65148,2.09765 7.12505,2.38847 0.60399,0.071 1.70167,1.04874 1.70167,1.51572 0,0.20519 0.12267,0.19517 0.39688,-0.0324 0.21828,-0.18116 0.39687,-0.55292 0.39687,-0.82615 z m 13.3631,-3.51917 0.75422,-0.60139 -0.0552,-4.44401 c -0.0304,-2.44421 -0.11815,-4.54589 -0.1951,-4.6704 -0.27874,-0.45101 -0.58473,-0.2127 -0.43959,0.34235 0.0989,0.3783 -0.0197,0.69187 -0.35421,0.93649 -0.42328,0.30951 -0.44228,0.40524 -0.11998,0.60444 0.21062,0.13017 0.47794,0.17797 0.59402,0.10623 0.11609,-0.0717 0.20925,0.14446 0.20702,0.48047 -0.003,0.41705 -0.0725,0.50313 -0.21959,0.27124 -0.11854,-0.18683 -0.39557,-0.27061 -0.6156,-0.18617 -0.3101,0.119 -0.38894,-0.0334 -0.35061,-0.67767 0.0272,-0.45715 0.21674,-0.93709 0.42121,-1.06654 0.26392,-0.16709 0.27582,-0.23654 0.041,-0.23942 -0.1819,-0.002 -0.33869,-0.21241 -0.34843,-0.46707 -0.01,-0.25466 -0.1796,0.056 -0.37749,0.69034 -0.19788,0.63435 -0.30086,1.30691 -0.22884,1.49459 0.072,0.18768 0.004,0.41983 -0.15168,0.5159 -0.49013,0.30292 -0.39856,-1.79598 0.13804,-3.16385 0.17697,-0.45114 0.14792,-0.48074 -0.19703,-0.20073 -0.22254,0.18063 -0.47489,0.25815 -0.56078,0.17226 -0.0859,-0.0859 -0.0908,0.0937 -0.0109,0.39917 0.0835,0.31921 0.0196,0.55534 -0.15022,0.55534 -0.16249,0 -0.29544,0.40047 -0.29544,0.88993 0,0.48946 -0.12428,1.53126 -0.27617,2.3151 -0.47726,2.4629 0.47607,6.42721 1.56535,6.50926 0.25948,0.0195 0.81118,-0.23509 1.226,-0.56586 z m -2.51518,-3.49229 c 0,-0.58676 0.0613,-0.64301 0.39688,-0.36447 0.21828,0.18115 0.39687,0.49339 0.39687,0.69385 0,0.20046 -0.17859,0.36448 -0.39687,0.36448 -0.25189,0 -0.39688,-0.25348 -0.39688,-0.69386 z m 1.18238,-0.0117 c 0.0373,-0.33954 -0.0428,-0.61736 -0.178,-0.61736 -0.46122,0 -0.0945,-1.40553 0.38469,-1.47426 0.25466,-0.0365 0.46302,0.0421 0.46302,0.17476 0,0.13264 -0.1786,0.24117 -0.39688,0.24117 -0.21828,0 -0.39687,0.10792 -0.39687,0.23981 0,0.58033 1.03711,-0.0859 1.136,-0.72977 0.0824,-0.53618 0.11693,-0.46969 0.14727,0.28322 0.0327,0.81194 -0.0363,0.95476 -0.39468,0.81722 -0.36967,-0.14186 -0.40851,-0.029 -0.26087,0.75795 0.13145,0.7007 0.0833,0.92463 -0.19899,0.92463 -0.23317,0 -0.34711,-0.23089 -0.30469,-0.61737 z m -1.16149,-1.30086 c 0.0127,-0.30823 0.0754,-0.37092 0.15985,-0.15986 0.0764,0.191 0.067,0.4192 -0.0209,0.50712 -0.0879,0.0879 -0.15045,-0.0684 -0.13896,-0.34726 z m 0.81894,-1.32805 c 0.23712,-0.23712 0.55798,-0.38753 0.71304,-0.33426 0.15505,0.0533 -0.0389,0.24727 -0.43112,0.43111 -0.65897,0.30892 -0.68035,0.30158 -0.28192,-0.0969 z m -24.82501,5.42851 c 0.43671,-0.62349 0.43262,-0.83129 -0.20496,-10.41794 -0.23189,-3.48674 -0.53299,-6.4509 -0.66912,-6.58702 -0.13612,-0.13612 -0.1791,-0.58946 -0.0955,-1.00742 0.12252,-0.61261 0.0724,-0.72937 -0.25862,-0.60235 -0.4955,0.19014 -1.07462,-0.75299 -0.86877,-1.41482 0.0775,-0.24917 0.0314,-0.62763 -0.10249,-0.84103 -0.15327,-0.2443 -0.13903,-0.51378 0.0384,-0.72761 0.20001,-0.241 0.19832,-0.3396 -0.006,-0.3396 -0.42718,0 -0.85884,-0.95412 -0.6628,-1.465 0.15604,-0.40663 0.19142,-0.4081 0.41025,-0.0171 0.13171,0.23536 0.16648,0.54605 0.0772,0.69042 -0.0892,0.14437 -0.0361,0.26249 0.11798,0.26249 0.1541,0 0.28019,-0.36422 0.28019,-0.80937 0,-0.44515 0.0938,-0.75142 0.20836,-0.68059 0.11459,0.0708 0.18799,0.67316 0.16311,1.33853 -0.0249,0.66537 0.0599,1.20976 0.18852,1.20976 0.12857,0 0.23376,0.17859 0.23376,0.39688 0,0.21828 -0.13364,0.39687 -0.29698,0.39687 -0.20518,0 -0.19517,0.12267 0.0324,0.39688 0.22757,0.2742 0.23758,0.39687 0.0324,0.39687 -0.43302,0 -0.36336,0.44708 0.0972,0.62381 0.27021,0.10369 0.44982,-0.0746 0.57111,-0.567 0.0973,-0.39505 0.44212,-1.07546 0.76623,-1.51202 1.03579,-1.39518 1.78026,-3.13358 1.81074,-4.22826 0.0493,-1.77026 -0.38058,-5.80914 -0.64683,-6.07726 -0.13728,-0.13824 -0.24778,-0.37637 -0.24555,-0.52917 0.002,-0.15279 0.11947,-0.0992 0.26053,0.11907 0.22799,0.35278 0.25653,0.35278 0.25692,0 7.7e-4,-0.69369 -0.31023,-1.5875 -0.55236,-1.5875 -0.12855,0 -0.24781,0.26789 -0.26503,0.59531 -0.0253,0.48129 -0.07,0.44329 -0.23328,-0.19844 -0.12765,-0.50165 -0.21659,0.47199 -0.24169,2.64584 -0.0301,2.60759 -0.13621,3.56727 -0.43863,3.96746 -0.34219,0.45282 -0.43446,0.47163 -0.64899,0.13229 -0.34951,-0.55286 -0.32856,-6.43709 0.0242,-6.78983 0.2001,-0.2001 0.16156,-0.32873 -0.13229,-0.44149 -0.27674,-0.10619 -0.41601,-0.008 -0.41871,0.2956 -0.003,0.39092 -0.0406,0.39903 -0.26458,0.0578 -0.55892,-0.85141 -0.8033,0.35296 -0.69793,3.43958 0.11038,3.23363 0.0488,3.70417 -0.48456,3.70417 -0.65407,0 -0.97295,-0.78671 -0.96532,-2.38154 0.007,-1.53425 -0.0211,-1.60657 -0.57386,-1.46105 l -0.58157,0.1531 0.59531,-0.43649 c 0.70521,-0.51706 0.80399,-1.85541 0.1946,-2.63647 -0.22039,-0.28248 -0.37368,-0.39453 -0.34066,-0.24901 0.033,0.14552 -0.1049,0.56224 -0.30649,0.92604 -0.26028,0.46972 -0.37215,1.73522 -0.38594,4.36563 -0.019,3.62777 -0.004,3.73145 0.751,5.02708 1.94999,3.34842 2.29508,4.19853 2.14809,5.29167 -0.0783,0.58208 -0.1994,2.01083 -0.26918,3.175 -0.0698,1.16416 -0.20469,3.42635 -0.29981,5.02708 -0.0951,1.60073 -0.1934,4.19802 -0.21842,5.77175 -0.0419,2.63692 10e-4,2.91188 0.55173,3.50573 0.75928,0.81928 2.02547,0.86496 2.56646,0.0926 z m -2.15367,-0.0435 c -0.20623,-0.24849 -0.12119,-0.33073 0.34198,-0.33073 0.46316,0 0.5482,0.0822 0.34197,0.33073 -0.15096,0.1819 -0.30485,0.33073 -0.34197,0.33073 -0.0371,0 -0.19102,-0.14883 -0.34198,-0.33073 z m 1.00343,-2.01929 c 0,-0.14552 0.11907,-0.33817 0.26459,-0.42811 0.14552,-0.0899 0.26458,-0.0445 0.26458,0.10107 0,0.14552 -0.11906,0.33816 -0.26458,0.4281 -0.14552,0.0899 -0.26459,0.0445 -0.26459,-0.10106 z m -0.84379,-0.89433 c 0.19076,-0.23131 0.30983,-0.60018 0.26459,-0.81971 -0.0452,-0.21954 0.0368,-0.41168 0.18233,-0.42699 0.56688,-0.0596 0.42004,1.02043 -0.18238,1.34147 -0.54632,0.29113 -0.57446,0.28105 -0.26454,-0.0948 z m 1.49437,-1.53575 c -0.0959,-0.15521 -0.11765,-0.33893 -0.0483,-0.40829 0.0694,-0.0694 0.1966,0.0576 0.28278,0.28219 0.1789,0.46622 0.0264,0.54823 -0.23448,0.1261 z m -0.84901,-1.13596 c -0.32743,-0.16216 -0.59532,-0.43669 -0.59532,-0.61007 0,-0.17338 -0.19784,-0.51308 -0.43965,-0.75489 -0.40981,-0.40982 -0.40532,-0.43399 0.0661,-0.35623 0.27819,0.0459 0.67199,-0.0207 0.87511,-0.14788 0.29621,-0.18551 0.33295,-0.0864 0.18559,0.50074 -0.12985,0.51738 -0.0516,0.87808 0.267,1.23009 0.50035,0.55287 0.48795,0.55765 -0.35888,0.13824 z m -0.83004,-3.4316 c 0.0314,-0.77559 -0.0291,-1.5495 -0.13431,-1.71979 -0.10525,-0.1703 -0.0859,-0.30963 0.043,-0.30963 0.12891,0 0.18195,-0.35719 0.11788,-0.79375 -0.0683,-0.46507 0.002,-0.79375 0.17006,-0.79375 0.1576,0 0.27159,0.39801 0.2533,0.88447 -0.0183,0.48646 0.0519,1.02224 0.15597,1.19062 0.27476,0.44457 0.77056,0.376 0.59472,-0.0822 -0.082,-0.21362 -0.026,-0.46441 0.12427,-0.55732 0.17011,-0.10513 0.24068,0.11647 0.18689,0.58684 -0.0693,0.60551 -0.20489,0.74321 -0.68223,0.69265 -0.55703,-0.059 -0.58651,0.0141 -0.45323,1.12448 0.0921,0.76696 0.0406,1.18759 -0.14541,1.18759 -0.17869,0 -0.26632,-0.53515 -0.23092,-1.41017 z m 0.76389,-2.4128 c 0,-0.10097 0.17859,-0.36218 0.39688,-0.58046 0.21828,-0.21828 0.39687,-0.28389 0.39687,-0.14579 0,0.13809 -0.17859,0.3993 -0.39687,0.58046 -0.21829,0.18116 -0.39688,0.24676 -0.39688,0.14579 z m -0.48739,-5.96662 c 0,-0.36381 0.06,-0.51263 0.13345,-0.33073 0.0734,0.1819 0.0734,0.47956 0,0.66146 -0.0734,0.1819 -0.13345,0.0331 -0.13345,-0.33073 z m -1.20594,-3.86292 c -0.0942,-0.24538 -0.11168,-0.50569 -0.0389,-0.57845 0.0728,-0.0728 0.20934,0.0685 0.3035,0.31387 0.0942,0.24538 0.11168,0.50568 0.0389,0.57844 -0.0728,0.0728 -0.20933,-0.0685 -0.30349,-0.31386 z m 2.11851,-0.25976 c -0.21823,-0.56872 -0.20494,-0.63982 0.1196,-0.63982 0.15411,0 0.19525,0.13746 0.0914,0.30546 -0.12072,0.19534 -0.0721,0.23338 0.13472,0.10553 0.17792,-0.10996 0.25959,-0.36649 0.18147,-0.57005 -0.0781,-0.20356 -0.0378,-0.37011 0.0895,-0.37011 0.12733,0 0.16791,-0.2432 0.0902,-0.54043 -0.0777,-0.29724 -0.0368,-0.52127 0.0909,-0.49784 0.55439,0.1017 0.863,-0.0511 0.9759,-0.48308 0.0744,-0.28487 0.13281,-0.18307 0.15169,0.26458 0.0211,0.50031 -0.10017,0.7276 -0.38823,0.7276 -0.23041,0 -0.36526,0.14883 -0.29966,0.33073 0.12658,0.35101 -0.59465,1.78594 -0.89766,1.78594 -0.0986,0 -0.2515,-0.18833 -0.33983,-0.41851 z m -3.07101,-2.59589 c 0,-0.0572 0.17859,-0.17252 0.39687,-0.25628 0.21828,-0.0838 0.39688,-0.037 0.39688,0.10398 0,0.14096 -0.1786,0.25628 -0.39688,0.25628 -0.21828,0 -0.39687,-0.0468 -0.39687,-0.10398 z m 2.13755,-1.10869 c 0.0127,-0.30822 0.0754,-0.37092 0.15985,-0.15985 0.0764,0.19099 0.067,0.4192 -0.0209,0.50712 -0.0879,0.0879 -0.15046,-0.0684 -0.13897,-0.34727 z m -2.71633,-1.08473 c 0.191,-0.0764 0.4192,-0.067 0.50712,0.0209 0.0879,0.0879 -0.0684,0.15045 -0.34727,0.13896 -0.30822,-0.0127 -0.37092,-0.0754 -0.15985,-0.15985 z m -0.33597,-0.85931 c -0.0837,-0.13547 -0.0312,-0.32109 0.11668,-0.41249 0.1479,-0.0914 0.2689,0.0194 0.2689,0.2463 0,0.46474 -0.15876,0.53317 -0.38558,0.16619 z m 5.98361,-0.54745 c 0,-0.3638 0.0601,-0.51263 0.13345,-0.33073 0.0734,0.1819 0.0734,0.47956 0,0.66146 -0.0734,0.1819 -0.13345,0.0331 -0.13345,-0.33073 z m -0.57095,-3.43958 c 0,-0.14552 0.12609,-0.26458 0.2802,-0.26458 0.15411,0 0.20662,0.11906 0.11668,0.26458 -0.0899,0.14552 -0.21603,0.26458 -0.2802,0.26458 -0.0642,0 -0.11668,-0.11906 -0.11668,-0.26458 z m 11.05329,30.38046 c 0.22726,-0.22726 0.23279,-0.40569 0.0205,-0.66146 -0.52839,-0.63667 0.27769,-0.3954 1.03972,0.31121 0.78368,0.72667 1.68656,0.83326 2.70314,0.31912 0.53129,-0.26869 0.66969,-0.54963 0.70328,-1.42752 0.0428,-1.11907 -0.14393,-1.43174 -1.58609,-2.65553 -0.56877,-0.48264 -0.66757,-0.74525 -0.54746,-1.4552 0.32062,-1.89516 1.00504,-3.57135 2.44922,-5.99829 0.83161,-1.3975 1.91753,-3.37435 2.41317,-4.393 0.49563,-1.01865 1.0275,-1.93956 1.18191,-2.04647 0.19382,-0.13419 0.18887,-0.19564 -0.016,-0.19844 -0.18255,-0.002 -0.34441,-0.7931 -0.42063,-2.05457 -0.0945,-1.56374 -0.31701,-2.45879 -0.93736,-3.77031 -1.08266,-2.2889 -1.92265,-3.03117 -4.07415,-3.60016 -1.54037,-0.40738 -1.95328,-0.42288 -3.30729,-0.12414 -1.91382,0.42225 -3.00238,0.8145 -3.00238,1.08188 0,0.11209 -0.27717,0.27337 -0.61593,0.35839 -0.39073,0.0981 -0.89709,0.66482 -1.38486,1.55004 -1.17134,2.12574 -1.46285,3.12014 -1.30103,4.43816 0.0804,0.65484 0.20145,1.64358 0.26901,2.19719 0.1626,1.33245 3.32438,7.40665 3.67358,7.05745 0.45859,-0.45859 0.69665,-0.27643 0.52621,0.40265 -0.10658,0.42464 -0.0546,0.66145 0.14508,0.66145 0.19069,0 0.2461,0.20481 0.14315,0.52917 -0.0924,0.29104 -0.055,0.52917 0.0831,0.52917 0.13805,0 0.38591,0.53578 0.55081,1.19062 0.16489,0.65485 0.36708,1.19063 0.4493,1.19063 0.20275,0 -0.15213,-1.59267 -0.50111,-2.24896 -0.39217,-0.73752 -0.46912,-1.71979 -0.13473,-1.71979 0.18769,0 0.18254,-0.11615 -0.0157,-0.35508 -0.16208,-0.19529 -0.21635,-0.43341 -0.1206,-0.52916 0.0958,-0.0957 -0.0243,-0.1741 -0.26687,-0.1741 -0.24254,0 -0.44098,-0.17156 -0.44098,-0.38126 0,-0.55237 -0.54889,-0.80712 -0.81928,-0.38024 -0.12702,0.20055 -0.23277,0.23961 -0.235,0.0868 -0.002,-0.15279 0.12006,-0.40192 0.27175,-0.55361 0.19134,-0.19134 0.15083,-0.37951 -0.13229,-0.61448 -0.22445,-0.18627 -0.40809,-0.52254 -0.40809,-0.74725 0,-0.22472 -0.0805,-0.32811 -0.17883,-0.22975 -0.0984,0.0984 -0.57225,-0.76992 -1.05311,-1.92951 -0.75649,-1.82429 -0.86714,-2.37711 -0.82133,-4.10348 0.0376,-1.4172 0.15106,-1.99515 0.39165,-1.99515 0.18629,0 0.3246,-0.0893 0.30737,-0.19843 -0.11441,-0.72459 0.12652,-1.17377 0.75845,-1.41403 0.39992,-0.15205 0.93643,-0.46587 1.19225,-0.69738 0.25582,-0.23152 0.5535,-0.33256 0.66152,-0.22454 0.10802,0.10802 0.0136,0.33549 -0.20977,0.5055 -0.45323,0.3449 -1.57737,1.88054 -1.57737,2.15477 0,0.0971 0.17859,-0.002 0.39688,-0.22038 0.21828,-0.21828 0.39687,-0.52025 0.39687,-0.67105 0,-0.15079 0.2303,-0.39742 0.51177,-0.54806 0.86123,-0.46092 0.92452,-0.30736 0.16387,0.3976 -0.4576,0.42408 -0.66459,0.82775 -0.5618,1.09561 0.0895,0.23327 0.002,0.67524 -0.19376,0.98216 -0.6187,0.96841 -0.70215,1.43194 -0.28651,1.59143 0.2513,0.0964 0.32624,0.0417 0.207,-0.15127 -0.11982,-0.19387 -0.069,-0.22955 0.1416,-0.0994 0.18068,0.11167 0.26745,0.43655 0.19281,0.72197 -0.0803,0.30711 0.0723,0.72694 0.37382,1.02847 0.28024,0.28025 0.44327,0.50954 0.36228,0.50954 -0.35263,0 0.82028,1.5681 1.35523,1.81184 0.79012,0.36 1.71304,-0.23543 1.24292,-0.80188 -0.24326,-0.29312 -0.20827,-0.37768 0.16801,-0.40602 0.36642,-0.0276 0.44716,0.11122 0.35254,0.60617 -0.0675,0.35308 -0.2326,0.64197 -0.36689,0.64197 -0.13429,0 -0.0913,0.16367 0.0956,0.36372 0.58005,0.62095 1.07725,0.19013 0.9174,-0.7949 -0.0787,-0.48512 -0.0453,-0.94247 0.0742,-1.01633 0.11951,-0.0739 0.21197,0.0132 0.20548,0.19359 -0.0294,0.81619 0.0934,1.25392 0.35175,1.25392 0.15411,0 0.21433,-0.10659 0.13381,-0.23686 -0.0805,-0.13027 0.0393,-0.30812 0.26627,-0.39521 0.31628,-0.12137 0.37356,-0.0352 0.24524,0.36915 -0.24065,0.75821 0.25598,0.65146 0.61283,-0.13173 0.21488,-0.47161 0.21755,-0.64104 0.009,-0.59531 -0.16003,0.0351 -0.34727,-0.0901 -0.41608,-0.27835 -0.0899,-0.24595 0.0576,-0.29641 0.5242,-0.1793 0.74992,0.18821 1.51914,-0.42388 1.51914,-1.20882 0,-0.35948 -0.12497,-0.45401 -0.44028,-0.33301 -0.31968,0.12267 -0.38095,0.073 -0.2237,-0.18148 0.14823,-0.23984 0.11474,-0.28749 -0.10612,-0.15099 -0.24403,0.15082 -0.21754,0.31564 0.10865,0.67608 0.2844,0.31426 0.33534,0.53596 0.14952,0.6508 -0.155,0.0958 -0.29122,0.0183 -0.3027,-0.17217 -0.0161,-0.26636 -0.0517,-0.26997 -0.15434,-0.0156 -0.0734,0.1819 -0.35871,0.33073 -0.63403,0.33073 -0.42461,0 -0.46241,-0.10037 -0.24908,-0.66146 0.13832,-0.3638 0.16841,-0.66146 0.0669,-0.66146 -0.10154,0 0.0791,-0.1847 0.40138,-0.41044 0.32229,-0.22574 0.7233,-0.67223 0.89112,-0.99219 l 0.30513,-0.58174 -0.59103,0.52517 -0.59103,0.52517 0.47925,-0.83504 c 0.60382,-1.05209 0.98893,-0.84742 0.77205,0.41031 -0.12031,0.69765 -0.0916,0.85286 0.10448,0.56501 0.14869,-0.21828 0.27217,-0.59937 0.2744,-0.84687 0.002,-0.2475 0.13591,-1.06483 0.29707,-1.8163 l 0.29301,-1.3663 0.55218,0.55218 c 0.3037,0.3037 0.4532,0.64478 0.33222,0.75797 -0.12098,0.11318 -0.27311,0.057 -0.33808,-0.12495 -0.15427,-0.43196 -0.61777,-0.43196 -0.48469,0 0.056,0.1819 0.17635,0.66898 0.26736,1.08239 0.11344,0.51533 0.28677,0.70512 0.55126,0.60362 0.21219,-0.0814 0.3858,-0.0327 0.3858,0.10823 0,0.14096 -0.17859,0.25628 -0.39687,0.25628 -0.21829,0 -0.39688,0.11907 -0.39688,0.26459 0,0.14552 0.0961,0.26458 0.2136,0.26458 0.11748,0 0.18889,0.35687 0.1587,0.79305 -0.033,0.47666 0.0514,0.72733 0.21162,0.62832 0.16789,-0.10376 0.19931,0.0678 0.0849,0.46373 -0.0999,0.34564 -0.24447,0.85171 -0.32127,1.1246 -0.0901,0.32009 -0.0357,0.43191 0.15328,0.31511 0.16634,-0.1028 0.29293,-0.003 0.29293,0.23145 0,0.22687 -0.1318,0.41249 -0.29289,0.41249 -0.16109,0 -0.2243,0.17873 -0.14048,0.39719 0.17134,0.44648 -0.88924,2.14558 -1.68888,2.70566 -0.28797,0.20171 -0.52358,0.60514 -0.52358,0.89652 0,0.29138 -0.11284,0.46004 -0.25076,0.3748 -0.13791,-0.0852 -0.20476,0.0838 -0.14855,0.3757 0.0562,0.29187 -0.0115,0.60093 -0.15044,0.68681 -0.13895,0.0859 -0.1925,0.25343 -0.119,0.37236 0.0735,0.11892 -0.10344,0.27821 -0.39319,0.35398 -0.30037,0.0786 -0.61566,-0.021 -0.73353,-0.23162 -0.11379,-0.20333 -0.18427,0.34297 -0.15679,1.21523 0.0522,1.65641 -0.0397,1.8563 -0.53934,1.17302 -0.25569,-0.34968 -0.30937,-0.31003 -0.35685,0.26357 -0.0307,0.37134 0.0321,0.66152 0.13952,0.64485 0.56551,-0.0877 0.6259,0.0858 0.19539,0.56151 -0.62879,0.69481 -0.90632,0.67035 -0.75078,-0.0661 0.11496,-0.54432 0.0992,-0.5536 -0.18358,-0.10839 -0.17012,0.26781 -0.25316,0.86312 -0.18453,1.32292 0.12978,0.86947 -0.17252,2.02814 -0.52821,2.02455 -0.31344,-0.003 -0.75901,-1.12964 -0.65455,-1.65482 0.051,-0.25644 0.20279,-0.39824 0.33729,-0.31511 0.13451,0.0831 0.24456,-0.0146 0.24456,-0.21725 0,-0.92392 -0.39756,-0.55982 -1.1744,1.07557 -0.99811,2.10121 -1.19859,3.84905 -0.48887,4.2621 0.63058,0.36698 1.22446,0.35956 1.60406,-0.02 z m -0.46995,-2.7315 c 0,-0.21829 -0.11907,-0.39688 -0.26459,-0.39688 -0.14552,0 -0.26458,-0.17859 -0.26458,-0.39687 0,-0.5455 0.43097,-0.50031 0.63077,0.0662 0.0898,0.25466 0.2327,0.61184 0.31749,0.79375 0.0848,0.1819 0.0252,0.33073 -0.13246,0.33073 -0.15765,0 -0.28663,-0.1786 -0.28663,-0.39688 z m 5.15937,-9.92188 c 0.0899,-0.14552 0.21603,-0.26458 0.2802,-0.26458 0.0642,0 0.11668,0.11906 0.11668,0.26458 0,0.14552 -0.12609,0.26459 -0.2802,0.26459 -0.15411,0 -0.20661,-0.11907 -0.11668,-0.26459 z m -6.62361,-4.93171 c 0.0399,-0.36393 0.22335,-0.80215 0.40755,-0.97384 0.2652,-0.24717 0.30506,-0.18828 0.19148,0.28289 -0.0789,0.32728 -0.0356,0.66173 0.0963,0.74322 0.40039,0.24746 0.26921,0.53128 -0.26411,0.57145 -0.38824,0.0292 -0.48719,-0.11388 -0.43122,-0.62372 z m 1.34021,-0.17293 c -0.11326,-0.26094 -0.13169,-0.54867 -0.0409,-0.63941 0.26868,-0.26868 0.48527,0.10873 0.3616,0.63011 -0.10963,0.46222 -0.12389,0.46263 -0.32065,0.009 z m 7.66465,0.0776 c 0.0899,-0.14552 0.28259,-0.26458 0.42811,-0.26458 0.14552,0 0.191,0.11906 0.10106,0.26458 -0.0899,0.14552 -0.28259,0.26458 -0.42811,0.26458 -0.14552,0 -0.191,-0.11906 -0.10106,-0.26458 z m -5.95312,-0.79375 c 0,-0.14552 0.18562,-0.26458 0.41249,-0.26458 0.22687,0 0.3389,0.11906 0.24897,0.26458 -0.0899,0.14552 -0.27556,0.26458 -0.41249,0.26458 -0.13694,0 -0.24897,-0.11906 -0.24897,-0.26458 z m 6.229,0.0183 c -0.0837,-0.13546 -0.0312,-0.32108 0.11668,-0.41249 0.1479,-0.0914 0.2689,0.0194 0.2689,0.2463 0,0.46475 -0.15876,0.53318 -0.38558,0.16619 z m -10.07179,-0.56739 c -0.0958,-0.302 -0.10388,-0.6195 -0.0178,-0.70555 0.0861,-0.0861 0.15645,0.049 0.15645,0.30014 0,0.25112 0.11906,0.383 0.26458,0.29306 0.14552,-0.0899 0.26459,0.0221 0.26459,0.24897 0,0.60013 -0.46409,0.50519 -0.66779,-0.13662 z m 0.4032,-0.72273 c 0,-0.11743 -0.32742,-0.3447 -0.7276,-0.50505 -0.72047,-0.28867 -0.72112,-0.29112 -0.0662,-0.24951 0.86259,0.0548 1.86101,0.96807 1.05834,0.96807 -0.14552,0 -0.26459,-0.0961 -0.26459,-0.21351 z m 4.28492,-0.71254 c 0.005,-0.43656 0.0647,-0.58312 0.13177,-0.32569 0.0671,0.25743 0.0627,0.61462 -0.01,0.79375 -0.0725,0.17913 -0.12737,-0.0315 -0.12197,-0.46806 z m -2.43283,0.14791 c 0,-0.13693 0.11906,-0.32255 0.26458,-0.41249 0.14552,-0.0899 0.26458,0.0221 0.26458,0.24897 0,0.22687 -0.11906,0.41249 -0.26458,0.41249 -0.14552,0 -0.26458,-0.11204 -0.26458,-0.24897 z m -1.85209,-0.80936 c 0,-0.14552 0.12609,-0.26459 0.2802,-0.26459 0.15411,0 0.20662,0.11907 0.11668,0.26459 -0.0899,0.14552 -0.21603,0.26458 -0.2802,0.26458 -0.0642,0 -0.11668,-0.11906 -0.11668,-0.26458 z m 0.85093,-1.5875 c 0.17911,-0.7331 0.59746,-1.46958 1.08868,-1.91656 0.43878,-0.39925 0.83951,-0.68419 0.89052,-0.63318 0.22033,0.22033 -0.26382,0.91538 -0.85978,1.23433 -0.35609,0.19057 -0.64743,0.46389 -0.64743,0.60737 0,0.14349 0.21773,0.0638 0.48385,-0.177 0.65619,-0.59384 1.01253,-0.55033 1.19459,0.14588 0.17778,0.67984 -0.006,1.00475 -0.23288,0.41254 -0.12533,-0.3266 -0.27557,-0.34618 -0.79792,-0.10402 -0.35393,0.16409 -0.64444,0.36489 -0.64558,0.44621 -10e-4,0.0813 -0.17371,0.37899 -0.3835,0.66146 -0.33913,0.45662 -0.34917,0.38151 -0.0905,-0.67703 z m -1.2478,0.52916 c -0.0899,-0.14552 -0.0374,-0.26458 0.11668,-0.26458 0.1541,0 0.28019,0.11906 0.28019,0.26458 0,0.14552 -0.0525,0.26459 -0.11667,0.26459 -0.0642,0 -0.19026,-0.11907 -0.2802,-0.26459 z m 7.29693,-0.15434 c 0.0127,-0.30822 0.0754,-0.37092 0.15985,-0.15985 0.0764,0.191 0.067,0.4192 -0.0209,0.50712 -0.0879,0.0879 -0.15045,-0.0684 -0.13896,-0.34727 z m -2.66672,-0.11024 c 0,-0.14552 0.11906,-0.26458 0.26458,-0.26458 0.14552,0 0.26458,0.11906 0.26458,0.26458 0,0.14552 -0.11906,0.26458 -0.26458,0.26458 -0.14552,0 -0.26458,-0.11906 -0.26458,-0.26458 z m -4.49792,-0.54478 c 0,-0.15411 0.11906,-0.20662 0.26458,-0.11668 0.14552,0.0899 0.26459,0.21603 0.26459,0.2802 0,0.0642 -0.11907,0.11668 -0.26459,0.11668 -0.14552,0 -0.26458,-0.12609 -0.26458,-0.2802 z m 7.9375,-1.3073 c 0,-0.14552 0.11906,-0.26459 0.26458,-0.26459 0.14552,0 0.26459,0.11907 0.26459,0.26459 0,0.14552 -0.11907,0.26458 -0.26459,0.26458 -0.14552,0 -0.26458,-0.11906 -0.26458,-0.26458 z m -9.92187,-0.26459 c 0.0899,-0.14552 0.21602,-0.26458 0.28019,-0.26458 0.0642,0 0.11668,0.11906 0.11668,0.26458 0,0.14552 -0.12609,0.26459 -0.2802,0.26459 -0.15411,0 -0.20661,-0.11907 -0.11667,-0.26459 z m 5.42395,-0.52916 c 0,-0.14552 0.11907,-0.26459 0.26459,-0.26459 0.14552,0 0.26458,0.11907 0.26458,0.26459 0,0.14552 -0.11906,0.26458 -0.26458,0.26458 -0.14552,0 -0.26459,-0.11906 -0.26459,-0.26458 z m -1.85208,-0.63542 c 0,-0.44943 0.43217,-0.79591 0.61541,-0.49338 0.0675,0.11152 -0.0433,0.35628 -0.24631,0.54392 -0.30316,0.28021 -0.3691,0.27118 -0.3691,-0.0505 z m 2.00632,-1.18116 c -0.11397,-0.18441 -0.13577,-0.40675 -0.0484,-0.49408 0.23679,-0.23679 0.49497,0.11147 0.36708,0.49515 -0.0896,0.26886 -0.15194,0.26866 -0.31864,-0.001 z m 0.63951,-0.30009 c 0,-0.14552 0.12609,-0.26458 0.2802,-0.26458 0.15411,0 0.20662,0.11906 0.11668,0.26458 -0.0899,0.14552 -0.21603,0.26458 -0.2802,0.26458 -0.0642,0 -0.11668,-0.11906 -0.11668,-0.26458 z m 8.99584,26.87082 c 0,-0.0642 -0.11907,-0.19026 -0.26459,-0.2802 -0.14552,-0.0899 -0.26458,-0.0374 -0.26458,0.11668 0,0.15411 0.11906,0.2802 0.26458,0.2802 0.14552,0 0.26459,-0.0525 0.26459,-0.11668 z m -1.98208,-0.3661 c -0.0715,-0.0715 0.003,-0.28977 0.16469,-0.48506 0.16207,-0.19529 0.18968,-0.35508 0.0613,-0.35508 -0.12833,0 -0.36965,0.21828 -0.53626,0.48507 -0.23976,0.38391 -0.22544,0.48507 0.0687,0.48507 0.20436,0 0.31308,-0.0585 0.24158,-0.13 z m -0.66376,-0.41496 c 0,-0.0572 -0.18477,-0.17489 -0.41061,-0.26155 -0.23546,-0.0904 -0.34167,-0.046 -0.24897,0.10399 0.15538,0.2514 0.65958,0.37185 0.65958,0.15756 z m 0.61435,-2.39234 c 0.0259,-0.13606 -0.28031,-0.27776 -0.68049,-0.31488 -0.4694,-0.0436 -0.72761,0.0599 -0.72761,0.29147 0,0.19744 -0.14769,0.40821 -0.32821,0.46838 -0.18052,0.0602 0.0278,0.28277 0.46302,0.49467 0.73698,0.35884 0.80615,0.34832 1.0087,-0.1535 0.11961,-0.29633 0.23867,-0.65009 0.26459,-0.78614 z m -1.01122,0.37966 c 0.0899,-0.14552 0.21602,-0.26458 0.2802,-0.26458 0.0642,0 0.11667,0.11906 0.11667,0.26458 0,0.14552 -0.12609,0.26459 -0.28019,0.26459 -0.15411,0 -0.20662,-0.11907 -0.11668,-0.26459 z m -13.03212,-1.45521 c -0.13515,-0.70701 -0.44409,-0.85336 -0.75148,-0.35599 -0.12561,0.20324 -0.0715,0.23299 0.16164,0.0889 0.2516,-0.1555 0.30463,-0.0972 0.18804,0.20661 -0.0893,0.23275 -0.0203,0.48101 0.15347,0.55168 0.17373,0.0707 0.32912,0.1379 0.34532,0.14939 0.0162,0.0115 -0.0274,-0.27677 -0.097,-0.64057 z m 24.8748,-0.61163 c 0.1689,-0.39121 0.52018,-0.99523 0.78064,-1.34228 0.26046,-0.34704 0.47356,-0.84944 0.47356,-1.11643 0,-0.26699 0.23512,-0.90406 0.5225,-1.41571 0.89439,-1.59239 1.33167,-4.15428 1.30321,-7.63505 -0.0145,-1.7736 -0.1217,-3.52238 -0.23821,-3.88619 -0.28885,-0.9019 -0.28835,-0.90741 -0.31335,3.50573 -0.0122,2.14643 -0.10628,3.90261 -0.20915,3.90261 -0.10288,0 -0.33154,0.68461 -0.50815,1.52135 -0.30959,1.46682 -0.48005,1.97767 -1.11723,3.34821 -0.16268,0.34992 -0.20313,0.79641 -0.0899,0.99219 0.11326,0.19577 0.10849,0.26769 -0.0106,0.15981 -0.32694,-0.29618 -0.92587,0.3179 -0.93254,0.95615 -0.003,0.3096 -0.23871,0.86057 -0.52328,1.22437 -0.67079,0.85755 -0.66592,1.15014 0.0131,0.78673 0.29825,-0.15962 0.68046,-0.61029 0.84936,-1.00149 z m -18.85414,0.74393 c 0,-0.14553 -0.0525,-0.26459 -0.11668,-0.26459 -0.0642,0 -0.19026,0.11906 -0.28019,0.26459 -0.0899,0.14552 -0.0374,0.26458 0.11667,0.26458 0.15411,0 0.2802,-0.11906 0.2802,-0.26458 z m 6.25432,-0.1323 c -0.21191,-0.55221 0.27454,-0.49891 0.60365,0.0661 0.14833,0.25467 0.27331,0.32122 0.27773,0.14791 0.004,-0.17331 -0.11679,-0.39227 -0.26938,-0.48658 -0.18841,-0.11644 -0.17412,-0.29594 0.0445,-0.55939 0.27912,-0.33633 0.22804,-0.34515 -0.38403,-0.0663 -0.68831,0.31361 -1.00137,1.29506 -0.4131,1.29506 0.16109,0 0.22436,-0.17859 0.1406,-0.39688 z m 1.68318,-0.11667 c 0,-0.13694 -0.11906,-0.32256 -0.26458,-0.41249 -0.14552,-0.0899 -0.26459,0.0221 -0.26459,0.24897 0,0.22687 0.11907,0.41249 0.26459,0.41249 0.14552,0 0.26458,-0.11204 0.26458,-0.24897 z m -25.21641,-0.80937 c -0.16478,-0.43656 -0.37351,-0.79375 -0.46383,-0.79375 -0.0903,0 -0.3201,-0.4723 -0.51062,-1.04956 -0.19051,-0.57726 -0.46609,-0.97558 -0.61239,-0.88516 -0.15422,0.0953 -0.18365,0.0311 -0.07,-0.1527 0.10779,-0.1744 0.004,-0.60952 -0.2298,-0.96692 -0.23418,-0.3574 -0.34893,-0.64982 -0.255,-0.64982 0.0939,0 0.0619,-0.14883 -0.0711,-0.33073 -0.13306,-0.1819 -0.27859,-1.04511 -0.32339,-1.91823 -0.0448,-0.87313 -0.18398,-1.71315 -0.30927,-1.86672 -0.1253,-0.15356 -0.24974,-1.0763 -0.27654,-2.05052 -0.0347,-1.26027 -0.14885,-1.7713 -0.39577,-1.7713 -0.26257,0 -0.31242,0.37026 -0.20483,1.52135 0.0782,0.83675 0.15738,2.08368 0.17595,2.77097 0.0186,0.68729 0.1678,1.30106 0.33165,1.36393 0.16384,0.0629 0.31879,0.66669 0.34433,1.3418 0.0492,1.30042 1.47911,4.52775 2.49703,5.6358 0.70501,0.76742 0.73269,0.75273 0.37366,-0.19844 z m 16.88204,-1.05833 c -0.0899,-0.14552 -0.30533,-0.26276 -0.47864,-0.26053 -0.18934,0.002 -0.15671,0.10642 0.0818,0.26053 0.5083,0.32849 0.59989,0.32849 0.39688,0 z m 9.92187,-0.2802 c 0,-0.13693 -0.11906,-0.24897 -0.26458,-0.24897 -0.14552,0 -0.26459,0.18562 -0.26459,0.41249 0,0.22687 0.11907,0.33891 0.26459,0.24897 0.14552,-0.0899 0.26458,-0.27556 0.26458,-0.41249 z m -2.64583,-0.76252 c 0,-0.13693 -0.11907,-0.32255 -0.26459,-0.41249 -0.14552,-0.0899 -0.26458,0.0221 -0.26458,0.24897 0,0.22687 0.11906,0.41249 0.26458,0.41249 0.14552,0 0.26459,-0.11204 0.26459,-0.24897 z m -13.49375,-0.58888 c 0,-0.12127 -0.1786,-0.22048 -0.39688,-0.22048 -0.21828,0 -0.39687,0.0992 -0.39687,0.22048 0,0.12127 0.17859,0.22049 0.39687,0.22049 0.21828,0 0.39688,-0.0992 0.39688,-0.22049 z m 15.65892,-0.54239 c -0.18985,-0.18986 -0.31309,-0.20548 -0.31309,-0.0397 0,0.15037 0.0794,0.35277 0.17639,0.44979 0.097,0.097 0.2379,0.11487 0.31309,0.0397 0.0752,-0.0752 -0.004,-0.27759 -0.17639,-0.44979 z m 0.34837,-0.73643 c -0.0899,-0.14552 -0.30532,-0.26276 -0.47864,-0.26053 -0.18934,0.002 -0.1567,0.10642 0.0818,0.26053 0.5083,0.32849 0.59989,0.32849 0.39688,0 z m -10.53489,-1.10794 c -0.0845,-0.21107 -0.14715,-0.14837 -0.15985,0.15985 -0.0115,0.27892 0.0511,0.43519 0.13897,0.34727 0.0879,-0.0879 0.0973,-0.31612 0.0209,-0.50712 z m 16.25194,-0.41664 c 0.23955,-0.64757 -0.13022,-0.8256 -0.47838,-0.23032 -0.14114,0.24132 -0.38777,0.29156 -0.74075,0.15089 -0.50174,-0.19995 -0.49831,-0.21184 0.0662,-0.22947 0.32742,-0.0102 0.59531,-0.13993 0.59531,-0.28822 0,-0.1597 -0.29665,-0.19908 -0.7276,-0.0966 -0.89987,0.214 -1.65953,0.61134 -1.19063,0.62274 0.1819,0.004 0.33073,0.18868 0.33073,0.40945 0,0.68691 1.87532,0.39101 2.14517,-0.33849 z m -2.80663,-0.59208 c 0.0899,-0.14552 0.0374,-0.26459 -0.11668,-0.26459 -0.15411,0 -0.2802,0.11907 -0.2802,0.26459 0,0.14552 0.0525,0.26458 0.11668,0.26458 0.0642,0 0.19026,-0.11906 0.2802,-0.26458 z m 1.14724,-1.26047 c 0.16938,0.16938 0.30797,0.22043 0.30797,0.11345 0,-0.10699 0.21477,-0.0796 0.47727,0.0609 1.14157,0.61094 1.24148,0.1364 1.25943,-5.98182 0.018,-6.12213 -0.23335,-12.44143 -0.54167,-13.62014 -0.13027,-0.49801 -0.41271,-0.76176 -0.9397,-0.87751 -1.30309,-0.28621 -1.77982,0.19488 -1.89901,1.91634 -0.0581,0.8389 0.005,1.6741 0.13997,1.856 0.15666,0.21097 0.14414,0.33073 -0.0345,0.33073 -0.39182,0 -0.56495,15.63269 -0.18411,16.62514 0.11488,0.29938 0.24449,0.26277 0.62567,-0.17673 0.36566,-0.42162 0.5545,-0.4806 0.78874,-0.24637 z m -0.95532,-0.30177 c 0.14527,-0.54032 1.26329,-0.91372 1.26329,-0.42192 0,0.23977 -0.15635,0.32005 -0.42358,0.21751 -0.23297,-0.0894 -0.53969,0.004 -0.6816,0.20674 -0.22025,0.31521 -0.2434,0.31487 -0.15811,-0.002 z m 0.34817,-1.3305 c -0.10282,-0.16636 -0.007,-0.21354 0.23992,-0.11863 0.26612,0.10212 0.41061,0.008 0.41061,-0.26762 0,-0.23385 0.10853,-0.42518 0.24117,-0.42518 0.13265,0 0.2107,0.20836 0.17345,0.46302 -0.077,0.52639 -0.80748,0.76533 -1.06515,0.34841 z m 1.84116,-0.0177 c -0.0899,-0.14552 -0.0374,-0.26458 0.11667,-0.26458 0.15411,0 0.2802,0.11906 0.2802,0.26458 0,0.14552 -0.0525,0.26458 -0.11667,0.26458 -0.0642,0 -0.19027,-0.11906 -0.2802,-0.26458 z m -0.22797,-1.71979 c 0.0838,-0.21828 0.25488,-0.39688 0.38026,-0.39688 0.12539,0 0.15944,0.1786 0.0757,0.39688 -0.0838,0.21828 -0.25488,0.39687 -0.38026,0.39687 -0.12539,0 -0.15944,-0.17859 -0.0757,-0.39687 z m -1.59137,-4.22326 c 0.0816,-0.21275 0.38137,-0.46074 0.66607,-0.5511 0.2847,-0.0904 0.49812,-0.36278 0.47426,-0.60538 -0.0749,-0.76151 0.0173,-0.98336 0.25375,-0.61024 0.29995,0.47341 0.0581,1.35977 -0.37104,1.35977 -0.18574,0 -0.40625,0.17859 -0.49001,0.39687 -0.0838,0.21829 -0.27136,0.39688 -0.41688,0.39688 -0.14552,0 -0.19779,-0.17406 -0.11615,-0.3868 z m 1.02559,0.12222 c -0.0899,-0.14552 -0.0374,-0.26459 0.11667,-0.26459 0.15411,0 0.2802,0.11907 0.2802,0.26459 0,0.14552 -0.0525,0.26458 -0.11667,0.26458 -0.0642,0 -0.19027,-0.11906 -0.2802,-0.26458 z m -1.7198,-1.25624 c 0,-0.25969 0.12745,-0.28167 0.49438,-0.0853 0.27191,0.14552 0.58866,0.17947 0.70388,0.0755 0.11523,-0.10402 0.12854,-0.0479 0.0296,0.12476 -0.24065,0.41985 -1.22784,0.32746 -1.22784,-0.11492 z m 0.67889,-4.80099 c -0.19333,-0.3128 0.097,-1.08652 0.40776,-1.08652 0.12995,0 0.23627,0.11906 0.23627,0.26458 0,0.14552 -0.14883,0.26641 -0.33073,0.26863 -0.24335,0.003 -0.23589,0.0641 0.0283,0.23152 0.23145,0.14665 0.26145,0.28773 0.0844,0.39713 -0.151,0.0933 -0.34269,0.0594 -0.42598,-0.0753 z m 0.55584,-4.17333 c -0.097,-0.097 -0.17639,-0.29942 -0.17639,-0.44979 0,-0.16579 0.12323,-0.15017 0.31309,0.0397 0.1722,0.1722 0.25157,0.37461 0.17639,0.44979 -0.0752,0.0752 -0.21608,0.0573 -0.31309,-0.0397 z m -16.44827,17.10972 c -0.265,-0.29282 -0.53216,-0.48207 -0.59369,-0.42054 -0.13716,0.13716 0.81486,1.1607 0.9669,1.03953 0.0597,-0.0476 -0.1082,-0.32616 -0.37321,-0.61899 z m 2.13872,-1.5875 c 0.20615,0 0.37482,-0.10646 0.37482,-0.23659 0,-0.13013 -0.27871,-0.21942 -0.61936,-0.19844 -0.4791,0.0295 -0.58844,0.15645 -0.4828,0.5605 0.0761,0.29088 0.18442,0.37882 0.24454,0.19844 0.0594,-0.17815 0.27664,-0.32391 0.4828,-0.32391 z m 5.79878,-1.5875 c 0.0899,-0.14552 0.0374,-0.26458 -0.11667,-0.26458 -0.15411,0 -0.2802,0.11906 -0.2802,0.26458 0,0.14552 0.0525,0.26459 0.11667,0.26459 0.0642,0 0.19027,-0.11907 0.2802,-0.26459 z m -8.83412,-1.63594 c -0.26195,-0.30594 -0.4603,-0.3787 -0.52263,-0.19171 -0.0553,0.16574 0.0371,0.3864 0.20534,0.49034 0.17172,0.10613 0.22825,0.41173 0.12894,0.69701 -0.17389,0.49952 -0.17027,0.49957 0.21684,0.003 0.3499,-0.4491 0.34673,-0.56013 -0.0285,-0.99836 z m 9.49558,0.58591 c 0,-0.14095 -0.17859,-0.18774 -0.39687,-0.10398 -0.21829,0.0838 -0.39688,0.19909 -0.39688,0.25628 0,0.0572 0.17859,0.10398 0.39688,0.10398 0.21828,0 0.39687,-0.11532 0.39687,-0.25628 z m 13.96281,-1.66195 c -0.12475,-1.80391 -0.75037,-3.42106 -0.9507,-2.45746 -0.0594,0.28551 0.0382,0.56781 0.2168,0.62734 0.19199,0.064 0.22023,0.17626 0.0691,0.27465 -0.31287,0.20367 0.19695,3.20912 0.54436,3.20912 0.12915,0 0.18335,-0.74414 0.12045,-1.65365 z m -14.22739,-0.31511 c 0,-0.0642 -0.11907,-0.19026 -0.26459,-0.2802 -0.14552,-0.0899 -0.26458,-0.0374 -0.26458,0.11668 0,0.15411 0.11906,0.2802 0.26458,0.2802 0.14552,0 0.26459,-0.0525 0.26459,-0.11668 z m -25.66459,-1.07395 c 0,-0.3638 -0.10255,-0.66146 -0.22789,-0.66146 -0.12534,0 -0.17099,0.29766 -0.10145,0.66146 0.0696,0.3638 0.1721,0.66146 0.2279,0.66146 0.0558,0 0.10144,-0.29766 0.10144,-0.66146 z m 38.89376,-2.24896 c 0,-0.14552 -0.0525,-0.26458 -0.11668,-0.26458 -0.0642,0 -0.19026,0.11906 -0.2802,0.26458 -0.0899,0.14552 -0.0374,0.26459 0.11668,0.26459 0.15411,0 0.2802,-0.11907 0.2802,-0.26459 z m -0.50484,-2.40392 c -0.16914,-0.42307 -0.26104,-0.48974 -0.27214,-0.1974 -0.0223,0.58649 0.32021,1.45807 0.43621,1.11007 0.0502,-0.15063 -0.0236,-0.56133 -0.16407,-0.91267 z m -10.27694,-2.7775 c 0.33842,-0.33842 -2.43601,-2.41063 -3.43611,-2.56642 -0.25657,-0.04 -0.62324,-0.17045 -0.81482,-0.28995 -0.42149,-0.26291 -0.77535,0.0161 -0.42778,0.33732 0.13582,0.12552 0.67862,0.36601 1.20622,0.53442 0.5276,0.16841 1.42057,0.71362 1.98437,1.21157 1.06839,0.9436 1.23238,1.0288 1.48812,0.77306 z m -12.67524,-1.79333 c -0.12516,-0.22375 -0.0842,-0.22352 0.15926,9.2e-4 0.2488,0.22938 0.65153,0.13307 1.67134,-0.39968 2.30038,-1.20174 1.79152,-1.88844 -0.59859,-0.80779 -1.31262,0.59349 -2.91041,1.99788 -2.91041,2.55813 0,0.23545 0.31685,0.11676 0.92346,-0.34592 0.50881,-0.38809 0.84779,-0.83965 0.75494,-1.00566 z m 1.16146,-0.73099 c 0.17947,-0.18083 0.39297,-0.26212 0.47443,-0.18066 0.0815,0.0815 -0.0654,0.22941 -0.32632,0.32877 -0.37708,0.14358 -0.40747,0.11319 -0.14811,-0.14811 z m 0.9966,-0.49634 c 0.0899,-0.14552 0.28258,-0.26458 0.4281,-0.26458 0.14552,0 0.191,0.11906 0.10106,0.26458 -0.0899,0.14552 -0.28258,0.26458 -0.4281,0.26458 -0.14552,0 -0.191,-0.11906 -0.10106,-0.26458 z m 4.29947,-0.0848 c 0.19319,-0.12325 0.33073,-0.088 0.33073,0.0848 0,0.1627 0.12944,0.21582 0.28764,0.11804 0.53642,-0.33152 -0.20858,-0.70553 -1.52139,-0.76378 -1.17093,-0.052 -1.94186,0.19114 -1.94084,0.61199 5.8e-4,0.24177 2.45392,0.19771 2.84386,-0.0511 z m -10.30494,-4.87612 c 0.1951,-0.1819 0.55458,-0.33152 0.79884,-0.33247 0.24427,-9.6e-4 0.80131,-0.2383 1.23788,-0.52743 0.43656,-0.28912 1.06866,-0.52646 1.40467,-0.52742 0.33601,-9.6e-4 0.54363,-0.11064 0.46138,-0.24373 -0.0823,-0.13309 1e-5,-0.30229 0.18282,-0.37599 0.18281,-0.0737 0.0943,-0.14018 -0.19679,-0.14773 -1.19773,-0.0311 -7.5515,3.31247 -7.11817,3.7458 0.16287,0.16287 2.67645,-1.0755 3.22937,-1.59103 z m 11.09318,0.56775 c -0.0879,-0.0879 -0.31612,-0.0973 -0.50712,-0.0209 -0.21106,0.0845 -0.14837,0.14716 0.15986,0.15985 0.27891,0.0115 0.43518,-0.0511 0.34726,-0.13896 z m 9.17422,-0.37406 c -1.02961,-0.65975 -3.79522,-1.62367 -4.10652,-1.43128 -0.12845,0.0794 -0.23354,0.0294 -0.23354,-0.11109 0,-0.14048 -0.26789,-0.19671 -0.59531,-0.12495 -0.49508,0.1085 -0.52849,0.0782 -0.19844,-0.18002 0.33005,-0.25821 0.29664,-0.28852 -0.19844,-0.18001 -0.32742,0.0718 -0.59531,0.0425 -0.59531,-0.0651 0,-0.10758 -0.26789,-0.16589 -0.59531,-0.12957 -0.32742,0.0363 -0.69164,0.076 -0.80937,0.0881 -0.11773,0.0121 -0.13545,0.14923 -0.0394,0.30467 0.0961,0.15544 0.3474,0.21633 0.55852,0.13532 0.21112,-0.081 0.31883,-0.0421 0.23934,0.0865 -0.16376,0.26498 0.58523,0.62277 0.89845,0.42919 0.11248,-0.0695 1.07187,0.15772 2.13199,0.50496 1.06012,0.34725 2.08539,0.57076 2.27837,0.49671 0.19298,-0.074 0.54103,0.0555 0.77345,0.28793 0.23241,0.23241 0.62243,0.42057 0.86669,0.41811 0.29291,-0.003 0.16516,-0.18321 -0.37519,-0.52945 z m -37.714308,45.32478 c -0.27891,-0.4814 -0.35324,-0.92161 -0.21393,-1.26691 0.17143,-0.42492 0.21881,-0.34674 0.2405,0.39687 0.026,0.8925 0.0422,0.90688 0.44602,0.39688 0.40619,-0.51298 0.41515,-0.5069 0.29286,0.19844 -0.0694,0.40018 -0.0199,0.7276 0.11004,0.7276 0.4295,0 0.535478,-0.75413 0.27659,-1.968 -0.14045,-0.65852 -0.1512,-1.13293 -0.0239,-1.05425 0.12731,0.0787 0.23148,0.017 0.23148,-0.13714 0,-0.1541 -0.13364,-0.28019 -0.29698,-0.28019 -0.21845,0 -0.21905,-0.0939 -0.002,-0.35508 0.16208,-0.19529 0.23461,-0.41515 0.16118,-0.48858 -0.0734,-0.0734 0.403848,-0.47317 1.060628,-0.88831 0.65677,-0.41514 1.19413,-0.84718 1.19413,-0.96008 0,-0.26779 -1.3398,0.24407 -1.85188,0.70749 -0.348338,0.31524 -0.406148,0.18995 -0.466328,-1.01061 -0.0378,-0.75375 -0.14055,-1.84671 -0.22838,-2.42879 -0.0894,-0.59242 -0.059,-0.9614 0.069,-0.83814 0.12577,0.1211 0.2882,0.95454 0.36096,1.85208 0.103888,1.28163 0.217468,1.60922 0.529158,1.52625 1.14066,-0.30361 1.80962,-0.30941 1.99019,-0.0172 0.11903,0.19259 0.0176,0.42737 -0.24915,0.57665 -0.24746,0.13848 -0.85907,0.61103 -1.35914,1.05009 l -0.909218,0.7983 0.528248,0.74185 c 0.62208,0.87364 0.70167,1.63615 0.14863,1.42393 -0.28164,-0.10808 -0.40114,0.116 -0.46302,0.8682 -0.10773,1.30943 -0.934738,1.53448 -1.575368,0.42869 z m 10.924778,0.48327 c -0.19622,-0.12435 -0.31528,-0.39042 -0.26458,-0.59126 0.0687,-0.27197 0.25481,-0.21323 0.7294,0.23014 0.63236,0.59077 0.30225,0.84723 -0.46482,0.36112 z m 29.32864,-0.17568 c 0,-0.23913 0.65818,-0.684 1.60013,-1.08155 0.0797,-0.0336 0.30036,0.0349 0.49034,0.15232 0.26876,0.1661 0.27783,0.33975 0.0409,0.78254 -0.27281,0.50975 -0.34657,0.52704 -0.70767,0.16593 -0.22172,-0.22171 -0.54345,-0.39933 -0.71496,-0.3947 -0.1715,0.005 -0.0799,0.18384 0.20365,0.39825 0.49317,0.37297 0.48458,0.38728 -0.19844,0.33075 -0.39265,-0.0325 -0.71391,-0.19159 -0.71391,-0.35354 z m -27.90267,-0.36627 c -0.0959,-0.15521 -0.40549,-0.28219 -0.68795,-0.28219 -0.28245,0 -0.51355,-0.12709 -0.51355,-0.28241 0,-0.16978 0.23743,-0.21068 0.59531,-0.10256 0.71536,0.21613 1.14686,0.58308 0.9349,0.79504 -0.0849,0.0849 -0.23278,0.0273 -0.32871,-0.12788 z m 9.911,-0.28219 c -0.32093,-0.2074 -0.28296,-0.25726 0.19844,-0.26053 0.32742,-0.002 0.59531,0.11501 0.59531,0.26053 0,0.3315 -0.28079,0.3315 -0.79375,0 z m 9.65729,-0.26458 c 0.0899,-0.14552 0.27556,-0.26459 0.41249,-0.26459 0.13693,0 0.24897,0.11907 0.24897,0.26459 0,0.14552 -0.18562,0.26458 -0.41249,0.26458 -0.22687,0 -0.3389,-0.11906 -0.24897,-0.26458 z m 24.27781,-0.22229 c -0.187,-0.11558 -0.24465,-0.45534 -0.14314,-0.84354 0.16989,-0.64965 0.1701,-0.64958 0.37818,0.12846 0.23705,0.88634 0.20413,0.9865 -0.23504,0.71508 z m 0.88574,-0.15248 c 0.0884,-0.23044 0.27702,-0.41898 0.4191,-0.41898 0.34777,0 0.13,0.60134 -0.26551,0.73317 -0.19334,0.0645 -0.25247,-0.0565 -0.15359,-0.31419 z m -59.897378,-0.3017 c -0.81743,-0.57254 -0.7249,-0.91177 0.52103,-1.91024 1.38689,-1.11143 1.62126,-0.91533 0.32538,0.27225 -0.55361,0.50735 -0.90867,1.03659 -0.80643,1.20202 0.2534,0.41 1.02199,0.0695 0.8507,-0.37692 -0.079,-0.20578 0.0289,-0.36273 0.24937,-0.36273 0.21372,0 0.38857,-0.10616 0.38857,-0.2359 0,-0.12975 0.29766,-0.31061 0.66146,-0.40192 0.44135,-0.11077 0.66146,-0.34985 0.66146,-0.71845 0,-0.35804 -0.12707,-0.50367 -0.36112,-0.41386 -0.19861,0.0762 -0.7971,-0.2849 -1.32998,-0.80247 -0.53287,-0.51758 -1.01928,-0.89064 -1.0809,-0.82901 -0.21289,0.21289 0.56729,1.41702 0.8754,1.35109 0.17001,-0.0364 0.3091,0.0529 0.3091,0.19843 0,0.42569 -0.67744,0.30452 -1.1094,-0.19843 -0.6225,-0.7248 -0.7998,-1.45084 -0.42091,-1.7236 0.24527,-0.17658 0.21335,-0.20405 -0.11486,-0.0988 -0.55944,0.17931 -0.90296,-0.29931 -0.50235,-0.69992 0.21488,-0.21489 0.38227,-0.17686 0.62518,0.14202 0.42109,0.5528 2.32015,2.04962 2.60042,2.04962 0.38742,0 -0.0982,-1.97916 -0.56754,-2.31312 -0.28481,-0.20264 -0.40876,-0.53248 -0.32314,-0.85989 0.213,-0.8145 0.68495,-0.63385 0.51324,0.19645 -0.0828,0.40018 -0.0855,0.57803 -0.006,0.39523 0.0794,-0.18281 0.27351,-0.25258 0.43134,-0.15504 0.17896,0.11061 0.22708,0.0213 0.12786,-0.23722 -0.0875,-0.228 0.0175,-0.63449 0.23332,-0.9033 0.37786,-0.47063 0.38791,-0.46913 0.271,0.0404 -0.0668,0.29105 -0.19399,0.85549 -0.28271,1.25433 -0.17098,0.76866 0.27715,3.01875 0.71188,3.57432 0.1736,0.22186 0.16103,0.33073 -0.0382,0.33073 -0.16333,0 -0.29698,0.18562 -0.29698,0.41249 0,0.22828 -0.12775,0.33353 -0.28608,0.23568 -0.3349,-0.20698 -1.83058,1.14139 -1.83058,1.65029 0,0.45673 -0.28121,0.43858 -0.99946,-0.0645 z m 54.950138,0.193 c 0.35043,-0.10471 0.67039,-0.41685 0.71101,-0.69365 0.0406,-0.2768 0.46829,-0.80906 0.95036,-1.1828 0.48207,-0.37373 1.34129,-1.18627 1.90937,-1.80564 1.56813,-1.70968 1.75161,-1.47865 0.99677,1.25513 -0.19299,0.69897 -0.26233,0.7758 -0.28277,0.31334 -0.0149,-0.33699 0.0923,-0.83578 0.23821,-1.10842 0.46008,-0.85968 -0.1589,-0.81409 -1.00889,0.0743 -0.4489,0.46919 -1.17386,1.1402 -1.611,1.49113 -0.43714,0.35093 -0.83033,0.88671 -0.87375,1.19062 -0.0579,0.40541 -0.29035,0.56639 -0.8727,0.60447 -0.70834,0.0463 -0.72519,0.0314 -0.15661,-0.13849 z M 99.047962,255.7 c -0.14359,-0.37708 -0.1132,-0.40747 0.14811,-0.14811 0.18082,0.17948 0.26211,0.39297 0.18065,0.47443 -0.0815,0.0815 -0.2294,-0.0654 -0.32876,-0.32632 z m 50.761558,-1.99578 c -0.27677,-2.55944 -0.175,-4.3823 0.30206,-5.41033 l 0.39272,-0.84626 0.88994,0.84626 c 0.91013,0.86546 1.08786,1.42455 0.19638,0.61778 -0.47927,-0.43374 -1.32127,-0.35899 -1.40249,0.1245 -0.12471,0.74248 -0.0241,0.89173 0.635,0.9424 0.40019,0.0308 0.72761,-0.0321 0.72761,-0.13968 0,-0.10758 0.41672,-0.14695 0.92604,-0.0875 0.74064,0.0865 0.92604,0.0172 0.92604,-0.34602 0,-0.29497 -0.13909,-0.40075 -0.39687,-0.30183 -0.47652,0.18285 -0.5201,-0.13121 -0.0794,-0.57193 0.59433,-0.59434 1.00541,-0.35282 1.00541,0.59071 0,0.96241 -0.0993,1.03427 -1.85735,1.34466 -0.89913,0.15875 -0.92794,0.1998 -0.8337,1.18798 0.0813,0.85218 0.22613,1.06836 0.86516,1.29113 0.84852,0.2958 1.07711,0.69359 0.24721,0.43019 -0.40365,-0.12811 -0.55844,-0.0134 -0.69014,0.51134 -0.34246,1.36446 -0.77379,0.7152 -0.7783,-1.17156 -0.003,-1.44084 -0.11105,-1.9488 -0.49022,-2.31411 -0.47062,-0.45342 -0.48002,-0.37916 -0.30085,2.37622 0.20987,3.22748 0.0285,3.81835 -0.28428,0.92604 z m 6.3112,0.85989 c 0,-0.65484 0.0516,-0.92273 0.11466,-0.59531 0.0631,0.32742 0.0631,0.8632 0,1.19063 -0.0631,0.32742 -0.11466,0.0595 -0.11466,-0.59532 z m -51.14692,0.19261 c -0.67221,-0.72154 -0.65511,-1.12553 0.0691,-1.63281 0.68804,-0.48192 1.42197,-0.53394 1.67844,-0.11895 0.12134,0.19633 -0.001,0.23512 -0.37127,0.11763 -0.61779,-0.19608 -1.63062,0.2402 -1.63062,0.7024 0,0.51116 0.82282,1.24053 1.22527,1.08609 0.20999,-0.0806 0.56477,-0.50033 0.7884,-0.93278 0.22363,-0.43245 0.46107,-0.73181 0.52764,-0.66523 0.23054,0.23053 -0.81667,1.75182 -1.29134,1.87595 -0.27205,0.0711 -0.69957,-0.11448 -0.99566,-0.4323 z m 39.49683,-0.4536 c -0.18052,-0.28907 -0.32647,-0.67602 -0.32432,-0.85989 0.002,-0.18388 0.15395,-0.0367 0.33735,0.32713 0.38913,0.77191 1.43618,1.03156 1.67284,0.41484 0.0878,-0.22881 0.085,-0.71341 -0.006,-1.07689 -0.12915,-0.51455 -0.3356,-0.66086 -0.93253,-0.66086 -0.42166,0 -0.82671,0.14883 -0.90011,0.33073 -0.10523,0.26077 -0.13787,0.25957 -0.15434,-0.006 -0.0115,-0.18502 0.29075,-0.4784 0.67165,-0.65195 0.61123,-0.27849 0.75102,-0.24332 1.19062,0.29957 0.56762,0.70098 0.64736,1.6243 0.18059,2.09107 -0.48476,0.48476 -1.36905,0.37874 -1.73552,-0.20808 z m 11.91467,-2.12026 c 0,-0.65484 0.0516,-0.92273 0.11466,-0.59531 0.0631,0.32742 0.0631,0.8632 0,1.19063 -0.0631,0.32742 -0.11466,0.0595 -0.11466,-0.59532 z m -2.36816,-1.17215 c 1.80393,-1.7687 2.37207,-2.00917 2.49229,-1.05488 0.0611,0.48504 0.0543,0.48453 -0.15531,-0.0115 -0.20041,-0.47426 -0.34212,-0.40541 -1.6514,0.80235 -2.22718,2.05448 -2.69572,2.23495 -0.68558,0.26407 z m -54.853898,0.89196 c 0,-0.15411 0.11906,-0.20662 0.26458,-0.11668 0.14552,0.0899 0.26458,0.21603 0.26458,0.2802 0,0.0642 -0.11906,0.11667 -0.26458,0.11667 -0.14552,0 -0.26458,-0.12609 -0.26458,-0.28019 z m 56.091668,-6.09085 c -0.31269,-0.22452 -0.24377,-0.26053 0.32489,-0.16977 0.53295,0.0851 0.76238,-0.0127 0.87698,-0.37379 0.29845,-0.94033 -0.69469,-1.4213 -1.42922,-0.69217 -0.2671,0.26515 -0.29898,0.24091 -0.16076,-0.12222 0.25339,-0.66571 1.16331,-0.86961 1.66077,-0.37215 0.32498,0.32498 0.36194,0.58476 0.16347,1.1491 -0.28192,0.80164 -0.82363,1.02079 -1.43613,0.581 z m -60.677778,-0.15534 c -0.30854,-0.30854 -0.19044,-0.61737 0.2361,-0.61737 0.24442,0 0.33557,0.12447 0.2237,0.30547 -0.11697,0.18925 -0.0726,0.23364 0.11668,0.11667 0.51056,-0.31554 0.34195,-0.90812 -0.28985,-1.01864 -0.54516,-0.0954 -0.55405,-0.12246 -0.10559,-0.32154 0.56788,-0.25209 0.95518,0.19766 0.96143,1.11648 0.004,0.57852 -0.71812,0.84328 -1.14247,0.41893 z m 3.59171,-0.94809 c -0.58693,-0.62678 -1.3644,-2.26967 -2.22246,-4.69636 -0.56766,-1.60537 -1.298,-5.08772 -1.10821,-5.284 0.21165,-0.21889 0.61252,0.63046 0.62076,1.31525 0.0129,1.06723 0.75021,3.90391 1.32288,5.0892 0.29114,0.60259 0.52934,1.18702 0.52934,1.29875 0,0.32555 1.27972,2.11987 1.78602,2.50421 0.39689,0.30129 0.40346,0.35263 0.046,0.35984 -0.22929,0.005 -0.66776,-0.25947 -0.97437,-0.58689 z m 3.015378,-3.77032 c -0.0838,-0.21828 -0.037,-0.39687 0.10399,-0.39687 0.14095,0 0.25628,0.17859 0.25628,0.39687 0,0.21828 -0.0468,0.39688 -0.10399,0.39688 -0.0572,0 -0.17251,-0.1786 -0.25628,-0.39688 z m -0.96265,-3.30729 c -0.15646,-0.29234 -0.17443,-0.52917 -0.0402,-0.52917 0.13367,0 0.30531,0.23813 0.38142,0.52917 0.0761,0.29104 0.0942,0.52917 0.0402,0.52917 -0.054,0 -0.22565,-0.23813 -0.38141,-0.52917 z m -0.222808,-1.32292 c 0,-0.3638 0.0601,-0.51263 0.133458,-0.33072 0.0734,0.1819 0.0734,0.47955 0,0.66145 -0.0734,0.18191 -0.133458,0.0331 -0.133458,-0.33073 z m 52.081148,0.26459 c 0,-0.14552 0.11906,-0.26459 0.26458,-0.26459 0.14552,0 0.26458,0.11907 0.26458,0.26459 0,0.14552 -0.11906,0.26458 -0.26458,0.26458 -0.14552,0 -0.26458,-0.11906 -0.26458,-0.26458 z m -57.685638,-2.79514 c -0.27732,-0.72941 -1.60129,-1.97131 -2.45601,-2.30377 -0.28862,-0.11227 -0.45815,-0.27075 -0.37672,-0.35217 0.0814,-0.0814 0.39883,-0.0138 0.70534,0.15021 0.30651,0.16404 0.70366,0.21413 0.88255,0.11131 0.1789,-0.10282 0.23571,-0.0882 0.12625,0.0324 -0.20724,0.22845 0.51565,1.18837 0.89493,1.18837 0.11937,0 0.10386,-0.29766 -0.0345,-0.66146 -0.1617,-0.4253 -0.15936,-0.66146 0.007,-0.66146 0.14192,0 0.25804,0.21828 0.25804,0.48507 0,0.26679 0.0797,0.56475 0.17706,0.66214 0.22238,0.22238 0.41886,2.02779 0.22068,2.02779 -0.0804,0 -0.26234,-0.30531 -0.40421,-0.67847 z m 5.05444,-2.1217 c 0.0127,-0.30823 0.0754,-0.37092 0.15985,-0.15985 0.0764,0.19099 0.067,0.4192 -0.0209,0.50711 -0.0879,0.0879 -0.15045,-0.0684 -0.13896,-0.34726 z m -4.78339,-0.65503 c 0,-0.15411 -0.11906,-0.20661 -0.26458,-0.11667 -0.14552,0.0899 -0.26459,0.0412 -0.26459,-0.10838 0,-0.14954 -0.17859,-0.20336 -0.39687,-0.1196 -0.76245,0.29258 -0.38972,-0.39829 0.43752,-0.81098 0.45892,-0.22894 0.86374,-0.41625 0.89959,-0.41625 0.0359,0 0.0652,0.41672 0.0652,0.92604 0,0.50932 -0.10716,0.92604 -0.23812,0.92604 -0.13097,0 -0.23813,-0.12609 -0.23813,-0.2802 z m 0.79375,-0.24896 c 0,-0.14553 0.12609,-0.26459 0.2802,-0.26459 0.15411,0 0.21432,-0.10658 0.13381,-0.23686 -0.12151,-0.19661 0.39492,-0.55689 0.79826,-0.55689 0.2559,0 0.0805,0.52154 -0.30513,0.90714 -0.47175,0.47176 -0.90714,0.54433 -0.90714,0.1512 z m 59.928128,-1.5875 c 0.0899,-0.14553 0.21602,-0.26459 0.2802,-0.26459 0.0642,0 0.11667,0.11906 0.11667,0.26459 0,0.14552 -0.12609,0.26458 -0.2802,0.26458 -0.1541,0 -0.20661,-0.11906 -0.11667,-0.26458 z M 95.390192,217.49269 c 0.12409,-0.4745 0.0602,-0.53231 -0.41988,-0.37994 -0.45041,0.14295 -0.53254,0.0919 -0.40147,-0.24966 0.0921,-0.2401 0.33421,-0.36436 0.54914,-0.28189 0.2114,0.0811 0.43416,0.1475 0.49502,0.1475 0.21868,0 0.10537,1.03037 -0.12925,1.17537 -0.13195,0.0816 -0.17405,-0.10357 -0.0936,-0.41138 z m 59.143708,-1.82232 c -0.0219,-0.29105 0.0718,-0.52917 0.20828,-0.52917 0.13648,0 0.25754,0.20836 0.26903,0.46302 0.0125,0.27661 0.0746,0.32987 0.15434,0.13229 0.0734,-0.1819 0.39142,-0.32694 0.70672,-0.32231 0.56099,0.008 0.56227,0.0167 0.0597,0.39687 -0.7222,0.54624 -1.35106,0.48295 -1.39804,-0.1407 z m -31.9354,-0.97029 c -0.0931,-0.24261 -0.0618,-0.54861 0.0696,-0.67999 0.14211,-0.1421 0.29153,0.0366 0.36886,0.44112 0.14446,0.75571 -0.17362,0.92901 -0.43845,0.23887 z m 33.47104,0.11039 c -0.0243,-0.53945 -0.3127,-0.59454 -0.76172,-0.14552 -0.24694,0.24694 -0.3175,0.2451 -0.3175,-0.008 0,-0.4496 0.76842,-0.70494 1.10589,-0.36748 0.15211,0.15211 0.21303,0.43581 0.13539,0.63044 -0.0954,0.23917 -0.14794,0.20379 -0.16206,-0.10914 z m -58.890678,-0.46302 c -0.29104,-0.12507 -0.4101,-0.23758 -0.26458,-0.25004 0.14552,-0.0125 0.0891,-0.13362 -0.12538,-0.26925 -0.29143,-0.1843 -0.3917,-0.80164 -0.39687,-2.44335 l -0.007,-2.19674 -0.85989,0.003 c -0.49257,0.001 -0.8599,-0.13271 -0.8599,-0.31409 0,-0.21283 0.32531,-0.27366 0.99219,-0.18553 l 0.99219,0.13113 -1.05834,-0.53566 c -1.22409,-0.61955 -1.55754,-0.65907 -2.28343,-0.27058 -0.42233,0.22602 -0.46559,0.35927 -0.2148,0.66146 0.17274,0.20813 0.56738,0.38782 0.87698,0.39931 0.30961,0.0115 0.40898,0.0826 0.22084,0.15813 -0.53382,0.21416 -1.6423,-0.15027 -1.6423,-0.53992 0,-0.96893 2.1141,-1.6525 2.84629,-0.92031 0.48819,0.48819 1.17487,-0.24026 1.01433,-1.07605 -0.0724,-0.37699 -0.0473,-1.1533 0.0558,-1.72513 0.1455,-0.80677 0.33536,-1.07923 0.8475,-1.2162 0.54406,-0.1455 0.66656,-0.0791 0.69732,0.37823 0.21747,3.23316 0.19069,3.16174 1.20513,3.21339 0.985318,0.0502 1.535678,0.273 1.535678,0.62179 0,0.30612 -1.251918,0.8206 -1.996828,0.8206 h -0.64901 v 2.91042 c 0,1.60073 -0.0893,2.90205 -0.19843,2.89182 -0.10914,-0.0102 -0.43657,-0.12092 -0.72761,-0.24599 z m 0.49219,-3.04261 -0.037,-2.77822 0.83073,-0.0186 c 1.11419,-0.0249 1.952498,-0.35838 1.540768,-0.61284 -0.172238,-0.10645 -0.422238,-0.12614 -0.555548,-0.0438 -0.13331,0.0824 -0.53204,0.0397 -0.88607,-0.0949 -0.55671,-0.21166 -0.66706,-0.46825 -0.81657,-1.89869 -0.0951,-0.90968 -0.2386,-1.71968 -0.31894,-1.80002 -0.32486,-0.32486 -0.63858,0.71931 -0.6424,2.13811 -0.002,0.82815 -0.13024,1.58372 -0.28447,1.67904 -0.17795,0.10998 -0.10545,0.31512 0.19844,0.5614 0.30822,0.24981 0.37189,0.43355 0.17866,0.51564 -0.20023,0.0851 -0.23157,0.43175 -0.0941,1.04113 0.11333,0.50248 0.0954,1.40591 -0.0398,2.00763 -0.20069,0.89318 -0.16373,1.18473 0.20129,1.58808 0.24591,0.27172 0.51795,0.49409 0.60454,0.49414 0.0866,5e-5 0.14079,-1.2501 0.12045,-2.77812 z m 53.438648,2.71188 c -0.11422,-0.1819 -0.21778,-1.2237 -0.23012,-2.3151 -0.0123,-1.09141 0.0237,-1.62719 0.0801,-1.19063 0.12532,0.96975 0.57165,1.51725 0.63629,0.78052 0.0935,-1.06548 0.15427,-1.85693 0.18628,-2.42586 0.0196,-0.3478 0.16781,-0.53857 0.36377,-0.46813 0.1819,0.0654 0.92604,-0.20625 1.65364,-0.60362 1.0455,-0.57099 1.34106,-0.88111 1.40942,-1.47892 l 0.0865,-0.75643 -1.14484,0.88872 c -0.62965,0.4888 -1.22966,1.00778 -1.33334,1.1533 -0.10368,0.14553 -0.4138,0.27727 -0.68914,0.29276 -0.4338,0.0244 -0.507,-0.18404 -0.54833,-1.56156 -0.0549,-1.82931 -0.19601,-2.18445 -0.70136,-1.76504 -0.36307,0.30131 -0.36506,1.50125 -0.004,2.50468 0.18761,0.52164 0.18437,0.52186 -0.22816,0.0156 -0.61953,-0.76035 -0.54976,-2.44024 0.11616,-2.79663 0.79133,-0.42351 1.0524,-0.10849 1.05692,1.27531 0.006,1.92932 0.21919,2.02817 1.79666,0.83424 0.76176,-0.57656 1.48876,-1.04829 1.61556,-1.04829 0.12679,0 0.29867,0.27148 0.38195,0.60329 0.17376,0.69234 -0.0525,1.77796 -0.3706,1.77796 -0.11815,0 -0.40044,0.18561 -0.6273,0.41247 -0.22686,0.22686 -0.74138,0.45141 -1.14338,0.499 -0.40199,0.0476 -0.8202,0.1001 -0.92934,0.1167 -0.24837,0.0378 -0.26512,2.14683 -0.017,2.14683 0.0998,0 0.45695,-0.25888 0.79375,-0.57529 0.3368,-0.3164 0.61237,-0.43372 0.61237,-0.26069 0,0.17302 -0.38232,0.54709 -0.8496,0.83126 -0.63956,0.38894 -0.9002,0.43704 -1.05428,0.19455 -0.20438,-0.32164 -0.33453,0.30429 -0.22694,1.09134 0.0267,0.19532 -0.15285,0.5024 -0.39902,0.6824 -0.36681,0.26822 -0.39211,0.43092 -0.14019,0.90165 0.32516,0.60756 0.20101,0.80621 -0.15226,0.24363 z m 0.85707,-0.46302 c 0.26026,-1.57894 0.40643,-1.89768 0.80079,-1.74635 0.56681,0.2175 1.89721,-0.34554 1.45795,-0.61702 -0.24521,-0.15154 -0.26233,-0.27051 -0.0572,-0.3973 0.16105,-0.0995 0.39949,-0.11506 0.52985,-0.0345 0.13036,0.0806 0.49977,-0.0663 0.82091,-0.32632 0.52875,-0.42815 0.54385,-0.50604 0.15986,-0.82472 -0.34284,-0.28453 -0.50127,-0.28783 -0.82731,-0.0172 -0.2218,0.18407 -0.4628,0.27515 -0.53556,0.20239 -0.0728,-0.0728 0.0527,-0.28583 0.27881,-0.47348 0.31553,-0.26186 0.56306,-0.27195 1.06473,-0.0434 0.84026,0.38285 0.83102,0.92581 -0.0253,1.48689 -0.37341,0.24467 -0.91184,0.64531 -1.19652,0.89033 -0.28468,0.24501 -0.77157,0.50772 -1.08198,0.58379 -0.55805,0.13675 -0.67893,0.28974 -1.24952,1.58148 -0.26678,0.60394 -0.27891,0.58094 -0.13954,-0.26459 z m -5.57541,-1.5875 c -0.45984,-0.1976 -0.46776,-0.22983 -0.0605,-0.24599 0.67767,-0.0269 1.12036,-1.12621 0.73985,-1.83721 -0.66377,-1.24025 -2.16195,-0.12863 -1.55955,1.15716 0.24391,0.52062 0.24127,0.52087 -0.16356,0.0156 -0.53575,-0.66871 -0.51916,-1.02674 0.0724,-1.56207 1.22138,-1.10533 2.71178,0.25249 2.12493,1.93591 -0.29987,0.86021 -0.34821,0.8827 -1.15358,0.53662 z m -42.92864,-0.17523 c -0.1819,-0.0734 -0.33073,-0.25717 -0.33073,-0.40838 0,-0.16704 0.15443,-0.14677 0.3935,0.0516 0.21643,0.17962 0.57362,0.25746 0.79375,0.17299 0.57642,-0.22119 0.49987,-1.42118 -0.11153,-1.74839 -0.60293,-0.32268 -0.89007,-0.35268 -0.72223,-0.0754 0.0661,0.10914 -0.046,0.35196 -0.24897,0.5396 -0.4831,0.44652 -0.47496,0.0348 0.0123,-0.62132 0.45628,-0.61446 1.11168,-0.33135 1.72249,0.74407 0.3199,0.56322 0.32554,0.74676 0.0337,1.09834 -0.34634,0.41732 -0.90022,0.50598 -1.5423,0.2469 z m 20.57135,-3.58071 c -0.3638,-0.5824 -1.26622,-1.75893 -2.00537,-2.61453 -0.73915,-0.8556 -1.67882,-2.18327 -2.08815,-2.95039 -0.40934,-0.76712 -0.98619,-1.66266 -1.2819,-1.99008 -0.29571,-0.32742 -0.41629,-0.59531 -0.26796,-0.59531 0.36589,0 0.85809,0.62365 2.03157,2.57414 0.92183,1.5322 3.06594,4.04044 3.45388,4.04044 0.0936,0 -0.0139,-0.28088 -0.23885,-0.62417 -0.40456,-0.61744 -0.30499,-1.49249 0.16981,-1.49249 0.13508,0 0.11046,-0.2525 -0.0547,-0.5611 -0.21105,-0.39435 -0.21382,-0.50765 -0.009,-0.38126 0.16406,0.10139 0.29098,-9e-5 0.29098,-0.23265 0,-0.2801 -0.24976,-0.41249 -0.77813,-0.41249 -0.74055,0 -1.21368,-0.30124 -0.9256,-0.58933 0.0737,-0.0737 0.51693,-0.0522 0.98499,0.0477 0.57196,0.1221 1.06794,0.0499 1.51249,-0.22024 l 0.66146,-0.40192 -0.54984,0.64804 c -0.30241,0.35642 -0.53113,0.88616 -0.50827,1.1772 0.0229,0.29104 0.0619,0.91612 0.0868,1.38907 0.0334,0.63449 0.16663,0.85442 0.50828,0.839 0.27601,-0.0125 0.32958,-0.0747 0.13265,-0.15422 -0.25724,-0.10381 -0.2473,-0.25193 0.0449,-0.66908 0.23501,-0.33553 0.32082,-0.87119 0.22961,-1.43328 -0.12254,-0.75514 -0.0663,-0.89753 0.35449,-0.89753 0.27508,0 0.64664,-0.23458 0.82569,-0.52129 0.27788,-0.44495 0.24517,-0.56431 -0.22334,-0.81505 -0.30188,-0.16156 -0.7325,-0.73065 -0.95691,-1.26464 -0.38625,-0.91909 -0.4199,-0.93913 -0.63053,-0.37558 -0.12238,0.32742 -0.29862,0.59531 -0.39164,0.59531 -0.093,0 -0.0928,-0.19884 4.4e-4,-0.44187 0.2633,-0.68613 -0.32485,-0.87261 -2.76605,-0.87699 -1.60313,-0.003 -2.42367,0.11322 -2.83464,0.40108 -0.4782,0.33494 -0.67175,0.34683 -1.11721,0.0687 -0.29634,-0.18507 -0.53838,-0.39714 -0.53787,-0.47128 0.003,-0.38953 9.82337,-0.52396 13.0298,-0.17837 1.66286,0.17923 2.05052,0.30567 2.05052,0.66881 0,0.24628 -0.23136,0.64588 -0.51413,0.888 -0.28277,0.24212 -1.32457,1.65946 -2.3151,3.14965 -2.39801,3.60762 -2.2241,3.36719 -3.12389,4.31894 -1.43679,1.51976 -1.51604,1.53241 -2.24896,0.35911 z m 2.72173,-1.90549 c 0.4012,-0.71782 0.5674,-1.29766 0.43388,-1.5137 -0.29515,-0.47756 -0.4908,-0.22034 -0.6098,0.80168 -0.055,0.47213 -0.23355,0.99202 -0.39684,1.15531 -0.29154,0.29154 -0.40297,0.72022 -0.18722,0.72022 0.0603,0 0.40231,-0.52358 0.75998,-1.16351 z m -0.51295,-0.89407 c -0.0676,-0.25854 0.15569,-0.79433 0.49622,-1.19062 0.73426,-0.85452 1.00112,-0.91748 0.81125,-0.19138 -0.0761,0.29104 -0.0146,0.52917 0.13671,0.52917 0.36322,0 1.91042,-1.55481 1.83206,-1.84107 -0.0336,-0.12267 0.40299,-0.83642 0.97017,-1.58611 1.32803,-1.75539 1.12675,-1.96833 -1.97491,-2.08943 -3.00511,-0.11732 -3.26061,-0.032 -2.82621,0.94362 0.18037,0.40509 0.58058,0.94111 0.88935,1.19115 0.73837,0.59793 0.54906,1.73821 -0.34499,2.07813 -0.35353,0.13441 -0.56548,0.36945 -0.471,0.52231 0.11603,0.18774 0.30335,0.16872 0.57728,-0.0586 0.28214,-0.23415 0.23795,-0.0239 -0.14523,0.69104 -0.52486,0.97927 -0.54225,1.4719 -0.052,1.4719 0.12331,0 0.16888,-0.21154 0.10127,-0.47008 z m 24.84011,3.11592 c 0,-0.50933 0.0544,-0.71769 0.121,-0.46302 0.0666,0.25466 0.0666,0.67138 0,0.92604 -0.0666,0.25466 -0.121,0.0463 -0.121,-0.46302 z m -24.60701,-0.3142 c 0.0576,-0.1728 0.2491,-0.34247 0.42554,-0.37703 0.17645,-0.0346 0.19803,-0.002 0.048,0.0722 -0.15006,0.0743 -0.20554,0.24394 -0.12329,0.37703 0.0823,0.1331 0.0135,0.24199 -0.15269,0.24199 -0.16624,0 -0.25512,-0.14139 -0.19752,-0.31419 z m -18.0523,-0.4934 c -1.54153,-0.18921 -3.13999,-1.00171 -2.61821,-1.33085 0.24001,-0.1514 0.46941,-0.0994 0.6554,0.14861 0.97914,1.30554 3.79627,0.85711 5.11034,-0.81346 1.21845,-1.549 0.97192,-3.42045 -0.70682,-5.36571 -0.72435,-0.83935 -1.19713,-1.15756 -1.71983,-1.15756 -0.39648,0 -0.72088,-0.10418 -0.72088,-0.23151 0,-0.12733 -0.17859,-0.23151 -0.39687,-0.23151 -0.21828,0 -0.39688,-0.11906 -0.39688,-0.26458 0,-0.75753 2.4162,0.35362 3.38184,1.55523 1.01168,1.2589 1.90983,2.92585 1.90983,3.54462 0,0.77376 -1.00037,2.50804 -1.74349,3.0226 -0.3785,0.26208 -0.88519,0.6551 -1.12599,0.87338 -0.31326,0.28397 -0.77653,0.3553 -1.62844,0.25074 z m 24.34167,-0.002 c 0,-0.15411 0.11906,-0.20661 0.26458,-0.11668 0.14552,0.0899 0.26459,0.21603 0.26459,0.2802 0,0.0642 -0.11907,0.11668 -0.26459,0.11668 -0.14552,0 -0.26458,-0.12609 -0.26458,-0.2802 z m 8.03995,-0.44741 c -2.70904,-1.53843 -3.43599,-3.63596 -2.18356,-6.30039 0.68312,-1.45326 2.72807,-3.08477 3.23327,-2.57957 0.23624,0.23624 -0.59359,0.92572 -0.8921,0.74123 -0.15024,-0.0929 -0.24574,-0.0707 -0.21221,0.0493 0.0335,0.11996 -0.15203,0.6183 -0.41234,1.10744 -0.36731,0.69018 -0.44048,1.25304 -0.32676,2.51354 0.21044,2.3327 0.25084,2.52662 0.49496,2.37575 0.12071,-0.0746 0.36309,-0.0187 0.53861,0.12421 0.62699,0.51052 2.32419,0.82308 3.02419,0.55694 1.09196,-0.41516 1.06435,-0.0122 -0.0654,0.95447 -1.18549,1.01436 -2.00992,1.13217 -3.19865,0.45711 z m 2.14918,-0.33504 c 0.0914,-0.1479 0.2688,-0.20549 0.39421,-0.12798 0.12541,0.0775 0.3028,0.0199 0.3942,-0.12797 0.0963,-0.1558 -0.12303,-0.2689 -0.52142,-0.2689 -0.37819,0 -1.12936,-0.2216 -1.66926,-0.49244 -0.53991,-0.27084 -1.1386,-0.43681 -1.33042,-0.36881 -0.194,0.0688 -0.31697,-0.0356 -0.27709,-0.23517 0.0394,-0.19733 -0.0854,-0.81939 -0.27742,-1.38235 -0.4777,-1.40066 -0.23603,-3.2096 0.54191,-4.05629 0.38475,-0.41876 0.47302,-0.63374 0.22908,-0.55791 -0.21828,0.0679 -0.74762,0.62106 -1.1763,1.22934 -1.24003,1.75952 -1.10618,4.30624 0.28476,5.41809 1.25614,1.0041 3.06804,1.52005 3.40775,0.97039 z m -35.19225,-0.63552 c 2.76324,-1.02689 3.56259,-4.23122 1.62199,-6.50202 l -0.56366,-0.65957 0.6224,0.52665 c 0.85992,0.72763 1.36575,1.79457 1.34164,2.82986 -0.0289,1.24293 -0.62595,3.0017 -0.99239,2.92356 -0.1706,-0.0364 -0.31019,0.14647 -0.31019,0.40632 0,0.25986 -0.20836,0.49314 -0.46302,0.51839 -0.25467,0.0252 -0.87974,0.11435 -1.38907,0.19801 l -0.92604,0.1521 z m -6.02997,-1.21225 c -0.14194,-0.5001 -0.2442,-0.57389 -0.41925,-0.30248 -0.16372,0.25386 -0.23151,0.14949 -0.23151,-0.35645 0,-0.71209 0.002,-0.713 0.52185,-0.19358 0.28702,0.28702 0.47568,0.74508 0.41925,1.01791 -0.0856,0.41372 -0.13377,0.38627 -0.29034,-0.1654 z m 21.50809,-3.67331 c 0,-0.12855 0.24493,-0.29777 0.54429,-0.37606 0.44661,-0.11679 0.48828,-0.0748 0.23218,0.23373 -0.34932,0.42091 -0.77647,0.49921 -0.77647,0.14233 z"
       id="path9" /></g></svg>
