<?xml version="1.0" encoding="UTF-8" standalone="no"?>
<!-- Created with Inkscape (http://www.inkscape.org/) -->

<svg
   width="31.004761mm"
   height="35.983334mm"
   viewBox="0 0 31.004761 35.983334"
   version="1.1"
   id="svg1"
   xml:space="preserve"
   xmlns:inkscape="http://www.inkscape.org/namespaces/inkscape"
   xmlns:sodipodi="http://sodipodi.sourceforge.net/DTD/sodipodi-0.dtd"
   xmlns="http://www.w3.org/2000/svg"
   xmlns:svg="http://www.w3.org/2000/svg"><sodipodi:namedview
     id="namedview1"
     pagecolor="#ffffff"
     bordercolor="#000000"
     borderopacity="0.25"
     inkscape:showpageshadow="2"
     inkscape:pageopacity="0.0"
     inkscape:pagecheckerboard="0"
     inkscape:deskcolor="#d1d1d1"
     inkscape:document-units="mm"
     inkscape:zoom="0.71891835"
     inkscape:cx="397.12437"
     inkscape:cy="561.25984"
     inkscape:window-width="1920"
     inkscape:window-height="1009"
     inkscape:window-x="3832"
     inkscape:window-y="-8"
     inkscape:window-maximized="1"
     inkscape:current-layer="layer1"><inkscape:page
       x="0"
       y="0"
       width="31.004761"
       height="35.983334"
       id="page2"
       margin="0"
       bleed="0" /></sodipodi:namedview><defs
     id="defs1" /><g
     inkscape:label="Layer 1"
     inkscape:groupmode="layer"
     id="layer1"
     transform="translate(-121.73729,-68.227706)"><path
       style="fill:#000000"
       d="m 136.76607,103.39598 c -0.26619,-0.60136 -0.28312,-0.89272 -0.0646,-1.11125 0.16291,-0.16291 0.29619,-0.6891 0.29619,-1.16932 0,-0.8163 -0.0584,-0.87312 -0.89817,-0.87312 -0.49399,0 -1.71438,-0.249758 -2.71198,-0.555028 -0.99759,-0.30527 -2.23052,-0.80051 -2.73985,-1.10055 -0.50932,-0.30004 -1.53535,-1.00509 -2.28006,-1.56678 -0.85742,-0.6467 -1.51243,-0.96047 -1.78594,-0.85552 -0.23755,0.0912 -0.43191,0.0439 -0.43191,-0.1051 0,-0.14896 0.14446,-0.31899 0.32102,-0.37785 0.22,-0.0733 0.14328,-0.33296 -0.24381,-0.82507 -0.54761,-0.69617 -0.57019,-0.70119 -0.74051,-0.16455 -0.13692,0.4314 -0.35591,0.5356 -0.99259,0.4723 -0.4493,-0.0447 -0.86576,-0.23006 -0.92547,-0.41196 -0.0671,-0.2044 0.14013,-0.33073 0.54254,-0.33073 0.35811,0 0.79152,-0.16918 0.96314,-0.37597 0.24579,-0.29616 0.16795,-0.66028 -0.36669,-1.71534 -0.37329,-0.73666 -0.85631,-2.02124 -1.07338,-2.85462 -0.21707,-0.83338 -0.39467,-2.35818 -0.39467,-3.38844 0,-1.03026 0.1776,-2.55506 0.39467,-3.38844 0.21707,-0.833383 0.71011,-2.13832 1.09565,-2.899859 0.38554,-0.76154 1.56027,-2.244378 2.61052,-3.295197 1.36639,-1.367141 2.45088,-2.170013 3.81276,-2.822676 1.04677,-0.501654 2.7603,-1.059855 3.80783,-1.240448 1.04754,-0.180593 2.05344,-0.443014 2.23534,-0.583158 0.21401,-0.164884 0.33073,-0.161352 0.33073,0.01001 0,0.14565 0.87527,0.394997 1.94504,0.554106 1.06977,0.159109 2.49934,0.52689 3.17682,0.817291 0.67748,0.290402 1.93225,1.003681 2.78838,1.585065 0.85612,0.581385 1.99722,1.567531 2.53577,2.191435 0.53855,0.623904 1.39495,1.954678 1.90311,2.957274 0.50816,1.002597 1.10123,2.669472 1.31793,3.704167 0.32348,1.5446 0.33945,2.26005 0.0892,3.99793 -0.16762,1.16417 -0.64877,2.9797 -1.06924,4.03451 -0.42047,1.05482 -0.69589,2.09662 -0.61205,2.31511 0.087,0.22661 0.48124,0.39725 0.91789,0.39725 0.42099,0 0.76544,0.10633 0.76544,0.23628 0,0.12995 -0.18833,0.30855 -0.41852,0.39688 -0.23018,0.0883 -0.63232,0.16059 -0.89364,0.16059 -0.26132,0 -0.62059,-0.17526 -0.79836,-0.38947 -0.27436,-0.33058 -0.51502,-0.18056 -1.59161,0.99219 -0.69761,0.75991 -1.95883,1.79701 -2.80272,2.30467 -0.84389,0.50765 -2.31514,1.18919 -3.26944,1.51452 -0.9543,0.32534 -2.2411,0.594588 -2.85956,0.598348 -1.09437,0.007 -1.12448,0.0302 -1.12448,0.87995 0,0.48022 0.12055,0.99368 0.26789,1.14102 0.14734,0.14734 0.19198,0.6474 0.0992,1.11125 -0.0928,0.46385 -0.30332,0.84336 -0.46789,0.84336 -0.16457,0 -0.46157,-0.36678 -0.65999,-0.81506 z m 0.33165,-4.513798 c 0.10319,-0.51594 0.0177,-1.1286 -0.22551,-1.61612 -0.2874,-0.57611 -0.31862,-0.9217 -0.11726,-1.29794 0.15094,-0.28203 0.23753,-0.88124 0.19243,-1.33158 l -0.082,-0.81879 -5.22552,-0.0468 c -2.87404,-0.0257 -5.22552,0.0375 -5.22552,0.14045 0,0.10297 0.64867,0.84634 1.44149,1.65193 0.97658,0.9923 2.14993,1.81259 3.63802,2.54333 1.20809,0.59325 2.85138,1.18347 3.65174,1.3116 0.80036,0.12813 1.52962,0.24689 1.62057,0.2639 0.0909,0.017 0.24015,-0.34299 0.33156,-0.80001 z m 4.14677,0.0332 c 0.98468,-0.29325 2.50308,-1.00914 3.37421,-1.59086 0.87114,-0.58173 2.04024,-1.56218 2.59801,-2.1788 l 1.01412,-1.12112 -3.96293,-0.14435 c -2.17961,-0.0794 -4.59794,-0.0915 -5.37407,-0.0268 -1.41114,0.1175 -1.41114,0.1175 -1.21114,1.07039 0.11,0.52409 0.18117,1.19102 0.15815,1.48206 -0.023,0.29104 -0.11507,1.09471 -0.20457,1.78594 -0.16271,1.25677 -0.16271,1.25677 0.82759,1.25677 0.54467,0 1.79595,-0.23993 2.78063,-0.53318 z m -4.19687,-6.41119 c 0.1669,-0.25791 0.27134,-0.24341 0.46959,0.0652 0.19961,0.31073 0.93188,0.40795 3.37344,0.44791 1.71517,0.0281 4.04335,-0.0143 5.17373,-0.0941 l 2.05526,-0.14514 -0.82701,-1.4934 c -0.45485,-0.82136 -1.30076,-2.3566 -1.8798,-3.41162 -0.93375,-1.70134 -1.13994,-1.91823 -1.82355,-1.91823 -0.42393,0 -0.77077,-0.11906 -0.77077,-0.26458 0,-0.14553 0.23701,-0.26459 0.52669,-0.26459 0.49292,0 0.4723,-0.11031 -0.32137,-1.71979 -0.46643,-0.945885 -0.92838,-1.719791 -1.02655,-1.719791 -0.0982,0 -0.44827,0.218462 -0.77801,0.485471 -0.59953,0.485471 -0.59953,0.485471 0.0726,1.61255 0.36966,0.6199 0.72255,0.97578 0.78419,0.79084 0.0616,-0.18494 0.13757,0.60746 0.16871,1.76088 0.0311,1.15342 0.0837,2.33526 0.11676,2.6263 0.0557,0.49064 -0.11807,0.53471 -2.38727,0.60524 -2.4474,0.0761 -2.4474,0.0761 -2.4474,0.8599 0,0.4311 -0.12428,0.78382 -0.27618,0.78382 -0.1519,0 -0.25686,-0.14883 -0.23323,-0.33073 0.0236,-0.1819 0.0288,-0.53909 0.0116,-0.79375 -0.0275,-0.40681 -0.34123,-0.46302 -2.58372,-0.46302 h -2.55236 l 0.16871,-1.99592 0.16872,-1.99591 -0.98979,0.17592 c -0.54438,0.0968 -1.06247,0.25078 -1.1513,0.34227 -0.0888,0.0915 -0.94236,1.55846 -1.89673,3.25994 -1.35989,2.42443 -1.64435,3.1112 -1.3151,3.175 0.23107,0.0448 2.56559,0.0521 5.18783,0.0162 3.47062,-0.0475 4.82609,-0.15543 4.98234,-0.39687 z m -7.46381,-6.94626 c 1.28111,-2.32833 2.80168,-5.066767 3.37905,-6.085413 0.57737,-1.018646 1.61761,-2.838912 2.31166,-4.045035 0.69405,-1.206124 1.18993,-2.264928 1.10196,-2.352897 -0.088,-0.08797 -0.83607,-0.02416 -1.66245,0.141801 -0.82637,0.16596 -2.16406,0.604617 -2.97263,0.974793 -0.80857,0.370177 -2.10203,1.160553 -2.87435,1.756393 -0.78989,0.609401 -1.96363,1.919743 -2.68293,2.995191 -0.78641,1.175773 -1.46049,2.583348 -1.75084,3.655977 -0.35965,1.32865 -0.44221,2.36519 -0.34657,4.35125 0.10102,2.09793 0.26572,2.91331 0.84325,4.17481 l 0.71771,1.56768 0.80343,-1.45061 c 0.44188,-0.79783 1.85161,-3.3556 3.13271,-5.68394 z m 20.33138,4.99129 c 0.29019,-0.89281 0.61011,-2.3936 0.71093,-3.33509 0.11107,-1.03712 0.0592,-2.32655 -0.13169,-3.2715 -0.17326,-0.857835 -0.71737,-2.405911 -1.20913,-3.440172 -0.49176,-1.034262 -1.43593,-2.483106 -2.09815,-3.219654 -0.66222,-0.736548 -1.7646,-1.710484 -2.44974,-2.164301 -0.68514,-0.453818 -2.20699,-1.118333 -3.3819,-1.476701 -1.1749,-0.358367 -2.39793,-0.651576 -2.71784,-0.651576 -0.31991,0 -0.58166,0.06434 -0.58166,0.142985 0,0.07864 0.93342,1.775283 2.07428,3.770313 1.14085,1.995029 3.29901,5.829982 4.79591,8.522116 1.49689,2.69214 3.01621,5.41266 3.37626,6.0456 0.36005,0.63295 0.75149,1.04967 0.86987,0.92605 0.11838,-0.12363 0.45267,-0.95525 0.74286,-1.84807 z m -12.91751,-2.4141 c 0,-0.71779 -0.15173,-1.08944 -0.54503,-1.33506 -0.40272,-0.25151 -0.52361,-0.56172 -0.46302,-1.18813 0.0559,-0.57771 0.27169,-0.93097 0.67752,-1.10901 0.50935,-0.22346 0.57126,-0.39574 0.42792,-1.190626 -0.0922,-0.511148 -0.20751,-0.975152 -0.2563,-1.03112 -0.0488,-0.05597 -0.45696,0.05078 -0.90705,0.237209 -0.45009,0.186432 -1.09114,0.708474 -1.42457,1.160097 -0.33342,0.45161 -0.67962,1.02948 -0.76934,1.28414 -0.10738,0.30483 -0.0304,0.46302 0.22546,0.46302 0.21371,0 0.38857,0.11906 0.38857,0.26459 0,0.14552 -0.29765,0.26458 -0.66146,0.26458 -0.3638,0 -0.66277,0.14883 -0.66437,0.33073 -0.002,0.1819 -0.0811,0.80396 -0.17655,1.38235 -0.17364,1.05162 -0.17364,1.05162 0.53208,0.58921 0.38814,-0.25432 0.70572,-0.3923 0.70572,-0.30662 0,0.0857 -0.12325,0.38608 -0.27389,0.66756 -0.25781,0.4817 -0.17232,0.51177 1.4552,0.51177 h 1.72911 z m 3.49467,-0.13981 c -0.61239,-0.62397 -1.11342,-1.23161 -1.11342,-1.35032 0,-0.11871 0.44068,0.17109 0.97929,0.644 0.60618,0.53224 1.01961,0.73888 1.08512,0.54238 0.0582,-0.17461 0.0338,-0.70113 -0.0541,-1.17007 -0.15179,-0.8091 -0.21232,-0.84761 -1.18644,-0.75471 -0.5647,0.0538 -1.10697,-0.0323 -1.20537,-0.19153 -0.11826,-0.19135 0.18504,-0.28942 0.89508,-0.28942 0.69509,0 1.07395,-0.11923 1.07395,-0.338 0,-0.1859 -0.18674,-0.60461 -0.41498,-0.93047 -0.22824,-0.32586 -0.5259,-0.52391 -0.66146,-0.44013 -0.13556,0.0838 -0.24648,-0.0302 -0.24648,-0.25336 0,-0.223136 -0.35128,-0.58735 -0.78061,-0.809369 -0.42934,-0.222018 -0.90559,-0.403669 -1.05833,-0.403669 -0.15275,0 -0.27773,0.44761 -0.27773,0.994688 0,0.70814 0.15244,1.08989 0.52917,1.32516 0.33705,0.21049 0.52917,0.61701 0.52917,1.11974 0,0.50272 -0.19212,0.90924 -0.52917,1.11973 -0.37673,0.23527 -0.52917,0.61702 -0.52917,1.32516 v 0.99469 h 2.03947 2.03946 z m -7.09688,-3.73241 c 0.37478,-0.6395 1.05007,-1.472941 1.50065,-1.85208 0.45058,-0.37914 1.04823,-0.689345 1.32811,-0.689345 0.39688,0 0.50975,-0.189228 0.51291,-0.859896 0.002,-0.472942 0.10798,-1.023977 0.23501,-1.224522 0.12702,-0.200544 0.36332,-0.282814 0.52511,-0.182822 0.16179,0.09999 0.29417,0.621893 0.29417,1.159781 0,0.893027 0.0862,1.007631 0.99218,1.319363 0.54571,0.187763 1.17762,0.403379 1.40425,0.479148 0.22663,0.07577 0.68384,-0.08231 1.01602,-0.351294 0.60395,-0.489055 0.60395,-0.489055 -0.78437,-2.994094 -0.76358,-1.377771 -1.75657,-3.188686 -2.20664,-4.024255 -0.45008,-0.835569 -0.87785,-1.519005 -0.95061,-1.518747 -0.0728,2.58e-4 -0.71772,1.100624 -1.43324,2.445258 -0.71551,1.344634 -1.93358,3.546301 -2.70681,4.892595 -0.77322,1.346293 -1.64874,2.92387 -1.94558,3.50573 l -0.53971,1.05792 h 1.03857 c 0.94745,0 1.09836,-0.10201 1.71998,-1.16274 z m -10.553,9.70052 c -0.29104,-0.0561 -0.69141,-0.15606 -0.8897,-0.22203 -0.25874,-0.0861 -0.28212,-0.21441 -0.0828,-0.45459 0.15276,-0.18406 0.58701,-0.36025 0.96499,-0.39153 0.41849,-0.0346 0.74915,0.10442 0.84552,0.35557 0.087,0.22685 0.0532,0.50295 -0.0753,0.61356 -0.12846,0.11061 -0.47169,0.15517 -0.76273,0.099 z m 27.91354,-0.41507 c 0,-0.18918 0.12886,-0.47282 0.28636,-0.63032 0.20542,-0.20542 0.50533,-0.17712 1.06111,0.10014 0.42612,0.21258 0.70695,0.49622 0.62407,0.63032 -0.0829,0.1341 -0.56038,0.24382 -1.06111,0.24382 -0.57063,0 -0.91043,-0.12838 -0.91043,-0.34396 z M 136.66695,70.326737 c -0.25467,-0.150282 -0.46302,-0.445918 -0.46302,-0.656968 0,-0.211051 0.23812,-0.621853 0.52916,-0.912895 0.29104,-0.291041 0.62811,-0.529166 0.74904,-0.529166 0.12093,0 0.38333,0.305407 0.5831,0.678683 0.26488,0.494946 0.28722,0.79937 0.0825,1.124479 -0.1544,0.245188 -0.44656,0.473541 -0.64924,0.507452 -0.20269,0.03391 -0.57688,-0.0613 -0.83154,-0.211585 z"
       id="path6" /></g></svg>
