<?xml version="1.0" encoding="UTF-8" standalone="no"?>
<!-- Created with Inkscape (http://www.inkscape.org/) -->

<svg
   width="36.074688mm"
   height="35.615921mm"
   viewBox="0 0 36.074688 35.615921"
   version="1.1"
   id="svg1"
   xml:space="preserve"
   xmlns="http://www.w3.org/2000/svg"
   xmlns:svg="http://www.w3.org/2000/svg"><defs
     id="defs1" /><g
     id="layer1"
     transform="translate(-120.19767,-21.819125)"><path
       style="fill:#000000"
       d="m 137.82712,57.312314 c -0.35208,-0.35208 -0.19836,-4.46797 0.18653,-4.99433 0.32917,-0.45017 0.3885,-0.26283 0.55687,1.7584 0.10364,1.24424 0.14621,2.48015 0.0946,2.74646 -0.10148,0.52357 -0.54489,0.78257 -0.83799,0.48947 z m -6.00273,-2.56776 c 0,-0.55512 0.67093,-1.75928 0.98023,-1.75928 0.27651,0 0.34068,0.14238 0.20868,0.46302 -0.10484,0.25466 -0.25052,0.67138 -0.32375,0.92604 -0.1081,0.37597 -0.86516,0.69992 -0.86516,0.37022 z m 11.7979,-0.56746 c -0.23322,-0.9292 -0.22805,-1.03559 0.0548,-1.12988 0.1379,-0.046 0.31192,0.12965 0.3867,0.39026 0.0748,0.26062 0.22174,0.6822 0.32658,0.93686 0.13165,0.31979 0.068,0.46303 -0.20589,0.46303 -0.21807,0 -0.47107,-0.29713 -0.56221,-0.66027 z m -17.48636,-2.514602 c -0.18692,-0.302449 1.33156,-2.116799 1.77161,-2.116799 0.48276,0 0.15615,0.744737 -0.68353,1.558592 -0.60997,0.591204 -0.9575,0.769489 -1.08808,0.558207 z m 9.69125,-0.29809 c -4.60811,-0.765539 -9.08984,-5.358784 -9.48543,-9.721439 l -0.14711,-1.62227 H 124.334 c -1.36172,0 -1.99069,0.117678 -2.34558,0.438855 -0.39466,0.357157 -0.60787,0.382841 -1.14531,0.137964 -0.75338,-0.343263 -0.86341,-1.12975 -0.24461,-1.748545 0.52271,-0.522714 1.01282,-0.529163 1.43631,-0.0189 0.23831,0.287151 0.86904,0.396875 2.28135,0.396875 h 1.95198 l 0.003,-0.859896 c 0.008,-2.264103 1.34057,-4.885985 3.62363,-7.127147 1.77081,-1.738318 3.672,-2.771231 5.83252,-3.168806 1.98996,-0.36619 2.32576,-0.561369 2.26114,-1.314228 -0.15742,-1.833892 -0.16947,-4.725049 -0.0203,-4.874204 0.0942,-0.09416 0.31511,-0.08227 0.49098,0.02642 0.23378,0.144484 0.27904,0.969866 0.16829,3.069203 l -0.15149,2.871571 h 0.87978 c 1.33422,0 4.08363,0.936339 5.56572,1.895464 0.72761,0.470862 1.42107,0.829371 1.54102,0.796686 0.11996,-0.03269 0.15253,0.04667 0.0724,0.17635 -0.0802,0.129678 0.10346,0.46005 0.408,0.73416 1.44668,1.302086 3.40255,5.302676 3.40255,6.959653 v 0.81477 h 1.96876 c 1.08282,0 2.04235,-0.119062 2.13228,-0.264583 0.27987,-0.452835 1.42179,-0.29224 1.70665,0.240014 0.2059,0.384733 0.15338,0.648681 -0.22111,1.111151 -0.47345,0.584682 -0.51591,0.590338 -1.17748,0.156861 -0.48159,-0.315551 -1.24156,-0.449693 -2.54771,-0.449693 h -1.86139 v 0.770177 c 0,1.142317 -0.8639,3.701023 -1.69066,5.007406 -0.9625,1.520864 -3.10215,3.535812 -4.64817,4.377259 -2.36526,1.287339 -5.14999,1.692109 -8.17921,1.188867 z m 2.20442,-0.743396 c 0.0842,-0.136182 -0.41482,-0.330311 -1.10886,-0.431399 -1.75216,-0.255203 -3.78631,-1.046808 -5.05903,-1.968762 -1.28611,-0.931656 -1.89284,-0.533308 -0.67731,0.444691 1.71364,1.378774 6.37809,2.711269 6.8452,1.95547 z m 3.61982,-0.248934 c 1.92547,-0.662457 3.42859,-1.446792 4.01468,-2.094874 0.74829,-0.827433 0.0372,-0.99667 -0.89432,-0.212847 -1.07283,0.902726 -2.83139,1.655078 -4.75167,2.03287 -0.86963,0.171088 -1.58114,0.414641 -1.58114,0.541229 0,0.394156 1.70303,0.25294 3.21245,-0.266378 z m -3.74161,-1.056553 c 0,-0.126595 -0.52621,-0.289484 -1.16934,-0.361975 -0.64314,-0.07249 -1.98259,-0.529115 -2.97656,-1.014721 -0.99398,-0.485606 -1.9131,-0.933476 -2.0425,-0.995267 -0.12939,-0.06179 -0.1591,0.01088 -0.066,0.161492 0.36572,0.591746 2.61776,1.677877 4.19558,2.023478 2.11753,0.463818 2.05884,0.458488 2.05884,0.186993 z m 4.7625,-0.870354 c 2.1808,-0.973356 4.23707,-3.05871 4.9677,-5.037978 0.64929,-1.758906 0.95416,-3.386494 0.63435,-3.386494 -0.13352,0 -0.32137,0.491647 -0.41746,1.092548 -0.6097,3.812874 -4.41278,7.489679 -8.11482,7.845399 -0.71671,0.06887 -1.30311,0.236421 -1.30311,0.372344 0,0.4279 2.42845,-0.08025 4.23334,-0.885819 z m -4.7625,-0.619264 c 0,-0.218281 0.11906,-0.396875 0.26458,-0.396875 0.14552,0 0.26458,0.178594 0.26458,0.396875 0,0.863983 2.87011,0.220454 4.85217,-1.087943 0.97859,-0.645986 0.99885,-0.689121 0.55431,-1.180335 -0.4889,-0.540228 -0.17114,-0.724921 0.35023,-0.20356 0.40373,0.403733 0.94872,-0.04708 1.7841,-1.475819 0.56138,-0.960112 1.29611,-3.328384 1.0326,-3.328384 -0.0559,0 -0.86885,0.525276 -1.80659,1.167281 -0.93774,0.642005 -1.95093,1.245341 -2.25153,1.340746 -0.64879,0.205918 -0.67636,0.394193 -0.15808,1.079424 0.56717,0.749856 0.49013,1.069254 -0.12387,0.51359 -0.29105,-0.263389 -0.52917,-0.643218 -0.52917,-0.844066 0,-0.279051 -0.1207,-0.30058 -0.51177,-0.09128 -0.28148,0.15064 -0.84703,0.275518 -1.25677,0.277505 -1.46712,0.0071 -1.93563,0.269873 -1.93563,1.085579 0,0.41959 -0.11906,0.762891 -0.26458,0.762891 -0.14552,0 -0.26458,-0.333366 -0.26458,-0.740813 0,-0.692035 -0.1038,-0.762251 -1.57637,-1.066406 -1.64428,-0.339621 -4.11633,-1.59647 -5.86665,-2.982752 l -1.02365,-0.810744 v 0.77493 c 0,1.268486 1.57932,4.023632 2.97136,5.183591 1.89012,1.574994 5.49531,2.642102 5.49531,1.626569 z m -5.55625,-2.248958 c 0,-0.145521 0.18562,-0.264583 0.41249,-0.264583 0.22687,0 0.3389,0.119062 0.24896,0.264583 -0.0899,0.145521 -0.27555,0.264583 -0.41249,0.264583 -0.13693,0 -0.24896,-0.119062 -0.24896,-0.264583 z m -2.04856,1.695775 c 0.086,-0.08597 -0.26947,-0.711048 -0.78986,-1.389063 -1.17119,-1.525911 -1.81175,-2.969958 -2.04327,-4.606191 -0.0978,-0.691224 -0.30577,-1.256771 -0.46216,-1.256771 -0.77592,0 0.58123,4.481618 1.91452,6.322172 0.76472,1.055661 1.05768,1.252949 1.38077,0.929853 z m 17.11106,-0.830643 c 1.41758,-1.719772 2.87205,-6.421382 1.98649,-6.421382 -0.2468,0 -0.38024,0.280879 -0.38024,0.80036 0,1.23194 -0.92109,3.571987 -1.96666,4.996333 -0.51907,0.707114 -0.94376,1.359007 -0.94376,1.448651 0,0.427993 0.56801,0.06913 1.30417,-0.823962 z m -16.78811,-0.920297 c -1.04033,-1.236364 -1.727,-2.754728 -1.89773,-4.196264 -0.14598,-1.23256 -0.61,-1.859122 -0.61,-0.823676 0,1.690386 2.30864,6.373069 2.94739,5.978296 0.1327,-0.08201 -0.0651,-0.513272 -0.43966,-0.958356 z m 4.27321,-3.185981 c -0.35988,-0.472942 -0.73344,-1.177 -0.83014,-1.564571 -0.11586,-0.464349 -0.41144,-0.763814 -0.8667,-0.878075 -0.51015,-0.128042 -0.59695,-0.23145 -0.33179,-0.395324 0.19749,-0.122059 0.51871,-0.160671 0.7138,-0.0858 0.21784,0.08359 0.35535,-0.05349 0.35636,-0.355209 0.002,-0.521531 0.37695,-1.332746 1.19025,-2.573245 l 0.49762,-0.759001 -1.17548,0.597804 c -1.7981,0.914444 -4.17363,2.591523 -4.47898,3.162069 -0.23742,0.443612 -0.10746,0.605532 0.98585,1.228363 0.69262,0.394567 1.55697,0.979633 1.92077,1.300146 0.87373,0.76976 1.61239,1.164839 2.19628,1.174698 0.42135,0.0071 0.40077,-0.09146 -0.17784,-0.85185 z m 9.846,-0.952985 c 1.21394,-0.820273 2.25287,-1.565377 2.30875,-1.655787 0.0559,-0.09041 -0.89682,-0.835619 -2.11709,-1.656021 -1.52025,-1.022072 -2.36482,-1.435565 -2.68288,-1.313512 -0.30734,0.117937 -0.40232,0.07802 -0.28109,-0.118144 0.10071,-0.162949 -0.0505,-0.421308 -0.33607,-0.57413 -0.83177,-0.44515 -0.95411,-0.323963 -0.33656,0.333391 0.31583,0.336187 0.7645,1.169625 0.99703,1.852084 0.23254,0.682458 0.54912,1.240833 0.70352,1.240833 0.15439,0 0.0837,0.217735 -0.15717,0.483855 -0.24083,0.26612 -0.43788,0.666224 -0.43788,0.88912 0,0.222896 -0.29518,0.840247 -0.65597,1.371892 l -0.65597,0.966627 0.72212,-0.164401 c 0.39716,-0.09042 1.71533,-0.835534 2.92926,-1.655807 z m -5.39494,0.644655 c 1.41131,-0.589683 2.03438,-2.237077 0.87269,-2.307389 l -0.59531,-0.03603 0.59531,-0.114662 c 0.79291,-0.152722 0.77291,-0.982647 -0.0434,-1.798917 -1.18585,-1.185848 -2.82847,-1.185848 -4.01432,0 -1.16154,1.161541 -0.69701,3.605474 0.81012,4.262132 1.02926,0.448447 1.29065,0.447882 2.37487,-0.0051 z m -1.91866,-1.795107 c -0.44696,-0.44696 -0.39551,-0.852811 0.1734,-1.367664 0.83444,-0.755156 1.8424,0.05663 1.48164,1.193271 -0.17717,0.558209 -1.16694,0.662501 -1.65504,0.174393 z m -15.88823,-0.608542 c 0,-0.138245 -0.128,-0.294018 -0.28443,-0.346163 -0.15644,-0.05215 -0.28443,0.103628 -0.28443,0.346163 0,0.242535 0.12799,0.398308 0.28443,0.346163 0.15643,-0.05214 0.28443,-0.207918 0.28443,-0.346163 z m 33.9453,-0.15489 c -0.0852,-0.137839 -0.26767,-0.180916 -0.40551,-0.09573 -0.13784,0.08519 -0.18091,0.267668 -0.0957,0.405507 0.0852,0.137839 0.26766,0.180916 0.4055,0.09573 0.13784,-0.08519 0.18092,-0.267667 0.0957,-0.405507 z m -27.83401,-2.11907 c 0.98236,-4.185847 4.33342,-7.336143 8.73183,-8.208704 1.83193,-0.363419 2.03731,-0.819514 0.26459,-0.587564 -2.70631,0.354103 -5.59925,1.924189 -7.30911,3.96687 -0.98879,1.181251 -2.24516,3.982278 -2.44712,5.455787 -0.26421,1.927604 0.26229,1.49356 0.75981,-0.626389 z m 1.05409,0.722506 c 0.24581,-2.18081 1.93946,-4.815889 3.99387,-6.213895 1.26478,-0.860672 3.36534,-1.627359 4.45861,-1.627359 0.41064,0 0.74662,-0.119063 0.74662,-0.264584 0,-0.535643 -2.769,0.03136 -4.48257,0.91789 -1.62511,0.840758 -3.605,2.956703 -4.37771,4.678532 -0.78289,1.744508 -1.1674,3.663995 -0.73397,3.663995 0.14575,0 0.32357,-0.519561 0.39515,-1.154579 z m 19.24962,-1.34317 c -0.76964,-2.568814 -3.34803,-5.295314 -5.95939,-6.301692 -1.48348,-0.571716 -3.69476,-0.889894 -3.45173,-0.496667 0.10206,0.165151 0.53127,0.300275 0.95379,0.300275 0.42251,0 1.45427,0.256691 2.2928,0.570424 2.80219,1.048435 5.4829,4.328987 6.06879,7.426755 0.19708,1.042012 0.22164,1.068904 0.31243,0.341979 0.0542,-0.433932 -0.0433,-1.262415 -0.21669,-1.841074 z m 1.43865,0.63147 c -0.84314,-4.424968 -5.00572,-8.283101 -9.57094,-8.870947 -1.94394,-0.250312 -1.77338,0.253604 0.21071,0.622586 2.39028,0.444519 4.31542,1.439315 5.81784,3.006317 1.55168,1.618371 2.90692,4.201691 3.0992,5.907633 0.0805,0.714128 0.26976,1.20069 0.46706,1.20069 0.26366,0 0.25876,-0.382957 -0.0239,-1.866279 z m -18.23605,0.334567 c 1.16492,-0.909895 4.55575,-2.54249 5.85255,-2.817849 0.47107,-0.100024 0.94616,-0.425092 1.10658,-0.757129 l 0.2811,-0.581852 0.0179,0.595313 c 0.0141,0.468648 0.17272,0.595357 0.74551,0.595521 0.97475,2.8e-4 3.75486,1.341014 5.78577,2.790242 2.39737,1.710725 2.57632,1.627009 1.67448,-0.783353 -0.65668,-1.755139 -2.71769,-4.175653 -3.34915,-3.93334 -0.2783,0.106794 -0.36299,0.05955 -0.24256,-0.135316 0.26617,-0.430665 -1.72717,-1.376528 -3.29132,-1.56178 -1.20491,-0.142703 -1.30482,-0.111196 -1.30482,0.411484 0,0.311312 -0.11907,0.566021 -0.26459,0.566021 -0.14552,0 -0.26458,-0.254308 -0.26458,-0.56513 0,-0.516781 -0.10091,-0.551299 -1.1795,-0.403462 -2.88203,0.395026 -5.72528,2.634745 -6.72009,5.293636 -0.65017,1.73773 -0.75232,2.76042 -0.23635,2.366276 0.1819,-0.138952 0.80698,-0.624629 1.38906,-1.079282 z m 0.66146,-3.510986 c 0,-0.154109 0.11906,-0.206614 0.26458,-0.116677 0.14552,0.08994 0.26459,0.216026 0.26459,0.280198 0,0.06417 -0.11907,0.116677 -0.26459,0.116677 -0.14552,0 -0.26458,-0.126089 -0.26458,-0.280198 z m 12.33974,-0.116677 c 0.0838,-0.218281 0.19908,-0.396875 0.25627,-0.396875 0.0572,0 0.10399,0.178594 0.10399,0.396875 0,0.218281 -0.11533,0.396875 -0.25628,0.396875 -0.14095,0 -0.18775,-0.178594 -0.10398,-0.396875 z m 4.7345,16.763029 c -0.49065,-0.583109 -0.61648,-0.915161 -0.42091,-1.110735 0.19557,-0.195574 0.55596,-0.0105 1.20553,0.619082 0.5096,0.49393 0.92656,0.99376 0.92656,1.110735 0,0.524755 -1.07638,0.135336 -1.71118,-0.619082 z m -1.46382,-2.094269 c 0,-0.154109 0.11906,-0.206613 0.26458,-0.116677 0.14552,0.08994 0.26458,0.216026 0.26458,0.280199 0,0.06417 -0.11906,0.116676 -0.26458,0.116676 -0.14552,0 -0.26458,-0.126089 -0.26458,-0.280198 z m -24.48716,-3.445315 c -0.16287,-0.263534 1.68987,-1.168303 1.92037,-0.937798 0.24192,0.24192 -0.18215,0.640971 -0.9748,0.91729 -0.49992,0.174274 -0.8459,0.181778 -0.94557,0.02051 z m 29.44809,-0.129988 c -0.79899,-0.43346 -1.02192,-1.084781 -0.26458,-0.772996 0.25466,0.104839 0.67138,0.250526 0.92604,0.323749 0.25466,0.07322 0.46302,0.29784 0.46302,0.499149 0,0.457288 -0.20647,0.448125 -1.12448,-0.0499 z m 1.07487,-4.791906 c 0.191,-0.07643 0.4192,-0.06703 0.50712,0.02089 0.0879,0.08792 -0.0683,0.150453 -0.34726,0.138965 -0.30823,-0.0127 -0.37092,-0.07539 -0.15986,-0.159853 z m -29.99576,-5.750752 c -0.28224,-0.206383 -0.44784,-0.440571 -0.36799,-0.520417 0.23304,-0.233045 1.66146,0.232655 1.77703,0.579356 0.14553,0.436594 -0.78456,0.39769 -1.40904,-0.05894 z m 28.42104,-0.162726 c 0.66443,-0.553526 1.62433,-0.70081 1.62433,-0.249233 0,0.305786 -1.12579,0.791774 -1.80316,0.778399 -0.35996,-0.0071 -0.32553,-0.108995 0.17883,-0.529166 z m -24.96761,-5.366965 c -0.66372,-0.573739 -0.94342,-0.99451 -0.8074,-1.214603 0.15164,-0.245352 0.48712,-0.06433 1.23603,0.666963 1.63185,1.593464 1.28858,2.03205 -0.42863,0.54764 z m 21.43289,0.613788 c -0.0898,-0.145234 0.29017,-0.680815 0.84428,-1.190178 1.25305,-1.151859 1.60169,-0.554472 0.38593,0.661289 -0.86869,0.868689 -0.9884,0.920153 -1.23021,0.528889 z m -15.95008,-3.50625 c -0.40535,-0.493166 -0.49576,-1.31963 -0.15737,-1.438579 0.16337,-0.05743 0.35823,0.108814 0.43301,0.369426 0.0748,0.260612 0.22173,0.6822 0.32657,0.936861 0.21943,0.533004 -0.19755,0.624606 -0.60221,0.132292 z m 11.05497,-0.147868 c 0,-0.561604 0.6801,-1.575324 0.9056,-1.349829 0.21507,0.215073 -0.37339,1.828426 -0.6669,1.828426 -0.13129,0 -0.2387,-0.215368 -0.2387,-0.478597 z"
       id="path3" /></g></svg>
