<svg width="86" height="679" viewBox="0 0 86 679" fill="none" xmlns="http://www.w3.org/2000/svg">
<g clip-path="url(#clip0_41_2)">
<path d="M41.1107 116.466C41.106 115.605 40.4067 114.119 39.5579 113.164C38.7091 112.209 38.0146 110.969 38.0146 110.408C38.0146 109.846 37.4866 108.911 36.8413 108.329C35.8727 107.456 35.7466 106.855 36.1184 104.88C36.53 102.694 36.445 102.442 35.1296 101.944C31.432 100.546 29.89 94.2346 32.4084 90.8067C33.7634 88.9622 37.131 86.7107 38.9406 86.4394C39.9643 86.286 40.2076 85.7844 40.3646 83.5032C40.5354 81.0212 40.4449 80.7892 39.4386 81.1323C37.039 81.9504 36.3187 81.9606 35.9584 81.1814C35.4215 80.0201 36.0051 79.0775 37.7377 78.3079C39.5096 77.5208 40.3793 77.9604 39.2616 79.0782C38.6166 79.7233 38.6549 79.8591 39.4823 79.8591C40.2833 79.8591 40.4839 79.3016 40.4839 77.0756C40.4839 74.7542 40.2816 74.2387 39.2654 73.971C37.3874 73.4763 35.5453 71.1906 35.5453 69.3553C35.5453 67.5596 37.5671 65 38.9854 65C40.1648 65 40.0976 65.3632 38.6319 66.9097C37.147 68.4766 37.078 69.5174 38.3583 71.0346C40.3122 73.35 45.4226 71.7909 45.4226 68.8795C45.4226 68.1951 45.0059 67.2893 44.4966 66.8665C43.4386 65.9884 43.2751 65 44.1879 65C44.5274 65 45.3608 65.4611 46.0399 66.0248C47.8966 67.5659 47.745 71.3171 45.7593 72.9652C44.9259 73.657 43.8147 74.2229 43.2899 74.2229C41.8442 74.2229 42.0615 76.9085 43.5706 77.6907C45.1392 78.5038 45.1735 79.8591 43.6254 79.8591C42.6181 79.8591 42.415 80.3089 42.2364 82.9344C42.0334 85.9171 42.0738 86.0099 43.5706 86.02C45.5088 86.0329 49.7788 87.6203 50.8998 88.7447C51.4226 89.2691 52.6634 89.5944 54.1407 89.5944C55.4573 89.5944 56.5345 89.825 56.5345 90.1068C56.5345 90.3887 55.9987 90.6192 55.3439 90.6192C54.6891 90.6192 53.699 90.9964 53.1436 91.4573C52.39 92.0828 51.9559 92.1478 51.4327 91.7135C50.3991 90.8557 47.8919 90.9878 47.8919 91.9002C47.8919 92.9061 47.2843 92.8757 46.3571 91.8232C45.6393 91.0084 44.1711 90.9319 35.8539 91.2758C32.0616 91.4326 31.2858 96.9542 34.6469 99.8661C35.8933 100.946 36.9794 101.379 38.4388 101.379C40.47 101.379 40.4839 101.363 40.4839 98.9198C40.4839 97.5671 40.1803 96.2084 39.8091 95.9003C39.3209 95.4951 39.4259 94.9708 40.1888 94.0045C41.4146 92.4517 42.3359 92.2743 42.3359 93.591C42.3359 94.0983 42.6379 94.764 43.007 95.0704C43.4903 95.4715 43.4903 95.7237 43.007 95.9717C42.6379 96.161 42.3359 97.3365 42.3359 98.5839V100.852L44.3422 99.8365C47.2275 98.3764 51.2403 98.4757 53.1421 100.054C55.2623 101.814 55.6588 103.601 54.2769 105.169C53.0881 106.518 51.5066 106.538 49.8379 105.227C48.7171 104.346 49.9415 102.404 51.6176 102.404C53.2222 102.404 53.1624 101.563 51.5053 100.827C49.4736 99.9243 44.7544 100.551 43.4405 101.898C41.9995 103.375 41.8513 108.553 43.2501 108.553C44.8371 108.553 45.0605 110.915 43.6309 112.581C42.9186 113.412 42.3316 114.632 42.3264 115.293C42.3217 115.954 42.0476 116.84 41.7185 117.263C41.2601 117.852 41.1179 117.665 41.1107 116.466ZM42.9532 110.594C42.9532 109.954 41.3662 109.637 40.4676 110.098C39.7794 110.451 39.7766 110.663 40.4513 111.338C41.0721 111.959 41.4654 112.014 42.1093 111.571C42.5735 111.251 42.9532 110.811 42.9532 110.594ZM40.4839 105.699C40.4839 103.033 40.3927 102.856 39.0949 103.009C37.9225 103.147 37.7167 103.471 37.7753 105.085C37.843 106.946 38.8469 108.553 39.9422 108.553C40.2401 108.553 40.4839 107.268 40.4839 105.699ZM52.2132 103.368C52.2132 103.087 51.9354 102.998 51.5958 103.173C51.2563 103.347 50.9785 103.72 50.9785 104.002C50.9785 104.283 51.2563 104.372 51.5958 104.197C51.9354 104.023 52.2132 103.65 52.2132 103.368ZM40.2662 88.7305C40.0758 88.5724 39.4217 88.6116 38.8129 88.8176C37.7805 89.1668 37.7891 89.2183 38.9405 89.5807C40.1031 89.9467 41.0217 89.3576 40.2662 88.7305ZM44.4965 89.6134C45.7797 89.1755 45.7825 89.1776 42.7989 88.3787C42.0178 88.1696 41.7186 88.3688 41.7186 89.0981C41.7186 90.1646 42.4721 90.3043 44.4965 89.6134ZM26.3257 91.4235L25 90.2522L26.5687 89.3991C27.4314 88.9299 28.1373 88.2055 28.1373 87.7893C28.1373 87.3731 28.4452 87.0325 28.8216 87.0325C29.2352 87.0325 29.359 87.5179 29.1346 88.2601C28.8801 89.1016 29.0616 89.5826 29.7117 89.7896C30.4347 90.0199 30.511 90.3224 30.0331 91.0637C29.0572 92.5771 27.7726 92.7018 26.3257 91.4235Z" fill="#9046A4"/>
</g>
<g clip-path="url(#clip1_41_2)">
<path d="M40.5363 206.593C40.5018 205.552 39.9656 204.352 39.2244 203.657C37.5828 202.118 36.8407 198.766 36.747 192.47C36.705 189.652 36.4151 186.976 36.1028 186.524C35.3303 185.406 33.3062 184.528 31.5024 184.528C29.8392 184.528 29.5025 183.784 30.945 183.297C32.6191 182.731 36.3437 183.981 37.6617 185.552C38.3528 186.376 39.1383 186.93 39.4073 186.783C39.6763 186.637 39.8963 183.764 39.8963 180.398V174.28H34.3718C28.9241 174.28 27.1198 173.688 30.6646 173.063C31.6641 172.887 34.0016 172.743 35.8592 172.743C38.8025 172.743 39.2873 172.602 39.6326 171.643C39.9064 170.883 39.7282 170.395 39.0552 170.063C38.1569 169.62 38.1538 169.486 39.0161 168.326C39.682 167.431 39.901 166.154 39.7781 163.886L39.6055 160.702L37.8609 163.135C36.041 165.673 35.0796 165.988 34.7714 164.147C34.5242 162.67 35.6462 160.959 36.8637 160.955C37.4122 160.953 38.3189 160.243 38.8786 159.376C39.9856 157.662 40.2697 153.785 39.2883 153.785C38.0188 153.785 35.8256 151.247 35.8256 149.778C35.8256 147.907 38.025 145.27 38.9244 146.062C39.3674 146.453 39.3457 146.789 38.8494 147.226C37.6558 148.278 37.9918 151.111 39.3882 151.77C42.1738 153.083 45.2672 149.751 43.1635 147.703C42.1281 146.695 41.9176 145.587 42.7616 145.587C43.801 145.587 45.7115 148.301 45.7115 149.778C45.7115 151.247 43.5183 153.785 42.2487 153.785C41.2603 153.785 41.5187 158.181 42.5514 158.937C44.9356 160.68 45.8607 164.397 44.2106 165.604C43.3933 166.202 43.3335 166.078 43.6718 164.489C43.9679 163.098 43.7848 162.423 42.8466 161.446L41.6409 160.189L41.7906 166.338L41.9403 172.487L44.8435 172.578C46.4403 172.627 48.4664 172.685 49.3459 172.706C50.361 172.729 50.9451 173.024 50.9451 173.511C50.9451 174.312 49.7826 174.45 44.4029 174.288L41.6407 174.204V179.711V185.219L42.9492 184.165C47.6689 180.362 53.9914 180.705 55.9669 184.871C57.0758 187.21 56.5625 189.181 54.4031 190.876C53.4607 191.616 52.6897 192.681 52.6897 193.242C52.6897 193.804 52.428 194.263 52.1082 194.263C51.7883 194.263 51.5266 193.771 51.5266 193.169C51.5266 192.567 50.8724 191.541 50.0728 190.888C48.4263 189.543 48.2724 188.728 49.4072 187.361C49.9486 186.708 50.5404 186.529 51.2972 186.787C52.339 187.142 52.3435 187.199 51.3813 187.823C49.2558 189.203 51.0322 190.668 53.2045 189.328C55.0646 188.18 54.873 185.419 52.8352 184.004C50.7714 182.57 47.6254 182.877 44.7813 184.788C41.8368 186.767 41.2441 188.445 42.9303 190.027C44.1505 191.172 44.2484 191.691 44.1433 196.448C44.0477 200.772 43.8316 201.858 42.829 203.053C42.1691 203.84 41.3964 205.354 41.1119 206.418L40.5946 208.354L40.5363 206.593ZM41.9405 201.412C42.4505 199.996 41.1971 198.648 40.1099 199.443C39.2725 200.056 39.0463 201.541 39.7025 202.12C40.4656 202.792 41.5691 202.443 41.9405 201.412ZM39.8963 194.023C39.8963 190.941 39.7368 190.25 39.0765 190.473C37.9955 190.839 37.4951 192.725 37.9145 194.853C38.4106 197.372 38.631 197.85 39.2966 197.85C39.655 197.85 39.8963 196.31 39.8963 194.023ZM42.3202 193.368L41.7813 190.42L41.7288 194.263C41.6901 197.096 41.8319 197.871 42.2677 197.211C42.6556 196.625 42.6737 195.302 42.3202 193.368ZM27.0336 192.212C26.5159 191.944 25.7574 191.013 25.3481 190.142C24.3764 188.076 25.5261 186.798 27.7155 187.512L29.119 187.969L27.7881 188.342C26.316 188.753 26.3519 189.544 27.8809 190.384C28.6395 190.8 29.0152 190.747 29.4394 190.164C29.7467 189.741 29.8815 189.115 29.7389 188.771C29.2902 187.691 30.5042 187.525 31.1444 188.579C31.8072 189.67 31.0571 192.214 30.0724 192.214C29.7708 192.214 29.1755 192.323 28.7495 192.456C28.3236 192.589 27.5514 192.479 27.0336 192.212Z" fill="#9046A4"/>
</g>
<g clip-path="url(#clip2_41_2)">
<path d="M42.5747 287.72C42.0415 285.287 41.8932 285.03 41.0191 285.03C39.6112 285.03 36.7426 282.982 35.9188 281.389C34.908 279.435 35.7203 277.607 37.3997 278.058C38.0096 278.221 38.6816 278.358 38.893 278.362C39.7543 278.378 39.2025 280.022 38.2525 280.27C35.6342 280.955 38.489 283.633 41.8373 283.633C46.4289 283.633 48.7355 281.15 47.3112 277.742C46.4622 275.71 44.4011 274.736 44.4011 276.368C44.4011 276.905 44.1705 277.344 43.8887 277.344C43.6069 277.344 43.3763 276.551 43.3763 275.581C43.3763 273.772 42.6439 272.734 42.1781 273.883C41.9708 274.394 41.8214 274.39 41.4503 273.864C41.1021 273.37 40.4558 273.321 38.907 273.669C35.9384 274.336 31.7343 273.537 29.2923 271.841C23.1042 267.545 23.7165 257.887 30.4215 254.031C32.2553 252.976 33.0998 252.163 33.1115 251.441C33.1411 249.621 35.7243 245.091 37.508 243.73C43.0066 239.536 52.1852 241.25 55.1034 247.015C55.63 248.056 56.2216 249.652 56.4181 250.562C56.8845 252.723 55.8812 257.472 54.6189 259.076C54.0717 259.772 53.624 260.708 53.624 261.157C53.624 261.606 53.386 261.973 53.0952 261.973C52.8043 261.973 51.7091 262.355 50.6613 262.823C49.6136 263.291 48.5934 263.694 48.3941 263.72C48.1949 263.745 47.7132 264.202 47.3237 264.735C46.6883 265.604 46.5823 265.617 46.2929 264.863C46.0687 264.278 45.3485 264.022 43.9289 264.022C39.794 264.022 35.8185 261.232 34.1218 257.138L32.9727 254.366L31.6603 255.223C27.9323 257.659 26.8576 259.562 26.9148 263.627C27.0068 270.166 31.663 273.211 39.3841 271.78C42.9689 271.116 46.6299 272.023 48.5303 274.046C49.5624 275.145 49.7811 275.902 49.7811 278.377C49.7811 280.951 49.5813 281.585 48.3721 282.847C47.5971 283.656 46.963 284.538 46.963 284.807C46.963 285.076 46.471 285.603 45.8696 285.979C44.9576 286.548 44.7038 286.548 44.3403 285.974C44.0554 285.525 43.9017 285.952 43.8965 287.208C43.8869 289.442 43.0253 289.777 42.5747 287.72ZM50.704 260.605C51.829 259.807 53.1768 258.351 53.6991 257.369C54.859 255.189 54.9706 250.247 53.9064 248.189C52.6355 245.731 49.793 243.63 47.2173 243.244C40.9343 242.302 36.2994 245.188 34.9649 250.874C34.6365 252.273 34.6825 252.315 36.1703 251.989C37.8258 251.625 39.7896 252.031 39.7896 252.736C39.7896 252.973 38.6378 253.325 37.23 253.518C34.7803 253.855 34.6837 253.929 34.9831 255.232C35.4705 257.352 37.8328 260.063 40.3317 261.37C43.4626 263.007 47.7647 262.69 50.704 260.605ZM43.6375 258.528C43.3535 256.577 42.9885 255.77 42.2886 255.548C39.8939 254.788 40.7962 250.413 43.5473 249.446C45.2693 248.84 46.4172 249.436 47.4031 251.446C48.2447 253.162 47.5112 255.264 45.9259 255.679C45.2606 255.853 44.896 256.406 44.8624 257.293C44.8343 258.035 44.6349 259.219 44.4192 259.923C44.0847 261.016 43.9698 260.811 43.6375 258.528ZM45.4472 253.493C45.9918 252.837 45.9581 252.55 45.2537 251.846C44.4584 251.051 44.3437 251.051 43.5484 251.846C42.8441 252.55 42.8104 252.837 43.355 253.493C43.7175 253.93 44.1883 254.287 44.4011 254.287C44.6139 254.287 45.0846 253.93 45.4472 253.493ZM47.9878 257.459C47.9878 257.231 48.3293 256.597 48.7466 256.05C49.393 255.203 49.5785 255.167 49.9983 255.807C50.3202 256.298 50.3018 256.787 49.9452 257.216C49.3418 257.943 47.9878 258.111 47.9878 257.459ZM33.6615 265.328C32.3003 263.688 34.2995 261.169 36.0749 262.287C37.2132 263.003 37.4915 264.368 36.6949 265.328C35.9035 266.282 34.4529 266.282 33.6615 265.328ZM28.3272 249.236C27.5182 248.342 27.5271 248.21 28.4728 247.059L29.4796 245.833L30.587 246.923C31.5073 247.829 31.5961 248.197 31.1126 249.101C30.3957 250.44 29.458 250.486 28.3272 249.236ZM29.2858 245.064C28.8679 244.388 29.4806 243.429 30.0898 243.805C30.7121 244.19 30.708 245.577 30.0839 245.577C29.8188 245.577 29.4599 245.346 29.2858 245.064ZM40.8144 238.702C40.8144 238.256 41.1795 237.891 41.6257 237.891C42.0719 237.891 42.3457 238.165 42.2341 238.499C41.9175 239.449 40.8144 239.607 40.8144 238.702ZM43.1173 238.911C42.6434 238.144 43.3431 236.354 44.1167 236.354C44.4859 236.354 45.0751 236.699 45.4259 237.122C45.9348 237.735 45.9348 238.046 45.4259 238.659C44.6922 239.543 43.5829 239.664 43.1173 238.911Z" fill="#9046A4"/>
</g>
<g clip-path="url(#clip3_41_2)">
<path d="M40.5832 376.963C40.5449 376.329 40.2078 375.811 39.8342 375.811C38.9651 375.811 37.1423 373.828 36.7164 372.42C36.2427 370.853 37.2137 368.718 38.7098 368.036C39.7635 367.556 40.0011 367.086 40.0011 365.481C40.0011 364.399 39.7585 363.513 39.462 363.513C39.1656 363.513 38.6819 362.822 38.3871 361.976C37.9297 360.664 37.5773 360.431 35.98 360.385C34.9507 360.355 33.7628 360.279 33.3401 360.216C32.9173 360.153 32.1219 360.063 31.5723 360.014C30.8009 359.947 30.7119 359.788 31.1818 359.318C31.5667 358.933 33.2991 358.742 35.8957 358.797L40.0011 358.884V357.399C40.0011 356.582 39.7129 355.809 39.3606 355.681C38.8482 355.496 38.8482 355.232 39.3606 354.364C40.3143 352.749 40.146 351.959 38.7084 351.304C37.8865 350.93 37.3015 350.144 37.1019 349.146C36.8566 347.919 36.4545 347.509 35.2627 347.271C33.9794 347.014 33.8751 346.889 34.6053 346.48C35.0826 346.213 35.9244 346.113 36.4759 346.257C37.0826 346.416 37.9552 346.078 38.6849 345.401C39.7589 344.406 39.8831 343.867 39.818 340.481L39.7448 336.678L38.0354 336.235C36.8786 335.936 36.0918 335.987 35.6016 336.394C35.0194 336.877 34.8771 336.799 34.8771 335.997C34.8771 335.448 34.3137 334.469 33.625 333.822C29.8793 330.303 29.7676 322.953 33.409 319.601C34.6828 318.428 38.4638 316.63 38.4638 317.196C38.4638 317.374 37.7721 318.308 36.9267 319.27C36.0812 320.233 35.3895 321.474 35.3895 322.028C35.3895 322.582 35.1589 323.035 34.8771 323.035C34.5953 323.035 34.3647 322.64 34.3647 322.157C34.3647 321.343 34.3032 321.34 33.5246 322.118C32.2614 323.382 32.0168 327.631 33.0785 329.869C34.0855 331.991 38.5576 335.049 40.074 334.652C40.5969 334.516 41.1433 334.596 41.2883 334.83C41.5984 335.332 43.9401 334.73 45.5732 333.729C48.297 332.06 49.8378 327.216 48.7211 323.833C48.2224 322.322 47.9678 322.077 47.3916 322.555C46.8228 323.027 46.5739 322.87 46.1581 321.776C45.8716 321.023 45.6372 320.21 45.6372 319.97C45.6372 319.73 45.026 319.089 44.2789 318.544C42.4491 317.211 43.4993 316.693 45.6705 317.857C50.2708 320.325 52.0993 326.096 49.7913 330.863C48.3442 333.853 46.5354 335.469 43.9352 336.097L41.7943 336.613L41.6438 340.633C41.468 345.329 41.8879 346.092 44.645 346.092C45.7211 346.092 46.7441 346.323 46.9182 346.605C47.103 346.904 46.5819 347.117 45.6675 347.117C44.2621 347.117 44.1001 347.278 44.1001 348.679C44.1001 349.686 43.6456 350.662 42.8192 351.428C41.3084 352.828 41.263 353.137 42.3862 354.378C43.1752 355.25 43.1752 355.315 42.3862 355.315C41.7594 355.315 41.5382 355.781 41.5382 357.1V358.884L45.253 358.775C49.2641 358.657 51.517 359.342 49.2188 359.982C48.5171 360.177 46.7786 360.36 45.3554 360.388C43.9323 360.416 42.4912 360.716 42.153 361.054C41.8149 361.392 41.5382 362.906 41.5382 364.418C41.5382 366.853 41.7164 367.316 43.1015 368.482C44.4474 369.614 44.6434 370.09 44.5106 371.9C44.3841 373.624 44.0619 374.19 42.7255 375.035C41.8285 375.603 40.9953 376.528 40.8738 377.092C40.6762 378.009 40.6457 377.995 40.5832 376.963ZM42.4605 373.659C43.2531 372.866 43.2531 370.557 42.4605 369.764C41.0777 368.382 37.9515 369.761 37.9515 371.754C37.9515 373.791 41.0284 375.091 42.4605 373.659ZM40.5135 371.711C40.5135 371.43 40.7576 371.199 41.0561 371.199C41.3545 371.199 41.4562 371.43 41.282 371.711C41.1079 371.993 40.8637 372.224 40.7394 372.224C40.6151 372.224 40.5135 371.993 40.5135 371.711ZM39.7902 360.57C39.2304 360.01 38.8466 360.9 39.2485 361.826C39.6295 362.704 39.6572 362.703 39.8695 361.809C39.9917 361.293 39.956 360.736 39.7902 360.57ZM42.2467 349.656C42.4955 349.425 42.5377 348.816 42.3403 348.304C42.001 347.424 41.9543 347.422 41.4782 348.27C41.2013 348.763 40.5251 349.167 39.9755 349.167C38.9734 349.167 38.6739 349.718 39.3234 350.368C39.71 350.754 41.5458 350.307 42.2467 349.656ZM40.1099 327.038C39.3069 326.235 39.3204 325.35 40.1464 324.664C41.0933 323.878 42.1697 324.743 41.9674 326.127C41.7633 327.523 40.9791 327.907 40.1099 327.038Z" fill="#9046A4"/>
</g>
<g clip-path="url(#clip4_41_2)">
<path d="M44.859 459.903C44.6356 458.506 44.2534 457.766 43.7548 457.766C43.3354 457.766 42.9923 457.561 42.9923 457.309C42.9923 456.932 43.8164 456.578 46.0666 455.99C48.8307 455.267 50.1657 453.437 50.1657 450.37C50.1657 448.091 48.0239 445.596 45.6823 445.148C44.2145 444.866 44.017 444.961 44.017 445.948C44.017 446.563 43.7865 446.924 43.5047 446.75C43.2229 446.576 42.9923 445.902 42.9923 445.253C42.9923 444.227 42.5988 443.988 40.0051 443.438C36.7822 442.754 34.2774 440.852 31.9637 437.331C29.5476 433.655 29.4582 428.382 31.7361 423.917C33.0812 421.28 37.5482 417.419 40.0949 416.692C41.2657 416.357 42.5119 415.865 42.8642 415.598C43.7429 414.932 43.6715 413.701 42.7542 413.701C42.3414 413.701 41.742 413.212 41.4223 412.615C40.9508 411.734 41.0282 411.274 41.8324 410.181C42.3776 409.44 43.0218 408.142 43.2638 407.296L43.7038 405.759L43.9051 407.296C44.0159 408.142 44.5474 409.246 45.0865 409.75C46.3561 410.937 46.3365 412.499 45.042 413.308C44.4784 413.66 44.0172 414.353 44.0172 414.849C44.0172 415.567 44.461 415.752 46.1949 415.759C47.3926 415.763 48.7184 415.99 49.1411 416.263C49.7052 416.628 49.3416 416.762 47.7739 416.768C44.5899 416.779 44.0266 417.147 43.9474 419.264C43.8971 420.611 43.8189 420.774 43.6661 419.85C43.2367 417.25 43.0527 417.194 41.1616 419.085C40.0515 420.195 39.4333 421.232 39.609 421.69C39.7809 422.138 39.5362 422.58 39.0129 422.765C36.4046 423.689 34.7898 426.771 34.8027 430.801C34.8163 434.755 36.3853 437.181 40.0962 438.979L43.0923 440.43L44.2732 439.321C45.6425 438.034 47.7648 438.107 48.0205 439.448C48.1575 440.167 47.8278 440.345 46.3605 440.345C44.7826 440.345 44.5296 440.511 44.5296 441.544C44.5296 442.722 46.2155 443.932 47.8581 443.932C48.2533 443.932 49.2223 444.779 50.0117 445.813C51.2005 447.372 51.4468 448.202 51.4468 450.653C51.4468 453.33 51.2795 453.783 49.681 455.432C48.7099 456.434 47.6482 457.254 47.3219 457.254C46.9955 457.254 46.3847 458.331 45.9647 459.647L45.2009 462.04L44.859 459.903ZM42.8749 441.786C42.7633 441.452 41.6786 440.847 40.4643 440.442C37.8324 439.565 34.4863 436.295 34.0123 434.136C33.6875 432.658 32.5312 431.677 31.8799 432.329C31.7105 432.498 31.9818 433.71 32.483 435.022C34.055 439.139 37.9478 442.17 41.8821 442.342C42.5938 442.374 42.9956 442.149 42.8749 441.786ZM33.4339 429.713C33.5693 429.22 33.8242 427.96 34.0005 426.914C34.2031 425.712 35.17 424.017 36.6275 422.309C39.6413 418.778 38.4891 418.285 35.3083 421.745C33.0731 424.176 31.7198 427.106 31.7198 429.517C31.7198 430.831 33.0844 430.987 33.4339 429.713ZM42.7085 450.548C42.2688 449.837 43.2434 448.834 43.95 449.271C44.5385 449.634 44.1617 451.105 43.4801 451.105C43.245 451.105 42.8978 450.855 42.7085 450.548ZM41.9675 433.172C40.5802 431.785 40.6783 430.294 42.2237 429.282C43.4103 428.504 43.599 428.504 44.7856 429.282C46.4008 430.34 46.4692 432.319 44.9278 433.399C43.4623 434.425 43.2011 434.405 41.9675 433.172ZM43.5451 425.7C43.5697 425.103 43.6911 424.981 43.8547 425.39C44.0026 425.76 43.9844 426.202 43.8142 426.372C43.644 426.542 43.5229 426.24 43.5451 425.7Z" fill="#9046A4"/>
</g>
<g clip-path="url(#clip5_41_2)">
<path d="M43.0032 555.371C43.0032 554.375 42.607 553.049 42.1227 552.425C41.6384 551.801 41.0544 550.425 40.825 549.368C40.5955 548.312 40.0638 547.445 39.6434 547.442C37.8859 547.43 32.2335 544.864 30.0093 543.068C23.7283 537.996 23.311 529.867 29.0003 523.415C29.6995 522.622 32.2759 520.877 34.7256 519.538C37.1753 518.199 39.7297 516.379 40.402 515.494C42.0151 513.372 43.0032 508.811 43.0032 503.488C43.0032 499.263 42.973 499.178 41.5703 499.462C40.7823 499.622 39.7375 499.553 39.2485 499.309C38.0465 498.709 36.6605 499.202 36.6486 500.234C36.6438 500.697 36.382 501.404 36.068 501.805C35.6474 502.341 35.3027 501.951 34.7597 500.322C33.9328 497.842 34.4213 497.255 37.3241 497.241C38.7733 497.234 38.9167 497.06 38.7027 495.568C38.5394 494.428 38.8298 493.627 39.6232 493.03C40.2608 492.55 41.4305 491.681 42.2224 491.099L43.6623 490.04L46.188 492.059C48.9508 494.268 49.0923 494.732 47.9246 497.754C47.207 499.611 46.1756 500.522 46.1756 499.299C46.1756 499.026 45.7474 498.935 45.2239 499.098C44.4255 499.345 44.2706 500.931 44.2625 508.945C44.2577 514.227 43.9778 518.841 43.6377 519.266C43.1776 519.841 43.0202 519.57 43.0129 518.192L43.0033 516.349L40.3598 518.32C38.9059 519.404 37.4783 520.291 37.1874 520.291C36.8965 520.291 36.6157 521.155 36.5634 522.212C36.4869 523.758 36.4166 523.858 36.204 522.724C35.8428 520.799 34.9896 520.949 32.03 523.462C28.6861 526.301 27.2002 529.133 27.2342 532.602C27.2886 538.139 30.1526 542.272 35.6058 544.683C38.2663 545.859 39.639 546.124 42.937 546.102C46.7589 546.075 47.1001 545.972 48.8052 544.326C49.8009 543.365 50.801 542.024 51.0275 541.346C51.4009 540.227 51.5127 540.193 52.2223 540.976C52.9366 541.765 53.0395 541.768 53.3994 541.011C54.0434 539.656 53.2555 539.249 49.988 539.249C47.5118 539.249 46.8198 539.442 46.5147 540.218C45.8032 542.029 41.1467 541.934 40.271 540.091C40.0689 539.666 38.9813 539.245 37.8541 539.155C34.9838 538.927 34.6511 537.712 37.459 537.712C38.8284 537.712 40.0596 537.332 40.7826 536.687C42.2841 535.347 45.2869 535.347 46.323 536.687C47.3828 538.057 50.3491 538.049 51.2612 536.673C51.6399 536.102 52.2257 535.772 52.5628 535.94C52.9 536.108 53.0115 536.461 52.8108 536.723C52.6101 536.985 52.7786 537.2 53.1855 537.2C53.5995 537.2 53.7557 536.843 53.5402 536.39C53.3285 535.944 53.1551 535.367 53.1551 535.109C53.1551 534.85 52.7982 534.696 52.362 534.766C51.9258 534.837 51.5975 534.606 51.6323 534.254C51.8208 532.352 51.9563 532.13 52.7737 532.383C53.2618 532.535 54.3918 534.019 55.2846 535.681C56.7735 538.454 56.8317 538.822 55.9872 540.13C55.4807 540.914 55.0646 541.834 55.0625 542.174C55.0577 542.827 51.3237 545.972 48.4963 547.704C47.4701 548.333 46.8208 549.229 46.8168 550.024C46.812 550.736 46.2392 551.714 45.5413 552.197C44.6639 552.803 44.2723 553.708 44.2723 555.128C44.2723 556.258 43.9868 557.183 43.6378 557.183C43.2888 557.183 43.0032 556.367 43.0032 555.371ZM42.8023 549.913C42.5996 549.504 42.4494 549.625 42.4189 550.222C42.3913 550.763 42.5414 551.065 42.7522 550.895C42.9629 550.725 42.9855 550.283 42.8023 549.913ZM45.5315 549.625C45.5243 548.527 45.386 548.385 44.9068 548.984C44.1045 549.987 44.1045 551.034 44.9068 551.034C45.2557 551.034 45.5369 550.4 45.5315 549.625ZM44.9485 497.215C45.7354 496.875 46.1757 496.143 46.1757 495.175C46.1757 493.969 45.8373 493.598 44.4913 493.325C41.2035 492.658 39.3965 494.833 41.6953 496.689C43.2044 497.908 43.3071 497.925 44.9485 497.215ZM37.6961 542.613C36.4301 541.053 36.4075 540.786 37.5414 540.786C38.027 540.786 38.612 541.39 38.8413 542.127C39.4092 543.955 38.9446 544.152 37.6961 542.613ZM36.3744 533.656C35.76 532.853 39.1718 530.08 41.379 529.587C43.8727 529.031 46.488 529.351 47.5 530.336C48.0993 530.919 47.869 531.011 46.2007 530.854C44.8395 530.726 44.056 530.91 43.8171 531.412C43.5333 532.01 43.3581 532.027 42.9525 531.497C42.2777 530.615 37.9274 532.218 37.9274 533.348C37.9274 534.202 36.9418 534.397 36.3744 533.656ZM42.1499 526.527C40.807 525.329 40.8269 524.748 42.2461 523.711C43.282 522.954 43.526 522.949 44.784 523.661C46.4801 524.62 46.5487 525.495 45.0154 526.616C43.5639 527.677 43.434 527.673 42.1499 526.527Z" fill="#9046A4"/>
</g>
<g clip-path="url(#clip6_41_2)">
<path d="M40.5572 639.583C40.3969 639.149 40.2659 638.209 40.2659 637.495C40.2659 636.781 39.8961 635.772 39.4443 635.252C38.7961 634.507 38.7379 634.116 39.1687 633.398C39.6221 632.642 39.3007 631.79 37.2739 628.371C35.7166 625.745 34.7025 624.474 34.4724 624.862C33.9413 625.756 33.0916 624.996 33.3725 623.878C33.5517 623.165 33.3224 622.864 32.4843 622.712L31.3547 622.507L32.4371 622.034C33.4991 621.569 33.5036 621.531 32.6779 620.027C30.8621 616.72 30.6821 616.517 30.2132 617.259C29.9378 617.695 29.5343 617.792 29.1206 617.522C28.7598 617.287 28.112 617.155 27.681 617.229C27.0209 617.341 26.3328 616.495 26.32 615.555C26.3182 615.418 25.9713 614.61 25.5494 613.761C25.1275 612.912 24.8996 611.899 25.0429 611.51C25.3877 610.575 26.7358 610.605 27.0862 611.556C27.2388 611.969 27.5253 612.308 27.723 612.308C28.2291 612.308 32.6824 605.251 32.3769 604.933C32.2389 604.79 31.4107 604.496 30.5362 604.28C29.4552 604.014 30.7577 603.872 34.6061 603.837L40.2659 603.786V602.246V600.706L37.6748 601.043C35.0332 601.387 33.8056 600.784 34.8763 599.67C35.3699 599.156 35.2617 598.923 33.6737 597.069C33.2474 596.572 33.2413 596.258 33.6496 595.834C34.4936 594.955 35.2543 595.154 35.7882 596.392C36.2526 597.469 36.343 597.408 37.7902 595.038C38.6732 593.592 39.1943 592.19 39.0386 591.679C38.8915 591.197 39.1076 590.126 39.5186 589.299C39.9296 588.472 40.2659 587.257 40.2659 586.6C40.2659 582.934 42.1351 587.046 42.4428 591.39C42.5952 593.541 43.8997 595.93 44.7522 595.619C45.0665 595.505 45.2599 595.04 45.182 594.586C44.9673 593.334 46.2187 593.598 47.443 595.064L48.5319 596.367L47.4844 597.527C46.8289 598.254 46.5436 599.038 46.7222 599.624C46.9416 600.343 46.6461 600.701 45.4441 601.173C44.4362 601.569 43.8232 601.608 43.719 601.283C43.4636 600.485 42.1167 600.695 41.4564 601.635C40.19 603.437 41.0651 603.786 46.8486 603.786C50.4034 603.786 52.259 603.964 52.0671 604.287C51.9035 604.563 51.1448 604.789 50.3814 604.789C49.0896 604.789 49.0331 604.868 49.5669 605.933C49.8823 606.562 50.9792 608.265 52.0043 609.716C53.7185 612.143 53.9343 612.292 54.6915 611.579C56.0881 610.264 56.7895 610.605 56.4498 612.433C56.2834 613.329 56.0585 614.593 55.9503 615.242C55.8422 615.891 55.3136 616.849 54.7759 617.37C53.9014 618.218 53.7533 618.234 53.3709 617.523C52.6189 616.125 50.7475 616.887 49.5592 619.075C48.2701 621.449 48.217 621.832 49.177 621.832C49.5744 621.832 49.8996 622.057 49.8996 622.333C49.8996 622.609 49.6787 622.834 49.4087 622.834C49.1256 622.834 49.0458 623.365 49.2201 624.088C49.542 625.422 48.8451 625.741 47.5169 624.867C46.9758 624.51 46.3029 625.303 44.5056 628.415C42.5747 631.758 42.2774 632.59 42.712 633.434C43.1149 634.218 43.0605 634.645 42.4719 635.322C42.0534 635.803 41.711 637.012 41.711 638.008C41.711 639.953 41.0341 640.877 40.5572 639.583ZM42.6983 628.474C43.5569 626.889 44.5779 625.084 44.9673 624.464L45.6752 623.336H41.0023H36.3295L38.1259 626.719C39.8517 629.97 40.7113 631.356 41.0014 631.356C41.076 631.356 41.8397 630.059 42.6983 628.474ZM40.1053 627.012C39.3996 626.277 39.8058 624.84 40.7191 624.84C41.9486 624.84 42.4219 625.702 41.6934 626.616C41.0575 627.413 40.6006 627.527 40.1053 627.012ZM40.2659 619.326C40.2659 617.497 40.0812 616.819 39.5835 616.819C39.2082 616.819 38.8185 617.077 38.7175 617.392C38.5797 617.822 38.2769 617.822 37.5048 617.392C36.2651 616.702 32.5589 616.627 32.5589 617.292C32.5589 617.552 32.9574 618.06 33.4444 618.42C33.9315 618.78 34.4775 619.695 34.6578 620.453C34.9658 621.748 35.1463 621.832 37.6258 621.832H40.2659V619.326ZM47.3951 619.563C47.9777 618.315 48.4545 617.236 48.4545 617.166C48.4545 617.096 46.9372 616.991 45.0827 616.933C41.9 616.833 41.7067 616.89 41.6355 617.951C41.594 618.569 41.5181 619.695 41.4666 620.453C41.3757 621.791 41.4458 621.832 43.8544 621.832C46.3204 621.832 46.3423 621.818 47.3951 619.563ZM37.592 613.577C37.2081 612.621 36.8941 611.31 36.8941 610.664C36.8941 609.33 38.5054 607.295 39.5621 607.295C39.9917 607.295 40.2659 606.807 40.2659 606.042C40.2659 604.872 40.1053 604.789 37.8574 604.789C36.5328 604.789 35.2865 604.747 35.0878 604.697C34.8891 604.647 34.096 605.539 33.3254 606.68C32.1545 608.414 32.0257 608.882 32.5414 609.529C33.0628 610.182 33.009 610.303 32.1952 610.303C31.2074 610.303 30.4997 610.967 30.0391 612.326C29.8315 612.938 30.0998 613.057 31.3525 612.904C33.1776 612.683 34.182 613.726 32.5667 614.165C30.7943 614.648 32.4926 615.299 35.5449 615.308L38.29 615.315L37.592 613.577ZM48.4545 614.778C48.4545 613.883 49.7672 612.809 50.8609 612.809C52.203 612.809 51.8709 611.57 49.4891 607.693L47.732 604.832L44.4806 604.81C41.3671 604.789 41.2292 604.839 41.2292 605.987C41.2292 606.846 41.5687 607.275 42.4257 607.499C43.1938 607.699 43.9539 608.526 44.5488 609.807L45.4753 611.803L44.3302 613.559L43.185 615.315H45.8197C47.3722 615.315 48.4545 615.095 48.4545 614.778ZM42.399 614.026C42.8153 613.593 43.1559 613.197 43.1559 613.145C43.1559 613.094 42.137 613.137 40.8917 613.24C38.8287 613.411 38.7084 613.489 39.5387 614.121C40.7219 615.021 41.4669 614.996 42.399 614.026ZM52.1775 614.511C52.0174 614.345 51.602 614.327 51.2542 614.472C50.87 614.632 50.9841 614.75 51.5453 614.774C52.053 614.796 52.3375 614.678 52.1775 614.511ZM41.9173 611.52C42.8258 610.575 42.858 610.193 42.0963 609.4C40.6419 607.887 38.3352 609.424 39.2861 611.273C39.921 612.508 40.8815 612.598 41.9173 611.52ZM42.0721 599.182C43.198 599.238 44.1192 599.166 44.1192 599.021C44.1192 598.483 41.1251 593.26 40.8219 593.269C40.4232 593.282 37.3757 598.676 37.3757 599.369C37.3757 599.695 37.8632 599.736 38.7003 599.482C39.4289 599.261 40.9462 599.126 42.0721 599.182ZM45.1424 596.634C44.6667 596.143 44.6113 596.201 44.8727 596.915C45.0537 597.409 45.323 597.688 45.4713 597.533C45.6197 597.379 45.4716 596.974 45.1424 596.634Z" fill="#9046A4"/>
<circle cx="48" cy="634.5" r="1.5" fill="#9046A4"/>
<circle cx="49.5" cy="638.062" r="1.5" fill="#9046A4"/>
</g>
<path d="M10.5 99.5V58.5L22 51.5V32.5" stroke="#9046A4"/>
<path d="M7.5 102V58L19.5 51V35.5" stroke="#9046A4"/>
<circle cx="19.5" cy="34.5" r="1.5" fill="#9046A4"/>
<circle cx="22" cy="31.5" r="1.5" fill="#9046A4"/>
<circle cx="7.5" cy="102.5" r="1.5" fill="#9046A4"/>
<circle cx="10.5" cy="100.5" r="1.5" fill="#9046A4"/>
<path d="M61.5 97.5V63.5L47.5 49.5V23.5" stroke="#9046A4"/>
<path d="M64.5 103V62L50.5 48V20.5" stroke="#9046A4"/>
<path d="M67.5 101.5V60.5L53.5 47V17.5" stroke="#9046A4"/>
<circle cx="50.5" cy="19.5" r="1.5" fill="#9046A4"/>
<circle cx="53.5" cy="16.5" r="1.5" fill="#9046A4"/>
<circle cx="47.5" cy="22.5" r="1.5" fill="#9046A4"/>
<circle cx="61.5" cy="98.5" r="1.5" fill="#9046A4"/>
<circle cx="64.5" cy="103.5" r="1.5" fill="#9046A4"/>
<circle cx="67.5" cy="101.5" r="1.5" fill="#9046A4"/>
<path d="M64.5 103V62L50.5 48V21.5" stroke="#9046A4"/>
<path d="M75.5 106.5V61.5L66 52V39" stroke="#9046A4"/>
<path d="M78.5 104.5V59.5L69 50V37" stroke="#9046A4"/>
<circle cx="66" cy="38.5" r="1.5" fill="#9046A4"/>
<circle cx="69" cy="36.5" r="1.5" fill="#9046A4"/>
<circle cx="75.5" cy="107.5" r="1.5" fill="#9046A4"/>
<circle cx="78.5" cy="105.5" r="1.5" fill="#9046A4"/>
<circle cx="25.5" cy="75.5" r="1.5" fill="#9046A4"/>
<path d="M25.5 74.5V64.5L31.5 60V24.5" stroke="#9046A4"/>
<circle cx="28.5" cy="76.5" r="1.5" fill="#9046A4"/>
<circle cx="34.5" cy="28.5" r="1.5" fill="#9046A4"/>
<path d="M28.5 75.5V65.5L34.5 61V29" stroke="#9046A4"/>
<circle cx="22.5" cy="74.5" r="1.5" fill="#9046A4"/>
<circle cx="28.5" cy="26.5" r="1.5" fill="#9046A4"/>
<path d="M22.5 73.5V63.5L28.5 59V27" stroke="#9046A4"/>
<circle cx="31.5" cy="23.5" r="1.5" fill="#9046A4"/>
<circle cx="16.5" cy="84.5" r="1.5" fill="#9046A4"/>
<circle cx="23.5" cy="123.5" r="1.5" fill="#9046A4"/>
<path d="M16.5 85V105.5L23.5 112.5V123" stroke="#9046A4"/>
<circle cx="19.5" cy="87.5" r="1.5" fill="#9046A4"/>
<circle cx="26.5" cy="120.5" r="1.5" fill="#9046A4"/>
<path d="M19.5 88.5V104.5L26.5 111.5V120" stroke="#9046A4"/>
<path d="M66.5 246.5V280.5L52.5 294.5V303" stroke="#9046A4"/>
<path d="M69.5 241V282L55.5 296V311" stroke="#9046A4"/>
<path d="M72.5 242.5V283.5L58.5 297V305" stroke="#9046A4"/>
<circle cx="1.5" cy="1.5" r="1.5" transform="matrix(1 0 0 -1 54 313)" fill="#9046A4"/>
<circle cx="1.5" cy="1.5" r="1.5" transform="matrix(1 0 0 -1 57 307)" fill="#9046A4"/>
<circle cx="1.5" cy="1.5" r="1.5" transform="matrix(1 0 0 -1 51 304)" fill="#9046A4"/>
<circle cx="1.5" cy="1.5" r="1.5" transform="matrix(1 0 0 -1 65 247)" fill="#9046A4"/>
<circle cx="1.5" cy="1.5" r="1.5" transform="matrix(1 0 0 -1 68 242)" fill="#9046A4"/>
<circle cx="1.5" cy="1.5" r="1.5" transform="matrix(1 0 0 -1 71 244)" fill="#9046A4"/>
<path d="M17.5 285.5V251.5L26.5 242V237.5" stroke="#9046A4"/>
<path d="M14.5 291V250L23.5 241V231.5" stroke="#9046A4"/>
<path d="M11.5 289.5V248.5L20.5 239V235.5" stroke="#9046A4"/>
<circle cx="1.5" cy="1.5" r="1.5" transform="matrix(-1 0 0 1 25 229)" fill="#9046A4"/>
<circle cx="1.5" cy="1.5" r="1.5" transform="matrix(-1 0 0 1 22 233)" fill="#9046A4"/>
<circle cx="1.5" cy="1.5" r="1.5" transform="matrix(-1 0 0 1 28 235)" fill="#9046A4"/>
<circle cx="1.5" cy="1.5" r="1.5" transform="matrix(-1 0 0 1 19 285)" fill="#9046A4"/>
<circle cx="1.5" cy="1.5" r="1.5" transform="matrix(-1 0 0 1 16 290)" fill="#9046A4"/>
<circle cx="1.5" cy="1.5" r="1.5" transform="matrix(-1 0 0 1 13 288)" fill="#9046A4"/>
<circle cx="1.5" cy="1.5" r="1.5" transform="matrix(1 0 0 -1 14 179)" fill="#9046A4"/>
<circle cx="1.5" cy="1.5" r="1.5" transform="matrix(1 0 0 -1 21 140)" fill="#9046A4"/>
<path d="M15.5 177V156.5L22.5 149.5V139" stroke="#9046A4"/>
<circle cx="1.5" cy="1.5" r="1.5" transform="matrix(1 0 0 -1 17 182)" fill="#9046A4"/>
<circle cx="1.5" cy="1.5" r="1.5" transform="matrix(1 0 0 -1 24 143)" fill="#9046A4"/>
<path d="M18.5 179.5V157.5L25.5 150.5V142" stroke="#9046A4"/>
<path d="M65 157.5V202.5L55.5 212V225" stroke="#9046A4"/>
<path d="M68 159.5V204.5L58.5 214V227" stroke="#9046A4"/>
<circle cx="1.5" cy="1.5" r="1.5" transform="matrix(1 0 0 -1 54 227)" fill="#9046A4"/>
<circle cx="1.5" cy="1.5" r="1.5" transform="matrix(1 0 0 -1 57 229)" fill="#9046A4"/>
<circle cx="1.5" cy="1.5" r="1.5" transform="matrix(1 0 0 -1 63.5 158)" fill="#9046A4"/>
<circle cx="1.5" cy="1.5" r="1.5" transform="matrix(1 0 0 -1 66.5 160)" fill="#9046A4"/>
<circle cx="1.5" cy="1.5" r="1.5" transform="matrix(1 0 0 -1 22 225)" fill="#9046A4"/>
<circle cx="1.5" cy="1.5" r="1.5" transform="matrix(1 0 0 -1 14 199)" fill="#9046A4"/>
<path d="M15.5 198V207.5L23.5 216V223" stroke="#9046A4"/>
<circle cx="1.5" cy="1.5" r="1.5" transform="matrix(1 0 0 -1 25 223)" fill="#9046A4"/>
<path d="M18.5 191.5V205.5L26.5 214V221" stroke="#9046A4"/>
<circle cx="1.5" cy="1.5" r="1.5" transform="matrix(1 0 0 -1 28 226)" fill="#9046A4"/>
<circle cx="1.5" cy="1.5" r="1.5" transform="matrix(1 0 0 -1 20 195)" fill="#9046A4"/>
<path d="M21.5 194V203.5L29.5 212V223.5" stroke="#9046A4"/>
<circle cx="1.5" cy="1.5" r="1.5" transform="matrix(1 0 0 -1 17 192)" fill="#9046A4"/>
<path d="M30.5 310V317.5L24.5 324V340.5L29.5 345.5V353.5" stroke="#9046A4"/>
<circle cx="1.5" cy="1.5" r="1.5" transform="matrix(1 0 0 -1 29 311)" fill="#9046A4"/>
<circle cx="1.5" cy="1.5" r="1.5" transform="matrix(1 0 0 -1 28 355)" fill="#9046A4"/>
<path d="M27 310V317.5L21 324V340.5L27 346.5V365" stroke="#9046A4"/>
<circle cx="1.5" cy="1.5" r="1.5" transform="matrix(1 0 0 -1 25.5 311)" fill="#9046A4"/>
<path d="M24 310V317.5L17 324V340.5L24.5 347.5C24.5 352.3 24.5 356.833 24.5 359.5" stroke="#9046A4"/>
<circle cx="1.5" cy="1.5" r="1.5" transform="matrix(1 0 0 -1 22.5 311)" fill="#9046A4"/>
<circle cx="1.5" cy="1.5" r="1.5" transform="matrix(1 0 0 -1 25.5 367)" fill="#9046A4"/>
<circle cx="1.5" cy="1.5" r="1.5" transform="matrix(1 0 0 -1 23 362)" fill="#9046A4"/>
<circle cx="1.5" cy="1.5" r="1.5" transform="matrix(1 0 0 -1 52 348)" fill="#9046A4"/>
<circle cx="1.5" cy="1.5" r="1.5" transform="matrix(1 0 0 -1 50 380)" fill="#9046A4"/>
<circle cx="1.5" cy="1.5" r="1.5" transform="matrix(1 0 0 -1 53 382)" fill="#9046A4"/>
<circle cx="1.5" cy="1.5" r="1.5" transform="matrix(1 0 0 -1 56 376)" fill="#9046A4"/>
<circle cx="1.5" cy="1.5" r="1.5" transform="matrix(1 0 0 -1 51.5 344)" fill="#9046A4"/>
<circle cx="1.5" cy="1.5" r="1.5" transform="matrix(1 0 0 -1 55 344)" fill="#9046A4"/>
<path d="M54 347L55.5 348.5V360.5L51.5 364V377.5" stroke="#9046A4"/>
<path d="M57 343L62 348V362L57.5 366V374.5" stroke="#9046A4"/>
<path d="M53.5 343L58.4999 348V362L54.5 365.5V379.5" stroke="#9046A4"/>
<path d="M36.7401 396.5L22 411.24V449" stroke="#9046A4"/>
<path d="M36.5 400.278L24.5 412.278V451" stroke="#9046A4"/>
<path d="M30.5 399.5L19.5 410.5V447" stroke="#9046A4"/>
<circle cx="31.5" cy="398.5" r="1.5" fill="#9046A4"/>
<circle cx="37.5" cy="395.5" r="1.5" fill="#9046A4"/>
<circle cx="19.5" cy="447.5" r="1.5" fill="#9046A4"/>
<circle cx="22" cy="449.5" r="1.5" fill="#9046A4"/>
<circle cx="24.5" cy="451.5" r="1.5" fill="#9046A4"/>
<circle cx="37" cy="399.5" r="1.5" fill="#9046A4"/>
<path d="M48.2599 475.5L63 460.76V423" stroke="#9046A4"/>
<path d="M48.5 471.722L60.5 459.722V421" stroke="#9046A4"/>
<circle cx="47.5" cy="476.5" r="1.5" transform="rotate(-180 47.5 476.5)" fill="#9046A4"/>
<circle cx="63" cy="422.5" r="1.5" transform="rotate(-180 63 422.5)" fill="#9046A4"/>
<circle cx="60.5" cy="420.5" r="1.5" transform="rotate(-180 60.5 420.5)" fill="#9046A4"/>
<circle cx="48" cy="472.5" r="1.5" transform="rotate(-180 48 472.5)" fill="#9046A4"/>
<path d="M27.5 556V548.5L21.5 542.5V497" stroke="#9046A4"/>
<path d="M24.5 558V549.5L18.5 543.5V490" stroke="#9046A4"/>
<path d="M21.5 560V551.5L15.5 545.5V494" stroke="#9046A4"/>
<circle cx="15.5" cy="493.5" r="1.5" fill="#9046A4"/>
<circle cx="18.5" cy="489.5" r="1.5" fill="#9046A4"/>
<circle cx="21.5" cy="496.5" r="1.5" fill="#9046A4"/>
<circle cx="21.5" cy="560.5" r="1.5" fill="#9046A4"/>
<circle cx="24.5" cy="558.5" r="1.5" fill="#9046A4"/>
<circle cx="27.5" cy="556.5" r="1.5" fill="#9046A4"/>
<path d="M58 494V522L65 529V567" stroke="#9046A4"/>
<path d="M61 492V520L68 527V565" stroke="#9046A4"/>
<path d="M64 490V518L71 525V563" stroke="#9046A4"/>
<circle cx="71" cy="563.5" r="1.5" fill="#9046A4"/>
<circle cx="68" cy="565.5" r="1.5" fill="#9046A4"/>
<circle cx="65" cy="567.5" r="1.5" fill="#9046A4"/>
<circle cx="58" cy="493.5" r="1.5" fill="#9046A4"/>
<circle cx="61" cy="491.5" r="1.5" fill="#9046A4"/>
<circle cx="64" cy="489.5" r="1.5" fill="#9046A4"/>
<circle cx="27.5" cy="660.5" r="1.5" fill="#9046A4"/>
<circle cx="30.5" cy="663.5" r="1.5" fill="#9046A4"/>
<circle cx="29.5" cy="568.5" r="1.5" fill="#9046A4"/>
<circle cx="26.5" cy="573.5" r="1.5" fill="#9046A4"/>
<path d="M30.5 662.5V649L16.2776 624.5V606L29.5 582.5V569.5" stroke="#9046A4"/>
<path d="M27.5 660V650L13 624.5V606L26.5677 582.5V574" stroke="#9046A4"/>
<circle cx="30.5" cy="634.5" r="1.5" fill="#9046A4"/>
<circle cx="31" cy="630.5" r="1.5" fill="#9046A4"/>
<circle cx="36.5" cy="659.5" r="1.5" fill="#9046A4"/>
<circle cx="39" cy="669.5" r="1.5" fill="#9046A4"/>
<circle cx="43" cy="672.5" r="1.5" fill="#9046A4"/>
<circle cx="45.5" cy="662.062" r="1.5" fill="#9046A4"/>
<circle cx="52.5" cy="651.5" r="1.5" fill="#9046A4"/>
<circle cx="55" cy="648.5" r="1.5" fill="#9046A4"/>
<circle cx="63.5" cy="626.5" r="1.5" fill="#9046A4"/>
<circle cx="63.5" cy="621.5" r="1.5" fill="#9046A4"/>
<path d="M62.8923 622.5L52.5 639.5V651" stroke="#9046A4"/>
<path d="M63.5 626.5L55 640V647.5" stroke="#9046A4"/>
<circle cx="60.5" cy="643.5" r="1.5" fill="#9046A4"/>
<circle cx="69.5" cy="614.5" r="1.5" fill="#9046A4"/>
<circle cx="72.5" cy="619.5" r="1.5" fill="#9046A4"/>
<circle cx="65.5" cy="642.5" r="1.5" fill="#9046A4"/>
<circle cx="1.5" cy="1.5" r="1.5" transform="matrix(-1 0 0 1 70 606)" fill="#9046A4"/>
<circle cx="1.5" cy="1.5" r="1.5" transform="matrix(-1 0 0 1 67.5 603)" fill="#9046A4"/>
<circle cx="1.5" cy="1.5" r="1.5" transform="matrix(-1 0 0 1 59 581)" fill="#9046A4"/>
<circle cx="1.5" cy="1.5" r="1.5" transform="matrix(-1 0 0 1 59 576)" fill="#9046A4"/>
<path d="M58.1077 578.5L68.5 595.5V607" stroke="#9046A4"/>
<path d="M57.5 582.5L66 596V603.5" stroke="#9046A4"/>
<circle cx="1.5" cy="1.5" r="1.5" transform="matrix(-1 0 0 1 65 605)" fill="#9046A4"/>
<circle cx="1.5" cy="1.5" r="1.5" transform="matrix(-1 0 0 1 59 586)" fill="#9046A4"/>
<path d="M57.7265 588L63.5 596.5V605.5" stroke="#9046A4"/>
<path d="M36.5 659L36.4999 644.5L31.3038 635.5" stroke="#9046A4"/>
<path d="M39 668.5V644.5L31.2058 631" stroke="#9046A4"/>
<path d="M45.5 661.562V645.062L49 639" stroke="#9046A4"/>
<path d="M43 671.5V644.697L48 635" stroke="#9046A4"/>
<path d="M69.5001 615L69.5001 628.5L61.1285 643" stroke="#9046A4"/>
<path d="M72.4999 620L72.5 629.5L65.775 642" stroke="#9046A4"/>
<defs>
<clipPath id="clip0_41_2">
<rect width="31.5345" height="52.5865" fill="white" transform="translate(25 65)"/>
</clipPath>
<clipPath id="clip1_41_2">
<rect width="31.5345" height="62.7671" fill="white" transform="translate(25 145.587)"/>
</clipPath>
<clipPath id="clip2_41_2">
<rect width="31.5345" height="52.7351" fill="white" transform="translate(25 236.354)"/>
</clipPath>
<clipPath id="clip3_41_2">
<rect width="20.0435" height="60.6706" fill="white" transform="translate(30.7455 317.089)"/>
</clipPath>
<clipPath id="clip4_41_2">
<rect width="21.3591" height="56.2807" fill="white" transform="translate(30.0876 405.759)"/>
</clipPath>
<clipPath id="clip5_41_2">
<rect width="31.5345" height="67.143" fill="white" transform="translate(25 490.04)"/>
</clipPath>
<clipPath id="clip6_41_2">
<rect width="31.5345" height="55" fill="white" transform="translate(25 585.183)"/>
</clipPath>
</defs>
</svg>
