<?xml version="1.0" encoding="UTF-8" standalone="no"?>
<!-- Created with Inkscape (http://www.inkscape.org/) -->

<svg
   width="73.554825mm"
   height="71.939812mm"
   viewBox="0 0 73.554825 71.939812"
   version="1.1"
   id="svg1"
   xml:space="preserve"
   xmlns="http://www.w3.org/2000/svg"
   xmlns:svg="http://www.w3.org/2000/svg"><defs
     id="defs1" /><g
     id="layer1"
     transform="translate(-5.560994,-5.3138962)"><path
       style="fill:#000000"
       d="m 41.985631,77.092147 c -0.25529,-0.255294 -0.1911,-9.689469 0.0688,-10.109984 0.12002,-0.194195 0.28493,-0.245148 0.36646,-0.113229 0.23489,0.380071 0.43791,7.19911 0.26434,8.878622 -0.14966,1.448048 -0.30246,1.741722 -0.69959,1.344591 z m -12.07968,-5.413236 c 0.005,-0.651315 1.30608,-3.181292 1.55678,-3.02635 0.13616,0.08415 0.0208,0.612997 -0.26074,1.195832 -0.27768,0.574725 -0.50487,1.15519 -0.50487,1.289922 0,0.134732 -0.1786,0.393187 -0.39688,0.574345 -0.32001,0.265585 -0.39637,0.259049 -0.39429,-0.03375 z m 23.66307,-1.16442 c -0.69376,-1.568703 -0.77983,-1.976831 -0.4169,-1.976831 0.18874,0 1.62208,2.937865 1.62208,3.324731 0,0.06317 -0.12561,0.114852 -0.27914,0.114852 -0.15353,0 -0.57025,-0.658239 -0.92604,-1.462752 z m -11.49482,-4.981733 c 0,-0.258411 -0.57482,-0.401658 -2.05052,-0.510999 -2.78213,-0.20614 -5.8355,-1.03763 -8.51582,-2.31901 -7.42254,-3.548509 -12.18096,-10.184526 -13.29322,-18.53853 l -0.31552,-2.369844 -4.05576,0.03453 c -3.69211,0.03143 -4.0798497,0.07954 -4.3244697,0.536612 -0.35568,0.664599 -1.74646,1.366828 -2.33627,1.179629 -1.65384,-0.524908 -2.18445,-2.571634 -0.92378,-3.563279 1.11507,-0.87711 2.67902,-0.552685 3.23676,0.671431 0.28566,0.626939 0.32264,0.632283 4.3757697,0.632283 h 4.08767 l 0.16511,-1.521355 c 0.6461,-5.95339 3.10797,-10.983324 7.38586,-15.090269 1.21571,-1.167124 3.13932,-2.665827 4.2747,-3.330452 3.40566,-1.993598 5.71398,-2.702177 11.42959,-3.50851 0.85022,-0.119944 0.8599,-0.137555 0.8599,-1.564529 0,-1.921389 0.48119,-1.8568 0.58211,0.07813 l 0.0793,1.521354 2.0671,0.187388 c 8.55811,0.775812 16.24227,6.257464 19.758927,14.09544 0.828921,1.84751 1.733232,5.283455 2.003266,7.611443 l 0.176469,1.521355 h 4.052726 c 3.82772,0 4.062101,-0.02954 4.221597,-0.532069 0.190955,-0.601645 1.413762,-1.320015 2.246925,-1.320015 0.772582,0 1.853196,1.160235 1.853196,1.989743 0,2.193673 -2.638384,2.918591 -3.856448,1.059591 l -0.444538,-0.678452 -4.049641,0.03773 -4.049641,0.03773 -0.166556,1.753395 c -1.06492,11.21077 -10.476582,20.417655 -21.840572,21.365376 -1.50933,0.125873 -2.1051,0.277114 -2.1051,0.534393 0,0.197359 -0.11907,0.358834 -0.26459,0.358834 -0.14552,0 -0.26458,-0.16158 -0.26458,-0.359068 z m 0,-1.984141 v -1.020293 l -2.05504,-0.171383 c -10.08223,-0.840826 -18.00634,-8.604052 -19.25299,-18.862079 -0.16111,-1.325709 -0.191,-1.365556 -1.10439,-1.472188 l -0.93879,-0.109599 0.16728,2.005873 c 0.33204,3.98145 2.31949,8.916998 4.84898,12.041774 3.96594,4.899269 10.97156,8.363221 17.34276,8.575179 0.98071,0.03263 0.99219,0.0212 0.99219,-0.987284 z m -16.40417,-5.805515 c 0,-0.265475 0.87181,-1.111693 1.14532,-1.111693 0.37047,0 0.13646,0.414713 -0.49217,0.872248 -0.35923,0.261455 -0.65315,0.369205 -0.65315,0.239445 z m 19.98913,6.54266 C 56.477981,62.781003 64.982982,54.184093 65.795906,43.931409 l 0.157339,-1.984375 -0.932671,-0.01874 -0.932671,-0.01874 -0.178602,1.905952 c -0.346262,3.695128 -2.402539,8.311187 -4.93822,11.085628 -1.34683,1.473647 -1.35143,1.48469 -0.85726,2.059949 l 0.49684,0.578359 -0.65205,-0.413893 c -0.62945,-0.399551 -0.70833,-0.369666 -2.27603,0.862342 -3.04534,2.393243 -7.31872,4.072066 -11.16098,4.384667 l -1.91823,0.156064 v 1.020144 c 0,1.180096 -0.0475,1.16863 3.05579,0.736996 z m -3.58496,-3.421019 c 0,-0.769992 -0.0376,-0.793867 -1.25677,-0.797661 -3.34385,-0.0104 -8.47005,-2.084468 -10.98564,-4.444789 l -0.73303,-0.68779 -0.67156,0.671562 -0.67156,0.671561 1.14001,0.922574 c 3.19025,2.581766 7.88301,4.365819 11.6572,4.431726 1.5199,0.02654 1.52135,0.02581 1.52135,-0.767183 z m 6.48229,-0.01187 c 2.30195,-0.703863 6.00399,-2.635043 7.40834,-3.86458 0.97037,-0.849587 1.01985,-0.954825 0.59531,-1.266222 -0.25466,-0.186794 -0.46302,-0.434249 -0.46302,-0.549901 0,-0.115652 0.23937,0.0064 0.53194,0.271122 0.51665,0.467566 0.55174,0.463042 1.22101,-0.15743 0.95169,-0.882301 3.18539,-4.224605 3.834432,-5.737501 0.70781,-1.649869 1.552183,-5.210943 1.554511,-6.556012 0.0018,-1.068885 -2.78e-4,-1.071102 -0.924188,-0.96324 -0.893417,0.104301 -0.926042,0.147078 -0.926042,1.214199 0,4.407214 -3.318953,10.064341 -7.766623,13.238128 -2.93257,2.092639 -6.96889,3.574944 -9.76202,3.585021 -1.23221,0.0044 -1.25677,0.02081 -1.25677,0.837501 v 0.832965 l 2.05052,-0.158871 c 1.12778,-0.08738 2.88396,-0.41371 3.9026,-0.725179 z M 42.074201,58.3512 c 0,-0.509323 0.11906,-0.926042 0.26458,-0.926042 0.14552,0 0.26459,0.433988 0.26459,0.964416 v 0.964417 l 1.78593,-0.15181 c 5.16567,-0.439097 10.63204,-3.717271 13.57032,-8.1381 1.2419,-1.868516 2.33162,-4.766431 2.59219,-6.893478 0.13199,-1.077443 0.20264,-2.001675 0.15698,-2.05385 -0.0456,-0.05218 -0.65547,0.382701 -1.35515,0.966391 -2.43061,2.027669 -5.51634,4.105857 -7.40637,4.988067 -2.41382,1.126703 -2.81117,1.134691 -0.74494,0.01498 2.0885,-1.131785 4.52128,-2.786921 7.22744,-4.917168 l 2.20036,-1.73209 -0.61286,-0.460458 c -4.76154,-3.577479 -7.6412,-5.521527 -9.58949,-6.473843 -2.68627,-1.313033 -2.61847,-1.541146 0.11264,-0.378956 2.01609,0.857923 4.91131,2.731615 7.93795,5.137176 l 1.98437,1.577176 0.0812,-1.244336 c 0.10542,-1.616138 -0.52374,-3.744873 -1.88504,-6.377906 -1.46332,-2.83035 -4.56401,-5.978906 -7.2611,-7.373184 -1.98569,-1.026519 -6.33655,-2.284108 -7.90229,-2.284108 h -0.89211 v 1.322917 c 0,0.727604 -0.11907,1.322916 -0.26459,1.322916 -0.14552,0 -0.26458,-0.610691 -0.26458,-1.357092 v -1.357092 l -1.56483,0.17704 c -4.53847,0.513471 -8.16974,2.220914 -11.29581,5.311365 -1.71097,1.691484 -2.36627,2.575637 -3.23851,4.369529 -1.19624,2.460246 -1.89252,4.828803 -1.89252,6.437861 0,0.960456 0.0351,1.008867 0.48745,0.672016 0.2681,-0.199651 1.76441,-1.328171 3.32514,-2.507823 2.6826,-2.027594 6.24071,-4.078178 7.05949,-4.068466 0.20499,0.0024 -0.63932,0.546979 -1.87624,1.210105 -1.23693,0.663127 -3.36626,2.060122 -4.73184,3.104434 -1.36559,1.044312 -2.80707,2.136874 -3.20329,2.427915 -0.39623,0.291042 -0.76721,0.60404 -0.82441,0.695552 -0.24357,0.389669 6.02028,5.056073 8.87903,6.614654 1.02569,0.5592 1.79056,1.018401 1.69971,1.020448 -1.14334,0.02576 -5.70818,-2.751413 -9.16139,-5.573641 l -1.65365,-1.351487 0.004,1.149321 c 0.01,2.883309 1.5688,6.794908 3.79964,9.53349 2.94824,3.619278 8.57929,6.50051 12.79905,6.54887 l 1.38906,0.01592 z m -3.70417,-15.769627 c -7.24076,-0.537517 -10.58333,-0.865396 -10.58333,-1.038139 0,-0.25183 1.75061,-0.437753 8.69916,-0.923895 4.76215,-0.333175 6.83354,-0.359952 10.58333,-0.136809 6.52725,0.388423 10.8399,0.848121 10.20744,1.088042 -0.56599,0.214707 -9.33133,0.955674 -13.35035,1.128554 -1.38244,0.05947 -3.88276,0.0065 -5.55625,-0.117753 z m 3.18435,-0.761053 c -0.30807,-0.190402 -0.31257,-0.301879 -0.0261,-0.647072 0.45253,-0.545266 -0.09,-0.560311 -1.0416,-0.02889 l -0.66146,0.369403 0.92604,0.392611 c 0.93645,0.397022 1.48895,0.337819 0.8031,-0.08606 z m 2.5042,-0.04231 c 0.17621,-0.175613 0.0931,-0.39027 -0.24901,-0.642736 -0.65941,-0.486683 -1.09888,-0.490484 -0.69682,-0.006 0.24553,0.295843 0.18379,0.466007 -0.29833,0.822305 l -0.60793,0.449267 0.79375,-0.179569 c 0.43656,-0.09876 0.91281,-0.298221 1.05834,-0.443241 z m -7.08312,0.141265 c -0.0879,-0.08792 -0.31612,-0.09732 -0.50712,-0.02089 -0.21107,0.08446 -0.14837,0.147157 0.15985,0.159852 0.27892,0.01149 0.43519,-0.05105 0.34727,-0.138964 z M 28.375941,54.996 c 0.0584,-0.175208 -0.4706,-1.080601 -1.17557,-2.011985 -2.25301,-2.976648 -3.53453,-6.030116 -3.82003,-9.101999 l -0.16754,-1.802688 h -0.92459 -0.92458 l 0.16988,1.658182 c 0.37718,3.681519 2.26328,8.097094 4.59932,10.767533 0.96412,1.102131 1.24722,1.285669 1.65033,1.069928 0.26763,-0.143227 0.53437,-0.403764 0.59278,-0.578971 z M 8.4721213,42.343909 c 0.63704,-0.637042 0.6708,-1.143481 0.11339,-1.700893 -0.49346,-0.49346 -1.46733,-0.543501 -1.91256,-0.09827 -0.4759,0.4759 -0.38635,1.732768 0.14552,2.042558 0.6872,0.400255 1.06571,0.344543 1.65365,-0.243391 z m 69.3382227,0.255274 c 0.580025,-0.31042 0.69737,-1.551344 0.194273,-2.054441 -0.448061,-0.44806 -1.276072,-0.394019 -1.844479,0.120382 -0.600389,0.543345 -0.615104,1.095214 -0.04597,1.724097 0.496833,0.548995 0.956395,0.605882 1.696178,0.209962 z M 20.770351,39.520262 c 1.09303,-10.206486 9.07886,-17.982076 19.51791,-19.004047 l 1.78594,-0.174842 v -0.904982 c 0,-0.862335 -0.0448,-0.904983 -0.95062,-0.904983 -1.70252,0 -6.10903,1.040537 -8.275,1.954028 -1.16434,0.491056 -2.93708,1.438031 -3.93943,2.104391 -2.4553,1.632283 -5.75816,5.14816 -7.12876,7.58854 -1.49587,2.663421 -2.70391,6.38225 -2.89803,8.92128 l -0.157,2.053637 0.9302,0.04534 0.9302,0.04534 z m 2.18771,1.504343 c 0.21904,-0.0024 0.33072,-0.440938 0.33072,-1.298659 0,-2.452663 1.64625,-6.634879 3.71287,-9.432354 2.94753,-3.98992 8.02244,-6.765704 13.5512,-7.411985 1.47623,-0.172564 1.52135,-0.201486 1.52135,-0.975288 v -0.797451 l -1.891,0.186335 c -4.92104,0.484907 -9.77899,2.713067 -12.9399,5.935051 -3.16347,3.224587 -5.29587,7.815346 -5.71853,12.311195 l -0.17183,1.827748 0.63719,-0.17049 c 0.35046,-0.09377 0.78602,-0.172115 0.96793,-0.174102 z m 4.53031,-12.902051 c -0.32911,-0.419643 -0.31975,-0.429002 0.0999,-0.09989 0.25467,0.199719 0.46302,0.408078 0.46302,0.46302 0,0.217762 -0.21727,0.0776 -0.56291,-0.363126 z m 35.752496,12.260255 c 0,-2.857288 -1.349095,-6.946154 -3.273216,-9.920548 -3.16089,-4.886236 -8.30514,-8.109131 -14.37226,-9.004282 -2.86574,-0.422817 -2.99202,-0.402964 -2.99202,0.470411 0,0.741678 0.0292,0.755489 2.3151,1.095466 6.71295,0.998392 11.74407,4.588977 14.71148,10.499204 0.87442,1.741602 1.758833,4.921573 1.758833,6.324038 0,1.287209 0.115931,1.438478 1.102431,1.438478 0.676675,0 0.749652,-0.08788 0.749652,-0.902767 z m 2.641239,-0.354004 C 65.870956,36.978763 64.27599,32.215069 62.202425,29.038686 58.419781,23.244256 51.705501,19.293218 44.521601,18.634349 l -1.91823,-0.175929 v 0.924542 0.924542 l 1.78593,0.166738 c 2.11858,0.197794 4.34922,0.752899 6.47364,1.610991 7.0969,2.866566 12.28407,9.82354 13.074119,17.534872 l 0.170633,1.665471 h 0.889504 c 0.885418,0 0.889483,-0.0058 0.884909,-1.256771 z M 17.997121,65.288231 c 0,-0.430288 2.94878,-3.365155 3.38111,-3.365155 0.59473,0 0.33371,0.401605 -1.33771,2.058164 -1.69701,1.681927 -2.0434,1.903484 -2.0434,1.306991 z m 46.625165,-1.321753 c -1.670806,-1.685791 -1.902332,-2.043402 -1.322945,-2.043402 0.432328,0 3.38111,2.934867 3.38111,3.365155 0,0.611708 -0.390334,0.361036 -2.058165,-1.321753 z M 11.382541,52.681669 c 0,-0.231385 2.63575,-1.341926 3.18492,-1.341926 0.71043,0 0.0879,0.519532 -1.22409,1.021613 -1.64233,0.628482 -1.96083,0.680512 -1.96083,0.320313 z M 71.117529,52.30843 c -0.688304,-0.314497 -1.253851,-0.720641 -1.25677,-0.902542 -0.0029,-0.181901 0.05158,-0.330729 0.121122,-0.330729 0.338608,0 3.048569,1.46017 3.048569,1.642618 0,0.328946 -0.558815,0.209364 -1.912921,-0.409347 z M 12.903891,31.176957 c -1.26278,-0.543375 -1.77615,-1.203938 -0.66146,-0.85111 1.05639,0.334372 2.84427,1.147161 2.84427,1.293034 0,0.280816 -0.95031,0.08842 -2.18281,-0.441924 z m 56.686976,0.362353 c 0,-0.363413 3.150911,-1.619264 3.331122,-1.327676 0.199523,0.322835 0.267582,0.277152 -1.448176,0.97206 -1.553891,0.629349 -1.882946,0.691495 -1.882946,0.355616 z M 19.591791,19.729268 c -0.93353,-0.941906 -1.63108,-1.778812 -1.5501,-1.85979 0.15999,-0.15999 3.6596,3.076474 3.6596,3.384426 0,0.454222 -0.52253,0.07657 -2.1095,-1.524636 z m 43.384493,1.506476 c 0,-0.258777 3.252978,-3.498086 3.512848,-3.498086 0.526547,0 0.04261,0.796391 -1.321753,2.175141 -1.368227,1.382654 -2.191095,1.879488 -2.191095,1.322945 z M 30.578941,13.328521 c -0.47029,-1.027243 -0.60272,-1.590377 -0.41757,-1.775536 0.14914,-0.149138 0.27116,-0.202631 0.27116,-0.118874 0,0.08376 0.29404,0.817155 0.65342,1.629773 0.35938,0.812618 0.54728,1.54308 0.41756,1.62325 -0.12971,0.08017 -0.54577,-0.531206 -0.92457,-1.358613 z m 22.34318,1.267059 c 0,-0.507715 1.33344,-3.207922 1.58416,-3.207922 0.40182,0 0.33392,0.321062 -0.41293,1.952402 -0.60103,1.312824 -1.17123,1.924059 -1.17123,1.25552 z m -10.92527,-0.481378 c -0.0672,-0.262672 -0.13521,-2.203992 -0.15105,-4.314044 -0.0283,-3.776265 0.17102,-4.925715 0.75333,-4.343409 0.4049,0.404909 0.24348,8.894521 -0.17175,9.032557 -0.16955,0.05637 -0.36329,-0.112432 -0.43053,-0.375104 z"
       id="path31" /></g></svg>
