<?xml version="1.0" encoding="UTF-8" standalone="no"?>
<!-- Created with Inkscape (http://www.inkscape.org/) -->

<svg
   width="74.103561mm"
   height="72.143692mm"
   viewBox="0 0 74.103561 72.143692"
   version="1.1"
   id="svg1"
   xml:space="preserve"
   xmlns="http://www.w3.org/2000/svg"
   xmlns:svg="http://www.w3.org/2000/svg"><defs
     id="defs1" /><g
     id="layer1"
     transform="translate(-4.118232,-169.97613)"><path
       style="fill:#000000"
       d="m 40.789362,241.92187 c -0.26516,-0.42905 -0.20321,-10.15804 0.0664,-10.42765 0.50824,-0.50825 0.62526,0.49691 0.61485,5.28154 -0.01,4.46536 -0.2024,5.92091 -0.68126,5.14611 z m -12.06488,-5.69588 c 0,-0.57402 1.10491,-3.07799 1.3582,-3.07799 0.34303,0 0.28548,0.33529 -0.33658,1.96083 -0.53244,1.39135 -1.02162,1.92628 -1.02162,1.11716 z m 23.55982,-1.02747 c -0.32329,-0.76398 -0.64956,-1.53789 -0.72504,-1.71979 -0.0755,-0.1819 0.0322,-0.33073 0.23927,-0.33073 0.35253,0 1.5322,2.3975 1.5322,3.11397 0,0.74125 -0.49606,0.23712 -1.04643,-1.06345 z m -11.38898,-4.93496 c 0,-0.13123 -0.74414,-0.3214 -1.65365,-0.4226 -6.15234,-0.68454 -11.14418,-2.90504 -15.11823,-6.72496 -4.07391,-3.91591 -6.63295,-9.15143 -7.20574,-14.74218 l -0.17254,-1.68415 h -4.1968 c -2.662,0 -4.19679,0.0982 -4.19679,0.26847 0,0.36081 -1.59799,1.3168 -2.20317,1.31804 -0.72907,10e-4 -2.03017,-1.43386 -2.03017,-2.23964 0,-0.38389 0.29012,-0.98395 0.64944,-1.34327 0.9209,-0.9209 2.08771,-0.86341 3.10406,0.15294 l 0.80237,0.80237 4.07207,0.0825 4.07206,0.0825 v -0.71788 c 0,-0.39484 0.18387,-1.77528 0.4086,-3.06765 1.35946,-7.81805 7.28748,-14.89359 15.03746,-17.94834 1.688,-0.66534 4.44095,-1.26995 7.30878,-1.60516 l 1.1913,-0.13925 -6.7e-4,-6.12187 c -5.1e-4,-4.66213 0.0782,-6.14845 0.33005,-6.23336 0.25837,-0.0871 0.33073,1.25013 0.33073,6.11205 v 6.22354 l 1.25677,0.15993 c 7.07129,0.89984 11.68067,3.01617 15.90004,7.30025 3.86224,3.92148 6.92028,10.36541 6.92028,14.58249 v 1.27309 h 4.08068 4.08069 l 0.79375,-0.79375 c 0.88155,-0.88155 1.55173,-0.98371 2.66762,-0.40666 1.35214,0.69921 1.47241,2.14378 0.2632,3.16126 -1.07417,0.90386 -1.95071,0.87133 -2.93082,-0.10877 l -0.79375,-0.79375 h -4.0425 -4.0425 l -0.14929,1.91823 c -0.56288,7.2324 -5.78371,14.74063 -12.78133,18.38119 -2.63704,1.37194 -6.21195,2.42865 -8.9318,2.64015 -1.37199,0.10669 -2.12082,0.28182 -2.21112,0.51713 -0.15301,0.39874 -0.60908,0.48649 -0.60908,0.11719 z m -0.26459,-1.99836 c 0,-1.0018 0.13634,-0.94136 -3.04271,-1.34896 -3.2419,-0.41566 -7.12472,-2.06977 -10.0003,-4.26021 l -1.53365,-1.16823 -0.78146,0.55645 c -0.91156,0.64909 -1.02654,0.41852 -0.21961,-0.44041 l 0.56184,-0.59806 -1.19244,-1.40337 c -1.64533,-1.93636 -2.70718,-3.68404 -3.48833,-5.74141 -0.72118,-1.8994 -1.47,-5.15698 -1.47,-6.39488 0,-0.71098 -0.0781,-0.77645 -0.92604,-0.77645 -0.86879,0 -0.92592,0.0532 -0.92405,0.85989 0.008,3.51976 1.71731,8.40402 4.23574,12.10469 3.59511,5.28276 10.95532,9.15188 18.05341,9.49031 0.66003,0.0315 0.7276,-0.0502 0.7276,-0.87936 z m 5.95313,0.19682 c 9.76015,-2.1433 17.05,-10.19163 18.09573,-19.97854 l 0.19167,-1.79381 h -0.96939 -0.96939 l -0.15449,1.84272 c -0.30417,3.62814 -2.09999,7.66252 -4.87036,10.94142 -1.37326,1.62533 -1.37512,1.63005 -0.8599,2.17847 0.75819,0.80707 0.62982,1.11124 -0.15701,0.37205 -0.47495,-0.44619 -0.77622,-0.55723 -1.02247,-0.37685 -5.30289,3.88434 -7.18389,4.662 -13.45158,5.5613 -0.93364,0.13397 -0.99219,0.19784 -0.99219,1.0824 v 0.94003 l 1.65365,-0.18124 c 0.9095,-0.0997 2.48708,-0.36426 3.50573,-0.58795 z m -5.95313,-2.93965 c 0,-0.71212 -0.0614,-0.74927 -1.33365,-0.80732 -3.12387,-0.14254 -7.15543,-1.66627 -9.96593,-3.76662 -0.75774,-0.56628 -1.48343,-1.0296 -1.61264,-1.0296 -0.12921,0 -0.44318,0.23012 -0.69772,0.51138 -0.44795,0.49498 -0.40896,0.55101 1.21576,1.74714 1.97598,1.45472 2.61858,1.8033 4.95568,2.68821 2.18427,0.82704 4.54472,1.35484 6.18173,1.38224 1.2073,0.0202 1.25677,-0.008 1.25677,-0.72543 z m 7.01621,-0.17276 c 2.49622,-0.83795 4.84195,-2.01208 6.51452,-3.26077 1.41252,-1.05455 1.46928,-1.1593 0.88906,-1.64084 -0.21828,-0.18116 -0.39291,-0.46363 -0.38807,-0.62771 0.005,-0.16408 0.24711,-0.0121 0.53837,0.33766 l 0.52958,0.636 0.80773,-0.76829 c 1.1904,-1.13225 3.55092,-4.78611 4.17135,-6.45683 0.71965,-1.9379 1.34376,-4.66234 1.34859,-5.88697 0.004,-0.92234 -0.0508,-0.99219 -0.77363,-0.99219 -0.72738,0 -0.78848,0.0811 -0.94724,1.25677 -0.47226,3.49743 -1.60715,6.34016 -3.58169,8.97164 -3.25598,4.33926 -8.2333,7.20703 -13.39391,7.71714 -1.74728,0.17272 -1.80762,0.20291 -1.89249,0.94689 l -0.0877,0.76847 2.13146,-0.16436 c 1.17231,-0.0904 3.03262,-0.46688 4.13403,-0.83661 z m -7.01621,-2.38807 c 0,-0.64676 0.1197,-0.92604 0.39688,-0.92604 0.27718,0 0.39687,0.27928 0.39687,0.92604 0,0.91609 0.0123,0.92604 1.1483,0.92604 2.75559,0 7.08544,-1.63924 9.9136,-3.75321 1.23142,-0.92045 1.36191,-1.10448 1.05833,-1.49261 -0.30637,-0.39171 -0.29558,-0.40308 0.0937,-0.0987 0.37618,0.29411 0.54229,0.23654 1.14522,-0.39688 2.27409,-2.38911 4.22843,-6.42353 4.59776,-9.49138 0.1126,-0.9353 0.15744,-1.70055 0.0996,-1.70055 -0.0578,0 -0.78066,0.51936 -1.60635,1.15412 -3.75309,2.88527 -8.72146,5.56832 -11.79236,6.36819 -2.11787,0.55163 -8.57384,0.59133 -10.22821,0.0629 -3.60614,-1.15188 -6.92304,-2.99869 -10.84327,-6.03743 -1.09822,-0.85127 -2.0593,-1.54777 -2.13572,-1.54777 -0.25084,0 0.21716,3.07374 0.68953,4.52869 1.50235,4.62736 4.65144,8.3186 8.86398,10.38999 2.55079,1.25428 5.04022,1.9555 7.0776,1.99361 1.11274,0.0208 1.12448,0.0114 1.12448,-0.905 z m -11.64166,-4.56656 c 0,-0.28933 1.08083,-0.92309 1.26322,-0.7407 0.0843,0.0844 -0.0761,0.32693 -0.3565,0.53908 -0.5679,0.42965 -0.90672,0.50499 -0.90672,0.20162 z m -2.35096,0.0851 c -1.14193,-1.20004 -2.84537,-3.96676 -3.48878,-5.66644 -0.4868,-1.28596 -1.26633,-4.77385 -1.29478,-5.79327 -0.005,-0.19216 -0.35613,-0.33073 -0.83716,-0.33073 h -0.82792 l 0.17857,1.5784 c 0.43177,3.81635 2.28539,8.21747 4.55243,10.80904 l 1.225,1.40036 0.63182,-0.59356 0.63181,-0.59357 z m 10.3578,-4.68774 c -1.59489,-0.77355 -3.04799,-2.28389 -3.93462,-4.08962 -0.64917,-1.32211 -0.76102,-1.85818 -0.73911,-3.54225 0.0334,-2.56638 0.7431,-4.23304 2.5678,-6.03014 1.6148,-1.59038 2.60931,-2.05101 5.552,-2.57154 2.91891,-0.51632 3.94667,-0.4916 6.27949,0.15102 2.49097,0.68619 4.23576,1.64257 8.74171,4.79158 1.9732,1.37899 3.72232,2.59049 3.88693,2.69222 0.66275,0.40961 -0.40233,-4.25003 -1.51891,-6.64509 -2.61505,-5.60927 -8.22322,-9.43097 -15.01765,-10.23381 l -1.38907,-0.16413 v 1.33203 c 0,1.00764 -0.0967,1.33203 -0.39687,1.33203 -0.29986,0 -0.39688,-0.32338 -0.39688,-1.32292 0,-1.53068 0.13618,-1.48823 -2.91632,-0.90918 -2.93065,0.55594 -4.62617,1.22421 -6.9281,2.73064 -4.33588,2.8375 -7.28782,7.53427 -7.78494,12.38645 l -0.17576,1.71551 2.92034,-2.21094 c 4.29789,-3.25387 10.01942,-6.03956 12.40466,-6.03956 1.10236,0 0.47506,0.38791 -1.65011,1.02039 -2.35788,0.70173 -4.19405,1.51522 -4.23721,1.87724 -0.074,0.6202 -0.11725,0.65857 -0.34217,0.30332 -0.19278,-0.30448 -0.46457,-0.23806 -1.5173,0.37082 -1.63018,0.94285 -7.23559,5.12298 -7.23559,5.39579 0,0.24777 4.01236,3.26415 6.197,4.65874 1.97269,1.25928 4.58328,2.46648 6.63529,3.06832 2.09124,0.61334 2.3606,0.59523 0.99539,-0.0669 z m 11.13321,-0.67768 c 2.29074,-0.93081 4.01384,-1.84907 6.25995,-3.33598 2.03319,-1.34598 5.02708,-3.57508 5.02708,-3.74293 0,-0.25488 -6.41668,-4.37939 -7.75829,-4.98687 -0.84731,-0.38366 -1.47045,-0.81103 -1.38474,-0.94971 0.28094,-0.45457 -0.37613,-0.59693 -0.79977,-0.17328 -0.44901,0.449 -1.1697,0.55835 -1.1697,0.17747 0,-0.12995 0.1985,-0.31245 0.44112,-0.40555 0.66093,-0.25362 0.1721,-0.56552 -1.85805,-1.1855 -2.53759,-0.77496 -3.28832,-0.7133 -1.62578,0.13352 1.84412,0.93931 3.14516,2.2873 3.95992,4.10284 1.81899,4.05324 0.0917,8.90093 -3.89312,10.92619 l -0.86055,0.43737 1.04207,-0.17822 c 0.57313,-0.098 1.75207,-0.46673 2.61986,-0.81935 z m -4.64923,-2.07203 c 1.30743,-0.54627 2.14504,-1.35236 2.73619,-2.6332 0.99294,-2.15142 0.37761,-5.16169 -1.31018,-6.40953 -2.85011,-2.10717 -7.48871,-1.2635 -8.78804,1.59838 -1.28428,2.82871 -0.21343,5.96871 2.5285,7.41422 1.0262,0.54099 3.57287,0.55687 4.83353,0.0301 z m -3.59679,-3.90702 c -0.3164,-0.33681 -0.57528,-0.86395 -0.57528,-1.17143 0,-0.56917 1.12861,-1.65579 1.71979,-1.65579 0.69065,0 1.71979,1.09525 1.71979,1.83028 0,1.5122 -1.79372,2.13651 -2.8643,0.99694 z m -32.30109,-0.63598 c 0.26706,-0.72192 -0.40539,-1.66208 -1.18881,-1.66208 -0.83575,0 -1.57652,0.87041 -1.3495,1.58568 0.35767,1.12694 2.12995,1.18029 2.53831,0.0764 z m 69.30721,0.49923 c 1.2437,-1.00709 -0.13449,-2.68001 -1.57343,-1.90991 -0.84839,0.45404 -0.69679,1.845 0.23994,2.20158 0.62501,0.23792 0.69964,0.2216 1.33349,-0.29167 z m -57.42515,-2.30525 c 0,-2.41934 1.29953,-6.52154 2.94888,-9.30862 1.23089,-2.07998 4.4519,-5.40713 6.64801,-6.8671 2.87968,-1.91441 7.73626,-3.52409 10.63258,-3.52409 0.89956,0 0.93719,-0.0382 0.93719,-0.95202 v -0.95202 l -1.65364,0.1774 c -2.19039,0.23498 -6.06576,1.25527 -7.97493,2.0996 -5.15099,2.27801 -9.78662,7.14057 -11.8105,12.38866 -0.91156,2.36377 -1.57968,5.28799 -1.57968,6.91401 v 1.1202 l 0.92605,-0.10811 c 0.85099,-0.0993 0.92604,-0.17941 0.92604,-0.98791 z m 5.02708,-13.87897 c 0,-0.14552 0.11906,-0.26459 0.26458,-0.26459 0.14552,0 0.26459,0.11907 0.26459,0.26459 0,0.14552 -0.11907,0.26458 -0.26459,0.26458 -0.14552,0 -0.26458,-0.11906 -0.26458,-0.26458 z m -2.52841,13.65275 c 0.55539,-4.27995 2.21047,-7.92957 4.90397,-10.81375 1.02788,-1.10064 2.49805,-2.41879 3.26705,-2.92922 2.16369,-1.43618 5.60853,-2.74858 8.19686,-3.12281 2.24147,-0.32408 2.30011,-0.35081 2.30011,-1.04813 0,-0.68491 -0.0482,-0.71026 -1.12448,-0.59158 -6.47323,0.71378 -9.18517,1.94567 -13.30414,6.04336 -1.83144,1.82198 -2.64903,2.87839 -3.48109,4.49792 -1.3352,2.59886 -2.10305,5.04165 -2.33841,7.43923 l -0.17877,1.82119 0.79188,0.0267 c 0.75787,0.0256 0.79941,-0.0313 0.96702,-1.32292 z m 4.55688,-11.44789 c -0.097,-0.097 -0.17639,-0.29942 -0.17639,-0.44979 0,-0.16579 0.12324,-0.15017 0.31309,0.0397 0.1722,0.1722 0.25158,0.3746 0.17639,0.44979 -0.0752,0.0752 -0.21607,0.0573 -0.31309,-0.0397 z m 35.16713,12.6118 c 0.87898,0 -10e-4,-4.73512 -1.46005,-7.8522 -3.1897,-6.81662 -9.18762,-10.89803 -17.41315,-11.84915 l -1.38907,-0.16062 v 0.80286 c 0,0.75471 0.0609,0.80287 1.01601,0.80287 2.74659,0 7.5883,1.85904 10.53344,4.04445 3.91577,2.90567 7.23597,8.76078 7.23597,12.76051 0,1.46621 0.16003,1.8126 0.73542,1.5918 0.20141,-0.0773 0.53505,-0.14052 0.74143,-0.14052 z m -6.37164,-13.22916 c 0.0899,-0.14552 0.28258,-0.26459 0.4281,-0.26459 0.14552,0 0.191,0.11907 0.10106,0.26459 -0.0899,0.14552 -0.28258,0.26458 -0.4281,0.26458 -0.14552,0 -0.191,-0.11906 -0.10106,-0.26458 z m 9.39271,12.02462 c 0,-1.70317 -0.72232,-4.6696 -1.70357,-6.99622 -1.60764,-3.81188 -4.79946,-7.72963 -8.17246,-10.03118 -3.16926,-2.16254 -7.95793,-3.81442 -11.75366,-4.05452 l -1.65365,-0.10459 v 0.87678 c 0,0.84409 0.0388,0.87678 1.04104,0.87678 1.41358,0 4.30374,0.62969 6.42617,1.40009 3.44364,1.24997 7.37584,4.14651 9.67528,7.12702 2.24595,2.91117 4.28876,8.13618 4.28876,10.96959 0,1.12738 0.0109,1.14079 0.92604,1.14079 0.92273,0 0.92605,-0.004 0.92605,-1.20454 z m -7.68239,-13.83322 c 0.17431,-0.33989 0.38949,-0.54541 0.47818,-0.45672 0.0887,0.0887 -0.0539,0.36677 -0.31693,0.61797 -0.45713,0.43662 -0.46423,0.42953 -0.16125,-0.16125 z m -40.3023,39.4396 c -0.079,-0.12779 0.67934,-1.04897 1.68515,-2.04707 1.3877,-1.37707 1.86688,-1.71534 1.98689,-1.40261 0.10625,0.27689 -0.37521,0.92234 -1.46723,1.96697 -1.759,1.68266 -1.98663,1.83574 -2.20481,1.48271 z m 46.59014,-1.34635 c -1.47596,-1.44223 -1.8735,-2.16191 -1.18514,-2.14554 0.5317,0.0126 3.46443,3.07044 3.26082,3.39988 -0.27691,0.44805 -0.42518,0.35845 -2.07568,-1.25434 z m -53.10962,-11.38551 c 0,-0.12995 0.14883,-0.29596 0.33073,-0.36891 2.96724,-1.18993 3.10885,-1.22996 3.10885,-0.87875 0,0.19824 -0.58762,0.61322 -1.30582,0.92218 -1.38934,0.59768 -2.13376,0.71123 -2.13376,0.32548 z m 59.55029,-0.44624 c -0.9602,-0.43594 -1.34823,-0.73997 -1.17082,-0.91738 0.29728,-0.29728 3.26845,0.93421 3.26845,1.35471 0,0.38211 -0.54128,0.26926 -2.09763,-0.43733 z M 12.188032,196.0618 c -1.41247,-0.55474 -1.91446,-0.90733 -1.65756,-1.16423 0.25561,-0.25561 3.36919,1.04319 3.37346,1.4072 0.005,0.41061 -0.0837,0.39807 -1.7159,-0.24297 z m 56.22395,0.24185 c 0,-0.22772 0.61188,-0.62261 1.47875,-0.95435 1.62554,-0.62206 1.96084,-0.67961 1.96084,-0.33657 0,0.19272 -0.73334,0.55649 -3.10886,1.54216 -0.1819,0.0755 -0.33073,-0.0376 -0.33073,-0.25124 z m -50.10472,-11.8049 c -2.35705,-2.37525 -1.87732,-2.82215 0.57097,-0.5319 0.97705,0.91399 1.77646,1.77693 1.77646,1.91765 0,0.68789 -0.69937,0.27504 -2.34743,-1.38575 z m 43.49014,1.27487 c 0,-0.27181 3.01396,-3.20638 3.473,-3.38152 0.67743,-0.25846 0.0492,0.78588 -1.28191,2.13104 -1.42892,1.44399 -2.19109,1.87897 -2.19109,1.25048 z m -32.4792,-7.72961 c -0.63441,-1.47154 -0.73673,-2.04601 -0.36441,-2.04601 0.19272,0 0.5565,0.73334 1.54216,3.10886 0.0755,0.1819 -0.0243,0.32869 -0.22181,0.32621 -0.19747,-0.002 -0.62764,-0.62756 -0.95594,-1.38906 z m 22.42503,1.13485 c 0,-0.4335 1.41876,-3.18086 1.64262,-3.18086 0.31234,0 0.26588,0.23052 -0.3845,1.90779 -0.32668,0.84249 -0.7434,1.53179 -0.92604,1.53179 -0.18264,0 -0.33208,-0.11642 -0.33208,-0.25872 z"
       id="path35" /></g></svg>
