<?xml version="1.0" encoding="UTF-8" standalone="no"?>
<!-- Created with Inkscape (http://www.inkscape.org/) -->

<svg
   width="73.678093mm"
   height="72.009964mm"
   viewBox="0 0 73.678093 72.009964"
   version="1.1"
   id="svg1"
   xml:space="preserve"
   xmlns="http://www.w3.org/2000/svg"
   xmlns:svg="http://www.w3.org/2000/svg"><defs
     id="defs1" /><g
     id="layer1"
     transform="translate(-5.135871,-82.121829)"><path
       style="fill:#000000"
       d="m 41.543577,150.36148 c 0.002,-3.99955 0.20926,-6.54844 0.53135,-6.54844 0.2696,0 0.43567,4.04498 0.30689,7.47448 -0.0825,2.1971 -0.19029,2.84427 -0.47368,2.84427 -0.29571,0 -0.36642,-0.73127 -0.36456,-3.77031 z m -11.90855,-1.88295 c 0,-0.57401 1.1049,-3.07799 1.35819,-3.07799 0.37965,0 0.25858,0.58748 -0.42256,2.05052 -0.64698,1.38965 -0.93563,1.70664 -0.93563,1.02747 z m 23.53045,-1.1522 c -0.3542,-0.83259 -0.68368,-1.6065 -0.73219,-1.7198 -0.0485,-0.11329 0.0463,-0.20599 0.21061,-0.20599 0.30427,0 1.59008,2.50653 1.59479,3.10886 0.006,0.75865 -0.47067,0.23325 -1.07321,-1.18307 z m -11.43719,-4.92131 c -0.095,-0.24754 -0.80847,-0.41523 -2.21411,-0.52038 -5.51,-0.41218 -10.69397,-2.87082 -14.90146,-7.06743 -3.8807,-3.87065 -5.98359,-8.16334 -6.67301,-13.6218 l -0.31099,-2.46232 -4.18472,0.0384 c -3.78318,0.0347 -4.19944,0.0843 -4.3382,0.5165 -0.24361,0.75877 -1.68986,1.33145 -2.54316,1.00703 -2.20923,-0.83995 -1.73286,-3.99866 0.60304,-3.99866 0.69573,0 2.09643,1.05175 2.09643,1.57416 0,0.18242 1.42311,0.26202 4.18231,0.23393 l 4.1823,-0.0426 0.33261,-2.47834 c 0.52883,-3.9404 1.74303,-7.06665 4.08618,-10.52079 1.26982,-1.87192 4.27721,-4.85381 6.13136,-6.079377 3.62034,-2.393008 8.61211,-4.118261 11.91559,-4.118261 h 1.66825 l 0.0887,-1.745756 c 0.0488,-0.960165 0.008,-1.795408 -0.0909,-1.856095 -0.20788,-0.127668 -0.0181,-8.856266 0.19721,-9.071602 0.44112,-0.441123 0.54504,1.144278 0.43261,6.600105 l -0.12516,6.073348 1.55729,0.0018 c 1.98093,0.0024 5.22924,0.781282 7.775,1.864397 8.1144,3.452341 13.69067,11.007461 14.68462,19.895731 l 0.17013,1.52135 h 3.96747 3.96748 l 0.87337,-0.92604 c 1.05916,-1.12304 1.92826,-1.19172 2.89148,-0.2285 0.9095,0.9095 0.885,1.80153 -0.0759,2.76239 -1.00452,1.00453 -1.75012,0.97712 -2.7676,-0.10173 l -0.82535,-0.87512 -4.00612,-0.072 -4.00611,-0.072 -0.18038,1.67468 c -0.42905,3.98338 -2.31466,8.85879 -4.63098,11.9738 -1.22716,1.65031 -3.93926,4.25152 -5.64937,5.4184 -1.90613,1.30062 -5.92882,3.12988 -7.87591,3.58144 -0.94533,0.21923 -2.60668,0.4754 -3.69189,0.56925 -1.2006,0.10383 -2.09034,0.31677 -2.27254,0.54389 -0.25303,0.3154 -0.32116,0.31664 -0.43959,0.008 z m 0.0776,-2.03156 v -1.05833 h -1.17333 c -2.65599,0 -7.22142,-1.36777 -9.82305,-2.94292 -6.02513,-3.64787 -9.73408,-9.37052 -10.35033,-15.96981 l -0.15707,-1.6821 -0.91945,0.0448 -0.91945,0.0448 0.18011,2.23628 c 0.4822,5.98723 4.04888,12.24103 8.97355,15.73419 3.77793,2.67976 8.94957,4.52804 12.93225,4.62181 l 1.25677,0.0296 z m -16.40417,-5.76748 c 0,-0.26547 0.87181,-1.11169 1.14532,-1.11169 0.37047,0 0.13646,0.41471 -0.49217,0.87225 -0.35923,0.26146 -0.65315,0.36921 -0.65315,0.23944 z m 22.18312,6.12921 c 9.11151,-2.08818 16.0468,-9.29079 17.6419,-18.32191 0.2154,-1.21961 0.39165,-2.55906 0.39165,-2.97656 0,-0.69115 -0.0829,-0.75909 -0.92604,-0.75909 -0.84796,0 -0.92604,0.0655 -0.92604,0.77645 0,1.28873 -0.74397,4.41322 -1.53731,6.45633 -0.81922,2.10973 -2.12165,4.21102 -3.77273,6.08674 -0.94947,1.07866 -1.03403,1.28132 -0.75876,1.81856 0.29257,0.57104 0.284,0.58004 -0.15426,0.16204 -0.43635,-0.41617 -0.56848,-0.36222 -2.21372,0.90389 -3.12825,2.40736 -7.30091,4.03291 -11.18889,4.35886 l -1.80558,0.15137 v 1.05079 1.05078 l 1.78593,-0.18685 c 0.98227,-0.10277 2.541,-0.3599 3.46385,-0.5714 z m -5.77895,-3.00756 c 0,-0.77262 -0.0341,-0.79375 -1.28059,-0.79375 -2.84,0 -7.27266,-1.64292 -10.29922,-3.81729 -1.35768,-0.97539 -1.41003,-0.98952 -2.06802,-0.55839 -0.84572,0.55413 -0.68043,0.78115 1.74058,2.39064 3.26542,2.17084 7.16978,3.48774 10.51819,3.54767 1.37254,0.0246 1.38906,0.0154 1.38906,-0.76888 z m 6.48229,-0.0177 c 5.08363,-1.57052 9.37133,-4.86423 11.84428,-9.09851 1.30503,-2.23452 2.48749,-5.77887 2.73549,-8.19945 l 0.18159,-1.77249 -0.89839,0.10225 -0.89839,0.10225 -0.19802,1.77604 c -0.10891,0.97682 -0.44537,2.51698 -0.74769,3.42257 -0.61419,1.8398 -2.53733,5.09028 -3.91176,6.6116 -0.87525,0.9688 -0.88837,1.01536 -0.42908,1.52287 0.26058,0.28794 0.34218,0.52352 0.18133,0.52352 -0.16084,0 -0.40545,-0.20194 -0.54357,-0.44875 -0.22194,-0.39659 -0.43054,-0.31329 -1.79466,0.71663 -2.99139,2.25853 -7.35621,3.95059 -10.21748,3.96092 -1.23221,0.004 -1.25677,0.0208 -1.25677,0.8375 v 0.83296 l 2.05052,-0.15887 c 1.12778,-0.0874 2.88396,-0.41635 3.9026,-0.73104 z m -0.1497,-2.49001 c 2.66255,-0.88671 5.64207,-2.86154 7.69241,-5.09853 2.51862,-2.74789 4.49583,-7.25999 4.49583,-10.25972 v -0.90661 l -2.5206,1.97035 c -3.06021,2.39216 -5.48781,3.85804 -7.87033,4.75245 -2.56079,0.96133 -2.80471,0.81831 -0.40249,-0.236 1.12138,-0.49216 3.08591,-1.57601 4.36562,-2.40857 2.54187,-1.65368 6.13167,-4.37974 6.15104,-4.67105 0.0167,-0.25167 -5.76971,-4.53335 -7.7605,-5.74238 -1.84532,-1.12068 -3.9124,-1.99376 -6.7794,-2.86345 -1.82046,-0.55223 -1.8751,-0.58816 -0.66146,-0.43496 1.89981,0.2398 5.54089,1.56078 7.54062,2.73572 0.94589,0.55576 3.08901,2.03218 4.7625,3.28092 2.94609,2.19836 3.04546,2.24873 3.12915,1.58622 0.14614,-1.15683 -0.73701,-4.50449 -1.68405,-6.38353 -2.80174,-5.55902 -8.33478,-9.3803 -14.49628,-10.01156 l -1.76548,-0.18088 v 1.35945 c 0,0.7477 -0.11907,1.35946 -0.26459,1.35946 -0.14552,0 -0.26458,-0.6107 -0.26458,-1.3571 v -1.35709 l -1.65365,0.1833 c -2.62425,0.29088 -3.86772,0.6562 -6.48496,1.90521 -3.93342,1.87713 -7.10414,5.21387 -8.71903,9.17555 -0.62201,1.52594 -1.53267,5.69176 -1.29597,5.92846 0.0581,0.0581 1.41281,-0.88377 3.01041,-2.0931 1.59761,-1.20932 3.7973,-2.70929 4.8882,-3.33324 2.25268,-1.28844 6.1799,-2.70891 7.43138,-2.68791 0.59569,0.01 0.19025,0.20587 -1.39704,0.67495 -1.22995,0.36348 -3.20576,1.13452 -4.39067,1.71341 -2.22762,1.08831 -8.98346,5.9819 -8.98346,6.50717 0,0.35574 4.17469,3.76583 6.197,5.06201 1.84299,1.18125 4.48913,2.39693 6.503,2.98758 1.99387,0.58478 1.42612,0.64707 -0.75556,0.0829 -3.35437,-0.86744 -6.09525,-2.40286 -10.20435,-5.71643 -1.22576,-0.98845 -2.25247,-1.7682 -2.28158,-1.73278 -0.0291,0.0354 0.0462,0.8659 0.16731,1.84551 0.68436,5.53449 4.19973,10.51874 9.29415,13.1777 2.29918,1.20001 5.48174,2.10681 7.39423,2.10681 h 1.28059 v -0.92604 c 0,-0.50932 0.11906,-0.92604 0.26458,-0.92604 0.14552,0 0.26459,0.45349 0.26459,1.00776 v 1.00777 l 1.87689,-0.20055 c 1.03228,-0.1103 2.79923,-0.50771 3.92653,-0.88314 z m -9.39196,-12.45681 c -1.17331,-0.19724 -3.13784,-0.67543 -4.36562,-1.06264 -2.42579,-0.76503 -7.92454,-2.93819 -8.2627,-3.26551 -0.11524,-0.11155 2.06419,-1.05594 4.84318,-2.09864 3.76384,-1.41223 5.72347,-1.99658 7.68227,-2.29078 5.8085,-0.87243 7.42691,-0.53362 19.37673,4.05637 0.73471,0.28221 -8.89769,4.1117 -11.06182,4.39778 -0.57841,0.0765 -1.76603,0.25913 -2.63916,0.40592 -1.97805,0.33257 -2.88473,0.30939 -5.57288,-0.1425 z m -1.76912,-1.37346 c -1.75453,-1.83916 -1.64484,-4.16123 0.2946,-6.23627 l 0.6974,-0.74615 -2.51354,0.91805 c -6.42473,2.34661 -7.91641,2.95 -7.7354,3.12902 0.20055,0.19836 4.4001,1.86446 6.28019,2.49156 0.58209,0.19415 1.53459,0.53191 2.11667,0.75058 1.50626,0.56585 1.64528,0.51627 0.86008,-0.30679 z m 12.79473,-0.31246 c 3.96125,-1.4985 6.55906,-2.54916 6.73299,-2.72309 0.0832,-0.0832 -0.66007,-0.41444 -1.65163,-0.73616 -0.99156,-0.32173 -2.42054,-0.86975 -3.17552,-1.21783 -0.75497,-0.34807 -1.55161,-0.63286 -1.77032,-0.63286 -0.2187,0 -0.46172,-0.10368 -0.54004,-0.23041 -0.0783,-0.12672 -0.4723,-0.29698 -0.87552,-0.37835 -0.40321,-0.0814 -0.95503,-0.23374 -1.22627,-0.33863 -0.41747,-0.16143 -0.38615,-0.029 0.20414,0.86301 1.04791,1.58349 1.24617,2.54277 0.81892,3.96241 -0.20069,0.66682 -0.63112,1.49581 -0.95653,1.84219 -0.32541,0.34638 -0.52818,0.62978 -0.45061,0.62978 0.0776,0 1.37824,-0.46803 2.89039,-1.04006 z m -5.21828,-0.10965 c 2.31305,-1.76424 1.52739,-5.19902 -1.36751,-5.97854 -2.85682,-0.76926 -5.37413,1.35616 -4.77331,4.03021 0.28292,1.25922 0.57149,1.6666 1.67304,2.3619 1.14683,0.72388 3.22924,0.53112 4.46778,-0.41357 z m -3.48882,-1.81362 c -0.46511,-0.46511 -0.38814,-1.12407 0.1927,-1.64972 0.60905,-0.55118 1.4757,-0.359 1.89242,0.41965 0.55528,1.03755 -1.22651,2.08868 -2.08512,1.23007 z m -13.17205,13.04209 c 0.43762,-0.48357 0.40138,-0.57313 -0.8711,-2.15226 -2.23462,-2.77314 -3.61986,-6.07616 -4.12874,-9.84473 -0.16079,-1.19078 -0.21253,-1.25677 -0.98524,-1.25677 h -0.81553 l 0.1672,1.79898 c 0.25652,2.76004 1.56107,6.41334 3.11773,8.73096 0.87543,1.30338 2.59817,3.22839 2.88917,3.22839 0.0934,0 0.37536,-0.22705 0.62651,-0.50457 z M 7.779897,119.43554 c 0.87378,-0.39812 1.05516,-0.95954 0.55607,-1.72124 -0.47441,-0.72403 -1.48194,-0.82413 -2.09767,-0.2084 -0.58696,0.58696 -0.51598,1.33612 0.17227,1.81818 0.70052,0.49067 0.56183,0.47938 1.36933,0.11146 z m 69.79002,-0.13746 c 0.89206,-0.80731 0.46532,-2.20795 -0.67271,-2.20795 -0.63743,0 -1.48927,0.73039 -1.48927,1.27694 0,0.53624 0.77672,1.36889 1.27695,1.36889 0.22065,0 0.61891,-0.19705 0.88503,-0.43788 z m -57.73702,-1.4142 c 0.39279,0 0.50476,-0.31888 0.658,-1.87401 0.96086,-9.75129 9.15289,-17.570781 19.52902,-18.640943 l 1.78594,-0.184196 v -0.895218 c 0,-1.043966 -0.16245,-1.074352 -3.25661,-0.609127 -5.44377,0.818504 -9.8036,3.015324 -13.52774,6.816324 -2.22763,2.27359 -3.08698,3.49741 -4.39503,6.25904 -1.20517,2.54444 -1.83772,4.87794 -2.03811,7.51873 -0.13571,1.78847 -0.10812,1.94682 0.31114,1.78593 0.25302,-0.0971 0.67305,-0.17653 0.93339,-0.17653 z m 5.70109,-14.81667 c -0.0899,-0.14552 -0.0374,-0.26458 0.11667,-0.26458 0.15411,0 0.2802,0.11906 0.2802,0.26458 0,0.14552 -0.0525,0.26458 -0.11668,0.26458 -0.0642,0 -0.19026,-0.11906 -0.28019,-0.26458 z m -2.54717,12.8313 c 1.28167,-8.61732 8.3178,-15.26807 17.10525,-16.168375 1.66854,-0.170947 1.71379,-0.195574 1.71379,-0.932795 0,-0.69923 -0.076,-0.756946 -0.99219,-0.753736 -2.17532,0.0076 -5.94931,1.022176 -8.505,2.286386 -2.15601,1.0665 -2.9267,1.64014 -5.08271,3.78311 -3.65763,3.63551 -5.58373,7.51088 -5.963,11.99773 l -0.16538,1.95637 0.80083,-0.11754 c 0.77497,-0.11374 0.8101,-0.17994 1.08841,-2.05115 z m 4.39925,-10.97922 c -0.0899,-0.14552 -0.0374,-0.26458 0.11668,-0.26458 0.1541,0 0.28019,0.11906 0.28019,0.26458 0,0.14552 -0.0525,0.26459 -0.11667,0.26459 -0.0642,0 -0.19026,-0.11907 -0.2802,-0.26459 z m 35.45858,11.45944 c -0.97624,-9.11596 -7.8131,-16.34312 -16.97134,-17.940188 -3.29427,-0.574471 -3.53828,-0.550862 -3.53828,0.342332 0,0.728256 0.0383,0.746284 2.27184,1.06922 4.55107,0.658016 8.1113,2.511336 11.39518,5.931906 1.61196,1.67906 2.41176,2.78182 3.23084,4.45469 1.20318,2.45735 1.88755,4.80249 1.88755,6.46805 0,1.30416 -4.6e-4,1.30358 1.06451,1.34096 l 0.84138,0.0295 z m 2.76956,0.73125 c -0.008,-1.73624 -1.02617,-5.81473 -1.95332,-7.82143 -3.67309,-7.94991 -10.6562,-12.84627 -19.67222,-13.793583 l -1.65364,-0.173748 v 0.924888 0.924887 l 1.59795,0.16702 c 10.45802,1.093079 18.58542,8.964456 19.71161,19.090656 l 0.17655,1.5875 0.89861,0.0198 c 0.85863,0.019 0.89842,-0.0222 0.89446,-0.92604 z m -47.97555,25.20184 c -0.23509,-0.2351 2.99039,-3.52586 3.45591,-3.52586 0.64347,0 0.33184,0.49795 -1.27154,2.03178 -1.74903,1.67317 -1.90119,1.77725 -2.18437,1.49408 z m 46.72293,-1.43965 c -1.63968,-1.59438 -1.95337,-2.08621 -1.33059,-2.08621 0.43233,0 3.38111,2.93487 3.38111,3.36515 0,0.59116 -0.35499,0.36975 -2.05052,-1.27894 z m -52.98281,-11.34308 c 0,-0.26178 1.4206,-0.9435 2.56425,-1.23054 1.21183,-0.30415 0.57723,0.37263 -0.868,0.92569 -1.70381,0.65201 -1.69625,0.65065 -1.69625,0.30485 z m 59.33281,-0.39084 c -0.76399,-0.35568 -1.38906,-0.77124 -1.38906,-0.92345 0,-0.15222 0.0517,-0.27676 0.11485,-0.27676 0.38686,0 3.32473,1.43334 3.32473,1.62209 0,0.38034 -0.5867,0.25963 -2.05052,-0.42188 z m -57.61302,-20.83999 c -1.37186,-0.52212 -1.91698,-0.88873 -1.67752,-1.12819 0.14212,-0.14212 2.81987,0.85803 3.22193,1.2034 0.50563,0.43435 -0.30992,0.39463 -1.54441,-0.0752 z m 56.22396,0.0959 c 0,-0.25329 2.50397,-1.35819 3.07799,-1.35819 0.79015,0 0.28418,0.42959 -1.1702,0.99353 -1.69754,0.65824 -1.90779,0.69843 -1.90779,0.36466 z M 19.382417,96.686752 c -1.5098,-1.468093 -1.94762,-2.086208 -1.47768,-2.086208 0.19578,0 3.60944,3.19241 3.74869,3.505729 0.0485,0.109141 -0.0706,0.196188 -0.26458,0.193438 -0.19403,-0.0028 -1.09692,-0.728582 -2.00643,-1.612959 z m 43.32552,1.372111 c 0,-0.25886 3.04584,-3.262658 3.462,-3.414222 0.13319,-0.04851 0.24267,0.07056 0.24329,0.264584 10e-4,0.364382 -3.11763,3.395486 -3.4937,3.395486 -0.11637,0 -0.21159,-0.110632 -0.21159,-0.245848 z m -31.83443,-6.541365 c -0.30915,-0.309147 -1.23848,-2.48804 -1.23848,-2.903712 0,-0.797711 0.49904,-0.286046 1.05356,1.080223 0.55075,1.356955 0.64468,2.283255 0.18492,1.823489 z m 21.78027,-0.08441 c 0,-0.558261 1.31172,-3.182544 1.59077,-3.182544 0.3357,0 0.20542,0.519288 -0.57015,2.272582 -0.46916,1.060613 -1.02062,1.552285 -1.02062,0.909962 z"
       id="path33" /></g></svg>
