<?xml version="1.0" encoding="UTF-8" standalone="no"?>
<!-- Created with Inkscape (http://www.inkscape.org/) -->

<svg
   width="74.152771mm"
   height="72.118202mm"
   viewBox="0 0 74.152771 72.118202"
   version="1.1"
   id="svg1"
   xml:space="preserve"
   xmlns="http://www.w3.org/2000/svg"
   xmlns:svg="http://www.w3.org/2000/svg"><defs
     id="defs1" /><g
     id="layer1"
     transform="translate(-127.53152,-164.9565)"><path
       style="fill:#000000"
       d="m 164.14309,236.93848 c -0.0282,-0.59203 -0.0397,-6.55023 -0.0162,-8.35642 0.0214,-1.64726 0.10585,-2.05052 0.42917,-2.05052 0.34903,0 0.39294,0.69099 0.33073,5.20367 -0.0534,3.87555 -0.15615,5.23176 -0.40247,5.31372 -0.1819,0.0605 -0.33545,0.0108 -0.34122,-0.11045 z m 11.94164,-5.97517 c -0.12462,-0.32742 -0.41933,-1.05634 -0.65491,-1.61981 -0.51417,-1.22985 -0.51383,-1.22563 -0.0976,-1.21995 0.32438,0.004 1.52609,2.45396 1.52295,3.10434 -0.003,0.55111 -0.52874,0.37044 -0.77045,-0.26458 z m -24.10198,0.21587 c 0,-0.0632 0.31322,-0.83707 0.69604,-1.71979 0.6451,-1.48746 1.15604,-2.05289 1.15604,-1.27932 0,0.68637 -1.17241,3.11397 -1.50389,3.11397 -0.19151,0 -0.34819,-0.0517 -0.34819,-0.11486 z m 12.35834,-6.05436 c -0.0969,-0.25251 -0.8558,-0.41346 -2.47868,-0.5257 -2.99673,-0.20724 -5.41369,-0.90995 -8.54961,-2.48572 -5.33531,-2.68095 -9.2553,-6.82335 -11.41646,-12.0642 -0.79117,-1.91861 -1.81984,-6.35943 -1.81984,-7.85632 v -0.83991 l -4.10184,0.0877 c -3.67778,0.0787 -4.11777,0.13715 -4.25594,0.5658 -0.0848,0.26295 -0.56178,0.67249 -1.06004,0.9101 -1.16142,0.55384 -2.14835,0.23974 -2.81082,-0.89456 -1.29925,-2.22462 1.70866,-4.12825 3.49738,-2.21341 l 0.74148,0.79375 h 4.14279 c 2.34547,0 4.07981,-0.10191 3.99762,-0.2349 -0.28996,-0.46917 0.39158,-4.37604 1.14438,-6.56006 3.06043,-8.87888 11.40265,-15.38906 20.97025,-16.36495 l 1.76006,-0.17953 -0.0504,-5.93395 c -0.0277,-3.26367 0.0301,-6.06427 0.12859,-6.22355 0.0984,-0.15928 0.3292,-0.19677 0.51279,-0.0833 0.26004,0.16072 0.30078,1.53323 0.18437,6.21196 l -0.14943,6.00566 2.45497,0.3017 c 4.0193,0.49394 8.05099,1.98346 11.28528,4.16937 5.44279,3.67854 9.70071,10.72389 10.44225,17.27824 l 0.18252,1.61332 h 4.08395 4.08395 l 0.66789,-0.79375 c 1.63429,-1.94224 4.67335,-0.0252 3.48806,2.20021 -0.43575,0.81815 -1.03802,1.22121 -1.83933,1.23096 -0.74535,0.009 -2.08611,-0.89054 -2.08634,-1.39985 -1e-4,-0.22281 -1.19473,-0.33227 -4.19495,-0.38435 l -4.1948,-0.0728 -0.16772,1.60463 c -0.58382,5.5857 -3.37036,11.22208 -7.42165,15.01185 -4.21751,3.94528 -9.05745,6.17072 -14.30445,6.5773 -1.34435,0.10417 -2.238,0.30245 -2.42719,0.53854 -0.25216,0.31466 -0.32149,0.3162 -0.43909,0.01 z m -0.18772,-1.96672 -2.1e-4,-0.99219 -1.25656,-0.0739 c -4.29736,-0.25288 -8.74892,-1.91777 -11.82339,-4.42196 -0.80533,-0.65595 -1.54754,-1.19264 -1.64936,-1.19264 -0.10181,0 -0.46021,0.25844 -0.79644,0.57431 -0.82651,0.77647 -1.10078,0.41818 -0.29597,-0.38663 l 0.63815,-0.63815 -0.77239,-0.89924 c -3.02112,-3.51728 -4.77447,-7.50359 -5.3415,-12.14404 -0.17763,-1.45373 -0.17875,-1.4552 -1.10652,-1.4552 h -0.92871 l 0.18268,1.9494 c 0.77685,8.2902 5.98471,15.30448 13.86836,18.67883 2.53171,1.08361 5.57565,1.77794 8.55447,1.9513 0.67196,0.0391 0.72759,-0.0335 0.72739,-0.94985 z m 5.82105,0.29344 c 6.80062,-1.37786 13.26982,-6.55578 16.16318,-12.93693 0.98776,-2.17846 1.75358,-4.97929 1.9745,-7.22137 l 0.17715,-1.7977 -0.93969,0.1097 c -0.9266,0.10818 -0.9422,0.13049 -1.12104,1.60394 -0.49336,4.06455 -2.16776,7.8707 -4.91446,11.17119 -1.28741,1.54698 -1.31834,1.62215 -0.8708,2.11667 0.61044,0.67453 0.26881,0.99575 -0.40779,0.38344 -0.51047,-0.46197 -0.56544,-0.44512 -1.91985,0.58877 -3.13548,2.39348 -7.72062,4.22874 -11.22754,4.49397 -1.79924,0.13608 -1.94075,0.19065 -1.94075,0.74841 0,0.33089 -0.079,0.80754 -0.17559,1.05922 -0.1595,0.41565 -0.0201,0.44041 1.52135,0.27016 0.93333,-0.10308 2.58992,-0.36834 3.68133,-0.58947 z m -5.82084,-2.97063 c 0,-0.75408 -0.0123,-0.75977 -1.91823,-0.88595 -1.62916,-0.10786 -4.51454,-0.91197 -6.85811,-1.91126 -0.31862,-0.13586 -0.47613,-0.034 -0.56437,0.365 -0.111,0.5019 -0.11912,0.498 -0.0872,-0.0419 0.0261,-0.44108 -0.40079,-0.92496 -1.6475,-1.86753 -1.61652,-1.22216 -1.70758,-1.25591 -2.31511,-0.85784 -0.77816,0.50987 -0.78054,0.58806 -0.0371,1.22119 3.0825,2.62506 8.27484,4.6592 12.03855,4.71619 1.35775,0.0206 1.38906,0.004 1.38906,-0.73792 z m 5.42396,0.24554 c 8.57359,-2.06459 15.03059,-9.27968 15.92153,-17.79082 0.14369,-1.37272 0.11405,-1.49504 -0.34146,-1.4093 -0.27435,0.0516 -0.69022,0.103 -0.92415,0.11413 -0.31913,0.0152 -0.46553,0.40008 -0.58635,1.5416 -0.17312,1.63558 -1.09407,4.57955 -1.96926,6.29507 -0.29726,0.58267 -1.21441,1.93167 -2.03813,2.99777 -1.43588,1.85841 -1.47883,1.95918 -1.04109,2.44288 0.25111,0.27747 0.39704,0.56403 0.32428,0.63679 -0.0728,0.0728 -0.34452,-0.10222 -0.60391,-0.38884 -0.46561,-0.51449 -0.49226,-0.50649 -2.093,0.62864 -0.89175,0.63238 -2.36584,1.52288 -3.27575,1.9789 -1.8002,0.9022 -5.43055,1.87429 -7.01073,1.87725 -0.92563,0.002 -0.99219,0.0551 -0.99219,0.7956 0,0.7708 0.0363,0.7937 1.25677,0.7919 0.69123,-0.001 2.20928,-0.23123 3.37344,-0.51157 z m -5.42396,-2.94821 c 0,-1.39878 0.62682,-1.27736 0.74571,0.14444 l 0.0842,1.00754 1.50325,-0.16112 c 3.37613,-0.36185 6.92036,-1.75189 9.33652,-3.66176 l 1.34868,-1.06607 -1.0191,-1.09706 -1.0191,-1.09705 1.14612,1.05833 1.14611,1.05834 0.79482,-0.92604 c 1.44969,-1.68906 2.77673,-3.81488 3.46845,-5.55625 0.67963,-1.71092 1.43086,-5.19872 1.17488,-5.4547 -0.0738,-0.0738 -0.53364,0.20857 -1.02187,0.62749 -1.71275,1.46962 -5.40511,4.00139 -7.39997,5.074 -2.50837,1.34871 -5.05031,2.22759 -7.70906,2.6654 l -2.05052,0.33766 v 1.30111 c 0,0.80002 -0.1019,1.23812 -0.26458,1.13758 -0.14553,-0.0899 -0.26459,-0.6788 -0.26459,-1.30857 v -1.14506 l -1.78594,-0.31453 c -4.6966,-0.82717 -9.06819,-3.01019 -14.14109,-7.06159 -0.9745,-0.77828 -1.85308,-1.41504 -1.9524,-1.41504 -0.37329,0 0.21619,3.33469 0.94011,5.31828 0.96518,2.64465 2.18131,4.45941 4.46744,6.66648 2.8672,2.76805 7.67062,4.82826 11.47969,4.92371 0.9886,0.0248 0.99219,0.0209 0.99219,-1.05552 z m -11.31568,-4.74045 c 0.33385,-0.53457 0.73235,-0.70734 0.73235,-0.3175 0,0.27491 -0.57327,0.84666 -0.84891,0.84666 -0.11765,0 -0.0652,-0.23812 0.11656,-0.52916 z m -2.59316,1.87221 c 0.44298,-0.48949 0.40732,-0.57836 -0.92883,-2.3151 -2.2678,-2.9477 -3.92773,-7.18864 -3.94315,-10.0743 -0.004,-0.796 -0.0697,-0.8599 -0.88024,-0.8599 h -0.87564 l 0.21319,1.98976 c 0.25184,2.35051 0.97703,4.63544 2.22359,7.00608 0.91308,1.73644 3.15492,4.7625 3.52827,4.7625 0.11118,0 0.40944,-0.22907 0.66281,-0.50904 z m 8.21398,-6.67575 c -2.27323,-1.99593 -3.32202,-4.35305 -3.32898,-7.48179 -0.004,-1.88299 0.0937,-2.29785 0.95146,-4.03348 0.61379,-1.24192 1.33012,-2.23515 2.00062,-2.77398 0.57446,-0.46165 0.99408,-0.88976 0.93248,-0.95136 -0.0616,-0.0616 -0.83624,0.21304 -1.72144,0.61029 -1.3795,0.61909 -1.56195,0.77998 -1.27697,1.12612 0.28817,0.35002 0.23576,0.37975 -0.39317,0.22311 -0.88353,-0.22005 -1.71281,0.27062 -6.10747,3.61365 l -3.12896,2.3802 0.61542,0.61271 c 1.40257,1.39639 6.36667,4.71249 9.07512,6.06231 1.5969,0.79585 3.00002,1.44701 3.11806,1.44701 0.11803,0 -0.21324,-0.37566 -0.73617,-0.83479 z m 14.71413,-0.61921 c 0.95878,-0.47099 2.44706,-1.30552 3.30729,-1.85451 2.32567,-1.4842 6.49705,-4.679 6.32887,-4.84718 -0.30855,-0.30855 -4.08811,-3.01626 -6.71251,-4.80889 -2.53905,-1.73434 -2.76699,-1.83769 -3.08722,-1.39974 -0.19017,0.26007 -0.432,0.38663 -0.53739,0.28123 -0.1054,-0.10539 -0.0498,-0.3625 0.12351,-0.57134 0.36803,-0.44346 0.31953,-0.48096 -1.57629,-1.21874 l -1.44157,-0.56099 1.33928,1.18258 c 0.95293,0.84145 1.6017,1.7426 2.24896,3.12386 0.80354,1.71476 0.9086,2.18822 0.9004,4.05792 -0.0115,2.61609 -0.85126,4.64992 -2.7158,6.57717 -1.4383,1.48667 -1.1382,1.49304 1.82247,0.0386 z m -6.32959,-0.80576 c 4.18789,-1.42695 5.50526,-7.36727 2.29701,-10.35768 -2.24915,-2.09642 -6.45295,-2.23191 -8.81594,-0.28413 -2.0318,1.67478 -2.72491,4.52056 -1.73798,7.1359 1.20313,3.18829 4.75854,4.69793 8.25691,3.50591 z m -3.62774,-4.47509 c -0.35719,-0.35719 -0.64944,-0.95791 -0.64944,-1.33495 0,-0.81164 1.07873,-1.98437 1.82531,-1.98437 0.82967,0 1.94501,1.11642 1.94501,1.94691 0,0.91002 -1.01407,2.02184 -1.84409,2.02184 -0.34505,0 -0.91961,-0.29224 -1.27679,-0.64943 z m -32.70779,-0.3022 c 0.85462,-0.59859 0.69072,-1.72931 -0.30093,-2.07605 -0.9617,-0.33626 -1.61116,0.0609 -1.72852,1.05694 -0.0583,0.49445 0.073,0.87237 0.38129,1.0978 0.61278,0.44807 0.91683,0.43355 1.64816,-0.0787 z m 70.01641,-0.0961 c 0.65307,-0.72162 0.3533,-1.79961 -0.56449,-2.02996 -0.92027,-0.23098 -1.52182,0.17719 -1.63137,1.1069 -0.15406,1.30756 1.29619,1.9172 2.19586,0.92306 z m -57.67967,-2.72264 c 0.48808,-3.94634 1.32214,-6.34041 3.24787,-9.32258 1.42788,-2.21122 4.07669,-4.88254 6.33531,-6.38916 2.99169,-1.99561 7.58989,-3.53669 10.55261,-3.53669 1.16455,0 1.17332,-0.007 1.17332,-0.92604 0,-1.07231 -0.14897,-1.10167 -3.30729,-0.65169 -8.69308,1.23854 -16.23733,7.5853 -18.85865,15.86523 -0.60841,1.92178 -1.11739,4.47484 -1.11739,5.60484 0,0.67131 0.0893,0.74516 0.90121,0.74516 0.88898,0 0.90355,-0.0189 1.07301,-1.38907 z m -0.65131,-4.00403 c 0,-0.0558 0.23813,-0.16371 0.52917,-0.23982 0.29104,-0.0761 0.52917,-0.0305 0.52917,0.10144 0,0.13189 -0.23813,0.23981 -0.52917,0.23981 -0.29104,0 -0.52917,-0.0456 -0.52917,-0.10143 z m 5.82615,-9.28488 c -0.20869,-0.25146 -0.22877,-0.40327 -0.0533,-0.40327 0.31976,0 0.69257,0.50196 0.50908,0.68545 -0.0666,0.0666 -0.27169,-0.0604 -0.45577,-0.28218 z m -2.69614,13.74016 c 0.58589,-8.69961 8.20966,-16.40317 17.05027,-17.22872 1.76367,-0.16469 1.78014,-0.17356 1.78014,-0.95826 v -0.79203 l -1.78593,0.17815 c -3.84102,0.38314 -7.70355,1.84069 -10.7071,4.04039 -1.65144,1.20946 -4.09211,3.90715 -5.1984,5.74583 -1.22715,2.03955 -2.42944,5.66658 -2.65252,8.00205 l -0.1863,1.95041 h 0.81834 c 0.74894,0 0.8237,-0.0795 0.8815,-0.93782 z m -0.34921,-4.35817 c 0.0914,-0.14789 0.27702,-0.20039 0.41249,-0.11667 0.36699,0.22681 0.29856,0.38557 -0.16619,0.38557 -0.22687,0 -0.33771,-0.121 -0.2463,-0.2689 z m 4.89212,-7.40401 c -0.20985,-0.1297 -0.32202,-0.29535 -0.24926,-0.36811 0.0728,-0.0728 0.30399,-0.0262 0.51385,0.10352 0.20985,0.1297 0.32202,0.29535 0.24926,0.36811 -0.0728,0.0728 -0.30399,0.0262 -0.51385,-0.10352 z m 35.58739,11.04635 c -0.28702,-2.58908 -1.62608,-6.29796 -3.05464,-8.4606 -2.44288,-3.69819 -6.14916,-6.80093 -9.75577,-8.16712 -1.62292,-0.61477 -5.81857,-1.55342 -6.96812,-1.55891 -0.62507,-0.003 -0.72761,0.10324 -0.72761,0.75374 0,0.73813 0.0437,0.76169 1.7341,0.93488 4.7043,0.48196 9.40433,2.99578 12.62844,6.75433 2.2472,2.6197 4.42288,7.73295 4.42288,10.39458 0,0.97482 0.0265,1.00275 0.95202,1.00275 h 0.95202 z m -6.95181,-11.36037 c 0.13183,-0.3955 0.73317,-0.61327 0.73317,-0.26551 0,0.14208 -0.18854,0.33068 -0.41898,0.41911 -0.25768,0.0989 -0.37864,0.0397 -0.31419,-0.1536 z m -4.62525,-3.79751 c -0.0811,-0.42443 -0.0194,-0.63565 0.16759,-0.5734 0.32793,0.10916 0.47251,1.24534 0.15847,1.24534 -0.10869,0 -0.25542,-0.30237 -0.32606,-0.67194 z m 14.35011,16.08392 c -0.008,-1.34446 -1.00902,-5.47365 -1.78054,-7.34218 -1.90178,-4.60589 -5.79932,-8.96822 -10.12156,-11.32857 -3.20059,-1.74782 -6.03676,-2.60382 -9.72344,-2.9347 l -1.65365,-0.14841 v 0.92198 c 0,0.89671 0.0285,0.92199 1.04104,0.92199 2.60301,0 6.8765,1.34624 9.90165,3.11923 2.0786,1.21824 5.45464,4.47061 6.89996,6.64722 1.66545,2.50811 2.96368,5.83064 3.34594,8.56321 l 0.32285,2.30784 h 0.88595 c 0.7911,0 0.8855,-0.0779 0.8818,-0.72761 z m -7.80106,-14.35364 c 0.0899,-0.14552 0.28258,-0.26459 0.4281,-0.26459 0.14553,0 0.191,0.11907 0.10107,0.26459 -0.0899,0.14552 -0.28259,0.26458 -0.42811,0.26458 -0.14552,0 -0.191,-0.11906 -0.10106,-0.26458 z m -27.11979,9.54088 c 5.64463,-3.65467 11.5736,-4.63171 17.06562,-2.81223 2.44612,0.81038 4.36315,1.95847 9.01192,5.39714 1.83546,1.35768 3.41227,2.39343 3.50403,2.30167 0.37377,-0.37377 -0.77999,-4.61464 -1.83762,-6.75455 -0.88746,-1.79559 -1.5691,-2.70327 -3.38139,-4.50266 -3.13098,-3.10871 -6.9262,-4.97254 -11.06725,-5.43513 l -1.65365,-0.18472 v 1.35709 c 0,1.02991 -0.0957,1.35709 -0.39687,1.35709 -0.29986,0 -0.39688,-0.32338 -0.39688,-1.32292 0,-1.54954 -0.0361,-1.56022 -3.21787,-0.95142 -5.53267,1.05862 -10.63067,4.84364 -12.93601,9.60438 -0.85447,1.76454 -1.83778,5.23597 -1.83778,6.48796 0,0.76215 0.0233,0.7507 2.71198,-1.32972 1.49158,-1.15416 3.48588,-2.59955 4.43177,-3.21198 z m 20.76979,-2.13255 c 0.0899,-0.14552 0.21603,-0.26458 0.2802,-0.26458 0.0642,0 0.11667,0.11906 0.11667,0.26458 0,0.14552 -0.12609,0.26458 -0.28019,0.26458 -0.15411,0 -0.20662,-0.11906 -0.11668,-0.26458 z m -9.72466,-2.4474 c -0.0682,-0.1819 -0.0298,-0.56885 0.0854,-0.85989 0.1705,-0.43092 0.21282,-0.36951 0.22797,0.33073 0.0193,0.89422 -0.10059,1.09674 -0.31336,0.52916 z m 12.47043,-0.78012 c 0.11835,-0.31993 0.36447,-0.63145 0.54693,-0.69227 0.21298,-0.071 0.16936,0.13725 -0.12184,0.58169 -0.55369,0.84503 -0.71201,0.88622 -0.42509,0.11058 z m -36.74473,35.16831 c 0,-0.1861 0.76929,-1.10082 1.70954,-2.03272 1.25462,-1.24346 1.7498,-1.58945 1.8608,-1.30017 0.0966,0.25171 -0.44091,0.98634 -1.48729,2.03272 -1.65141,1.6514 -2.08305,1.92082 -2.08305,1.30017 z m 46.62139,-1.2939 c -1.1667,-1.13912 -1.58162,-1.70916 -1.38626,-1.90452 0.19536,-0.19536 0.78891,0.22675 1.98306,1.41029 1.49445,1.48115 1.87943,2.13451 1.25109,2.12322 -0.10055,-0.002 -0.9321,-0.73485 -1.84789,-1.62899 z m 6.7583,-11.54569 c -0.83675,-0.36413 -1.52136,-0.82227 -1.52136,-1.01809 0,-0.19581 0.0447,-0.35603 0.0994,-0.35603 0.3118,0 3.05334,1.33738 3.18792,1.55513 0.32562,0.52687 -0.28253,0.46453 -1.76593,-0.18101 z m -59.67626,0.18537 c 0.14732,-0.44197 3.08437,-1.56915 3.2769,-1.25761 0.21502,0.34789 0.19604,0.36123 -1.4219,0.99889 -1.58077,0.62301 -1.99572,0.68089 -1.855,0.25872 z m 1.68154,-21.23904 c -0.86477,-0.33124 -1.61883,-0.74182 -1.67569,-0.91239 -0.14093,-0.4228 0.0452,-0.39693 1.83178,0.25448 0.85701,0.31248 1.54852,0.72602 1.54852,0.92604 0,0.19878 -0.0298,0.35528 -0.0661,0.34777 -0.0364,-0.008 -0.77369,-0.28466 -1.63846,-0.6159 z m 56.20878,0.13711 c 0,-0.24781 2.72376,-1.35964 3.33084,-1.35964 0.80131,0 0.30412,0.4264 -1.15846,0.99353 -1.64487,0.63782 -2.17238,0.72671 -2.17238,0.36611 z m -49.94011,-11.62577 c -1.67046,-1.73871 -1.93153,-2.16928 -1.31527,-2.16928 0.43049,0 3.63038,3.21289 3.63038,3.64514 0,0.65182 -0.69915,0.20612 -2.31511,-1.47586 z m 43.32553,1.33164 c 0,-0.13313 0.781,-0.99201 1.73557,-1.90862 1.16451,-1.11822 1.82319,-1.57896 2.00187,-1.40028 0.17868,0.17868 -0.26901,0.77853 -1.36062,1.82308 -1.55983,1.49257 -2.37682,2.0033 -2.37682,1.48582 z m -32.26087,-7.69518 c -0.33072,-0.70611 -0.54868,-1.50979 -0.48434,-1.78594 0.086,-0.3691 0.3027,-0.11664 0.8181,0.95311 0.38561,0.80037 0.70227,1.60404 0.70369,1.78594 0.006,0.70459 -0.46234,0.27478 -1.03745,-0.95311 z m 22.2067,1.16899 c 0,-0.45249 1.45043,-3.32633 1.64592,-3.26116 0.35408,0.11802 0.3177,0.31855 -0.3501,1.92975 -0.32969,0.79544 -0.75613,1.44626 -0.94763,1.44626 -0.1915,0 -0.34819,-0.0517 -0.34819,-0.11485 z"
       id="path36" /></g></svg>
