<?xml version="1.0" encoding="UTF-8" standalone="no"?>
<!-- Created with Inkscape (http://www.inkscape.org/) -->

<svg
   width="73.838814mm"
   height="71.769157mm"
   viewBox="0 0 73.838814 71.769157"
   version="1.1"
   id="svg1"
   xml:space="preserve"
   xmlns="http://www.w3.org/2000/svg"
   xmlns:svg="http://www.w3.org/2000/svg"><defs
     id="defs1" /><g
     id="layer1"
     transform="translate(-125.86725,-6.9810412)"><path
       style="fill:#000000"
       d="m 162.32962,75.773635 c -0.13321,-4.825912 0.0146,-7.342187 0.43138,-7.342187 0.41992,0 0.6091,3.196397 0.45019,7.606771 -0.073,2.027011 -0.18633,2.711979 -0.44856,2.711979 -0.26575,0 -0.37078,-0.721976 -0.43301,-2.976563 z m 11.64492,-3.901167 c -0.41786,-0.945434 -0.59628,-1.650778 -0.44175,-1.746285 0.32472,-0.200689 0.27999,-0.263501 1.08693,1.526203 0.61385,1.361456 0.66649,1.806145 0.21382,1.806145 -0.0869,0 -0.47345,-0.713728 -0.859,-1.586063 z m -23.50104,1.092179 c 0,-0.475973 1.13873,-2.945699 1.35819,-2.945699 0.3569,0 0.27602,0.454763 -0.33244,1.86918 -0.49881,1.159512 -1.02575,1.712535 -1.02575,1.076519 z m 12.17887,-5.922261 c -0.007,-0.377039 -0.24938,-0.463021 -1.30768,-0.463021 -0.71481,0 -2.17332,-0.167758 -3.24115,-0.372794 -7.13317,-1.369662 -13.40176,-5.989885 -16.71939,-12.322915 -1.43075,-2.731144 -2.18228,-5.105334 -2.59333,-8.192675 l -0.30947,-2.324371 -4.04845,-0.05025 -4.04846,-0.05025 -0.76198,0.852812 c -1.00208,1.121515 -2.23992,1.173823 -3.13563,0.132502 -0.34077,-0.39617 -0.61958,-1.011327 -0.61958,-1.367014 0,-0.763098 0.7852,-1.626404 1.68456,-1.85213 0.80239,-0.201386 2.18907,0.488941 2.41556,1.202524 0.15979,0.503464 0.39364,0.532069 4.34976,0.532069 h 4.18089 l 0.31157,-2.447396 c 0.62356,-4.898134 2.73046,-9.383708 6.08837,-12.962146 2.06416,-2.19972 4.07957,-3.852162 6.1557,-5.047064 1.70097,-0.978987 6.35413,-2.487801 8.28338,-2.685936 3.52213,-0.361725 3.30729,-0.239068 3.30729,-1.888186 0,-0.879768 0.10235,-1.395579 0.25784,-1.299477 0.14182,0.08765 0.20901,0.740346 0.14932,1.450442 l -0.10854,1.291086 0.97517,0.141642 c 0.53634,0.0779 1.63001,0.219517 2.43038,0.314698 3.37409,0.401253 8.24849,2.433665 11.25154,4.691398 5.10657,3.839189 8.85386,10.326075 9.3033,16.104807 0.19031,2.446856 -0.0551,2.327544 4.79678,2.332519 l 3.52349,0.0036 0.87337,-0.926042 c 1.05371,-1.117255 2.00904,-1.20715 2.93958,-0.27661 1.0429,1.042895 0.84256,2.539873 -0.42782,3.196812 -1.10004,0.568852 -1.54615,0.483228 -2.46338,-0.472806 l -0.82499,-0.859896 h -4.10104 -4.10104 l -0.19137,2.112089 c -0.57403,6.335445 -4.57984,13.036357 -9.99509,16.71977 -3.62604,2.466406 -9.03235,4.319182 -12.60316,4.319182 -0.796,0 -1.2084,0.136534 -1.39856,0.463021 -0.25685,0.440972 -0.27007,0.440972 -0.27774,0 z m -0.008,-2.011697 v -1.01951 l -2.00654,-0.169614 c -4.02981,-0.340644 -8.14633,-1.955295 -11.12378,-4.363157 l -1.62094,-1.310854 -0.68614,0.686145 c -0.92032,0.920319 -1.25361,0.513399 -0.35108,-0.428639 l 0.70939,-0.740452 -0.83071,-0.778142 c -1.2909,-1.209196 -3.2936,-4.426027 -4.16943,-6.69714 -0.43706,-1.133335 -0.94241,-3.082514 -1.123,-4.331509 l -0.32833,-2.270902 -0.91106,-0.106361 -0.91106,-0.106361 0.1669,1.869149 c 0.36765,4.117169 1.92073,8.153845 4.45257,11.572853 3.9225,5.296961 10.98584,8.952028 17.74102,9.180453 0.98067,0.03316 0.99219,0.02172 0.99219,-0.985959 z m 6.35,0.17947 c 5.80509,-1.412337 11.23155,-5.475089 14.34066,-10.736751 1.88331,-3.1872 3.12184,-7.300952 3.12184,-10.369169 0,-0.751481 -0.0623,-0.805352 -0.8599,-0.743068 l -0.85989,0.06715 -0.44936,2.513542 c -0.58473,3.270727 -1.54391,5.719007 -3.26737,8.33985 -3.10554,4.722562 -8.08293,8.051281 -13.82922,9.248542 -1.06454,0.2218 -2.40399,0.403273 -2.97656,0.403273 h -1.04103 v 1.089157 1.089156 l 1.78593,-0.177264 c 0.98227,-0.0975 2.79797,-0.423485 4.0349,-0.724421 z m 9.39271,-6.568294 c -0.26339,-0.291042 -0.34556,-0.529167 -0.18261,-0.529167 0.16295,0 0.42372,0.238125 0.57948,0.529167 0.15576,0.291042 0.23794,0.529167 0.18261,0.529167 -0.0553,0 -0.31609,-0.238125 -0.57948,-0.529167 z m -16.00729,3.704167 c 0,-0.756822 -0.0523,-0.793932 -1.12448,-0.797661 -2.8289,-0.0098 -7.56738,-1.843222 -10.21661,-3.952947 l -1.41921,-1.130193 -0.66069,0.660689 -0.66069,0.660689 1.41993,1.072061 c 3.13529,2.367165 8.02859,4.217215 11.27268,4.261955 1.37127,0.01891 1.38907,0.009 1.38907,-0.774593 z m 5.71236,0.269503 c 4.1548,-1.040758 8.41703,-3.712963 11.25485,-7.056237 2.16187,-2.546932 4.46404,-8.26829 4.46404,-11.094068 0,-0.770699 -0.0831,-0.856427 -0.92605,-0.95483 -0.90849,-0.106062 -0.92604,-0.08987 -0.92604,0.854771 0,1.555878 -0.97113,4.905403 -1.97605,6.815572 -1.24911,2.374345 -2.99452,4.549619 -4.83914,6.030933 -2.8097,2.256328 -8.10623,4.340606 -11.03027,4.340606 -0.868,0 -0.93995,0.06076 -0.93995,0.79375 0,0.78285 0.0194,0.79375 1.41288,0.79375 0.77709,0 2.35467,-0.235912 3.50573,-0.524247 z m -5.44778,-2.930952 c 0,-0.64859 0.10479,-1.009182 0.26458,-0.910426 0.14552,0.08994 0.26459,0.573213 0.26459,1.073948 0,0.896744 0.0171,0.910427 1.14079,0.910427 1.78388,0 5.13839,-0.990345 7.45816,-2.201855 2.81193,-1.468539 5.96298,-4.571415 7.35612,-7.243643 1.04149,-1.997744 2.03659,-5.359356 2.03659,-6.87997 v -0.894987 l -1.78593,1.419848 c -2.74123,2.179318 -5.65398,4.087335 -7.51145,4.920432 -2.07852,0.932237 -4.3721,1.693471 -4.73646,1.572017 -0.15024,-0.05008 0.70643,-0.429798 1.90372,-0.843821 1.19728,-0.414023 3.13643,-1.345117 4.30923,-2.069096 2.39795,-1.480287 7.54472,-5.272348 7.55174,-5.564004 0.008,-0.331107 -6.39376,-5.043116 -8.43678,-6.209929 -1.07749,-0.615373 -2.98249,-1.429645 -4.23334,-1.809494 -2.93244,-0.8905 -2.8875,-0.873061 -2.31246,-0.897526 0.83642,-0.03559 3.63387,0.778124 5.31455,1.545873 1.78837,0.816942 5.18638,3.069155 7.87255,5.217955 0.9745,0.779552 1.85466,1.417367 1.95592,1.417367 0.35773,0 -0.15458,-3.181233 -0.81819,-5.080642 -0.95474,-2.732668 -2.10465,-4.54701 -4.23653,-6.684433 -3.01308,-3.020918 -6.83619,-4.857507 -11.0423,-5.304635 l -1.78593,-0.189852 v 1.35374 c 0,0.744556 -0.11907,1.353739 -0.26459,1.353739 -0.14552,0 -0.26458,-0.610691 -0.26458,-1.357092 v -1.357091 l -1.5784,0.178575 c -6.60183,0.746912 -11.95356,4.379791 -14.64878,9.943941 -1.14755,2.36906 -1.51092,3.584987 -1.88527,6.308571 l -0.15796,1.149196 0.86698,-0.705106 c 2.71805,-2.210578 5.87499,-4.440889 7.61385,-5.379016 2.04491,-1.103251 5.24646,-2.300791 5.49271,-2.054546 0.0766,0.0766 -0.0861,0.213498 -0.36162,0.304211 -1.71463,0.564592 -4.20744,1.73184 -5.92284,2.773345 -1.94904,1.183362 -7.22106,5.127716 -7.33699,5.489297 -0.10039,0.313136 6.59496,5.095533 8.67359,6.195426 2.35842,1.247938 2.76831,1.817491 0.62624,0.870166 -1.76709,-0.78149 -5.05519,-2.92339 -7.52109,-4.899312 l -1.7198,-1.378064 -0.0906,0.888437 c -0.1467,1.438864 0.44983,3.633063 1.6895,6.214431 2.68609,5.59325 9.03233,9.766571 15.00369,9.866512 l 1.25677,0.02103 z m -6.74688,-8.980218 c -0.19341,-0.312944 0.0655,-0.312944 0.79375,0 0.51018,0.219232 0.50837,0.228058 -0.0505,0.245987 -0.31883,0.01023 -0.65328,-0.100466 -0.74322,-0.245987 z m 3.175,-5.592309 c -4.9561,-0.689603 -10.09309,-1.708403 -10.53564,-2.089494 -0.19524,-0.168126 7.41854,-1.773138 9.44427,-1.990885 0.45473,-0.04888 1.73881,-0.209959 2.85351,-0.357954 2.30106,-0.305506 5.67946,0.02667 12.05085,1.184885 4.4269,0.804737 5.39906,1.053725 4.84014,1.239644 -0.21828,0.07261 -2.77813,0.567151 -5.68854,1.09898 -5.7398,1.048853 -9.89441,1.342016 -12.96459,0.914824 z m -1.14237,-1.154565 c -0.69879,-0.587993 -1.01695,-0.659139 -2.86457,-0.640571 -2.34193,0.02354 -2.24782,0.115041 0.79971,0.777568 2.89217,0.628753 2.96886,0.623665 2.06486,-0.136997 z m 6.19848,0.233075 c 2.62869,-1.247395 0.14312,-3.81801 -2.66088,-2.751929 -0.37507,0.142599 -0.81843,0.558834 -0.98525,0.924967 -0.25348,0.556329 -0.22034,0.757939 0.20169,1.227165 0.96273,1.070381 2.05276,1.260194 3.44444,0.599797 z m -2.00118,-0.747525 c -0.71456,-0.86099 0.46797,-1.89688 1.26058,-1.104266 0.33696,0.336959 0.37147,0.543703 0.14957,0.896076 -0.38634,0.613479 -0.99875,0.703895 -1.41015,0.20819 z m 8.32216,0.375832 c 1.16416,-0.275093 2.35479,-0.550991 2.64583,-0.613105 0.29104,-0.06211 -0.24474,-0.146762 -1.19062,-0.188105 l -1.7198,-0.07517 1.5875,-0.175626 c 0.87313,-0.09659 1.32901,-0.195642 1.01308,-0.220105 -0.31593,-0.02446 -1.60828,-0.29002 -2.87189,-0.590126 -1.2636,-0.300105 -2.36488,-0.47823 -2.44728,-0.395831 -0.0824,0.0824 0.12077,0.437833 0.45147,0.789854 l 0.60129,0.64004 -0.88687,0.819665 -0.88688,0.819665 0.79375,-0.155493 c 0.43656,-0.08552 1.74625,-0.380568 2.91042,-0.655662 z M 152.78313,43.13618 c -0.0879,-0.08792 -0.31612,-0.09732 -0.50712,-0.02089 -0.21107,0.08446 -0.14837,0.147156 0.15985,0.159852 0.27892,0.01149 0.43519,-0.05105 0.34727,-0.138964 z m 5.01784,-1.037524 0.74236,-0.668209 -0.99655,0.169307 c -0.54811,0.09312 -1.79826,0.383066 -2.77813,0.644326 l -1.78157,0.47502 2.03576,0.02388 c 1.82255,0.02138 2.11352,-0.0461 2.77813,-0.644327 z m -9.05202,14.696423 c 0.45961,-0.507868 0.44586,-0.558377 -0.45029,-1.653646 -2.59783,-3.175028 -4.03965,-6.353457 -4.36806,-9.629159 l -0.20394,-2.03427 -0.89176,-0.02508 -0.89177,-0.02508 0.16236,1.746873 c 0.3535,3.80358 2.29189,8.174874 4.98534,11.242544 0.92285,1.051071 1.0273,1.074869 1.65812,0.377817 z M 128.7941,44.015222 c 1.00973,-0.787503 0.56587,-2.30669 -0.67396,-2.30669 -1.34768,0 -1.92964,1.492504 -0.87107,2.233956 0.69898,0.489581 0.99281,0.503413 1.54503,0.07273 z m 69.58641,0.06525 c 0.71489,-0.382594 0.68818,-1.729746 -0.042,-2.120546 -1.37038,-0.733401 -2.70382,0.750704 -1.6855,1.875933 0.52704,0.582372 0.9773,0.646127 1.72753,0.244613 z m -57.80833,-1.468438 c 0.46793,-0.125654 0.59381,-0.477382 0.84638,-2.365065 1.30333,-9.74098 9.24994,-17.250685 19.30758,-18.246053 l 1.91823,-0.18984 v -0.938012 -0.938013 l -1.91823,0.163546 c -8.85229,0.754736 -16.6628,6.50653 -19.7999,14.580998 -1.30576,3.360853 -2.02832,8.092329 -1.23448,8.083657 0.18191,-0.002 0.57809,-0.07004 0.88042,-0.151218 z m 3.32042,-1.859026 c 0.19797,-2.174361 1.18468,-5.139762 2.39502,-7.197881 0.48324,-0.821729 1.83112,-2.453494 2.99529,-3.626146 3.16804,-3.191134 7.08202,-5.061085 11.64167,-5.56195 1.53512,-0.168629 1.5875,-0.19969 1.5875,-0.941441 0,-0.700911 -0.0799,-0.766758 -0.92604,-0.763582 -1.71701,0.0064 -5.80815,1.007515 -7.73951,1.893793 -1.90188,0.872756 -4.66494,2.780421 -5.9989,4.141744 -3.14694,3.211498 -5.34255,7.891161 -5.74771,12.250499 l -0.1694,1.822725 0.89807,-0.09758 0.89807,-0.09758 z m 39.81593,0.03549 c -0.9657,-9.425759 -8.87594,-17.025444 -18.74906,-18.012976 l -1.78593,-0.178633 v 0.771569 c 0,0.765438 0.0176,0.774115 2.2155,1.091898 3.34249,0.483273 6.45944,1.726071 8.897,3.547431 4.06481,3.037254 7.15136,8.258541 7.59084,12.840852 l 0.15859,1.653645 h 0.92432 0.92432 z m 2.64051,-0.07215 c -0.53294,-5.261219 -3.18651,-10.615017 -7.02065,-14.164754 -2.14996,-1.99048 -3.58031,-2.946982 -6.25435,-4.182391 -2.50603,-1.15779 -5.47077,-1.978499 -8.08242,-2.237402 l -1.7538,-0.17386 -0.10645,0.911847 -0.10645,0.911847 2.42984,0.28434 c 9.62377,1.126179 17.25318,8.367206 18.81439,17.856623 l 0.42441,2.579687 h 0.91819 0.91819 z m -47.88549,26.17381 c -0.0742,-0.120107 0.67812,-1.025225 1.67188,-2.011372 1.2141,-1.204795 1.87136,-1.688598 2.00352,-1.474763 0.12248,0.198182 -0.43637,0.956955 -1.48141,2.011372 -1.68761,1.702737 -1.94582,1.876306 -2.19399,1.474763 z m 46.73655,-1.326837 c -1.50412,-1.382781 -2.01872,-2.158953 -1.4314,-2.158953 0.12224,0 0.95568,0.733425 1.85209,1.629833 1.51677,1.516769 1.91636,2.092358 1.43139,2.06185 -0.10914,-0.0069 -0.94258,-0.696594 -1.85208,-1.53273 z M 132.08743,54.13994 c 0.14932,-0.241603 0.99681,-0.65929 2.7095,-1.33539 0.43763,-0.172757 0.59532,-0.141343 0.59532,0.118603 0,0.194483 -0.66544,0.608255 -1.47876,0.919493 -1.63929,0.62732 -2.07374,0.698052 -1.82606,0.297294 z m 59.33565,-0.350221 c -0.68831,-0.314497 -1.25386,-0.72064 -1.25678,-0.902541 -0.003,-0.181901 0.0516,-0.330729 0.12113,-0.330729 0.33861,0 3.04857,1.460169 3.04857,1.642617 0,0.328946 -0.55882,0.209365 -1.91292,-0.409347 z M 133.815,32.852712 c -0.79472,-0.334194 -1.48925,-0.740537 -1.5434,-0.902985 -0.12906,-0.3872 -0.15009,-0.391116 1.65579,0.30838 0.85727,0.332057 1.60701,0.748776 1.6661,0.926041 0.14225,0.426736 -0.0693,0.387318 -1.77849,-0.331436 z m 56.08141,0.24469 c 0,-0.192195 2.68694,-1.437154 3.10886,-1.440451 0.74679,-0.0058 0.24652,0.491027 -1.02747,1.020473 -1.33467,0.554662 -2.08139,0.705333 -2.08139,0.419978 z M 140.35318,21.487075 c -1.60694,-1.475901 -2.15876,-2.268125 -1.57985,-2.268125 0.3608,0 3.56465,3.37344 3.46316,3.64648 -0.0536,0.14407 -0.90104,-0.47619 -1.88331,-1.378355 z m 43.19323,1.229961 c 0,-0.258778 3.25298,-3.498086 3.51285,-3.498086 0.52655,0 0.0426,0.796391 -1.32175,2.17514 -1.36823,1.382654 -2.1911,1.879488 -2.1911,1.322946 z m -32.41478,-7.896614 c -0.36872,-0.833732 -0.56937,-1.616902 -0.44589,-1.740379 0.12347,-0.123477 0.53352,0.491691 0.91121,1.367038 0.3777,0.875348 0.57835,1.658518 0.44589,1.740379 -0.13245,0.08186 -0.5425,-0.533306 -0.91121,-1.367038 z m 22.36062,1.25645 c 0,-0.507715 1.33344,-3.207922 1.58416,-3.207922 0.3647,0 0.36138,0.01419 -0.42812,1.834644 -0.61257,1.412463 -1.15604,2.058062 -1.15604,1.373278 z M 162.49673,15.7026 c -0.25319,-0.659812 0.008,-8.7886644 0.27989,-8.7211405 0.37302,0.092534 0.50193,9.0624905 0.13024,9.0624905 -0.15353,0 -0.33808,-0.153607 -0.41013,-0.34135 z"
       id="path32" /></g></svg>
