<?xml version="1.0" encoding="UTF-8" standalone="no"?>
<!-- Created with Inkscape (http://www.inkscape.org/) -->

<svg
   width="73.818443mm"
   height="71.70208mm"
   viewBox="0 0 73.818443 71.70208"
   version="1.1"
   id="svg1"
   xml:space="preserve"
   xmlns="http://www.w3.org/2000/svg"
   xmlns:svg="http://www.w3.org/2000/svg"><defs
     id="defs1" /><g
     id="layer1"
     transform="translate(-126.92182,-86.786642)"><path
       style="fill:#000000"
       d="m 163.39225,155.77674 c -0.15442,-4.64129 0.024,-7.60677 0.45772,-7.60677 0.31481,0 0.3781,0.86354 0.3781,5.15938 0,4.26158 -0.0649,5.15937 -0.3728,5.15937 -0.29055,0 -0.39269,-0.59828 -0.46302,-2.71198 z M 151.467,153.0478 c -0.19816,-0.19817 1.14318,-3.29033 1.4273,-3.29033 0.37155,0 0.24624,0.59672 -0.43061,2.05052 -0.65701,1.41122 -0.732,1.5045 -0.99669,1.23981 z m 23.56211,-1.43681 c -0.39257,-0.88822 -0.59203,-1.6534 -0.45334,-1.73912 0.22773,-0.14074 1.55855,2.47909 1.55855,3.06815 0,0.67336 -0.47001,0.10818 -1.10521,-1.32903 z m -35.50292,-4.94775 c -0.23132,-0.23133 3.00265,-3.52035 3.46142,-3.52035 0.61103,0 0.35995,0.39078 -1.32239,2.05816 -1.70947,1.69428 -1.82676,1.77446 -2.13903,1.46219 z m 22.02658,-0.36429 c -11.38017,-0.9802 -20.18844,-9.46095 -21.71208,-20.90473 l -0.31416,-2.35966 h -4.02694 -4.02694 l -0.95428,0.95428 c -0.78749,0.78749 -1.08113,0.92448 -1.6801,0.78378 -0.88223,-0.20722 -1.91645,-1.30691 -1.91645,-2.03775 0,-0.29412 0.34802,-0.8828 0.77339,-1.30817 1.06212,-1.06211 1.97731,-1.01676 3.0802,0.15265 l 0.87337,0.92604 h 3.95603 3.95603 l 0.17071,-1.52135 c 0.42462,-3.78424 1.79044,-7.72869 3.73445,-10.78498 1.27882,-2.01051 4.28746,-5.1457 6.34227,-6.60906 3.05355,-2.17461 7.30493,-3.869995 10.58334,-4.220476 0.87312,-0.09334 1.96468,-0.227801 2.42569,-0.298798 l 0.83818,-0.129085 -0.15121,-6.0775 c -0.13981,-5.619037 -0.11705,-6.077499 0.30172,-6.077499 0.41617,0 0.4483,0.49928 0.39586,6.151562 l -0.0571,6.151562 2.13945,0.179456 c 2.88552,0.242035 4.9778,0.840058 8.13029,2.323808 7.56046,3.5584 12.87914,10.96487 13.59244,18.92799 l 0.1659,1.85208 4.10104,0.0696 4.10104,0.0696 0.44526,-0.7877 c 0.83441,-1.4761 2.73673,-1.30706 3.64928,0.32429 0.36174,0.64668 0.36142,0.79621 -0.003,1.44871 -0.22357,0.40018 -0.74585,0.89073 -1.16063,1.0901 -0.65028,0.31257 -0.87359,0.30554 -1.62142,-0.0511 -0.47701,-0.22747 -0.94716,-0.66525 -1.04479,-0.97285 -0.17224,-0.54268 -0.30054,-0.55687 -4.32209,-0.47809 l -4.14458,0.0812 -0.16452,2.02371 c -0.38387,4.72172 -2.80321,9.87987 -6.41529,13.67769 -3.69604,3.88609 -9.79231,6.87906 -14.92404,7.32696 -0.97872,0.0854 -2.01761,0.18787 -2.30865,0.22765 -0.29104,0.0398 -1.55446,-0.016 -2.80759,-0.12391 z m 2.08555,-1.50241 -0.0962,-0.99219 -2.10441,-0.20149 c -3.87053,-0.37057 -7.59529,-1.83001 -10.91463,-4.27655 l -1.66646,-1.22828 -0.84351,0.60063 -0.8435,0.60062 0.61538,-0.86422 0.61539,-0.86423 -0.96262,-1.0655 c -2.48347,-2.7489 -4.18986,-6.43582 -4.85676,-10.49377 l -0.44562,-2.71154 -0.89911,-4.4e-4 -0.89912,-4.4e-4 0.16347,2.11978 c 0.37282,4.83462 2.79844,9.80902 6.64282,13.62293 4.18115,4.14801 9.70813,6.5501 15.44882,6.71422 l 1.1423,0.0327 z m 4.19311,0.58828 c 4.36346,-0.75003 7.71124,-2.22689 11.03467,-4.86789 4.78943,-3.80599 7.93063,-9.53574 8.5229,-15.54631 l 0.18189,-1.84595 -0.93426,0.0211 -0.93426,0.0211 -0.30802,2.11666 c -0.80265,5.51568 -3.36214,9.98172 -7.75158,13.5257 -3.45822,2.79211 -7.45304,4.43979 -11.60912,4.78822 l -1.80558,0.15137 v 1.01996 c 0,1.21382 0.0631,1.2246 3.60336,0.61606 z m 11.47789,-7.13672 c -0.18986,-0.22876 -0.21557,-0.39688 -0.0607,-0.39688 0.14777,0 0.33721,0.1786 0.42097,0.39688 0.0838,0.21828 0.11108,0.39687 0.0607,0.39687 -0.0504,0 -0.23981,-0.17859 -0.42096,-0.39687 z m -15.875,3.96875 v -0.92604 h -1.26209 c -2.63431,0 -6.66808,-1.47878 -9.676,-3.54723 -1.78747,-1.22918 -1.81855,-1.23902 -2.5011,-0.7918 l -0.69114,0.45285 1.11398,0.98858 c 2.37974,2.11183 7.2054,4.08081 10.97195,4.4768 1.05166,0.11057 1.94187,0.2172 1.97825,0.23696 0.0364,0.0198 0.0661,-0.3808 0.0661,-0.89012 z m 6.13758,-0.0115 c 2.30343,-0.61272 6.30685,-2.60024 7.66459,-3.80512 1.06649,-0.94643 1.10372,-1.02675 0.67476,-1.45571 -0.64797,-0.64797 -0.56311,-0.86154 0.10286,-0.25885 0.55422,0.50156 0.56344,0.49691 1.93208,-0.97348 2.37277,-2.54918 4.27539,-6.92481 4.79347,-11.02399 l 0.17556,-1.38907 h -0.91433 -0.91433 l -0.17328,1.69131 c -0.45293,4.42086 -3.31129,9.33869 -7.09403,12.20533 -3.02784,2.29456 -7.59862,4.08115 -10.46671,4.09112 -1.09557,0.004 -1.12447,0.0264 -1.12447,0.87938 v 0.87547 l 1.8381,-0.1964 c 1.01096,-0.10802 2.58854,-0.39602 3.50573,-0.63999 z m -6.09957,-2.64853 c -0.0592,-0.68706 0.0243,-0.91185 0.33859,-0.91185 0.30718,0 0.41715,0.26707 0.41715,1.01312 v 1.01312 l 1.78593,-0.22693 c 6.27376,-0.79721 11.71616,-4.53549 14.44609,-9.92276 0.85032,-1.67801 1.75964,-4.89427 1.75964,-6.22378 v -0.99641 l -2.0642,1.53052 c -1.13532,0.84178 -2.65336,1.87238 -3.37344,2.29022 -0.72008,0.41784 -1.3931,0.89897 -1.4956,1.06917 -0.18762,0.31152 -3.19608,2.25164 -3.49153,2.25164 -0.54997,0 0.0383,-0.53093 1.18172,-1.06646 2.1918,-1.02658 1.74752,-1.06598 -0.98947,-0.0877 -1.40905,0.50361 -2.86808,0.87845 -3.2423,0.83298 -0.48608,-0.0591 -0.0381,-0.28828 1.56857,-0.80262 3.85464,-1.23395 7.89841,-3.45565 10.82215,-5.94585 l 0.90028,-0.76678 -1.93272,-1.27328 c -1.92869,-1.27062 -5.73173,-3.2556 -8.4446,-4.40762 -1.84208,-0.78223 -1.2962,-0.98783 0.66977,-0.25227 0.82186,0.3075 1.54443,0.50895 1.60571,0.44767 0.32072,-0.32072 -3.10717,-1.9196 -6.13413,-2.86115 l -1.5875,-0.4938 1.24965,0.13035 c 1.72255,0.17966 5.07549,1.51971 6.7996,2.71754 0.78907,0.54821 2.87266,1.97612 4.63021,3.17313 l 3.19554,2.17639 0.0802,-0.75149 c 0.12805,-1.19929 -0.66312,-4.13423 -1.67243,-6.20409 -2.78312,-5.70755 -8.05855,-9.31788 -14.74583,-10.09155 l -1.52135,-0.17601 v 1.34195 c 0,1.05252 -0.0911,1.34196 -0.42242,1.34196 -0.34345,0 -0.40527,-0.25143 -0.33072,-1.34521 l 0.0917,-1.3452 -1.45521,0.17339 c -6.24007,0.74353 -11.1748,3.76847 -14.0336,8.60243 -1.1852,2.00406 -2.24006,5.05072 -2.49294,7.2001 l -0.17784,1.51154 2.98909,-2.22678 c 3.75654,-2.79853 6.3684,-4.30102 9.07838,-5.22245 2.25283,-0.76599 3.95135,-1.00347 2.12337,-0.29689 -0.58209,0.225 -1.97269,0.76465 -3.09023,1.19923 -1.11754,0.43457 -2.66535,1.2034 -3.43958,1.70851 -1.50264,0.98032 -1.01666,0.96289 1.27647,-0.0458 1.81134,-0.79674 4.28478,-1.50374 4.59346,-1.31297 0.13643,0.0843 0.51931,-0.0168 0.85084,-0.22478 1.70895,-1.07193 5.77096,-1.2251 7.7378,-0.29177 0.5549,0.26331 1.61792,1.08235 2.36228,1.82008 1.5979,1.58366 2.36826,3.45577 2.34708,5.70381 -0.0263,2.78739 -2.12911,5.6357 -5.19314,7.03408 -1.34648,0.61451 -1.79976,0.69167 -3.43959,0.5855 -3.38376,-0.21907 -5.97186,-1.92187 -7.35379,-4.83831 -1.34959,-2.84819 -0.8601,-5.71817 1.39638,-8.18711 0.73901,-0.8086 1.22746,-1.47018 1.08545,-1.47018 -0.14202,0 -0.93127,0.29766 -1.75389,0.66146 -0.82262,0.3638 -1.66776,0.66146 -1.8781,0.66146 -0.67534,0 -7.10618,3.40878 -8.20144,4.34732 -1.22348,1.04841 -1.47303,0.66622 2.18894,3.35235 2.25301,1.65263 5.31545,3.12815 8.79127,4.23571 1.42413,0.4538 1.79485,0.65443 1.3131,0.71061 -0.55335,0.0645 -3.06029,-0.67434 -5.67873,-1.6737 -0.92039,-0.35128 1.53491,1.2569 2.73397,1.7907 0.63056,0.28071 1.08924,0.56761 1.0193,0.63755 -0.18632,0.18632 -3.67573,-1.61767 -4.57245,-2.36391 -0.42258,-0.35166 -1.3041,-0.97279 -1.95894,-1.38028 -0.65485,-0.4075 -2.05266,-1.43719 -3.10625,-2.28821 -1.05359,-0.85102 -1.97404,-1.54731 -2.04546,-1.54731 -0.0714,0 -0.06,0.56555 0.0253,1.25677 1.05176,8.52231 7.46619,14.88788 16.02539,15.90329 0.91782,0.10889 1.72476,0.15556 1.7932,0.10372 0.0684,-0.0518 0.0891,-0.50458 0.0459,-1.0061 z m -13.39947,-13.87644 c -0.0899,-0.14552 -0.0445,-0.26458 0.10106,-0.26458 0.14552,0 0.33817,0.11906 0.4281,0.26458 0.0899,0.14552 0.0445,0.26458 -0.10106,0.26458 -0.14552,0 -0.33817,-0.11906 -0.4281,-0.26458 z m 10.9306,-11.82241 c 0.19099,-0.0764 0.4192,-0.067 0.50711,0.0209 0.0879,0.0879 -0.0683,0.15046 -0.34726,0.13897 -0.30823,-0.0127 -0.37092,-0.0754 -0.15985,-0.15985 z m -11.2056,22.68184 c 0.45338,-0.50098 0.42862,-0.56276 -0.76878,-1.91823 -2.06365,-2.33609 -3.71105,-6.24803 -4.23885,-10.06568 -0.16451,-1.1899 -0.21715,-1.25677 -0.98929,-1.25677 h -0.81553 l 0.16808,1.78594 c 0.23486,2.49542 1.19819,5.41803 2.54719,7.72784 1.08108,1.85107 3.02022,4.24455 3.43883,4.24455 0.10443,0 0.40069,-0.23294 0.65835,-0.51765 z m 15.88454,-8.7747 c 1.37877,-0.38276 3.14968,-2.15583 3.57668,-3.58103 0.41476,-1.38434 0.15952,-3.20501 -0.61282,-4.37129 -0.80009,-1.20818 -3.08636,-2.33449 -4.73872,-2.33449 -2.18709,0 -4.19616,1.18056 -5.1637,3.03428 -0.5146,0.98593 -0.50251,3.5529 0.0215,4.55627 1.26158,2.41582 4.03423,3.49659 6.9171,2.69626 z m -3.03414,-4.06091 c -0.53044,-0.56463 -0.59429,-0.79681 -0.38376,-1.39547 0.51767,-1.47197 2.23996,-1.61517 3.01647,-0.25081 0.35793,0.62892 0.34437,0.75111 -0.15846,1.42752 -0.73897,0.99407 -1.66866,1.07626 -2.47425,0.21876 z m -32.55144,-0.14049 c 0.64365,-0.64365 0.6636,-1.0004 0.0913,-1.63281 -0.54455,-0.60172 -1.35391,-0.62043 -1.98868,-0.046 -0.6509,0.58906 -0.6099,1.29591 0.10418,1.79607 0.77717,0.54435 1.15638,0.51955 1.79322,-0.11728 z m 69.3314,0.0446 c 1.2437,-1.00708 -0.13449,-2.68 -1.57343,-1.90991 -0.66008,0.35327 -0.73203,1.38467 -0.13804,1.97867 0.54241,0.5424 0.97835,0.52489 1.71147,-0.0688 z m -57.15485,-2.09516 c 0.0111,-1.92514 1.04191,-5.70991 2.14085,-7.86055 1.36702,-2.6753 1.81661,-3.31496 3.79516,-5.39961 3.48664,-3.67364 8.321,-5.9939 13.57129,-6.51357 l 1.91823,-0.18987 v -0.93718 -0.937184 l -1.90679,0.177217 c -5.48353,0.509637 -10.89826,2.982957 -14.66253,6.697487 -3.74717,3.69766 -6.26285,8.92501 -6.62813,13.77264 l -0.16448,2.18281 h 0.96534 c 0.9381,0 0.9655,-0.028 0.97106,-0.99219 z m 2.63077,-1.16971 c 0.50783,-3.47308 1.72296,-6.40083 3.6888,-8.8878 0.70797,-0.89565 1.02333,-1.52364 0.92221,-1.83642 -0.12336,-0.38158 -0.10029,-0.40002 0.11695,-0.0935 0.22299,0.31466 0.47183,0.19784 1.41402,-0.66386 2.59852,-2.37654 6.23676,-4.02727 10.22016,-4.63706 2.14457,-0.32829 2.16804,-0.34026 2.16804,-1.10584 v -0.77395 l -1.65365,0.18482 c -4.09448,0.4576 -7.57038,1.74931 -10.60722,3.94185 -1.8564,1.34028 -2.47942,1.97639 -4.32872,4.41966 -2.08393,2.75325 -3.7658,7.40236 -3.77874,10.44539 -0.004,1.0176 0.0401,1.08038 0.76517,1.08038 0.75869,0 0.77412,-0.0298 1.07298,-2.07371 z m 39.74544,0.5744 c -0.13079,-2.27404 -0.79668,-4.70612 -1.91968,-7.01146 -3.10453,-6.37311 -9.31067,-10.59268 -16.7159,-11.36518 l -1.78593,-0.18631 v 0.81481 c 0,0.7111 0.0926,0.81554 0.7276,0.82053 1.62858,0.0128 5.59463,1.11418 7.61335,2.1142 2.51604,1.24639 4.59957,2.9385 6.41184,5.2073 2.34719,2.93847 4.01856,7.12274 4.02871,10.0859 0.004,1.1275 0.0143,1.14024 0.86381,1.05833 l 0.85989,-0.0829 z m 2.65671,-0.11434 c -0.26861,-5.78972 -3.90024,-12.41868 -8.86476,-16.18121 -3.23588,-2.45242 -8.01541,-4.2656 -12.54067,-4.757471 l -1.63449,-0.177662 -0.0853,0.891903 -0.0853,0.89191 2.4125,0.3084 c 8.38518,1.07192 15.3247,6.72747 18.07947,14.73436 0.27438,0.7975 0.57562,2.14444 0.66942,2.9932 0.32958,2.98223 0.3538,3.03772 1.28636,2.94722 l 0.83559,-0.0811 z m -1.18395,24.43035 c -1.34796,-1.18825 -1.91581,-2.09101 -1.31528,-2.09101 0.11335,0 0.97311,0.77391 1.91059,1.71979 2.01459,2.03266 1.58988,2.29749 -0.59531,0.37122 z m -53.06167,-11.37944 c 0.14732,-0.44197 3.08436,-1.56915 3.2769,-1.25761 0.2004,0.32426 0.26889,0.27821 -1.44739,0.97333 -1.60449,0.64984 -1.97031,0.70668 -1.82951,0.28428 z m 59.52597,-0.36761 c -0.77388,-0.36027 -1.33878,-0.7655 -1.25533,-0.90051 0.16443,-0.26606 3.32384,1.02535 3.32384,1.35861 0,0.35329 -0.62106,0.21574 -2.06851,-0.4581 z m -57.94731,-20.97522 c -0.99407,-0.38709 -1.57826,-0.74924 -1.4368,-0.8907 0.21858,-0.21858 2.77984,0.63387 3.33348,1.10947 0.56094,0.48185 -0.37452,0.37395 -1.89668,-0.21877 z m 56.43336,0.22131 c 0.15503,-0.25085 2.8599,-1.34005 3.3278,-1.34005 0.73461,0 0.0696,0.52574 -1.29386,1.02288 -1.67809,0.61186 -2.27345,0.7047 -2.03394,0.31717 z m -49.88302,-11.56678 c -1.40458,-1.339746 -1.94033,-2.208686 -1.36177,-2.208686 0.25877,0 3.49808,3.252976 3.49808,3.512846 0,0.49349 -0.6991,0.0667 -2.13631,-1.30416 z m 43.41131,1.2894 c 0,-0.25878 3.25298,-3.498086 3.51285,-3.498086 0.5555,0 0.0137,0.807922 -1.45754,2.173626 -1.58032,1.46692 -2.05531,1.773 -2.05531,1.32446 z m -32.4792,-7.80208 c -1.08624,-2.51957 -0.56116,-2.781443 0.57983,-0.289182 0.78684,1.718693 0.77968,1.684141 0.34781,1.678245 -0.1819,-0.0025 -0.59934,-0.627562 -0.92764,-1.389063 z m 22.42504,0.987907 c 0,-0.645729 1.31712,-3.06872 1.57987,-2.906335 0.13096,0.08094 -0.0816,0.855317 -0.47244,1.720838 -0.69872,1.547455 -1.10743,1.98498 -1.10743,1.185497 z"
       id="path34" /></g></svg>
