<svg width="368" height="372" viewBox="0 0 368 372" fill="none" xmlns="http://www.w3.org/2000/svg">
<circle cx="135.5" cy="27.5" r="1.5" fill="#9046A4"/>
<path d="M135 27.5C125.4 27.5 113.667 27.5 104 27.5L60 87V123.5L31 140.243" stroke="#9046A4"/>
<path d="M31 141C31 141.828 30.3284 142.5 29.5 142.5C28.6716 142.5 28 141.828 28 141C28 140.172 28.6716 139.5 29.5 139.5C30.3284 139.5 31 140.172 31 141Z" fill="#9046A4"/>
<circle cx="132.5" cy="24.5" r="1.5" fill="#9046A4"/>
<path d="M132 24.5C122.4 24.5 110.667 24.5 101 24.5L57 84V120.5L28 137.243" stroke="#9046A4"/>
<path d="M28 138C28 138.828 27.3284 139.5 26.5 139.5C25.6716 139.5 25 138.828 25 138C25 137.172 25.6716 136.5 26.5 136.5C27.3284 136.5 28 137.172 28 138Z" fill="#9046A4"/>
<circle cx="129.5" cy="21.5" r="1.5" fill="#9046A4"/>
<path d="M129 21.5C119.4 21.5 107.667 21.5 98 21.5L54 81V117.5L25 134.243" stroke="#9046A4"/>
<path d="M25 135C25 135.828 24.3284 136.5 23.5 136.5C22.6716 136.5 22 135.828 22 135C22 134.172 22.6716 133.5 23.5 133.5C24.3284 133.5 25 134.172 25 135Z" fill="#9046A4"/>
<path d="M7.5 239.5H66L122.5 296V365.5" stroke="#9046A4"/>
<circle cx="7.5" cy="239.5" r="1.5" fill="#9046A4"/>
<circle cx="122.5" cy="365.5" r="1.5" fill="#9046A4"/>
<path d="M4.5 242.5H63L119.5 299V368.5" stroke="#9046A4"/>
<circle cx="4.5" cy="242.5" r="1.5" fill="#9046A4"/>
<circle cx="119.5" cy="368.5" r="1.5" fill="#9046A4"/>
<path d="M2 245H60.5L117 301.5V371" stroke="#9046A4"/>
<circle cx="1.5" cy="244.5" r="1.5" fill="#9046A4"/>
<circle cx="116.5" cy="370.5" r="1.5" fill="#9046A4"/>
<path d="M262 329.5C262 330.328 261.328 331 260.5 331C259.672 331 259 330.328 259 329.5C259 328.672 259.672 328 260.5 328C261.328 328 262 328.672 262 329.5Z" fill="#9046A4"/>
<path d="M260.5 330H304L337 297V253.5L356 234.5" stroke="#9046A4"/>
<path d="M358 234.5C358 235.328 357.328 236 356.5 236C355.672 236 355 235.328 355 234.5C355 233.672 355.672 233 356.5 233C357.328 233 358 233.672 358 234.5Z" fill="#9046A4"/>
<path d="M265 332.5C265 333.328 264.328 334 263.5 334C262.672 334 262 333.328 262 332.5C262 331.672 262.672 331 263.5 331C264.328 331 265 331.672 265 332.5Z" fill="#9046A4"/>
<path d="M263.5 333H307L340 300V256.5L359 237.5" stroke="#9046A4"/>
<path d="M361 237.5C361 238.328 360.328 239 359.5 239C358.672 239 358 238.328 358 237.5C358 236.672 358.672 236 359.5 236C360.328 236 361 236.672 361 237.5Z" fill="#9046A4"/>
<path d="M268 335.5C268 336.328 267.328 337 266.5 337C265.672 337 265 336.328 265 335.5C265 334.672 265.672 334 266.5 334C267.328 334 268 334.672 268 335.5Z" fill="#9046A4"/>
<path d="M266.5 336H310L343 303V259.5L362 240.5" stroke="#9046A4"/>
<path d="M364 240.5C364 241.328 363.328 242 362.5 242C361.672 242 361 241.328 361 240.5C361 239.672 361.672 239 362.5 239C363.328 239 364 239.672 364 240.5Z" fill="#9046A4"/>
<path d="M254.5 6.5H284.5L298.5 20.5V32L331.5 65L348.5 82V108" stroke="#9046A4"/>
<circle cx="348.5" cy="108.5" r="1.5" fill="#9046A4"/>
<circle cx="253.5" cy="6.5" r="1.5" fill="#9046A4"/>
<path d="M257.5 4.5H287.5L301.5 18.5V30L334.5 63L351.5 80V106" stroke="#9046A4"/>
<circle cx="351.5" cy="106.5" r="1.5" fill="#9046A4"/>
<circle cx="256.5" cy="4.5" r="1.5" fill="#9046A4"/>
<path d="M260 2H290L304 16V27.5L337 60.5L354 77.5V103.5" stroke="#9046A4"/>
<path d="M356 104.5C356 105.328 355.328 106 354.5 106C353.672 106 353 105.328 353 104.5C353 103.672 353.672 103 354.5 103C355.328 103 356 103.672 356 104.5Z" fill="#9046A4"/>
<circle cx="259.5" cy="1.5" r="1.5" fill="#9046A4"/>
<g clip-path="url(#clip0_51_506)">
<path d="M197.811 301.004C197.307 282.764 197.866 273.254 199.441 273.254C201.028 273.254 201.743 285.334 201.142 302.004C200.867 309.665 200.438 312.254 199.447 312.254C198.443 312.254 198.046 309.525 197.811 301.004ZM241.823 286.259C240.243 282.686 239.569 280.02 240.153 279.659C241.381 278.9 241.211 278.663 244.261 285.427C246.581 290.573 246.78 292.254 245.069 292.254C244.741 292.254 243.28 289.556 241.823 286.259ZM153 290.387C153 288.588 157.304 279.254 158.133 279.254C159.482 279.254 159.177 280.972 156.877 286.318C154.992 290.701 153 292.791 153 290.387ZM199.03 268.004C199.004 266.578 198.088 266.254 194.088 266.254C191.386 266.254 185.874 265.619 181.838 264.845C154.878 259.668 131.186 242.206 118.647 218.27C113.239 207.947 110.399 198.974 108.845 187.305L107.675 178.52L92.3741 178.33L77.0729 178.14L74.193 181.364C70.4056 185.602 65.7271 185.8 62.3417 181.864C61.0538 180.367 60 178.042 60 176.698C60 173.814 62.9677 170.551 66.3669 169.698C69.3995 168.936 74.6405 171.546 75.4965 174.243C76.1005 176.145 76.9843 176.254 91.9365 176.254H107.738L108.916 167.004C111.273 148.491 119.236 131.538 131.927 118.013C139.729 109.699 147.346 103.453 155.193 98.9372C161.622 95.2371 179.208 89.5345 186.5 88.7857C199.812 87.4185 199 87.8821 199 81.6492C199 78.3241 199.387 76.3746 199.975 76.7378C200.511 77.0691 200.764 79.536 200.539 82.2198L200.129 87.0995L203.814 87.6348C205.841 87.9292 209.975 88.4645 213 88.8242C225.752 90.3408 244.175 98.0223 255.526 106.556C274.826 121.066 288.989 145.583 290.688 167.424C291.407 176.672 290.479 176.221 308.817 176.24L322.134 176.253L325.435 172.753C329.418 168.531 333.028 168.191 336.545 171.708C340.487 175.65 339.73 181.308 334.928 183.79C330.771 185.94 329.085 185.617 325.618 182.003L322.5 178.753H307H291.5L290.777 186.736C288.607 210.681 273.467 236.007 253 249.929C239.295 259.251 218.862 266.253 205.366 266.253C202.358 266.253 200.799 266.77 200.08 268.003C199.109 269.67 199.059 269.67 199.03 268.004ZM199 260.4V256.547L191.416 255.906C176.186 254.618 160.627 248.516 149.374 239.415L143.247 234.461L140.654 237.054C137.176 240.533 135.916 238.995 139.327 235.434L142.008 232.636L138.869 229.695C133.99 225.124 126.42 212.966 123.11 204.383C121.458 200.099 119.548 192.732 118.866 188.011L117.625 179.429L114.181 179.027L110.738 178.625L111.369 185.689C112.758 201.25 118.628 216.507 128.197 229.429C143.023 249.449 169.719 263.263 195.25 264.127C198.957 264.252 199 264.209 199 260.4ZM223 261.079C244.941 255.741 265.45 240.385 277.201 220.499C284.319 208.453 289 192.905 289 181.308C289 178.468 288.765 178.264 285.75 178.5L282.5 178.754L280.802 188.254C278.592 200.615 274.967 209.869 268.453 219.774C256.715 237.623 237.903 250.204 216.185 254.729C212.161 255.568 207.099 256.254 204.935 256.254H201V260.37V264.486L207.75 263.817C211.463 263.448 218.325 262.216 223 261.079ZM258.5 236.254C257.505 235.154 257.194 234.254 257.81 234.254C258.426 234.254 259.411 235.154 260 236.254C260.589 237.354 260.899 238.254 260.69 238.254C260.481 238.254 259.496 237.354 258.5 236.254ZM198 250.254C198 247.393 197.802 247.253 193.75 247.239C183.058 247.202 165.149 240.272 155.136 232.298L149.772 228.027L147.275 230.524L144.778 233.021L150.145 237.073C161.995 246.02 180.489 253.012 192.75 253.181C197.933 253.253 198 253.215 198 250.254ZM219.59 251.272C235.293 247.339 251.403 237.239 262.128 224.603C270.299 214.977 279 193.353 279 182.673C279 179.76 278.686 179.436 275.5 179.064C272.066 178.663 272 178.724 272 182.294C272 188.175 268.33 200.834 264.532 208.054C259.811 217.028 253.214 225.249 246.242 230.848C235.623 239.376 215.604 247.254 204.553 247.254C201.272 247.254 201 247.483 201 250.254C201 253.212 201.074 253.254 206.34 253.254C209.277 253.254 215.24 252.362 219.59 251.272ZM199 240.194C199 237.743 199.396 236.38 200 236.754C200.55 237.093 201 238.92 201 240.813C201 244.202 201.065 244.254 205.312 244.254C212.054 244.254 224.733 240.51 233.5 235.932C244.128 230.381 256.037 218.654 261.303 208.554C265.239 201.003 269 188.298 269 182.551V179.168L262.25 184.535C251.89 192.771 240.881 199.983 233.86 203.132C226.005 206.655 217.336 209.532 215.959 209.073C215.391 208.884 218.629 207.449 223.154 205.884C227.679 204.319 235.008 200.8 239.441 198.064C248.504 192.469 267.956 178.137 267.983 177.034C268.013 175.783 243.818 157.974 236.096 153.564C232.023 151.238 224.823 148.16 220.096 146.725C209.013 143.359 209.182 143.425 211.356 143.332C214.517 143.198 225.09 146.273 231.442 149.175C238.202 152.263 251.044 160.775 261.197 168.897C264.88 171.843 268.207 174.254 268.589 174.254C269.941 174.254 268.005 162.23 265.497 155.051C261.888 144.723 257.542 137.866 249.485 129.787C238.097 118.369 223.647 111.428 207.75 109.738L201 109.021V114.137C201 116.951 200.55 119.254 200 119.254C199.45 119.254 199 116.945 199 114.124V108.995L193.035 109.67C168.083 112.493 147.856 126.224 137.669 147.254C133.332 156.207 131.959 160.803 130.544 171.097L129.947 175.44L133.223 172.775C143.496 164.42 155.428 155.991 162 152.445C169.729 148.275 181.829 143.749 182.76 144.68C183.05 144.97 182.435 145.487 181.393 145.83C174.913 147.964 165.491 152.375 159.008 156.312C151.641 160.784 131.715 175.692 131.277 177.059C130.898 178.242 156.203 196.317 164.059 200.474C172.973 205.191 174.522 207.344 166.426 203.763C159.748 200.81 147.32 192.714 138 185.246L131.5 180.038L131.158 183.396C130.603 188.834 132.858 197.127 137.543 206.883C147.695 228.023 171.681 243.796 194.25 244.174L199 244.253L199 240.194ZM173.5 206.254C172.769 205.071 173.748 205.071 176.5 206.254C178.428 207.082 178.422 207.115 176.309 207.183C175.104 207.222 173.84 206.804 173.5 206.254ZM185.5 185.117C166.768 182.511 147.353 178.66 145.68 177.22C144.942 176.584 173.719 170.518 181.375 169.695C183.094 169.511 187.947 168.902 192.16 168.342C200.857 167.188 213.626 168.443 237.707 172.821C254.438 175.862 258.113 176.803 256 177.506C255.175 177.78 245.5 179.65 234.5 181.66C212.806 185.624 197.104 186.732 185.5 185.117ZM181.182 180.754C178.541 178.531 177.339 178.262 170.356 178.332C161.504 178.421 161.86 178.767 173.378 181.271C184.309 183.648 184.599 183.628 181.182 180.754ZM204.61 181.634C214.545 176.92 205.151 167.204 194.553 171.233C193.135 171.772 191.46 173.346 190.829 174.729C189.871 176.832 189.996 177.594 191.591 179.367C195.23 183.413 199.35 184.13 204.61 181.634ZM197.046 178.809C194.346 175.555 198.815 171.64 201.811 174.636C203.084 175.909 203.215 176.69 202.376 178.022C200.916 180.341 198.601 180.683 197.046 178.809ZM228.5 180.23C232.9 179.19 237.4 178.147 238.5 177.912C239.6 177.678 237.575 177.358 234 177.201L227.5 176.917L233.5 176.254C236.8 175.888 238.523 175.514 237.329 175.422C236.135 175.329 231.251 174.325 226.475 173.191C221.699 172.057 217.537 171.384 217.225 171.695C216.914 172.007 217.682 173.35 218.932 174.68L221.204 177.1L217.852 180.197L214.5 183.295L217.5 182.708C219.15 182.384 224.1 181.269 228.5 180.23ZM161.729 177.649C161.397 177.317 160.535 177.282 159.813 177.57C159.015 177.89 159.252 178.127 160.417 178.175C161.471 178.218 162.062 177.982 161.729 177.649ZM180.694 173.728L183.5 171.202L179.734 171.842C177.662 172.194 172.937 173.29 169.234 174.278L162.5 176.073L170.194 176.163C177.083 176.244 178.182 175.989 180.694 173.728ZM146.482 229.274C148.219 227.354 148.167 227.163 144.78 223.024C134.962 211.023 129.512 199.01 128.271 186.63L127.5 178.941L124.13 178.846L120.759 178.752L121.373 185.354C122.709 199.73 130.035 216.251 140.215 227.846C143.703 231.818 144.098 231.908 146.482 229.274ZM71.0621 180.972C74.8784 177.995 73.2008 172.254 68.5148 172.254C63.4212 172.254 61.2217 177.894 65.2226 180.697C67.8644 182.547 68.975 182.599 71.0621 180.972ZM334.066 181.218C336.768 179.772 336.667 174.681 333.907 173.204C328.728 170.432 323.688 176.041 327.537 180.294C329.529 182.495 331.23 182.736 334.066 181.218ZM115.578 175.668C117.346 175.193 117.822 173.864 118.777 166.729C123.703 129.913 153.737 101.53 191.75 97.768L199 97.0505V93.5053V89.96L191.75 90.5782C158.293 93.4307 128.773 115.17 116.916 145.687C111.981 158.39 109.25 176.273 112.25 176.24C112.938 176.232 114.435 175.975 115.578 175.668ZM128.127 168.642C128.876 160.424 132.605 149.216 137.179 141.437C139.006 138.332 144.1 132.164 148.5 127.732C160.474 115.671 175.267 108.604 192.5 106.711C198.302 106.073 198.5 105.956 198.5 103.153C198.5 100.504 198.198 100.255 195 100.267C188.511 100.291 173.048 104.075 165.748 107.424C158.56 110.723 148.117 117.933 143.075 123.078C131.181 135.216 122.883 152.903 121.352 169.379L120.712 176.268L124.106 175.899L127.5 175.531L128.127 168.642ZM278.613 168.776C274.963 133.151 245.066 104.428 207.75 100.696L201 100.021V102.937C201 105.83 201.067 105.862 209.374 107.064C222.007 108.89 233.787 113.587 243 120.471C258.363 131.951 270.029 151.685 271.69 169.004L272.289 175.254H275.783H279.276L278.613 168.776ZM288.593 168.504C286.578 148.619 276.549 128.384 262.058 114.967C253.932 107.444 248.526 103.829 238.419 99.16C228.948 94.7841 217.742 91.6822 207.872 90.7037L201.243 90.0466L200.841 93.4929L200.438 96.9393L209.622 98.0139C245.995 102.27 274.831 129.638 280.732 165.504L282.336 175.254H285.806H289.276L288.593 168.504ZM107.608 267.428C107.328 266.974 110.171 263.553 113.927 259.826C118.516 255.273 121 253.444 121.499 254.252C121.962 255.001 119.85 257.869 115.9 261.854C109.522 268.29 108.546 268.946 107.608 267.428ZM284.25 262.413C278.565 257.187 276.62 254.254 278.84 254.254C279.302 254.254 282.452 257.026 285.84 260.414C291.573 266.146 293.083 268.322 291.25 268.206C290.838 268.18 287.688 265.574 284.25 262.413ZM83.5094 219.238C84.0737 218.325 87.2768 216.747 93.75 214.191C95.404 213.538 96 213.657 96 214.639C96 215.375 93.4849 216.938 90.411 218.115C84.2152 220.486 82.5732 220.753 83.5094 219.238ZM307.77 217.915C305.169 216.726 303.031 215.191 303.02 214.504C303.009 213.816 303.215 213.254 303.478 213.254C304.758 213.254 315 218.772 315 219.462C315 220.705 312.888 220.253 307.77 217.915ZM90.0388 138.783C87.0351 137.52 84.4101 135.984 84.2054 135.37C83.7177 133.906 83.6381 133.892 90.4635 136.535C93.7036 137.79 96.5373 139.365 96.7606 140.035C97.2982 141.648 96.4987 141.499 90.0388 138.783ZM302 139.708C302 138.981 312.155 134.276 313.75 134.263C316.573 134.241 314.682 136.119 309.867 138.12C304.822 140.217 302 140.786 302 139.708ZM114.75 95.826C108.677 90.2478 106.591 87.2535 108.779 87.2535C110.143 87.2535 122.252 100.004 121.868 101.035C121.665 101.58 118.462 99.2357 114.75 95.826ZM278 100.475C278 99.4966 290.295 87.2535 291.277 87.2535C293.267 87.2535 291.438 90.2635 286.281 95.4745C281.11 100.7 278 102.578 278 100.475ZM155.487 70.6292C154.094 67.478 153.335 64.518 153.802 64.0513C154.269 63.5847 155.819 65.9097 157.246 69.2181C158.674 72.5265 159.432 75.4865 158.931 75.7959C158.431 76.1053 156.881 73.7803 155.487 70.6292ZM240 75.3779C240 73.459 245.04 63.2535 245.987 63.2535C247.366 63.2535 247.353 63.3071 244.369 70.1876C242.054 75.526 240 77.9661 240 75.3779ZM198.442 73.9634C197.485 71.4696 198.472 40.7464 199.5 41.0016C200.91 41.3513 201.397 75.2535 199.992 75.2535C199.412 75.2535 198.714 74.673 198.442 73.9634Z" fill="#9046A4"/>
</g>
<defs>
<clipPath id="clip0_51_506">
<rect width="279.076" height="271.254" fill="white" transform="translate(60 41)"/>
</clipPath>
</defs>
</svg>
