<svg width="368" height="372" viewBox="0 0 368 372" fill="none" xmlns="http://www.w3.org/2000/svg">
<g clip-path="url(#clip0_51_596)">
<path d="M197.841 302.75C197.257 285.208 197.932 274 199.571 274C200.761 274 201 277.264 201 293.5C201 309.607 200.755 313 199.591 313C198.493 313 198.107 310.739 197.841 302.75ZM152.769 292.436C152.02 291.687 157.09 280 158.164 280C159.568 280 159.094 282.255 156.536 287.75C154.053 293.084 153.77 293.436 152.769 292.436ZM241.823 287.005C240.339 283.648 239.585 280.756 240.109 280.432C240.97 279.9 246 289.802 246 292.029C246 294.573 244.224 292.437 241.823 287.005ZM107.639 268.305C106.764 267.431 118.987 255 120.721 255C123.03 255 122.082 256.477 115.723 262.779C109.262 269.182 108.819 269.485 107.639 268.305ZM190.889 266.928C147.877 263.224 114.586 231.17 108.827 187.918L107.64 179H92.4199H77.2L73.5933 182.607C70.6169 185.583 69.5071 186.101 67.2433 185.569C63.9089 184.786 60 180.63 60 177.867C60 176.756 61.3154 174.531 62.9231 172.923C66.9374 168.909 70.3963 169.08 74.5647 173.5L77.8656 177H92.8176H107.77L108.415 171.25C110.02 156.947 115.182 142.039 122.529 130.488C127.363 122.889 138.734 111.04 146.5 105.509C158.041 97.2897 174.109 90.882 186.5 89.5573C189.8 89.2046 193.926 88.6964 195.668 88.428L198.836 87.9402L198.264 64.9701C197.736 43.7328 197.822 42 199.405 42C200.978 42 201.099 43.887 200.901 65.25L200.685 88.5L208.771 89.1782C219.677 90.093 227.585 92.3533 239.5 97.9612C268.075 111.41 288.177 139.403 290.873 169.5L291.5 176.5L307 176.763L322.5 177.026L324.183 174.049C327.336 168.47 334.526 169.109 337.975 175.275C339.342 177.719 339.341 178.284 337.964 180.75C337.119 182.263 335.145 184.117 333.577 184.87C331.12 186.052 330.276 186.025 327.449 184.677C325.646 183.817 323.869 182.163 323.5 181C322.849 178.949 322.364 178.895 307.165 179.193L291.5 179.5L290.878 187.149C289.428 204.995 280.284 224.49 266.632 238.844C252.662 253.531 229.621 264.844 210.226 266.536C206.527 266.859 202.6 267.246 201.5 267.397C200.4 267.547 195.625 267.336 190.889 266.928ZM198.771 261.25L198.407 257.5L190.454 256.738C175.825 255.338 161.747 249.822 149.202 240.575L142.903 235.933L139.715 238.203L136.527 240.473L138.853 237.207L141.179 233.94L137.541 229.913C128.154 219.524 121.705 205.589 119.184 190.252L117.5 180.003L114.102 180.002L110.704 180L111.321 188.012C112.731 206.284 121.898 225.085 136.428 239.5C152.231 255.178 173.12 264.256 194.817 264.877L199.135 265L198.771 261.25ZM214.619 263.473C231.111 260.639 243.764 255.057 256.325 245.075C274.427 230.69 286.299 209.035 288.537 186.317L289.225 179.341L285.694 179.42L282.163 179.5L280.999 187.5C277.965 208.347 268.291 225.226 251.701 238.621C238.631 249.174 223.532 255.401 207.824 256.718L201 257.29V261.145C201 265.733 201.239 265.773 214.619 263.473ZM258 236.5C257.282 235.635 257.185 235 257.771 235C258.329 235 259.045 235.675 259.362 236.5C259.678 237.325 259.781 238 259.591 238C259.401 238 258.685 237.325 258 236.5ZM198 251.5V248H193.23C183.273 248 168.028 242.411 156.659 234.593C149.903 229.947 149.786 229.91 147.206 231.601L144.594 233.312L148.804 237.048C157.799 245.03 176.037 252.472 190.273 253.969C194.248 254.387 197.612 254.79 197.75 254.864C197.888 254.939 198 253.425 198 251.5ZM221.197 251.457C229.903 249.141 245.034 241.629 250.166 237.075C254.197 233.498 254.337 233.194 252.716 231.573C250.267 229.124 250.588 228.317 253.105 230.595C255.199 232.49 255.234 232.473 260.407 226.915C269.375 217.281 276.566 200.743 278.524 185.25L279.188 180H275.732H272.276L271.621 186.392C269.909 203.101 259.106 221.688 244.809 232.523C233.365 241.195 216.09 247.948 205.25 247.985C201.109 248 201 248.085 201 251.309V254.618L207.947 253.875C211.768 253.467 217.731 252.379 221.197 251.457ZM198.144 241.446C197.92 238.85 198.235 238 199.423 238C200.584 238 201 239.009 201 241.829V245.658L207.75 244.801C231.462 241.787 252.031 227.658 262.349 207.297C265.563 200.955 269 188.799 269 183.774V180.008L261.198 185.793C256.907 188.974 251.17 192.87 248.448 194.449C245.727 196.028 243.183 197.847 242.796 198.49C242.086 199.667 230.716 207 229.599 207C227.521 207 229.744 204.993 234.066 202.969C242.35 199.089 240.67 198.94 230.326 202.638C225 204.541 219.486 205.958 218.071 205.786C216.234 205.563 217.927 204.696 224 202.753C238.569 198.089 253.852 189.692 264.903 180.28L268.305 177.382L261 172.57C253.711 167.767 239.337 160.265 229.084 155.911C222.122 152.954 224.185 152.177 231.615 154.957C234.721 156.12 237.452 156.881 237.684 156.649C238.896 155.437 225.94 149.394 214.5 145.836L208.5 143.969L213.223 144.462C219.734 145.141 232.406 150.206 238.922 154.733C241.905 156.805 249.78 162.202 256.422 166.726L268.5 174.952L268.803 172.111C269.287 167.579 266.297 156.486 262.482 148.663C251.963 127.091 232.025 113.446 206.75 110.521L201 109.856V114.928C201 118.906 200.655 120 199.403 120C198.105 120 197.872 119.05 198.153 114.916L198.5 109.832L193 110.487C169.415 113.297 150.764 124.73 139.96 143C135.48 150.575 131.493 162.089 130.537 170.213L129.865 175.926L141.163 167.51C155.361 156.933 165.232 151.254 175.475 147.771C183.989 144.876 190.409 143.979 183.5 146.649C181.3 147.5 176.044 149.539 171.82 151.182C167.597 152.824 161.747 155.73 158.82 157.639C153.141 161.344 154.978 161.278 163.645 157.466C170.491 154.455 179.839 151.783 181.006 152.504C181.522 152.822 182.969 152.44 184.222 151.654C190.681 147.603 206.033 147.024 213.467 150.551C215.564 151.547 219.582 154.642 222.395 157.43C228.435 163.416 231.346 170.492 231.266 178.988C231.167 189.523 223.219 200.288 211.638 205.574C206.549 207.896 204.836 208.188 198.638 207.787C185.849 206.959 176.068 200.523 170.845 189.5C165.744 178.735 167.594 167.888 176.122 158.557C178.915 155.5 180.761 153 180.225 153C179.688 153 176.705 154.125 173.596 155.5C170.487 156.875 167.292 158 166.497 158C163.945 158 139.639 170.884 135.5 174.431C130.876 178.393 129.933 176.949 143.773 187.101C152.288 193.347 163.863 198.924 177 203.11C182.382 204.825 183.784 205.584 181.963 205.796C179.871 206.04 170.396 203.247 160.5 199.47C157.021 198.142 166.301 204.221 170.833 206.238C173.216 207.299 174.95 208.383 174.685 208.648C173.981 209.352 160.793 202.534 157.404 199.713C155.807 198.384 152.475 196.037 150 194.496C147.525 192.956 142.242 189.065 138.26 185.848C134.278 182.632 130.799 180 130.529 180C130.259 180 130.302 182.138 130.625 184.75C134.6 216.96 158.843 241.019 191.193 244.857C194.662 245.269 197.712 245.445 197.97 245.249C198.229 245.053 198.307 243.342 198.144 241.446ZM147.5 189C147.16 188.45 147.332 188 147.882 188C148.432 188 149.16 188.45 149.5 189C149.84 189.55 149.668 190 149.118 190C148.568 190 147.84 189.55 147.5 189ZM188.813 144.317C189.534 144.028 190.397 144.064 190.729 144.396C191.061 144.728 190.471 144.964 189.417 144.921C188.252 144.873 188.015 144.636 188.813 144.317ZM146.461 230.043C148.174 228.15 148.081 227.917 143.555 222.793C135.755 213.964 129.529 199.179 127.534 184.75C126.912 180.253 126.713 180 123.795 180H120.713L121.348 186.75C122.236 196.181 125.877 207.228 130.975 215.958C135.061 222.954 142.39 232 143.972 232C144.367 232 145.487 231.12 146.461 230.043ZM206.497 196.879C211.708 195.433 218.401 188.731 220.015 183.345C221.582 178.113 220.618 171.231 217.699 166.823C214.675 162.257 206.034 158 199.789 158C191.522 158 183.929 162.462 180.272 169.468C178.327 173.194 178.373 182.896 180.353 186.689C185.122 195.819 195.601 199.904 206.497 196.879ZM195.029 181.531C193.024 179.397 192.783 178.519 193.579 176.257C195.535 170.693 202.045 170.152 204.979 175.309C206.332 177.686 206.281 178.148 204.381 180.704C201.588 184.461 198.074 184.772 195.029 181.531ZM72 181C74.4327 178.567 74.5081 177.219 72.3451 174.829C70.2869 172.554 67.2279 172.484 64.8288 174.655C62.3687 176.881 62.5237 179.553 65.2225 181.443C68.1599 183.501 69.593 183.407 72 181ZM334.04 181.168C338.741 177.362 333.532 171.039 328.093 173.95C325.598 175.285 325.326 179.183 327.571 181.428C329.621 183.478 331.269 183.412 334.04 181.168ZM118.022 173.25C118.064 165.974 121.96 151.669 126.113 143.541C131.28 133.429 132.979 131.012 140.457 123.133C153.635 109.248 171.906 100.479 191.75 98.5144L199 97.7968V94.2547V90.7126L191.793 91.3824C171.068 93.3086 150.603 102.657 136.376 116.696C122.213 130.671 112.705 150.428 111.325 168.75L110.703 177H114.351C117.897 177 118.001 176.894 118.022 173.25ZM127.965 168.829C129.884 155.702 134.477 144.637 141.907 135.237C144.582 131.852 145.774 129.479 145.392 128.296C144.926 126.854 145.013 126.784 145.834 127.943C146.677 129.132 147.617 128.691 151.178 125.434C161 116.452 174.75 110.213 189.806 107.908C197.911 106.667 198 106.622 198 103.728V100.803L191.75 101.502C176.275 103.231 163.138 108.113 151.66 116.4C144.643 121.466 142.289 123.87 135.299 133.104C127.423 143.51 121.066 161.082 121.017 172.583C121.002 176.429 121.169 176.666 123.909 176.666C126.777 176.666 126.835 176.554 127.965 168.829ZM278.184 171C277.689 162.405 275.173 153.213 270.928 144.5C259.195 120.412 235.738 104.464 207.75 101.545L201 100.841V103.92C201 106.608 201.35 107.003 203.75 107.021C209.905 107.07 224.895 111.233 232.525 115.012C242.034 119.723 249.909 126.118 256.759 134.693C265.63 145.799 271.947 161.614 271.985 172.813C272 177.075 272.039 177.123 275.25 176.813L278.5 176.5L278.184 171ZM288.225 170.568C287.21 148.685 273.484 123.631 254.72 109.41C242.49 100.141 224.426 93.2884 207.322 91.4293L201.145 90.7578L200.822 94.1288L200.5 97.4998L209.618 98.6654C241.31 102.717 267.538 124.092 277.95 154.354C278.987 157.369 280.125 162.459 280.48 165.667C281.726 176.939 281.817 177.148 285.342 176.806L288.5 176.5L288.225 170.568ZM283.75 262.903C278.655 258.412 276.509 255 278.779 255C279.207 255 282.457 257.925 286 261.5C293.614 269.182 292.009 270.183 283.75 262.903ZM83.2019 219.894C83.7587 218.224 94.8594 213.963 95.5871 215.141C96.3445 216.366 96.6034 216.192 90.1166 218.819C84.0524 221.276 82.6698 221.49 83.2019 219.894ZM308.182 218.505C305.257 217.143 303.122 215.611 303.437 215.101C304.059 214.095 316 218.976 316 220.236C316 221.571 313.653 221.051 308.182 218.505ZM89.1685 139.228C85.4114 137.765 83.2035 136.396 83.7381 135.862C84.5642 135.036 94.2446 138.257 96.3371 140.055C98.4572 141.876 94.9216 141.468 89.1685 139.228ZM302.46 140.065C303.046 139.116 313.269 135 315.038 135C317.814 135 315.301 136.987 310.147 138.866C303.805 141.178 301.555 141.529 302.46 140.065ZM113.926 96.3476C108.617 91.284 106.592 87.9998 108.779 87.9998C109.757 87.9998 122 100.295 122 101.277C122 103.142 119.358 101.529 113.926 96.3476ZM278 101.221C278 100.243 290.295 87.9998 291.277 87.9998C293.376 87.9998 291.329 91.0534 285.768 96.2151C279.795 101.759 278 102.916 278 101.221ZM155.244 71.7327C151.138 62.2099 153.123 61.2202 157.435 70.6398C160.409 77.1356 160.382 77.005 158.75 76.9827C158.062 76.9733 156.485 74.6108 155.244 71.7327ZM240 75.4665C240 73.026 244.978 63.8682 245.971 64.482C246.466 64.7879 245.663 67.7147 244.186 70.9859C241.545 76.8346 240 78.4882 240 75.4665Z" fill="#9046A4"/>
</g>
<circle cx="135.5" cy="27.5" r="1.5" fill="#9046A4"/>
<path d="M135 27.5C125.4 27.5 113.667 27.5 104 27.5L60 87V123.5L31 140.243" stroke="#9046A4"/>
<path d="M31 141C31 141.828 30.3284 142.5 29.5 142.5C28.6716 142.5 28 141.828 28 141C28 140.172 28.6716 139.5 29.5 139.5C30.3284 139.5 31 140.172 31 141Z" fill="#9046A4"/>
<circle cx="132.5" cy="24.5" r="1.5" fill="#9046A4"/>
<path d="M132 24.5C122.4 24.5 110.667 24.5 101 24.5L57 84V120.5L28 137.243" stroke="#9046A4"/>
<path d="M28 138C28 138.828 27.3284 139.5 26.5 139.5C25.6716 139.5 25 138.828 25 138C25 137.172 25.6716 136.5 26.5 136.5C27.3284 136.5 28 137.172 28 138Z" fill="#9046A4"/>
<circle cx="129.5" cy="21.5" r="1.5" fill="#9046A4"/>
<path d="M129 21.5C119.4 21.5 107.667 21.5 98 21.5L54 81V117.5L25 134.243" stroke="#9046A4"/>
<path d="M25 135C25 135.828 24.3284 136.5 23.5 136.5C22.6716 136.5 22 135.828 22 135C22 134.172 22.6716 133.5 23.5 133.5C24.3284 133.5 25 134.172 25 135Z" fill="#9046A4"/>
<path d="M7.5 239.5H66L122.5 296V365.5" stroke="#9046A4"/>
<circle cx="7.5" cy="239.5" r="1.5" fill="#9046A4"/>
<circle cx="122.5" cy="365.5" r="1.5" fill="#9046A4"/>
<path d="M4.5 242.5H63L119.5 299V368.5" stroke="#9046A4"/>
<circle cx="4.5" cy="242.5" r="1.5" fill="#9046A4"/>
<circle cx="119.5" cy="368.5" r="1.5" fill="#9046A4"/>
<path d="M2 245H60.5L117 301.5V371" stroke="#9046A4"/>
<circle cx="1.5" cy="244.5" r="1.5" fill="#9046A4"/>
<circle cx="116.5" cy="370.5" r="1.5" fill="#9046A4"/>
<path d="M262 329.5C262 330.328 261.328 331 260.5 331C259.672 331 259 330.328 259 329.5C259 328.672 259.672 328 260.5 328C261.328 328 262 328.672 262 329.5Z" fill="#9046A4"/>
<path d="M260.5 330H304L337 297V253.5L356 234.5" stroke="#9046A4"/>
<path d="M358 234.5C358 235.328 357.328 236 356.5 236C355.672 236 355 235.328 355 234.5C355 233.672 355.672 233 356.5 233C357.328 233 358 233.672 358 234.5Z" fill="#9046A4"/>
<path d="M265 332.5C265 333.328 264.328 334 263.5 334C262.672 334 262 333.328 262 332.5C262 331.672 262.672 331 263.5 331C264.328 331 265 331.672 265 332.5Z" fill="#9046A4"/>
<path d="M263.5 333H307L340 300V256.5L359 237.5" stroke="#9046A4"/>
<path d="M361 237.5C361 238.328 360.328 239 359.5 239C358.672 239 358 238.328 358 237.5C358 236.672 358.672 236 359.5 236C360.328 236 361 236.672 361 237.5Z" fill="#9046A4"/>
<path d="M268 335.5C268 336.328 267.328 337 266.5 337C265.672 337 265 336.328 265 335.5C265 334.672 265.672 334 266.5 334C267.328 334 268 334.672 268 335.5Z" fill="#9046A4"/>
<path d="M266.5 336H310L343 303V259.5L362 240.5" stroke="#9046A4"/>
<path d="M364 240.5C364 241.328 363.328 242 362.5 242C361.672 242 361 241.328 361 240.5C361 239.672 361.672 239 362.5 239C363.328 239 364 239.672 364 240.5Z" fill="#9046A4"/>
<path d="M254.5 6.5H284.5L298.5 20.5V32L331.5 65L348.5 82V108" stroke="#9046A4"/>
<circle cx="348.5" cy="108.5" r="1.5" fill="#9046A4"/>
<circle cx="253.5" cy="6.5" r="1.5" fill="#9046A4"/>
<path d="M257.5 4.5H287.5L301.5 18.5V30L334.5 63L351.5 80V106" stroke="#9046A4"/>
<circle cx="351.5" cy="106.5" r="1.5" fill="#9046A4"/>
<circle cx="256.5" cy="4.5" r="1.5" fill="#9046A4"/>
<path d="M260 2H290L304 16V27.5L337 60.5L354 77.5V103.5" stroke="#9046A4"/>
<path d="M356 104.5C356 105.328 355.328 106 354.5 106C353.672 106 353 105.328 353 104.5C353 103.672 353.672 103 354.5 103C355.328 103 356 103.672 356 104.5Z" fill="#9046A4"/>
<circle cx="259.5" cy="1.5" r="1.5" fill="#9046A4"/>
<defs>
<clipPath id="clip0_51_596">
<rect width="278.999" height="271" fill="white" transform="translate(60 42)"/>
</clipPath>
</defs>
</svg>
