<svg width="368" height="372" viewBox="0 0 368 372" fill="none" xmlns="http://www.w3.org/2000/svg">
<g clip-path="url(#clip0_51_551)">
<path d="M197.604 298.914C197.611 283.797 198.395 274.164 199.612 274.164C200.631 274.164 201.259 289.452 200.772 302.414C200.46 310.718 200.053 313.164 198.982 313.164C197.864 313.164 197.597 310.4 197.604 298.914ZM152.595 291.797C152.595 289.628 156.771 280.164 157.729 280.164C159.163 280.164 158.706 282.384 156.131 287.914C153.686 293.166 152.595 294.364 152.595 291.797ZM241.529 287.442C240.191 284.295 238.945 281.37 238.762 280.942C238.579 280.514 238.937 280.164 239.558 280.164C240.708 280.164 245.568 289.637 245.585 291.914C245.608 294.781 243.807 292.795 241.529 287.442ZM198.302 268.842C197.943 267.906 195.246 267.273 189.934 266.875C169.109 265.317 149.516 256.025 133.613 240.164C118.946 225.534 110.998 209.31 108.392 188.68L107.217 179.373L91.4008 179.518C77.1022 179.65 75.5289 179.837 75.0044 181.471C74.0837 184.338 68.6176 186.503 65.3925 185.277C57.0427 182.102 58.8431 170.164 67.6717 170.164C70.3012 170.164 75.5952 174.139 75.5952 176.113C75.5952 176.803 80.9739 177.103 91.4024 176.997L107.209 176.836L108.467 167.469C110.465 152.577 115.054 140.761 123.91 127.706C128.71 120.631 140.076 109.361 147.084 104.729C160.767 95.6841 179.634 89.1635 192.119 89.1635H198.425L198.76 82.5653C198.944 78.9364 198.79 75.7795 198.416 75.5502C197.631 75.0677 198.348 42.0777 199.162 41.2638C200.829 39.5966 201.222 45.5886 200.797 66.2091L200.324 89.1635L206.209 89.1703C213.696 89.1794 225.974 92.1232 235.595 96.2168C266.264 109.265 287.34 137.82 291.096 171.413L291.739 177.163H306.734H321.73L325.031 173.663C329.034 169.419 332.318 169.159 335.959 172.8C339.396 176.237 339.304 179.609 335.672 183.24C331.875 187.037 329.057 186.933 325.212 182.856L322.092 179.548L306.951 179.276L291.81 179.004L291.128 185.333C289.507 200.389 282.38 218.815 273.625 230.589C268.987 236.826 258.737 246.657 252.273 251.068C245.069 255.983 229.865 262.897 222.506 264.604C218.933 265.432 212.654 266.401 208.553 266.755C204.015 267.148 200.652 267.953 199.963 268.811C199.007 270.003 198.75 270.009 198.302 268.842ZM198.595 261.164V257.164H194.161C184.122 257.164 166.867 251.994 157.034 246.041C134.262 232.254 120.244 210.625 117.915 185.682L117.321 179.325L113.846 179.494L110.371 179.664L111.052 188.116C112.874 210.745 126.355 234.381 144.968 247.583C159.246 257.712 178.793 264.697 193.845 265.052L198.595 265.164V261.164ZM136.595 239.365C136.595 238.362 139.89 235.164 140.924 235.164C142.324 235.164 141.44 236.731 139.064 238.46C137.706 239.449 136.595 239.856 136.595 239.365ZM220.437 262.531C254.874 254.638 281.086 227.416 287.115 193.283C287.929 188.673 288.595 183.611 288.595 182.033C288.595 179.42 288.282 179.164 285.095 179.164C281.89 179.164 281.595 179.411 281.595 182.098C281.595 186.969 278.783 198.778 275.785 206.5C272.689 214.474 267.766 222.416 261.526 229.505C257.937 233.582 257.618 234.348 258.658 236.378C259.764 238.537 259.732 238.571 258.075 236.991C256.426 235.418 255.927 235.622 249.708 240.407C237.885 249.506 222.114 255.65 207.42 256.882L200.595 257.454V261.425V265.397L207.345 264.69C211.058 264.302 216.949 263.33 220.437 262.531ZM198.595 251.164C198.595 248.244 198.466 248.164 193.755 248.164C183.021 248.164 166.268 241.954 154.829 233.736C149.698 230.05 149.5 229.996 147.013 231.626C143.817 233.72 144.441 234.578 153.592 240.661C165.933 248.866 180.69 253.843 193.345 254.07C198.533 254.163 198.595 254.128 198.595 251.164ZM223.095 251.097C242.309 245.161 258.515 232.712 267.861 216.709C272.794 208.263 277.263 194.867 278.2 185.719L278.886 179.019L275.491 179.406L272.095 179.792L271.347 186.505C270.935 190.197 269.664 196.018 268.521 199.441C266.2 206.394 258.931 218.68 253.736 224.429C250.428 228.091 250.379 228.267 252.115 230.185C253.1 231.273 253.408 232.164 252.8 232.164C252.192 232.164 251.268 231.401 250.746 230.468C249.907 228.969 249.118 229.284 243.963 233.176C232.657 241.712 216.16 248.108 205.345 248.147C200.688 248.162 200.595 248.225 200.595 251.312V254.46L208.345 253.86C212.608 253.529 219.245 252.286 223.095 251.097ZM222.53 241.686C232.593 238.334 243.854 230.87 251.603 222.416C261.122 212.03 268.595 194.976 268.595 183.639V180.212L259.069 187.659C247.503 196.7 238.327 202.241 229.323 205.621C219.644 209.255 218.722 208.714 227.801 204.729C232.04 202.869 239.465 198.773 244.301 195.626C253.908 189.376 267.476 179.073 267.549 177.972C267.612 177.02 245.743 160.838 238.218 156.268C231.244 152.033 223.431 148.733 212.595 145.446C205.715 143.358 205.508 143.223 210.095 143.802C217.276 144.708 231.037 149.701 238.595 154.141C242.17 156.242 250.27 161.822 256.595 166.542C267.73 174.851 268.106 175.041 268.422 172.537C268.974 168.165 265.636 155.512 262.057 148.41C251.468 127.4 230.556 112.957 207.268 110.571L200.595 109.888V115.026C200.595 117.852 200.145 120.164 199.595 120.164C199.045 120.164 198.595 117.856 198.595 115.035V109.905L192.345 110.598C182.427 111.698 177.727 113.078 167.835 117.799C152.969 124.894 140.985 137.505 134.881 152.478C132.531 158.246 129.089 173.99 129.983 174.885C130.203 175.105 135.323 171.545 141.361 166.974C147.399 162.403 155.713 156.734 159.836 154.376C168.35 149.506 183.193 144.138 187.923 144.217C190.175 144.255 188.642 144.995 182.643 146.768C177.995 148.142 170.527 151.056 166.049 153.244C157.629 157.357 132.095 175.853 132.095 177.838C132.095 179.182 147.874 192.071 155.517 196.97C162.483 201.435 172.484 206.029 180.095 208.262C187.631 210.472 185.485 210.707 177.24 208.575C164.562 205.296 154.203 199.493 138.672 186.97C134.039 183.234 130.159 180.287 130.049 180.42C129.939 180.554 130.223 183.693 130.681 187.396C133.268 208.313 146.554 227.151 165.809 237.201C174.498 241.737 186.527 245.164 193.755 245.164H198.595V241.664C198.595 239.739 199.045 238.164 199.595 238.164C200.145 238.164 200.595 239.878 200.595 241.973V245.782L207.689 245.024C211.591 244.607 218.269 243.105 222.53 241.686ZM187.032 194.605C182.598 193.859 175.173 192.052 170.532 190.589C161.364 187.697 140.581 179.484 139.303 178.247C138.868 177.825 147.105 174.256 157.608 170.315C171.834 164.977 179.24 162.768 186.644 161.657C208.597 158.359 214.714 159.64 259.878 176.988C262.655 178.054 226.249 192.528 218.07 193.609C215.884 193.898 211.395 194.589 208.095 195.143C200.619 196.4 197.192 196.313 187.032 194.605ZM180.346 189.414C173.715 182.463 174.129 173.686 181.459 165.844L184.095 163.024L174.595 166.493C150.313 175.362 144.675 177.643 145.359 178.32C146.117 179.069 161.989 185.366 169.095 187.737C171.295 188.47 174.895 189.747 177.095 190.573C182.788 192.712 183.314 192.525 180.346 189.414ZM228.704 188.233C243.676 182.569 253.494 178.598 254.151 177.941C254.466 177.626 251.657 176.375 247.909 175.159C244.161 173.943 238.761 171.871 235.907 170.556C233.054 169.24 230.043 168.164 229.216 168.164C228.39 168.164 227.471 167.772 227.175 167.293C226.879 166.814 225.39 166.171 223.866 165.863C222.342 165.555 220.256 164.98 219.231 164.583C217.653 163.973 217.772 164.474 220.003 167.845C223.963 173.83 224.713 177.455 223.098 182.821C222.339 185.341 220.713 188.474 219.483 189.784C218.253 191.093 217.486 192.164 217.78 192.164C218.073 192.164 222.989 190.395 228.704 188.233ZM208.981 187.818C217.724 181.15 214.754 168.169 203.813 165.222C193.015 162.315 183.501 170.348 185.772 180.455C186.841 185.214 187.932 186.754 192.095 189.382C196.43 192.117 204.3 191.389 208.981 187.818ZM195.795 180.964C194.037 179.206 194.328 176.715 196.524 174.729C198.825 172.645 202.101 173.372 203.676 176.315C205.775 180.236 199.04 184.209 195.795 180.964ZM146.011 230.257C147.665 228.429 147.528 228.091 142.719 222.122C134.273 211.641 129.037 199.157 127.114 184.914C126.506 180.413 126.311 180.164 123.39 180.164H120.308L120.94 186.963C121.909 197.395 126.84 211.202 132.724 219.962C136.032 224.888 142.543 232.164 143.643 232.164C143.996 232.164 145.062 231.306 146.011 230.257ZM69.9932 182.028C73.2956 180.524 73.9812 178.402 72.0949 175.523C70.3018 172.786 66.4938 172.408 64.1666 174.735C61.9482 176.954 62.2165 179.785 64.8177 181.607C67.4654 183.461 66.9412 183.419 69.9932 182.028ZM333.766 181.509C337.138 178.457 335.525 173.164 331.224 173.164C328.815 173.164 325.595 175.924 325.595 177.99C325.595 180.017 328.531 183.164 330.421 183.164C331.255 183.164 332.761 182.419 333.766 181.509ZM115.548 176.164C117.032 176.164 117.456 174.958 118.035 169.081C121.666 132.226 152.628 102.672 191.845 98.6268L198.595 97.9307V94.5472C198.595 90.6015 197.981 90.4866 186.287 92.245C165.712 95.3385 149.234 103.641 135.158 118.007C126.739 126.601 123.491 131.226 118.547 141.664C113.992 151.28 111.601 160.1 110.844 170.081C110.331 176.84 110.435 177.439 112.02 176.831C112.976 176.464 114.564 176.164 115.548 176.164ZM137.095 120.164C136.755 119.614 136.954 119.164 137.536 119.164C138.119 119.164 138.595 119.614 138.595 120.164C138.595 120.714 138.397 121.164 138.154 121.164C137.912 121.164 137.435 120.714 137.095 120.164ZM127.468 168.66C132.312 136.091 158.905 110.954 192.118 107.551C198.424 106.905 198.595 106.812 198.595 104.026C198.595 101.383 198.308 101.165 194.845 101.177C186.624 101.206 172.36 105.04 162.7 109.818C154.552 113.849 151.639 116.017 143.49 124.117C129.666 137.857 122.386 152.504 120.953 169.462L120.328 176.857L123.354 176.412C126.283 175.982 126.416 175.732 127.468 168.66ZM144.095 127.164C143.755 126.614 143.954 126.164 144.536 126.164C145.119 126.164 145.595 126.614 145.595 127.164C145.595 127.714 145.397 128.164 145.154 128.164C144.912 128.164 144.435 127.714 144.095 127.164ZM278.112 170.475C274.422 136.021 248.582 108.706 213.968 102.669C201.517 100.498 200.595 100.587 200.595 103.963C200.595 106.716 200.74 106.784 209.182 108.004C226.383 110.491 239.839 117.496 252.25 130.424C258.343 136.77 261.365 140.938 264.461 147.261C269.009 156.549 271.595 165.412 271.595 171.707C271.595 176.636 271.593 176.634 275.619 176.775L278.799 176.887L278.112 170.475ZM288.58 173.239C288.549 166.677 284.701 151.262 281.197 143.677C267.314 113.63 240.922 95.1245 206.845 91.5441L200.595 90.8875V94.3831V97.8788L206.635 98.51C246.161 102.641 276.879 132.391 281.135 170.664L281.803 176.664L285.199 176.739C288.444 176.81 288.594 176.655 288.58 173.239ZM107.255 268.49C106.366 267.601 118.557 255.164 120.316 255.164C122.748 255.164 121.571 257.046 115.511 262.843C108.9 269.167 108.325 269.56 107.255 268.49ZM283.845 263.049C277.648 257.023 276.462 255.164 278.816 255.164C280.45 255.164 291.595 266.256 291.595 267.882C291.595 270.117 290.254 269.28 283.845 263.049ZM83.5952 220.177C83.5952 219.188 88.9644 216.611 93.2869 215.526C97.867 214.377 95.4685 216.935 90.0063 219.025C83.5667 221.489 83.5952 221.484 83.5952 220.177ZM307.845 218.7C304.958 217.356 302.595 215.785 302.595 215.21C302.595 214.634 302.791 214.164 303.029 214.164C304.491 214.164 315.595 219.581 315.595 220.294C315.595 221.732 313.378 221.276 307.845 218.7ZM90.0952 139.935C84.9102 137.961 82.85 136.576 83.755 135.671C84.2921 135.133 94.4128 138.913 95.9324 140.219C97.8434 141.86 94.761 141.71 90.0952 139.935ZM302.595 140.297C302.595 139.34 312.059 135.164 314.229 135.164C317.215 135.164 315.303 136.787 309.806 138.919C303.39 141.407 302.595 141.558 302.595 140.297ZM113.845 96.0485C108.139 90.4998 106.484 88.1637 108.26 88.1637C109 88.1637 121.902 100.229 122.429 101.414C122.612 101.826 122.162 102.155 121.429 102.145C120.695 102.134 117.283 99.3911 113.845 96.0485ZM277.595 101.234C277.595 100.256 289.107 88.9032 290.68 88.3303C291.183 88.147 291.597 88.597 291.599 89.3303C291.603 90.7075 279.816 102.164 278.395 102.164C277.955 102.164 277.595 101.746 277.595 101.234ZM157.276 76.5112C156.108 75.3428 152.595 67.1076 152.595 65.5365C152.595 62.5216 154.481 64.4554 156.577 69.6193C158.659 74.7479 159.014 78.2489 157.276 76.5112ZM239.595 76.1922C239.595 74.0822 244.553 64.1636 245.608 64.1636C246.876 64.1636 246.384 66.1263 243.453 72.7529C241.679 76.7616 239.595 78.6199 239.595 76.1922Z" fill="#9046A4"/>
</g>
<circle cx="135.5" cy="27.5" r="1.5" fill="#9046A4"/>
<path d="M135 27.5C125.4 27.5 113.667 27.5 104 27.5L60 87V123.5L31 140.243" stroke="#9046A4"/>
<path d="M32 140.5C32 141.328 31.3284 142 30.5 142C29.6716 142 29 141.328 29 140.5C29 139.672 29.6716 139 30.5 139C31.3284 139 32 139.672 32 140.5Z" fill="#9046A4"/>
<circle cx="132.5" cy="24.5" r="1.5" fill="#9046A4"/>
<path d="M132 24.5C122.4 24.5 110.667 24.5 101 24.5L57 84V120.5L28 137.243" stroke="#9046A4"/>
<path d="M29 137.5C29 138.328 28.3284 139 27.5 139C26.6716 139 26 138.328 26 137.5C26 136.672 26.6716 136 27.5 136C28.3284 136 29 136.672 29 137.5Z" fill="#9046A4"/>
<circle cx="129.5" cy="21.5" r="1.5" fill="#9046A4"/>
<path d="M129 21.5C119.4 21.5 107.667 21.5 98 21.5L54 81V117.5L25 134.243" stroke="#9046A4"/>
<path d="M26 134.5C26 135.328 25.3284 136 24.5 136C23.6716 136 23 135.328 23 134.5C23 133.672 23.6716 133 24.5 133C25.3284 133 26 133.672 26 134.5Z" fill="#9046A4"/>
<path d="M7.5 239.5H66L122 296V365.5" stroke="#9046A4"/>
<circle cx="7.5" cy="239.5" r="1.5" fill="#9046A4"/>
<circle cx="122" cy="365.5" r="1.5" fill="#9046A4"/>
<path d="M4.5 242.5H63L119.5 299V368.5" stroke="#9046A4"/>
<circle cx="4.5" cy="242.5" r="1.5" fill="#9046A4"/>
<circle cx="119.5" cy="368.5" r="1.5" fill="#9046A4"/>
<path d="M2 245H60.5L117 301.5V371" stroke="#9046A4"/>
<circle cx="1.5" cy="245" r="1.5" fill="#9046A4"/>
<circle cx="117" cy="370.5" r="1.5" fill="#9046A4"/>
<path d="M262 330C262 330.828 261.328 331.5 260.5 331.5C259.672 331.5 259 330.828 259 330C259 329.172 259.672 328.5 260.5 328.5C261.328 328.5 262 329.172 262 330Z" fill="#9046A4"/>
<path d="M260.5 330H304L337 297V253.5L356 234.5" stroke="#9046A4"/>
<path d="M357.6 234.5C357.6 235.328 356.928 236 356.1 236C355.272 236 354.6 235.328 354.6 234.5C354.6 233.672 355.272 233 356.1 233C356.928 233 357.6 233.672 357.6 234.5Z" fill="#9046A4"/>
<path d="M265 333C265 333.828 264.328 334.5 263.5 334.5C262.672 334.5 262 333.828 262 333C262 332.172 262.672 331.5 263.5 331.5C264.328 331.5 265 332.172 265 333Z" fill="#9046A4"/>
<path d="M263.5 333H307L340 300V256.5L359 237.5" stroke="#9046A4"/>
<path d="M360.5 237.5C360.5 238.328 359.828 239 359 239C358.172 239 357.5 238.328 357.5 237.5C357.5 236.672 358.172 236 359 236C359.828 236 360.5 236.672 360.5 237.5Z" fill="#9046A4"/>
<path d="M268 336C268 336.828 267.328 337.5 266.5 337.5C265.672 337.5 265 336.828 265 336C265 335.172 265.672 334.5 266.5 334.5C267.328 334.5 268 335.172 268 336Z" fill="#9046A4"/>
<path d="M266.5 336H310L343 303V259.5L362 240.5" stroke="#9046A4"/>
<path d="M363.5 240.5C363.5 241.328 362.828 242 362 242C361.172 242 360.5 241.328 360.5 240.5C360.5 239.672 361.172 239 362 239C362.828 239 363.5 239.672 363.5 240.5Z" fill="#9046A4"/>
<path d="M254.5 6.5H284.5L298.5 20.5V32L331.5 65L348.5 82V108" stroke="#9046A4"/>
<circle cx="348.5" cy="108.5" r="1.5" fill="#9046A4"/>
<circle cx="253.5" cy="6.5" r="1.5" fill="#9046A4"/>
<path d="M257.5 4H287.5L301.5 18.5V30L334.5 63L351.5 80V106" stroke="#9046A4"/>
<circle cx="351.5" cy="106.5" r="1.5" fill="#9046A4"/>
<circle cx="256.5" cy="4" r="1.5" fill="#9046A4"/>
<path d="M260 2H290L304 16.5V28L337 61L354.5 79V104" stroke="#9046A4"/>
<path d="M356 104.5C356 105.328 355.328 106 354.5 106C353.672 106 353 105.328 353 104.5C353 103.672 353.672 103 354.5 103C355.328 103 356 103.672 356 104.5Z" fill="#9046A4"/>
<circle cx="259.5" cy="1.5" r="1.5" fill="#9046A4"/>
<defs>
<clipPath id="clip0_51_551">
<rect width="278.468" height="272.164" fill="white" transform="translate(60 41)"/>
</clipPath>
</defs>
</svg>
