<svg width="368" height="372" viewBox="0 0 368 372" fill="none" xmlns="http://www.w3.org/2000/svg">
<circle cx="135.5" cy="27.5" r="1.5" fill="#9046A4"/>
<path d="M135 27.5C125.4 27.5 113.667 27.5 104 27.5L60 87V123.5L31 140.243" stroke="#9046A4"/>
<path d="M31 141C31 141.828 30.3284 142.5 29.5 142.5C28.6716 142.5 28 141.828 28 141C28 140.172 28.6716 139.5 29.5 139.5C30.3284 139.5 31 140.172 31 141Z" fill="#9046A4"/>
<circle cx="132.5" cy="24.5" r="1.5" fill="#9046A4"/>
<path d="M132 24.5C122.4 24.5 110.667 24.5 101 24.5L57 84V120.5L28 137.243" stroke="#9046A4"/>
<path d="M28 138C28 138.828 27.3284 139.5 26.5 139.5C25.6716 139.5 25 138.828 25 138C25 137.172 25.6716 136.5 26.5 136.5C27.3284 136.5 28 137.172 28 138Z" fill="#9046A4"/>
<circle cx="129.5" cy="21.5" r="1.5" fill="#9046A4"/>
<path d="M129 21.5C119.4 21.5 107.667 21.5 98 21.5L54 81V117.5L25 134.243" stroke="#9046A4"/>
<path d="M25 135C25 135.828 24.3284 136.5 23.5 136.5C22.6716 136.5 22 135.828 22 135C22 134.172 22.6716 133.5 23.5 133.5C24.3284 133.5 25 134.172 25 135Z" fill="#9046A4"/>
<path d="M7.5 239.5H66L122.5 296V365.5" stroke="#9046A4"/>
<circle cx="7.5" cy="239.5" r="1.5" fill="#9046A4"/>
<circle cx="122.5" cy="365.5" r="1.5" fill="#9046A4"/>
<path d="M4.5 242.5H63L119.5 299V368.5" stroke="#9046A4"/>
<circle cx="4.5" cy="242.5" r="1.5" fill="#9046A4"/>
<circle cx="119.5" cy="368.5" r="1.5" fill="#9046A4"/>
<path d="M2 245H60.5L117 301.5V371" stroke="#9046A4"/>
<circle cx="1.5" cy="244.5" r="1.5" fill="#9046A4"/>
<circle cx="116.5" cy="370.5" r="1.5" fill="#9046A4"/>
<path d="M262 329.5C262 330.328 261.328 331 260.5 331C259.672 331 259 330.328 259 329.5C259 328.672 259.672 328 260.5 328C261.328 328 262 328.672 262 329.5Z" fill="#9046A4"/>
<path d="M260.5 330H304L337 297V253.5L356 234.5" stroke="#9046A4"/>
<path d="M358 234.5C358 235.328 357.328 236 356.5 236C355.672 236 355 235.328 355 234.5C355 233.672 355.672 233 356.5 233C357.328 233 358 233.672 358 234.5Z" fill="#9046A4"/>
<path d="M265 332.5C265 333.328 264.328 334 263.5 334C262.672 334 262 333.328 262 332.5C262 331.672 262.672 331 263.5 331C264.328 331 265 331.672 265 332.5Z" fill="#9046A4"/>
<path d="M263.5 333H307L340 300V256.5L359 237.5" stroke="#9046A4"/>
<path d="M361 237.5C361 238.328 360.328 239 359.5 239C358.672 239 358 238.328 358 237.5C358 236.672 358.672 236 359.5 236C360.328 236 361 236.672 361 237.5Z" fill="#9046A4"/>
<path d="M268 335.5C268 336.328 267.328 337 266.5 337C265.672 337 265 336.328 265 335.5C265 334.672 265.672 334 266.5 334C267.328 334 268 334.672 268 335.5Z" fill="#9046A4"/>
<path d="M266.5 336H310L343 303V259.5L362 240.5" stroke="#9046A4"/>
<path d="M364 240.5C364 241.328 363.328 242 362.5 242C361.672 242 361 241.328 361 240.5C361 239.672 361.672 239 362.5 239C363.328 239 364 239.672 364 240.5Z" fill="#9046A4"/>
<path d="M254.5 6.5H284.5L298.5 20.5V32L331.5 65L348.5 82V108" stroke="#9046A4"/>
<circle cx="348.5" cy="108.5" r="1.5" fill="#9046A4"/>
<circle cx="253.5" cy="6.5" r="1.5" fill="#9046A4"/>
<path d="M257.5 4.5H287.5L301.5 18.5V30L334.5 63L351.5 80V106" stroke="#9046A4"/>
<circle cx="351.5" cy="106.5" r="1.5" fill="#9046A4"/>
<circle cx="256.5" cy="4.5" r="1.5" fill="#9046A4"/>
<path d="M260 2H290L304 16V27.5L337 60.5L354 77.5V103.5" stroke="#9046A4"/>
<path d="M356 104.5C356 105.328 355.328 106 354.5 106C353.672 106 353 105.328 353 104.5C353 103.672 353.672 103 354.5 103C355.328 103 356 103.672 356 104.5Z" fill="#9046A4"/>
<circle cx="259.5" cy="1.5" r="1.5" fill="#9046A4"/>
<g clip-path="url(#clip0_51_440)">
<path d="M196.668 312.288C195.703 311.323 195.946 275.666 196.928 274.077C197.382 273.343 198.005 273.15 198.313 273.649C199.201 275.085 199.968 300.858 199.312 307.206C198.746 312.679 198.169 313.789 196.668 312.288ZM151.012 291.828C151.031 289.367 155.949 279.805 156.896 280.39C157.411 280.708 156.975 282.707 155.911 284.91C154.861 287.082 154.003 289.276 154.003 289.785C154.003 290.294 153.328 291.271 152.503 291.956C151.293 292.96 151.005 292.935 151.012 291.828ZM240.448 287.427C237.826 281.498 237.5 279.956 238.872 279.956C239.585 279.956 245.003 291.06 245.003 292.522C245.003 292.761 244.528 292.956 243.948 292.956C243.367 292.956 241.792 290.468 240.448 287.427ZM197.003 268.599C197.003 267.622 194.83 267.081 189.253 266.668C178.738 265.888 167.197 262.746 157.067 257.903C129.013 244.491 111.029 219.41 106.825 187.836L105.632 178.879L90.3034 179.009C76.349 179.128 74.8835 179.31 73.959 181.038C72.6147 183.549 67.3582 186.204 65.129 185.496C58.8783 183.512 56.8728 175.777 61.6375 172.029C65.852 168.713 71.763 169.94 73.871 174.566C74.9506 176.936 75.0904 176.956 90.4093 176.956H105.859L106.483 171.206C108.925 148.705 118.229 129.694 134.398 114.172C138.993 109.761 146.263 104.096 150.554 101.584C163.426 94.0495 172.15 91.3714 193.753 88.3238C196.966 87.8705 197.003 87.8039 197.003 82.4107C197.003 75.1487 198.821 75.3928 199.203 82.706L199.502 88.4559L207.315 89.1642C239.661 92.0964 268.703 112.814 281.995 142.438C285.127 149.421 288.545 162.407 289.566 171.206L290.233 176.956H305.55C320.017 176.956 320.903 176.844 321.506 174.945C322.228 172.671 326.849 169.956 329.998 169.956C332.918 169.956 337.002 174.341 337.002 177.476C337.002 185.767 327.031 188.507 322.427 181.481L320.747 178.917L305.441 179.059L290.135 179.202L289.506 185.829C285.481 228.2 249.909 262.998 206.959 266.58C201.254 267.056 199.003 267.627 199.003 268.6C199.003 269.346 198.552 269.956 198.002 269.956C197.452 269.956 197.003 269.345 197.003 268.599ZM197.003 261.1V257.243L189.236 256.596C151.13 253.418 121.18 224.077 116.468 185.306C115.859 180.295 115.746 180.145 112.294 179.742L108.746 179.328L109.378 186.909C110.633 201.957 118.145 220.611 127.705 232.421C142.695 250.938 169.173 264.03 193.253 264.831C196.959 264.955 197.003 264.911 197.003 261.1ZM135.003 239.158C135.003 238.154 138.298 234.956 139.331 234.956C140.732 234.956 139.847 236.523 137.471 238.253C136.114 239.241 135.003 239.648 135.003 239.158ZM210.552 263.886C251.442 258.198 283.587 225.706 286.66 186.956L287.254 179.456L283.729 179.385L280.204 179.314L279.529 186.518C278.22 200.484 270.449 217.93 260.865 228.416C255.775 233.986 255.757 234.028 257.625 236.202L259.503 238.388L257.038 236.824C254.659 235.313 254.361 235.426 248.436 240.083C236.926 249.128 220.775 255.473 206.253 256.655L199.003 257.245V261.1C199.003 265.56 198.823 265.517 210.552 263.886ZM197.003 250.956C197.003 248.046 196.861 247.956 192.253 247.941C179.615 247.902 160.24 240.063 150.732 231.142L147.962 228.542L145.423 231.081L142.885 233.619L147.194 237.106C159.252 246.864 176.988 253.606 191.253 253.856C196.997 253.956 197.003 253.953 197.003 250.956ZM221.503 250.911C230.203 248.251 244.195 240.952 249.503 236.305C253.17 233.094 253.357 232.696 251.753 231.519C250.79 230.813 250.003 229.878 250.003 229.441C250.003 229.004 250.907 229.465 252.013 230.465C253.966 232.233 254.098 232.216 256.628 229.87C260.225 226.536 268.667 213.903 271.12 208.185C273.796 201.95 276.987 188.49 276.996 183.407C277.002 179.367 276.995 179.358 273.503 179.766C270.126 180.16 270.003 180.322 270.003 184.355C270.003 201.012 257.459 222.394 240.649 234.389C229.565 242.298 214.309 247.901 203.753 247.939C199.096 247.955 199.003 248.017 199.003 251.104V254.252L206.753 253.652C211.015 253.322 217.653 252.088 221.503 250.911ZM197.003 241.456C197.003 239.531 197.453 237.956 198.003 237.956C198.553 237.956 199.003 239.596 199.003 241.601V245.246L205.753 244.672C225.276 243.013 245.937 230.623 257.042 213.914C261.736 206.852 265.854 195.899 266.839 187.86C267.338 183.788 267.605 180.295 267.433 180.097C267.26 179.9 264.955 181.544 262.311 183.75C253.124 191.414 241.462 199.268 234.318 202.602C225.195 206.861 223.693 206.891 231.503 202.659C239.396 198.381 248.591 192.126 258.819 184.074L267.135 177.528L264.819 175.788C246.823 162.267 235.939 154.919 228.575 151.32C218.422 146.357 218.679 145.495 229.001 149.887C236.621 153.13 247.563 160.212 259.003 169.303L266.503 175.264L266.81 170.561C267.208 164.453 264.83 156.408 259.685 146.456C254.154 135.759 242.435 123.859 232.241 118.589C224.737 114.709 208.292 109.956 202.375 109.956H199.003V114.956C199.003 117.706 198.553 119.956 198.003 119.956C197.453 119.956 197.003 117.648 197.003 114.827V109.698L191.088 110.367C173.935 112.307 160.211 118.761 148.396 130.441C141.929 136.834 139.452 140.176 136.156 146.956C131.634 156.255 129.003 165.207 129.003 171.288C129.003 174.918 129.135 175.101 130.845 173.828C131.858 173.073 137.514 168.808 143.413 164.35C153.552 156.686 166.999 148.936 170.094 148.973C170.869 148.982 167.678 151.04 163.003 153.546C158.328 156.053 150.28 161.333 145.119 165.28C139.957 169.227 134.509 173.356 133.012 174.456C131.514 175.556 130.112 176.739 129.896 177.085C128.975 178.558 152.65 196.194 163.454 202.085C167.331 204.199 170.222 205.934 169.879 205.942C165.557 206.039 148.304 195.543 135.253 184.876L129.003 179.768L129.018 184.112C129.056 195.01 134.947 209.794 143.379 220.144C154.522 233.823 175.804 244.713 191.753 244.896L197.003 244.956L197.003 241.456ZM183.003 181.854C155.636 179.823 143.003 178.583 143.003 177.931C143.003 176.979 149.619 176.276 175.881 174.439C193.88 173.179 201.709 173.078 215.881 173.922C240.551 175.39 256.851 177.127 254.461 178.034C252.322 178.845 219.193 181.646 204.003 182.299C198.778 182.524 189.328 182.324 183.003 181.854ZM195.038 178.978C193.874 178.258 193.857 177.837 194.939 176.532C196.65 174.471 194.599 174.414 191.003 176.423L188.503 177.819L192.003 179.303C195.542 180.804 197.63 180.58 195.038 178.978ZM204.503 178.818C205.169 178.154 204.855 177.343 203.562 176.389C201.069 174.549 199.408 174.535 200.928 176.366C201.856 177.484 201.623 178.127 199.8 179.474L197.503 181.172L200.503 180.493C202.153 180.12 203.953 179.366 204.503 178.818ZM177.732 179.352C177.4 179.019 176.537 178.984 175.815 179.273C175.017 179.592 175.254 179.829 176.419 179.877C177.474 179.92 178.064 179.684 177.732 179.352ZM145.23 228.775C145.45 228.113 143.451 224.691 140.787 221.171C132.271 209.92 127.428 198.38 126.349 186.769L125.715 179.956H122.221H118.727L119.369 186.223C120.794 200.138 127.923 216.826 136.752 226.919C140.396 231.085 141.466 231.779 142.989 230.963C144.001 230.422 145.009 229.437 145.23 228.775ZM70.0027 180.956C72.4104 178.548 72.538 176.634 70.4312 174.527C68.5662 172.662 64.8854 172.473 63.2027 174.156C61.404 175.955 61.7425 180.705 63.7527 181.876C66.35 183.389 67.7805 183.178 70.0027 180.956ZM332.068 181.921C334.261 180.748 334.704 176.057 332.803 174.156C331.109 172.462 327.98 172.667 325.831 174.611C323.562 176.665 323.507 178.75 325.658 181.127C327.535 183.202 329.272 183.417 332.068 181.921ZM116.484 170.284C120.615 131.708 150.798 102.32 190.253 98.4576L197.003 97.7968V94.3764C197.003 91.1171 196.833 90.9559 193.41 90.9559C186.975 90.9559 170.321 94.8887 162.134 98.3412C157.734 100.197 151.033 103.776 147.245 106.295C137.965 112.464 125.482 125.752 120.302 134.976C114.648 145.042 110.082 159.098 109.348 168.694L108.755 176.456L112.271 176.627L115.787 176.799L116.484 170.284ZM124.753 175.97C125.581 175.961 126.003 174.303 126.003 171.061C126.003 161.791 132.225 145.985 140.036 135.411C151.176 120.331 170.357 109.84 191.253 107.398C196.832 106.745 197.003 106.636 197.003 103.712V100.698L189.856 101.402C171.256 103.235 152.896 111.656 140.949 123.833C128.992 136.021 120.933 153.372 119.336 170.364L118.686 177.272L121.094 176.628C122.419 176.273 124.065 175.977 124.753 175.97ZM141.875 127.206C140.631 125.62 140.667 125.585 142.253 126.828C143.215 127.583 144.003 128.371 144.003 128.578C144.003 129.401 143.181 128.872 141.875 127.206ZM277.003 173.544C277.003 162.745 271.904 147.291 264.631 136.049C252.685 117.581 233.242 105.4 210.311 102.017C199.48 100.419 199.003 100.494 199.003 103.795C199.003 106.598 199.113 106.65 207.753 107.935C233.124 111.709 252.14 125.279 263.355 147.617C266.66 154.2 270.003 166.219 270.003 171.519C270.003 176.384 270.441 176.956 274.169 176.956C276.727 176.956 277.003 176.624 277.003 173.544ZM286.985 172.206C286.943 160.678 280.915 142.674 273.078 130.668C258.781 108.768 233.404 93.8352 206.253 91.345L199.003 90.6801V94.1744V97.6688L205.753 98.2989C213.76 99.0465 222.191 101.145 230.22 104.388C257.043 115.222 276.648 141.516 279.634 170.661L280.279 176.956H283.641C286.987 176.956 287.003 176.934 286.985 172.206ZM106.003 267.675C106.003 266.048 117.148 254.956 118.782 254.956C121.029 254.956 120.043 256.474 113.726 262.735C107.312 269.092 106.003 269.929 106.003 267.675ZM282.224 262.679C275.909 256.308 275.034 254.956 277.224 254.956C278.858 254.956 290.003 266.048 290.003 267.675C290.003 269.987 288.527 269.039 282.224 262.679ZM81.0027 220.028C81.0027 219.153 90.9646 214.956 93.0402 214.956C95.7253 214.956 93.3724 216.92 88.4137 218.817C82.2065 221.193 81.0027 221.389 81.0027 220.028ZM306.773 218.617C304.171 217.428 302.034 215.893 302.023 215.206C302.012 214.518 302.218 213.956 302.481 213.956C303.76 213.956 314.003 219.475 314.003 220.164C314.003 221.408 311.891 220.956 306.773 218.617ZM86.7527 138.75C81.98 136.696 80.0397 134.2 84.2527 135.533C88.2453 136.797 95.0027 139.869 95.0027 140.42C95.0027 141.482 91.4109 140.755 86.7527 138.75ZM301.003 140.12C301.003 138.746 312.912 134 313.593 135.102C314.347 136.322 314.604 136.149 308.119 138.776C302.246 141.154 301.003 141.389 301.003 140.12ZM112.03 95.4833C108.501 91.9233 105.865 88.7602 106.171 88.4542C106.776 87.8495 120.003 100.082 120.003 101.246C120.003 102.962 118.028 101.535 112.03 95.4833ZM276.003 101.177C276.003 100.199 288.297 87.9559 289.28 87.9559C291.27 87.9559 289.441 90.9659 284.284 96.177C279.113 101.403 276.003 103.281 276.003 101.177ZM153.556 71.2915C151.779 67.409 151.278 65.2806 151.978 64.5808C152.541 64.0171 153.003 63.815 153.003 64.1315C153.003 64.4481 154.114 67.22 155.472 70.2913C156.831 73.3626 157.541 76.1234 157.05 76.4264C156.56 76.7294 154.988 74.4187 153.556 71.2915ZM238.003 76.0804C238.003 74.1615 243.042 63.9559 243.99 63.9559C245.509 63.9559 245.252 65.1694 242.429 71.3351C240.158 76.297 238.003 78.6071 238.003 76.0804ZM196.71 74.261C196.456 73.2682 196.199 65.9309 196.139 57.9559C196.032 43.6835 196.786 39.3391 198.987 41.5399C200.517 43.0703 199.907 75.157 198.338 75.6787C197.697 75.8918 196.964 75.2538 196.71 74.261Z" fill="#9046A4"/>
</g>
<defs>
<clipPath id="clip0_51_440">
<rect width="278.003" height="271.898" fill="white" transform="translate(59 41)"/>
</clipPath>
</defs>
</svg>
