<svg width="368" height="372" viewBox="0 0 368 372" fill="none" xmlns="http://www.w3.org/2000/svg">
<g clip-path="url(#clip0_51_686)">
<path d="M198.374 313.058C198.268 310.82 198.224 288.301 198.313 281.475C198.394 275.249 198.713 273.725 199.935 273.725C201.254 273.725 201.42 276.336 201.185 293.392C200.983 308.04 200.595 313.166 199.664 313.475C198.977 313.704 198.396 313.516 198.374 313.058ZM243.508 290.475C243.037 289.237 241.923 286.482 241.033 284.352C239.09 279.704 239.091 279.72 240.664 279.742C241.89 279.757 246.432 289.016 246.42 291.475C246.409 293.557 244.422 292.875 243.508 290.475ZM152.414 291.29C152.414 291.052 153.598 288.127 155.045 284.79C157.483 279.169 159.414 277.032 159.414 279.955C159.414 282.549 154.983 291.725 153.73 291.725C153.006 291.725 152.414 291.529 152.414 291.29ZM199.123 268.408C198.757 267.453 195.888 266.845 189.755 266.421C178.428 265.638 169.293 262.982 157.441 257.026C137.276 246.893 122.46 231.237 114.292 211.429C111.302 204.178 107.414 187.393 107.414 181.736V178.561L91.9111 178.893C78.0108 179.19 76.3479 179.411 75.8256 181.031C75.5051 182.025 73.7024 183.573 71.8192 184.471C67.4296 186.564 63.6995 185.377 61.1956 181.09C56.2851 172.682 67.6536 165.487 74.4141 172.724L77.2165 175.725H92.8743C101.739 175.725 108.294 175.339 107.983 174.837C106.887 173.063 109.463 158.297 112.309 150.043C123.876 116.485 155.405 91.8794 191.566 88.191L198.218 87.5124L198.028 65.0849C197.923 52.7498 198.142 42.1648 198.514 41.5628C198.886 40.9608 199.758 40.8191 200.452 41.248C201.435 41.8554 201.589 47.0429 201.149 64.7262L200.584 87.4248L209.863 88.5651C225.054 90.4319 240.292 96.0616 252.516 104.323C273.087 118.226 289.18 144.855 291.983 169.627L292.672 175.725H308.108H323.543L326.068 172.725C332.244 165.384 343.731 172.629 339.251 181.04C337.604 184.132 335.328 185.656 332.299 185.693C329.482 185.727 324.414 182.327 324.414 180.402C324.413 179.56 319.898 179.146 308.559 178.949L292.704 178.674L292.07 184.739C289.864 205.85 279.332 227.153 264.02 241.477C248.08 256.388 229.787 264.799 209.956 266.336C204.875 266.729 201.497 267.479 200.782 268.371C199.829 269.56 199.567 269.565 199.123 268.408ZM198.413 260.975L198.412 257.225L193.663 256.945C177.421 255.989 160.597 249.697 148.976 240.232C145.933 237.753 143.127 235.725 142.743 235.725C142.358 235.725 141.003 236.702 139.733 237.895C136.609 240.83 135.572 239.476 138.614 236.434L141.026 234.022L138.107 230.623C126.688 217.33 120.061 202.263 117.918 184.725C117.247 179.23 117.243 179.225 113.736 179.225H110.226L110.916 186.593C113.853 217.926 133.536 244.436 163.332 257.19C172.901 261.285 184.406 263.909 195.664 264.565C198.204 264.712 198.414 264.438 198.413 260.975ZM220.414 262.084C246.117 256.876 270.568 237.306 281.503 213.188C285.237 204.955 288.131 194.369 288.966 185.895L289.636 179.1L286.084 179.515C282.582 179.924 282.523 180.008 281.847 185.577C279.982 200.939 273.654 215.325 263.273 227.799C258.407 233.646 258.29 233.93 259.981 235.799C262.289 238.348 260.997 239.562 258.44 237.248C256.511 235.502 256.303 235.566 251.184 239.473C239.333 248.52 222.004 255.456 208.749 256.459C201.949 256.973 201.414 257.179 201.414 259.287C201.414 260.538 201.116 262.339 200.75 263.29C200.148 264.861 200.674 264.955 206.5 264.312C210.028 263.922 216.289 262.919 220.414 262.084ZM198.414 250.856C198.414 248.006 198.368 247.984 191.164 247.508C185.007 247.1 174.101 244.061 165.244 240.284C164.039 239.77 163.444 240.155 163.111 241.663C162.691 243.56 162.66 243.546 162.781 241.505C162.88 239.838 161.266 238.009 156.554 234.447C150.445 229.828 150.1 229.7 147.804 231.204C144.863 233.132 144.854 233.427 147.664 235.82C159.314 245.741 178.939 253.43 193.164 253.645C198.296 253.723 198.414 253.66 198.414 250.856ZM218.914 251.784C251.318 243.981 275.723 216.711 279.09 184.543C279.633 179.355 279.521 178.893 277.799 179.217C276.762 179.412 275.191 179.606 274.307 179.648C273.1 179.705 272.547 181.16 272.09 185.475C271.436 191.656 267.955 202.783 264.648 209.267C263.524 211.469 260.058 216.568 256.944 220.597C251.517 227.621 251.355 228.002 253.01 229.83C253.959 230.879 254.51 231.962 254.235 232.237C253.96 232.512 252.933 231.85 251.953 230.767C250.193 228.823 250.092 228.853 244.042 233.143C240.672 235.533 235.1 238.899 231.661 240.622C224.857 244.032 211.136 247.706 205.164 247.718C201.666 247.725 201.414 247.926 201.414 250.725C201.414 253.638 201.551 253.724 206.164 253.718C208.777 253.714 214.514 252.844 218.914 251.784ZM198.414 240.641C198.414 235.355 200.783 235.813 201.233 241.187L201.551 244.995L207.232 244.386C219.993 243.019 233.388 237.765 242.52 230.547L247.617 226.517L243.766 222.371L239.914 218.225L244.246 222.225L248.577 226.225L251.582 222.725C257.061 216.341 262.076 208.306 264.691 201.725C267.259 195.258 270.099 182.076 269.131 181.108C268.852 180.829 267.114 181.897 265.269 183.48C258.796 189.034 244.84 198.603 237.301 202.657C227.82 207.755 218.213 211.077 208.164 212.731L200.414 214.007V218.925C200.414 221.949 200.029 223.605 199.414 223.225C198.864 222.885 198.414 220.659 198.414 218.279V213.951L191.664 212.762C173.913 209.636 157.39 201.385 138.217 186.073C134.534 183.131 131.213 180.725 130.838 180.725C129.427 180.725 131.655 193.328 134.391 200.825C138.039 210.821 142.636 217.68 151.276 226.021C162.113 236.483 180.267 244.27 194.664 244.631C198.4 244.724 198.414 244.71 198.414 240.641ZM155.646 222.725C156.908 220.704 158.414 220.051 158.414 221.525C158.414 222.564 156.247 224.725 155.206 224.725C154.761 224.725 154.959 223.825 155.646 222.725ZM145.845 229.801C147.519 227.951 147.385 227.615 142.335 221.051C133.763 209.91 127.49 193.881 127.431 182.975C127.416 179.966 127.168 179.725 124.105 179.725H120.795L121.601 187.245C122.553 196.129 125.294 204.765 130.005 213.725C133.456 220.287 141.929 231.725 143.34 231.725C143.76 231.725 144.888 230.859 145.845 229.801ZM176.89 204.569C168.298 197.026 164.335 188.117 164.308 176.292C164.293 169.175 164.662 167.607 167.904 161.047C170.224 156.353 172.932 152.599 175.466 150.563C177.637 148.818 179.223 147.2 178.99 146.967C178.757 146.734 175.829 147.772 172.484 149.274C167.27 151.614 166.58 152.222 167.657 153.53C168.747 154.853 168.549 154.965 166.171 154.373C162.832 153.542 159.698 155.396 143.088 168.031L131.262 177.027L133.588 179.343C138.889 184.621 157.651 197.154 167.888 202.256C173.923 205.263 179.226 207.725 179.673 207.725C180.119 207.725 178.867 206.305 176.89 204.569ZM232.503 202.229C236.126 200.449 241.751 197.295 245.003 195.22C253.793 189.61 269.558 177.536 268.923 176.9C267.757 175.734 253.472 165.5 243.553 158.725C233.956 152.17 233.095 151.779 231.884 153.434C231.166 154.417 230.252 154.895 229.853 154.497C229.455 154.099 229.665 153.127 230.32 152.338C231.711 150.662 231.528 150.52 224.363 147.732L218.914 145.611L223.976 150.081C227.578 153.261 230.03 156.667 232.476 161.887C235.513 168.368 235.91 170.158 235.879 177.225C235.836 187.112 232.662 194.799 225.615 202.083C220.179 207.702 221.313 207.726 232.503 202.229ZM208.58 199.184C224.408 193.791 229.387 171.339 217.261 160.037C208.761 152.113 192.872 151.601 183.941 158.963C176.262 165.293 173.642 176.048 177.373 185.933C181.92 197.983 195.358 203.689 208.58 199.184ZM194.869 182.27C193.519 180.92 192.414 178.65 192.414 177.225C192.414 174.157 196.491 169.725 199.313 169.725C202.449 169.725 206.664 173.944 206.664 177.083C206.664 180.522 202.831 184.725 199.694 184.725C198.39 184.725 196.219 183.62 194.869 182.27ZM71.2487 181.128C74.4788 178.865 73.8593 174.592 70.1113 173.281C66.4765 172.01 64.0219 173.512 63.5783 177.276C63.358 179.145 63.8542 180.573 65.0194 181.425C67.3354 183.119 68.4846 183.064 71.2487 181.128ZM335.878 180.765C338.346 178.037 337.213 173.963 333.744 173.092C330.266 172.219 327.992 173.762 327.578 177.276C326.996 182.218 332.477 184.522 335.878 180.765ZM117.876 170.474C119.72 155.559 122.873 146.511 130.151 135.239C135.548 126.882 145.559 116.786 154.096 111.091C165.403 103.549 182.782 97.7243 193.979 97.7243C198.381 97.7243 198.414 97.6979 198.414 94.2243C198.414 90.1715 197.851 90.0606 185.914 91.7613C153.058 96.4424 124.545 120.43 114.637 151.724C112.338 158.988 110.414 168.637 110.414 172.908C110.414 175.445 110.752 175.724 113.82 175.724C117.18 175.724 117.235 175.653 117.876 170.474ZM115.414 155.341C115.414 155.13 116.314 154.722 117.414 154.435C118.514 154.147 119.414 154.319 119.414 154.818C119.414 155.316 118.514 155.724 117.414 155.724C116.314 155.724 115.414 155.552 115.414 155.341ZM137.434 120.249C136.645 119.298 136.57 118.724 137.233 118.724C138.441 118.724 139.85 120.622 139.157 121.315C138.905 121.567 138.13 121.087 137.434 120.249ZM127.244 172.18C129.458 139.299 158.273 110.184 191.686 107.063C198.352 106.441 198.414 106.407 198.414 103.442V100.448L191.664 101.122C177.147 102.57 162.548 108.078 151.196 116.392C144.955 120.963 135.73 131.159 131.549 138.109C126.911 145.817 122.367 159.526 121.524 168.353L120.819 175.724H123.912C126.743 175.724 127.026 175.424 127.244 172.18ZM125.924 155.708C126.27 155.149 126.971 154.951 127.483 155.267C128.87 156.124 128.612 156.724 126.855 156.724C125.998 156.724 125.579 156.267 125.924 155.708ZM144.414 127.724C143.621 127.234 143.197 126.608 143.472 126.333C143.747 126.058 144.621 126.234 145.414 126.724C146.207 127.215 146.631 127.841 146.356 128.116C146.081 128.391 145.207 128.215 144.414 127.724ZM278.918 169.474C277.833 159.689 272.772 145.671 267.373 137.497C258.14 123.52 244.132 111.793 230.5 106.629C224.366 104.306 208.509 100.758 204.164 100.737C201.802 100.726 201.414 101.128 201.414 103.586C201.414 106.376 201.579 106.465 207.968 107.12C225.748 108.941 243.512 118.442 255.698 132.648C264.191 142.549 272.414 161.875 272.414 171.934C272.414 175.619 272.514 175.724 276.012 175.724H279.611L278.918 169.474ZM252.643 126.538C253.141 125.043 255.414 124.22 255.414 125.534C255.414 126.071 254.702 126.784 253.831 127.118C252.857 127.492 252.399 127.268 252.643 126.538ZM235.162 112.185C234.855 110.581 235.089 109.782 235.795 110.018C237.035 110.43 237.581 114.724 236.394 114.724C235.983 114.724 235.429 113.582 235.162 112.185ZM289.398 172.974C289.368 167.893 285.585 152.287 282.669 145.224C275.481 127.816 260.75 111.329 244.414 102.408C232.317 95.8018 221.598 92.5665 207.664 91.3159L201.414 90.755V94.2397C201.414 97.6288 201.522 97.7243 205.349 97.7243C215.187 97.7243 231.339 102.812 242.772 109.514C250.628 114.118 263.388 126.41 268.851 134.637C275.145 144.116 280.052 156.674 281.497 167.002L282.717 175.724H286.066C289.056 175.724 289.412 175.43 289.398 172.974ZM259.914 118.724C260.254 118.174 260.982 117.724 261.532 117.724C262.082 117.724 262.254 118.174 261.914 118.724C261.574 119.274 260.846 119.724 260.296 119.724C259.746 119.724 259.574 119.274 259.914 118.724ZM157.414 154.784C178.748 140.971 201.157 137.279 221.914 144.156C231.159 147.218 238.405 151.558 255.975 164.554C262.912 169.686 268.872 173.6 269.218 173.253C270.631 171.841 266.27 155.812 262.273 147.724C258.919 140.938 256.343 137.507 249.493 130.706C237.659 118.957 223.315 111.913 207.664 110.164L201.414 109.466V114.595C201.414 118.488 201.052 119.724 199.914 119.724C198.781 119.724 198.414 118.502 198.414 114.724C198.414 108.868 198.278 108.827 186.252 111.128C165.341 115.129 146.073 129.435 137.36 147.428C134.131 154.098 130.414 167.218 130.414 171.95C130.414 174.83 130.502 174.787 140.664 166.924C146.302 162.562 153.839 157.099 157.414 154.784ZM235.914 146.724C236.254 146.174 236.731 145.724 236.973 145.724C237.216 145.724 237.414 146.174 237.414 146.724C237.414 147.274 236.938 147.724 236.355 147.724C235.773 147.724 235.574 147.274 235.914 146.724ZM199.159 137.474C198.902 136.787 199.047 135.324 199.482 134.224C200.127 132.596 200.287 132.828 200.344 135.474C200.417 138.854 199.964 139.619 199.159 137.474ZM246.292 134.526C246.739 133.317 247.669 132.139 248.359 131.909C249.164 131.641 248.999 132.428 247.898 134.108C245.806 137.302 245.207 137.457 246.292 134.526ZM107.414 267.445C107.414 266.742 110.322 263.285 113.875 259.763C118.617 255.063 120.489 253.755 120.908 254.849C121.273 255.8 119.242 258.577 115.287 262.531C109.045 268.773 107.414 269.791 107.414 267.445ZM283.621 262.555C279.211 258.25 277.643 256.095 278.382 255.357C279.12 254.619 281.363 256.214 285.877 260.687C291.525 266.285 292.98 268.755 290.605 268.712C290.225 268.704 287.082 265.935 283.621 262.555ZM309.164 218.918C306.002 217.542 303.414 215.81 303.414 215.07C303.414 214.33 303.583 213.724 303.79 213.724C304.968 213.724 315.33 218.779 315.839 219.602C317.069 221.593 314.771 221.358 309.164 218.918ZM83.616 219.618C84.1728 217.948 95.2735 213.688 96.0012 214.865C96.8138 216.18 96.7421 216.231 90.6271 218.641C84.6525 220.995 83.0842 221.214 83.616 219.618ZM89.9715 139.345C86.7031 138.093 83.8531 136.541 83.6382 135.897C83.1055 134.299 83.809 134.396 90.5614 136.858C93.8005 138.039 96.4141 139.602 96.4141 140.358C96.4141 141.11 96.3014 141.701 96.1643 141.673C96.0267 141.643 93.2399 140.597 89.9715 139.345ZM302.414 139.863C302.414 138.927 312.709 134.724 315.003 134.724C318.032 134.724 316.153 136.336 310.625 138.479C304.408 140.89 302.414 141.226 302.414 139.863ZM113.664 95.9232C107.351 89.3517 106.364 87.7243 108.693 87.7243C110.32 87.7243 122.414 99.8676 122.414 101.501C122.414 103.965 119.772 102.28 113.664 95.9232ZM277.414 100.956C277.414 100.453 280.366 97.2068 283.974 93.7425C288.375 89.5161 290.865 87.7748 291.54 88.4501C292.215 89.1255 290.523 91.3926 286.397 95.3405C280.502 100.982 277.414 102.912 277.414 100.956ZM155.483 71.872C154.233 69.2033 153.41 66.1658 153.653 65.122C153.978 63.727 154.797 64.6812 156.745 68.7243C158.202 71.7494 159.399 74.7868 159.404 75.4743C159.427 78.1374 157.657 76.5129 155.483 71.872ZM239.414 76.2903C239.414 74.5801 244.896 63.7183 245.635 63.9646C246.973 64.4107 246.836 65.1686 244.312 71.2582C243.066 74.2646 241.454 76.7244 240.73 76.7244C240.006 76.7244 239.414 76.5289 239.414 76.2903Z" fill="#9046A4"/>
</g>
<circle cx="135.5" cy="27.5" r="1.5" fill="#9046A4"/>
<path d="M135 27.5C125.4 27.5 113.667 27.5 104 27.5L60 87V123.5L31 140.243" stroke="#9046A4"/>
<path d="M31 141C31 141.828 30.3284 142.5 29.5 142.5C28.6716 142.5 28 141.828 28 141C28 140.172 28.6716 139.5 29.5 139.5C30.3284 139.5 31 140.172 31 141Z" fill="#9046A4"/>
<circle cx="132.5" cy="24.5" r="1.5" fill="#9046A4"/>
<path d="M132 24.5C122.4 24.5 110.667 24.5 101 24.5L57 84V120.5L28 137.243" stroke="#9046A4"/>
<path d="M28 138C28 138.828 27.3284 139.5 26.5 139.5C25.6716 139.5 25 138.828 25 138C25 137.172 25.6716 136.5 26.5 136.5C27.3284 136.5 28 137.172 28 138Z" fill="#9046A4"/>
<circle cx="129.5" cy="21.5" r="1.5" fill="#9046A4"/>
<path d="M129 21.5C119.4 21.5 107.667 21.5 98 21.5L54 81V117.5L25 134.243" stroke="#9046A4"/>
<path d="M25 135C25 135.828 24.3284 136.5 23.5 136.5C22.6716 136.5 22 135.828 22 135C22 134.172 22.6716 133.5 23.5 133.5C24.3284 133.5 25 134.172 25 135Z" fill="#9046A4"/>
<path d="M7.5 239.5H66L122.5 296V365.5" stroke="#9046A4"/>
<circle cx="7.5" cy="239.5" r="1.5" fill="#9046A4"/>
<circle cx="122.5" cy="365.5" r="1.5" fill="#9046A4"/>
<path d="M4.5 242.5H63L119.5 299V368.5" stroke="#9046A4"/>
<circle cx="4.5" cy="242.5" r="1.5" fill="#9046A4"/>
<circle cx="119.5" cy="368.5" r="1.5" fill="#9046A4"/>
<path d="M2 245H60.5L117 301.5V371" stroke="#9046A4"/>
<circle cx="1.5" cy="244.5" r="1.5" fill="#9046A4"/>
<circle cx="116.5" cy="370.5" r="1.5" fill="#9046A4"/>
<path d="M262 329.5C262 330.328 261.328 331 260.5 331C259.672 331 259 330.328 259 329.5C259 328.672 259.672 328 260.5 328C261.328 328 262 328.672 262 329.5Z" fill="#9046A4"/>
<path d="M260.5 330H304L337 297V253.5L356 234.5" stroke="#9046A4"/>
<path d="M358 234.5C358 235.328 357.328 236 356.5 236C355.672 236 355 235.328 355 234.5C355 233.672 355.672 233 356.5 233C357.328 233 358 233.672 358 234.5Z" fill="#9046A4"/>
<path d="M265 332.5C265 333.328 264.328 334 263.5 334C262.672 334 262 333.328 262 332.5C262 331.672 262.672 331 263.5 331C264.328 331 265 331.672 265 332.5Z" fill="#9046A4"/>
<path d="M263.5 333H307L340 300V256.5L359 237.5" stroke="#9046A4"/>
<path d="M361 237.5C361 238.328 360.328 239 359.5 239C358.672 239 358 238.328 358 237.5C358 236.672 358.672 236 359.5 236C360.328 236 361 236.672 361 237.5Z" fill="#9046A4"/>
<path d="M268 335.5C268 336.328 267.328 337 266.5 337C265.672 337 265 336.328 265 335.5C265 334.672 265.672 334 266.5 334C267.328 334 268 334.672 268 335.5Z" fill="#9046A4"/>
<path d="M266.5 336H310L343 303V259.5L362 240.5" stroke="#9046A4"/>
<path d="M364 240.5C364 241.328 363.328 242 362.5 242C361.672 242 361 241.328 361 240.5C361 239.672 361.672 239 362.5 239C363.328 239 364 239.672 364 240.5Z" fill="#9046A4"/>
<path d="M254.5 6.5H284.5L298.5 20.5V32L331.5 65L348.5 82V108" stroke="#9046A4"/>
<circle cx="348.5" cy="108.5" r="1.5" fill="#9046A4"/>
<circle cx="253.5" cy="6.5" r="1.5" fill="#9046A4"/>
<path d="M257.5 4.5H287.5L301.5 18.5V30L334.5 63L351.5 80V106" stroke="#9046A4"/>
<circle cx="351.5" cy="106.5" r="1.5" fill="#9046A4"/>
<circle cx="256.5" cy="4.5" r="1.5" fill="#9046A4"/>
<path d="M260 2H290L304 16V27.5L337 60.5L354 77.5V103.5" stroke="#9046A4"/>
<path d="M356 104.5C356 105.328 355.328 106 354.5 106C353.672 106 353 105.328 353 104.5C353 103.672 353.672 103 354.5 103C355.328 103 356 103.672 356 104.5Z" fill="#9046A4"/>
<circle cx="259.5" cy="1.5" r="1.5" fill="#9046A4"/>
<defs>
<clipPath id="clip0_51_686">
<rect width="280.262" height="272.573" fill="white" transform="translate(60 41)"/>
</clipPath>
</defs>
</svg>
