<svg width="368" height="372" viewBox="0 0 368 372" fill="none" xmlns="http://www.w3.org/2000/svg">
<circle cx="135.5" cy="27.5" r="1.5" fill="#9046A4"/>
<path d="M135 27.5C125.4 27.5 113.667 27.5 104 27.5L60 87V123.5L31 140.243" stroke="#9046A4"/>
<path d="M31 141C31 141.828 30.3284 142.5 29.5 142.5C28.6716 142.5 28 141.828 28 141C28 140.172 28.6716 139.5 29.5 139.5C30.3284 139.5 31 140.172 31 141Z" fill="#9046A4"/>
<circle cx="132.5" cy="24.5" r="1.5" fill="#9046A4"/>
<path d="M132 24.5C122.4 24.5 110.667 24.5 101 24.5L57 84V120.5L28 137.243" stroke="#9046A4"/>
<path d="M28 138C28 138.828 27.3284 139.5 26.5 139.5C25.6716 139.5 25 138.828 25 138C25 137.172 25.6716 136.5 26.5 136.5C27.3284 136.5 28 137.172 28 138Z" fill="#9046A4"/>
<circle cx="129.5" cy="21.5" r="1.5" fill="#9046A4"/>
<path d="M129 21.5C119.4 21.5 107.667 21.5 98 21.5L54 81V117.5L25 134.243" stroke="#9046A4"/>
<path d="M25 135C25 135.828 24.3284 136.5 23.5 136.5C22.6716 136.5 22 135.828 22 135C22 134.172 22.6716 133.5 23.5 133.5C24.3284 133.5 25 134.172 25 135Z" fill="#9046A4"/>
<path d="M7.5 239.5H66L122.5 296V365.5" stroke="#9046A4"/>
<circle cx="7.5" cy="239.5" r="1.5" fill="#9046A4"/>
<circle cx="122.5" cy="365.5" r="1.5" fill="#9046A4"/>
<path d="M4.5 242.5H63L119.5 299V368.5" stroke="#9046A4"/>
<circle cx="4.5" cy="242.5" r="1.5" fill="#9046A4"/>
<circle cx="119.5" cy="368.5" r="1.5" fill="#9046A4"/>
<path d="M2 245H60.5L117 301.5V371" stroke="#9046A4"/>
<circle cx="1.5" cy="244.5" r="1.5" fill="#9046A4"/>
<circle cx="116.5" cy="370.5" r="1.5" fill="#9046A4"/>
<path d="M262 329.5C262 330.328 261.328 331 260.5 331C259.672 331 259 330.328 259 329.5C259 328.672 259.672 328 260.5 328C261.328 328 262 328.672 262 329.5Z" fill="#9046A4"/>
<path d="M260.5 330H304L337 297V253.5L356 234.5" stroke="#9046A4"/>
<path d="M358 234.5C358 235.328 357.328 236 356.5 236C355.672 236 355 235.328 355 234.5C355 233.672 355.672 233 356.5 233C357.328 233 358 233.672 358 234.5Z" fill="#9046A4"/>
<path d="M265 332.5C265 333.328 264.328 334 263.5 334C262.672 334 262 333.328 262 332.5C262 331.672 262.672 331 263.5 331C264.328 331 265 331.672 265 332.5Z" fill="#9046A4"/>
<path d="M263.5 333H307L340 300V256.5L359 237.5" stroke="#9046A4"/>
<path d="M361 237.5C361 238.328 360.328 239 359.5 239C358.672 239 358 238.328 358 237.5C358 236.672 358.672 236 359.5 236C360.328 236 361 236.672 361 237.5Z" fill="#9046A4"/>
<path d="M268 335.5C268 336.328 267.328 337 266.5 337C265.672 337 265 336.328 265 335.5C265 334.672 265.672 334 266.5 334C267.328 334 268 334.672 268 335.5Z" fill="#9046A4"/>
<path d="M266.5 336H310L343 303V259.5L362 240.5" stroke="#9046A4"/>
<path d="M364 240.5C364 241.328 363.328 242 362.5 242C361.672 242 361 241.328 361 240.5C361 239.672 361.672 239 362.5 239C363.328 239 364 239.672 364 240.5Z" fill="#9046A4"/>
<path d="M254.5 6.5H284.5L298.5 20.5V32L331.5 65L348.5 82V108" stroke="#9046A4"/>
<circle cx="348.5" cy="108.5" r="1.5" fill="#9046A4"/>
<circle cx="253.5" cy="6.5" r="1.5" fill="#9046A4"/>
<path d="M257.5 4.5H287.5L301.5 18.5V30L334.5 63L351.5 80V106" stroke="#9046A4"/>
<circle cx="351.5" cy="106.5" r="1.5" fill="#9046A4"/>
<circle cx="256.5" cy="4.5" r="1.5" fill="#9046A4"/>
<path d="M260 2H290L304 16V27.5L337 60.5L354 77.5V103.5" stroke="#9046A4"/>
<path d="M356 104.5C356 105.328 355.328 106 354.5 106C353.672 106 353 105.328 353 104.5C353 103.672 353.672 103 354.5 103C355.328 103 356 103.672 356 104.5Z" fill="#9046A4"/>
<circle cx="259.5" cy="1.5" r="1.5" fill="#9046A4"/>
<g clip-path="url(#clip0_51_641)">
<path d="M198.6 312.921C197.597 311.299 197.832 274.528 198.851 273.509C200.771 271.588 201.214 275.387 201.174 293.471C201.137 310.348 200.409 315.849 198.6 312.921ZM153 291.393C153 289.224 157.176 279.76 158.133 279.76C159.43 279.76 159.212 281.027 156.861 287.171C154.849 292.429 153 294.451 153 291.393ZM242.045 287.51C240.823 284.622 239.59 281.697 239.305 281.01C239.019 280.322 239.426 279.76 240.209 279.76C241.541 279.76 246 288.821 246 291.529C246 294.331 244.125 292.425 242.045 287.51ZM199 268.858C199 268.362 196.188 267.643 192.75 267.261C169.497 264.674 150.63 256.281 135.61 241.844C120.213 227.043 110.541 207.256 108.376 186.125L107.724 179.76H91.8619C81.8008 179.76 76 180.131 76 180.775C76 182.138 69.9604 185.751 67.6731 185.756C64.9175 185.76 60 180.337 60 177.291C60 175.84 61.0965 173.572 62.4546 172.214C65.9351 168.734 70.3451 168.951 74.1865 172.792L77.219 175.825L92.6095 176.137L108 176.449V173.735C108 172.243 108.695 167.026 109.544 162.141C114.682 132.593 137.088 105.85 166.379 94.3049C172.759 91.7902 183.163 89.505 194.003 88.2381L198.505 87.7118L198.503 64.574C198.501 46.9534 198.798 41.3358 199.75 41.0149C200.727 40.6857 201 45.7398 201 64.1155V87.6376L205.75 88.242C232.476 91.643 249.897 99.6417 265.845 115.834C280.442 130.655 292 155.01 292 170.948V175.76H307.423H322.846L325.846 172.76C329.178 169.428 331.711 169.042 335.928 171.223C341.039 173.866 341.493 179.326 336.923 183.171C332.863 186.587 329.551 186.464 325.846 182.76L322.846 179.76H307.567H292.289L291.724 187.01C289.597 214.345 269.865 242.723 243.417 256.482C233.45 261.668 219.939 265.661 209.659 266.461C204.474 266.864 201.643 267.526 201.302 268.415C200.724 269.922 199 270.254 199 268.858ZM198 261.305C198 257.519 198.515 257.747 186.5 256.207C174.247 254.636 159.572 248.384 148.704 240.105L142.907 235.69L139.954 237.793C136.508 240.246 136.074 239.375 139.124 236.128L141.247 233.868L136.74 228.564C130.522 221.245 126.508 214.64 123.556 206.864C120.83 199.685 118 187.373 118 182.694C118 180.007 117.705 179.76 114.5 179.76C111.216 179.76 111 179.961 111.008 183.01C111.038 196.313 117.498 214.773 127.017 228.76C140.604 248.726 168.423 263.35 195.25 264.629C197.745 264.748 198 264.439 198 261.305ZM220.5 262.049C257.389 253.948 284.941 223.529 288.893 186.54L289.618 179.76H285.954H282.29L281.706 186.724C280.557 200.437 273.769 215.685 263.299 228.078C258.108 234.221 258.101 234.239 260.048 236.311C262.914 239.362 262.429 240.511 259.455 237.718C257.66 236.031 256.521 235.611 255.591 236.293C235.548 250.974 228.439 253.913 204.75 257.312C201.221 257.819 201 258.06 201 261.403V264.956L207.25 264.271C210.687 263.894 216.65 262.894 220.5 262.049ZM198 250.939C198 248.247 197.768 248.107 192.959 247.887C181.153 247.349 165.915 241.589 155.293 233.651C152.429 231.511 149.686 229.76 149.198 229.76C148.71 229.76 147.523 230.63 146.561 231.693C144.868 233.563 145.015 233.775 151.156 238.296C158.624 243.794 161.053 245.112 169.886 248.456C178.141 251.582 187.063 253.577 193.25 253.68C197.813 253.757 198 253.65 198 250.939ZM224.518 250.286C233.952 247.119 242.818 242.681 249.14 237.961C254.478 233.976 254.693 233.58 252.5 231.76C251.675 231.075 251.015 230.008 251.033 229.387C251.052 228.767 251.967 229.342 253.068 230.664L255.07 233.067L258.122 230.164C262.622 225.884 271.543 212.074 273.888 205.76C276.608 198.435 278.967 188.138 278.985 183.51C279 180.024 278.793 179.76 276.061 179.76C273.312 179.76 273.081 180.066 272.481 184.51C270.696 197.728 266.407 208.473 258.944 218.418C246.638 234.819 227.826 245.658 208.321 247.586C201.718 248.238 201.489 248.352 201.169 251.164L200.837 254.069L208.893 253.448C213.324 253.106 220.355 251.683 224.518 250.286ZM198 241.26C198 238.815 198.452 237.76 199.5 237.76C200.548 237.76 201 238.815 201 241.26C201 244.722 201.046 244.76 205.34 244.76C215.755 244.76 232.12 238.564 242.809 230.574C247.463 227.096 247.956 226.4 246.809 224.933C245.651 223.453 245.692 223.41 247.163 224.56C248.585 225.672 249.212 225.454 251.491 223.06C260.086 214.03 267.473 198.782 268.869 187.187C269.294 183.652 269.464 180.76 269.245 180.76C269.027 180.76 266.295 182.723 263.174 185.122C248.989 196.027 230.211 206.167 218.604 209.191C210.6 211.275 186.199 211.426 179.946 209.428C166.317 205.075 153.781 198.095 138.964 186.61C134.813 183.392 131.181 180.76 130.892 180.76C129.944 180.76 131.713 192.377 133.498 197.876C139.176 215.365 151.078 229.317 167 237.145C176.641 241.886 186.049 244.536 193.75 244.68C197.955 244.759 198 244.723 198 241.26ZM154 224C154 222.907 158.085 220.512 158.774 221.201C159.093 221.52 158.487 222.436 157.427 223.238C155.281 224.862 154 225.147 154 224ZM145.114 224.322C140.799 219.786 134.36 209.33 131.929 202.906C130.089 198.045 127.142 184.863 127.035 181.01C127.016 180.283 125.689 179.76 123.871 179.76H120.742L121.417 185.725C123.048 200.149 130.054 216.783 138.623 226.578L143.253 231.871L145.641 229.628L148.028 227.384L145.114 224.322ZM184.262 206.605C178.234 203.681 172.742 197.972 169.391 191.148C166.938 186.151 166.515 184.125 166.598 177.76C166.724 168.06 169.406 161.761 176.303 154.969C182.406 148.958 186.165 147.217 197.287 145.249C208.319 143.298 212.203 143.391 221.02 145.82C230.435 148.414 237.029 152.028 254.06 163.93C261.517 169.142 268.128 173.721 268.75 174.105C271.255 175.654 267.23 158.042 263.01 148.99C253.126 127.79 231.93 113.346 206.25 110.311L201 109.691V114.725C201 118.534 200.635 119.76 199.5 119.76C198.367 119.76 198 118.537 198 114.76C198 108.974 198.515 109.135 186.978 111.323C175.901 113.425 169.493 115.95 160.793 121.644C144.405 132.368 133.248 150.12 131.369 168.459L130.705 174.943L141.743 166.586C157.987 154.288 179.611 143.76 188.626 143.76C192.793 143.76 190.422 145.226 182.39 147.616C173.478 150.268 166.538 153.343 166.375 154.711C166.095 157.055 165.932 157.2 165.082 155.858C164.353 154.707 163.326 154.958 159.347 157.259C153.186 160.823 132 176.622 132 177.653C132 178.589 147.165 189.99 155.422 195.261C162.878 200.02 172.744 204.583 180.5 206.857C188.404 209.176 189.422 209.107 184.262 206.605ZM226.34 204.043C234.998 200.525 241.511 197.055 250 191.435C257.685 186.348 269 177.923 269 177.288C269 176.325 244.748 160.736 239.677 158.44C236.475 156.99 234.12 155.375 234.444 154.851C235.505 153.133 233.022 152.595 231.421 154.196C229.724 155.893 227 156.306 227 154.867C227 154.376 227.75 153.686 228.667 153.334C231.165 152.375 229.318 151.197 221.645 148.853C212.054 145.924 209.216 146.157 215.5 149.358C222.47 152.908 227.387 158.003 230.467 164.865C237.342 180.184 230.813 198.506 215.752 206.161L212.5 207.814L216.439 207.14C218.605 206.77 223.061 205.376 226.34 204.043ZM208.768 196.212C213.71 194.147 216.876 191.101 219.11 186.26C222.863 178.128 220.537 166.751 214.158 162.035C203.386 154.071 185.854 157.259 180.943 168.076C176.09 178.767 180.137 190.635 190.5 196.098C194.379 198.143 204.004 198.203 208.768 196.212ZM195.174 181.445C193.978 180.172 193 178.18 193 177.018C193 174.867 197.266 170.76 199.5 170.76C202.11 170.76 206 174.899 206 177.677C206 183.393 199.221 185.752 195.174 181.445ZM73.0915 179.042C74.1008 176.313 71.5593 172.76 68.5983 172.76C65.4396 172.76 62.6398 176.049 63.4978 178.753C64.8497 183.012 71.548 183.214 73.0915 179.042ZM335.04 180.928C339.741 177.122 334.532 170.799 329.093 173.71C325.887 175.426 326.46 180.683 330 182.031C332.362 182.93 332.644 182.868 335.04 180.928ZM118 172.216C118 163.072 122.912 147.567 129.145 137.033C133.798 129.172 145.971 116.597 154.272 111.079C165.156 103.843 183.511 97.7597 194.458 97.7597C197.858 97.7597 198 97.6153 198 94.1615V90.5633L191.75 91.2338C183.471 92.1219 168.824 95.9781 161.609 99.1693C142.14 107.779 124.62 126.157 116.97 145.993C113.525 154.926 111 165.979 111 172.124V176.358L114.5 175.949C117.716 175.574 118 175.271 118 172.216ZM137 119.76C137 119.21 137.45 118.76 138 118.76C138.55 118.76 139 119.21 139 119.76C139 120.31 138.55 120.76 138 120.76C137.45 120.76 137 120.31 137 119.76ZM127.444 171.361C129.543 155.184 135.798 141.391 145.979 130.49C149.863 126.33 155.42 121.348 158.326 119.419C166.504 113.991 179.524 109.03 189.307 107.616C197.778 106.391 198 106.29 198 103.655C198 101.066 197.818 100.97 193.75 101.419C169.284 104.116 159.034 108.772 143.467 124.26C136.545 131.146 133.455 135.139 130.31 141.26C125.263 151.082 122.361 160.315 121.472 169.376L120.796 176.26L123.789 176.361C126.653 176.457 126.81 176.242 127.444 171.361ZM144.667 128.093C144.3 127.726 144 126.961 144 126.393C144 125.766 144.466 125.825 145.183 126.543C145.834 127.194 146.134 127.959 145.85 128.243C145.566 128.527 145.033 128.46 144.667 128.093ZM277.582 175.76C280.904 175.76 277.578 157.863 272.064 146.082C260.008 120.318 237.339 104.893 206.25 101.298L201 100.691V103.725C201 106.578 201.23 106.76 204.84 106.76C215.221 106.76 233.52 113.786 244.651 122.046C259.451 133.028 272 155.157 272 170.275C272 175.816 272.605 177.125 274.78 176.291C275.541 175.999 276.802 175.76 277.582 175.76ZM253.5 125.76C253.84 125.21 254.568 124.76 255.118 124.76C255.668 124.76 255.84 125.21 255.5 125.76C255.16 126.31 254.432 126.76 253.882 126.76C253.332 126.76 253.16 126.31 253.5 125.76ZM289 171.207C289 164.77 286.27 153.558 282.561 144.765C276.485 130.358 264.422 115.55 251.673 106.852C239.695 98.6782 221.596 92.4348 207.25 91.5274L201 91.1321V94.4459C201 97.6362 201.147 97.7597 204.935 97.7597C210.277 97.7597 221.201 100.14 229.223 103.051C242.238 107.776 257.1 118.723 265.79 129.988C274.279 140.991 282 160.739 282 171.448C282 175.709 282.041 175.76 285.5 175.76C288.987 175.76 289 175.745 289 171.207ZM259.964 118.924C260.623 117.639 261.436 116.863 261.772 117.198C262.107 117.533 261.568 118.584 260.574 119.534C258.846 121.184 258.819 121.157 259.964 118.924ZM107.641 267.987C107.342 267.504 110.208 264.022 114.01 260.25C119.254 255.045 121.066 253.767 121.519 254.949C121.921 255.995 120.101 258.435 115.974 262.383C109.326 268.743 108.465 269.321 107.641 267.987ZM283.729 262.899C278.151 257.448 276.648 254.728 279.25 254.789C281.26 254.837 292.344 266.394 291.574 267.639C290.528 269.333 289.967 268.994 283.729 262.899ZM83 219.867C83 219.376 83.5625 218.748 84.25 218.472C95.4648 213.975 96 213.824 96 215.151C96 215.9 93.7791 217.469 91.0646 218.637C85.8136 220.895 83 221.325 83 219.867ZM308.072 218.18C304.443 216.532 302.976 215.383 303.647 214.713C304.77 213.589 316 218.244 316 219.833C316 221.277 313.954 220.851 308.072 218.18ZM90.5 139.591C85.1616 137.495 83.2643 136.162 84.2352 135.191C85.2013 134.225 96.9692 139.134 96.9853 140.51C97.0042 142.062 96.669 142.014 90.5 139.591ZM303 140.506C303 139.645 305.313 138.152 308.589 136.899C314.733 134.547 316 134.33 316 135.626C316 136.355 313.228 137.73 304.25 141.455C303.563 141.74 303 141.313 303 140.506ZM113.628 95.8886C104.719 86.9113 106.532 85.2222 115.786 93.8783C119.479 97.3327 122.5 100.594 122.5 101.126C122.5 103.726 119.857 102.166 113.628 95.8886ZM278 100.707C278 99.6797 289.391 88.5884 291.126 87.9265C293.687 86.9496 291.312 90.8968 286.281 95.9808C280.881 101.438 278 103.082 278 100.707ZM155.244 71.4927C152.846 65.931 152.459 63.7598 153.867 63.7598C154.595 63.7598 155.97 66.5315 159.695 75.5098C159.981 76.1973 159.603 76.7521 158.857 76.7428C158.111 76.7352 156.485 74.3709 155.244 71.4927ZM240 75.782C240 74.1435 245.362 63.7598 246.208 63.7598C247.389 63.7598 247.213 64.6311 244.755 70.9704C243.52 74.1546 241.945 76.7598 241.255 76.7598C240.565 76.7598 240 76.3198 240 75.782Z" fill="#9046A4"/>
</g>
<defs>
<clipPath id="clip0_51_641">
<rect width="280.076" height="272.669" fill="white" transform="translate(60 41)"/>
</clipPath>
</defs>
</svg>
